<svg width="154" height="19" viewBox="0 0 154 19" fill="none" xmlns="http://www.w3.org/2000/svg">
<path d="M0.04 18V1.68H11.128V4.392H3.112V8.496H10.168V11.184H3.112V18H0.04ZM15.5586 18V5.472H18.1986L18.0786 8.04H18.3426C19.9506 5.352 19.9506 5.352 22.0146 5.352C22.3266 5.352 23.6466 5.376 24.3666 5.4V8.28C23.0226 8.208 21.6306 8.256 20.7426 8.376C19.7586 8.52 18.4386 10.32 18.4386 11.832V18H15.5586ZM32.8533 18.216C29.4213 18.216 28.4133 17.328 28.4133 14.352C28.4133 10.848 29.8293 9.816 34.5813 9.816H36.4773V9.672C36.4773 8.088 35.9013 7.608 33.9573 7.608C32.2053 7.608 31.7013 7.992 31.7493 9.288H28.8213C28.7013 6.096 29.8773 5.16 33.9573 5.16C38.0613 5.16 39.2853 6.192 39.2853 9.672V18H36.5493V16.512H36.3573C35.4453 17.832 34.6533 18.216 32.8533 18.216ZM31.3413 14.136C31.3413 15.36 31.7973 15.72 33.3573 15.72C35.6853 15.72 36.3813 14.928 36.4533 12.216L34.0773 12.24C31.9653 12.264 31.3413 12.696 31.3413 14.136ZM48.8039 18.216C44.1479 18.216 42.7559 16.752 42.7559 11.76C42.7559 6.672 44.1239 5.16 48.7559 5.16C52.8119 5.16 54.0359 6.192 54.1079 9.696H51.2039C50.9639 8.136 50.4359 7.68 48.8999 7.68C46.4279 7.68 45.6839 8.616 45.6839 11.784C45.6839 14.808 46.4279 15.696 48.9239 15.696C50.4119 15.696 50.9399 15.288 51.2279 13.944H54.1079C54.0119 17.232 52.8119 18.216 48.8039 18.216ZM64.3225 18.264C60.7945 18.264 60.1945 16.848 60.1945 13.992V7.944H57.0985L57.6745 5.472H60.2905V2.928L63.0745 1.752V5.472H67.7545V7.944H63.0745V13.896C63.0745 15.288 63.2905 15.72 65.1385 15.72C65.9305 15.72 66.8185 15.624 68.1385 15.432V17.952C66.6025 18.144 65.2105 18.264 64.3225 18.264ZM75.5931 3.912V0.527999H79.2651V3.912H75.5931ZM72.1131 18V15.528H76.2891V7.944H72.3531V5.472H79.1691V15.528H83.1771V18H72.1131ZM91.5438 18.216C86.9598 18.216 85.5918 16.728 85.5918 11.712C85.5918 6.648 86.9598 5.16 91.5438 5.16C96.1278 5.16 97.4958 6.648 97.4958 11.712C97.4958 16.728 96.1278 18.216 91.5438 18.216ZM88.5198 11.712C88.5198 14.808 89.2158 15.72 91.5438 15.72C93.8718 15.72 94.5678 14.808 94.5678 11.712C94.5678 8.568 93.8718 7.632 91.5438 7.632C89.2158 7.632 88.5198 8.568 88.5198 11.712ZM100.366 18V5.472H103.294V7.2H103.486C104.374 5.616 105.166 5.16 106.918 5.16C110.494 5.16 111.55 6.288 111.55 10.08V18H108.622V10.032C108.622 8.28 108.094 7.752 106.294 7.752C103.99 7.752 103.294 8.616 103.294 11.496V18H100.366ZM127.948 18L132.58 1.68H136.852L141.58 18H138.556L137.5 14.4H131.98L130.948 18H127.948ZM132.7 11.736H136.804L134.716 4.464H134.692L132.7 11.736ZM144.594 18V15.336H147.594V4.344H144.762V1.68H153.426V4.344H150.594V15.336H153.594V18H144.594Z" fill="white"/>
</svg>
