<svg width="274" height="44" viewBox="0 0 274 44" fill="none" xmlns="http://www.w3.org/2000/svg">
<mask id="mask0_11387_2944" style="mask-type:luminance" maskUnits="userSpaceOnUse" x="10" y="1" width="255" height="41">
<path d="M264.247 1.55664H10.4004V41.5566H264.247V1.55664Z" fill="white"/>
</mask>
<g mask="url(#mask0_11387_2944)">
<path d="M166.012 7.71094H171.962V11.9919H166.012V7.71094Z" fill="white"/>
<path d="M166.012 14.1309H171.962V31.7898H166.012V14.1309Z" fill="white"/>
<path fill-rule="evenodd" clip-rule="evenodd" d="M248.398 26.7058L250.258 31.7893H256.95L247.486 8.24414H238.29L228.824 31.7893H235.518L237.377 26.7058H248.398ZM244.037 14.8328L246.707 22.1573H239.067L241.738 14.8328C241.941 14.2531 242.087 13.7626 242.178 13.3612C242.29 12.9599 242.347 12.5474 242.347 12.1238C242.347 11.7224 242.527 11.5217 242.887 11.5217C243.27 11.5217 243.463 11.7224 243.463 12.1238C243.463 12.8372 243.653 13.7402 244.037 14.8328Z" fill="white"/>
<path d="M258.025 8.24414V31.7893H264.245V8.24414H258.025Z" fill="white"/>
<path d="M210.867 13.5977C213.21 13.5977 215.07 14.2331 216.444 15.504C217.842 16.7749 218.541 18.6366 218.541 21.0893V31.7917H212.59V23.4974C212.59 21.5799 212.298 20.2533 211.711 19.5174C211.148 18.7816 210.202 18.4137 208.871 18.4137C207.925 18.4137 207.024 18.7259 206.167 19.3502C205.333 19.9745 204.658 20.8329 204.139 21.9254C203.644 23.018 203.395 24.222 203.395 25.5374V31.7917H197.445V14.1328H203.395V14.9689C203.395 15.727 203.248 16.3624 202.956 16.8753C202.685 17.3213 202.55 17.6556 202.55 17.8786C202.55 18.0123 202.618 18.1126 202.753 18.1796C202.798 18.2019 202.865 18.2131 202.956 18.2131C203.113 18.2131 203.238 18.1462 203.327 18.0123C203.418 17.8563 203.475 17.7671 203.496 17.7448C204.33 16.6077 205.356 15.6378 206.573 14.8351C207.79 14.0101 209.221 13.5977 210.867 13.5977Z" fill="white"/>
<path fill-rule="evenodd" clip-rule="evenodd" d="M190.554 14.8686C188.886 14.0213 186.936 13.5977 184.705 13.5977C182.474 13.5977 180.513 14.0213 178.823 14.8686C177.154 15.6935 175.869 16.8195 174.968 18.2465C174.068 19.6513 173.617 21.2231 173.617 22.9622C173.617 24.7014 174.068 26.2845 174.968 27.7114C175.869 29.116 177.154 30.242 178.823 31.0894C180.513 31.9143 182.474 32.3268 184.705 32.3268C186.936 32.3268 188.886 31.9143 190.554 31.0894C192.243 30.242 193.54 29.116 194.442 27.7114C195.343 26.2845 195.794 24.7014 195.794 22.9622C195.794 21.2231 195.343 19.6513 194.442 18.2465C193.54 16.8195 192.243 15.6935 190.554 14.8686ZM188.491 26.2063C187.589 27.0759 186.328 27.5108 184.705 27.5108C183.082 27.5108 181.82 27.0759 180.919 26.2063C180.017 25.3368 179.566 24.2554 179.566 22.9622C179.566 21.6689 180.017 20.5876 180.919 19.718C181.82 18.8485 183.082 18.4137 184.705 18.4137C186.328 18.4137 187.589 18.8485 188.491 19.718C189.393 20.5876 189.843 21.6689 189.843 22.9622C189.843 24.2554 189.393 25.3368 188.491 26.2063Z" fill="white"/>
<path d="M157.637 25.5019V18.6791H163.587V14.1305H157.637V9.31445H151.687V14.1305H147.359V18.6791H151.687V26.3714C151.687 27.776 151.867 28.8686 152.228 29.6489C152.611 30.4294 153.185 30.9868 153.952 31.3212C154.718 31.6334 155.721 31.7894 156.96 31.7894H163.587V27.2409H159.259C158.696 27.2409 158.313 27.2186 158.11 27.174C157.907 27.1071 157.772 26.9622 157.704 26.7392C157.659 26.5163 157.637 26.1039 157.637 25.5019Z" fill="white"/>
<path d="M126.008 22.9622C126.008 21.2231 126.447 19.6513 127.326 18.2465C128.228 16.8195 129.535 15.6935 131.248 14.8686C132.961 14.0213 134.978 13.5977 137.299 13.5977C139.328 13.5977 141.108 13.9544 142.641 14.6679C144.173 15.3591 145.356 16.2844 146.19 17.4439C147.047 18.5809 147.531 19.8073 147.644 21.1228L141.762 21.1562C141.536 20.3759 141.04 19.7293 140.274 19.2163C139.53 18.6813 138.561 18.4137 137.367 18.4137C136.285 18.4137 135.338 18.6256 134.527 19.0491C133.716 19.4505 133.085 19.9968 132.634 20.688C132.183 21.3791 131.958 22.1373 131.958 22.9622C131.958 23.7873 132.183 24.5453 132.634 25.2365C133.085 25.9277 133.716 26.4851 134.527 26.9088C135.338 27.31 136.285 27.5108 137.367 27.5108C138.561 27.5108 139.53 27.2431 140.274 26.708C141.04 26.1729 141.536 25.5153 141.762 24.7348L147.644 24.7682C147.531 26.0837 147.058 27.3213 146.224 28.4806C145.39 29.64 144.207 30.5765 142.674 31.29C141.142 31.9813 139.35 32.3268 137.299 32.3268C135 32.3268 132.995 31.9143 131.282 31.0894C129.591 30.242 128.284 29.116 127.36 27.7114C126.459 26.2845 126.008 24.7014 126.008 22.9622Z" fill="white"/>
<path fill-rule="evenodd" clip-rule="evenodd" d="M105.165 22.5906C103.723 23.4603 103.002 24.8538 103.002 26.7712C103.002 27.7746 103.284 28.6777 103.847 29.4803C104.433 30.2608 105.267 30.8851 106.349 31.3532C107.453 31.7992 108.771 32.0221 110.304 32.0221C112.175 32.0221 113.73 31.6764 114.969 30.9854C116.231 30.2718 117.246 29.3687 118.012 28.2763C118.034 28.254 118.079 28.1648 118.147 28.0088C118.237 27.8526 118.361 27.7746 118.519 27.7746C118.564 27.7746 118.632 27.7969 118.722 27.8415C118.835 27.8861 118.891 27.9752 118.891 28.1091C118.891 28.2652 118.835 28.4546 118.722 28.6777C118.609 28.9006 118.542 29.0455 118.519 29.1124C118.271 29.6029 118.147 30.0935 118.147 30.584V31.4871H124.097V21.7211C124.097 19.4691 123.658 17.73 122.779 16.5037C121.922 15.2551 120.773 14.4078 119.33 13.9619C117.888 13.5159 116.164 13.293 114.158 13.293C111.138 13.293 108.681 13.8058 106.788 14.8314C104.918 15.8571 103.836 17.4848 103.543 19.7144H109.425C109.583 18.9786 109.977 18.4435 110.608 18.1091C111.239 17.7523 112.377 17.574 114.023 17.574C116.727 17.574 118.102 18.1537 118.147 19.3131C118.17 19.982 117.685 20.4278 116.693 20.6509C115.724 20.8515 114.282 20.9854 112.366 21.0521L111.656 21.0857C108.794 21.2194 106.63 21.7211 105.165 22.5906ZM112.4 24.3298C115.15 24.1068 117.065 23.5494 118.147 22.6575C118.147 23.7055 117.865 24.6308 117.302 25.4335C116.739 26.2138 116.051 26.8271 115.24 27.2729C114.451 27.7189 113.673 28.0088 112.907 28.1424C112.479 28.2094 112.073 28.2429 111.69 28.2429C110.834 28.2429 110.158 28.0757 109.662 27.7412C109.188 27.4068 108.952 26.9608 108.952 26.4034C108.952 25.6898 109.233 25.1881 109.797 24.8983C110.36 24.6084 111.228 24.4189 112.4 24.3298Z" fill="white"/>
<path d="M94.08 17.8749C94.2378 17.8749 94.3504 17.8081 94.4181 17.6743C94.5083 17.5406 94.5646 17.4513 94.587 17.4067C95.3083 16.1581 96.3 15.2105 97.5621 14.5639C98.8467 13.895 100.515 13.5605 102.565 13.5605V18.9786C102.34 18.9563 102.002 18.9452 101.551 18.9452C99.3426 18.9452 97.6072 19.4692 96.345 20.517C95.0829 21.565 94.452 23.1147 94.452 25.1659V31.487H88.502V13.8281H94.452V14.8983C94.452 15.4335 94.2941 16.0132 93.9786 16.6375C93.7983 17.0389 93.7081 17.3175 93.7081 17.4736C93.7081 17.7189 93.8095 17.8527 94.0124 17.8749H94.08Z" fill="white"/>
<path d="M86.3395 8.24414H65.7852V31.7893H72.0055V22.4248H84.1759V17.6087H72.0055V13.3278H86.3395V8.24414Z" fill="white"/>
<path d="M50.4008 8.47972C50.4008 12.3032 47.3013 15.4028 43.4778 15.4028C39.6542 15.4028 36.5547 12.3032 36.5547 8.47972C36.5547 4.65621 39.6542 1.55664 43.4778 1.55664C47.3013 1.55664 50.4008 4.65621 50.4008 8.47972Z" fill="white"/>
<path d="M50.4004 17.7113C48.4719 19.1599 46.0749 20.0182 43.4773 20.0182C37.1049 20.0182 31.9389 14.8522 31.9389 8.47972C31.9389 5.88216 32.7972 3.48509 34.2458 1.55664H17.3235C13.5 1.55664 10.4004 4.65621 10.4004 8.47972V34.6336C10.4004 38.4571 13.5 41.5566 17.3235 41.5566H43.4773C47.3009 41.5566 50.4004 38.4571 50.4004 34.6336V17.7113Z" fill="white"/>
</g>
</svg>
