<svg width="65" height="22" viewBox="0 0 65 22" fill="none" xmlns="http://www.w3.org/2000/svg">
<path d="M3.21425 18.1321C2.18125 17.1603 1.36316 15.9922 0.810487 14.6997C0.257811 13.4072 -0.0177266 12.0178 0.000883615 10.6173C-0.0133436 9.22283 0.264344 7.8402 0.816911 6.55426C1.36948 5.26831 2.18527 4.10617 3.21425 3.13913C4.20956 2.12733 5.4076 1.32655 6.73372 0.786683C8.05983 0.246821 9.4856 -0.0205502 10.9222 0.00123149C12.3588 -0.0199275 13.7846 0.247722 15.1109 0.787541C16.4371 1.32736 17.6355 2.12781 18.6315 3.13913C19.6659 4.11252 20.4848 5.28292 21.0372 6.57786C21.5897 7.87279 21.8641 9.26469 21.8434 10.6674C21.8638 12.0698 21.5892 13.4614 21.0367 14.7561C20.4843 16.0507 19.6656 17.2209 18.6315 18.1943C17.6347 19.2044 16.4361 20.004 15.11 20.5436C13.784 21.0831 12.3586 21.351 10.9222 21.3308C9.48125 21.3435 8.05312 21.066 6.72694 20.5156C5.40076 19.9652 4.20498 19.1538 3.21425 18.1321ZM14.7768 14.3679C15.2947 13.882 15.7041 13.2968 15.9794 12.6491C16.2546 12.0013 16.3899 11.305 16.3766 10.6038C16.39 9.90259 16.2549 9.20623 15.9796 8.55846C15.7043 7.9107 15.2948 7.32552 14.7768 6.83968C14.2792 6.33396 13.6799 5.93405 13.0166 5.665C12.3533 5.39595 11.6403 5.26357 10.9222 5.27614C10.199 5.27016 9.48251 5.4114 8.81836 5.69085C8.15421 5.97029 7.55697 6.38182 7.06474 6.89919C6.54694 7.3858 6.13786 7.97178 5.86326 8.62029C5.58866 9.26879 5.45447 9.96577 5.46914 10.6674C5.45532 11.3681 5.58992 12.064 5.8645 12.7115C6.13907 13.359 6.5477 13.9441 7.06474 14.4301C7.56305 14.9298 8.15977 15.3259 8.81898 15.5944C9.47818 15.8629 10.1862 15.9983 10.9004 15.9925C11.6147 15.9867 12.3203 15.8397 12.9748 15.5605C13.6294 15.2813 14.2192 14.8757 14.7089 14.3679H14.7768Z" fill="white"/>
<path d="M40.1596 3.13849C39.1504 2.14464 37.9496 1.35579 36.6265 0.817452C35.3035 0.279117 33.8844 0.00195313 32.451 0.00195312C31.0177 0.00195313 29.5986 0.279117 28.2755 0.817452C26.9525 1.35579 25.7517 2.14464 24.7424 3.13849C23.7075 4.11154 22.8884 5.28187 22.3358 6.57688C21.7833 7.8719 21.5092 9.26397 21.5304 10.6667V21.2355H26.9655V10.6167C26.952 9.91559 27.087 9.21934 27.362 8.5716C27.6371 7.92387 28.0463 7.33862 28.5638 6.85257C29.0609 6.35796 29.6529 5.96385 30.306 5.69276C30.9592 5.42166 31.6606 5.2789 32.3702 5.27262C33.0798 5.26634 33.7838 5.39666 34.4418 5.65616C35.0999 5.91565 35.6991 6.29921 36.2053 6.78494L36.2731 6.85257C36.7912 7.33835 37.2007 7.92352 37.476 8.5713C37.7513 9.21908 37.8865 9.91546 37.8729 10.6167H43.3079C43.3313 9.22667 43.0642 7.8466 42.5229 6.56081C41.9816 5.27502 41.1774 4.11052 40.1596 3.13849Z" fill="white"/>
<path d="M64.9738 10.6168C64.9938 9.21423 64.7191 7.82252 64.1666 6.52768C63.6142 5.23284 62.7957 4.06237 61.7618 3.08858C59.7169 1.10776 56.9506 0.000441688 54.0703 0.00982477C51.19 0.0192079 48.4313 1.14452 46.4 3.13862C45.3736 4.11596 44.5627 5.28798 44.0172 6.58261C43.4718 7.87725 43.2032 9.26715 43.2281 10.6669C43.2037 12.0663 43.4724 13.4559 44.0179 14.7503C44.5633 16.0446 45.3739 17.2164 46.4 18.1938C47.3968 19.2039 48.5953 20.0035 49.9214 20.543C51.2475 21.0826 52.6728 21.3505 54.1093 21.3303V15.9296C53.3912 15.9428 52.678 15.8109 52.0147 15.5421C51.3513 15.2732 50.7521 14.8733 50.2546 14.3674C49.737 13.8813 49.3278 13.2961 49.0525 12.6484C48.7773 12.0007 48.6419 11.3044 48.6549 10.6033C48.6417 9.90213 48.777 9.20586 49.0523 8.55814C49.3276 7.91042 49.7369 7.32521 50.2546 6.83918C50.7518 6.34466 51.3439 5.95066 51.997 5.67968C52.6502 5.4087 53.3516 5.26606 54.0613 5.25991C54.7709 5.25375 55.4748 5.3842 56.1328 5.64381C56.7908 5.90342 57.39 6.28709 57.896 6.7729L57.9653 6.83918C58.4811 7.32629 58.8887 7.91186 59.1627 8.55943C59.4367 9.20701 59.5713 9.90273 59.5581 10.6033V21.2356H65.0001V10.6168H64.9738Z" fill="white"/>
</svg>
