<svg width="120" height="28" viewBox="0 0 120 28" fill="none" xmlns="http://www.w3.org/2000/svg">
<g clip-path="url(#clip0_10757_1102)">
<path fill-rule="evenodd" clip-rule="evenodd" d="M17.9319 12.2709C18.1687 12.0372 18.2629 11.6954 18.179 11.3738L15.6106 1.52849C15.5476 1.28676 15.3898 1.08042 15.1728 0.955793L14.4881 0.562475C13.8926 0.220444 13.1787 0.763824 13.352 1.4272L16.2038 12.3443C16.3543 12.9204 17.0737 13.1175 17.4981 12.6989L17.9319 12.2709ZM10.6563 0.890704C11.1506 0.603894 11.7828 0.866568 11.9269 1.41865C12.0945 2.0604 11.5035 2.64273 10.8624 2.46752C10.1234 2.26556 9.99393 1.27503 10.6563 0.890704ZM12.1828 4.21851C12.5053 4.30637 12.7562 4.55964 12.8405 4.88251L12.9966 5.48099C13.1467 6.0565 12.6165 6.5785 12.0417 6.42096L6.39109 4.87197C5.72771 4.69012 5.61338 3.80007 6.20934 3.45718L6.89358 3.06351C7.10928 2.93941 7.36572 2.90641 7.60592 2.97183L12.1828 4.21851ZM13.2049 8.1133C13.5259 8.2016 13.7756 8.45386 13.86 8.77532L14.0146 9.36419C14.1658 9.94015 13.6349 10.4632 13.0596 10.3052L2.15777 7.31079C1.49532 7.12883 1.3806 6.2403 1.97523 5.89679L2.659 5.50177C2.87566 5.3766 3.13363 5.34349 3.37498 5.40987L13.2049 8.1133ZM0.341801 9.38826C0.34 8.81775 0.884092 8.40284 1.43537 8.55433C2.07618 8.73042 2.28613 9.53226 1.81353 9.99857C1.26872 10.5361 0.344215 10.1527 0.341801 9.38826ZM3.99357 9.73319C4.23114 9.49839 4.57641 9.40826 4.89877 9.49691L5.49633 9.66122C6.07094 9.81922 6.2589 10.5384 5.83478 10.9563L1.66492 15.0643C1.1754 15.5466 0.345667 15.2003 0.34603 14.5139L0.346447 13.7259C0.346578 13.4775 0.446151 13.2394 0.623039 13.0645L3.99357 9.73319ZM7.88518 10.7975C8.12237 10.5642 8.46614 10.4746 8.78736 10.5625L9.37582 10.7233C9.95135 10.8806 10.14 11.6008 9.71513 12.0189L1.66509 19.9415C1.17592 20.423 0.347333 20.0778 0.346475 19.3923L0.345488 18.604C0.345175 18.3542 0.445418 18.1147 0.623713 17.9394L7.88518 10.7975ZM7.56171 16.7178C7.47782 16.3963 7.57196 16.0544 7.80878 15.8208L8.24262 15.3928C8.66693 14.9741 9.38638 15.1712 9.53688 15.7474L12.3886 26.6645C12.562 27.3279 11.8481 27.8712 11.2526 27.5292L10.5678 27.1358C10.3508 27.0113 10.1931 26.8049 10.1301 26.5631L7.56171 16.7178ZM11.8899 19.2854C11.9743 19.6069 12.2239 19.8591 12.545 19.9475L22.3749 22.6508C22.6162 22.7173 22.8742 22.6841 23.0909 22.559L23.7746 22.164C24.3692 21.8204 24.2545 20.9319 23.5921 20.7499L12.6903 17.7555C12.1149 17.5975 11.5841 18.1206 11.7353 18.6965L11.8899 19.2854ZM13.567 23.8423C13.2444 23.7544 12.9936 23.5011 12.9093 23.1783L12.7533 22.5798C12.603 22.0042 13.1334 21.4822 13.708 21.6398L19.3587 23.1888C20.0222 23.3706 20.1365 24.2607 19.5405 24.6036L18.8563 24.9973C18.6406 25.1213 18.3841 25.1544 18.144 25.0889L13.567 23.8423ZM15.0935 27.1701C14.5991 27.4569 13.967 27.1942 13.8229 26.6421C13.6553 26.0004 14.2463 25.418 14.8873 25.5933C15.6264 25.7952 15.7558 26.7857 15.0935 27.1701ZM4.93963 18.6481C4.70151 18.8823 4.6071 19.2256 4.69212 19.5483L5.89847 24.1264C5.96177 24.3666 6.11865 24.5717 6.33421 24.6961L7.01803 25.0904C7.61363 25.434 8.32903 24.8901 8.15518 24.226L6.67435 18.5689C6.52373 17.9935 5.80549 17.7964 5.38103 18.2139L4.93963 18.6481ZM2.3898 21.1693C1.98267 21.57 2.07076 22.2475 2.56686 22.5312C3.23164 22.9114 4.02666 22.3042 3.83247 21.5647C3.66402 20.9231 2.86305 20.7036 2.3898 21.1693ZM21.0485 8.54333C21.1335 8.866 21.0391 9.20939 20.801 9.44362L20.3596 9.87778C19.9352 10.2953 19.2169 10.0981 19.0663 9.52271L17.5854 3.86567C17.4116 3.20155 18.127 2.65772 18.7227 3.00124L19.4064 3.39563C19.622 3.51995 19.7789 3.72503 19.8422 3.96529L21.0485 8.54333ZM23.1738 5.56046C23.6699 5.84416 23.758 6.52174 23.3509 6.92234C22.8776 7.38799 22.0767 7.16849 21.9082 6.52698C21.7141 5.78744 22.5091 5.18031 23.1738 5.56046ZM17.8336 17.2853C17.5964 17.5186 17.2526 17.6081 16.9313 17.5204L16.3429 17.3595C15.7674 17.2022 15.5788 16.482 16.0036 16.0639L24.0537 8.14124C24.5428 7.65982 25.3714 8.00495 25.3723 8.6905L25.3732 9.47884C25.3736 9.72863 25.2733 9.96809 25.095 10.1434L17.8336 17.2853ZM21.7253 18.3496C21.4877 18.5844 21.1425 18.6745 20.8201 18.5859L20.2225 18.4216C19.6479 18.2636 19.4599 17.5444 19.884 17.1265L24.0539 13.0184C24.5434 12.5362 25.3731 12.8825 25.3728 13.5689L25.3724 14.3569C25.3722 14.6053 25.2726 14.8434 25.0957 15.0183L21.7253 18.3496ZM25.377 18.6946C25.3789 19.2651 24.8347 19.68 24.2835 19.5285C23.6426 19.3524 23.4327 18.5506 23.9052 18.0842C24.4501 17.5468 25.3746 17.9301 25.377 18.6946ZM81.0859 4.94724C81.0859 5.8796 81.7907 6.6553 82.7788 6.6553C83.7649 6.6553 84.4717 5.92538 84.4717 4.94724C84.4717 3.96407 83.6939 3.26106 82.7788 3.26106C81.8637 3.26106 81.0859 3.96407 81.0859 4.94724ZM58.0115 18.5671L58.0126 18.5667C58.3358 18.4379 58.5185 18.3169 58.6256 18.1591C58.7329 18.0012 58.7768 17.7882 58.7768 17.444V11.8194C58.7768 11.3755 58.7216 11.0837 58.6034 10.889C58.4897 10.7019 58.3077 10.5885 58.0083 10.5269L58.0073 10.5267L57.4789 10.4129C57.2618 10.3661 57.1069 10.1749 57.1069 9.95367C57.1069 9.76688 57.218 9.59784 57.3899 9.5231L60.033 8.3736C60.2295 8.2882 60.4553 8.30342 60.6384 8.4144C60.8349 8.53357 60.9541 8.74835 60.9541 8.97648C60.9541 9.1986 61.1112 9.37867 61.3357 9.4658C61.5606 9.55312 61.8237 9.53422 62.0035 9.38678C62.8865 8.66263 63.9005 8.25109 64.9303 8.25109C66.1004 8.25109 67.0607 8.66106 67.7272 9.4157C68.3922 10.1687 68.7547 11.2531 68.7547 12.5855V17.444C68.7547 17.7881 68.7986 18.0017 68.9037 18.16C69.0085 18.3178 69.1859 18.4383 69.4974 18.5669L70.1557 18.8128C70.3306 18.8781 70.4465 19.0447 70.4465 19.2309C70.4465 19.4775 70.2458 19.6774 69.9982 19.6774H65.1799C64.9323 19.6774 64.7316 19.4775 64.7316 19.2309C64.7316 19.0447 64.8475 18.8781 65.0224 18.8128L65.6795 18.5674L65.681 18.5668C65.9709 18.449 66.1362 18.3396 66.235 18.186C66.3353 18.0305 66.3795 17.8113 66.3795 17.444V13.045C66.3795 12.108 66.163 11.4099 65.7662 10.9474C65.3717 10.4878 64.7851 10.2447 64.0074 10.2447C63.0355 10.2447 62.0353 10.7623 61.3119 11.5957C61.2055 11.7183 61.1519 11.8803 61.1519 12.05V17.444C61.1519 17.8131 61.1912 18.0319 61.2888 18.187C61.3846 18.3393 61.5486 18.4486 61.8499 18.5666L61.8507 18.5669L62.509 18.8128C62.684 18.8781 62.7999 19.0447 62.7999 19.2309C62.7999 19.4775 62.5992 19.6774 62.3516 19.6774H57.5112C57.2636 19.6774 57.0629 19.4775 57.0629 19.2309C57.0629 19.0447 57.1788 18.8781 57.3539 18.8128L58.0115 18.5671ZM99.0277 18.5667L99.0267 18.5671L98.3689 18.8128C98.194 18.8781 98.078 19.0447 98.078 19.2309C98.078 19.4775 98.2787 19.6774 98.5263 19.6774H103.367C103.614 19.6774 103.815 19.4775 103.815 19.2309C103.815 19.0447 103.699 18.8781 103.524 18.8128L102.866 18.5669L102.865 18.5666C102.564 18.4486 102.4 18.3393 102.304 18.187C102.207 18.0319 102.167 17.8131 102.167 17.444V12.05C102.167 11.8803 102.221 11.7183 102.327 11.5957C103.051 10.7623 104.05 10.2447 105.022 10.2447C105.801 10.2447 106.387 10.4878 106.781 10.9474C107.178 11.4099 107.394 12.108 107.394 13.045V17.444C107.394 17.8113 107.351 18.0305 107.25 18.186C107.151 18.3396 106.986 18.449 106.696 18.5668L106.695 18.5674L106.038 18.8128C105.863 18.8781 105.747 19.0447 105.747 19.2309C105.747 19.4775 105.947 19.6774 106.195 19.6774H111.014C111.261 19.6774 111.462 19.4775 111.462 19.2309C111.462 19.0447 111.346 18.8781 111.17 18.8128L110.514 18.5676L110.513 18.5669C110.201 18.4383 110.024 18.3177 109.919 18.16C109.814 18.0017 109.77 17.7881 109.77 17.444V12.5855C109.77 11.2531 109.407 10.1687 108.742 9.4157C108.075 8.66106 107.115 8.25109 105.945 8.25109C104.916 8.25109 103.901 8.66263 103.019 9.38678C102.838 9.53422 102.576 9.55312 102.351 9.4658C102.126 9.37867 101.969 9.1986 101.969 8.97647C101.969 8.74835 101.85 8.53357 101.653 8.4144C101.47 8.30342 101.245 8.2882 101.048 8.3736L98.4049 9.5231C98.233 9.59784 98.122 9.76688 98.122 9.95367C98.122 10.1749 98.2769 10.3661 98.4939 10.4129L99.0224 10.5267L99.0234 10.5269C99.3228 10.5885 99.5044 10.7019 99.6185 10.889C99.7365 11.0837 99.792 11.3755 99.792 11.8194V17.444C99.792 17.7882 99.7484 18.0012 99.6403 18.1591C99.5332 18.3169 99.3508 18.4379 99.0277 18.5667ZM81.5647 18.1658C81.4548 18.3216 81.272 18.4375 80.9583 18.5668L80.3001 18.8127C80.1251 18.878 80.0092 19.0446 80.0092 19.2308C80.0092 19.4774 80.2099 19.6773 80.4575 19.6773H85.3418C85.5894 19.6773 85.7901 19.4774 85.7901 19.2308C85.7901 19.0446 85.6742 18.878 85.4992 18.8127L84.841 18.5668C84.5279 18.4377 84.3512 18.3223 84.2469 18.1675C84.1423 18.0125 84.0982 17.7997 84.0982 17.4439V8.99757C84.0982 8.7541 83.9683 8.52895 83.7572 8.40628C83.5755 8.30069 83.3552 8.28383 83.1593 8.36054L80.3574 9.45823C80.1739 9.53016 80.0531 9.70664 80.0531 9.90314C80.0531 10.1282 80.2108 10.3229 80.4317 10.3704L80.9555 10.4832L80.9575 10.4836C81.2485 10.5353 81.4288 10.6343 81.5433 10.8098C81.6624 10.9926 81.7231 11.2773 81.7231 11.7318V17.4439C81.7231 17.7978 81.674 18.0105 81.5647 18.1658ZM113.977 19.044C113.502 18.4392 113.294 17.4936 113.294 16.1309V10.6267C113.294 10.2223 112.964 9.89451 112.559 9.89451H112.228C111.882 9.89451 111.602 9.61553 111.602 9.27138C111.602 8.96998 111.819 8.71179 112.116 8.65818L113.076 8.48531C113.319 8.44171 113.526 8.28623 113.635 8.06631L114.73 5.85101C114.855 5.59775 115.169 5.50092 115.416 5.63886C115.572 5.726 115.669 5.89042 115.669 6.06876V7.6971C115.669 8.12395 116.017 8.46997 116.445 8.46997H118.337C118.733 8.46997 119.053 8.78887 119.053 9.18225C119.053 9.57562 118.733 9.89451 118.337 9.89451H116.445C116.017 9.89451 115.669 10.2405 115.669 10.6674V15.8027C115.669 16.7722 115.801 17.4002 116.062 17.7844C116.315 18.1573 116.702 18.3185 117.272 18.3185C117.682 18.3185 118.118 18.2204 118.527 18.084C118.834 17.9815 119.182 18.1411 119.273 18.4616C119.336 18.6764 119.263 18.9168 119.066 19.0445C118.326 19.5231 117.216 19.8962 116.173 19.8962C115.19 19.8962 114.457 19.6564 113.977 19.044ZM86.6603 14.1175C86.6603 15.9757 87.1769 17.423 88.1135 18.4065C89.0507 19.3905 90.3953 19.8962 92.0227 19.8962C93.6515 19.8962 95.0421 19.3594 96.1567 18.4201C96.3869 18.2261 96.4062 17.8904 96.2271 17.6601C96.0379 17.4166 95.6957 17.3706 95.4395 17.5267C94.6888 17.9844 93.8967 18.2529 92.8797 18.2529C91.7401 18.2529 90.8279 17.8843 90.1991 17.1845C89.569 16.483 89.2111 15.4345 89.2111 14.0518C89.2111 13.9556 89.2894 13.8777 89.386 13.8777H96.1756C96.5039 13.8777 96.7699 13.6127 96.7699 13.2858H96.6591L96.7698 13.2827C96.7253 11.6745 96.218 10.4143 95.3617 9.5558C94.5051 8.69702 93.3103 8.25109 91.9128 8.25109C88.85 8.25109 86.6603 10.8534 86.6603 14.1175ZM93.5552 12.5956L90.1912 12.6374C89.7114 12.6433 89.3533 12.2247 89.4776 11.7893C89.6893 11.0483 90.0125 10.476 90.4288 10.0898C90.8431 9.7054 91.3548 9.50054 91.9568 9.50054C92.5552 9.50054 93.0579 9.72073 93.4467 10.1168C93.8372 10.5146 94.1173 11.095 94.2561 11.8198C94.334 12.2262 93.9962 12.5902 93.5552 12.5956ZM73.294 19.044C72.8198 18.4392 72.6113 17.4936 72.6113 16.1309V10.6267C72.6113 10.2223 72.2822 9.89451 71.8762 9.89451H71.545C71.1995 9.89451 70.9194 9.61553 70.9194 9.27138C70.9194 8.96998 71.1359 8.71179 71.4337 8.65818L72.3942 8.48531C72.6363 8.44171 72.8435 8.28623 72.9522 8.06631L74.048 5.85101C74.1732 5.59775 74.4861 5.50092 74.7334 5.63886C74.8896 5.726 74.9864 5.89042 74.9864 6.06876V7.6971C74.9864 8.12395 75.3338 8.46997 75.7624 8.46997H77.6552C78.05 8.46997 78.3702 8.78887 78.3702 9.18225C78.3702 9.57562 78.05 9.89451 77.6552 9.89451H75.7624C75.3338 9.89451 74.9864 10.2405 74.9864 10.6674V15.8027C74.9864 16.7722 75.1188 17.4002 75.3794 17.7844C75.6323 18.1573 76.0192 18.3185 76.5894 18.3185C76.9994 18.3185 77.4358 18.2204 77.8443 18.084C78.1514 17.9815 78.4993 18.1411 78.5912 18.4616C78.6529 18.6764 78.5807 18.9168 78.3833 19.0445C77.6442 19.5231 76.5336 19.8962 75.4907 19.8962C74.507 19.8962 73.7742 19.6564 73.294 19.044ZM45.4235 14.1175C45.4235 15.9757 45.9402 17.423 46.8767 18.4065C47.8139 19.3905 49.1585 19.8962 50.7859 19.8962C52.4148 19.8962 53.8054 19.3594 54.9199 18.4201C55.1502 18.2261 55.1694 17.8904 54.9903 17.6601C54.8011 17.4166 54.4589 17.3706 54.2027 17.5267C53.452 17.9844 52.6598 18.2529 51.6429 18.2529C50.5033 18.2529 49.5911 17.8843 48.9624 17.1845C48.3323 16.483 47.9744 15.4345 47.9744 14.0518C47.9744 13.9556 48.0526 13.8777 48.1492 13.8777H54.9389C55.2671 13.8777 55.5332 13.6127 55.5332 13.2858H55.4223L55.5331 13.2827C55.4885 11.6745 54.9812 10.4143 54.1249 9.5558C53.2683 8.69702 52.0735 8.25109 50.6761 8.25109C47.6132 8.25109 45.4235 10.8534 45.4235 14.1175ZM52.3185 12.5956L48.9544 12.6374C48.4747 12.6433 48.1165 12.2247 48.2408 11.7893C48.4526 11.0483 48.7757 10.476 49.192 10.0898C49.6064 9.7054 50.118 9.50054 50.72 9.50054C51.3185 9.50054 51.821 9.72073 52.2099 10.1168C52.6003 10.5146 52.8806 11.095 53.0194 11.8198C53.0972 12.2262 52.7595 12.5902 52.3185 12.5956ZM39.5129 19.8962C38.2745 19.8962 36.9505 19.5786 35.9331 18.9976C35.6145 18.8157 35.4637 18.4578 35.5002 18.107L35.675 16.4232C35.7014 16.1695 35.916 15.9768 36.1721 15.9768C36.3629 15.9768 36.537 16.0849 36.6209 16.2557L37.0186 17.0652C37.572 18.0814 38.4584 18.6468 39.6228 18.6468C40.2535 18.6468 40.771 18.487 41.1282 18.208C41.4826 17.9312 41.6872 17.5312 41.6872 17.0282C41.6872 16.6106 41.5575 16.2574 41.1581 15.8983C40.7507 15.5321 40.0635 15.1605 38.9451 14.7236C37.8172 14.2831 36.9984 13.7943 36.4608 13.2335C35.9201 12.6694 35.6666 12.035 35.6666 11.3161C35.6666 10.3939 36.0739 9.62321 36.7844 9.08607C37.4924 8.55083 38.4957 8.25109 39.6887 8.25109C40.7073 8.25109 41.8276 8.45799 42.7616 8.78727C43.1733 8.93243 43.4032 9.34715 43.3601 9.76871L43.219 11.1484C43.1927 11.4058 42.9751 11.6016 42.7154 11.6016C42.5286 11.6016 42.3593 11.4991 42.2688 11.3394C42.0161 10.8935 41.802 10.594 41.5389 10.2945C41.0999 9.79488 40.4281 9.50054 39.7106 9.50054C39.1225 9.50054 38.6525 9.63918 38.333 9.86581C38.016 10.0906 37.8439 10.4031 37.8439 10.7689C37.8439 10.9618 37.8806 11.1312 37.9649 11.292C38.0497 11.4538 38.1858 11.613 38.3933 11.7802C38.8114 12.117 39.5014 12.4729 40.5894 12.9436C41.7821 13.4496 42.6114 13.9714 43.1431 14.546C43.6784 15.1245 43.9085 15.7531 43.9085 16.4592C43.9085 17.4902 43.4578 18.3537 42.6792 18.9566C41.9027 19.5577 40.8057 19.8962 39.5129 19.8962Z" fill="white"/>
</g>
<defs>
<clipPath id="clip0_10757_1102">
<rect width="119" height="27.3378" fill="white" transform="translate(0.320312 0.4375)"/>
</clipPath>
</defs>
</svg>
