<svg width="405" height="79" viewBox="0 0 405 79" fill="none" xmlns="http://www.w3.org/2000/svg">
<path d="M1.06868 62.3751L16.3655 16.4848L388.802 0.508959L404.5 16.2071V78.5H16.2163L1.06868 62.3751Z" stroke="white"/>
<rect x="0.5" y="0.5" width="388" height="62" fill="#131313"/>
<rect x="0.5" y="0.5" width="388" height="62" stroke="white"/>
<path d="M25.1886 38V25.4H26.3406V31.16H32.7486V25.4H33.9006V38H32.7486V32.204H26.3406V38H25.1886ZM38.1351 41.6V40.628H43.2471C43.6071 40.628 43.7871 40.448 43.7871 40.088V36.488H43.5711C43.4271 36.776 43.2231 37.052 42.9591 37.316C42.7071 37.568 42.3711 37.778 41.9511 37.946C41.5431 38.102 41.0271 38.18 40.4031 38.18C39.7791 38.18 39.1971 38.048 38.6571 37.784C38.1291 37.52 37.7031 37.124 37.3791 36.596C37.0671 36.068 36.9111 35.402 36.9111 34.598V29.252H37.9911V34.526C37.9911 35.474 38.2311 36.158 38.7111 36.578C39.1911 36.998 39.8331 37.208 40.6371 37.208C41.5371 37.208 42.2871 36.914 42.8871 36.326C43.4871 35.738 43.7871 34.844 43.7871 33.644V29.252H44.8671V40.232C44.8671 40.664 44.7471 41 44.5071 41.24C44.2791 41.48 43.9311 41.6 43.4631 41.6H38.1351ZM48.041 41.6V29.252H49.085V30.854H49.301C49.553 30.374 49.943 29.948 50.471 29.576C51.011 29.192 51.761 29 52.721 29C53.501 29 54.209 29.186 54.845 29.558C55.481 29.918 55.985 30.434 56.357 31.106C56.741 31.778 56.933 32.582 56.933 33.518V33.734C56.933 34.658 56.747 35.462 56.375 36.146C56.003 36.818 55.499 37.34 54.863 37.712C54.227 38.072 53.513 38.252 52.721 38.252C52.085 38.252 51.539 38.168 51.083 38C50.639 37.82 50.273 37.592 49.985 37.316C49.709 37.04 49.493 36.758 49.337 36.47H49.121V41.6H48.041ZM52.469 37.28C53.465 37.28 54.269 36.962 54.881 36.326C55.505 35.69 55.817 34.814 55.817 33.698V33.554C55.817 32.438 55.505 31.562 54.881 30.926C54.269 30.29 53.465 29.972 52.469 29.972C51.485 29.972 50.681 30.29 50.057 30.926C49.433 31.562 49.121 32.438 49.121 33.554V33.698C49.121 34.814 49.433 35.69 50.057 36.326C50.681 36.962 51.485 37.28 52.469 37.28ZM63.7098 38.252C62.8098 38.252 62.0238 38.066 61.3518 37.694C60.6918 37.31 60.1758 36.776 59.8038 36.092C59.4318 35.408 59.2458 34.622 59.2458 33.734V33.518C59.2458 32.618 59.4318 31.832 59.8038 31.16C60.1758 30.476 60.6858 29.948 61.3338 29.576C61.9938 29.192 62.7438 29 63.5838 29C64.3998 29 65.1198 29.174 65.7438 29.522C66.3798 29.858 66.8778 30.35 67.2378 30.998C67.5978 31.634 67.7778 32.396 67.7778 33.284V33.86H60.3258C60.3618 34.952 60.6918 35.798 61.3158 36.398C61.9518 36.986 62.7498 37.28 63.7098 37.28C64.5258 37.28 65.1558 37.094 65.5998 36.722C66.0558 36.35 66.4038 35.894 66.6438 35.354L67.6158 35.786C67.4358 36.182 67.1838 36.572 66.8598 36.956C66.5478 37.328 66.1398 37.64 65.6358 37.892C65.1318 38.132 64.4898 38.252 63.7098 38.252ZM60.3438 32.924H66.6798C66.6318 31.976 66.3258 31.25 65.7618 30.746C65.1978 30.23 64.4718 29.972 63.5838 29.972C62.7078 29.972 61.9818 30.23 61.4058 30.746C60.8298 31.25 60.4758 31.976 60.3438 32.924ZM70.4356 38V29.252H71.4796V30.35H71.6956C71.8636 29.954 72.1096 29.666 72.4336 29.486C72.7696 29.306 73.2316 29.216 73.8196 29.216H74.8456V30.224H73.6936C73.0336 30.224 72.5056 30.41 72.1096 30.782C71.7136 31.154 71.5156 31.736 71.5156 32.528V38H70.4356ZM80.3959 38.252C79.3399 38.252 78.4339 38 77.6779 37.496C76.9339 36.992 76.4779 36.158 76.3099 34.994L77.3719 34.796C77.4679 35.432 77.6599 35.936 77.9479 36.308C78.2479 36.668 78.6079 36.926 79.0279 37.082C79.4599 37.238 79.9159 37.316 80.3959 37.316C81.1159 37.316 81.6919 37.172 82.1239 36.884C82.5679 36.584 82.7899 36.176 82.7899 35.66C82.7899 35.132 82.5799 34.766 82.1599 34.562C81.7519 34.358 81.2059 34.196 80.5219 34.076L79.6939 33.932C79.1419 33.836 78.6439 33.692 78.1999 33.5C77.7559 33.296 77.4019 33.026 77.1379 32.69C76.8859 32.354 76.7599 31.934 76.7599 31.43C76.7599 30.674 77.0539 30.08 77.6419 29.648C78.2419 29.216 79.0339 29 80.0179 29C81.0139 29 81.8119 29.228 82.4119 29.684C83.0239 30.128 83.4079 30.776 83.5639 31.628L82.5559 31.844C82.4359 31.148 82.1479 30.656 81.6919 30.368C81.2479 30.08 80.6899 29.936 80.0179 29.936C79.3579 29.936 78.8299 30.062 78.4339 30.314C78.0379 30.566 77.8399 30.938 77.8399 31.43C77.8399 31.91 78.0199 32.264 78.3799 32.492C78.7399 32.708 79.2319 32.87 79.8559 32.978L80.6839 33.122C81.2839 33.218 81.8239 33.362 82.3039 33.554C82.7839 33.734 83.1619 33.992 83.4379 34.328C83.7259 34.664 83.8699 35.108 83.8699 35.66C83.8699 36.488 83.5579 37.13 82.9339 37.586C82.3099 38.03 81.4639 38.252 80.3959 38.252ZM90.4277 38.252C89.5757 38.252 88.8137 38.072 88.1417 37.712C87.4817 37.34 86.9597 36.812 86.5757 36.128C86.1917 35.444 85.9997 34.64 85.9997 33.716V33.536C85.9997 32.6 86.1917 31.796 86.5757 31.124C86.9597 30.44 87.4817 29.918 88.1417 29.558C88.8137 29.186 89.5757 29 90.4277 29C91.2677 29 91.9757 29.162 92.5517 29.486C93.1397 29.798 93.5957 30.212 93.9197 30.728C94.2557 31.232 94.4657 31.766 94.5497 32.33L93.4877 32.546C93.4277 32.078 93.2777 31.652 93.0377 31.268C92.7977 30.872 92.4617 30.56 92.0297 30.332C91.5977 30.092 91.0637 29.972 90.4277 29.972C89.7917 29.972 89.2217 30.122 88.7177 30.422C88.2137 30.71 87.8117 31.124 87.5117 31.664C87.2237 32.192 87.0797 32.822 87.0797 33.554V33.698C87.0797 34.43 87.2237 35.066 87.5117 35.606C87.8117 36.134 88.2137 36.548 88.7177 36.848C89.2217 37.136 89.7917 37.28 90.4277 37.28C91.3877 37.28 92.1197 37.034 92.6237 36.542C93.1277 36.038 93.4397 35.426 93.5597 34.706L94.6217 34.922C94.5137 35.486 94.2857 36.026 93.9377 36.542C93.6017 37.046 93.1397 37.46 92.5517 37.784C91.9757 38.096 91.2677 38.252 90.4277 38.252ZM99.9594 38.252C99.3474 38.252 98.7894 38.15 98.2854 37.946C97.7934 37.73 97.4034 37.418 97.1154 37.01C96.8274 36.602 96.6834 36.11 96.6834 35.534C96.6834 34.946 96.8274 34.46 97.1154 34.076C97.4034 33.692 97.7934 33.404 98.2854 33.212C98.7774 33.02 99.3234 32.924 99.9234 32.924H103.127V32.222C103.127 31.514 102.923 30.962 102.515 30.566C102.107 30.17 101.513 29.972 100.733 29.972C99.9654 29.972 99.3534 30.164 98.8974 30.548C98.4534 30.92 98.1534 31.424 97.9974 32.06L96.9534 31.754C97.0974 31.238 97.3254 30.776 97.6374 30.368C97.9494 29.948 98.3634 29.618 98.8794 29.378C99.3954 29.126 100.013 29 100.733 29C101.837 29 102.689 29.288 103.289 29.864C103.901 30.44 104.207 31.244 104.207 32.276V36.524C104.207 36.884 104.375 37.064 104.711 37.064H105.557V38H104.405C104.033 38 103.739 37.892 103.523 37.676C103.307 37.448 103.199 37.142 103.199 36.758V36.632H103.019C102.863 36.896 102.659 37.154 102.407 37.406C102.167 37.658 101.849 37.862 101.453 38.018C101.057 38.174 100.559 38.252 99.9594 38.252ZM100.031 37.28C100.955 37.28 101.699 37.004 102.263 36.452C102.839 35.888 103.127 35.096 103.127 34.076V33.86H99.9414C99.3174 33.86 98.7954 33.998 98.3754 34.274C97.9674 34.538 97.7634 34.952 97.7634 35.516C97.7634 36.08 97.9734 36.518 98.3934 36.83C98.8254 37.13 99.3714 37.28 100.031 37.28ZM107.613 38V25.4H108.693V38H107.613ZM115.899 38.252C114.999 38.252 114.213 38.066 113.541 37.694C112.881 37.31 112.365 36.776 111.993 36.092C111.621 35.408 111.435 34.622 111.435 33.734V33.518C111.435 32.618 111.621 31.832 111.993 31.16C112.365 30.476 112.875 29.948 113.523 29.576C114.183 29.192 114.933 29 115.773 29C116.589 29 117.309 29.174 117.933 29.522C118.569 29.858 119.067 30.35 119.427 30.998C119.787 31.634 119.967 32.396 119.967 33.284V33.86H112.515C112.551 34.952 112.881 35.798 113.505 36.398C114.141 36.986 114.939 37.28 115.899 37.28C116.715 37.28 117.345 37.094 117.789 36.722C118.245 36.35 118.593 35.894 118.833 35.354L119.805 35.786C119.625 36.182 119.373 36.572 119.049 36.956C118.737 37.328 118.329 37.64 117.825 37.892C117.321 38.132 116.679 38.252 115.899 38.252ZM112.533 32.924H118.869C118.821 31.976 118.515 31.25 117.951 30.746C117.387 30.23 116.661 29.972 115.773 29.972C114.897 29.972 114.171 30.23 113.595 30.746C113.019 31.25 112.665 31.976 112.533 32.924ZM122.232 40.088V39.332H122.664C123.048 39.332 123.24 39.14 123.24 38.756V38.18H123.006C122.718 38.18 122.472 38.09 122.268 37.91C122.076 37.718 121.98 37.478 121.98 37.19C121.98 36.902 122.076 36.668 122.268 36.488C122.472 36.296 122.718 36.2 123.006 36.2C123.294 36.2 123.534 36.302 123.726 36.506C123.93 36.698 124.032 36.938 124.032 37.226V38.72C124.032 39.632 123.582 40.088 122.682 40.088H122.232ZM130.693 38V25.4H138.181V26.444H131.845V31.16H137.659V32.204H131.845V38H130.693ZM140.484 38V29.252H141.528V30.35H141.744C141.912 29.954 142.158 29.666 142.482 29.486C142.818 29.306 143.28 29.216 143.868 29.216H144.894V30.224H143.742C143.082 30.224 142.554 30.41 142.158 30.782C141.762 31.154 141.564 31.736 141.564 32.528V38H140.484ZM150.845 38.252C149.945 38.252 149.159 38.066 148.487 37.694C147.827 37.31 147.311 36.776 146.939 36.092C146.567 35.408 146.381 34.622 146.381 33.734V33.518C146.381 32.618 146.567 31.832 146.939 31.16C147.311 30.476 147.821 29.948 148.469 29.576C149.129 29.192 149.879 29 150.719 29C151.535 29 152.255 29.174 152.879 29.522C153.515 29.858 154.013 30.35 154.373 30.998C154.733 31.634 154.913 32.396 154.913 33.284V33.86H147.461C147.497 34.952 147.827 35.798 148.451 36.398C149.087 36.986 149.885 37.28 150.845 37.28C151.661 37.28 152.291 37.094 152.735 36.722C153.191 36.35 153.539 35.894 153.779 35.354L154.751 35.786C154.571 36.182 154.319 36.572 153.995 36.956C153.683 37.328 153.275 37.64 152.771 37.892C152.267 38.132 151.625 38.252 150.845 38.252ZM147.479 32.924H153.815C153.767 31.976 153.461 31.25 152.897 30.746C152.333 30.23 151.607 29.972 150.719 29.972C149.843 29.972 149.117 30.23 148.541 30.746C147.965 31.25 147.611 31.976 147.479 32.924ZM161.044 38.252C159.988 38.252 159.082 38 158.326 37.496C157.582 36.992 157.126 36.158 156.958 34.994L158.02 34.796C158.116 35.432 158.308 35.936 158.596 36.308C158.896 36.668 159.256 36.926 159.676 37.082C160.108 37.238 160.564 37.316 161.044 37.316C161.764 37.316 162.34 37.172 162.772 36.884C163.216 36.584 163.438 36.176 163.438 35.66C163.438 35.132 163.228 34.766 162.808 34.562C162.4 34.358 161.854 34.196 161.17 34.076L160.342 33.932C159.79 33.836 159.292 33.692 158.848 33.5C158.404 33.296 158.05 33.026 157.786 32.69C157.534 32.354 157.408 31.934 157.408 31.43C157.408 30.674 157.702 30.08 158.29 29.648C158.89 29.216 159.682 29 160.666 29C161.662 29 162.46 29.228 163.06 29.684C163.672 30.128 164.056 30.776 164.212 31.628L163.204 31.844C163.084 31.148 162.796 30.656 162.34 30.368C161.896 30.08 161.338 29.936 160.666 29.936C160.006 29.936 159.478 30.062 159.082 30.314C158.686 30.566 158.488 30.938 158.488 31.43C158.488 31.91 158.668 32.264 159.028 32.492C159.388 32.708 159.88 32.87 160.504 32.978L161.332 33.122C161.932 33.218 162.472 33.362 162.952 33.554C163.432 33.734 163.81 33.992 164.086 34.328C164.374 34.664 164.518 35.108 164.518 35.66C164.518 36.488 164.206 37.13 163.582 37.586C162.958 38.03 162.112 38.252 161.044 38.252ZM167.08 38V25.4H168.16V30.782H168.376C168.52 30.494 168.718 30.224 168.97 29.972C169.234 29.708 169.57 29.498 169.978 29.342C170.398 29.174 170.92 29.09 171.544 29.09C172.18 29.09 172.762 29.222 173.29 29.486C173.818 29.75 174.238 30.146 174.55 30.674C174.874 31.202 175.036 31.868 175.036 32.672V38H173.956V32.744C173.956 31.784 173.716 31.1 173.236 30.692C172.756 30.272 172.114 30.062 171.31 30.062C170.41 30.062 169.66 30.356 169.06 30.944C168.46 31.532 168.16 32.426 168.16 33.626V38H167.08ZM177.85 40.088V39.332H178.282C178.666 39.332 178.858 39.14 178.858 38.756V38.18H178.624C178.336 38.18 178.09 38.09 177.886 37.91C177.694 37.718 177.598 37.478 177.598 37.19C177.598 36.902 177.694 36.668 177.886 36.488C178.09 36.296 178.336 36.2 178.624 36.2C178.912 36.2 179.152 36.302 179.344 36.506C179.548 36.698 179.65 36.938 179.65 37.226V38.72C179.65 39.632 179.2 40.088 178.3 40.088H177.85ZM190.738 38.252C189.838 38.252 189.046 38.096 188.362 37.784C187.69 37.46 187.162 36.974 186.778 36.326C186.394 35.678 186.202 34.862 186.202 33.878V25.4H187.354V33.878C187.354 35.006 187.648 35.846 188.236 36.398C188.836 36.938 189.67 37.208 190.738 37.208C191.806 37.208 192.634 36.938 193.222 36.398C193.822 35.846 194.122 35.006 194.122 33.878V25.4H195.274V33.878C195.274 34.862 195.082 35.678 194.698 36.326C194.326 36.974 193.798 37.46 193.114 37.784C192.43 38.096 191.638 38.252 190.738 38.252ZM198.299 38V29.252H199.343V30.872H199.559C199.775 30.404 200.129 29.99 200.621 29.63C201.113 29.258 201.827 29.072 202.763 29.072C203.399 29.072 203.981 29.204 204.509 29.468C205.037 29.732 205.457 30.134 205.769 30.674C206.093 31.202 206.255 31.868 206.255 32.672V38H205.175V32.744C205.175 31.784 204.935 31.094 204.455 30.674C203.975 30.254 203.333 30.044 202.529 30.044C201.629 30.044 200.879 30.344 200.279 30.944C199.679 31.532 199.379 32.426 199.379 33.626V38H198.299ZM209.32 38V29.252H210.4V38H209.32ZM209.86 27.74C209.596 27.74 209.374 27.65 209.194 27.47C209.014 27.29 208.924 27.068 208.924 26.804C208.924 26.528 209.014 26.306 209.194 26.138C209.374 25.958 209.596 25.868 209.86 25.868C210.136 25.868 210.358 25.958 210.526 26.138C210.706 26.306 210.796 26.528 210.796 26.804C210.796 27.068 210.706 27.29 210.526 27.47C210.358 27.65 210.136 27.74 209.86 27.74ZM215.41 38V30.224H212.53V29.252H215.41V26.768C215.41 26.336 215.524 26 215.752 25.76C215.992 25.52 216.346 25.4 216.814 25.4H218.974V26.372H217.03C216.67 26.372 216.49 26.552 216.49 26.912V29.252H219.442V30.224H216.49V38H215.41ZM221.168 38V29.252H222.248V38H221.168ZM221.708 27.74C221.444 27.74 221.222 27.65 221.042 27.47C220.862 27.29 220.772 27.068 220.772 26.804C220.772 26.528 220.862 26.306 221.042 26.138C221.222 25.958 221.444 25.868 221.708 25.868C221.984 25.868 222.206 25.958 222.374 26.138C222.554 26.306 222.644 26.528 222.644 26.804C222.644 27.068 222.554 27.29 222.374 27.47C222.206 27.65 221.984 27.74 221.708 27.74ZM229.454 38.252C228.554 38.252 227.768 38.066 227.096 37.694C226.436 37.31 225.92 36.776 225.548 36.092C225.176 35.408 224.99 34.622 224.99 33.734V33.518C224.99 32.618 225.176 31.832 225.548 31.16C225.92 30.476 226.43 29.948 227.078 29.576C227.738 29.192 228.488 29 229.328 29C230.144 29 230.864 29.174 231.488 29.522C232.124 29.858 232.622 30.35 232.982 30.998C233.342 31.634 233.522 32.396 233.522 33.284V33.86H226.07C226.106 34.952 226.436 35.798 227.06 36.398C227.696 36.986 228.494 37.28 229.454 37.28C230.27 37.28 230.9 37.094 231.344 36.722C231.8 36.35 232.148 35.894 232.388 35.354L233.36 35.786C233.18 36.182 232.928 36.572 232.604 36.956C232.292 37.328 231.884 37.64 231.38 37.892C230.876 38.132 230.234 38.252 229.454 38.252ZM226.088 32.924H232.424C232.376 31.976 232.07 31.25 231.506 30.746C230.942 30.23 230.216 29.972 229.328 29.972C228.452 29.972 227.726 30.23 227.15 30.746C226.574 31.25 226.22 31.976 226.088 32.924ZM239.96 38.252C239.18 38.252 238.472 38.072 237.836 37.712C237.2 37.34 236.69 36.818 236.306 36.146C235.934 35.462 235.748 34.658 235.748 33.734V33.518C235.748 32.594 235.934 31.796 236.306 31.124C236.678 30.44 237.182 29.918 237.818 29.558C238.466 29.186 239.18 29 239.96 29C240.608 29 241.154 29.09 241.598 29.27C242.042 29.438 242.402 29.66 242.678 29.936C242.966 30.2 243.188 30.482 243.344 30.782H243.56V25.4H244.64V38H243.596V36.398H243.38C243.128 36.878 242.732 37.31 242.192 37.694C241.664 38.066 240.92 38.252 239.96 38.252ZM240.212 37.28C241.208 37.28 242.012 36.962 242.624 36.326C243.248 35.69 243.56 34.814 243.56 33.698V33.554C243.56 32.438 243.248 31.562 242.624 30.926C242.012 30.29 241.208 29.972 240.212 29.972C239.228 29.972 238.424 30.29 237.8 30.926C237.176 31.562 236.864 32.438 236.864 33.554V33.698C236.864 34.814 237.176 35.69 237.8 36.326C238.424 36.962 239.228 37.28 240.212 37.28ZM247.564 40.088V39.332H247.996C248.38 39.332 248.572 39.14 248.572 38.756V38.18H248.338C248.05 38.18 247.804 38.09 247.6 37.91C247.408 37.718 247.312 37.478 247.312 37.19C247.312 36.902 247.408 36.668 247.6 36.488C247.804 36.296 248.05 36.2 248.338 36.2C248.626 36.2 248.866 36.302 249.058 36.506C249.262 36.698 249.364 36.938 249.364 37.226V38.72C249.364 39.632 248.914 40.088 248.014 40.088H247.564ZM260.471 38.252C258.995 38.252 257.819 37.82 256.943 36.956C256.067 36.08 255.629 34.802 255.629 33.122V30.278C255.629 28.598 256.067 27.326 256.943 26.462C257.819 25.586 258.995 25.148 260.471 25.148C261.947 25.148 263.123 25.586 263.999 26.462C264.875 27.326 265.313 28.598 265.313 30.278V33.122C265.313 34.802 264.875 36.08 263.999 36.956C263.123 37.82 261.947 38.252 260.471 38.252ZM260.471 37.208C261.647 37.208 262.553 36.854 263.189 36.146C263.837 35.438 264.161 34.442 264.161 33.158V30.242C264.161 28.958 263.837 27.962 263.189 27.254C262.553 26.546 261.647 26.192 260.471 26.192C259.307 26.192 258.401 26.546 257.753 27.254C257.105 27.962 256.781 28.958 256.781 30.242V33.158C256.781 34.442 257.105 35.438 257.753 36.146C258.401 36.854 259.307 37.208 260.471 37.208ZM268.049 41.6V29.252H269.093V30.854H269.309C269.561 30.374 269.951 29.948 270.479 29.576C271.019 29.192 271.769 29 272.729 29C273.509 29 274.217 29.186 274.853 29.558C275.489 29.918 275.993 30.434 276.365 31.106C276.749 31.778 276.941 32.582 276.941 33.518V33.734C276.941 34.658 276.755 35.462 276.383 36.146C276.011 36.818 275.507 37.34 274.871 37.712C274.235 38.072 273.521 38.252 272.729 38.252C272.093 38.252 271.547 38.168 271.091 38C270.647 37.82 270.281 37.592 269.993 37.316C269.717 37.04 269.501 36.758 269.345 36.47H269.129V41.6H268.049ZM272.477 37.28C273.473 37.28 274.277 36.962 274.889 36.326C275.513 35.69 275.825 34.814 275.825 33.698V33.554C275.825 32.438 275.513 31.562 274.889 30.926C274.277 30.29 273.473 29.972 272.477 29.972C271.493 29.972 270.689 30.29 270.065 30.926C269.441 31.562 269.129 32.438 269.129 33.554V33.698C269.129 34.814 269.441 35.69 270.065 36.326C270.689 36.962 271.493 37.28 272.477 37.28ZM283.718 38.252C282.818 38.252 282.032 38.066 281.36 37.694C280.7 37.31 280.184 36.776 279.812 36.092C279.44 35.408 279.254 34.622 279.254 33.734V33.518C279.254 32.618 279.44 31.832 279.812 31.16C280.184 30.476 280.694 29.948 281.342 29.576C282.002 29.192 282.752 29 283.592 29C284.408 29 285.128 29.174 285.752 29.522C286.388 29.858 286.886 30.35 287.246 30.998C287.606 31.634 287.786 32.396 287.786 33.284V33.86H280.334C280.37 34.952 280.7 35.798 281.324 36.398C281.96 36.986 282.758 37.28 283.718 37.28C284.534 37.28 285.164 37.094 285.608 36.722C286.064 36.35 286.412 35.894 286.652 35.354L287.624 35.786C287.444 36.182 287.192 36.572 286.868 36.956C286.556 37.328 286.148 37.64 285.644 37.892C285.14 38.132 284.498 38.252 283.718 38.252ZM280.352 32.924H286.688C286.64 31.976 286.334 31.25 285.77 30.746C285.206 30.23 284.48 29.972 283.592 29.972C282.716 29.972 281.99 30.23 281.414 30.746C280.838 31.25 280.484 31.976 280.352 32.924ZM290.443 38V29.252H291.487V30.872H291.703C291.919 30.404 292.273 29.99 292.765 29.63C293.257 29.258 293.971 29.072 294.907 29.072C295.543 29.072 296.125 29.204 296.653 29.468C297.181 29.732 297.601 30.134 297.913 30.674C298.237 31.202 298.399 31.868 298.399 32.672V38H297.319V32.744C297.319 31.784 297.079 31.094 296.599 30.674C296.119 30.254 295.477 30.044 294.673 30.044C293.773 30.044 293.023 30.344 292.423 30.944C291.823 31.532 291.523 32.426 291.523 33.626V38H290.443ZM301.393 33.86V32.852H306.721V33.86H301.393ZM313.9 38.252C313 38.252 312.196 38.096 311.488 37.784C310.78 37.46 310.222 36.974 309.814 36.326C309.406 35.666 309.202 34.832 309.202 33.824V33.482H310.354V33.824C310.354 34.988 310.684 35.852 311.344 36.416C312.016 36.968 312.868 37.244 313.9 37.244C314.944 37.244 315.748 37.004 316.312 36.524C316.876 36.032 317.158 35.408 317.158 34.652C317.158 34.148 317.032 33.746 316.78 33.446C316.54 33.134 316.198 32.888 315.754 32.708C315.322 32.516 314.818 32.348 314.242 32.204L313.09 31.916C312.406 31.736 311.794 31.514 311.254 31.25C310.714 30.974 310.288 30.62 309.976 30.188C309.664 29.744 309.508 29.18 309.508 28.496C309.508 27.812 309.682 27.218 310.03 26.714C310.39 26.21 310.882 25.826 311.506 25.562C312.13 25.286 312.856 25.148 313.684 25.148C314.512 25.148 315.256 25.292 315.916 25.58C316.588 25.868 317.116 26.294 317.5 26.858C317.896 27.41 318.094 28.106 318.094 28.946V29.792H316.942V28.946C316.942 28.286 316.798 27.752 316.51 27.344C316.222 26.936 315.832 26.636 315.34 26.444C314.848 26.252 314.296 26.156 313.684 26.156C312.808 26.156 312.082 26.36 311.506 26.768C310.942 27.164 310.66 27.74 310.66 28.496C310.66 29 310.774 29.402 311.002 29.702C311.242 30.002 311.572 30.242 311.992 30.422C312.424 30.602 312.928 30.764 313.504 30.908L314.656 31.196C315.316 31.352 315.922 31.562 316.474 31.826C317.026 32.078 317.47 32.432 317.806 32.888C318.142 33.332 318.31 33.92 318.31 34.652C318.31 35.384 318.124 36.02 317.752 36.56C317.392 37.1 316.882 37.52 316.222 37.82C315.562 38.108 314.788 38.252 313.9 38.252ZM324.902 38.252C324.014 38.252 323.234 38.066 322.562 37.694C321.902 37.31 321.386 36.782 321.014 36.11C320.654 35.426 320.474 34.634 320.474 33.734V33.518C320.474 32.618 320.654 31.832 321.014 31.16C321.386 30.476 321.902 29.948 322.562 29.576C323.234 29.192 324.014 29 324.902 29C325.79 29 326.564 29.192 327.224 29.576C327.896 29.948 328.412 30.476 328.772 31.16C329.144 31.832 329.33 32.618 329.33 33.518V33.734C329.33 34.634 329.144 35.426 328.772 36.11C328.412 36.782 327.896 37.31 327.224 37.694C326.564 38.066 325.79 38.252 324.902 38.252ZM324.902 37.28C325.934 37.28 326.75 36.956 327.35 36.308C327.95 35.648 328.25 34.778 328.25 33.698V33.554C328.25 32.474 327.95 31.61 327.35 30.962C326.75 30.302 325.934 29.972 324.902 29.972C323.882 29.972 323.066 30.302 322.454 30.962C321.854 31.61 321.554 32.474 321.554 33.554V33.698C321.554 34.778 321.854 35.648 322.454 36.308C323.066 36.956 323.882 37.28 324.902 37.28ZM335.434 38.18C334.81 38.18 334.228 38.048 333.688 37.784C333.16 37.52 332.734 37.124 332.41 36.596C332.098 36.056 331.942 35.384 331.942 34.58V29.252H333.022V34.508C333.022 35.456 333.262 36.146 333.742 36.578C334.222 36.998 334.864 37.208 335.668 37.208C336.568 37.208 337.318 36.914 337.918 36.326C338.518 35.726 338.818 34.826 338.818 33.626V29.252H339.898V38H338.854V36.38H338.638C338.422 36.848 338.068 37.268 337.576 37.64C337.084 38 336.37 38.18 335.434 38.18ZM343.072 38V29.252H344.116V30.35H344.332C344.5 29.954 344.746 29.666 345.07 29.486C345.406 29.306 345.868 29.216 346.456 29.216H347.482V30.224H346.33C345.67 30.224 345.142 30.41 344.746 30.782C344.35 31.154 344.152 31.736 344.152 32.528V38H343.072ZM353.396 38.252C352.544 38.252 351.782 38.072 351.11 37.712C350.45 37.34 349.928 36.812 349.544 36.128C349.16 35.444 348.968 34.64 348.968 33.716V33.536C348.968 32.6 349.16 31.796 349.544 31.124C349.928 30.44 350.45 29.918 351.11 29.558C351.782 29.186 352.544 29 353.396 29C354.236 29 354.944 29.162 355.52 29.486C356.108 29.798 356.564 30.212 356.888 30.728C357.224 31.232 357.434 31.766 357.518 32.33L356.456 32.546C356.396 32.078 356.246 31.652 356.006 31.268C355.766 30.872 355.43 30.56 354.998 30.332C354.566 30.092 354.032 29.972 353.396 29.972C352.76 29.972 352.19 30.122 351.686 30.422C351.182 30.71 350.78 31.124 350.48 31.664C350.192 32.192 350.048 32.822 350.048 33.554V33.698C350.048 34.43 350.192 35.066 350.48 35.606C350.78 36.134 351.182 36.548 351.686 36.848C352.19 37.136 352.76 37.28 353.396 37.28C354.356 37.28 355.088 37.034 355.592 36.542C356.096 36.038 356.408 35.426 356.528 34.706L357.59 34.922C357.482 35.486 357.254 36.026 356.906 36.542C356.57 37.046 356.108 37.46 355.52 37.784C354.944 38.096 354.236 38.252 353.396 38.252ZM364.278 38.252C363.378 38.252 362.592 38.066 361.92 37.694C361.26 37.31 360.744 36.776 360.372 36.092C360 35.408 359.814 34.622 359.814 33.734V33.518C359.814 32.618 360 31.832 360.372 31.16C360.744 30.476 361.254 29.948 361.902 29.576C362.562 29.192 363.312 29 364.152 29C364.968 29 365.688 29.174 366.312 29.522C366.948 29.858 367.446 30.35 367.806 30.998C368.166 31.634 368.346 32.396 368.346 33.284V33.86H360.894C360.93 34.952 361.26 35.798 361.884 36.398C362.52 36.986 363.318 37.28 364.278 37.28C365.094 37.28 365.724 37.094 366.168 36.722C366.624 36.35 366.972 35.894 367.212 35.354L368.184 35.786C368.004 36.182 367.752 36.572 367.428 36.956C367.116 37.328 366.708 37.64 366.204 37.892C365.7 38.132 365.058 38.252 364.278 38.252ZM360.912 32.924H367.248C367.2 31.976 366.894 31.25 366.33 30.746C365.766 30.23 365.04 29.972 364.152 29.972C363.276 29.972 362.55 30.23 361.974 30.746C361.398 31.25 361.044 31.976 360.912 32.924Z" fill="white"/>
</svg>
