<svg width="336" height="223" viewBox="0 0 336 223" fill="none" xmlns="http://www.w3.org/2000/svg">
<g filter="url(#filter0_d_11379_3494)">
<path d="M19.6034 158.39L94.2264 125.962L168.85 158.39L168.85 168.917L94.2264 212L19.6033 168.917L19.6034 158.39Z" fill="#131313" stroke="white" stroke-width="0.548474"/>
<path d="M94.2266 115.274L168.711 158.278L94.2266 201.281L19.7426 158.278L94.2266 115.274Z" fill="url(#paint0_linear_11379_3494)" stroke="white" stroke-width="0.548474"/>
<path opacity="0.78" fill-rule="evenodd" clip-rule="evenodd" d="M131.715 179.678L143.915 172.634L131.717 165.591L119.517 172.635L131.715 179.678ZM119.323 172.524L131.524 165.48L119.324 158.437L107.124 165.48L119.323 172.524ZM106.931 165.369L94.7326 158.326L106.933 151.282L119.131 158.325L106.931 165.369ZM82.3433 151.173L94.5393 158.215L106.739 151.171L94.5435 144.129L82.3433 151.173ZM82.15 151.062L69.9492 144.017L82.1494 136.974L94.3502 144.018L82.15 151.062ZM57.5583 136.864L69.7559 143.906L81.9561 136.862L69.7585 129.82L57.5583 136.864ZM57.365 136.752L57.0489 136.569L56.8556 136.681L57.1717 136.864L44.9725 143.907L44.6571 143.725L44.4638 143.836L44.7792 144.018L32.5801 151.062L32.2653 150.88L32.072 150.991L32.3867 151.173L20.2551 158.177L20.4484 158.289L32.5801 151.285L44.7776 158.327L32.6469 165.331L32.8402 165.442L44.9709 158.439L57.1717 165.483L45.0386 172.488L45.232 172.599L57.365 165.594L69.561 172.636L57.4304 179.639L57.6237 179.751L69.7543 172.747L81.9526 179.79L69.8204 186.795L70.0137 186.906L82.1459 179.902L94.3451 186.945L82.2122 193.95L82.4055 194.061L94.5384 187.056L106.737 194.099L94.6058 201.103L94.7991 201.215L156.694 165.48L156.827 165.556L157.02 165.445L156.887 165.368L168.825 158.476L168.631 158.365L156.694 165.256L144.496 158.214L156.431 151.323L156.238 151.211L144.302 158.102L132.103 151.059L144.039 144.168L143.846 144.056L131.91 150.947L119.712 143.905L131.649 137.012L131.456 136.901L119.518 143.793L107.322 136.752L119.257 129.861L119.064 129.749L107.129 136.64L94.9282 129.596L106.866 122.704L106.672 122.592L94.7349 129.484L82.5373 122.442L94.4739 115.55L94.2806 115.439L82.344 122.33L82.2428 122.272L82.0495 122.384L82.1507 122.442L69.7585 129.597L69.4425 129.414L69.2492 129.526L69.5652 129.708L57.365 136.752ZM69.9518 129.708L82.1494 136.75L94.5416 129.596L82.344 122.554L69.9518 129.708ZM32.7734 151.173L44.9709 158.215L57.1701 151.172L44.9725 144.13L32.7734 151.173ZM45.1659 144.018L57.3634 151.061L69.5626 144.017L57.365 136.975L45.1659 144.018ZM94.5435 143.906L82.3427 136.862L94.7349 129.707L106.936 136.752L94.5435 143.906ZM57.365 165.371L45.1643 158.327L57.3634 151.284L69.5642 158.328L57.365 165.371ZM69.7575 158.216L57.5567 151.172L69.7559 144.129L81.9567 151.173L69.7575 158.216ZM94.7368 144.018L106.933 151.059L119.325 143.905L107.129 136.863L94.7368 144.018ZM57.5583 165.483L69.7543 172.524L81.9535 165.481L69.7575 158.44L57.5583 165.483ZM69.9508 158.328L82.1468 165.369L94.346 158.326L82.15 151.285L69.9508 158.328ZM119.324 158.213L107.126 151.171L119.518 144.016L131.717 151.059L119.324 158.213ZM82.1459 179.678L69.9476 172.636L82.1468 165.593L94.3451 172.635L82.1459 179.678ZM94.5384 172.524L82.3401 165.481L94.5393 158.438L106.738 165.48L94.5384 172.524ZM119.518 158.325L131.717 165.368L144.109 158.214L131.91 151.17L119.518 158.325ZM82.3392 179.79L94.5384 186.833L106.738 179.79L94.5384 172.747L82.3392 179.79ZM94.7317 172.635L106.931 179.678L119.13 172.635L106.931 165.592L94.7317 172.635ZM144.109 172.523L131.91 165.48L144.302 158.325L156.501 165.368L144.109 172.523ZM106.93 193.988L94.7317 186.945L106.931 179.902L119.129 186.944L106.93 193.988ZM119.323 186.833L107.124 179.79L119.323 172.747L131.522 179.79L119.323 186.833ZM19.6802 158.145L94.4579 201.318L94.6512 201.206L19.8735 158.033L19.6802 158.145ZM168.81 158.39L94.0328 115.217L94.2261 115.106L169.004 158.279L168.81 158.39Z" fill="url(#paint1_radial_11379_3494)" fill-opacity="0.3"/>
<path d="M19.6034 127.552L94.2264 95.1242L168.85 127.552L168.85 138.079L94.2264 181.162L19.6033 138.079L19.6034 127.552Z" fill="#131313" stroke="white" stroke-width="0.548474"/>
<path d="M94.2266 84.4363L168.711 127.44L94.2266 170.443L19.7426 127.44L94.2266 84.4363Z" fill="url(#paint2_linear_11379_3494)" stroke="white" stroke-width="0.548474"/>
<path opacity="0.78" fill-rule="evenodd" clip-rule="evenodd" d="M143.914 142.012L131.717 134.969L119.517 142.013L131.715 149.055L143.914 142.012ZM119.517 127.703L131.717 134.746L144.11 127.591L131.911 120.548L119.517 127.703ZM119.324 127.815L131.523 134.858L119.324 141.901L107.125 134.858L119.324 127.815ZM119.324 127.591L107.125 120.548L119.518 113.393L131.717 120.436L119.324 127.591ZM119.131 127.703L106.932 120.66L94.7324 127.703L106.932 134.746L119.131 127.703ZM94.7356 113.395L106.932 120.437L119.325 113.281L107.129 106.24L94.7356 113.395ZM94.5423 113.507L106.738 120.548L94.5391 127.591L82.3431 120.55L94.5423 113.507ZM94.5423 113.284L82.3415 106.239L94.7347 99.0843L106.935 106.128L94.5423 113.284ZM94.349 113.395L82.1482 106.351L69.949 113.394L82.1498 120.438L94.349 113.395ZM69.9515 99.0861L82.1482 106.128L94.5414 98.9727L82.3447 91.9309L69.9515 99.0861ZM69.7582 99.1977L81.9549 106.239L69.7557 113.283L57.5591 106.241L69.7582 99.1977ZM69.7582 98.9745L69.4414 98.7916L69.2481 98.9032L69.5649 99.0861L57.3657 106.129L57.0496 105.947L56.8563 106.058L57.1724 106.241L44.9723 113.285L44.656 113.102L44.4626 113.214L44.779 113.396L32.5798 120.439L32.2642 120.257L32.0709 120.369L32.3865 120.551L20.2558 127.555L20.4491 127.666L32.5798 120.663L44.7765 127.704L32.6457 134.708L32.839 134.82L44.9698 127.816L57.1706 134.86L45.0375 141.865L45.2308 141.977L57.3639 134.972L69.5599 142.013L57.4293 149.017L57.6226 149.128L69.7532 142.125L81.9524 149.168L69.8211 156.172L70.0144 156.284L82.1457 149.28L94.3449 156.323L82.2129 163.327L82.4062 163.439L94.5382 156.434L106.736 163.477L94.6047 170.481L94.798 170.592L156.694 134.856L156.828 134.934L157.021 134.822L156.887 134.745L168.823 127.853L168.63 127.742L156.694 134.633L144.496 127.591L156.432 120.7L156.238 120.589L144.303 127.479L132.104 120.436L144.04 113.545L143.847 113.433L131.911 120.325L119.711 113.281L131.648 106.39L131.455 106.278L119.518 113.17L107.322 106.128L119.256 99.2381L119.063 99.1265L107.129 106.017L94.928 98.9727L106.865 92.0811L106.671 91.9695L94.7347 98.8611L82.538 91.8193L94.4746 84.9277L94.2813 84.8161L82.3447 91.7077L82.2435 91.6493L82.0502 91.7609L82.1514 91.8193L69.7582 98.9745ZM32.7731 120.551L44.9698 127.593L57.169 120.55L44.9723 113.508L32.7731 120.551ZM45.1656 113.396L57.3623 120.438L69.5624 113.394L57.3658 106.353L45.1656 113.396ZM57.3639 134.749L45.1631 127.704L57.3623 120.661L69.5631 127.705L57.3639 134.749ZM69.7564 127.594L57.5556 120.55L69.7557 113.506L81.9565 120.55L69.7564 127.594ZM57.5572 134.86L69.7532 141.902L81.9524 134.858L69.7564 127.817L57.5572 134.86ZM69.9497 127.705L82.1457 134.747L94.3458 127.703L82.1498 120.662L69.9497 127.705ZM82.1457 149.056L69.9465 142.013L82.1457 134.97L94.3449 142.013L82.1457 149.056ZM94.5382 141.902L82.339 134.858L94.5391 127.815L106.738 134.858L94.5382 141.902ZM82.339 149.168L94.5382 156.211L106.737 149.168L94.5382 142.125L82.339 149.168ZM94.7315 142.013L106.931 149.056L119.131 142.013L106.932 134.969L94.7315 142.013ZM144.107 141.9L131.91 134.858L144.303 127.703L156.501 134.745L144.107 141.9ZM106.929 163.365L94.7315 156.323L106.931 149.28L119.128 156.322L106.929 163.365ZM119.322 156.21L107.124 149.168L119.324 142.124L131.522 149.166L119.322 156.21ZM19.6809 127.522L94.4586 170.695L94.6519 170.584L19.8742 127.411L19.6809 127.522ZM168.811 127.767L94.0335 84.5946L94.2268 84.483L169.004 127.656L168.811 127.767Z" fill="url(#paint3_radial_11379_3494)" fill-opacity="0.5"/>
<path d="M19.6034 95.6771L94.2264 63.2492L168.85 95.6772L168.85 106.204L94.2264 149.287L19.6033 106.204L19.6034 95.6771Z" fill="#131313" stroke="white" stroke-width="0.548474"/>
<path d="M94.2266 52.5594L168.711 95.5627L94.2266 138.566L19.7426 95.5627L94.2266 52.5594Z" fill="url(#paint4_linear_11379_3494)" stroke="white" stroke-width="0.548474"/>
<path opacity="0.78" fill-rule="evenodd" clip-rule="evenodd" d="M143.914 110.018L131.717 102.975L119.517 110.018L131.715 117.061L143.914 110.018ZM119.517 95.7088L131.717 102.752L144.11 95.5968L131.911 88.5536L119.517 95.7088ZM119.324 95.8204L131.523 102.864L119.324 109.907L107.125 102.864L119.324 95.8204ZM119.324 95.5972L107.125 88.554L119.518 81.3988L131.717 88.442L119.324 95.5972ZM119.131 95.7088L106.932 88.6656L94.7324 95.7088L106.932 102.752L119.131 95.7088ZM94.7356 81.4011L106.932 88.4424L119.325 81.2872L107.129 74.2459L94.7356 81.4011ZM94.5423 81.5127L106.738 88.554L94.5391 95.5972L82.3431 88.5559L94.5423 81.5127ZM94.5423 81.2895L82.3415 74.2453L94.7347 67.0901L106.935 74.1343L94.5423 81.2895ZM94.349 81.4011L82.1482 74.3569L69.949 81.4001L82.1498 88.4443L94.349 81.4011ZM69.9515 67.092L82.1482 74.1337L94.5414 66.9785L82.3447 59.9368L69.9515 67.092ZM69.7582 67.2036L81.9549 74.2453L69.7557 81.2885L57.5591 74.2468L69.7582 67.2036ZM69.7582 66.9804L69.4414 66.7974L69.2481 66.909L69.5649 67.092L57.3658 74.1352L57.0496 73.9526L56.8563 74.0642L57.1725 74.2468L44.9723 81.2905L44.656 81.1079L44.4626 81.2195L44.779 81.4021L32.5798 88.4453L32.2642 88.2631L32.0709 88.3747L32.3865 88.5569L20.2558 95.5606L20.4491 95.6722L32.5798 88.6685L44.7765 95.7103L32.6457 102.714L32.839 102.826L44.9698 95.8219L57.1706 102.866L45.0375 109.871L45.2308 109.983L57.3639 102.978L69.5599 110.019L57.4293 117.023L57.6226 117.134L69.7532 110.131L81.9524 117.174L69.8211 124.178L70.0144 124.289L82.1457 117.285L94.3449 124.329L82.2129 131.333L82.4062 131.445L94.5382 124.44L106.736 131.482L94.6047 138.486L94.798 138.598L156.694 102.862L156.828 102.94L157.021 102.828L156.887 102.751L168.823 95.8593L168.63 95.7477L156.694 102.639L144.496 95.5968L156.432 88.706L156.238 88.5944L144.303 95.4852L132.104 88.442L144.04 81.5507L143.847 81.4391L131.911 88.3304L119.711 81.2872L131.648 74.3955L131.455 74.2839L119.518 81.1756L107.322 74.1343L119.256 67.244L119.063 67.1324L107.129 74.0227L94.928 66.9785L106.865 60.0869L106.671 59.9753L94.7347 66.8669L82.538 59.8252L94.4746 52.9336L94.2813 52.822L82.3447 59.7136L82.2435 59.6551L82.0502 59.7667L82.1514 59.8252L69.7582 66.9804ZM32.7731 88.5569L44.9698 95.5987L57.169 88.5555L44.9723 81.5137L32.7731 88.5569ZM45.1656 81.4021L57.3623 88.4439L69.5624 81.4001L57.3658 74.3584L45.1656 81.4021ZM57.3639 102.754L45.1631 95.7103L57.3623 88.6671L69.5631 95.7112L57.3639 102.754ZM69.7564 95.5996L57.5556 88.5555L69.7557 81.5117L81.9565 88.5559L69.7564 95.5996ZM57.5572 102.866L69.7532 109.907L81.9524 102.864L69.7564 95.8228L57.5572 102.866ZM69.9497 95.7112L82.1457 102.753L94.3458 95.7088L82.1498 88.6675L69.9497 95.7112ZM82.1457 117.062L69.9465 110.019L82.1457 102.976L94.3449 110.019L82.1457 117.062ZM94.5382 109.907L82.339 102.864L94.5391 95.8204L106.738 102.864L94.5382 109.907ZM82.339 117.174L94.5382 124.217L106.737 117.174L94.5382 110.131L82.339 117.174ZM94.7315 110.019L106.931 117.062L119.131 110.018L106.932 102.975L94.7315 110.019ZM144.107 109.906L131.91 102.864L144.303 95.7084L156.501 102.751L144.107 109.906ZM106.929 131.371L94.7315 124.329L106.931 117.285L119.128 124.328L106.929 131.371ZM119.322 124.216L107.124 117.174L119.324 110.13L131.522 117.172L119.322 124.216ZM19.6809 95.5281L94.4586 138.701L94.6519 138.589L19.8742 95.4165L19.6809 95.5281ZM168.811 95.7733L94.0335 52.6004L94.2268 52.4888L169.004 95.6617L168.811 95.7733Z" fill="url(#paint5_radial_11379_3494)" fill-opacity="0.7"/>
<path d="M19.6034 65.4759L94.2264 33.048L168.85 65.476L168.85 76.0025L94.2264 119.086L19.6033 76.0025L19.6034 65.4759Z" fill="#131313" stroke="white" stroke-width="0.548474"/>
<path d="M94.2266 22.3582L168.711 65.3616L94.2266 108.365L19.7426 65.3616L94.2266 22.3582Z" fill="url(#paint6_linear_11379_3494)" stroke="white" stroke-width="0.548474"/>
<path opacity="0.78" fill-rule="evenodd" clip-rule="evenodd" d="M119.13 94.1596L106.933 87.1173L94.7318 94.1615L106.929 101.204L119.13 94.1596ZM94.7334 79.8509L106.933 86.8941L119.13 79.8518L106.931 72.8086L94.7334 79.8509ZM94.5401 79.9625L106.739 87.0057L94.5385 94.0499L82.3393 87.0067L94.5401 79.9625ZM94.5401 79.7393L82.3409 72.6961L94.5385 65.6538L106.738 72.697L94.5401 79.7393ZM94.3468 79.8509L82.1476 72.8077L69.9468 79.8518L82.146 86.895L94.3468 79.8509ZM69.9516 65.5431L82.1476 72.5845L94.3452 65.5422L82.1492 58.5009L69.9516 65.5431ZM69.7583 65.6547L81.9543 72.6961L69.7535 79.7402L57.5575 72.6989L69.7583 65.6547ZM69.7583 65.4315L57.5575 58.3874L69.7551 51.3451L81.9559 58.3893L69.7583 65.4315ZM69.565 65.5431L57.3642 58.499L45.1634 65.5431L57.3642 72.5873L69.565 65.5431ZM45.1666 51.2335L57.3642 58.2758L69.5618 51.2335L57.3642 44.1912L45.1666 51.2335ZM44.9733 51.3451L57.1709 58.3874L44.9701 65.4315L32.7725 58.3893L44.9733 51.3451ZM44.9733 51.1219L44.6562 50.9389L44.4629 51.0505L44.78 51.2335L32.5792 58.2777L32.2645 58.0959L32.0712 58.2075L32.3859 58.3893L20.3292 65.3502L20.0135 65.168L19.5385 65.4422L94.3162 108.615L94.7168 108.384L94.7983 108.431L156.694 72.6952L156.828 72.7725L157.021 72.6609L156.888 72.5836L168.824 65.6922L168.63 65.5806L156.694 72.472L144.497 65.4297L156.432 58.5388L156.239 58.4272L144.303 65.3181L132.104 58.2749L144.04 51.3836L143.847 51.272L131.911 58.1633L119.712 51.1201L131.648 44.2284L131.455 44.1168L119.518 51.0085L107.322 43.9671L119.257 37.0769L119.063 36.9653L107.129 43.8555L94.9283 36.8114L106.865 29.9198L106.672 29.8082L94.735 36.6998L82.5374 29.6575L94.4731 22.7664L94.2798 22.6548L82.3441 29.5459L82.2438 29.488L82.0505 29.5996L82.1508 29.6575L69.7576 36.8127L69.4417 36.6303L69.2484 36.7419L69.5643 36.9243L57.3642 43.968L57.048 43.7855L56.8547 43.8971L57.1709 44.0796L44.9733 51.1219ZM57.5575 44.0796L69.7551 51.1219L81.9552 44.0782L69.7576 37.0359L57.5575 44.0796ZM69.9509 36.9243L82.1485 43.9666L94.5417 36.8114L82.3441 29.7691L69.9509 36.9243ZM20.5225 65.4618L32.7201 72.5041L44.7768 65.5431L32.5792 58.5009L20.5225 65.4618ZM82.1492 58.2776L69.9484 51.2335L82.1485 44.1898L94.3493 51.2339L82.1492 58.2776ZM94.5426 51.1223L82.3418 44.0782L94.735 36.923L106.936 43.9671L94.5426 51.1223ZM45.1142 79.6598L32.9134 72.6157L44.9701 65.6547L57.1709 72.6989L45.1142 79.6598ZM82.3425 58.3893L94.5385 65.4306L106.739 58.3869L94.5426 51.3455L82.3425 58.3893ZM94.7359 51.2339L106.932 58.2753L119.325 51.1201L107.129 44.0787L94.7359 51.2339ZM45.3075 79.7714L57.5034 86.8128L69.5602 79.8518L57.3642 72.8105L45.3075 79.7714ZM106.931 72.5854L94.7318 65.5422L106.932 58.4985L119.131 65.5417L106.931 72.5854ZM119.324 65.4301L107.125 58.3869L119.518 51.2317L131.718 58.2749L119.324 65.4301ZM69.8959 93.9676L57.6967 86.9244L69.7535 79.9634L81.9527 87.0067L69.8959 93.9676ZM107.124 72.697L119.323 79.7402L131.524 72.6965L119.324 65.6533L107.124 72.697ZM119.518 65.5417L131.717 72.5849L144.11 65.4297L131.911 58.3865L119.518 65.5417ZM70.0892 94.0792L82.2884 101.122L94.3452 94.1615L82.146 87.1183L70.0892 94.0792ZM119.323 94.048L107.126 87.0057L119.323 79.9634L131.521 87.0057L119.323 94.048ZM131.714 86.8941L119.517 79.8518L131.717 72.8081L143.914 79.8504L131.714 86.8941ZM144.108 79.7388L131.91 72.6965L144.303 65.5413L156.501 72.5836L144.108 79.7388ZM94.6793 108.276L82.4817 101.234L94.5385 94.2731L106.736 101.315L94.6793 108.276ZM168.81 65.6062L94.0319 22.4333L94.2252 22.3217L169.003 65.4946L168.81 65.6062Z" fill="url(#paint7_radial_11379_3494)"/>
</g>
<rect x="202.703" y="55.2326" width="17.7818" height="16.6875" rx="8.34375" fill="#131313"/>
<rect x="202.703" y="55.2326" width="17.7818" height="16.6875" rx="8.34375" stroke="white" stroke-width="0.820697"/>
<path d="M211.928 66.1055V60.4591H211.806L210.773 62.6301H210.029L211.28 59.9776H212.646V66.1055H211.928ZM209.757 66.1055V65.4489H214.283V66.1055H209.757Z" fill="white"/>
<path d="M225.48 67.0762V66.4415H226.575V60.051H225.48V59.4163H228.391C229.39 59.4163 230.167 59.6717 230.722 60.1823C231.284 60.6857 231.564 61.4735 231.564 62.5459V63.9575C231.564 65.0299 231.284 65.8178 230.722 66.3211C230.167 66.8245 229.39 67.0762 228.391 67.0762H225.48ZM227.275 66.4415H228.391C229.194 66.4415 229.806 66.2482 230.229 65.8615C230.653 65.4749 230.864 64.8512 230.864 63.9904V62.5131C230.864 61.645 230.653 61.0213 230.229 60.6419C229.806 60.2553 229.194 60.0619 228.391 60.0619H227.275V66.4415ZM234.794 67.2294C234.422 67.2294 234.082 67.1674 233.776 67.0433C233.477 66.912 233.24 66.7224 233.065 66.4743C232.89 66.2263 232.802 65.9272 232.802 65.577C232.802 65.2196 232.89 64.9241 233.065 64.6907C233.24 64.4572 233.477 64.2822 233.776 64.1654C234.075 64.0487 234.407 63.9904 234.772 63.9904H236.72V63.5636C236.72 63.1332 236.596 62.7976 236.348 62.5569C236.1 62.3161 235.738 62.1958 235.264 62.1958C234.797 62.1958 234.425 62.3125 234.148 62.5459C233.878 62.7721 233.696 63.0785 233.601 63.4651L232.966 63.2791C233.054 62.9654 233.192 62.6845 233.382 62.4365C233.572 62.1812 233.823 61.9806 234.137 61.8347C234.451 61.6815 234.827 61.6049 235.264 61.6049C235.935 61.6049 236.453 61.7799 236.818 62.1301C237.19 62.4803 237.376 62.969 237.376 63.5964V66.1789C237.376 66.3977 237.478 66.5072 237.683 66.5072H238.197V67.0762H237.497C237.27 67.0762 237.092 67.0105 236.96 66.8792C236.829 66.7406 236.763 66.5546 236.763 66.3211V66.2445H236.654C236.559 66.405 236.435 66.5619 236.282 66.7151C236.136 66.8683 235.943 66.9923 235.702 67.0871C235.461 67.182 235.158 67.2294 234.794 67.2294ZM234.837 66.6385C235.399 66.6385 235.851 66.4707 236.194 66.1351C236.545 65.7922 236.72 65.3108 236.72 64.6907V64.5594H234.783C234.403 64.5594 234.086 64.6433 233.831 64.811C233.583 64.9715 233.459 65.2232 233.459 65.5661C233.459 65.909 233.586 66.1752 233.842 66.3649C234.104 66.5473 234.436 66.6385 234.837 66.6385ZM241.041 67.0762C240.757 67.0762 240.542 67.0032 240.396 66.8573C240.257 66.7114 240.188 66.5072 240.188 66.2445V62.349H238.481V61.7581H240.188V59.7665H240.844V61.7581H242.705V62.349H240.844V66.157C240.844 66.3758 240.954 66.4853 241.173 66.4853H242.42V67.0762H241.041ZM245.758 67.2294C245.386 67.2294 245.046 67.1674 244.74 67.0433C244.441 66.912 244.204 66.7224 244.029 66.4743C243.854 66.2263 243.766 65.9272 243.766 65.577C243.766 65.2196 243.854 64.9241 244.029 64.6907C244.204 64.4572 244.441 64.2822 244.74 64.1654C245.039 64.0487 245.371 63.9904 245.736 63.9904H247.684V63.5636C247.684 63.1332 247.56 62.7976 247.312 62.5569C247.064 62.3161 246.702 62.1958 246.228 62.1958C245.761 62.1958 245.389 62.3125 245.112 62.5459C244.842 62.7721 244.66 63.0785 244.565 63.4651L243.93 63.2791C244.018 62.9654 244.156 62.6845 244.346 62.4365C244.536 62.1812 244.787 61.9806 245.101 61.8347C245.415 61.6815 245.791 61.6049 246.228 61.6049C246.899 61.6049 247.417 61.7799 247.782 62.1301C248.154 62.4803 248.34 62.969 248.34 63.5964V66.1789C248.34 66.3977 248.442 66.5072 248.647 66.5072H249.161V67.0762H248.461C248.234 67.0762 248.056 67.0105 247.924 66.8792C247.793 66.7406 247.727 66.5546 247.727 66.3211V66.2445H247.618C247.523 66.405 247.399 66.5619 247.246 66.7151C247.1 66.8683 246.907 66.9923 246.666 67.0871C246.425 67.182 246.122 67.2294 245.758 67.2294ZM245.801 66.6385C246.363 66.6385 246.815 66.4707 247.158 66.1351C247.509 65.7922 247.684 65.3108 247.684 64.6907V64.5594H245.747C245.367 64.5594 245.05 64.6433 244.795 64.811C244.547 64.9715 244.423 65.2232 244.423 65.5661C244.423 65.909 244.55 66.1752 244.806 66.3649C245.068 66.5473 245.4 66.6385 245.801 66.6385ZM253.21 67.0762V59.4163H256.044C256.496 59.4163 256.901 59.5039 257.259 59.679C257.623 59.8467 257.912 60.0911 258.123 60.4121C258.335 60.7331 258.441 61.1234 258.441 61.583V61.7143C258.441 62.1739 258.331 62.5678 258.112 62.8961C257.901 63.2171 257.613 63.4615 257.248 63.6292C256.89 63.797 256.489 63.8809 256.044 63.8809H253.91V67.0762H253.21ZM253.91 63.2463H255.968C256.515 63.2463 256.945 63.1113 257.259 62.8414C257.58 62.5715 257.74 62.1921 257.74 61.7033V61.5939C257.74 61.0978 257.583 60.7185 257.27 60.4559C256.963 60.186 256.529 60.051 255.968 60.051H253.91V63.2463ZM259.793 67.0762V61.7581H260.428V62.4256H260.559C260.661 62.1848 260.811 62.0097 261.008 61.9003C261.212 61.7909 261.493 61.7362 261.85 61.7362H262.474V62.349H261.774C261.373 62.349 261.052 62.462 260.811 62.6882C260.57 62.9143 260.45 63.2681 260.45 63.7496V67.0762H259.793ZM266.069 67.2294C265.53 67.2294 265.055 67.1163 264.647 66.8901C264.246 66.6567 263.932 66.3357 263.706 65.9272C263.487 65.5114 263.378 65.0299 263.378 64.4828V64.3515C263.378 63.8043 263.487 63.3265 263.706 62.918C263.932 62.5022 264.246 62.1812 264.647 61.955C265.055 61.7216 265.53 61.6049 266.069 61.6049C266.609 61.6049 267.08 61.7216 267.481 61.955C267.89 62.1812 268.203 62.5022 268.422 62.918C268.648 63.3265 268.761 63.8043 268.761 64.3515V64.4828C268.761 65.0299 268.648 65.5114 268.422 65.9272C268.203 66.3357 267.89 66.6567 267.481 66.8901C267.08 67.1163 266.609 67.2294 266.069 67.2294ZM266.069 66.6385C266.697 66.6385 267.193 66.4415 267.558 66.0476C267.922 65.6463 268.105 65.1174 268.105 64.4609V64.3733C268.105 63.7168 267.922 63.1915 267.558 62.7976C267.193 62.3964 266.697 62.1958 266.069 62.1958C265.449 62.1958 264.953 62.3964 264.581 62.7976C264.216 63.1915 264.034 63.7168 264.034 64.3733V64.4609C264.034 65.1174 264.216 65.6463 264.581 66.0476C264.953 66.4415 265.449 66.6385 266.069 66.6385ZM271.614 67.0762L269.622 61.7581H270.323L272.073 66.5728H272.205L273.956 61.7581H274.656L272.664 67.0762H271.614ZM276.036 67.0762V61.7581H276.693V67.0762H276.036ZM276.364 60.8389C276.204 60.8389 276.069 60.7842 275.96 60.6747C275.85 60.5653 275.795 60.4303 275.795 60.2699C275.795 60.1021 275.85 59.9671 275.96 59.865C276.069 59.7556 276.204 59.7008 276.364 59.7008C276.532 59.7008 276.667 59.7556 276.769 59.865C276.879 59.9671 276.933 60.1021 276.933 60.2699C276.933 60.4303 276.879 60.5653 276.769 60.6747C276.667 60.7842 276.532 60.8389 276.364 60.8389ZM280.92 67.2294C280.446 67.2294 280.016 67.1199 279.629 66.9011C279.242 66.6749 278.932 66.3576 278.699 65.9491C278.473 65.5333 278.36 65.0445 278.36 64.4828V64.3515C278.36 63.7897 278.473 63.3046 278.699 62.8961C278.925 62.4803 279.231 62.1629 279.618 61.9441C280.012 61.7179 280.446 61.6049 280.92 61.6049C281.314 61.6049 281.646 61.6596 281.916 61.769C282.186 61.8711 282.405 62.0061 282.572 62.1739C282.748 62.3344 282.882 62.5058 282.977 62.6882H283.109V59.4163H283.765V67.0762H283.131V66.1023H282.999C282.846 66.3941 282.605 66.6567 282.277 66.8901C281.956 67.1163 281.504 67.2294 280.92 67.2294ZM281.073 66.6385C281.679 66.6385 282.168 66.4451 282.54 66.0585C282.919 65.6719 283.109 65.1393 283.109 64.4609V64.3733C283.109 63.6949 282.919 63.1624 282.54 62.7757C282.168 62.3891 281.679 62.1958 281.073 62.1958C280.475 62.1958 279.986 62.3891 279.607 62.7757C279.228 63.1624 279.038 63.6949 279.038 64.3733V64.4609C279.038 65.1393 279.228 65.6719 279.607 66.0585C279.986 66.4451 280.475 66.6385 281.073 66.6385ZM288.148 67.2294C287.6 67.2294 287.123 67.1163 286.714 66.8901C286.313 66.6567 285.999 66.3321 285.773 65.9163C285.547 65.5004 285.434 65.0226 285.434 64.4828V64.3515C285.434 63.8043 285.547 63.3265 285.773 62.918C285.999 62.5022 286.309 62.1812 286.703 61.955C287.104 61.7216 287.56 61.6049 288.071 61.6049C288.567 61.6049 289.005 61.7106 289.384 61.9222C289.771 62.1265 290.073 62.4256 290.292 62.8195C290.511 63.2061 290.621 63.6694 290.621 64.2092V64.5594H286.09C286.112 65.2232 286.313 65.7375 286.692 66.1023C287.079 66.4597 287.564 66.6385 288.148 66.6385C288.644 66.6385 289.027 66.5254 289.297 66.2992C289.574 66.0731 289.785 65.7959 289.931 65.4676L290.522 65.7302C290.413 65.971 290.259 66.2081 290.063 66.4415C289.873 66.6676 289.625 66.8573 289.318 67.0105C289.012 67.1564 288.622 67.2294 288.148 67.2294ZM286.101 63.9904H289.953C289.924 63.414 289.738 62.9727 289.395 62.6663C289.052 62.3526 288.611 62.1958 288.071 62.1958C287.538 62.1958 287.097 62.3526 286.747 62.6663C286.397 62.9727 286.182 63.414 286.101 63.9904ZM292.236 67.0762V61.7581H292.871V62.4256H293.002C293.104 62.1848 293.254 62.0097 293.451 61.9003C293.655 61.7909 293.936 61.7362 294.294 61.7362H294.917V62.349H294.217C293.816 62.349 293.495 62.462 293.254 62.6882C293.013 62.9143 292.893 63.2681 292.893 63.7496V67.0762H292.236Z" fill="#D9D9D9"/>
<path d="M146.486 67.3526C147.695 67.3526 148.675 66.3728 148.675 65.1641C148.675 63.9554 147.695 62.9755 146.486 62.9755C145.278 62.9755 144.298 63.9554 144.298 65.1641C144.298 66.3728 145.278 67.3526 146.486 67.3526ZM146.486 65.5744L147.512 65.5744L147.512 64.7537L146.486 64.7537L146.486 65.5744ZM149.564 65.5744L151.616 65.5744L151.616 64.7537L149.564 64.7537L149.564 65.5744ZM153.667 65.5744L155.719 65.5744L155.719 64.7537L153.667 64.7537L153.667 65.5744ZM157.771 65.5744L159.823 65.5744L159.823 64.7537L157.771 64.7537L157.771 65.5744ZM161.874 65.5744L163.926 65.5744L163.926 64.7537L161.874 64.7537L161.874 65.5744ZM165.978 65.5744L168.03 65.5744L168.03 64.7537L165.978 64.7537L165.978 65.5744ZM170.081 65.5744L172.133 65.5744L172.133 64.7537L170.081 64.7537L170.081 65.5744ZM174.185 65.5744L176.237 65.5744L176.237 64.7537L174.185 64.7537L174.185 65.5744ZM178.288 65.5744L180.34 65.5744L180.34 64.7537L178.288 64.7537L178.288 65.5744ZM182.392 65.5744L184.444 65.5744L184.444 64.7537L182.392 64.7537L182.392 65.5744ZM186.495 65.5744L188.547 65.5744L188.547 64.7537L186.495 64.7537L186.495 65.5744ZM190.599 65.5744L192.651 65.5744L192.651 64.7537L190.599 64.7537L190.599 65.5744ZM194.702 65.5744L195.728 65.5744L195.728 64.7537L194.702 64.7537L194.702 65.5744Z" fill="white"/>
<rect x="202.703" y="85.8752" width="17.7818" height="16.6875" rx="8.34375" fill="#131313"/>
<rect x="202.703" y="85.8752" width="17.7818" height="16.6875" rx="8.34375" stroke="white" stroke-width="0.820697"/>
<path d="M209.749 96.748V96.109C209.749 95.6713 209.824 95.3211 209.976 95.0585C210.134 94.7959 210.35 94.5858 210.624 94.4282C210.904 94.2648 211.237 94.1247 211.622 94.008L212.103 93.8592C212.366 93.7775 212.597 93.6783 212.795 93.5616C212.993 93.439 213.148 93.2873 213.259 93.1063C213.37 92.9196 213.425 92.692 213.425 92.4235V92.3885C213.425 92.0033 213.291 91.6998 213.023 91.4781C212.754 91.2505 212.41 91.1367 211.99 91.1367C211.546 91.1367 211.184 91.2563 210.904 91.4956C210.624 91.729 210.484 92.085 210.484 92.5636V92.6861H209.784V92.5723C209.784 92.1288 209.88 91.7524 210.072 91.4431C210.265 91.1337 210.528 90.9003 210.86 90.7427C211.193 90.5793 211.569 90.4976 211.99 90.4976C212.41 90.4976 212.78 90.5764 213.101 90.734C213.428 90.8916 213.682 91.1104 213.863 91.3905C214.044 91.6707 214.134 91.9975 214.134 92.371V92.4498C214.134 92.8466 214.056 93.1764 213.898 93.439C213.74 93.6958 213.522 93.9059 213.241 94.0693C212.967 94.2327 212.643 94.3728 212.27 94.4895L211.797 94.6383C211.499 94.7317 211.251 94.8309 211.053 94.9359C210.86 95.0352 210.714 95.1636 210.615 95.3211C210.516 95.4787 210.466 95.6917 210.466 95.9602V96.109H214.082V96.748H209.749Z" fill="white"/>
<path d="M225.48 97.7188V97.0841H226.575V90.6936H225.48V90.0589H228.391C229.39 90.0589 230.167 90.3142 230.722 90.8249C231.284 91.3283 231.564 92.1161 231.564 93.1885V94.6001C231.564 95.6725 231.284 96.4603 230.722 96.9637C230.167 97.4671 229.39 97.7188 228.391 97.7188H225.48ZM227.275 97.0841H228.391C229.194 97.0841 229.806 96.8908 230.229 96.5041C230.653 96.1175 230.864 95.4937 230.864 94.6329V93.1557C230.864 92.2876 230.653 91.6638 230.229 91.2845C229.806 90.8978 229.194 90.7045 228.391 90.7045H227.275V97.0841ZM234.794 97.8719C234.422 97.8719 234.082 97.8099 233.776 97.6859C233.477 97.5546 233.24 97.3649 233.065 97.1169C232.89 96.8689 232.802 96.5698 232.802 96.2196C232.802 95.8622 232.89 95.5667 233.065 95.3333C233.24 95.0998 233.477 94.9247 233.776 94.808C234.075 94.6913 234.407 94.6329 234.772 94.6329H236.72V94.2062C236.72 93.7758 236.596 93.4402 236.348 93.1994C236.1 92.9587 235.738 92.8383 235.264 92.8383C234.797 92.8383 234.425 92.9551 234.148 93.1885C233.878 93.4146 233.696 93.721 233.601 94.1077L232.966 93.9217C233.054 93.608 233.192 93.3271 233.382 93.0791C233.572 92.8237 233.823 92.6231 234.137 92.4772C234.451 92.324 234.827 92.2474 235.264 92.2474C235.935 92.2474 236.453 92.4225 236.818 92.7727C237.19 93.1228 237.376 93.6116 237.376 94.239V96.8215C237.376 97.0403 237.478 97.1497 237.683 97.1497H238.197V97.7188H237.497C237.27 97.7188 237.092 97.6531 236.96 97.5218C236.829 97.3832 236.763 97.1972 236.763 96.9637V96.8871H236.654C236.559 97.0476 236.435 97.2044 236.282 97.3576C236.136 97.5108 235.943 97.6349 235.702 97.7297C235.461 97.8245 235.158 97.8719 234.794 97.8719ZM234.837 97.281C235.399 97.281 235.851 97.1133 236.194 96.7777C236.545 96.4348 236.72 95.9533 236.72 95.3333V95.2019H234.783C234.403 95.2019 234.086 95.2858 233.831 95.4536C233.583 95.6141 233.459 95.8658 233.459 96.2087C233.459 96.5515 233.586 96.8178 233.842 97.0075C234.104 97.1899 234.436 97.281 234.837 97.281ZM241.041 97.7188C240.757 97.7188 240.542 97.6458 240.396 97.4999C240.257 97.354 240.188 97.1497 240.188 96.8871V92.9915H238.481V92.4006H240.188V90.4091H240.844V92.4006H242.705V92.9915H240.844V96.7996C240.844 97.0184 240.954 97.1278 241.173 97.1278H242.42V97.7188H241.041ZM245.758 97.8719C245.386 97.8719 245.046 97.8099 244.74 97.6859C244.441 97.5546 244.204 97.3649 244.029 97.1169C243.854 96.8689 243.766 96.5698 243.766 96.2196C243.766 95.8622 243.854 95.5667 244.029 95.3333C244.204 95.0998 244.441 94.9247 244.74 94.808C245.039 94.6913 245.371 94.6329 245.736 94.6329H247.684V94.2062C247.684 93.7758 247.56 93.4402 247.312 93.1994C247.064 92.9587 246.702 92.8383 246.228 92.8383C245.761 92.8383 245.389 92.9551 245.112 93.1885C244.842 93.4146 244.66 93.721 244.565 94.1077L243.93 93.9217C244.018 93.608 244.156 93.3271 244.346 93.0791C244.536 92.8237 244.787 92.6231 245.101 92.4772C245.415 92.324 245.791 92.2474 246.228 92.2474C246.899 92.2474 247.417 92.4225 247.782 92.7727C248.154 93.1228 248.34 93.6116 248.34 94.239V96.8215C248.34 97.0403 248.442 97.1497 248.647 97.1497H249.161V97.7188H248.461C248.234 97.7188 248.056 97.6531 247.924 97.5218C247.793 97.3832 247.727 97.1972 247.727 96.9637V96.8871H247.618C247.523 97.0476 247.399 97.2044 247.246 97.3576C247.1 97.5108 246.907 97.6349 246.666 97.7297C246.425 97.8245 246.122 97.8719 245.758 97.8719ZM245.801 97.281C246.363 97.281 246.815 97.1133 247.158 96.7777C247.509 96.4348 247.684 95.9533 247.684 95.3333V95.2019H245.747C245.367 95.2019 245.05 95.2858 244.795 95.4536C244.547 95.6141 244.423 95.8658 244.423 96.2087C244.423 96.5515 244.55 96.8178 244.806 97.0075C245.068 97.1899 245.4 97.281 245.801 97.281ZM253.21 97.7188V90.0589H256.044C256.496 90.0589 256.901 90.1465 257.259 90.3215C257.623 90.4893 257.912 90.7337 258.123 91.0547C258.335 91.3757 258.441 91.766 258.441 92.2256V92.3569C258.441 92.8165 258.331 93.2104 258.112 93.5387C257.901 93.8596 257.613 94.104 257.248 94.2718C256.89 94.4396 256.489 94.5235 256.044 94.5235H253.91V97.7188H253.21ZM253.91 93.8888H255.968C256.515 93.8888 256.945 93.7539 257.259 93.484C257.58 93.214 257.74 92.8347 257.74 92.3459V92.2365C257.74 91.7404 257.583 91.3611 257.27 91.0985C256.963 90.8285 256.529 90.6936 255.968 90.6936H253.91V93.8888ZM259.793 97.7188V92.4006H260.428V93.0681H260.559C260.661 92.8274 260.811 92.6523 261.008 92.5429C261.212 92.4335 261.493 92.3787 261.85 92.3787H262.474V92.9915H261.774C261.373 92.9915 261.052 93.1046 260.811 93.3308C260.57 93.5569 260.45 93.9107 260.45 94.3922V97.7188H259.793ZM266.091 97.8719C265.544 97.8719 265.066 97.7589 264.658 97.5327C264.257 97.2993 263.943 96.9747 263.717 96.5588C263.491 96.143 263.378 95.6652 263.378 95.1253V94.994C263.378 94.4469 263.491 93.9691 263.717 93.5606C263.943 93.1447 264.253 92.8237 264.647 92.5976C265.048 92.3642 265.504 92.2474 266.015 92.2474C266.511 92.2474 266.948 92.3532 267.328 92.5648C267.714 92.769 268.017 93.0681 268.236 93.4621C268.455 93.8487 268.564 94.3119 268.564 94.8518V95.2019H264.034C264.056 95.8658 264.257 96.3801 264.636 96.7449C265.023 97.1023 265.508 97.281 266.091 97.281C266.587 97.281 266.97 97.168 267.24 96.9418C267.518 96.7157 267.729 96.4385 267.875 96.1102L268.466 96.3728C268.356 96.6135 268.203 96.8506 268.006 97.0841C267.817 97.3102 267.569 97.4999 267.262 97.6531C266.956 97.799 266.565 97.8719 266.091 97.8719ZM264.045 94.6329H267.897C267.868 94.0566 267.682 93.6153 267.339 93.3089C266.996 92.9952 266.555 92.8383 266.015 92.8383C265.482 92.8383 265.041 92.9952 264.691 93.3089C264.34 93.6153 264.125 94.0566 264.045 94.6329ZM270.136 95.2019V94.5892H273.375V95.2019H270.136ZM275.234 97.7188V90.0589H278.068C278.521 90.0589 278.925 90.1465 279.283 90.3215C279.648 90.4893 279.936 90.7337 280.147 91.0547C280.359 91.3757 280.465 91.766 280.465 92.2256V92.3569C280.465 92.8165 280.355 93.2104 280.136 93.5387C279.925 93.8596 279.637 94.104 279.272 94.2718C278.915 94.4396 278.513 94.5235 278.068 94.5235H275.934V97.7188H275.234ZM275.934 93.8888H277.992C278.539 93.8888 278.969 93.7539 279.283 93.484C279.604 93.214 279.764 92.8347 279.764 92.3459V92.2365C279.764 91.7404 279.608 91.3611 279.294 91.0985C278.987 90.8285 278.553 90.6936 277.992 90.6936H275.934V93.8888ZM281.817 97.7188V92.4006H282.452V93.0681H282.583C282.685 92.8274 282.835 92.6523 283.032 92.5429C283.236 92.4335 283.517 92.3787 283.875 92.3787H284.498V92.9915H283.798C283.397 92.9915 283.076 93.1046 282.835 93.3308C282.594 93.5569 282.474 93.9107 282.474 94.3922V97.7188H281.817ZM288.094 97.8719C287.554 97.8719 287.08 97.7589 286.671 97.5327C286.27 97.2993 285.956 96.9783 285.73 96.5698C285.511 96.154 285.402 95.6725 285.402 95.1253V94.994C285.402 94.4469 285.511 93.9691 285.73 93.5606C285.956 93.1447 286.27 92.8237 286.671 92.5976C287.08 92.3642 287.554 92.2474 288.094 92.2474C288.633 92.2474 289.104 92.3642 289.505 92.5976C289.914 92.8237 290.227 93.1447 290.446 93.5606C290.672 93.9691 290.785 94.4469 290.785 94.994V95.1253C290.785 95.6725 290.672 96.154 290.446 96.5698C290.227 96.9783 289.914 97.2993 289.505 97.5327C289.104 97.7589 288.633 97.8719 288.094 97.8719ZM288.094 97.281C288.721 97.281 289.217 97.0841 289.582 96.6901C289.947 96.2889 290.129 95.76 290.129 95.1035V95.0159C290.129 94.3594 289.947 93.8341 289.582 93.4402C289.217 93.039 288.721 92.8383 288.094 92.8383C287.474 92.8383 286.977 93.039 286.605 93.4402C286.241 93.8341 286.058 94.3594 286.058 95.0159V95.1035C286.058 95.76 286.241 96.2889 286.605 96.6901C286.977 97.0841 287.474 97.281 288.094 97.281ZM294.879 97.8719C294.361 97.8719 293.898 97.7625 293.49 97.5437C293.088 97.3175 292.771 96.9965 292.538 96.5807C292.304 96.1649 292.187 95.6761 292.187 95.1144V95.005C292.187 94.436 292.304 93.9472 292.538 93.5387C292.771 93.1228 293.088 92.8055 293.49 92.5867C293.898 92.3605 294.361 92.2474 294.879 92.2474C295.39 92.2474 295.82 92.3459 296.171 92.5429C296.528 92.7326 296.805 92.9842 297.002 93.2979C297.206 93.6043 297.334 93.929 297.385 94.2718L296.74 94.4031C296.703 94.1186 296.612 93.8597 296.466 93.6262C296.32 93.3855 296.116 93.1958 295.853 93.0572C295.591 92.9113 295.266 92.8383 294.879 92.8383C294.493 92.8383 294.146 92.9295 293.84 93.1119C293.533 93.287 293.289 93.5387 293.107 93.8669C292.932 94.1879 292.844 94.5709 292.844 95.0159V95.1035C292.844 95.5485 292.932 95.9351 293.107 96.2634C293.289 96.5844 293.533 96.836 293.84 97.0184C294.146 97.1935 294.493 97.281 294.879 97.281C295.463 97.281 295.908 97.1315 296.214 96.8324C296.521 96.526 296.71 96.154 296.783 95.7162L297.429 95.8476C297.363 96.1904 297.225 96.5187 297.013 96.8324C296.809 97.1388 296.528 97.3905 296.171 97.5874C295.82 97.7771 295.39 97.8719 294.879 97.8719ZM301.495 97.8719C300.947 97.8719 300.47 97.7589 300.061 97.5327C299.66 97.2993 299.346 96.9747 299.12 96.5588C298.894 96.143 298.781 95.6652 298.781 95.1253V94.994C298.781 94.4469 298.894 93.9691 299.12 93.5606C299.346 93.1447 299.656 92.8237 300.05 92.5976C300.451 92.3642 300.907 92.2474 301.418 92.2474C301.914 92.2474 302.352 92.3532 302.731 92.5648C303.118 92.769 303.42 93.0681 303.639 93.4621C303.858 93.8487 303.968 94.3119 303.968 94.8518V95.2019H299.437C299.459 95.8658 299.66 96.3801 300.039 96.7449C300.426 97.1023 300.911 97.281 301.495 97.281C301.991 97.281 302.374 97.168 302.644 96.9418C302.921 96.7157 303.132 96.4385 303.278 96.1102L303.869 96.3728C303.76 96.6135 303.606 96.8506 303.41 97.0841C303.22 97.3102 302.972 97.4999 302.665 97.6531C302.359 97.799 301.969 97.8719 301.495 97.8719ZM299.448 94.6329H303.3C303.271 94.0566 303.085 93.6153 302.742 93.3089C302.399 92.9952 301.958 92.8383 301.418 92.8383C300.885 92.8383 300.444 92.9952 300.094 93.3089C299.744 93.6153 299.529 94.0566 299.448 94.6329ZM307.695 97.8719C307.053 97.8719 306.503 97.7188 306.043 97.4124C305.591 97.106 305.313 96.599 305.211 95.8913L305.857 95.771C305.915 96.1576 306.032 96.464 306.207 96.6901C306.389 96.909 306.608 97.0658 306.864 97.1607C307.126 97.2555 307.403 97.3029 307.695 97.3029C308.133 97.3029 308.483 97.2154 308.746 97.0403C309.016 96.8579 309.151 96.6099 309.151 96.2962C309.151 95.9752 309.023 95.7527 308.768 95.6287C308.52 95.5047 308.188 95.4062 307.772 95.3333L307.269 95.2457C306.933 95.1874 306.63 95.0998 306.36 94.9831C306.09 94.8591 305.875 94.6949 305.715 94.4907C305.561 94.2864 305.485 94.0311 305.485 93.7247C305.485 93.2651 305.664 92.904 306.021 92.6414C306.386 92.3787 306.867 92.2474 307.465 92.2474C308.071 92.2474 308.556 92.386 308.921 92.6633C309.293 92.9332 309.526 93.3271 309.621 93.8451L309.008 93.9764C308.935 93.5533 308.76 93.2542 308.483 93.0791C308.213 92.904 307.874 92.8165 307.465 92.8165C307.064 92.8165 306.743 92.8931 306.503 93.0462C306.262 93.1994 306.141 93.4256 306.141 93.7247C306.141 94.0165 306.251 94.2317 306.47 94.3703C306.689 94.5016 306.988 94.6001 307.367 94.6658L307.87 94.7533C308.235 94.8117 308.563 94.8992 308.855 95.0159C309.147 95.1253 309.377 95.2822 309.545 95.4865C309.72 95.6907 309.807 95.9606 309.807 96.2962C309.807 96.7996 309.618 97.1899 309.238 97.4671C308.859 97.737 308.345 97.8719 307.695 97.8719ZM313.476 97.8719C312.835 97.8719 312.284 97.7188 311.824 97.4124C311.372 97.106 311.095 96.599 310.993 95.8913L311.638 95.771C311.696 96.1576 311.813 96.464 311.988 96.6901C312.171 96.909 312.39 97.0658 312.645 97.1607C312.907 97.2555 313.185 97.3029 313.476 97.3029C313.914 97.3029 314.264 97.2154 314.527 97.0403C314.797 96.8579 314.932 96.6099 314.932 96.2962C314.932 95.9752 314.804 95.7527 314.549 95.6287C314.301 95.5047 313.969 95.4062 313.553 95.3333L313.05 95.2457C312.714 95.1874 312.411 95.0998 312.141 94.9831C311.872 94.8591 311.656 94.6949 311.496 94.4907C311.343 94.2864 311.266 94.0311 311.266 93.7247C311.266 93.2651 311.445 92.904 311.802 92.6414C312.167 92.3787 312.648 92.2474 313.247 92.2474C313.852 92.2474 314.337 92.386 314.702 92.6633C315.074 92.9332 315.308 93.3271 315.402 93.8451L314.79 93.9764C314.717 93.5533 314.542 93.2542 314.264 93.0791C313.994 92.904 313.655 92.8165 313.247 92.8165C312.845 92.8165 312.524 92.8931 312.284 93.0462C312.043 93.1994 311.923 93.4256 311.923 93.7247C311.923 94.0165 312.032 94.2317 312.251 94.3703C312.47 94.5016 312.769 94.6001 313.148 94.6658L313.652 94.7533C314.016 94.8117 314.345 94.8992 314.636 95.0159C314.928 95.1253 315.158 95.2822 315.326 95.4865C315.501 95.6907 315.588 95.9606 315.588 96.2962C315.588 96.7996 315.399 97.1899 315.019 97.4671C314.64 97.737 314.126 97.8719 313.476 97.8719ZM319.575 97.8719C319.035 97.8719 318.561 97.7589 318.152 97.5327C317.751 97.2993 317.438 96.9783 317.211 96.5698C316.993 96.154 316.883 95.6725 316.883 95.1253V94.994C316.883 94.4469 316.993 93.9691 317.211 93.5606C317.438 93.1447 317.751 92.8237 318.152 92.5976C318.561 92.3642 319.035 92.2474 319.575 92.2474C320.115 92.2474 320.585 92.3642 320.987 92.5976C321.395 92.8237 321.709 93.1447 321.928 93.5606C322.154 93.9691 322.267 94.4469 322.267 94.994V95.1253C322.267 95.6725 322.154 96.154 321.928 96.5698C321.709 96.9783 321.395 97.2993 320.987 97.5327C320.585 97.7589 320.115 97.8719 319.575 97.8719ZM319.575 97.281C320.202 97.281 320.698 97.0841 321.063 96.6901C321.428 96.2889 321.61 95.76 321.61 95.1035V95.0159C321.61 94.3594 321.428 93.8341 321.063 93.4402C320.698 93.039 320.202 92.8383 319.575 92.8383C318.955 92.8383 318.459 93.039 318.087 93.4402C317.722 93.8341 317.54 94.3594 317.54 95.0159V95.1035C317.54 95.76 317.722 96.2889 318.087 96.6901C318.459 97.0841 318.955 97.281 319.575 97.281ZM323.931 97.7188V92.4006H324.566V93.0681H324.697C324.8 92.8274 324.949 92.6523 325.146 92.5429C325.35 92.4335 325.631 92.3787 325.989 92.3787H326.612V92.9915H325.912C325.511 92.9915 325.19 93.1046 324.949 93.3308C324.708 93.5569 324.588 93.9107 324.588 94.3922V97.7188H323.931Z" fill="#D9D9D9"/>
<path d="M146.486 97.9952C147.695 97.9952 148.675 97.0153 148.675 95.8066C148.675 94.598 147.695 93.6181 146.486 93.6181C145.278 93.6181 144.298 94.598 144.298 95.8066C144.298 97.0153 145.278 97.9952 146.486 97.9952ZM146.486 96.217L147.512 96.217L147.512 95.3963L146.486 95.3963L146.486 96.217ZM149.564 96.217L151.616 96.217L151.616 95.3963L149.564 95.3963L149.564 96.217ZM153.667 96.217L155.719 96.217L155.719 95.3963L153.667 95.3963L153.667 96.217ZM157.771 96.217L159.823 96.217L159.823 95.3963L157.771 95.3963L157.771 96.217ZM161.874 96.217L163.926 96.217L163.926 95.3963L161.874 95.3963L161.874 96.217ZM165.978 96.217L168.03 96.217L168.03 95.3963L165.978 95.3963L165.978 96.217ZM170.081 96.217L172.133 96.217L172.133 95.3963L170.081 95.3963L170.081 96.217ZM174.185 96.217L176.237 96.217L176.237 95.3963L174.185 95.3963L174.185 96.217ZM178.288 96.217L180.34 96.217L180.34 95.3963L178.288 95.3963L178.288 96.217ZM182.392 96.217L184.444 96.217L184.444 95.3963L182.392 95.3963L182.392 96.217ZM186.495 96.217L188.547 96.217L188.547 95.3963L186.495 95.3963L186.495 96.217ZM190.599 96.217L192.651 96.217L192.651 95.3963L190.599 95.3963L190.599 96.217ZM194.702 96.217L195.728 96.217L195.728 95.3963L194.702 95.3963L194.702 96.217Z" fill="white"/>
<rect x="202.703" y="116.514" width="17.7818" height="16.6875" rx="8.34375" fill="#131313"/>
<rect x="202.703" y="116.514" width="17.7818" height="16.6875" rx="8.34375" stroke="white" stroke-width="0.820697"/>
<path d="M211.928 127.509C211.496 127.509 211.108 127.428 210.764 127.264C210.425 127.101 210.157 126.864 209.959 126.555C209.766 126.246 209.67 125.872 209.67 125.435V125.268H210.379V125.426C210.379 125.875 210.522 126.228 210.808 126.485C211.094 126.742 211.467 126.87 211.928 126.87C212.395 126.87 212.757 126.751 213.014 126.511C213.276 126.266 213.408 125.96 213.408 125.592V125.522C213.408 125.254 213.344 125.038 213.215 124.874C213.087 124.705 212.912 124.582 212.69 124.507C212.474 124.425 212.235 124.384 211.972 124.384H210.974V123.5L213.311 122.003V121.898H209.819V121.259H214.064V122.248L211.779 123.719V123.824H212.217C212.561 123.824 212.877 123.888 213.163 124.016C213.454 124.139 213.685 124.326 213.854 124.577C214.029 124.822 214.117 125.131 214.117 125.505V125.601C214.117 125.986 214.026 126.322 213.845 126.608C213.665 126.894 213.411 127.115 213.084 127.273C212.757 127.43 212.372 127.509 211.928 127.509Z" fill="white"/>
<path d="M225.48 128.357V127.723H226.575V121.332H225.48V120.698H228.391C229.39 120.698 230.167 120.953 230.722 121.464C231.284 121.967 231.564 122.755 231.564 123.827V125.239C231.564 126.311 231.284 127.099 230.722 127.602C230.167 128.106 229.39 128.357 228.391 128.357H225.48ZM227.275 127.723H228.391C229.194 127.723 229.806 127.529 230.229 127.143C230.653 126.756 230.864 126.132 230.864 125.272V123.794C230.864 122.926 230.653 122.303 230.229 121.923C229.806 121.537 229.194 121.343 228.391 121.343H227.275V127.723ZM234.794 128.511C234.422 128.511 234.082 128.449 233.776 128.325C233.477 128.193 233.24 128.004 233.065 127.756C232.89 127.508 232.802 127.208 232.802 126.858C232.802 126.501 232.89 126.205 233.065 125.972C233.24 125.738 233.477 125.563 233.776 125.447C234.075 125.33 234.407 125.272 234.772 125.272H236.72V124.845C236.72 124.414 236.596 124.079 236.348 123.838C236.1 123.597 235.738 123.477 235.264 123.477C234.797 123.477 234.425 123.594 234.148 123.827C233.878 124.053 233.696 124.36 233.601 124.746L232.966 124.56C233.054 124.247 233.192 123.966 233.382 123.718C233.572 123.462 233.823 123.262 234.137 123.116C234.451 122.963 234.827 122.886 235.264 122.886C235.935 122.886 236.453 123.061 236.818 123.411C237.19 123.762 237.376 124.25 237.376 124.878V127.46C237.376 127.679 237.478 127.788 237.683 127.788H238.197V128.357H237.497C237.27 128.357 237.092 128.292 236.96 128.16C236.829 128.022 236.763 127.836 236.763 127.602V127.526H236.654C236.559 127.686 236.435 127.843 236.282 127.996C236.136 128.15 235.943 128.274 235.702 128.368C235.461 128.463 235.158 128.511 234.794 128.511ZM234.837 127.92C235.399 127.92 235.851 127.752 236.194 127.416C236.545 127.073 236.72 126.592 236.72 125.972V125.841H234.783C234.403 125.841 234.086 125.925 233.831 126.092C233.583 126.253 233.459 126.504 233.459 126.847C233.459 127.19 233.586 127.456 233.842 127.646C234.104 127.829 234.436 127.92 234.837 127.92ZM241.041 128.357C240.757 128.357 240.542 128.284 240.396 128.139C240.257 127.993 240.188 127.788 240.188 127.526V123.63H238.481V123.039H240.188V121.048H240.844V123.039H242.705V123.63H240.844V127.438C240.844 127.657 240.954 127.767 241.173 127.767H242.42V128.357H241.041ZM245.758 128.511C245.386 128.511 245.046 128.449 244.74 128.325C244.441 128.193 244.204 128.004 244.029 127.756C243.854 127.508 243.766 127.208 243.766 126.858C243.766 126.501 243.854 126.205 244.029 125.972C244.204 125.738 244.441 125.563 244.74 125.447C245.039 125.33 245.371 125.272 245.736 125.272H247.684V124.845C247.684 124.414 247.56 124.079 247.312 123.838C247.064 123.597 246.702 123.477 246.228 123.477C245.761 123.477 245.389 123.594 245.112 123.827C244.842 124.053 244.66 124.36 244.565 124.746L243.93 124.56C244.018 124.247 244.156 123.966 244.346 123.718C244.536 123.462 244.787 123.262 245.101 123.116C245.415 122.963 245.791 122.886 246.228 122.886C246.899 122.886 247.417 123.061 247.782 123.411C248.154 123.762 248.34 124.25 248.34 124.878V127.46C248.34 127.679 248.442 127.788 248.647 127.788H249.161V128.357H248.461C248.234 128.357 248.056 128.292 247.924 128.16C247.793 128.022 247.727 127.836 247.727 127.602V127.526H247.618C247.523 127.686 247.399 127.843 247.246 127.996C247.1 128.15 246.907 128.274 246.666 128.368C246.425 128.463 246.122 128.511 245.758 128.511ZM245.801 127.92C246.363 127.92 246.815 127.752 247.158 127.416C247.509 127.073 247.684 126.592 247.684 125.972V125.841H245.747C245.367 125.841 245.05 125.925 244.795 126.092C244.547 126.253 244.423 126.504 244.423 126.847C244.423 127.19 244.55 127.456 244.806 127.646C245.068 127.829 245.4 127.92 245.801 127.92ZM253.21 128.357V120.698H253.91V124.199H257.806V120.698H258.506V128.357H257.806V124.834H253.91V128.357H253.21ZM262.842 128.511C262.302 128.511 261.828 128.398 261.42 128.171C261.018 127.938 260.705 127.617 260.479 127.208C260.26 126.793 260.15 126.311 260.15 125.764V125.633C260.15 125.086 260.26 124.608 260.479 124.199C260.705 123.783 261.018 123.462 261.42 123.236C261.828 123.003 262.302 122.886 262.842 122.886C263.382 122.886 263.853 123.003 264.254 123.236C264.662 123.462 264.976 123.783 265.195 124.199C265.421 124.608 265.534 125.086 265.534 125.633V125.764C265.534 126.311 265.421 126.793 265.195 127.208C264.976 127.617 264.662 127.938 264.254 128.171C263.853 128.398 263.382 128.511 262.842 128.511ZM262.842 127.92C263.47 127.92 263.966 127.723 264.33 127.329C264.695 126.928 264.878 126.399 264.878 125.742V125.655C264.878 124.998 264.695 124.473 264.33 124.079C263.966 123.678 263.47 123.477 262.842 123.477C262.222 123.477 261.726 123.678 261.354 124.079C260.989 124.473 260.807 124.998 260.807 125.655V125.742C260.807 126.399 260.989 126.928 261.354 127.329C261.726 127.723 262.222 127.92 262.842 127.92ZM269.311 128.511C268.669 128.511 268.118 128.357 267.658 128.051C267.206 127.745 266.929 127.238 266.827 126.53L267.472 126.41C267.531 126.796 267.647 127.103 267.822 127.329C268.005 127.548 268.224 127.705 268.479 127.799C268.742 127.894 269.019 127.942 269.311 127.942C269.748 127.942 270.098 127.854 270.361 127.679C270.631 127.497 270.766 127.249 270.766 126.935C270.766 126.614 270.638 126.391 270.383 126.267C270.135 126.143 269.803 126.045 269.387 125.972L268.884 125.884C268.548 125.826 268.246 125.738 267.976 125.622C267.706 125.498 267.49 125.334 267.33 125.129C267.177 124.925 267.1 124.67 267.1 124.363C267.1 123.904 267.279 123.543 267.636 123.28C268.001 123.017 268.483 122.886 269.081 122.886C269.686 122.886 270.171 123.025 270.536 123.302C270.908 123.572 271.142 123.966 271.236 124.484L270.624 124.615C270.551 124.192 270.376 123.893 270.098 123.718C269.829 123.543 269.489 123.455 269.081 123.455C268.68 123.455 268.359 123.532 268.118 123.685C267.877 123.838 267.757 124.064 267.757 124.363C267.757 124.655 267.866 124.87 268.085 125.009C268.304 125.14 268.603 125.239 268.982 125.304L269.486 125.392C269.85 125.45 270.179 125.538 270.471 125.655C270.762 125.764 270.992 125.921 271.16 126.125C271.335 126.329 271.423 126.599 271.423 126.935C271.423 127.438 271.233 127.829 270.853 128.106C270.474 128.376 269.96 128.511 269.311 128.511ZM274.778 128.357C274.493 128.357 274.278 128.284 274.132 128.139C273.993 127.993 273.924 127.788 273.924 127.526V123.63H272.217V123.039H273.924V121.048H274.581V123.039H276.441V123.63H274.581V127.438C274.581 127.657 274.69 127.767 274.909 127.767H276.156V128.357H274.778Z" fill="#D9D9D9"/>
<path d="M146.486 128.636C147.695 128.636 148.675 127.656 148.675 126.447C148.675 125.239 147.695 124.259 146.486 124.259C145.278 124.259 144.298 125.239 144.298 126.447C144.298 127.656 145.278 128.636 146.486 128.636ZM146.486 126.858L147.512 126.858L147.512 126.037L146.486 126.037L146.486 126.858ZM149.564 126.858L151.616 126.858L151.616 126.037L149.564 126.037L149.564 126.858ZM153.667 126.858L155.719 126.858L155.719 126.037L153.667 126.037L153.667 126.858ZM157.771 126.858L159.823 126.858L159.823 126.037L157.771 126.037L157.771 126.858ZM161.874 126.858L163.926 126.858L163.926 126.037L161.874 126.037L161.874 126.858ZM165.978 126.858L168.03 126.858L168.03 126.037L165.978 126.037L165.978 126.858ZM170.081 126.858L172.133 126.858L172.133 126.037L170.081 126.037L170.081 126.858ZM174.185 126.858L176.237 126.858L176.237 126.037L174.185 126.037L174.185 126.858ZM178.288 126.858L180.34 126.858L180.34 126.037L178.288 126.037L178.288 126.858ZM182.392 126.858L184.444 126.858L184.444 126.037L182.392 126.037L182.392 126.858ZM186.495 126.858L188.547 126.858L188.547 126.037L186.495 126.037L186.495 126.858ZM190.599 126.858L192.651 126.858L192.651 126.037L190.599 126.037L190.599 126.858ZM194.702 126.858L195.728 126.858L195.728 126.037L194.702 126.037L194.702 126.858Z" fill="white"/>
<rect x="202.703" y="147.154" width="17.7818" height="16.6875" rx="8.34375" fill="#131313"/>
<rect x="202.703" y="147.154" width="17.7818" height="16.6875" rx="8.34375" stroke="white" stroke-width="0.820697"/>
<path d="M211.928 158.15C211.496 158.15 211.108 158.068 210.764 157.905C210.425 157.741 210.157 157.505 209.959 157.196C209.766 156.886 209.67 156.513 209.67 156.075V155.909H210.379V156.066C210.379 156.516 210.522 156.869 210.808 157.126C211.094 157.382 211.467 157.511 211.928 157.511C212.395 157.511 212.757 157.391 213.014 157.152C213.276 156.907 213.408 156.6 213.408 156.233V156.163C213.408 155.894 213.344 155.678 213.215 155.515C213.087 155.346 212.912 155.223 212.69 155.147C212.474 155.066 212.235 155.025 211.972 155.025H210.974V154.141L213.311 152.644V152.539H209.819V151.899H214.064V152.889L211.779 154.359V154.464H212.217C212.561 154.464 212.877 154.529 213.163 154.657C213.454 154.78 213.685 154.966 213.854 155.217C214.029 155.462 214.117 155.772 214.117 156.145V156.242C214.117 156.627 214.026 156.962 213.845 157.248C213.665 157.534 213.411 157.756 213.084 157.914C212.757 158.071 212.372 158.15 211.928 158.15Z" fill="white"/>
<path d="M225.261 158.998L227.767 151.338H229.015L231.521 158.998H230.787L230.131 156.963H226.651L225.995 158.998H225.261ZM226.848 156.328H229.934L228.457 151.754H228.325L226.848 156.328ZM232.767 158.998V151.338H233.468V158.998H232.767ZM237.39 158.998L239.896 151.338H241.144L243.649 158.998H242.916L242.26 156.963H238.78L238.123 158.998H237.39ZM238.977 156.328H242.063L240.586 151.754H240.454L238.977 156.328ZM244.918 161.187V153.68H245.553V154.654H245.684C245.837 154.362 246.074 154.103 246.395 153.877C246.724 153.643 247.179 153.527 247.763 153.527C248.237 153.527 248.668 153.64 249.054 153.866C249.441 154.085 249.747 154.398 249.974 154.807C250.207 155.216 250.324 155.704 250.324 156.273V156.405C250.324 156.966 250.211 157.455 249.984 157.871C249.758 158.279 249.452 158.597 249.065 158.823C248.679 159.042 248.245 159.151 247.763 159.151C247.376 159.151 247.045 159.1 246.767 158.998C246.497 158.889 246.275 158.75 246.1 158.582C245.932 158.414 245.801 158.243 245.706 158.068H245.575V161.187H244.918ZM247.61 158.56C248.215 158.56 248.704 158.367 249.076 157.98C249.456 157.594 249.645 157.061 249.645 156.383V156.295C249.645 155.617 249.456 155.084 249.076 154.698C248.704 154.311 248.215 154.118 247.61 154.118C247.012 154.118 246.523 154.311 246.144 154.698C245.764 155.084 245.575 155.617 245.575 156.295V156.383C245.575 157.061 245.764 157.594 246.144 157.98C246.523 158.367 247.012 158.56 247.61 158.56ZM251.992 161.187V153.68H252.627V154.654H252.758C252.911 154.362 253.149 154.103 253.47 153.877C253.798 153.643 254.254 153.527 254.837 153.527C255.312 153.527 255.742 153.64 256.129 153.866C256.515 154.085 256.822 154.398 257.048 154.807C257.281 155.216 257.398 155.704 257.398 156.273V156.405C257.398 156.966 257.285 157.455 257.059 157.871C256.833 158.279 256.526 158.597 256.14 158.823C255.753 159.042 255.319 159.151 254.837 159.151C254.451 159.151 254.119 159.1 253.842 158.998C253.572 158.889 253.349 158.75 253.174 158.582C253.006 158.414 252.875 158.243 252.78 158.068H252.649V161.187H251.992ZM254.684 158.56C255.29 158.56 255.778 158.367 256.15 157.98C256.53 157.594 256.719 157.061 256.719 156.383V156.295C256.719 155.617 256.53 155.084 256.15 154.698C255.778 154.311 255.29 154.118 254.684 154.118C254.086 154.118 253.597 154.311 253.218 154.698C252.838 155.084 252.649 155.617 252.649 156.295V156.383C252.649 157.061 252.838 157.594 253.218 157.98C253.597 158.367 254.086 158.56 254.684 158.56ZM259.066 158.998V151.338H259.723V158.998H259.066ZM261.653 158.998V153.68H262.309V158.998H261.653ZM261.981 152.761C261.82 152.761 261.685 152.706 261.576 152.597C261.467 152.487 261.412 152.352 261.412 152.192C261.412 152.024 261.467 151.889 261.576 151.787C261.685 151.677 261.82 151.623 261.981 151.623C262.149 151.623 262.284 151.677 262.386 151.787C262.495 151.889 262.55 152.024 262.55 152.192C262.55 152.352 262.495 152.487 262.386 152.597C262.284 152.706 262.149 152.761 261.981 152.761ZM266.668 159.151C266.15 159.151 265.687 159.042 265.278 158.823C264.877 158.597 264.56 158.276 264.326 157.86C264.093 157.444 263.976 156.955 263.976 156.394V156.284C263.976 155.715 264.093 155.226 264.326 154.818C264.56 154.402 264.877 154.085 265.278 153.866C265.687 153.64 266.15 153.527 266.668 153.527C267.179 153.527 267.609 153.625 267.959 153.822C268.317 154.012 268.594 154.264 268.791 154.577C268.995 154.884 269.123 155.208 269.174 155.551L268.528 155.682C268.492 155.398 268.4 155.139 268.255 154.906C268.109 154.665 267.904 154.475 267.642 154.336C267.379 154.191 267.055 154.118 266.668 154.118C266.281 154.118 265.935 154.209 265.628 154.391C265.322 154.566 265.078 154.818 264.895 155.146C264.72 155.467 264.633 155.85 264.633 156.295V156.383C264.633 156.828 264.72 157.214 264.895 157.543C265.078 157.864 265.322 158.115 265.628 158.298C265.935 158.473 266.281 158.56 266.668 158.56C267.251 158.56 267.696 158.411 268.003 158.112C268.309 157.805 268.499 157.433 268.572 156.996L269.217 157.127C269.152 157.47 269.013 157.798 268.802 158.112C268.597 158.418 268.317 158.67 267.959 158.867C267.609 159.056 267.179 159.151 266.668 159.151ZM272.462 159.151C272.09 159.151 271.751 159.089 271.445 158.965C271.146 158.834 270.909 158.644 270.733 158.396C270.558 158.148 270.471 157.849 270.471 157.499C270.471 157.141 270.558 156.846 270.733 156.613C270.909 156.379 271.146 156.204 271.445 156.087C271.744 155.971 272.076 155.912 272.441 155.912H274.388V155.485C274.388 155.055 274.264 154.719 274.016 154.479C273.768 154.238 273.407 154.118 272.933 154.118C272.466 154.118 272.094 154.234 271.817 154.468C271.547 154.694 271.364 155 271.27 155.387L270.635 155.201C270.723 154.887 270.861 154.606 271.051 154.358C271.24 154.103 271.492 153.902 271.806 153.757C272.12 153.603 272.495 153.527 272.933 153.527C273.604 153.527 274.122 153.702 274.487 154.052C274.859 154.402 275.045 154.891 275.045 155.518V158.101C275.045 158.32 275.147 158.429 275.351 158.429H275.866V158.998H275.165C274.939 158.998 274.76 158.932 274.629 158.801C274.498 158.662 274.432 158.476 274.432 158.243V158.166H274.323C274.228 158.327 274.104 158.484 273.951 158.637C273.805 158.79 273.611 158.914 273.371 159.009C273.13 159.104 272.827 159.151 272.462 159.151ZM272.506 158.56C273.068 158.56 273.52 158.393 273.863 158.057C274.213 157.714 274.388 157.233 274.388 156.613V156.481H272.451C272.072 156.481 271.755 156.565 271.499 156.733C271.251 156.893 271.127 157.145 271.127 157.488C271.127 157.831 271.255 158.097 271.51 158.287C271.773 158.469 272.105 158.56 272.506 158.56ZM278.71 158.998C278.426 158.998 278.21 158.925 278.064 158.779C277.926 158.633 277.857 158.429 277.857 158.166V154.271H276.149V153.68H277.857V151.688H278.513V153.68H280.373V154.271H278.513V158.079C278.513 158.298 278.623 158.407 278.841 158.407H280.089V158.998H278.71ZM281.839 158.998V153.68H282.495V158.998H281.839ZM282.167 152.761C282.006 152.761 281.872 152.706 281.762 152.597C281.653 152.487 281.598 152.352 281.598 152.192C281.598 152.024 281.653 151.889 281.762 151.787C281.872 151.677 282.006 151.623 282.167 151.623C282.335 151.623 282.47 151.677 282.572 151.787C282.681 151.889 282.736 152.024 282.736 152.192C282.736 152.352 282.681 152.487 282.572 152.597C282.47 152.706 282.335 152.761 282.167 152.761ZM286.854 159.151C286.314 159.151 285.84 159.038 285.431 158.812C285.03 158.579 284.717 158.258 284.49 157.849C284.272 157.433 284.162 156.952 284.162 156.405V156.273C284.162 155.726 284.272 155.248 284.49 154.84C284.717 154.424 285.03 154.103 285.431 153.877C285.84 153.643 286.314 153.527 286.854 153.527C287.394 153.527 287.864 153.643 288.266 153.877C288.674 154.103 288.988 154.424 289.207 154.84C289.433 155.248 289.546 155.726 289.546 156.273V156.405C289.546 156.952 289.433 157.433 289.207 157.849C288.988 158.258 288.674 158.579 288.266 158.812C287.864 159.038 287.394 159.151 286.854 159.151ZM286.854 158.56C287.481 158.56 287.977 158.363 288.342 157.969C288.707 157.568 288.889 157.039 288.889 156.383V156.295C288.889 155.639 288.707 155.113 288.342 154.719C287.977 154.318 287.481 154.118 286.854 154.118C286.234 154.118 285.738 154.318 285.366 154.719C285.001 155.113 284.819 155.639 284.819 156.295V156.383C284.819 157.039 285.001 157.568 285.366 157.969C285.738 158.363 286.234 158.56 286.854 158.56ZM291.21 158.998V153.68H291.845V154.665H291.976C292.108 154.38 292.323 154.129 292.622 153.91C292.921 153.684 293.355 153.571 293.924 153.571C294.311 153.571 294.665 153.651 294.986 153.811C295.307 153.972 295.562 154.216 295.752 154.544C295.949 154.865 296.047 155.27 296.047 155.759V158.998H295.391V155.803C295.391 155.219 295.245 154.8 294.953 154.544C294.661 154.289 294.271 154.161 293.782 154.161C293.235 154.161 292.779 154.344 292.414 154.709C292.049 155.066 291.867 155.609 291.867 156.339V158.998H291.21ZM300.023 159.151C299.381 159.151 298.83 158.998 298.37 158.692C297.918 158.385 297.641 157.878 297.539 157.171L298.184 157.05C298.243 157.437 298.359 157.743 298.534 157.969C298.717 158.188 298.936 158.345 299.191 158.44C299.454 158.535 299.731 158.582 300.023 158.582C300.46 158.582 300.81 158.495 301.073 158.32C301.343 158.137 301.478 157.889 301.478 157.576C301.478 157.255 301.35 157.032 301.095 156.908C300.847 156.784 300.515 156.686 300.099 156.613L299.596 156.525C299.26 156.467 298.958 156.379 298.688 156.262C298.418 156.138 298.202 155.974 298.042 155.77C297.889 155.566 297.812 155.31 297.812 155.004C297.812 154.544 297.991 154.183 298.348 153.921C298.713 153.658 299.195 153.527 299.793 153.527C300.398 153.527 300.883 153.665 301.248 153.943C301.62 154.212 301.854 154.606 301.949 155.124L301.336 155.256C301.263 154.833 301.088 154.533 300.81 154.358C300.541 154.183 300.201 154.096 299.793 154.096C299.392 154.096 299.071 154.172 298.83 154.326C298.589 154.479 298.469 154.705 298.469 155.004C298.469 155.296 298.578 155.511 298.797 155.65C299.016 155.781 299.315 155.879 299.694 155.945L300.198 156.033C300.562 156.091 300.891 156.178 301.183 156.295C301.474 156.405 301.704 156.561 301.872 156.766C302.047 156.97 302.135 157.24 302.135 157.576C302.135 158.079 301.945 158.469 301.566 158.746C301.186 159.016 300.672 159.151 300.023 159.151Z" fill="#D9D9D9"/>
<path d="M146.486 159.274C147.695 159.274 148.675 158.295 148.675 157.086C148.675 155.877 147.695 154.897 146.486 154.897C145.278 154.897 144.298 155.877 144.298 157.086C144.298 158.295 145.278 159.274 146.486 159.274ZM146.486 157.496L147.512 157.496L147.512 156.676L146.486 156.676L146.486 157.496ZM149.564 157.496L151.616 157.496L151.616 156.676L149.564 156.676L149.564 157.496ZM153.667 157.496L155.719 157.496L155.719 156.676L153.667 156.676L153.667 157.496ZM157.771 157.496L159.823 157.496L159.823 156.676L157.771 156.676L157.771 157.496ZM161.874 157.496L163.926 157.496L163.926 156.676L161.874 156.676L161.874 157.496ZM165.978 157.496L168.03 157.496L168.03 156.676L165.978 156.676L165.978 157.496ZM170.081 157.496L172.133 157.496L172.133 156.676L170.081 156.676L170.081 157.496ZM174.185 157.496L176.237 157.496L176.237 156.676L174.185 156.676L174.185 157.496ZM178.288 157.496L180.34 157.496L180.34 156.676L178.288 156.676L178.288 157.496ZM182.392 157.496L184.444 157.496L184.444 156.676L182.392 156.676L182.392 157.496ZM186.495 157.496L188.547 157.496L188.547 156.676L186.495 156.676L186.495 157.496ZM190.599 157.496L192.651 157.496L192.651 156.676L190.599 156.676L190.599 157.496ZM194.702 157.496L195.728 157.496L195.728 156.676L194.702 156.676L194.702 157.496Z" fill="white"/>
<path d="M7.7207 187.229L7.72071 49.3514" stroke="white" stroke-width="0.820697" stroke-dasharray="2.03 2.03"/>
<path d="M3.34375 187.441L7.91111 192.009L12.4785 187.441" stroke="white" stroke-width="0.820697"/>
<defs>
<filter id="filter0_d_11379_3494" x="0.0341024" y="0.237227" width="201.74" height="222.002" filterUnits="userSpaceOnUse" color-interpolation-filters="sRGB">
<feFlood flood-opacity="0" result="BackgroundImageFix"/>
<feColorMatrix in="SourceAlpha" type="matrix" values="0 0 0 0 0 0 0 0 0 0 0 0 0 0 0 0 0 0 127 0" result="hardAlpha"/>
<feOffset/>
<feGaussianBlur stdDeviation="4.98197"/>
<feComposite in2="hardAlpha" operator="out"/>
<feColorMatrix type="matrix" values="0 0 0 0 1 0 0 0 0 0.962565 0 0 0 0 0.962565 0 0 0 0.15 0"/>
<feBlend mode="normal" in2="BackgroundImageFix" result="effect1_dropShadow_11379_3494"/>
<feBlend mode="normal" in="SourceGraphic" in2="effect1_dropShadow_11379_3494" result="shape"/>
</filter>
<linearGradient id="paint0_linear_11379_3494" x1="94.2266" y1="158.278" x2="94.2266" y2="207.457" gradientUnits="userSpaceOnUse">
<stop stop-color="#131313"/>
<stop offset="1" stop-color="#181818"/>
</linearGradient>
<radialGradient id="paint1_radial_11379_3494" cx="0" cy="0" r="1" gradientUnits="userSpaceOnUse" gradientTransform="translate(94.5389 158.327) rotate(30) scale(43.948 45.043)">
<stop stop-color="white"/>
<stop offset="1" stop-color="white" stop-opacity="0"/>
</radialGradient>
<linearGradient id="paint2_linear_11379_3494" x1="94.2266" y1="127.44" x2="94.2266" y2="176.619" gradientUnits="userSpaceOnUse">
<stop stop-color="#131313"/>
<stop offset="1" stop-color="#1D1D1D"/>
</linearGradient>
<radialGradient id="paint3_radial_11379_3494" cx="0" cy="0" r="1" gradientUnits="userSpaceOnUse" gradientTransform="translate(94.5393 127.704) rotate(30) scale(43.9484 45.043)">
<stop stop-color="white"/>
<stop offset="1" stop-color="white" stop-opacity="0"/>
</radialGradient>
<linearGradient id="paint4_linear_11379_3494" x1="94.2266" y1="95.5627" x2="94.2266" y2="144.742" gradientUnits="userSpaceOnUse">
<stop stop-color="#131313"/>
<stop offset="1" stop-color="#272727"/>
</linearGradient>
<radialGradient id="paint5_radial_11379_3494" cx="0" cy="0" r="1" gradientUnits="userSpaceOnUse" gradientTransform="translate(94.5393 95.7098) rotate(30) scale(43.9484 45.043)">
<stop stop-color="white"/>
<stop offset="1" stop-color="white" stop-opacity="0"/>
</radialGradient>
<linearGradient id="paint6_linear_11379_3494" x1="94.2266" y1="57.0325" x2="94.2266" y2="114.541" gradientUnits="userSpaceOnUse">
<stop stop-color="#131313"/>
<stop offset="1" stop-color="#272727"/>
</linearGradient>
<radialGradient id="paint7_radial_11379_3494" cx="0" cy="0" r="1" gradientUnits="userSpaceOnUse" gradientTransform="translate(94.4677 65.5835) rotate(30.6849) scale(37.8983 38.9159)">
<stop stop-color="white"/>
<stop offset="1" stop-color="white" stop-opacity="0"/>
</radialGradient>
</defs>
</svg>
