<svg width="1035" height="513" viewBox="0 0 1035 513" fill="none" xmlns="http://www.w3.org/2000/svg">
<rect x="0.5" y="0.5" width="1034" height="512" fill="#131313"/>
<rect x="0.5" y="0.5" width="1034" height="512" stroke="white"/>
<path d="M203.974 347.144L367.5 276.083L531.026 347.144L531.025 370.311L367.5 464.723L203.974 370.311L203.974 347.144Z" fill="#131313" stroke="white" stroke-width="0.777975"/>
<path d="M367.5 252.67L530.828 346.968L367.5 441.265L204.172 346.968L367.5 252.67Z" fill="#131313" stroke="white" stroke-width="0.777975"/>
<path d="M203.974 279.683L367.5 208.622L531.026 279.683L531.025 302.85L367.5 397.262L203.974 302.85L203.974 279.683Z" fill="#131313" stroke="white" stroke-width="0.777975"/>
<path d="M367.5 185.209L530.828 279.507L367.5 373.804L204.172 279.507L367.5 185.209Z" fill="#131313" stroke="white" stroke-width="0.777975"/>
<path d="M203.974 209.941L367.5 138.88L531.026 209.941L531.025 233.108L367.5 327.52L203.974 233.108L203.974 209.941Z" fill="#131313" stroke="white" stroke-width="0.777975"/>
<path d="M367.5 115.467L530.828 209.765L367.5 304.062L204.172 209.765L367.5 115.467Z" fill="#131313" stroke="white" stroke-width="0.777975"/>
<path d="M203.974 143.863L367.5 72.8019L531.026 143.863L531.025 167.03L367.5 261.442L203.974 167.03L203.974 143.863Z" fill="#131313" stroke="white" stroke-width="0.777975"/>
<path d="M367.5 49.389L530.828 143.686L367.5 237.984L204.172 143.687L367.5 49.389Z" fill="#131313" stroke="white" stroke-width="0.777975"/>
<rect x="699.4" y="123.4" width="33.2" height="34.2" rx="16.6" fill="#131313"/>
<rect x="699.4" y="123.4" width="33.2" height="34.2" rx="16.6" stroke="white" stroke-width="0.8"/>
<path d="M715.992 146V135.68H715.768L713.88 139.648H712.52L714.808 134.8H717.304V146H715.992ZM712.024 146V144.8H720.296V146H712.024Z" fill="white"/>
<path d="M745.864 147V145.956H747.664V135.444H745.864V134.4H750.652C752.296 134.4 753.574 134.82 754.486 135.66C755.41 136.488 755.872 137.784 755.872 139.548V141.87C755.872 143.634 755.41 144.93 754.486 145.758C753.574 146.586 752.296 147 750.652 147H745.864ZM748.816 145.956H750.652C751.972 145.956 752.98 145.638 753.676 145.002C754.372 144.366 754.72 143.34 754.72 141.924V139.494C754.72 138.066 754.372 137.04 753.676 136.416C752.98 135.78 751.972 135.462 750.652 135.462H748.816V145.956ZM761.184 147.252C760.572 147.252 760.014 147.15 759.51 146.946C759.018 146.73 758.628 146.418 758.34 146.01C758.052 145.602 757.908 145.11 757.908 144.534C757.908 143.946 758.052 143.46 758.34 143.076C758.628 142.692 759.018 142.404 759.51 142.212C760.002 142.02 760.548 141.924 761.148 141.924H764.352V141.222C764.352 140.514 764.148 139.962 763.74 139.566C763.332 139.17 762.738 138.972 761.958 138.972C761.19 138.972 760.578 139.164 760.122 139.548C759.678 139.92 759.378 140.424 759.222 141.06L758.178 140.754C758.322 140.238 758.55 139.776 758.862 139.368C759.174 138.948 759.588 138.618 760.104 138.378C760.62 138.126 761.238 138 761.958 138C763.062 138 763.914 138.288 764.514 138.864C765.126 139.44 765.432 140.244 765.432 141.276V145.524C765.432 145.884 765.6 146.064 765.936 146.064H766.782V147H765.63C765.258 147 764.964 146.892 764.748 146.676C764.532 146.448 764.424 146.142 764.424 145.758V145.632H764.244C764.088 145.896 763.884 146.154 763.632 146.406C763.392 146.658 763.074 146.862 762.678 147.018C762.282 147.174 761.784 147.252 761.184 147.252ZM761.256 146.28C762.18 146.28 762.924 146.004 763.488 145.452C764.064 144.888 764.352 144.096 764.352 143.076V142.86H761.166C760.542 142.86 760.02 142.998 759.6 143.274C759.192 143.538 758.988 143.952 758.988 144.516C758.988 145.08 759.198 145.518 759.618 145.83C760.05 146.13 760.596 146.28 761.256 146.28ZM771.461 147C770.993 147 770.639 146.88 770.399 146.64C770.171 146.4 770.057 146.064 770.057 145.632V139.224H767.249V138.252H770.057V134.976H771.137V138.252H774.197V139.224H771.137V145.488C771.137 145.848 771.317 146.028 771.677 146.028H773.729V147H771.461ZM779.219 147.252C778.607 147.252 778.049 147.15 777.545 146.946C777.053 146.73 776.663 146.418 776.375 146.01C776.087 145.602 775.943 145.11 775.943 144.534C775.943 143.946 776.087 143.46 776.375 143.076C776.663 142.692 777.053 142.404 777.545 142.212C778.037 142.02 778.583 141.924 779.183 141.924H782.387V141.222C782.387 140.514 782.183 139.962 781.775 139.566C781.367 139.17 780.773 138.972 779.993 138.972C779.225 138.972 778.613 139.164 778.157 139.548C777.713 139.92 777.413 140.424 777.257 141.06L776.213 140.754C776.357 140.238 776.585 139.776 776.897 139.368C777.209 138.948 777.623 138.618 778.139 138.378C778.655 138.126 779.273 138 779.993 138C781.097 138 781.949 138.288 782.549 138.864C783.161 139.44 783.467 140.244 783.467 141.276V145.524C783.467 145.884 783.635 146.064 783.971 146.064H784.817V147H783.665C783.293 147 782.999 146.892 782.783 146.676C782.567 146.448 782.459 146.142 782.459 145.758V145.632H782.279C782.123 145.896 781.919 146.154 781.667 146.406C781.427 146.658 781.109 146.862 780.713 147.018C780.317 147.174 779.819 147.252 779.219 147.252ZM779.291 146.28C780.215 146.28 780.959 146.004 781.523 145.452C782.099 144.888 782.387 144.096 782.387 143.076V142.86H779.201C778.577 142.86 778.055 142.998 777.635 143.274C777.227 143.538 777.023 143.952 777.023 144.516C777.023 145.08 777.233 145.518 777.653 145.83C778.085 146.13 778.631 146.28 779.291 146.28ZM791.478 147V134.4H796.14C796.884 134.4 797.55 134.544 798.138 134.832C798.738 135.108 799.212 135.51 799.56 136.038C799.908 136.566 800.082 137.208 800.082 137.964V138.18C800.082 138.936 799.902 139.584 799.542 140.124C799.194 140.652 798.72 141.054 798.12 141.33C797.532 141.606 796.872 141.744 796.14 141.744H792.63V147H791.478ZM792.63 140.7H796.014C796.914 140.7 797.622 140.478 798.138 140.034C798.666 139.59 798.93 138.966 798.93 138.162V137.982C798.93 137.166 798.672 136.542 798.156 136.11C797.652 135.666 796.938 135.444 796.014 135.444H792.63V140.7ZM802.307 147V138.252H803.351V139.35H803.567C803.735 138.954 803.981 138.666 804.305 138.486C804.641 138.306 805.103 138.216 805.691 138.216H806.717V139.224H805.565C804.905 139.224 804.377 139.41 803.981 139.782C803.585 140.154 803.387 140.736 803.387 141.528V147H802.307ZM812.631 147.252C811.743 147.252 810.963 147.066 810.291 146.694C809.631 146.31 809.115 145.782 808.743 145.11C808.383 144.426 808.203 143.634 808.203 142.734V142.518C808.203 141.618 808.383 140.832 808.743 140.16C809.115 139.476 809.631 138.948 810.291 138.576C810.963 138.192 811.743 138 812.631 138C813.519 138 814.293 138.192 814.953 138.576C815.625 138.948 816.141 139.476 816.501 140.16C816.873 140.832 817.059 141.618 817.059 142.518V142.734C817.059 143.634 816.873 144.426 816.501 145.11C816.141 145.782 815.625 146.31 814.953 146.694C814.293 147.066 813.519 147.252 812.631 147.252ZM812.631 146.28C813.663 146.28 814.479 145.956 815.079 145.308C815.679 144.648 815.979 143.778 815.979 142.698V142.554C815.979 141.474 815.679 140.61 815.079 139.962C814.479 139.302 813.663 138.972 812.631 138.972C811.611 138.972 810.795 139.302 810.183 139.962C809.583 140.61 809.283 141.474 809.283 142.554V142.698C809.283 143.778 809.583 144.648 810.183 145.308C810.795 145.956 811.611 146.28 812.631 146.28ZM821.751 147L818.475 138.252H819.627L822.507 146.172H822.723L825.603 138.252H826.755L823.479 147H821.751ZM829.025 147V138.252H830.105V147H829.025ZM829.565 136.74C829.301 136.74 829.079 136.65 828.899 136.47C828.719 136.29 828.629 136.068 828.629 135.804C828.629 135.528 828.719 135.306 828.899 135.138C829.079 134.958 829.301 134.868 829.565 134.868C829.841 134.868 830.063 134.958 830.231 135.138C830.411 135.306 830.501 135.528 830.501 135.804C830.501 136.068 830.411 136.29 830.231 136.47C830.063 136.65 829.841 136.74 829.565 136.74ZM837.059 147.252C836.279 147.252 835.571 147.072 834.935 146.712C834.299 146.34 833.789 145.818 833.405 145.146C833.033 144.462 832.847 143.658 832.847 142.734V142.518C832.847 141.594 833.033 140.796 833.405 140.124C833.777 139.44 834.281 138.918 834.917 138.558C835.565 138.186 836.279 138 837.059 138C837.707 138 838.253 138.09 838.697 138.27C839.141 138.438 839.501 138.66 839.777 138.936C840.065 139.2 840.287 139.482 840.443 139.782H840.659V134.4H841.739V147H840.695V145.398H840.479C840.227 145.878 839.831 146.31 839.291 146.694C838.763 147.066 838.019 147.252 837.059 147.252ZM837.311 146.28C838.307 146.28 839.111 145.962 839.723 145.326C840.347 144.69 840.659 143.814 840.659 142.698V142.554C840.659 141.438 840.347 140.562 839.723 139.926C839.111 139.29 838.307 138.972 837.311 138.972C836.327 138.972 835.523 139.29 834.899 139.926C834.275 140.562 833.963 141.438 833.963 142.554V142.698C833.963 143.814 834.275 144.69 834.899 145.326C835.523 145.962 836.327 146.28 837.311 146.28ZM848.948 147.252C848.048 147.252 847.262 147.066 846.59 146.694C845.93 146.31 845.414 145.776 845.042 145.092C844.67 144.408 844.484 143.622 844.484 142.734V142.518C844.484 141.618 844.67 140.832 845.042 140.16C845.414 139.476 845.924 138.948 846.572 138.576C847.232 138.192 847.982 138 848.822 138C849.638 138 850.358 138.174 850.982 138.522C851.618 138.858 852.116 139.35 852.476 139.998C852.836 140.634 853.016 141.396 853.016 142.284V142.86H845.564C845.6 143.952 845.93 144.798 846.554 145.398C847.19 145.986 847.988 146.28 848.948 146.28C849.764 146.28 850.394 146.094 850.838 145.722C851.294 145.35 851.642 144.894 851.882 144.354L852.854 144.786C852.674 145.182 852.422 145.572 852.098 145.956C851.786 146.328 851.378 146.64 850.874 146.892C850.37 147.132 849.728 147.252 848.948 147.252ZM845.582 141.924H851.918C851.87 140.976 851.564 140.25 851 139.746C850.436 139.23 849.71 138.972 848.822 138.972C847.946 138.972 847.22 139.23 846.644 139.746C846.068 140.25 845.714 140.976 845.582 141.924ZM855.674 147V138.252H856.718V139.35H856.934C857.102 138.954 857.348 138.666 857.672 138.486C858.008 138.306 858.47 138.216 859.058 138.216H860.084V139.224H858.932C858.272 139.224 857.744 139.41 857.348 139.782C856.952 140.154 856.754 140.736 856.754 141.528V147H855.674Z" fill="#D9D9D9"/>
<path d="M699.4 210C699.4 200.832 706.832 193.4 716 193.4C725.168 193.4 732.6 200.832 732.6 210V211C732.6 220.168 725.168 227.6 716 227.6C706.832 227.6 699.4 220.168 699.4 211V210Z" fill="#131313"/>
<path d="M699.4 210C699.4 200.832 706.832 193.4 716 193.4C725.168 193.4 732.6 200.832 732.6 210V211C732.6 220.168 725.168 227.6 716 227.6C706.832 227.6 699.4 220.168 699.4 211V210Z" stroke="white" stroke-width="0.8"/>
<path d="M712.008 216V214.832C712.008 214.032 712.147 213.392 712.424 212.912C712.712 212.432 713.107 212.048 713.608 211.76C714.12 211.461 714.728 211.205 715.432 210.992L716.312 210.72C716.792 210.571 717.213 210.389 717.576 210.176C717.939 209.952 718.221 209.675 718.424 209.344C718.627 209.003 718.728 208.587 718.728 208.096V208.032C718.728 207.328 718.483 206.773 717.992 206.368C717.501 205.952 716.872 205.744 716.104 205.744C715.293 205.744 714.632 205.963 714.12 206.4C713.608 206.827 713.352 207.477 713.352 208.352V208.576H712.072V208.368C712.072 207.557 712.248 206.869 712.6 206.304C712.952 205.739 713.432 205.312 714.04 205.024C714.648 204.725 715.336 204.576 716.104 204.576C716.872 204.576 717.549 204.72 718.136 205.008C718.733 205.296 719.197 205.696 719.528 206.208C719.859 206.72 720.024 207.317 720.024 208V208.144C720.024 208.869 719.88 209.472 719.592 209.952C719.304 210.421 718.904 210.805 718.392 211.104C717.891 211.403 717.299 211.659 716.616 211.872L715.752 212.144C715.208 212.315 714.755 212.496 714.392 212.688C714.04 212.869 713.773 213.104 713.592 213.392C713.411 213.68 713.32 214.069 713.32 214.56V214.832H719.928V216H712.008Z" fill="white"/>
<path d="M745.864 217V215.956H747.664V205.444H745.864V204.4H750.652C752.296 204.4 753.574 204.82 754.486 205.66C755.41 206.488 755.872 207.784 755.872 209.548V211.87C755.872 213.634 755.41 214.93 754.486 215.758C753.574 216.586 752.296 217 750.652 217H745.864ZM748.816 215.956H750.652C751.972 215.956 752.98 215.638 753.676 215.002C754.372 214.366 754.72 213.34 754.72 211.924V209.494C754.72 208.066 754.372 207.04 753.676 206.416C752.98 205.78 751.972 205.462 750.652 205.462H748.816V215.956ZM761.184 217.252C760.572 217.252 760.014 217.15 759.51 216.946C759.018 216.73 758.628 216.418 758.34 216.01C758.052 215.602 757.908 215.11 757.908 214.534C757.908 213.946 758.052 213.46 758.34 213.076C758.628 212.692 759.018 212.404 759.51 212.212C760.002 212.02 760.548 211.924 761.148 211.924H764.352V211.222C764.352 210.514 764.148 209.962 763.74 209.566C763.332 209.17 762.738 208.972 761.958 208.972C761.19 208.972 760.578 209.164 760.122 209.548C759.678 209.92 759.378 210.424 759.222 211.06L758.178 210.754C758.322 210.238 758.55 209.776 758.862 209.368C759.174 208.948 759.588 208.618 760.104 208.378C760.62 208.126 761.238 208 761.958 208C763.062 208 763.914 208.288 764.514 208.864C765.126 209.44 765.432 210.244 765.432 211.276V215.524C765.432 215.884 765.6 216.064 765.936 216.064H766.782V217H765.63C765.258 217 764.964 216.892 764.748 216.676C764.532 216.448 764.424 216.142 764.424 215.758V215.632H764.244C764.088 215.896 763.884 216.154 763.632 216.406C763.392 216.658 763.074 216.862 762.678 217.018C762.282 217.174 761.784 217.252 761.184 217.252ZM761.256 216.28C762.18 216.28 762.924 216.004 763.488 215.452C764.064 214.888 764.352 214.096 764.352 213.076V212.86H761.166C760.542 212.86 760.02 212.998 759.6 213.274C759.192 213.538 758.988 213.952 758.988 214.516C758.988 215.08 759.198 215.518 759.618 215.83C760.05 216.13 760.596 216.28 761.256 216.28ZM771.461 217C770.993 217 770.639 216.88 770.399 216.64C770.171 216.4 770.057 216.064 770.057 215.632V209.224H767.249V208.252H770.057V204.976H771.137V208.252H774.197V209.224H771.137V215.488C771.137 215.848 771.317 216.028 771.677 216.028H773.729V217H771.461ZM779.219 217.252C778.607 217.252 778.049 217.15 777.545 216.946C777.053 216.73 776.663 216.418 776.375 216.01C776.087 215.602 775.943 215.11 775.943 214.534C775.943 213.946 776.087 213.46 776.375 213.076C776.663 212.692 777.053 212.404 777.545 212.212C778.037 212.02 778.583 211.924 779.183 211.924H782.387V211.222C782.387 210.514 782.183 209.962 781.775 209.566C781.367 209.17 780.773 208.972 779.993 208.972C779.225 208.972 778.613 209.164 778.157 209.548C777.713 209.92 777.413 210.424 777.257 211.06L776.213 210.754C776.357 210.238 776.585 209.776 776.897 209.368C777.209 208.948 777.623 208.618 778.139 208.378C778.655 208.126 779.273 208 779.993 208C781.097 208 781.949 208.288 782.549 208.864C783.161 209.44 783.467 210.244 783.467 211.276V215.524C783.467 215.884 783.635 216.064 783.971 216.064H784.817V217H783.665C783.293 217 782.999 216.892 782.783 216.676C782.567 216.448 782.459 216.142 782.459 215.758V215.632H782.279C782.123 215.896 781.919 216.154 781.667 216.406C781.427 216.658 781.109 216.862 780.713 217.018C780.317 217.174 779.819 217.252 779.219 217.252ZM779.291 216.28C780.215 216.28 780.959 216.004 781.523 215.452C782.099 214.888 782.387 214.096 782.387 213.076V212.86H779.201C778.577 212.86 778.055 212.998 777.635 213.274C777.227 213.538 777.023 213.952 777.023 214.516C777.023 215.08 777.233 215.518 777.653 215.83C778.085 216.13 778.631 216.28 779.291 216.28ZM791.478 217V204.4H796.14C796.884 204.4 797.55 204.544 798.138 204.832C798.738 205.108 799.212 205.51 799.56 206.038C799.908 206.566 800.082 207.208 800.082 207.964V208.18C800.082 208.936 799.902 209.584 799.542 210.124C799.194 210.652 798.72 211.054 798.12 211.33C797.532 211.606 796.872 211.744 796.14 211.744H792.63V217H791.478ZM792.63 210.7H796.014C796.914 210.7 797.622 210.478 798.138 210.034C798.666 209.59 798.93 208.966 798.93 208.162V207.982C798.93 207.166 798.672 206.542 798.156 206.11C797.652 205.666 796.938 205.444 796.014 205.444H792.63V210.7ZM802.307 217V208.252H803.351V209.35H803.567C803.735 208.954 803.981 208.666 804.305 208.486C804.641 208.306 805.103 208.216 805.691 208.216H806.717V209.224H805.565C804.905 209.224 804.377 209.41 803.981 209.782C803.585 210.154 803.387 210.736 803.387 211.528V217H802.307ZM812.667 217.252C811.767 217.252 810.981 217.066 810.309 216.694C809.649 216.31 809.133 215.776 808.761 215.092C808.389 214.408 808.203 213.622 808.203 212.734V212.518C808.203 211.618 808.389 210.832 808.761 210.16C809.133 209.476 809.643 208.948 810.291 208.576C810.951 208.192 811.701 208 812.541 208C813.357 208 814.077 208.174 814.701 208.522C815.337 208.858 815.835 209.35 816.195 209.998C816.555 210.634 816.735 211.396 816.735 212.284V212.86H809.283C809.319 213.952 809.649 214.798 810.273 215.398C810.909 215.986 811.707 216.28 812.667 216.28C813.483 216.28 814.113 216.094 814.557 215.722C815.013 215.35 815.361 214.894 815.601 214.354L816.573 214.786C816.393 215.182 816.141 215.572 815.817 215.956C815.505 216.328 815.097 216.64 814.593 216.892C814.089 217.132 813.447 217.252 812.667 217.252ZM809.301 211.924H815.637C815.589 210.976 815.283 210.25 814.719 209.746C814.155 209.23 813.429 208.972 812.541 208.972C811.665 208.972 810.939 209.23 810.363 209.746C809.787 210.25 809.433 210.976 809.301 211.924ZM819.321 212.86V211.852H824.649V212.86H819.321ZM827.706 217V204.4H832.368C833.112 204.4 833.778 204.544 834.366 204.832C834.966 205.108 835.44 205.51 835.788 206.038C836.136 206.566 836.31 207.208 836.31 207.964V208.18C836.31 208.936 836.13 209.584 835.77 210.124C835.422 210.652 834.948 211.054 834.348 211.33C833.76 211.606 833.1 211.744 832.368 211.744H828.858V217H827.706ZM828.858 210.7H832.242C833.142 210.7 833.85 210.478 834.366 210.034C834.894 209.59 835.158 208.966 835.158 208.162V207.982C835.158 207.166 834.9 206.542 834.384 206.11C833.88 205.666 833.166 205.444 832.242 205.444H828.858V210.7ZM838.535 217V208.252H839.579V209.35H839.795C839.963 208.954 840.209 208.666 840.533 208.486C840.869 208.306 841.331 208.216 841.919 208.216H842.945V209.224H841.793C841.133 209.224 840.605 209.41 840.209 209.782C839.813 210.154 839.615 210.736 839.615 211.528V217H838.535ZM848.859 217.252C847.971 217.252 847.191 217.066 846.519 216.694C845.859 216.31 845.343 215.782 844.971 215.11C844.611 214.426 844.431 213.634 844.431 212.734V212.518C844.431 211.618 844.611 210.832 844.971 210.16C845.343 209.476 845.859 208.948 846.519 208.576C847.191 208.192 847.971 208 848.859 208C849.747 208 850.521 208.192 851.181 208.576C851.853 208.948 852.369 209.476 852.729 210.16C853.101 210.832 853.287 211.618 853.287 212.518V212.734C853.287 213.634 853.101 214.426 852.729 215.11C852.369 215.782 851.853 216.31 851.181 216.694C850.521 217.066 849.747 217.252 848.859 217.252ZM848.859 216.28C849.891 216.28 850.707 215.956 851.307 215.308C851.907 214.648 852.207 213.778 852.207 212.698V212.554C852.207 211.474 851.907 210.61 851.307 209.962C850.707 209.302 849.891 208.972 848.859 208.972C847.839 208.972 847.023 209.302 846.411 209.962C845.811 210.61 845.511 211.474 845.511 212.554V212.698C845.511 213.778 845.811 214.648 846.411 215.308C847.023 215.956 847.839 216.28 848.859 216.28ZM860.021 217.252C859.169 217.252 858.407 217.072 857.735 216.712C857.075 216.34 856.553 215.812 856.169 215.128C855.785 214.444 855.593 213.64 855.593 212.716V212.536C855.593 211.6 855.785 210.796 856.169 210.124C856.553 209.44 857.075 208.918 857.735 208.558C858.407 208.186 859.169 208 860.021 208C860.861 208 861.569 208.162 862.145 208.486C862.733 208.798 863.189 209.212 863.513 209.728C863.849 210.232 864.059 210.766 864.143 211.33L863.081 211.546C863.021 211.078 862.871 210.652 862.631 210.268C862.391 209.872 862.055 209.56 861.623 209.332C861.191 209.092 860.657 208.972 860.021 208.972C859.385 208.972 858.815 209.122 858.311 209.422C857.807 209.71 857.405 210.124 857.105 210.664C856.817 211.192 856.673 211.822 856.673 212.554V212.698C856.673 213.43 856.817 214.066 857.105 214.606C857.405 215.134 857.807 215.548 858.311 215.848C858.815 216.136 859.385 216.28 860.021 216.28C860.981 216.28 861.713 216.034 862.217 215.542C862.721 215.038 863.033 214.426 863.153 213.706L864.215 213.922C864.107 214.486 863.879 215.026 863.531 215.542C863.195 216.046 862.733 216.46 862.145 216.784C861.569 217.096 860.861 217.252 860.021 217.252ZM870.903 217.252C870.003 217.252 869.217 217.066 868.545 216.694C867.885 216.31 867.369 215.776 866.997 215.092C866.625 214.408 866.439 213.622 866.439 212.734V212.518C866.439 211.618 866.625 210.832 866.997 210.16C867.369 209.476 867.879 208.948 868.527 208.576C869.187 208.192 869.937 208 870.777 208C871.593 208 872.313 208.174 872.937 208.522C873.573 208.858 874.071 209.35 874.431 209.998C874.791 210.634 874.971 211.396 874.971 212.284V212.86H867.519C867.555 213.952 867.885 214.798 868.509 215.398C869.145 215.986 869.943 216.28 870.903 216.28C871.719 216.28 872.349 216.094 872.793 215.722C873.249 215.35 873.597 214.894 873.837 214.354L874.809 214.786C874.629 215.182 874.377 215.572 874.053 215.956C873.741 216.328 873.333 216.64 872.829 216.892C872.325 217.132 871.683 217.252 870.903 217.252ZM867.537 211.924H873.873C873.825 210.976 873.519 210.25 872.955 209.746C872.391 209.23 871.665 208.972 870.777 208.972C869.901 208.972 869.175 209.23 868.599 209.746C868.023 210.25 867.669 210.976 867.537 211.924ZM881.103 217.252C880.047 217.252 879.141 217 878.385 216.496C877.641 215.992 877.185 215.158 877.017 213.994L878.079 213.796C878.175 214.432 878.367 214.936 878.655 215.308C878.955 215.668 879.315 215.926 879.735 216.082C880.167 216.238 880.623 216.316 881.103 216.316C881.823 216.316 882.399 216.172 882.831 215.884C883.275 215.584 883.497 215.176 883.497 214.66C883.497 214.132 883.287 213.766 882.867 213.562C882.459 213.358 881.913 213.196 881.229 213.076L880.401 212.932C879.849 212.836 879.351 212.692 878.907 212.5C878.463 212.296 878.109 212.026 877.845 211.69C877.593 211.354 877.467 210.934 877.467 210.43C877.467 209.674 877.761 209.08 878.349 208.648C878.949 208.216 879.741 208 880.725 208C881.721 208 882.519 208.228 883.119 208.684C883.731 209.128 884.115 209.776 884.271 210.628L883.263 210.844C883.143 210.148 882.855 209.656 882.399 209.368C881.955 209.08 881.397 208.936 880.725 208.936C880.065 208.936 879.537 209.062 879.141 209.314C878.745 209.566 878.547 209.938 878.547 210.43C878.547 210.91 878.727 211.264 879.087 211.492C879.447 211.708 879.939 211.87 880.563 211.978L881.391 212.122C881.991 212.218 882.531 212.362 883.011 212.554C883.491 212.734 883.869 212.992 884.145 213.328C884.433 213.664 884.577 214.108 884.577 214.66C884.577 215.488 884.265 216.13 883.641 216.586C883.017 217.03 882.171 217.252 881.103 217.252ZM890.613 217.252C889.557 217.252 888.651 217 887.895 216.496C887.151 215.992 886.695 215.158 886.527 213.994L887.589 213.796C887.685 214.432 887.877 214.936 888.165 215.308C888.465 215.668 888.825 215.926 889.245 216.082C889.677 216.238 890.133 216.316 890.613 216.316C891.333 216.316 891.909 216.172 892.341 215.884C892.785 215.584 893.007 215.176 893.007 214.66C893.007 214.132 892.797 213.766 892.377 213.562C891.969 213.358 891.423 213.196 890.739 213.076L889.911 212.932C889.359 212.836 888.861 212.692 888.417 212.5C887.973 212.296 887.619 212.026 887.355 211.69C887.103 211.354 886.977 210.934 886.977 210.43C886.977 209.674 887.271 209.08 887.859 208.648C888.459 208.216 889.251 208 890.235 208C891.231 208 892.029 208.228 892.629 208.684C893.241 209.128 893.625 209.776 893.781 210.628L892.773 210.844C892.653 210.148 892.365 209.656 891.909 209.368C891.465 209.08 890.907 208.936 890.235 208.936C889.575 208.936 889.047 209.062 888.651 209.314C888.255 209.566 888.057 209.938 888.057 210.43C888.057 210.91 888.237 211.264 888.597 211.492C888.957 211.708 889.449 211.87 890.073 211.978L890.901 212.122C891.501 212.218 892.041 212.362 892.521 212.554C893.001 212.734 893.379 212.992 893.655 213.328C893.943 213.664 894.087 214.108 894.087 214.66C894.087 215.488 893.775 216.13 893.151 216.586C892.527 217.03 891.681 217.252 890.613 217.252ZM900.644 217.252C899.756 217.252 898.976 217.066 898.304 216.694C897.644 216.31 897.128 215.782 896.756 215.11C896.396 214.426 896.216 213.634 896.216 212.734V212.518C896.216 211.618 896.396 210.832 896.756 210.16C897.128 209.476 897.644 208.948 898.304 208.576C898.976 208.192 899.756 208 900.644 208C901.532 208 902.306 208.192 902.966 208.576C903.638 208.948 904.154 209.476 904.514 210.16C904.886 210.832 905.072 211.618 905.072 212.518V212.734C905.072 213.634 904.886 214.426 904.514 215.11C904.154 215.782 903.638 216.31 902.966 216.694C902.306 217.066 901.532 217.252 900.644 217.252ZM900.644 216.28C901.676 216.28 902.492 215.956 903.092 215.308C903.692 214.648 903.992 213.778 903.992 212.698V212.554C903.992 211.474 903.692 210.61 903.092 209.962C902.492 209.302 901.676 208.972 900.644 208.972C899.624 208.972 898.808 209.302 898.196 209.962C897.596 210.61 897.296 211.474 897.296 212.554V212.698C897.296 213.778 897.596 214.648 898.196 215.308C898.808 215.956 899.624 216.28 900.644 216.28ZM907.811 217V208.252H908.855V209.35H909.071C909.239 208.954 909.485 208.666 909.809 208.486C910.145 208.306 910.607 208.216 911.195 208.216H912.221V209.224H911.069C910.409 209.224 909.881 209.41 909.485 209.782C909.089 210.154 908.891 210.736 908.891 211.528V217H907.811Z" fill="#D9D9D9"/>
<path d="M699.4 281C699.4 271.832 706.832 264.4 716 264.4C725.168 264.4 732.6 271.832 732.6 281V282C732.6 291.168 725.168 298.6 716 298.6C706.832 298.6 699.4 291.168 699.4 282V281Z" fill="#131313"/>
<path d="M699.4 281C699.4 271.832 706.832 264.4 716 264.4C725.168 264.4 732.6 271.832 732.6 281V282C732.6 291.168 725.168 298.6 716 298.6C706.832 298.6 699.4 291.168 699.4 282V281Z" stroke="white" stroke-width="0.8"/>
<path d="M715.992 287.224C715.203 287.224 714.493 287.075 713.864 286.776C713.245 286.477 712.755 286.045 712.392 285.48C712.04 284.915 711.864 284.232 711.864 283.432V283.128H713.16V283.416C713.16 284.237 713.421 284.883 713.944 285.352C714.467 285.821 715.149 286.056 715.992 286.056C716.845 286.056 717.507 285.837 717.976 285.4C718.456 284.952 718.696 284.392 718.696 283.72V283.592C718.696 283.101 718.579 282.707 718.344 282.408C718.109 282.099 717.789 281.875 717.384 281.736C716.989 281.587 716.552 281.512 716.072 281.512H714.248V279.896L718.52 277.16V276.968H712.136V275.8H719.896V277.608L715.72 280.296V280.488H716.52C717.149 280.488 717.725 280.605 718.248 280.84C718.781 281.064 719.203 281.405 719.512 281.864C719.832 282.312 719.992 282.877 719.992 283.56V283.736C719.992 284.44 719.827 285.053 719.496 285.576C719.165 286.099 718.701 286.504 718.104 286.792C717.507 287.08 716.803 287.224 715.992 287.224Z" fill="white"/>
<path d="M745.864 288V286.956H747.664V276.444H745.864V275.4H750.652C752.296 275.4 753.574 275.82 754.486 276.66C755.41 277.488 755.872 278.784 755.872 280.548V282.87C755.872 284.634 755.41 285.93 754.486 286.758C753.574 287.586 752.296 288 750.652 288H745.864ZM748.816 286.956H750.652C751.972 286.956 752.98 286.638 753.676 286.002C754.372 285.366 754.72 284.34 754.72 282.924V280.494C754.72 279.066 754.372 278.04 753.676 277.416C752.98 276.78 751.972 276.462 750.652 276.462H748.816V286.956ZM761.184 288.252C760.572 288.252 760.014 288.15 759.51 287.946C759.018 287.73 758.628 287.418 758.34 287.01C758.052 286.602 757.908 286.11 757.908 285.534C757.908 284.946 758.052 284.46 758.34 284.076C758.628 283.692 759.018 283.404 759.51 283.212C760.002 283.02 760.548 282.924 761.148 282.924H764.352V282.222C764.352 281.514 764.148 280.962 763.74 280.566C763.332 280.17 762.738 279.972 761.958 279.972C761.19 279.972 760.578 280.164 760.122 280.548C759.678 280.92 759.378 281.424 759.222 282.06L758.178 281.754C758.322 281.238 758.55 280.776 758.862 280.368C759.174 279.948 759.588 279.618 760.104 279.378C760.62 279.126 761.238 279 761.958 279C763.062 279 763.914 279.288 764.514 279.864C765.126 280.44 765.432 281.244 765.432 282.276V286.524C765.432 286.884 765.6 287.064 765.936 287.064H766.782V288H765.63C765.258 288 764.964 287.892 764.748 287.676C764.532 287.448 764.424 287.142 764.424 286.758V286.632H764.244C764.088 286.896 763.884 287.154 763.632 287.406C763.392 287.658 763.074 287.862 762.678 288.018C762.282 288.174 761.784 288.252 761.184 288.252ZM761.256 287.28C762.18 287.28 762.924 287.004 763.488 286.452C764.064 285.888 764.352 285.096 764.352 284.076V283.86H761.166C760.542 283.86 760.02 283.998 759.6 284.274C759.192 284.538 758.988 284.952 758.988 285.516C758.988 286.08 759.198 286.518 759.618 286.83C760.05 287.13 760.596 287.28 761.256 287.28ZM771.461 288C770.993 288 770.639 287.88 770.399 287.64C770.171 287.4 770.057 287.064 770.057 286.632V280.224H767.249V279.252H770.057V275.976H771.137V279.252H774.197V280.224H771.137V286.488C771.137 286.848 771.317 287.028 771.677 287.028H773.729V288H771.461ZM779.219 288.252C778.607 288.252 778.049 288.15 777.545 287.946C777.053 287.73 776.663 287.418 776.375 287.01C776.087 286.602 775.943 286.11 775.943 285.534C775.943 284.946 776.087 284.46 776.375 284.076C776.663 283.692 777.053 283.404 777.545 283.212C778.037 283.02 778.583 282.924 779.183 282.924H782.387V282.222C782.387 281.514 782.183 280.962 781.775 280.566C781.367 280.17 780.773 279.972 779.993 279.972C779.225 279.972 778.613 280.164 778.157 280.548C777.713 280.92 777.413 281.424 777.257 282.06L776.213 281.754C776.357 281.238 776.585 280.776 776.897 280.368C777.209 279.948 777.623 279.618 778.139 279.378C778.655 279.126 779.273 279 779.993 279C781.097 279 781.949 279.288 782.549 279.864C783.161 280.44 783.467 281.244 783.467 282.276V286.524C783.467 286.884 783.635 287.064 783.971 287.064H784.817V288H783.665C783.293 288 782.999 287.892 782.783 287.676C782.567 287.448 782.459 287.142 782.459 286.758V286.632H782.279C782.123 286.896 781.919 287.154 781.667 287.406C781.427 287.658 781.109 287.862 780.713 288.018C780.317 288.174 779.819 288.252 779.219 288.252ZM779.291 287.28C780.215 287.28 780.959 287.004 781.523 286.452C782.099 285.888 782.387 285.096 782.387 284.076V283.86H779.201C778.577 283.86 778.055 283.998 777.635 284.274C777.227 284.538 777.023 284.952 777.023 285.516C777.023 286.08 777.233 286.518 777.653 286.83C778.085 287.13 778.631 287.28 779.291 287.28ZM791.478 288V275.4H792.63V281.16H799.038V275.4H800.19V288H799.038V282.204H792.63V288H791.478ZM807.322 288.252C806.434 288.252 805.654 288.066 804.982 287.694C804.322 287.31 803.806 286.782 803.434 286.11C803.074 285.426 802.894 284.634 802.894 283.734V283.518C802.894 282.618 803.074 281.832 803.434 281.16C803.806 280.476 804.322 279.948 804.982 279.576C805.654 279.192 806.434 279 807.322 279C808.21 279 808.984 279.192 809.644 279.576C810.316 279.948 810.832 280.476 811.192 281.16C811.564 281.832 811.75 282.618 811.75 283.518V283.734C811.75 284.634 811.564 285.426 811.192 286.11C810.832 286.782 810.316 287.31 809.644 287.694C808.984 288.066 808.21 288.252 807.322 288.252ZM807.322 287.28C808.354 287.28 809.17 286.956 809.77 286.308C810.37 285.648 810.67 284.778 810.67 283.698V283.554C810.67 282.474 810.37 281.61 809.77 280.962C809.17 280.302 808.354 279.972 807.322 279.972C806.302 279.972 805.486 280.302 804.874 280.962C804.274 281.61 803.974 282.474 803.974 283.554V283.698C803.974 284.778 804.274 285.648 804.874 286.308C805.486 286.956 806.302 287.28 807.322 287.28ZM817.962 288.252C816.906 288.252 816 288 815.244 287.496C814.5 286.992 814.044 286.158 813.876 284.994L814.938 284.796C815.034 285.432 815.226 285.936 815.514 286.308C815.814 286.668 816.174 286.926 816.594 287.082C817.026 287.238 817.482 287.316 817.962 287.316C818.682 287.316 819.258 287.172 819.69 286.884C820.134 286.584 820.356 286.176 820.356 285.66C820.356 285.132 820.146 284.766 819.726 284.562C819.318 284.358 818.772 284.196 818.088 284.076L817.26 283.932C816.708 283.836 816.21 283.692 815.766 283.5C815.322 283.296 814.968 283.026 814.704 282.69C814.452 282.354 814.326 281.934 814.326 281.43C814.326 280.674 814.62 280.08 815.208 279.648C815.808 279.216 816.6 279 817.584 279C818.58 279 819.378 279.228 819.978 279.684C820.59 280.128 820.974 280.776 821.13 281.628L820.122 281.844C820.002 281.148 819.714 280.656 819.258 280.368C818.814 280.08 818.256 279.936 817.584 279.936C816.924 279.936 816.396 280.062 816 280.314C815.604 280.566 815.406 280.938 815.406 281.43C815.406 281.91 815.586 282.264 815.946 282.492C816.306 282.708 816.798 282.87 817.422 282.978L818.25 283.122C818.85 283.218 819.39 283.362 819.87 283.554C820.35 283.734 820.728 283.992 821.004 284.328C821.292 284.664 821.436 285.108 821.436 285.66C821.436 286.488 821.124 287.13 820.5 287.586C819.876 288.03 819.03 288.252 817.962 288.252ZM826.955 288C826.487 288 826.133 287.88 825.893 287.64C825.665 287.4 825.551 287.064 825.551 286.632V280.224H822.743V279.252H825.551V275.976H826.631V279.252H829.691V280.224H826.631V286.488C826.631 286.848 826.811 287.028 827.171 287.028H829.223V288H826.955Z" fill="#D9D9D9"/>
<path d="M699.4 349C699.4 339.832 706.832 332.4 716 332.4C725.168 332.4 732.6 339.832 732.6 349V350C732.6 359.168 725.168 366.6 716 366.6C706.832 366.6 699.4 359.168 699.4 350V349Z" fill="#131313"/>
<path d="M699.4 349C699.4 339.832 706.832 332.4 716 332.4C725.168 332.4 732.6 339.832 732.6 349V350C732.6 359.168 725.168 366.6 716 366.6C706.832 366.6 699.4 359.168 699.4 350V349Z" stroke="white" stroke-width="0.8"/>
<path d="M717.32 355V352.712H711.576V351.176L716.184 343.8H718.616V351.544H720.52V352.712H718.616V355H717.32ZM712.856 351.544H717.32V344.584H717.096L712.856 351.352V351.544Z" fill="white"/>
<path d="M745.504 356L749.626 343.4H751.678L755.8 356H754.594L753.514 352.652H747.79L746.71 356H745.504ZM748.114 351.608H753.19L750.76 344.084H750.544L748.114 351.608ZM757.851 356V343.4H759.003V356H757.851ZM765.455 356L769.577 343.4H771.629L775.751 356H774.545L773.465 352.652H767.741L766.661 356H765.455ZM768.065 351.608H773.141L770.711 344.084H770.495L768.065 351.608ZM777.838 359.6V347.252H778.882V348.854H779.098C779.35 348.374 779.74 347.948 780.268 347.576C780.808 347.192 781.558 347 782.518 347C783.298 347 784.006 347.186 784.642 347.558C785.278 347.918 785.782 348.434 786.154 349.106C786.538 349.778 786.73 350.582 786.73 351.518V351.734C786.73 352.658 786.544 353.462 786.172 354.146C785.8 354.818 785.296 355.34 784.66 355.712C784.024 356.072 783.31 356.252 782.518 356.252C781.882 356.252 781.336 356.168 780.88 356C780.436 355.82 780.07 355.592 779.782 355.316C779.506 355.04 779.29 354.758 779.134 354.47H778.918V359.6H777.838ZM782.266 355.28C783.262 355.28 784.066 354.962 784.678 354.326C785.302 353.69 785.614 352.814 785.614 351.698V351.554C785.614 350.438 785.302 349.562 784.678 348.926C784.066 348.29 783.262 347.972 782.266 347.972C781.282 347.972 780.478 348.29 779.854 348.926C779.23 349.562 778.918 350.438 778.918 351.554V351.698C778.918 352.814 779.23 353.69 779.854 354.326C780.478 354.962 781.282 355.28 782.266 355.28ZM789.475 359.6V347.252H790.519V348.854H790.735C790.987 348.374 791.377 347.948 791.905 347.576C792.445 347.192 793.195 347 794.155 347C794.935 347 795.643 347.186 796.279 347.558C796.915 347.918 797.419 348.434 797.791 349.106C798.175 349.778 798.367 350.582 798.367 351.518V351.734C798.367 352.658 798.181 353.462 797.809 354.146C797.437 354.818 796.933 355.34 796.297 355.712C795.661 356.072 794.947 356.252 794.155 356.252C793.519 356.252 792.973 356.168 792.517 356C792.073 355.82 791.707 355.592 791.419 355.316C791.143 355.04 790.927 354.758 790.771 354.47H790.555V359.6H789.475ZM793.903 355.28C794.899 355.28 795.703 354.962 796.315 354.326C796.939 353.69 797.251 352.814 797.251 351.698V351.554C797.251 350.438 796.939 349.562 796.315 348.926C795.703 348.29 794.899 347.972 793.903 347.972C792.919 347.972 792.115 348.29 791.491 348.926C790.867 349.562 790.555 350.438 790.555 351.554V351.698C790.555 352.814 790.867 353.69 791.491 354.326C792.115 354.962 792.919 355.28 793.903 355.28ZM801.111 356V343.4H802.191V356H801.111ZM805.365 356V347.252H806.445V356H805.365ZM805.905 345.74C805.641 345.74 805.419 345.65 805.239 345.47C805.059 345.29 804.969 345.068 804.969 344.804C804.969 344.528 805.059 344.306 805.239 344.138C805.419 343.958 805.641 343.868 805.905 343.868C806.181 343.868 806.403 343.958 806.571 344.138C806.751 344.306 806.841 344.528 806.841 344.804C806.841 345.068 806.751 345.29 806.571 345.47C806.403 345.65 806.181 345.74 805.905 345.74ZM813.615 356.252C812.763 356.252 812.001 356.072 811.329 355.712C810.669 355.34 810.147 354.812 809.763 354.128C809.379 353.444 809.187 352.64 809.187 351.716V351.536C809.187 350.6 809.379 349.796 809.763 349.124C810.147 348.44 810.669 347.918 811.329 347.558C812.001 347.186 812.763 347 813.615 347C814.455 347 815.163 347.162 815.739 347.486C816.327 347.798 816.783 348.212 817.107 348.728C817.443 349.232 817.653 349.766 817.737 350.33L816.675 350.546C816.615 350.078 816.465 349.652 816.225 349.268C815.985 348.872 815.649 348.56 815.217 348.332C814.785 348.092 814.251 347.972 813.615 347.972C812.979 347.972 812.409 348.122 811.905 348.422C811.401 348.71 810.999 349.124 810.699 349.664C810.411 350.192 810.267 350.822 810.267 351.554V351.698C810.267 352.43 810.411 353.066 810.699 353.606C810.999 354.134 811.401 354.548 811.905 354.848C812.409 355.136 812.979 355.28 813.615 355.28C814.575 355.28 815.307 355.034 815.811 354.542C816.315 354.038 816.627 353.426 816.747 352.706L817.809 352.922C817.701 353.486 817.473 354.026 817.125 354.542C816.789 355.046 816.327 355.46 815.739 355.784C815.163 356.096 814.455 356.252 813.615 356.252ZM823.147 356.252C822.535 356.252 821.977 356.15 821.473 355.946C820.981 355.73 820.591 355.418 820.303 355.01C820.015 354.602 819.871 354.11 819.871 353.534C819.871 352.946 820.015 352.46 820.303 352.076C820.591 351.692 820.981 351.404 821.473 351.212C821.965 351.02 822.511 350.924 823.111 350.924H826.315V350.222C826.315 349.514 826.111 348.962 825.703 348.566C825.295 348.17 824.701 347.972 823.921 347.972C823.153 347.972 822.541 348.164 822.085 348.548C821.641 348.92 821.341 349.424 821.185 350.06L820.141 349.754C820.285 349.238 820.513 348.776 820.825 348.368C821.137 347.948 821.551 347.618 822.067 347.378C822.583 347.126 823.201 347 823.921 347C825.025 347 825.877 347.288 826.477 347.864C827.089 348.44 827.395 349.244 827.395 350.276V354.524C827.395 354.884 827.563 355.064 827.899 355.064H828.745V356H827.593C827.221 356 826.927 355.892 826.711 355.676C826.495 355.448 826.387 355.142 826.387 354.758V354.632H826.207C826.051 354.896 825.847 355.154 825.595 355.406C825.355 355.658 825.037 355.862 824.641 356.018C824.245 356.174 823.747 356.252 823.147 356.252ZM823.219 355.28C824.143 355.28 824.887 355.004 825.451 354.452C826.027 353.888 826.315 353.096 826.315 352.076V351.86H823.129C822.505 351.86 821.983 351.998 821.563 352.274C821.155 352.538 820.951 352.952 820.951 353.516C820.951 354.08 821.161 354.518 821.581 354.83C822.013 355.13 822.559 355.28 823.219 355.28ZM833.424 356C832.956 356 832.602 355.88 832.362 355.64C832.134 355.4 832.02 355.064 832.02 354.632V348.224H829.212V347.252H832.02V343.976H833.1V347.252H836.16V348.224H833.1V354.488C833.1 354.848 833.28 355.028 833.64 355.028H835.692V356H833.424ZM838.57 356V347.252H839.65V356H838.57ZM839.11 345.74C838.846 345.74 838.624 345.65 838.444 345.47C838.264 345.29 838.174 345.068 838.174 344.804C838.174 344.528 838.264 344.306 838.444 344.138C838.624 343.958 838.846 343.868 839.11 343.868C839.386 343.868 839.608 343.958 839.776 344.138C839.956 344.306 840.046 344.528 840.046 344.804C840.046 345.068 839.956 345.29 839.776 345.47C839.608 345.65 839.386 345.74 839.11 345.74ZM846.82 356.252C845.932 356.252 845.152 356.066 844.48 355.694C843.82 355.31 843.304 354.782 842.932 354.11C842.572 353.426 842.392 352.634 842.392 351.734V351.518C842.392 350.618 842.572 349.832 842.932 349.16C843.304 348.476 843.82 347.948 844.48 347.576C845.152 347.192 845.932 347 846.82 347C847.708 347 848.482 347.192 849.142 347.576C849.814 347.948 850.33 348.476 850.69 349.16C851.062 349.832 851.248 350.618 851.248 351.518V351.734C851.248 352.634 851.062 353.426 850.69 354.11C850.33 354.782 849.814 355.31 849.142 355.694C848.482 356.066 847.708 356.252 846.82 356.252ZM846.82 355.28C847.852 355.28 848.668 354.956 849.268 354.308C849.868 353.648 850.168 352.778 850.168 351.698V351.554C850.168 350.474 849.868 349.61 849.268 348.962C848.668 348.302 847.852 347.972 846.82 347.972C845.8 347.972 844.984 348.302 844.372 348.962C843.772 349.61 843.472 350.474 843.472 351.554V351.698C843.472 352.778 843.772 353.648 844.372 354.308C844.984 354.956 845.8 355.28 846.82 355.28ZM853.986 356V347.252H855.03V348.872H855.246C855.462 348.404 855.816 347.99 856.308 347.63C856.8 347.258 857.514 347.072 858.45 347.072C859.086 347.072 859.668 347.204 860.196 347.468C860.724 347.732 861.144 348.134 861.456 348.674C861.78 349.202 861.942 349.868 861.942 350.672V356H860.862V350.744C860.862 349.784 860.622 349.094 860.142 348.674C859.662 348.254 859.02 348.044 858.216 348.044C857.316 348.044 856.566 348.344 855.966 348.944C855.366 349.532 855.066 350.426 855.066 351.626V356H853.986ZM868.482 356.252C867.426 356.252 866.52 356 865.764 355.496C865.02 354.992 864.564 354.158 864.396 352.994L865.458 352.796C865.554 353.432 865.746 353.936 866.034 354.308C866.334 354.668 866.694 354.926 867.114 355.082C867.546 355.238 868.002 355.316 868.482 355.316C869.202 355.316 869.778 355.172 870.21 354.884C870.654 354.584 870.876 354.176 870.876 353.66C870.876 353.132 870.666 352.766 870.246 352.562C869.838 352.358 869.292 352.196 868.608 352.076L867.78 351.932C867.228 351.836 866.73 351.692 866.286 351.5C865.842 351.296 865.488 351.026 865.224 350.69C864.972 350.354 864.846 349.934 864.846 349.43C864.846 348.674 865.14 348.08 865.728 347.648C866.328 347.216 867.12 347 868.104 347C869.1 347 869.898 347.228 870.498 347.684C871.11 348.128 871.494 348.776 871.65 349.628L870.642 349.844C870.522 349.148 870.234 348.656 869.778 348.368C869.334 348.08 868.776 347.936 868.104 347.936C867.444 347.936 866.916 348.062 866.52 348.314C866.124 348.566 865.926 348.938 865.926 349.43C865.926 349.91 866.106 350.264 866.466 350.492C866.826 350.708 867.318 350.87 867.942 350.978L868.77 351.122C869.37 351.218 869.91 351.362 870.39 351.554C870.87 351.734 871.248 351.992 871.524 352.328C871.812 352.664 871.956 353.108 871.956 353.66C871.956 354.488 871.644 355.13 871.02 355.586C870.396 356.03 869.55 356.252 868.482 356.252Z" fill="#D9D9D9"/>
<path d="M498 142.667C499.473 142.667 500.667 141.473 500.667 140C500.667 138.527 499.473 137.333 498 137.333C496.527 137.333 495.333 138.527 495.333 140C495.333 141.473 496.527 142.667 498 142.667ZM498 140.5L501.05 140.5L501.05 139.5L498 139.5L498 140.5ZM507.15 140.5L513.25 140.5L513.25 139.5L507.15 139.5L507.15 140.5ZM519.35 140.5L525.45 140.5L525.45 139.5L519.35 139.5L519.35 140.5ZM531.55 140.5L537.65 140.5L537.65 139.5L531.55 139.5L531.55 140.5ZM543.75 140.5L549.85 140.5L549.85 139.5L543.75 139.5L543.75 140.5ZM555.95 140.5L562.05 140.5L562.05 139.5L555.95 139.5L555.95 140.5ZM568.15 140.5L574.25 140.5L574.25 139.5L568.15 139.5L568.15 140.5ZM580.35 140.5L586.45 140.5L586.45 139.5L580.35 139.5L580.35 140.5ZM592.55 140.5L598.65 140.5L598.65 139.5L592.55 139.5L592.55 140.5ZM604.75 140.5L610.85 140.5L610.85 139.5L604.75 139.5L604.75 140.5ZM616.95 140.5L623.05 140.5L623.05 139.5L616.95 139.5L616.95 140.5ZM629.15 140.5L635.25 140.5L635.25 139.5L629.15 139.5L629.15 140.5ZM641.35 140.5L647.45 140.5L647.45 139.5L641.35 139.5L641.35 140.5ZM653.55 140.5L659.65 140.5L659.65 139.5L653.55 139.5L653.55 140.5ZM665.75 140.5L671.85 140.5L671.85 139.5L665.75 139.5L665.75 140.5ZM677.95 140.5L681 140.5L681 139.5L677.95 139.5L677.95 140.5Z" fill="white"/>
<path d="M498 212.667C499.473 212.667 500.667 211.473 500.667 210C500.667 208.527 499.473 207.333 498 207.333C496.527 207.333 495.333 208.527 495.333 210C495.333 211.473 496.527 212.667 498 212.667ZM498 210.5L501.05 210.5L501.05 209.5L498 209.5L498 210.5ZM507.15 210.5L513.25 210.5L513.25 209.5L507.15 209.5L507.15 210.5ZM519.35 210.5L525.45 210.5L525.45 209.5L519.35 209.5L519.35 210.5ZM531.55 210.5L537.65 210.5L537.65 209.5L531.55 209.5L531.55 210.5ZM543.75 210.5L549.85 210.5L549.85 209.5L543.75 209.5L543.75 210.5ZM555.95 210.5L562.05 210.5L562.05 209.5L555.95 209.5L555.95 210.5ZM568.15 210.5L574.25 210.5L574.25 209.5L568.15 209.5L568.15 210.5ZM580.35 210.5L586.45 210.5L586.45 209.5L580.35 209.5L580.35 210.5ZM592.55 210.5L598.65 210.5L598.65 209.5L592.55 209.5L592.55 210.5ZM604.75 210.5L610.85 210.5L610.85 209.5L604.75 209.5L604.75 210.5ZM616.95 210.5L623.05 210.5L623.05 209.5L616.95 209.5L616.95 210.5ZM629.15 210.5L635.25 210.5L635.25 209.5L629.15 209.5L629.15 210.5ZM641.35 210.5L647.45 210.5L647.45 209.5L641.35 209.5L641.35 210.5ZM653.55 210.5L659.65 210.5L659.65 209.5L653.55 209.5L653.55 210.5ZM665.75 210.5L671.85 210.5L671.85 209.5L665.75 209.5L665.75 210.5ZM677.95 210.5L681 210.5L681 209.5L677.95 209.5L677.95 210.5Z" fill="white"/>
<path d="M141 413L141 98" stroke="white" stroke-dasharray="6 6"/>
<path d="M498 283.667C499.473 283.667 500.667 282.473 500.667 281C500.667 279.527 499.473 278.333 498 278.333C496.527 278.333 495.333 279.527 495.333 281C495.333 282.473 496.527 283.667 498 283.667ZM498 281.5L501.05 281.5L501.05 280.5L498 280.5L498 281.5ZM507.15 281.5L513.25 281.5L513.25 280.5L507.15 280.5L507.15 281.5ZM519.35 281.5L525.45 281.5L525.45 280.5L519.35 280.5L519.35 281.5ZM531.55 281.5L537.65 281.5L537.65 280.5L531.55 280.5L531.55 281.5ZM543.75 281.5L549.85 281.5L549.85 280.5L543.75 280.5L543.75 281.5ZM555.95 281.5L562.05 281.5L562.05 280.5L555.95 280.5L555.95 281.5ZM568.15 281.5L574.25 281.5L574.25 280.5L568.15 280.5L568.15 281.5ZM580.35 281.5L586.45 281.5L586.45 280.5L580.35 280.5L580.35 281.5ZM592.55 281.5L598.65 281.5L598.65 280.5L592.55 280.5L592.55 281.5ZM604.75 281.5L610.85 281.5L610.85 280.5L604.75 280.5L604.75 281.5ZM616.95 281.5L623.05 281.5L623.05 280.5L616.95 280.5L616.95 281.5ZM629.15 281.5L635.25 281.5L635.25 280.5L629.15 280.5L629.15 281.5ZM641.35 281.5L647.45 281.5L647.45 280.5L641.35 280.5L641.35 281.5ZM653.55 281.5L659.65 281.5L659.65 280.5L653.55 280.5L653.55 281.5ZM665.75 281.5L671.85 281.5L671.85 280.5L665.75 280.5L665.75 281.5ZM677.95 281.5L681 281.5L681 280.5L677.95 280.5L677.95 281.5Z" fill="white"/>
<path d="M498 351.667C499.473 351.667 500.667 350.473 500.667 349C500.667 347.527 499.473 346.333 498 346.333C496.527 346.333 495.333 347.527 495.333 349C495.333 350.473 496.527 351.667 498 351.667ZM498 349.5L501.05 349.5L501.05 348.5L498 348.5L498 349.5ZM507.15 349.5L513.25 349.5L513.25 348.5L507.15 348.5L507.15 349.5ZM519.35 349.5L525.45 349.5L525.45 348.5L519.35 348.5L519.35 349.5ZM531.55 349.5L537.65 349.5L537.65 348.5L531.55 348.5L531.55 349.5ZM543.75 349.5L549.85 349.5L549.85 348.5L543.75 348.5L543.75 349.5ZM555.95 349.5L562.05 349.5L562.05 348.5L555.95 348.5L555.95 349.5ZM568.15 349.5L574.25 349.5L574.25 348.5L568.15 348.5L568.15 349.5ZM580.35 349.5L586.45 349.5L586.45 348.5L580.35 348.5L580.35 349.5ZM592.55 349.5L598.65 349.5L598.65 348.5L592.55 348.5L592.55 349.5ZM604.75 349.5L610.85 349.5L610.85 348.5L604.75 348.5L604.75 349.5ZM616.95 349.5L623.05 349.5L623.05 348.5L616.95 348.5L616.95 349.5ZM629.15 349.5L635.25 349.5L635.25 348.5L629.15 348.5L629.15 349.5ZM641.35 349.5L647.45 349.5L647.45 348.5L641.35 348.5L641.35 349.5ZM653.55 349.5L659.65 349.5L659.65 348.5L653.55 348.5L653.55 349.5ZM665.75 349.5L671.85 349.5L671.85 348.5L665.75 348.5L665.75 349.5ZM677.95 349.5L681 349.5L681 348.5L677.95 348.5L677.95 349.5Z" fill="white"/>
<path d="M127.5 404.5L141 418L154.5 404.5" stroke="white"/>
</svg>
