<svg width="1035" height="328" viewBox="0 0 1035 328" fill="none" xmlns="http://www.w3.org/2000/svg">
<rect x="0.5" y="0.5" width="1034" height="327" fill="#131313"/>
<rect x="0.5" y="0.5" width="1034" height="327" stroke="white"/>
<g clip-path="url(#clip0_11375_3918)">
<g filter="url(#filter0_d_11375_3918)">
<path d="M481.694 221.324L481.693 235.935L354.451 295.737L227.209 235.935L227.209 221.324L354.451 176.312L481.694 221.324Z" fill="#131313" stroke="white" stroke-width="0.762214"/>
<path d="M354.45 161.475L481.455 221.165L354.45 280.856L227.445 221.165L354.45 161.475Z" fill="url(#paint0_linear_11375_3918)" stroke="white" stroke-width="0.762214"/>
<path opacity="0.78" fill-rule="evenodd" clip-rule="evenodd" d="M396.914 260.959L376.114 251.184L355.313 260.96L376.113 270.736L396.914 260.959ZM355.315 241.098L376.114 250.874L396.914 241.098L376.114 231.323L355.315 241.098ZM354.985 241.254L375.785 251.029L354.984 260.805L334.184 251.03L354.985 241.254ZM354.985 240.943L334.185 231.168L354.984 221.392L375.785 231.168L354.985 240.943ZM354.656 241.098L333.855 231.322L313.053 241.099L333.854 250.875L354.656 241.098ZM313.056 221.238L333.855 231.013L354.654 221.237L333.856 211.462L313.056 221.238ZM312.727 221.392L333.525 231.168L312.724 240.944L291.925 231.169L312.727 221.392ZM312.727 221.083L291.926 211.306L312.725 201.531L333.527 211.307L312.727 221.083ZM312.397 221.238L291.596 211.461L270.795 221.238L291.596 231.014L312.397 221.238ZM270.797 201.376L291.596 211.152L312.395 201.376L291.596 191.601L270.797 201.376ZM270.467 201.531L291.267 211.306L270.465 221.083L249.665 211.307L270.467 201.531ZM270.467 201.221L269.928 200.968L269.598 201.123L270.137 201.376L249.336 211.152L248.799 210.9L248.469 211.055L249.006 211.307L228.32 221.03L228.65 221.184L249.336 211.462L270.136 221.238L249.449 230.96L249.779 231.115L270.465 221.392L291.267 231.169L270.578 240.892L270.908 241.047L291.596 231.324L312.394 241.099L291.708 250.821L292.037 250.976L312.724 241.254L333.524 251.03L312.837 260.753L313.166 260.908L333.854 251.185L354.654 260.96L333.966 270.683L334.296 270.838L354.984 261.115L375.783 270.891L355.097 280.613L355.426 280.768L460.967 231.166L461.194 231.273L461.524 231.117L461.296 231.01L481.65 221.444L481.32 221.29L460.967 230.855L440.167 221.08L460.519 211.515L460.189 211.36L439.837 220.925L419.038 211.15L439.39 201.584L439.06 201.43L418.708 210.995L397.907 201.218L418.261 191.653L417.931 191.498L397.578 201.064L376.779 191.288L397.131 181.724L396.801 181.568L376.449 191.134L355.649 181.358L376.002 171.792L375.672 171.637L355.319 181.202L334.52 171.427L354.873 161.861L354.543 161.707L334.19 171.272L334.019 171.192L333.689 171.347L333.86 171.427L312.73 181.358L312.19 181.105L311.861 181.26L312.4 181.513L291.596 191.29L291.058 191.038L290.729 191.193L291.267 191.446L270.467 201.221ZM291.926 191.446L312.725 201.221L333.53 191.443L312.73 181.668L291.926 191.446ZM313.059 181.513L333.859 191.288L354.989 181.358L334.19 171.582L313.059 181.513ZM333.856 211.152L313.055 201.376L333.859 191.599L354.66 201.375L333.856 211.152ZM354.99 201.22L334.188 191.443L355.319 181.513L376.121 191.288L354.99 201.22ZM334.186 211.307L354.984 221.082L375.788 211.304L354.99 201.529L334.186 211.307ZM355.32 201.375L376.117 211.15L397.248 201.218L376.449 191.444L355.32 201.375ZM376.114 231.013L355.313 221.237L376.117 211.459L396.918 221.236L376.114 231.013ZM397.248 221.081L376.447 211.304L397.578 201.373L418.378 211.15L397.248 221.081ZM376.444 231.168L397.244 240.943L418.048 231.166L397.248 221.39L376.444 231.168ZM397.578 221.236L418.378 231.011L439.508 221.08L418.708 211.304L397.578 221.236ZM397.244 260.805L376.444 251.029L397.244 241.254L418.043 251.029L397.244 260.805ZM418.373 250.874L397.574 241.098L418.378 231.321L439.177 241.096L418.373 250.874ZM439.507 240.941L418.707 231.166L439.837 221.235L460.637 231.01L439.507 240.941ZM227.34 220.985L354.846 280.911L355.175 280.756L227.669 220.83L227.34 220.985ZM481.626 221.325L354.121 161.399L354.451 161.244L481.956 221.17L481.626 221.325Z" fill="url(#paint1_radial_11375_3918)" fill-opacity="0.3"/>
<path d="M481.694 178.521L481.693 193.133L354.451 252.935L227.209 193.133L227.209 178.521L354.451 133.51L481.694 178.521Z" fill="#131313" stroke="white" stroke-width="0.762214"/>
<path d="M354.45 118.672L481.455 178.363L354.45 238.053L227.445 178.363L354.45 118.672Z" fill="url(#paint2_linear_11375_3918)" stroke="white" stroke-width="0.762214"/>
<path opacity="0.78" fill-rule="evenodd" clip-rule="evenodd" d="M396.914 218.454L376.115 208.678L355.313 218.455L376.113 228.23L396.914 218.454ZM355.315 198.593L376.115 208.368L396.914 198.593L376.115 188.817L355.315 198.593ZM354.985 198.748L375.785 208.523L354.984 218.3L334.184 208.524L354.985 198.748ZM354.985 198.438L334.185 188.662L354.985 178.886L375.785 188.662L354.985 198.438ZM354.656 198.593L333.855 188.816L313.053 198.593L333.854 208.369L354.656 198.593ZM313.057 178.732L333.855 188.507L354.655 178.731L333.856 168.957L313.057 178.732ZM312.727 178.887L333.525 188.662L312.724 198.438L291.926 188.663L312.727 178.887ZM312.727 178.577L291.926 168.8L312.725 159.025L333.527 168.801L312.727 178.577ZM312.398 178.732L291.596 168.955L270.795 178.732L291.596 188.508L312.398 178.732ZM270.797 158.87L291.596 168.646L312.395 158.87L291.596 149.095L270.797 158.87ZM270.467 159.025L291.267 168.8L270.465 178.577L249.665 168.802L270.467 159.025ZM270.467 158.715L269.928 158.462L269.598 158.617L270.137 158.87L249.336 168.647L248.799 168.394L248.469 168.549L249.006 168.802L228.32 178.524L228.65 178.678L249.336 168.957L270.135 178.732L249.449 188.454L249.779 188.609L270.465 178.887L291.267 188.663L270.578 198.386L270.908 198.541L291.596 188.818L312.394 198.593L291.708 208.315L292.037 208.47L312.724 198.748L333.524 208.524L312.837 218.247L313.166 218.402L333.854 208.679L354.654 218.455L333.966 228.178L334.296 228.333L354.984 218.61L375.783 228.385L355.097 238.107L355.426 238.262L460.967 188.66L461.194 188.767L461.524 188.612L461.296 188.505L481.65 178.939L481.32 178.784L460.967 188.35L440.167 178.574L460.519 169.009L460.189 168.854L439.838 178.42L419.038 168.644L439.39 159.079L439.06 158.924L418.708 168.489L397.907 158.713L418.261 149.147L417.931 148.993L397.578 158.558L376.78 148.783L397.131 139.218L396.801 139.063L376.45 148.628L355.649 138.852L376.002 129.286L375.672 129.131L355.319 138.697L334.52 128.921L354.873 119.356L354.543 119.201L334.19 128.767L334.019 128.686L333.689 128.841L333.86 128.921L312.73 138.853L312.19 138.599L311.861 138.754L312.4 139.007L291.596 148.785L291.058 148.532L290.729 148.687L291.267 148.94L270.467 158.715ZM291.926 148.94L312.725 158.715L333.529 148.937L312.73 139.162L291.926 148.94ZM313.059 139.007L333.859 148.783L354.989 138.852L334.19 129.076L313.059 139.007ZM333.856 168.646L313.055 158.87L333.859 149.093L354.66 158.869L333.856 168.646ZM354.99 158.714L334.188 148.937L355.319 139.007L376.121 148.783L354.99 158.714ZM334.186 168.801L354.985 178.576L375.789 168.799L354.99 159.024L334.186 168.801ZM355.32 158.869L376.118 168.644L397.248 158.713L376.45 148.938L355.32 158.869ZM376.115 188.508L355.313 178.731L376.118 168.953L396.919 178.73L376.115 188.508ZM397.249 178.575L376.447 168.799L397.578 158.868L418.378 168.644L397.249 178.575ZM376.445 188.662L397.244 198.438L418.048 188.66L397.249 178.885L376.445 188.662ZM397.578 178.73L418.378 188.506L439.508 178.574L418.708 168.799L397.578 178.73ZM397.244 218.299L376.445 208.523L397.244 198.748L418.043 208.523L397.244 218.299ZM418.373 208.368L397.574 198.593L418.378 188.815L439.177 198.59L418.373 208.368ZM439.507 198.436L418.707 188.66L439.838 178.729L460.637 188.505L439.507 198.436ZM227.34 178.479L354.846 238.405L355.175 238.25L227.669 178.324L227.34 178.479ZM481.626 178.819L354.121 118.893L354.451 118.738L481.956 178.664L481.626 178.819Z" fill="url(#paint3_radial_11375_3918)" fill-opacity="0.5"/>
<path d="M481.694 134.277L481.693 148.889L354.451 208.69L227.209 148.889L227.209 134.277L354.451 89.2656L481.694 134.277Z" fill="#131313" stroke="white" stroke-width="0.762214"/>
<path d="M354.45 74.4277L481.455 134.119L354.45 193.809L227.445 134.119L354.45 74.4277Z" fill="url(#paint4_linear_11375_3918)" stroke="white" stroke-width="0.762214"/>
<path opacity="0.78" fill-rule="evenodd" clip-rule="evenodd" d="M396.914 174.043L376.114 164.268L355.313 174.045L376.113 183.82L396.914 174.043ZM355.315 154.183L376.114 163.958L396.914 154.183L376.114 144.407L355.315 154.183ZM354.985 154.338L375.785 164.113L354.984 173.889L334.184 164.114L354.985 154.338ZM354.985 154.027L334.185 144.252L354.984 134.476L375.785 144.252L354.985 154.027ZM354.656 154.183L333.855 144.406L313.053 154.183L333.854 163.959L354.656 154.183ZM313.056 134.322L333.855 144.097L354.654 134.321L333.856 124.546L313.056 134.322ZM312.727 134.476L333.525 144.252L312.724 154.028L291.925 144.253L312.727 134.476ZM312.727 134.167L291.926 124.39L312.725 114.615L333.527 124.391L312.727 134.167ZM312.397 134.322L291.596 124.545L270.795 134.322L291.595 144.098L312.397 134.322ZM270.797 114.46L291.596 124.236L312.395 114.46L291.596 104.685L270.797 114.46ZM270.467 114.615L291.267 124.39L270.465 134.167L249.665 124.392L270.467 114.615ZM270.467 114.305L269.928 114.052L269.598 114.207L270.137 114.46L249.336 124.237L248.799 123.984L248.469 124.139L249.006 124.392L228.32 134.113L228.65 134.268L249.336 124.546L270.135 134.322L249.449 144.044L249.779 144.199L270.465 134.477L291.267 144.253L270.578 153.976L270.908 154.131L291.595 144.408L312.394 154.183L291.708 163.905L292.037 164.06L312.724 154.338L333.524 164.114L312.837 173.837L313.166 173.992L333.854 164.269L354.654 174.045L333.966 183.767L334.296 183.922L354.983 174.199L375.783 183.975L355.097 193.697L355.426 193.852L460.967 144.25L461.194 144.357L461.524 144.202L461.296 144.095L481.65 134.529L481.32 134.374L460.967 143.939L440.167 134.164L460.519 124.599L460.189 124.444L439.837 134.009L419.038 124.234L439.39 114.668L439.06 114.514L418.708 124.079L397.907 114.302L418.261 104.737L417.931 104.582L397.578 114.148L376.779 104.373L397.131 94.8079L396.801 94.6531L376.449 104.218L355.649 94.4418L376.002 84.876L375.672 84.7212L355.319 94.287L334.52 84.5112L354.873 74.9454L354.543 74.7906L334.19 84.3564L334.019 84.2759L333.689 84.4307L333.86 84.5112L312.73 94.4425L312.19 94.1887L311.861 94.3435L312.4 94.5973L291.596 104.375L291.058 104.122L290.729 104.277L291.267 104.53L270.467 114.305ZM291.926 104.53L312.725 114.305L333.529 104.527L312.73 94.7521L291.926 104.53ZM313.059 94.5973L333.859 104.372L354.989 94.4418L334.19 84.666L313.059 94.5973ZM333.856 124.236L313.055 114.46L333.859 104.683L354.66 114.458L333.856 124.236ZM354.99 114.304L334.188 104.527L355.319 94.5966L376.121 104.373L354.99 114.304ZM334.186 124.391L354.984 134.166L375.788 124.388L354.99 114.614L334.186 124.391ZM355.32 114.458L376.117 124.234L397.248 114.302L376.449 104.528L355.32 114.458ZM376.114 144.097L355.313 134.321L376.117 124.543L396.918 134.32L376.114 144.097ZM397.248 134.165L376.447 124.388L397.578 114.457L418.378 124.234L397.248 134.165ZM376.444 144.252L397.244 154.027L418.048 144.25L397.248 134.474L376.444 144.252ZM397.578 134.32L418.378 144.095L439.508 134.164L418.708 124.388L397.578 134.32ZM397.244 173.889L376.444 164.113L397.244 154.338L418.043 164.113L397.244 173.889ZM418.373 163.958L397.574 154.183L418.378 144.405L439.177 154.18L418.373 163.958ZM439.507 154.025L418.707 144.25L439.837 134.319L460.637 144.095L439.507 154.025ZM227.34 134.069L354.846 193.995L355.175 193.84L227.669 133.914L227.34 134.069ZM481.626 134.409L354.121 74.4829L354.451 74.3281L481.956 134.254L481.626 134.409Z" fill="url(#paint5_radial_11375_3918)" fill-opacity="0.7"/>
<path d="M481.694 92.3556L481.693 106.966L354.451 166.769L227.209 106.966L227.209 92.355L354.451 47.3438L481.694 92.3556Z" fill="#131313" stroke="white" stroke-width="0.762214"/>
<path d="M354.45 32.5059L481.455 92.1961L354.45 151.887L227.445 92.1967L354.45 32.5059Z" fill="url(#paint6_linear_11375_3918)" stroke="white" stroke-width="0.762214"/>
<path opacity="0.78" fill-rule="evenodd" clip-rule="evenodd" d="M396.914 132.173L376.115 122.397L355.313 132.173L376.112 141.949L396.914 132.173ZM355.315 112.311L376.115 122.087L396.914 112.311L376.115 102.536L355.315 112.311ZM354.986 112.466L375.785 122.242L354.983 132.018L334.184 122.243L354.986 112.466ZM354.986 112.157L334.184 102.381L354.984 92.6049L375.785 102.381L354.986 112.157ZM354.656 112.311L333.854 102.536L313.053 112.312L333.854 122.088L354.656 112.311ZM313.057 92.4507L333.854 102.225L354.654 92.4501L333.856 82.6749L313.057 92.4507ZM312.727 92.6055L333.525 102.381L312.724 112.157L291.925 102.382L312.727 92.6055ZM312.727 92.2959L291.926 82.5195L312.725 72.7437L333.526 82.5201L312.727 92.2959ZM312.397 92.4507L291.596 82.6743L270.795 92.4507L291.596 102.227L312.397 92.4507ZM270.797 72.5889L291.596 82.3647L312.396 72.5889L291.596 62.8135L270.797 72.5889ZM270.467 72.7437L291.267 82.5195L270.465 92.2959L249.665 82.5201L270.467 72.7437ZM270.467 72.4341L269.928 72.181L269.598 72.3358L270.137 72.5889L249.336 82.3653L248.799 82.1128L248.469 82.2683L249.006 82.5201L228.447 92.183L227.91 91.9299L227.1 92.3105L354.605 152.237L355.288 151.916L355.426 151.981L460.966 102.379L461.195 102.485L461.524 102.331L461.296 102.223L481.649 92.6576L481.32 92.5028L460.966 102.069L440.167 92.2934L460.519 82.7282L460.189 82.5734L439.837 92.138L419.038 82.3628L439.389 72.7976L439.06 72.6428L418.708 82.208L397.907 72.4316L418.26 62.8658L417.931 62.711L397.578 72.2768L376.779 62.5019L397.131 52.9367L396.802 52.7818L376.45 62.3469L355.649 52.5707L376.002 43.0049L375.673 42.8499L355.319 52.4158L334.519 42.6402L354.873 33.0743L354.543 32.9195L334.189 42.4853L334.019 42.4049L333.689 42.5598L333.86 42.6402L312.73 52.5712L312.191 52.3179L311.861 52.4728L312.4 52.7261L291.596 62.5037L291.059 62.251L290.729 62.4059L291.267 62.6586L270.467 72.4341ZM291.925 62.6586L312.725 72.4341L333.529 62.6566L312.73 52.881L291.925 62.6586ZM313.059 52.7261L333.859 62.5017L354.99 52.5707L334.189 42.7951L313.059 52.7261ZM228.777 92.3378L249.577 102.113L270.135 92.4507L249.336 82.6756L228.777 92.3378ZM333.856 82.3653L313.055 72.5889L333.859 62.8114L354.66 72.5876L333.856 82.3653ZM354.99 72.4328L334.189 62.6566L355.319 52.7256L376.12 62.5019L354.99 72.4328ZM270.707 112.044L249.906 102.268L270.465 92.6055L291.266 102.382L270.707 112.044ZM334.186 82.5201L354.984 92.2953L375.788 82.5176L354.99 72.7424L334.186 82.5201ZM355.319 72.5876L376.118 82.3628L397.248 72.4316L376.45 62.6567L355.319 72.5876ZM271.037 112.2L291.835 121.974L312.394 112.312L291.596 102.537L271.037 112.2ZM376.115 102.226L355.314 92.4501L376.118 82.6724L396.919 92.4488L376.115 102.226ZM397.248 92.2934L376.447 82.5176L397.578 72.5864L418.379 82.3628L397.248 92.2934ZM312.965 131.905L292.165 122.129L312.724 112.467L333.525 122.243L312.965 131.905ZM376.444 102.381L397.243 112.157L418.047 102.379L397.248 92.6036L376.444 102.381ZM397.578 92.4488L418.377 102.224L439.508 92.2934L418.708 82.5176L397.578 92.4488ZM313.295 132.06L334.095 141.836L354.654 132.173L333.854 122.398L313.295 132.06ZM397.243 132.018L376.444 122.242L397.243 112.467L418.044 122.242L397.243 132.018ZM418.373 122.087L397.573 112.311L418.377 102.534L439.177 112.309L418.373 122.087ZM439.507 112.155L418.707 102.379L439.837 92.4482L460.637 102.223L439.507 112.155ZM355.224 151.766L334.425 141.991L354.983 132.329L375.783 142.104L355.224 151.766ZM481.627 92.5377L354.121 32.612L354.451 32.457L481.956 92.3829L481.627 92.5377Z" fill="url(#paint7_radial_11375_3918)"/>
</g>
</g>
<rect x="645.4" y="76.4" width="25.2" height="26.2" rx="12.6" fill="#131313"/>
<rect x="645.4" y="76.4" width="25.2" height="26.2" rx="12.6" fill="url(#paint8_linear_11375_3918)"/>
<rect x="645.4" y="76.4" width="25.2" height="26.2" rx="12.6" stroke="white" stroke-width="0.8"/>
<path d="M657.992 95V84.68H657.768L655.88 88.648H654.52L656.808 83.8H659.304V95H657.992ZM654.024 95V93.8H662.296V95H654.024Z" fill="white"/>
<path d="M683.768 95V94.072H685.368V84.728H683.768V83.8H688.024C689.485 83.8 690.621 84.1733 691.432 84.92C692.253 85.656 692.664 86.808 692.664 88.376V90.44C692.664 92.008 692.253 93.16 691.432 93.896C690.621 94.632 689.485 95 688.024 95H683.768ZM686.392 94.072H688.024C689.197 94.072 690.093 93.7893 690.712 93.224C691.331 92.6587 691.64 91.7467 691.64 90.488V88.328C691.64 87.0587 691.331 86.1467 690.712 85.592C690.093 85.0267 689.197 84.744 688.024 84.744H686.392V94.072ZM697.386 95.224C696.842 95.224 696.346 95.1333 695.898 94.952C695.46 94.76 695.114 94.4827 694.858 94.12C694.602 93.7573 694.474 93.32 694.474 92.808C694.474 92.2853 694.602 91.8533 694.858 91.512C695.114 91.1707 695.46 90.9147 695.898 90.744C696.335 90.5733 696.82 90.488 697.354 90.488H700.202V89.864C700.202 89.2347 700.02 88.744 699.658 88.392C699.295 88.04 698.767 87.864 698.074 87.864C697.391 87.864 696.847 88.0347 696.442 88.376C696.047 88.7067 695.78 89.1547 695.642 89.72L694.714 89.448C694.842 88.9893 695.044 88.5787 695.322 88.216C695.599 87.8427 695.967 87.5493 696.426 87.336C696.884 87.112 697.434 87 698.074 87C699.055 87 699.812 87.256 700.346 87.768C700.89 88.28 701.162 88.9947 701.162 89.912V93.688C701.162 94.008 701.311 94.168 701.61 94.168H702.362V95H701.338C701.007 95 700.746 94.904 700.554 94.712C700.362 94.5093 700.266 94.2373 700.266 93.896V93.784H700.106C699.967 94.0187 699.786 94.248 699.562 94.472C699.348 94.696 699.066 94.8773 698.714 95.016C698.362 95.1547 697.919 95.224 697.386 95.224ZM697.45 94.36C698.271 94.36 698.932 94.1147 699.434 93.624C699.946 93.1227 700.202 92.4187 700.202 91.512V91.32H697.37C696.815 91.32 696.351 91.4427 695.978 91.688C695.615 91.9227 695.434 92.2907 695.434 92.792C695.434 93.2933 695.62 93.6827 695.994 93.96C696.378 94.2267 696.863 94.36 697.45 94.36ZM706.521 95C706.105 95 705.79 94.8933 705.577 94.68C705.374 94.4667 705.273 94.168 705.273 93.784V88.088H702.777V87.224H705.273V84.312H706.233V87.224H708.953V88.088H706.233V93.656C706.233 93.976 706.393 94.136 706.713 94.136H708.537V95H706.521ZM713.417 95.224C712.873 95.224 712.377 95.1333 711.929 94.952C711.492 94.76 711.145 94.4827 710.889 94.12C710.633 93.7573 710.505 93.32 710.505 92.808C710.505 92.2853 710.633 91.8533 710.889 91.512C711.145 91.1707 711.492 90.9147 711.929 90.744C712.366 90.5733 712.852 90.488 713.385 90.488H716.233V89.864C716.233 89.2347 716.052 88.744 715.689 88.392C715.326 88.04 714.798 87.864 714.105 87.864C713.422 87.864 712.878 88.0347 712.473 88.376C712.078 88.7067 711.812 89.1547 711.673 89.72L710.745 89.448C710.873 88.9893 711.076 88.5787 711.353 88.216C711.63 87.8427 711.998 87.5493 712.457 87.336C712.916 87.112 713.465 87 714.105 87C715.086 87 715.844 87.256 716.377 87.768C716.921 88.28 717.193 88.9947 717.193 89.912V93.688C717.193 94.008 717.342 94.168 717.641 94.168H718.393V95H717.369C717.038 95 716.777 94.904 716.585 94.712C716.393 94.5093 716.297 94.2373 716.297 93.896V93.784H716.137C715.998 94.0187 715.817 94.248 715.593 94.472C715.38 94.696 715.097 94.8773 714.745 95.016C714.393 95.1547 713.95 95.224 713.417 95.224ZM713.481 94.36C714.302 94.36 714.964 94.1147 715.465 93.624C715.977 93.1227 716.233 92.4187 716.233 91.512V91.32H713.401C712.846 91.32 712.382 91.4427 712.009 91.688C711.646 91.9227 711.465 92.2907 711.465 92.792C711.465 93.2933 711.652 93.6827 712.025 93.96C712.409 94.2267 712.894 94.36 713.481 94.36ZM724.314 95V83.8H728.458C729.119 83.8 729.711 83.928 730.234 84.184C730.767 84.4293 731.188 84.7867 731.498 85.256C731.807 85.7253 731.962 86.296 731.962 86.968V87.16C731.962 87.832 731.802 88.408 731.482 88.888C731.172 89.3573 730.751 89.7147 730.218 89.96C729.695 90.2053 729.108 90.328 728.458 90.328H725.338V95H724.314ZM725.338 89.4H728.346C729.146 89.4 729.775 89.2027 730.234 88.808C730.703 88.4133 730.938 87.8587 730.938 87.144V86.984C730.938 86.2587 730.708 85.704 730.25 85.32C729.802 84.9253 729.167 84.728 728.346 84.728H725.338V89.4ZM733.939 95V87.224H734.867V88.2H735.059C735.209 87.848 735.427 87.592 735.715 87.432C736.014 87.272 736.425 87.192 736.947 87.192H737.859V88.088H736.835C736.249 88.088 735.779 88.2533 735.427 88.584C735.075 88.9147 734.899 89.432 734.899 90.136V95H733.939ZM743.116 95.224C742.327 95.224 741.634 95.0587 741.036 94.728C740.45 94.3867 739.991 93.9173 739.66 93.32C739.34 92.712 739.18 92.008 739.18 91.208V91.016C739.18 90.216 739.34 89.5173 739.66 88.92C739.991 88.312 740.45 87.8427 741.036 87.512C741.634 87.1707 742.327 87 743.116 87C743.906 87 744.594 87.1707 745.18 87.512C745.778 87.8427 746.236 88.312 746.556 88.92C746.887 89.5173 747.052 90.216 747.052 91.016V91.208C747.052 92.008 746.887 92.712 746.556 93.32C746.236 93.9173 745.778 94.3867 745.18 94.728C744.594 95.0587 743.906 95.224 743.116 95.224ZM743.116 94.36C744.034 94.36 744.759 94.072 745.292 93.496C745.826 92.9093 746.092 92.136 746.092 91.176V91.048C746.092 90.088 745.826 89.32 745.292 88.744C744.759 88.1573 744.034 87.864 743.116 87.864C742.21 87.864 741.484 88.1573 740.94 88.744C740.407 89.32 740.14 90.088 740.14 91.048V91.176C740.14 92.136 740.407 92.9093 740.94 93.496C741.484 94.072 742.21 94.36 743.116 94.36ZM751.223 95L748.311 87.224H749.335L751.895 94.264H752.087L754.647 87.224H755.671L752.759 95H751.223ZM757.689 95V87.224H758.649V95H757.689ZM758.169 85.88C757.935 85.88 757.737 85.8 757.577 85.64C757.417 85.48 757.337 85.2827 757.337 85.048C757.337 84.8027 757.417 84.6053 757.577 84.456C757.737 84.296 757.935 84.216 758.169 84.216C758.415 84.216 758.612 84.296 758.761 84.456C758.921 84.6053 759.001 84.8027 759.001 85.048C759.001 85.2827 758.921 85.48 758.761 85.64C758.612 85.8 758.415 85.88 758.169 85.88ZM764.831 95.224C764.137 95.224 763.508 95.064 762.943 94.744C762.377 94.4133 761.924 93.9493 761.583 93.352C761.252 92.744 761.087 92.0293 761.087 91.208V91.016C761.087 90.1947 761.252 89.4853 761.583 88.888C761.913 88.28 762.361 87.816 762.927 87.496C763.503 87.1653 764.137 87 764.831 87C765.407 87 765.892 87.08 766.287 87.24C766.681 87.3893 767.001 87.5867 767.247 87.832C767.503 88.0667 767.7 88.3173 767.839 88.584H768.031V83.8H768.991V95H768.062V93.576H767.871C767.647 94.0027 767.295 94.3867 766.815 94.728C766.345 95.0587 765.684 95.224 764.831 95.224ZM765.055 94.36C765.94 94.36 766.655 94.0773 767.199 93.512C767.753 92.9467 768.031 92.168 768.031 91.176V91.048C768.031 90.056 767.753 89.2773 767.199 88.712C766.655 88.1467 765.94 87.864 765.055 87.864C764.18 87.864 763.465 88.1467 762.911 88.712C762.356 89.2773 762.079 90.056 762.079 91.048V91.176C762.079 92.168 762.356 92.9467 762.911 93.512C763.465 94.0773 764.18 94.36 765.055 94.36ZM775.398 95.224C774.598 95.224 773.9 95.0587 773.302 94.728C772.716 94.3867 772.257 93.912 771.926 93.304C771.596 92.696 771.43 91.9973 771.43 91.208V91.016C771.43 90.216 771.596 89.5173 771.926 88.92C772.257 88.312 772.71 87.8427 773.286 87.512C773.873 87.1707 774.54 87 775.286 87C776.012 87 776.652 87.1547 777.206 87.464C777.772 87.7627 778.214 88.2 778.534 88.776C778.854 89.3413 779.014 90.0187 779.014 90.808V91.32H772.39C772.422 92.2907 772.716 93.0427 773.27 93.576C773.836 94.0987 774.545 94.36 775.398 94.36C776.124 94.36 776.684 94.1947 777.078 93.864C777.484 93.5333 777.793 93.128 778.006 92.648L778.87 93.032C778.71 93.384 778.486 93.7307 778.198 94.072C777.921 94.4027 777.558 94.68 777.11 94.904C776.662 95.1173 776.092 95.224 775.398 95.224ZM772.406 90.488H778.038C777.996 89.6453 777.724 89 777.222 88.552C776.721 88.0933 776.076 87.864 775.286 87.864C774.508 87.864 773.862 88.0933 773.35 88.552C772.838 89 772.524 89.6453 772.406 90.488ZM781.377 95V87.224H782.305V88.2H782.497C782.646 87.848 782.865 87.592 783.153 87.432C783.451 87.272 783.862 87.192 784.385 87.192H785.297V88.088H784.273C783.686 88.088 783.217 88.2533 782.865 88.584C782.513 88.9147 782.337 89.432 782.337 90.136V95H781.377Z" fill="#D9D9D9"/>
<path d="M461 93.6667C462.473 93.6667 463.667 92.4728 463.667 91C463.667 89.5272 462.473 88.3333 461 88.3333C459.527 88.3333 458.333 89.5272 458.333 91C458.333 92.4728 459.527 93.6667 461 93.6667ZM461 91.5L464.077 91.5L464.077 90.5L461 90.5L461 91.5ZM470.231 91.5L476.385 91.5L476.385 90.5L470.231 90.5L470.231 91.5ZM482.538 91.5L488.692 91.5L488.692 90.5L482.538 90.5L482.538 91.5ZM494.846 91.5L501 91.5L501 90.5L494.846 90.5L494.846 91.5ZM507.154 91.5L513.308 91.5L513.308 90.5L507.154 90.5L507.154 91.5ZM519.462 91.5L525.615 91.5L525.615 90.5L519.462 90.5L519.462 91.5ZM531.769 91.5L537.923 91.5L537.923 90.5L531.769 90.5L531.769 91.5ZM544.077 91.5L550.231 91.5L550.231 90.5L544.077 90.5L544.077 91.5ZM556.385 91.5L562.538 91.5L562.538 90.5L556.385 90.5L556.385 91.5ZM568.692 91.5L574.846 91.5L574.846 90.5L568.692 90.5L568.692 91.5ZM581 91.5L587.154 91.5L587.154 90.5L581 90.5L581 91.5ZM593.308 91.5L599.462 91.5L599.462 90.5L593.308 90.5L593.308 91.5ZM605.615 91.5L611.769 91.5L611.769 90.5L605.615 90.5L605.615 91.5ZM617.923 91.5L621 91.5L621 90.5L617.923 90.5L617.923 91.5Z" fill="white"/>
<rect x="645.4" y="119.4" width="25.2" height="26.2" rx="12.6" fill="#131313"/>
<rect x="645.4" y="119.4" width="25.2" height="26.2" rx="12.6" fill="url(#paint9_linear_11375_3918)"/>
<rect x="645.4" y="119.4" width="25.2" height="26.2" rx="12.6" stroke="white" stroke-width="0.8"/>
<path d="M654.008 138V136.832C654.008 136.032 654.147 135.392 654.424 134.912C654.712 134.432 655.107 134.048 655.608 133.76C656.12 133.461 656.728 133.205 657.432 132.992L658.312 132.72C658.792 132.571 659.213 132.389 659.576 132.176C659.939 131.952 660.221 131.675 660.424 131.344C660.627 131.003 660.728 130.587 660.728 130.096V130.032C660.728 129.328 660.483 128.773 659.992 128.368C659.501 127.952 658.872 127.744 658.104 127.744C657.293 127.744 656.632 127.963 656.12 128.4C655.608 128.827 655.352 129.477 655.352 130.352V130.576H654.072V130.368C654.072 129.557 654.248 128.869 654.6 128.304C654.952 127.739 655.432 127.312 656.04 127.024C656.648 126.725 657.336 126.576 658.104 126.576C658.872 126.576 659.549 126.72 660.136 127.008C660.733 127.296 661.197 127.696 661.528 128.208C661.859 128.72 662.024 129.317 662.024 130V130.144C662.024 130.869 661.88 131.472 661.592 131.952C661.304 132.421 660.904 132.805 660.392 133.104C659.891 133.403 659.299 133.659 658.616 133.872L657.752 134.144C657.208 134.315 656.755 134.496 656.392 134.688C656.04 134.869 655.773 135.104 655.592 135.392C655.411 135.68 655.32 136.069 655.32 136.56V136.832H661.928V138H654.008Z" fill="white"/>
<path d="M683.768 138V137.072H685.368V127.728H683.768V126.8H688.024C689.485 126.8 690.621 127.173 691.432 127.92C692.253 128.656 692.664 129.808 692.664 131.376V133.44C692.664 135.008 692.253 136.16 691.432 136.896C690.621 137.632 689.485 138 688.024 138H683.768ZM686.392 137.072H688.024C689.197 137.072 690.093 136.789 690.712 136.224C691.331 135.659 691.64 134.747 691.64 133.488V131.328C691.64 130.059 691.331 129.147 690.712 128.592C690.093 128.027 689.197 127.744 688.024 127.744H686.392V137.072ZM697.386 138.224C696.842 138.224 696.346 138.133 695.898 137.952C695.46 137.76 695.114 137.483 694.858 137.12C694.602 136.757 694.474 136.32 694.474 135.808C694.474 135.285 694.602 134.853 694.858 134.512C695.114 134.171 695.46 133.915 695.898 133.744C696.335 133.573 696.82 133.488 697.354 133.488H700.202V132.864C700.202 132.235 700.02 131.744 699.658 131.392C699.295 131.04 698.767 130.864 698.074 130.864C697.391 130.864 696.847 131.035 696.442 131.376C696.047 131.707 695.78 132.155 695.642 132.72L694.714 132.448C694.842 131.989 695.044 131.579 695.322 131.216C695.599 130.843 695.967 130.549 696.426 130.336C696.884 130.112 697.434 130 698.074 130C699.055 130 699.812 130.256 700.346 130.768C700.89 131.28 701.162 131.995 701.162 132.912V136.688C701.162 137.008 701.311 137.168 701.61 137.168H702.362V138H701.338C701.007 138 700.746 137.904 700.554 137.712C700.362 137.509 700.266 137.237 700.266 136.896V136.784H700.106C699.967 137.019 699.786 137.248 699.562 137.472C699.348 137.696 699.066 137.877 698.714 138.016C698.362 138.155 697.919 138.224 697.386 138.224ZM697.45 137.36C698.271 137.36 698.932 137.115 699.434 136.624C699.946 136.123 700.202 135.419 700.202 134.512V134.32H697.37C696.815 134.32 696.351 134.443 695.978 134.688C695.615 134.923 695.434 135.291 695.434 135.792C695.434 136.293 695.62 136.683 695.994 136.96C696.378 137.227 696.863 137.36 697.45 137.36ZM706.521 138C706.105 138 705.79 137.893 705.577 137.68C705.374 137.467 705.273 137.168 705.273 136.784V131.088H702.777V130.224H705.273V127.312H706.233V130.224H708.953V131.088H706.233V136.656C706.233 136.976 706.393 137.136 706.713 137.136H708.537V138H706.521ZM713.417 138.224C712.873 138.224 712.377 138.133 711.929 137.952C711.492 137.76 711.145 137.483 710.889 137.12C710.633 136.757 710.505 136.32 710.505 135.808C710.505 135.285 710.633 134.853 710.889 134.512C711.145 134.171 711.492 133.915 711.929 133.744C712.366 133.573 712.852 133.488 713.385 133.488H716.233V132.864C716.233 132.235 716.052 131.744 715.689 131.392C715.326 131.04 714.798 130.864 714.105 130.864C713.422 130.864 712.878 131.035 712.473 131.376C712.078 131.707 711.812 132.155 711.673 132.72L710.745 132.448C710.873 131.989 711.076 131.579 711.353 131.216C711.63 130.843 711.998 130.549 712.457 130.336C712.916 130.112 713.465 130 714.105 130C715.086 130 715.844 130.256 716.377 130.768C716.921 131.28 717.193 131.995 717.193 132.912V136.688C717.193 137.008 717.342 137.168 717.641 137.168H718.393V138H717.369C717.038 138 716.777 137.904 716.585 137.712C716.393 137.509 716.297 137.237 716.297 136.896V136.784H716.137C715.998 137.019 715.817 137.248 715.593 137.472C715.38 137.696 715.097 137.877 714.745 138.016C714.393 138.155 713.95 138.224 713.417 138.224ZM713.481 137.36C714.302 137.36 714.964 137.115 715.465 136.624C715.977 136.123 716.233 135.419 716.233 134.512V134.32H713.401C712.846 134.32 712.382 134.443 712.009 134.688C711.646 134.923 711.465 135.291 711.465 135.792C711.465 136.293 711.652 136.683 712.025 136.96C712.409 137.227 712.894 137.36 713.481 137.36ZM724.314 138V126.8H728.458C729.119 126.8 729.711 126.928 730.234 127.184C730.767 127.429 731.188 127.787 731.498 128.256C731.807 128.725 731.962 129.296 731.962 129.968V130.16C731.962 130.832 731.802 131.408 731.482 131.888C731.172 132.357 730.751 132.715 730.218 132.96C729.695 133.205 729.108 133.328 728.458 133.328H725.338V138H724.314ZM725.338 132.4H728.346C729.146 132.4 729.775 132.203 730.234 131.808C730.703 131.413 730.938 130.859 730.938 130.144V129.984C730.938 129.259 730.708 128.704 730.25 128.32C729.802 127.925 729.167 127.728 728.346 127.728H725.338V132.4ZM733.939 138V130.224H734.867V131.2H735.059C735.209 130.848 735.427 130.592 735.715 130.432C736.014 130.272 736.425 130.192 736.947 130.192H737.859V131.088H736.835C736.249 131.088 735.779 131.253 735.427 131.584C735.075 131.915 734.899 132.432 734.899 133.136V138H733.939ZM743.148 138.224C742.348 138.224 741.65 138.059 741.052 137.728C740.466 137.387 740.007 136.912 739.676 136.304C739.346 135.696 739.18 134.997 739.18 134.208V134.016C739.18 133.216 739.346 132.517 739.676 131.92C740.007 131.312 740.46 130.843 741.036 130.512C741.623 130.171 742.29 130 743.036 130C743.762 130 744.402 130.155 744.956 130.464C745.522 130.763 745.964 131.2 746.284 131.776C746.604 132.341 746.764 133.019 746.764 133.808V134.32H740.14C740.172 135.291 740.466 136.043 741.02 136.576C741.586 137.099 742.295 137.36 743.148 137.36C743.874 137.36 744.434 137.195 744.828 136.864C745.234 136.533 745.543 136.128 745.756 135.648L746.62 136.032C746.46 136.384 746.236 136.731 745.948 137.072C745.671 137.403 745.308 137.68 744.86 137.904C744.412 138.117 743.842 138.224 743.148 138.224ZM740.156 133.488H745.788C745.746 132.645 745.474 132 744.972 131.552C744.471 131.093 743.826 130.864 743.036 130.864C742.258 130.864 741.612 131.093 741.1 131.552C740.588 132 740.274 132.645 740.156 133.488ZM749.063 134.32V133.424H753.799V134.32H749.063ZM756.517 138V126.8H760.661C761.322 126.8 761.914 126.928 762.437 127.184C762.97 127.429 763.391 127.787 763.701 128.256C764.01 128.725 764.165 129.296 764.165 129.968V130.16C764.165 130.832 764.005 131.408 763.685 131.888C763.375 132.357 762.954 132.715 762.421 132.96C761.898 133.205 761.311 133.328 760.661 133.328H757.541V138H756.517ZM757.541 132.4H760.549C761.349 132.4 761.978 132.203 762.437 131.808C762.906 131.413 763.141 130.859 763.141 130.144V129.984C763.141 129.259 762.911 128.704 762.453 128.32C762.005 127.925 761.37 127.728 760.549 127.728H757.541V132.4ZM766.142 138V130.224H767.07V131.2H767.262C767.412 130.848 767.63 130.592 767.918 130.432C768.217 130.272 768.628 130.192 769.15 130.192H770.062V131.088H769.038C768.452 131.088 767.982 131.253 767.63 131.584C767.278 131.915 767.102 132.432 767.102 133.136V138H766.142ZM775.319 138.224C774.53 138.224 773.837 138.059 773.239 137.728C772.653 137.387 772.194 136.917 771.863 136.32C771.543 135.712 771.383 135.008 771.383 134.208V134.016C771.383 133.216 771.543 132.517 771.863 131.92C772.194 131.312 772.653 130.843 773.239 130.512C773.837 130.171 774.53 130 775.319 130C776.109 130 776.797 130.171 777.383 130.512C777.981 130.843 778.439 131.312 778.759 131.92C779.09 132.517 779.255 133.216 779.255 134.016V134.208C779.255 135.008 779.09 135.712 778.759 136.32C778.439 136.917 777.981 137.387 777.383 137.728C776.797 138.059 776.109 138.224 775.319 138.224ZM775.319 137.36C776.237 137.36 776.962 137.072 777.495 136.496C778.029 135.909 778.295 135.136 778.295 134.176V134.048C778.295 133.088 778.029 132.32 777.495 131.744C776.962 131.157 776.237 130.864 775.319 130.864C774.413 130.864 773.687 131.157 773.143 131.744C772.61 132.32 772.343 133.088 772.343 134.048V134.176C772.343 135.136 772.61 135.909 773.143 136.496C773.687 137.072 774.413 137.36 775.319 137.36ZM785.241 138.224C784.484 138.224 783.807 138.064 783.209 137.744C782.623 137.413 782.159 136.944 781.817 136.336C781.476 135.728 781.305 135.013 781.305 134.192V134.032C781.305 133.2 781.476 132.485 781.817 131.888C782.159 131.28 782.623 130.816 783.209 130.496C783.807 130.165 784.484 130 785.241 130C785.988 130 786.617 130.144 787.129 130.432C787.652 130.709 788.057 131.077 788.345 131.536C788.644 131.984 788.831 132.459 788.905 132.96L787.961 133.152C787.908 132.736 787.775 132.357 787.561 132.016C787.348 131.664 787.049 131.387 786.665 131.184C786.281 130.971 785.807 130.864 785.241 130.864C784.676 130.864 784.169 130.997 783.721 131.264C783.273 131.52 782.916 131.888 782.649 132.368C782.393 132.837 782.265 133.397 782.265 134.048V134.176C782.265 134.827 782.393 135.392 782.649 135.872C782.916 136.341 783.273 136.709 783.721 136.976C784.169 137.232 784.676 137.36 785.241 137.36C786.095 137.36 786.745 137.141 787.193 136.704C787.641 136.256 787.919 135.712 788.025 135.072L788.969 135.264C788.873 135.765 788.671 136.245 788.361 136.704C788.063 137.152 787.652 137.52 787.129 137.808C786.617 138.085 785.988 138.224 785.241 138.224ZM794.914 138.224C794.114 138.224 793.415 138.059 792.818 137.728C792.231 137.387 791.773 136.912 791.442 136.304C791.111 135.696 790.946 134.997 790.946 134.208V134.016C790.946 133.216 791.111 132.517 791.442 131.92C791.773 131.312 792.226 130.843 792.802 130.512C793.389 130.171 794.055 130 794.802 130C795.527 130 796.167 130.155 796.722 130.464C797.287 130.763 797.73 131.2 798.05 131.776C798.37 132.341 798.53 133.019 798.53 133.808V134.32H791.906C791.938 135.291 792.231 136.043 792.786 136.576C793.351 137.099 794.061 137.36 794.914 137.36C795.639 137.36 796.199 137.195 796.594 136.864C796.999 136.533 797.309 136.128 797.522 135.648L798.386 136.032C798.226 136.384 798.002 136.731 797.714 137.072C797.437 137.403 797.074 137.68 796.626 137.904C796.178 138.117 795.607 138.224 794.914 138.224ZM791.922 133.488H797.554C797.511 132.645 797.239 132 796.738 131.552C796.237 131.093 795.591 130.864 794.802 130.864C794.023 130.864 793.378 131.093 792.866 131.552C792.354 132 792.039 132.645 791.922 133.488ZM803.98 138.224C803.042 138.224 802.236 138 801.564 137.552C800.903 137.104 800.498 136.363 800.348 135.328L801.292 135.152C801.378 135.717 801.548 136.165 801.804 136.496C802.071 136.816 802.391 137.045 802.764 137.184C803.148 137.323 803.554 137.392 803.98 137.392C804.62 137.392 805.132 137.264 805.516 137.008C805.911 136.741 806.108 136.379 806.108 135.92C806.108 135.451 805.922 135.125 805.548 134.944C805.186 134.763 804.7 134.619 804.092 134.512L803.356 134.384C802.866 134.299 802.423 134.171 802.028 134C801.634 133.819 801.319 133.579 801.084 133.28C800.86 132.981 800.748 132.608 800.748 132.16C800.748 131.488 801.01 130.96 801.532 130.576C802.066 130.192 802.77 130 803.644 130C804.53 130 805.239 130.203 805.772 130.608C806.316 131.003 806.658 131.579 806.796 132.336L805.9 132.528C805.794 131.909 805.538 131.472 805.132 131.216C804.738 130.96 804.242 130.832 803.644 130.832C803.058 130.832 802.588 130.944 802.236 131.168C801.884 131.392 801.708 131.723 801.708 132.16C801.708 132.587 801.868 132.901 802.188 133.104C802.508 133.296 802.946 133.44 803.5 133.536L804.236 133.664C804.77 133.749 805.25 133.877 805.676 134.048C806.103 134.208 806.439 134.437 806.684 134.736C806.94 135.035 807.068 135.429 807.068 135.92C807.068 136.656 806.791 137.227 806.236 137.632C805.682 138.027 804.93 138.224 803.98 138.224ZM812.434 138.224C811.495 138.224 810.69 138 810.018 137.552C809.356 137.104 808.951 136.363 808.802 135.328L809.746 135.152C809.831 135.717 810.002 136.165 810.258 136.496C810.524 136.816 810.844 137.045 811.218 137.184C811.602 137.323 812.007 137.392 812.434 137.392C813.074 137.392 813.586 137.264 813.97 137.008C814.364 136.741 814.562 136.379 814.562 135.92C814.562 135.451 814.375 135.125 814.002 134.944C813.639 134.763 813.154 134.619 812.546 134.512L811.81 134.384C811.319 134.299 810.876 134.171 810.482 134C810.087 133.819 809.772 133.579 809.538 133.28C809.314 132.981 809.202 132.608 809.202 132.16C809.202 131.488 809.463 130.96 809.986 130.576C810.519 130.192 811.223 130 812.098 130C812.983 130 813.692 130.203 814.226 130.608C814.77 131.003 815.111 131.579 815.25 132.336L814.354 132.528C814.247 131.909 813.991 131.472 813.586 131.216C813.191 130.96 812.695 130.832 812.098 130.832C811.511 130.832 811.042 130.944 810.69 131.168C810.338 131.392 810.162 131.723 810.162 132.16C810.162 132.587 810.322 132.901 810.642 133.104C810.962 133.296 811.399 133.44 811.954 133.536L812.69 133.664C813.223 133.749 813.703 133.877 814.13 134.048C814.556 134.208 814.892 134.437 815.138 134.736C815.394 135.035 815.522 135.429 815.522 135.92C815.522 136.656 815.244 137.227 814.69 137.632C814.135 138.027 813.383 138.224 812.434 138.224ZM821.351 138.224C820.561 138.224 819.868 138.059 819.271 137.728C818.684 137.387 818.225 136.917 817.895 136.32C817.575 135.712 817.415 135.008 817.415 134.208V134.016C817.415 133.216 817.575 132.517 817.895 131.92C818.225 131.312 818.684 130.843 819.271 130.512C819.868 130.171 820.561 130 821.351 130C822.14 130 822.828 130.171 823.415 130.512C824.012 130.843 824.471 131.312 824.791 131.92C825.121 132.517 825.287 133.216 825.287 134.016V134.208C825.287 135.008 825.121 135.712 824.791 136.32C824.471 136.917 824.012 137.387 823.415 137.728C822.828 138.059 822.14 138.224 821.351 138.224ZM821.351 137.36C822.268 137.36 822.993 137.072 823.527 136.496C824.06 135.909 824.327 135.136 824.327 134.176V134.048C824.327 133.088 824.06 132.32 823.527 131.744C822.993 131.157 822.268 130.864 821.351 130.864C820.444 130.864 819.719 131.157 819.175 131.744C818.641 132.32 818.375 133.088 818.375 134.048V134.176C818.375 135.136 818.641 135.909 819.175 136.496C819.719 137.072 820.444 137.36 821.351 137.36ZM827.721 138V130.224H828.649V131.2H828.841C828.99 130.848 829.209 130.592 829.497 130.432C829.795 130.272 830.206 130.192 830.729 130.192H831.641V131.088H830.617C830.03 131.088 829.561 131.253 829.209 131.584C828.857 131.915 828.681 132.432 828.681 133.136V138H827.721Z" fill="#D9D9D9"/>
<path d="M461 136.667C462.473 136.667 463.667 135.473 463.667 134C463.667 132.527 462.473 131.333 461 131.333C459.527 131.333 458.333 132.527 458.333 134C458.333 135.473 459.527 136.667 461 136.667ZM461 134.5L464.077 134.5L464.077 133.5L461 133.5L461 134.5ZM470.231 134.5L476.385 134.5L476.385 133.5L470.231 133.5L470.231 134.5ZM482.538 134.5L488.692 134.5L488.692 133.5L482.538 133.5L482.538 134.5ZM494.846 134.5L501 134.5L501 133.5L494.846 133.5L494.846 134.5ZM507.154 134.5L513.308 134.5L513.308 133.5L507.154 133.5L507.154 134.5ZM519.462 134.5L525.615 134.5L525.615 133.5L519.462 133.5L519.462 134.5ZM531.769 134.5L537.923 134.5L537.923 133.5L531.769 133.5L531.769 134.5ZM544.077 134.5L550.231 134.5L550.231 133.5L544.077 133.5L544.077 134.5ZM556.385 134.5L562.538 134.5L562.538 133.5L556.385 133.5L556.385 134.5ZM568.692 134.5L574.846 134.5L574.846 133.5L568.692 133.5L568.692 134.5ZM581 134.5L587.154 134.5L587.154 133.5L581 133.5L581 134.5ZM593.308 134.5L599.462 134.5L599.462 133.5L593.308 133.5L593.308 134.5ZM605.615 134.5L611.769 134.5L611.769 133.5L605.615 133.5L605.615 134.5ZM617.923 134.5L621 134.5L621 133.5L617.923 133.5L617.923 134.5Z" fill="white"/>
<rect x="645.4" y="162.4" width="25.2" height="26.2" rx="12.6" fill="#131313"/>
<rect x="645.4" y="162.4" width="25.2" height="26.2" rx="12.6" fill="url(#paint10_linear_11375_3918)"/>
<rect x="645.4" y="162.4" width="25.2" height="26.2" rx="12.6" stroke="white" stroke-width="0.8"/>
<path d="M657.992 181.224C657.203 181.224 656.493 181.075 655.864 180.776C655.245 180.477 654.755 180.045 654.392 179.48C654.04 178.915 653.864 178.232 653.864 177.432V177.128H655.16V177.416C655.16 178.237 655.421 178.883 655.944 179.352C656.467 179.821 657.149 180.056 657.992 180.056C658.845 180.056 659.507 179.837 659.976 179.4C660.456 178.952 660.696 178.392 660.696 177.72V177.592C660.696 177.101 660.579 176.707 660.344 176.408C660.109 176.099 659.789 175.875 659.384 175.736C658.989 175.587 658.552 175.512 658.072 175.512H656.248V173.896L660.52 171.16V170.968H654.136V169.8H661.896V171.608L657.72 174.296V174.488H658.52C659.149 174.488 659.725 174.605 660.248 174.84C660.781 175.064 661.203 175.405 661.512 175.864C661.832 176.312 661.992 176.877 661.992 177.56V177.736C661.992 178.44 661.827 179.053 661.496 179.576C661.165 180.099 660.701 180.504 660.104 180.792C659.507 181.08 658.803 181.224 657.992 181.224Z" fill="white"/>
<path d="M683.864 182V180.956H685.664V170.444H683.864V169.4H688.652C690.296 169.4 691.574 169.82 692.486 170.66C693.41 171.488 693.872 172.784 693.872 174.548V176.87C693.872 178.634 693.41 179.93 692.486 180.758C691.574 181.586 690.296 182 688.652 182H683.864ZM686.816 180.956H688.652C689.972 180.956 690.98 180.638 691.676 180.002C692.372 179.366 692.72 178.34 692.72 176.924V174.494C692.72 173.066 692.372 172.04 691.676 171.416C690.98 170.78 689.972 170.462 688.652 170.462H686.816V180.956ZM699.184 182.252C698.572 182.252 698.014 182.15 697.51 181.946C697.018 181.73 696.628 181.418 696.34 181.01C696.052 180.602 695.908 180.11 695.908 179.534C695.908 178.946 696.052 178.46 696.34 178.076C696.628 177.692 697.018 177.404 697.51 177.212C698.002 177.02 698.548 176.924 699.148 176.924H702.352V176.222C702.352 175.514 702.148 174.962 701.74 174.566C701.332 174.17 700.738 173.972 699.958 173.972C699.19 173.972 698.578 174.164 698.122 174.548C697.678 174.92 697.378 175.424 697.222 176.06L696.178 175.754C696.322 175.238 696.55 174.776 696.862 174.368C697.174 173.948 697.588 173.618 698.104 173.378C698.62 173.126 699.238 173 699.958 173C701.062 173 701.914 173.288 702.514 173.864C703.126 174.44 703.432 175.244 703.432 176.276V180.524C703.432 180.884 703.6 181.064 703.936 181.064H704.782V182H703.63C703.258 182 702.964 181.892 702.748 181.676C702.532 181.448 702.424 181.142 702.424 180.758V180.632H702.244C702.088 180.896 701.884 181.154 701.632 181.406C701.392 181.658 701.074 181.862 700.678 182.018C700.282 182.174 699.784 182.252 699.184 182.252ZM699.256 181.28C700.18 181.28 700.924 181.004 701.488 180.452C702.064 179.888 702.352 179.096 702.352 178.076V177.86H699.166C698.542 177.86 698.02 177.998 697.6 178.274C697.192 178.538 696.988 178.952 696.988 179.516C696.988 180.08 697.198 180.518 697.618 180.83C698.05 181.13 698.596 181.28 699.256 181.28ZM709.461 182C708.993 182 708.639 181.88 708.399 181.64C708.171 181.4 708.057 181.064 708.057 180.632V174.224H705.249V173.252H708.057V169.976H709.137V173.252H712.197V174.224H709.137V180.488C709.137 180.848 709.317 181.028 709.677 181.028H711.729V182H709.461ZM717.219 182.252C716.607 182.252 716.049 182.15 715.545 181.946C715.053 181.73 714.663 181.418 714.375 181.01C714.087 180.602 713.943 180.11 713.943 179.534C713.943 178.946 714.087 178.46 714.375 178.076C714.663 177.692 715.053 177.404 715.545 177.212C716.037 177.02 716.583 176.924 717.183 176.924H720.387V176.222C720.387 175.514 720.183 174.962 719.775 174.566C719.367 174.17 718.773 173.972 717.993 173.972C717.225 173.972 716.613 174.164 716.157 174.548C715.713 174.92 715.413 175.424 715.257 176.06L714.213 175.754C714.357 175.238 714.585 174.776 714.897 174.368C715.209 173.948 715.623 173.618 716.139 173.378C716.655 173.126 717.273 173 717.993 173C719.097 173 719.949 173.288 720.549 173.864C721.161 174.44 721.467 175.244 721.467 176.276V180.524C721.467 180.884 721.635 181.064 721.971 181.064H722.817V182H721.665C721.293 182 720.999 181.892 720.783 181.676C720.567 181.448 720.459 181.142 720.459 180.758V180.632H720.279C720.123 180.896 719.919 181.154 719.667 181.406C719.427 181.658 719.109 181.862 718.713 182.018C718.317 182.174 717.819 182.252 717.219 182.252ZM717.291 181.28C718.215 181.28 718.959 181.004 719.523 180.452C720.099 179.888 720.387 179.096 720.387 178.076V177.86H717.201C716.577 177.86 716.055 177.998 715.635 178.274C715.227 178.538 715.023 178.952 715.023 179.516C715.023 180.08 715.233 180.518 715.653 180.83C716.085 181.13 716.631 181.28 717.291 181.28ZM729.478 182V169.4H730.63V175.16H737.038V169.4H738.19V182H737.038V176.204H730.63V182H729.478ZM745.322 182.252C744.434 182.252 743.654 182.066 742.982 181.694C742.322 181.31 741.806 180.782 741.434 180.11C741.074 179.426 740.894 178.634 740.894 177.734V177.518C740.894 176.618 741.074 175.832 741.434 175.16C741.806 174.476 742.322 173.948 742.982 173.576C743.654 173.192 744.434 173 745.322 173C746.21 173 746.984 173.192 747.644 173.576C748.316 173.948 748.832 174.476 749.192 175.16C749.564 175.832 749.75 176.618 749.75 177.518V177.734C749.75 178.634 749.564 179.426 749.192 180.11C748.832 180.782 748.316 181.31 747.644 181.694C746.984 182.066 746.21 182.252 745.322 182.252ZM745.322 181.28C746.354 181.28 747.17 180.956 747.77 180.308C748.37 179.648 748.67 178.778 748.67 177.698V177.554C748.67 176.474 748.37 175.61 747.77 174.962C747.17 174.302 746.354 173.972 745.322 173.972C744.302 173.972 743.486 174.302 742.874 174.962C742.274 175.61 741.974 176.474 741.974 177.554V177.698C741.974 178.778 742.274 179.648 742.874 180.308C743.486 180.956 744.302 181.28 745.322 181.28ZM755.962 182.252C754.906 182.252 754 182 753.244 181.496C752.5 180.992 752.044 180.158 751.876 178.994L752.938 178.796C753.034 179.432 753.226 179.936 753.514 180.308C753.814 180.668 754.174 180.926 754.594 181.082C755.026 181.238 755.482 181.316 755.962 181.316C756.682 181.316 757.258 181.172 757.69 180.884C758.134 180.584 758.356 180.176 758.356 179.66C758.356 179.132 758.146 178.766 757.726 178.562C757.318 178.358 756.772 178.196 756.088 178.076L755.26 177.932C754.708 177.836 754.21 177.692 753.766 177.5C753.322 177.296 752.968 177.026 752.704 176.69C752.452 176.354 752.326 175.934 752.326 175.43C752.326 174.674 752.62 174.08 753.208 173.648C753.808 173.216 754.6 173 755.584 173C756.58 173 757.378 173.228 757.978 173.684C758.59 174.128 758.974 174.776 759.13 175.628L758.122 175.844C758.002 175.148 757.714 174.656 757.258 174.368C756.814 174.08 756.256 173.936 755.584 173.936C754.924 173.936 754.396 174.062 754 174.314C753.604 174.566 753.406 174.938 753.406 175.43C753.406 175.91 753.586 176.264 753.946 176.492C754.306 176.708 754.798 176.87 755.422 176.978L756.25 177.122C756.85 177.218 757.39 177.362 757.87 177.554C758.35 177.734 758.728 177.992 759.004 178.328C759.292 178.664 759.436 179.108 759.436 179.66C759.436 180.488 759.124 181.13 758.5 181.586C757.876 182.03 757.03 182.252 755.962 182.252ZM764.955 182C764.487 182 764.133 181.88 763.893 181.64C763.665 181.4 763.551 181.064 763.551 180.632V174.224H760.743V173.252H763.551V169.976H764.631V173.252H767.691V174.224H764.631V180.488C764.631 180.848 764.811 181.028 765.171 181.028H767.223V182H764.955Z" fill="#D9D9D9"/>
<path d="M461 179.667C462.473 179.667 463.667 178.473 463.667 177C463.667 175.527 462.473 174.333 461 174.333C459.527 174.333 458.333 175.527 458.333 177C458.333 178.473 459.527 179.667 461 179.667ZM461 177.5L464.077 177.5L464.077 176.5L461 176.5L461 177.5ZM470.231 177.5L476.385 177.5L476.385 176.5L470.231 176.5L470.231 177.5ZM482.538 177.5L488.692 177.5L488.692 176.5L482.538 176.5L482.538 177.5ZM494.846 177.5L501 177.5L501 176.5L494.846 176.5L494.846 177.5ZM507.154 177.5L513.308 177.5L513.308 176.5L507.154 176.5L507.154 177.5ZM519.462 177.5L525.615 177.5L525.615 176.5L519.462 176.5L519.462 177.5ZM531.769 177.5L537.923 177.5L537.923 176.5L531.769 176.5L531.769 177.5ZM544.077 177.5L550.231 177.5L550.231 176.5L544.077 176.5L544.077 177.5ZM556.385 177.5L562.538 177.5L562.538 176.5L556.385 176.5L556.385 177.5ZM568.692 177.5L574.846 177.5L574.846 176.5L568.692 176.5L568.692 177.5ZM581 177.5L587.154 177.5L587.154 176.5L581 176.5L581 177.5ZM593.308 177.5L599.462 177.5L599.462 176.5L593.308 176.5L593.308 177.5ZM605.615 177.5L611.769 177.5L611.769 176.5L605.615 176.5L605.615 177.5ZM617.923 177.5L621 177.5L621 176.5L617.923 176.5L617.923 177.5Z" fill="white"/>
<rect x="645.4" y="205.4" width="25.2" height="26.2" rx="12.6" fill="#131313"/>
<rect x="645.4" y="205.4" width="25.2" height="26.2" rx="12.6" fill="url(#paint11_linear_11375_3918)"/>
<rect x="645.4" y="205.4" width="25.2" height="26.2" rx="12.6" stroke="white" stroke-width="0.8"/>
<path d="M659.32 224V221.712H653.576V220.176L658.184 212.8H660.616V220.544H662.52V221.712H660.616V224H659.32ZM654.856 220.544H659.32V213.584H659.096L654.856 220.352V220.544Z" fill="white"/>
<path d="M683.504 225L687.626 212.4H689.678L693.8 225H692.594L691.514 221.652H685.79L684.71 225H683.504ZM686.114 220.608H691.19L688.76 213.084H688.544L686.114 220.608ZM695.851 225V212.4H697.003V225H695.851ZM703.455 225L707.577 212.4H709.629L713.751 225H712.545L711.465 221.652H705.741L704.661 225H703.455ZM706.065 220.608H711.141L708.711 213.084H708.495L706.065 220.608ZM715.838 228.6V216.252H716.882V217.854H717.098C717.35 217.374 717.74 216.948 718.268 216.576C718.808 216.192 719.558 216 720.518 216C721.298 216 722.006 216.186 722.642 216.558C723.278 216.918 723.782 217.434 724.154 218.106C724.538 218.778 724.73 219.582 724.73 220.518V220.734C724.73 221.658 724.544 222.462 724.172 223.146C723.8 223.818 723.296 224.34 722.66 224.712C722.024 225.072 721.31 225.252 720.518 225.252C719.882 225.252 719.336 225.168 718.88 225C718.436 224.82 718.07 224.592 717.782 224.316C717.506 224.04 717.29 223.758 717.134 223.47H716.918V228.6H715.838ZM720.266 224.28C721.262 224.28 722.066 223.962 722.678 223.326C723.302 222.69 723.614 221.814 723.614 220.698V220.554C723.614 219.438 723.302 218.562 722.678 217.926C722.066 217.29 721.262 216.972 720.266 216.972C719.282 216.972 718.478 217.29 717.854 217.926C717.23 218.562 716.918 219.438 716.918 220.554V220.698C716.918 221.814 717.23 222.69 717.854 223.326C718.478 223.962 719.282 224.28 720.266 224.28ZM727.475 228.6V216.252H728.519V217.854H728.735C728.987 217.374 729.377 216.948 729.905 216.576C730.445 216.192 731.195 216 732.155 216C732.935 216 733.643 216.186 734.279 216.558C734.915 216.918 735.419 217.434 735.791 218.106C736.175 218.778 736.367 219.582 736.367 220.518V220.734C736.367 221.658 736.181 222.462 735.809 223.146C735.437 223.818 734.933 224.34 734.297 224.712C733.661 225.072 732.947 225.252 732.155 225.252C731.519 225.252 730.973 225.168 730.517 225C730.073 224.82 729.707 224.592 729.419 224.316C729.143 224.04 728.927 223.758 728.771 223.47H728.555V228.6H727.475ZM731.903 224.28C732.899 224.28 733.703 223.962 734.315 223.326C734.939 222.69 735.251 221.814 735.251 220.698V220.554C735.251 219.438 734.939 218.562 734.315 217.926C733.703 217.29 732.899 216.972 731.903 216.972C730.919 216.972 730.115 217.29 729.491 217.926C728.867 218.562 728.555 219.438 728.555 220.554V220.698C728.555 221.814 728.867 222.69 729.491 223.326C730.115 223.962 730.919 224.28 731.903 224.28ZM739.111 225V212.4H740.191V225H739.111ZM743.365 225V216.252H744.445V225H743.365ZM743.905 214.74C743.641 214.74 743.419 214.65 743.239 214.47C743.059 214.29 742.969 214.068 742.969 213.804C742.969 213.528 743.059 213.306 743.239 213.138C743.419 212.958 743.641 212.868 743.905 212.868C744.181 212.868 744.403 212.958 744.571 213.138C744.751 213.306 744.841 213.528 744.841 213.804C744.841 214.068 744.751 214.29 744.571 214.47C744.403 214.65 744.181 214.74 743.905 214.74ZM751.615 225.252C750.763 225.252 750.001 225.072 749.329 224.712C748.669 224.34 748.147 223.812 747.763 223.128C747.379 222.444 747.187 221.64 747.187 220.716V220.536C747.187 219.6 747.379 218.796 747.763 218.124C748.147 217.44 748.669 216.918 749.329 216.558C750.001 216.186 750.763 216 751.615 216C752.455 216 753.163 216.162 753.739 216.486C754.327 216.798 754.783 217.212 755.107 217.728C755.443 218.232 755.653 218.766 755.737 219.33L754.675 219.546C754.615 219.078 754.465 218.652 754.225 218.268C753.985 217.872 753.649 217.56 753.217 217.332C752.785 217.092 752.251 216.972 751.615 216.972C750.979 216.972 750.409 217.122 749.905 217.422C749.401 217.71 748.999 218.124 748.699 218.664C748.411 219.192 748.267 219.822 748.267 220.554V220.698C748.267 221.43 748.411 222.066 748.699 222.606C748.999 223.134 749.401 223.548 749.905 223.848C750.409 224.136 750.979 224.28 751.615 224.28C752.575 224.28 753.307 224.034 753.811 223.542C754.315 223.038 754.627 222.426 754.747 221.706L755.809 221.922C755.701 222.486 755.473 223.026 755.125 223.542C754.789 224.046 754.327 224.46 753.739 224.784C753.163 225.096 752.455 225.252 751.615 225.252ZM761.147 225.252C760.535 225.252 759.977 225.15 759.473 224.946C758.981 224.73 758.591 224.418 758.303 224.01C758.015 223.602 757.871 223.11 757.871 222.534C757.871 221.946 758.015 221.46 758.303 221.076C758.591 220.692 758.981 220.404 759.473 220.212C759.965 220.02 760.511 219.924 761.111 219.924H764.315V219.222C764.315 218.514 764.111 217.962 763.703 217.566C763.295 217.17 762.701 216.972 761.921 216.972C761.153 216.972 760.541 217.164 760.085 217.548C759.641 217.92 759.341 218.424 759.185 219.06L758.141 218.754C758.285 218.238 758.513 217.776 758.825 217.368C759.137 216.948 759.551 216.618 760.067 216.378C760.583 216.126 761.201 216 761.921 216C763.025 216 763.877 216.288 764.477 216.864C765.089 217.44 765.395 218.244 765.395 219.276V223.524C765.395 223.884 765.563 224.064 765.899 224.064H766.745V225H765.593C765.221 225 764.927 224.892 764.711 224.676C764.495 224.448 764.387 224.142 764.387 223.758V223.632H764.207C764.051 223.896 763.847 224.154 763.595 224.406C763.355 224.658 763.037 224.862 762.641 225.018C762.245 225.174 761.747 225.252 761.147 225.252ZM761.219 224.28C762.143 224.28 762.887 224.004 763.451 223.452C764.027 222.888 764.315 222.096 764.315 221.076V220.86H761.129C760.505 220.86 759.983 220.998 759.563 221.274C759.155 221.538 758.951 221.952 758.951 222.516C758.951 223.08 759.161 223.518 759.581 223.83C760.013 224.13 760.559 224.28 761.219 224.28ZM771.424 225C770.956 225 770.602 224.88 770.362 224.64C770.134 224.4 770.02 224.064 770.02 223.632V217.224H767.212V216.252H770.02V212.976H771.1V216.252H774.16V217.224H771.1V223.488C771.1 223.848 771.28 224.028 771.64 224.028H773.692V225H771.424ZM776.57 225V216.252H777.65V225H776.57ZM777.11 214.74C776.846 214.74 776.624 214.65 776.444 214.47C776.264 214.29 776.174 214.068 776.174 213.804C776.174 213.528 776.264 213.306 776.444 213.138C776.624 212.958 776.846 212.868 777.11 212.868C777.386 212.868 777.608 212.958 777.776 213.138C777.956 213.306 778.046 213.528 778.046 213.804C778.046 214.068 777.956 214.29 777.776 214.47C777.608 214.65 777.386 214.74 777.11 214.74ZM784.82 225.252C783.932 225.252 783.152 225.066 782.48 224.694C781.82 224.31 781.304 223.782 780.932 223.11C780.572 222.426 780.392 221.634 780.392 220.734V220.518C780.392 219.618 780.572 218.832 780.932 218.16C781.304 217.476 781.82 216.948 782.48 216.576C783.152 216.192 783.932 216 784.82 216C785.708 216 786.482 216.192 787.142 216.576C787.814 216.948 788.33 217.476 788.69 218.16C789.062 218.832 789.248 219.618 789.248 220.518V220.734C789.248 221.634 789.062 222.426 788.69 223.11C788.33 223.782 787.814 224.31 787.142 224.694C786.482 225.066 785.708 225.252 784.82 225.252ZM784.82 224.28C785.852 224.28 786.668 223.956 787.268 223.308C787.868 222.648 788.168 221.778 788.168 220.698V220.554C788.168 219.474 787.868 218.61 787.268 217.962C786.668 217.302 785.852 216.972 784.82 216.972C783.8 216.972 782.984 217.302 782.372 217.962C781.772 218.61 781.472 219.474 781.472 220.554V220.698C781.472 221.778 781.772 222.648 782.372 223.308C782.984 223.956 783.8 224.28 784.82 224.28ZM791.986 225V216.252H793.03V217.872H793.246C793.462 217.404 793.816 216.99 794.308 216.63C794.8 216.258 795.514 216.072 796.45 216.072C797.086 216.072 797.668 216.204 798.196 216.468C798.724 216.732 799.144 217.134 799.456 217.674C799.78 218.202 799.942 218.868 799.942 219.672V225H798.862V219.744C798.862 218.784 798.622 218.094 798.142 217.674C797.662 217.254 797.02 217.044 796.216 217.044C795.316 217.044 794.566 217.344 793.966 217.944C793.366 218.532 793.066 219.426 793.066 220.626V225H791.986ZM806.482 225.252C805.426 225.252 804.52 225 803.764 224.496C803.02 223.992 802.564 223.158 802.396 221.994L803.458 221.796C803.554 222.432 803.746 222.936 804.034 223.308C804.334 223.668 804.694 223.926 805.114 224.082C805.546 224.238 806.002 224.316 806.482 224.316C807.202 224.316 807.778 224.172 808.21 223.884C808.654 223.584 808.876 223.176 808.876 222.66C808.876 222.132 808.666 221.766 808.246 221.562C807.838 221.358 807.292 221.196 806.608 221.076L805.78 220.932C805.228 220.836 804.73 220.692 804.286 220.5C803.842 220.296 803.488 220.026 803.224 219.69C802.972 219.354 802.846 218.934 802.846 218.43C802.846 217.674 803.14 217.08 803.728 216.648C804.328 216.216 805.12 216 806.104 216C807.1 216 807.898 216.228 808.498 216.684C809.11 217.128 809.494 217.776 809.65 218.628L808.642 218.844C808.522 218.148 808.234 217.656 807.778 217.368C807.334 217.08 806.776 216.936 806.104 216.936C805.444 216.936 804.916 217.062 804.52 217.314C804.124 217.566 803.926 217.938 803.926 218.43C803.926 218.91 804.106 219.264 804.466 219.492C804.826 219.708 805.318 219.87 805.942 219.978L806.77 220.122C807.37 220.218 807.91 220.362 808.39 220.554C808.87 220.734 809.248 220.992 809.524 221.328C809.812 221.664 809.956 222.108 809.956 222.66C809.956 223.488 809.644 224.13 809.02 224.586C808.396 225.03 807.55 225.252 806.482 225.252Z" fill="#D9D9D9"/>
<path d="M461 222.667C462.473 222.667 463.667 221.473 463.667 220C463.667 218.527 462.473 217.333 461 217.333C459.527 217.333 458.333 218.527 458.333 220C458.333 221.473 459.527 222.667 461 222.667ZM461 220.5L464.077 220.5L464.077 219.5L461 219.5L461 220.5ZM470.231 220.5L476.385 220.5L476.385 219.5L470.231 219.5L470.231 220.5ZM482.538 220.5L488.692 220.5L488.692 219.5L482.538 219.5L482.538 220.5ZM494.846 220.5L501 220.5L501 219.5L494.846 219.5L494.846 220.5ZM507.154 220.5L513.308 220.5L513.308 219.5L507.154 219.5L507.154 220.5ZM519.462 220.5L525.615 220.5L525.615 219.5L519.462 219.5L519.462 220.5ZM531.769 220.5L537.923 220.5L537.923 219.5L531.769 219.5L531.769 220.5ZM544.077 220.5L550.231 220.5L550.231 219.5L544.077 219.5L544.077 220.5ZM556.385 220.5L562.538 220.5L562.538 219.5L556.385 219.5L556.385 220.5ZM568.692 220.5L574.846 220.5L574.846 219.5L568.692 219.5L568.692 220.5ZM581 220.5L587.154 220.5L587.154 219.5L581 219.5L581 220.5ZM593.308 220.5L599.462 220.5L599.462 219.5L593.308 219.5L593.308 220.5ZM605.615 220.5L611.769 220.5L611.769 219.5L605.615 219.5L605.615 220.5ZM617.923 220.5L621 220.5L621 219.5L617.923 219.5L617.923 220.5Z" fill="white"/>
<path d="M180 251L180 71" stroke="white" stroke-dasharray="6 6"/>
<path d="M166 242.5L179.5 256L193 242.5" stroke="white"/>
<defs>
<filter id="filter0_d_11375_3918" x="212.702" y="18.2371" width="283.497" height="291.768" filterUnits="userSpaceOnUse" color-interpolation-filters="sRGB">
<feFlood flood-opacity="0" result="BackgroundImageFix"/>
<feColorMatrix in="SourceAlpha" type="matrix" values="0 0 0 0 0 0 0 0 0 0 0 0 0 0 0 0 0 0 127 0" result="hardAlpha"/>
<feOffset/>
<feGaussianBlur stdDeviation="6.92345"/>
<feComposite in2="hardAlpha" operator="out"/>
<feColorMatrix type="matrix" values="0 0 0 0 1 0 0 0 0 0.962565 0 0 0 0 0.962565 0 0 0 0.15 0"/>
<feBlend mode="normal" in2="BackgroundImageFix" result="effect1_dropShadow_11375_3918"/>
<feBlend mode="normal" in="SourceGraphic" in2="effect1_dropShadow_11375_3918" result="shape"/>
</filter>
<linearGradient id="paint0_linear_11375_3918" x1="354.45" y1="221.165" x2="354.45" y2="289.429" gradientUnits="userSpaceOnUse">
<stop stop-color="#131313"/>
<stop offset="1" stop-color="#181818"/>
</linearGradient>
<radialGradient id="paint1_radial_11375_3918" cx="0" cy="0" r="1" gradientUnits="userSpaceOnUse" gradientTransform="translate(354.985 221.237) rotate(25.1729) scale(71.7084 65.3378)">
<stop stop-color="white"/>
<stop offset="1" stop-color="white" stop-opacity="0"/>
</radialGradient>
<linearGradient id="paint2_linear_11375_3918" x1="354.45" y1="178.363" x2="354.45" y2="246.626" gradientUnits="userSpaceOnUse">
<stop stop-color="#131313"/>
<stop offset="1" stop-color="#1D1D1D"/>
</linearGradient>
<radialGradient id="paint3_radial_11375_3918" cx="0" cy="0" r="1" gradientUnits="userSpaceOnUse" gradientTransform="translate(354.985 178.732) rotate(25.1729) scale(71.7084 65.3378)">
<stop stop-color="white"/>
<stop offset="1" stop-color="white" stop-opacity="0"/>
</radialGradient>
<linearGradient id="paint4_linear_11375_3918" x1="354.45" y1="134.119" x2="354.45" y2="202.382" gradientUnits="userSpaceOnUse">
<stop stop-color="#131313"/>
<stop offset="1" stop-color="#272727"/>
</linearGradient>
<radialGradient id="paint5_radial_11375_3918" cx="0" cy="0" r="1" gradientUnits="userSpaceOnUse" gradientTransform="translate(354.985 134.322) rotate(25.1729) scale(71.7084 65.3378)">
<stop stop-color="white"/>
<stop offset="1" stop-color="white" stop-opacity="0"/>
</radialGradient>
<linearGradient id="paint6_linear_11375_3918" x1="354.45" y1="80.635" x2="354.45" y2="160.459" gradientUnits="userSpaceOnUse">
<stop stop-color="#131313"/>
<stop offset="1" stop-color="#272727"/>
</linearGradient>
<radialGradient id="paint7_radial_11375_3918" cx="0" cy="0" r="1" gradientUnits="userSpaceOnUse" gradientTransform="translate(354.864 92.5066) rotate(25.7829) scale(61.717 56.5588)">
<stop stop-color="white"/>
<stop offset="1" stop-color="white" stop-opacity="0"/>
</radialGradient>
<linearGradient id="paint8_linear_11375_3918" x1="654.677" y1="85.1513" x2="666.282" y2="98.2939" gradientUnits="userSpaceOnUse">
<stop stop-color="#131313"/>
<stop offset="1" stop-color="#272727"/>
</linearGradient>
<linearGradient id="paint9_linear_11375_3918" x1="654.677" y1="128.151" x2="666.282" y2="141.294" gradientUnits="userSpaceOnUse">
<stop stop-color="#131313"/>
<stop offset="1" stop-color="#272727"/>
</linearGradient>
<linearGradient id="paint10_linear_11375_3918" x1="654.677" y1="171.151" x2="666.282" y2="184.294" gradientUnits="userSpaceOnUse">
<stop stop-color="#131313"/>
<stop offset="1" stop-color="#272727"/>
</linearGradient>
<linearGradient id="paint11_linear_11375_3918" x1="654.677" y1="214.151" x2="666.282" y2="227.294" gradientUnits="userSpaceOnUse">
<stop stop-color="#131313"/>
<stop offset="1" stop-color="#272727"/>
</linearGradient>
<clipPath id="clip0_11375_3918">
<rect width="285" height="293" fill="white" transform="translate(212 18)"/>
</clipPath>
</defs>
</svg>
