<svg fill="none" height="247" viewBox="0 0 247 247" width="247" xmlns="http://www.w3.org/2000/svg"><path d="m114.584 223.582-93.7925-58.322c-3.3878-2.153-5.0819-4.973-5.0823-7.795v-22.287c.0004 2.821 1.695 2.098 5.0823 4.251l95.2075 37.099c6.813 3.48 16.8 3.21 23.123-.806l85.346-31.333c3.388-2.152 6.839-2.139 6.839-4.96v22.285c0 2.822-1.694 5.644-5.082 7.798l-87.101 54.135c-6.392 4.061-16.529 4.293-23.346.693-.41-.217-.809-.448-1.194-.692z" fill="#fecb90"/><path d="m15.6865 132.955v23.4c.0004 2.776 1.7194 5.552 5.157 7.671l93.6075 59.034v.064c.391.241.795.468 1.212.682 6.917 3.542 17.203 3.315 23.688-.682l86.799-54.211c3.438-2.119 5.157-4.897 5.157-7.674v-23.398" stroke="#8e6636" stroke-width="1.9"/><rect fill="#fff7b7" height="131.901" rx="15.415" stroke="#8e6636" stroke-width="1.9" transform="matrix(.847872 .5302 -.847872 .5302 120.954 62.2906)" width="139.917" y="1.00738"/><path d="m125.692 202.508v23.794" stroke="#8e6636" stroke-linecap="round" stroke-linejoin="round" stroke-width="1.136"/><rect fill="#faf3b8" height="96.8204" rx="9.91977" stroke="#8e6636" stroke-width="1.136" transform="matrix(.847872 .5302 -.847872 .5302 119.93 57.447)" width="102.69" y=".602307"/><path clip-rule="evenodd" d="m45.6294 114.895c-2.4878-1.574-3.9197-3.741-3.9202-5.792v17.318c.0003 2.066 1.4525 4.25 3.9727 5.826v-.171l69.7221 43.6v-.002c5.042 3.152 13.215 3.152 18.256 0v-.003l64.665-40.437v.008c2.521-1.576 3.781-3.643 3.781-5.709v-17.317c0 1.965-1.141 3.93-3.422 5.474l-65.031 40.667v.002c-5.042 3.148-13.21 3.147-18.249-.004v.001l-69.7746-43.632z" fill="#fecb90" fill-rule="evenodd"/><path d="m41.7327 109.097v17.318c.0003 2.066 1.4522 4.25 3.9721 5.826v-.171l69.7132 43.598c5.04 3.152 13.212 3.152 18.253 0v-.003l64.657-40.437v.008c2.52-1.576 3.78-3.642 3.78-5.709v-17.317-.002" stroke="#8e6636" stroke-width="1.7"/><rect fill="#fff" height="96.2564" rx="9.63777" stroke="#8e6636" stroke-width="1.7" transform="matrix(.847872 .5302 -.847872 .5302 120.184 57.5875)" width="102.126" y=".90134"/><circle cx="26.5077" cy="26.5077" fill="#f2f7e0" r="25.9397" stroke="#8e6636" stroke-width="1.136" transform="matrix(.847872 -.5302 .847872 .5302 77.635 109.103)"/><path d="m96.1105 108.372-3.5366 4.715-1.3896-6.064 1.9109-4.651 5.7324-5.8765 7.1634-3.7575 9.711-2.7193 11.11-.466 13.208 3.1853 9.09 5.6715 4.584 8.0795-.544 5.983-.699 1.165c-4.6-9.074-18.545-12.435-24.943-12.98-14.831-1.8007-27.111 4.393-31.3975 7.715z" fill="#f0cd98"/><g stroke="#8e6636"><circle cx="26.5077" cy="26.5077" r="25.9397" stroke-width="1.136" transform="matrix(.847872 -.5302 .847872 .5302 77.635 109.103)"/><circle cx="12.0182" cy="12.0182" fill="#f0cd98" r="11.4502" stroke-width="1.136" transform="matrix(.847872 -.5302 .847872 .5302 102.302 114.347)"/><path d="m123.728 160.961v17.076" stroke-linecap="round" stroke-linejoin="round" stroke-width="1.136"/><path d="m92.3482 113.079c1.5917-2.389 3.9413-4.627 7.049-6.57 12.7408-7.967 33.3978-7.967 46.1388 0 3.261 2.04 5.688 4.404 7.28 6.926" stroke-width="1.136"/><path d="m158.838 151.05c0 2.038-1.315 4.455-2.878 5.432-1.562.978-2.877.205-2.877-1.833s1.315-4.455 2.877-5.432c1.563-.978 2.878-.205 2.878 1.833z" fill="#fff" stroke-width="1.136"/><path d="m169.586 144.33c0 2.039-1.315 4.455-2.877 5.433-1.563.977-2.878.204-2.878-1.834s1.315-4.455 2.878-5.432c1.562-.977 2.877-.205 2.877 1.833z" fill="#faf3b8" stroke-width="1.136"/><path d="m180.334 137.609c0 2.038-1.315 4.455-2.878 5.432s-2.877.205-2.877-1.834c0-2.038 1.314-4.454 2.877-5.432 1.563-.977 2.878-.204 2.878 1.834z" fill="#fff" stroke-width="1.136"/><path d="m77.6184 107.277-13.458.967" stroke-linecap="round" stroke-linejoin="round" stroke-width="1.136"/><path d="m166.708 109.651 13.456 1.011" stroke-linecap="round" stroke-linejoin="round" stroke-width="1.136"/><rect fill="#fff" height="81.9762" rx="4.22183" stroke-width="2" transform="matrix(.96592583 .25881905 -.25881905 .96592583 13.87361 -34.63993)" width="8.44365" x="138.495" y="35.3703"/><path d="m123.803 135.115.07 14.609" stroke-linecap="round" stroke-linejoin="round" stroke-width="1.136"/><path d="m120.36 68.9236v12.0705" stroke-linecap="round" stroke-linejoin="round" stroke-width="1.136"/><path d="m154.038 38.6153c-1.548 5.7785-7.534 9.2104-13.383 7.6433-5.848-1.5671-9.316-7.5322-7.768-13.3107s7.534-9.2105 13.383-7.6434c5.848 1.5672 9.316 7.5323 7.768 13.3108z" fill="#f1cc97" stroke-width="2"/></g></svg>