<svg fill="none" height="217" viewBox="0 0 235 217" width="235" xmlns="http://www.w3.org/2000/svg"><path clip-rule="evenodd" d="m108.39 211.755-95.8426-59.867c-3.46185-2.164-5.19297-5.001-5.1934-7.838v-37.914c.00043 2.837 1.7313 5.673 5.1926 7.838l97.2894 60.744c6.961 3.499 17.167 3.228 23.628-.811l89.006-55.658v.001c3.462-2.165 5.193-5.002 5.193-7.839v37.911c.001 2.838-1.73 5.676-5.193 7.842v-.001l-89.005 55.657c-6.531 4.084-16.889 4.317-23.855.697-.42-.218-.827-.45-1.22-.696z" fill="#fecb90" fill-rule="evenodd"/><path d="m7.33203 105.681v37.914c.00044 2.837 1.75696 5.674 5.26957 7.838l95.6524 60.324v.066c.399.246.812.478 1.238.696 7.068 3.62 17.579 3.387 24.206-.697l88.694-55.395c3.514-2.166 5.27-5.004 5.27-7.842v-37.911" stroke="#584115" stroke-width="2"/><rect fill="#fff" height="132.551" rx="13.4058" stroke="#584115" stroke-width="2" transform="matrix(.847872 .5302 -.847872 .5302 114.982 35.296)" width="140.613" y="1.0604"/><path d="m119.703 177.123v37.946" stroke="#584115" stroke-dasharray="2.26 4.88" stroke-linecap="round" stroke-linejoin="round" stroke-width="2"/><path d="m20.1484 128.829v14.176" stroke="#fff" stroke-linecap="round" stroke-width="1.98367"/><path d="m28.353 135.102v14.175" stroke="#fff" stroke-linecap="round" stroke-width="1.98367"/><path d="m36.563 141.379v14.175" stroke="#fff" stroke-linecap="round" stroke-width="1.98367"/><rect fill="#faf3b8" height="84.4025" rx="8.31882" stroke="#584115" stroke-width="1.82676" transform="matrix(.847872 .5302 -.847872 .5302 116.733 43.6289)" width="89.569" y=".968551"/><path clip-rule="evenodd" d="m50.9572 93.9923c-2.19-1.385-3.4505-3.2932-3.4509-5.0987v15.2454c.0003 1.818 1.2786 3.741 3.4971 5.128v-.15l61.3756 38.38v-.002c4.438 2.775 11.632 2.775 16.07 0v-.002l56.924-35.596v.007c2.219-1.388 3.328-3.207 3.328-5.026v-15.2439c0 1.7299-1.005 3.4598-3.013 4.8186l-57.246 35.7983v.002c-4.438 2.771-11.628 2.77-16.063-.004v.002l-61.4218-38.409z" fill="#faf3b8" fill-rule="evenodd"/><path d="m47.5249 88.8906v15.2454c.0003 1.818 1.2784 3.741 3.4966 5.128v-.15l61.3675 38.378c4.437 2.775 11.631 2.775 16.067 0v-.002l56.917-35.596v.007c2.218-1.388 3.328-3.207 3.327-5.026v-15.2438-.0014" stroke="#584115" stroke-width="2"/><path clip-rule="evenodd" d="m50.9567 79.2042c-2.19-1.385-3.4505-3.2932-3.4508-5.0987v15.2454c.0002 1.8183 1.2785 3.7407 3.4971 5.1281v-.1504l61.375 38.3794v-.001c4.438 2.775 11.633 2.775 16.07 0v-.002l56.924-35.5965v.0071c2.219-1.3877 3.329-3.2065 3.328-5.0253v-15.2443c0 1.7299-1.004 3.4598-3.012 4.8186l-57.246 35.7984v.002c-4.438 2.771-11.628 2.77-16.064-.004v.002l-61.4213-38.4091z" fill="#f2f7e0" fill-rule="evenodd"/><g stroke="#584115"><path d="m48.1855 74.1025v15.2455c.0003 1.8183 1.2664 3.7407 3.4639 5.128v-.1504l60.7916 38.3784c4.396 2.775 11.522 2.775 15.917 0v-.002l56.383-35.5964v.0071c2.198-1.3877 3.297-3.2065 3.297-5.0253v-15.2443-.0014" stroke-width="2"/><rect fill="#fff" height="84.2293" rx="8.2322" stroke-width="2" transform="matrix(.847872 .5302 -.847872 .5302 116.811 28.8839)" width="89.3957" y="1.0604"/><path d="m119.703 120.77v27.863" stroke-dasharray="2.26 4.88" stroke-linecap="round" stroke-linejoin="round" stroke-width="2"/><circle cx="23.3342" cy="23.3342" fill="#f2f7e0" r="22.2742" stroke-width="2.12013" transform="matrix(.847872 -.5302 .847872 .5302 79.1284 74.1064)"/><path d="m92.8662 77.5842c1.365-2.0485 3.3801-3.9677 6.0453-5.6343 10.9265-6.8327 28.6425-6.8327 39.5685 0 2.798 1.7493 4.879 3.7767 6.244 5.9399" stroke-width="2.12013"/><path d="m165.669 171.603c0 3.343-2.156 7.301-4.712 8.9-2.557 1.598-4.712.337-4.712-3.007 0-3.343 2.155-7.301 4.712-8.899 2.556-1.599 4.712-.337 4.712 3.006z" fill="#fff" stroke-width="1.98367"/><path d="m183.439 160.496c0 3.343-2.156 7.3-4.712 8.899-2.557 1.599-4.712.337-4.712-3.006 0-3.344 2.155-7.301 4.712-8.9 2.556-1.599 4.712-.337 4.712 3.007z" fill="#faf3b8" stroke-width="1.98367"/><path d="m201.209 149.382c0 3.344-2.156 7.301-4.712 8.9-2.557 1.599-4.712.337-4.712-3.007 0-3.343 2.155-7.3 4.712-8.899 2.556-1.599 4.712-.337 4.712 3.006z" fill="#fff" stroke-width="1.98367"/><path d="m118.698 22.7842-.125 56.9837" stroke-linecap="round" stroke-linejoin="round" stroke-width="3"/><path d="m128.213 11.3922c0 5.8162-4.335 10.3923-9.518 10.3923s-9.518-4.5761-9.518-10.3923c0-5.8161 4.335-10.3922 9.518-10.3922s9.518 4.5761 9.518 10.3922z" fill="#f6efaf" stroke-width="2"/><path d="m79.1144 72.4992-11.8468.8514" stroke-linecap="round" stroke-linejoin="round" stroke-width="2.3727"/><path d="m157.536 74.5886 11.844.8899" stroke-linecap="round" stroke-linejoin="round" stroke-width="2.3727"/><path d="m119.641 96.4483.062 12.8597" stroke-linecap="round" stroke-linejoin="round" stroke-width="2.3727"/></g></svg>