<svg width="231" height="169" viewBox="0 0 231 169" fill="none" xmlns="http://www.w3.org/2000/svg">
<path fill-rule="evenodd" clip-rule="evenodd" d="M4.91895 56.1191C4.91921 57.7324 5.89816 59.3456 7.8558 60.6365L143.014 138.691C147.658 141.372 156.142 141.922 160.786 139.241L222.374 103.683L222.376 103.682C224.696 102.342 225.857 100.585 225.857 98.8288V125.354C225.857 127.111 224.696 128.869 222.374 130.21L160.787 165.767C156.445 168.274 148.747 167.956 143.968 165.714V165.768L143.024 165.223L143.014 165.217L8.63115 87.6313L8.62923 87.6302L8.404 87.5002L8.40393 87.4966C6.21894 86.1661 4.91922 84.3445 4.91895 82.6456V56.1191Z" fill="#D3E6F4"/>
<path d="M5.97754 56.1211V82.6476C5.97781 84.3464 7.26511 86.168 9.42924 87.4985L9.42931 87.5021L143.698 165.77V165.716C148.432 167.958 156.057 168.276 160.357 165.769L221.356 130.212C223.656 128.871 224.806 127.113 224.806 125.356V98.8307V98.8294" stroke="#346F18" stroke-width="1.94816"/>
<rect x="-5.80596e-08" y="0.974078" width="174.007" height="88.589" rx="10.8541" transform="matrix(0.866025 0.5 -0.866025 0.5 79.2508 11.3366)" fill="white" stroke="#346F18" stroke-width="1.94816"/>
<rect x="-5.80596e-08" y="0.974078" width="26.1379" height="20.0049" rx="6.54415" transform="matrix(0.866025 0.5 -0.866025 0.5 110.817 2.30735)" fill="white" stroke="#346F18" stroke-width="1.94816"/>
<path d="M110.159 85.2225L96.5257 77.3289V77.3527C95.0499 76.5006 94.3119 75.3839 94.3117 74.2672L94.3096 12.7969C94.3097 13.7912 94.8948 14.7855 96.0648 15.593L110.157 23.7525C113.109 25.4565 117.895 25.4571 120.846 23.7529L129.387 18.8165C130.719 17.9826 131.384 16.922 131.384 15.8614L131.387 77.3308C131.387 78.4288 130.674 79.5268 129.248 80.3733C129.236 80.3803 129.224 80.3874 129.212 80.3944C129.199 80.402 129.186 80.4096 129.173 80.4172L120.848 85.2232C117.896 86.9275 113.11 86.9268 110.159 85.2225Z" fill="#B8FAE2"/>
<path d="M95.1064 13.3301V74.2664C95.1066 75.3832 95.813 76.4999 97.2255 77.3519V77.3281L110.274 85.2217C113.1 86.926 117.681 86.9267 120.506 85.2224L128.473 80.4164C128.486 80.4089 128.499 80.4013 128.511 80.3937C128.522 80.3866 128.534 80.3796 128.545 80.3726C129.91 79.526 130.593 78.4281 130.593 77.3301V16.3946" stroke="#346F18" stroke-width="1.94816"/>
<path d="M115.271 25.0234L115.271 86.4972" stroke="#346F18" stroke-width="1.94816" stroke-linejoin="round" stroke-dasharray="1.85 4.01"/>
<rect x="-5.80596e-08" y="0.974078" width="26.1379" height="20.0049" rx="6.54415" transform="matrix(0.866025 0.5 -0.866025 0.5 68.9774 1.29173)" fill="white" stroke="#346F18" stroke-width="1.94816"/>
<path d="M68.1056 61.3949L54.4727 53.5013V53.5251C52.997 52.673 52.259 51.5563 52.2588 50.4396V11.7812C52.259 12.7756 52.844 13.7699 54.014 14.5774L68.1061 22.7369C71.0581 24.4409 75.8438 24.4414 78.7955 22.7372L87.3365 17.8009C88.6678 16.967 89.3335 15.9064 89.3336 14.8458V53.5032C89.3338 54.6012 88.6208 55.6992 87.1946 56.5457C87.1828 56.5527 87.1708 56.5598 87.1589 56.5668C87.1459 56.5744 87.1328 56.582 87.1197 56.5896L78.7955 61.3956C75.8436 63.0999 71.0575 63.0992 68.1056 61.3949Z" fill="#F6F3AF"/>
<path d="M53.0518 12.0879V50.4392C53.0519 51.5559 53.7583 52.6726 55.1708 53.5247V53.5009L68.2195 61.3945C71.0449 63.0988 75.6259 63.0995 78.4513 61.3952L86.4188 56.5892C86.4313 56.5816 86.4438 56.574 86.4563 56.5664C86.4677 56.5594 86.4791 56.5524 86.4905 56.5453C87.8556 55.6988 88.538 54.6008 88.5379 53.5029V15.1524" stroke="#346F18" stroke-width="1.94816"/>
<path d="M73.2158 23.3184L73.2158 62.6677" stroke="#346F18" stroke-width="1.94816" stroke-linejoin="round" stroke-dasharray="1.85 4.01"/>
<rect x="-5.80596e-08" y="0.974078" width="26.1379" height="20.0049" rx="6.54415" transform="matrix(0.866025 0.5 -0.866025 0.5 154.157 0.487039)" fill="white" stroke="#346F18" stroke-width="1.94816"/>
<path d="M153.285 109.356L139.652 101.462V101.486C138.177 100.634 137.439 99.5173 137.438 98.4006V11.0547C137.439 12.049 138.024 13.0433 139.194 13.8508L153.286 22.0103C156.238 23.7143 161.023 23.7149 163.975 22.0107L172.516 17.0743C173.847 16.2405 174.513 15.1798 174.513 14.1192V101.464C174.514 102.562 173.801 103.66 172.374 104.507C172.362 104.514 172.351 104.521 172.339 104.528C172.326 104.535 172.312 104.543 172.299 104.551L163.975 109.357C161.023 111.061 156.237 111.06 153.285 109.356Z" fill="#80D9FF"/>
<path d="M138.231 11.3477V98.3985C138.232 99.5153 138.938 100.632 140.351 101.484V101.46L153.399 109.354C156.225 111.058 160.806 111.059 163.631 109.355L171.598 104.549C171.611 104.541 171.624 104.533 171.636 104.526C171.647 104.519 171.659 104.512 171.67 104.505C173.035 103.658 173.718 102.56 173.718 101.462V14.4122" stroke="#346F18" stroke-width="1.94816"/>
<path d="M158.376 22.6484L158.397 110.628" stroke="#346F18" stroke-width="1.94816" stroke-linejoin="round" stroke-dasharray="1.85 4.01"/>
<path d="M152.419 141.027V166.766" stroke="#346F18" stroke-width="1.94816" stroke-linecap="round" stroke-linejoin="round" stroke-dasharray="1.85 4.01"/>
<path d="M82.3112 83.1619C81.73 82.8264 80.7876 82.8264 80.2064 83.1619C79.6252 83.4975 79.6252 84.0416 80.2064 84.3771L82.3112 83.1619ZM119.373 106.634C120.195 106.634 120.861 106.249 120.861 105.775L120.861 98.0412C120.861 97.5666 120.195 97.1819 119.373 97.1819C118.551 97.1819 117.884 97.5666 117.884 98.0412L117.884 104.915L105.978 104.915C105.156 104.915 104.49 105.3 104.49 105.775C104.49 106.249 105.156 106.634 105.978 106.634L119.373 106.634ZM80.2064 84.3771L118.32 106.382L120.425 105.167L82.3112 83.1619L80.2064 84.3771Z" fill="#346F18"/>
<path d="M77.354 81.1276L72.54 78.334" stroke="#346F18" stroke-width="2.43036" stroke-linecap="round"/>
</svg>
