<svg fill="none" height="247" viewBox="0 0 286 247" width="286" xmlns="http://www.w3.org/2000/svg"><path d="m33.6455 172.046c-.8442-.487-1.3185-1.148-1.3186-1.837l-.0021-23.273c-.0001-.691.4757-1.353 1.3223-1.84l104.2189-60.0295c1.758-1.0126 4.604-1.0121 6.361.0009l107.017 61.7056c.846.487 1.321 1.149 1.321 1.839l.003 22.958c0 .688-.472 1.348-1.313 1.835l-104.229 60.418c-1.757 1.019-4.612 1.021-6.373.004z" fill="#9eca68" stroke="#346f18" stroke-width="2"/><rect fill="#cbf693" height="130.6" rx="3.67586" stroke="#346f18" stroke-width="2" transform="matrix(.866025 -.5 .866025 .5 29.6774 147.42)" width="127.384" x="1.73205"/><path d="m144.26 211.179v24.075" stroke="#346f18"/><path d="m246.203 165.422-11.916 7.149" stroke="#fff" stroke-linecap="round"/><g stroke="#346f18"><path d="m108.991 126.037c-.95-.549-1.485-1.293-1.485-2.069l.001-85.3067c0-.7774.535-1.5228 1.489-2.0718l18.287-10.5332c1.979-1.1401 5.183-1.1396 7.162.0011l18.916 10.907c.952.549 1.487 1.2939 1.487 2.0708v85.2408c0 .774-.531 1.516-1.478 2.065l-18.298 10.607c-1.978 1.147-5.193 1.149-7.176.004z" fill="#b7e380" stroke-width="2"/><rect fill="#e7ffc7" height="30.2128" rx="4.28877" stroke-width="1.7" transform="matrix(.866025 -.5 .866025 .5 104.199 39.9285)" width="29.4387" x="1.47224"/><path d="m131.342 52.5205v85.8695"/><path d="m110.502 145.99c0 1.167-.527 2.335-1.593 3.459-1.07 1.129-2.654 2.179-4.668 3.078-4.026 1.796-9.6401 2.926-15.8816 2.926-6.2414 0-11.8559-1.13-15.8819-2.926-2.0139-.899-3.5974-1.949-4.6673-3.078-1.0663-1.124-1.5933-2.292-1.5933-3.459 0-.605.0001-1.686.0001-2.99.0002-2.768.0004-6.546.0002-8.939.7938-.436 1.9049-.611 3.3429-.557 1.6216.06 3.5301.405 5.6218.852.7329.157 1.4881.326 2.2583.499 3.5643.801 7.449 1.673 10.9192 1.673 3.1588 0 7.035-.923 10.6865-1.793.7124-.169 1.4161-.337 2.1051-.495 2.139-.493 4.137-.899 5.848-1.04 1.495-.123 2.668-.032 3.503.302v.003.024.024.025.024.025.024.025.025.024.025.025.025.025.025.025.025.025.025.025.026.025.025.026.025.026.025.026.026.026.025.026.026.026.026.026.026.026.026.026.026.027.026.026.027.026.027.026.027.026.027.027.026.027.027.027.027.027.026.027.027.028.027.027.027.027.027.028.027.027.028.027.028.027.028.027.028.027.028.028.027.028.028.028.027.028.028.028.028.028.028.028.028.028.028.028.029.028.028.028.028.029.028.028.029.028.029.028.028.029.028.029.028.029.029.028.029.028.029.029.028.029.029.029.028.029.029.029.029.028.029.029.029.029.029.029.029.029.029.029.029.029.029.029.029.029.029.029.029.029.029.029.03.029.029.029.029.029.03.029.029.029.029.029.03.029.029.029.03.029.029.029.029.03.029.029.029.03.029.029.029.03.029.029.029.029.03.029.029.029.03.029.029.029.029.03.029.029.029.029.03.029.029.029.029.029.029.03.029.029.029.029.029.029.029.029.029.029.029.029.029.029.029.029.029.029.029.029.028.029.029.029.029.029.028.029.029.029.028.029.029.028.029.028.029.029.028.029.028.029.028.028.029.028.029.028.028.029.028.028.028.028.029.028.028.028.028.028.028.028.028.028.028.028.027.028.028.028.028.027.028.027.028.028.027.028.027.027.028.027.028.027.027.027.027.028.027.027.027.027.027.027.027.026.027.027.027.026.027.027.026.027.026.027.026.026.027.026.026.026.026.027.026.026.026.025.026.026.026.026.025.026.026.025.026.025.025.026.025.025.025.026.025.025.025.025.025.024.025.025.025.024.025.024.025.024.024.025.024.024.024.024.024.024.024.024.024.024.023.024.023.024.023.024.023.023.023.023.024.023.022.023.023.023.023.022.023.022.023.022.022.023.022.022.022.022.022.021.022.022.021.022.022.021.021.022.021.021.021.021.021.021.02.021.021.02.021.02.02.021.02.02.02.02.02.02.019.02.019.02.019.02.019.019.019.019.019.019.019.018.019.019.018.018.019.018.018.018.018.018.017.018.018.017.018.017.017.018.017.017.016.017.017.017.016.017.016.016.017.016.016.016.015.016.016.015.016.015.016.015.015.015.015.015.014.015.014.015.014.014.015.014z" fill="#efcc99" stroke-width="1.5"/><path d="m110.808 133.123c0 1.266-.574 2.505-1.677 3.67-1.106 1.166-2.728 2.237-4.765 3.146-4.074 1.817-9.7325 2.952-16.0067 2.952-6.2741 0-11.9329-1.135-16.0065-2.952-2.0374-.909-3.6587-1.98-4.7648-3.146-1.1038-1.165-1.6772-2.404-1.6772-3.67s.5734-2.505 1.6772-3.669c1.1061-1.167 2.7274-2.237 4.7648-3.146 4.0736-1.817 9.7324-2.953 16.0065-2.953 6.2742 0 11.9327 1.136 16.0067 2.953 2.037.909 3.659 1.979 4.765 3.146 1.103 1.164 1.677 2.403 1.677 3.669z" fill="#fff3d6" stroke-width=".888089"/><path d="m110.502 133.123c0 1.167-.527 2.335-1.593 3.459-1.07 1.129-2.654 2.179-4.668 3.077-4.026 1.796-9.6401 2.926-15.8816 2.926-6.2414 0-11.8559-1.13-15.8819-2.926-2.0139-.898-3.5974-1.948-4.6673-3.077-1.0663-1.124-1.5933-2.292-1.5933-3.459 0-.605.0001-1.686.0001-2.99.0002-2.769.0004-6.546.0002-8.939.7938-.437 1.9049-.611 3.3429-.558 1.6216.061 3.5301.405 5.6218.853.7329.156 1.4881.326 2.2583.499 3.5643.801 7.449 1.673 10.9192 1.673 3.1588 0 7.035-.923 10.6865-1.793.7124-.169 1.4161-.337 2.1051-.496 2.139-.492 4.137-.899 5.848-1.039 1.495-.123 2.668-.032 3.503.301v.004.024.024.025.024.025.024.025.025.024.025.025.025.025.025.025.025.025.025.025.026.025.025.026.025.026.025.026.026.025.026.026.026.026.026.026.026.026.026.026.026.027.026.026.027.026.026.027.027.026.027.026.027.027.027.027.026.027.027.027.027.027.027.028.027.027.027.027.028.027.028.027.027.028.027.028.027.028.028.027.028.028.028.027.028.028.028.028.028.028.028.028.028.028.028.028.028.029.028.028.028.029.028.028.029.028.028.029.028.029.028.029.028.029.028.029.029.028.029.029.028.029.029.028.029.029.029.029.028.029.029.029.029.029.029.029.029.029.029.029.029.029.029.029.029.029.029.029.029.029.029.029.029.03.029.029.029.029.029.029.03.029.029.029.029.03.029.029.029.03.029.029.029.029.03.029.029.029.03.029.029.029.03.029.029.029.03.029.029.029.029.03.029.029.029.029.03.029.029.029.029.03.029.029.029.029.029.029.029.03.029.029.029.029.029.029.029.029.029.029.029.029.029.029.029.029.029.028.029.029.029.029.029.028.029.029.029.028.029.029.028.029.029.028.029.028.029.028.029.028.029.028.029.028.028.029.028.028.029.028.028.028.028.029.028.028.028.028.028.028.028.028.028.027.028.028.028.028.027.028.028.027.028.027.028.027.028.027.028.027.027.028.027.027.027.027.027.028.027.027.027.026.027.027.027.027.026.027.027.026.027.026.027.026.027.026.026.027.026.026.026.026.026.026.026.026.026.026.026.025.026.026.025.026.025.026.025.026.025.025.025.025.025.026.025.024.025.025.025.025.024.025.025.024.025.024.024.025.024.024.024.024.024.024.024.024.024.023.024.024.023.024.023.023.024.023.023.023.023.023.023.023.023.023.022.023.023.022.022.023.022.022.022.023.022.022.021.022.022.022.021.022.021.022.021.021.022.021.021.021.021.02.021.021.02.021.021.02.02.02.021.02.02.02.02.019.02.02.019.02.019.019.02.019.019.019.019.019.019.018.019.018.019.018.018.019.018.018.018.018.017.018.018.017.018.017.017.017.017.017.017.017.017.017.016.017.016.016.016.017.016.015.016.016.016.015.016.015.015.016.015.015.015.014.015.015.014.015.014.014.014.014z" fill="#efcc99" stroke-width="1.5"/><path d="m110.808 120.256c0 1.266-.574 2.505-1.677 3.669-1.106 1.167-2.728 2.238-4.765 3.147-4.074 1.817-9.7325 2.952-16.0067 2.952-6.2741 0-11.9329-1.135-16.0065-2.952-2.0374-.909-3.6587-1.98-4.7648-3.147-1.1038-1.164-1.6772-2.403-1.6772-3.669s.5734-2.505 1.6772-3.669c1.1061-1.167 2.7274-2.238 4.7648-3.146 4.0736-1.818 9.7324-2.953 16.0065-2.953 6.2742 0 11.9327 1.135 16.0067 2.953 2.037.908 3.659 1.979 4.765 3.146 1.103 1.164 1.677 2.403 1.677 3.669z" fill="#fff3d6" stroke-width=".888089"/><path d="m110.502 120.256c0 1.167-.527 2.335-1.593 3.459-1.07 1.129-2.654 2.179-4.668 3.077-4.026 1.796-9.6401 2.926-15.8816 2.926-6.2414 0-11.8559-1.13-15.8819-2.926-2.0139-.898-3.5974-1.948-4.6673-3.077-1.0663-1.124-1.5933-2.292-1.5933-3.459 0-.606.0001-1.686.0001-2.991.0002-2.768.0004-6.545.0002-8.939.7938-.436 1.9049-.611 3.3429-.557 1.6216.061 3.5301.405 5.6218.853.7329.156 1.4881.326 2.2583.499 3.5643.8 7.449 1.673 10.9192 1.673 3.1588 0 7.035-.923 10.6865-1.793.7124-.17 1.4161-.337 2.1051-.496 2.139-.492 4.137-.899 5.848-1.039 1.495-.123 2.668-.033 3.503.301v.003.025.024.025.024.024.025.025.024.025.025.025.025.024.025.025.026.025.025.025.025.026.025.026.025.026.025.026.025.026.026.026.026.025.026.026.026.027.026.026.026.026.027.026.026.027.026.027.026.027.027.026.027.027.027.026.027.027.027.027.027.027.027.027.028.027.027.027.028.027.027.028.027.028.027.028.027.028.028.027.028.028.027.028.028.028.028.028.028.028.028.028.028.028.028.028.028.028.029.028.028.028.029.028.028.029.028.029.028.029.028.029.028.029.028.029.028.029.029.028.029.029.029.028.029.029.029.028.029.029.029.029.029.029.029.028.029.029.029.029.029.029.029.029.029.03.029.029.029.029.029.029.029.029.029.03.029.029.029.029.029.03.029.029.029.029.03.029.029.029.03.029.029.029.03.029.029.029.029.03.029.029.029.03.029.029.029.03.029.029.029.029.03.029.029.029.029.03.029.029.029.029.03.029.029.029.029.029.029.029.029.03.029.029.029.029.029.029.029.029.029.029.029.029.029.028.029.029.029.029.029.029.028.029.029.029.028.029.029.029.028.029.028.029.029.028.029.028.029.028.029.028.028.029.028.029.028.028.028.029.028.028.028.028.029.028.028.028.028.028.028.028.027.028.028.028.028.027.028.028.027.028.028.027.028.027.028.027.027.028.027.027.028.027.027.027.027.027.027.027.027.027.027.027.027.027.026.027.027.026.027.026.027.026.027.026.026.027.026.026.026.026.026.026.026.026.026.026.026.025.026.026.025.026.025.026.025.025.026.025.025.025.025.025.025.025.025.025.025.025.024.025.024.025.024.025.024.024.025.024.024.024.024.024.024.024.023.024.024.023.024.023.024.023.024.023.023.023.023.023.023.023.023.023.022.023.022.023.022.023.022.022.022.022.022.022.022.022.022.022.021.022.021.022.021.021.021.021.022.02.021.021.021.021.02.021.02.021.02.02.02.021.02.02.019.02.02.02.019.02.019.019.02.019.019.019.019.019.018.019.019.018.019.018.018.018.019.018.017.018.018.018.017.018.017.018.017.017.017.017.017.017.017.016.017.016.017.016.016.016.016.016.016.016.015.016.016.015.015.015.015.015.015.015.015.014.015.014.015.014.014.014z" fill="#efcc99" stroke-width="1.5"/><path d="m110.502 107.389c0 1.167-.527 2.334-1.593 3.459-1.07 1.128-2.654 2.179-4.668 3.077-4.026 1.796-9.6402 2.926-15.8817 2.926-6.2414 0-11.8559-1.13-15.8819-2.926-2.0139-.898-3.5974-1.949-4.6673-3.077-1.0663-1.125-1.5933-2.292-1.5933-3.459s.527-2.335 1.5933-3.459c1.0699-1.129 2.6534-2.179 4.6673-3.077 4.026-1.7962 9.6405-2.9262 15.8819-2.9262 6.2415 0 11.8557 1.13 15.8817 2.9262 2.014.898 3.598 1.948 4.668 3.077 1.066 1.124 1.593 2.292 1.593 3.459z" fill="#fff3d6" stroke-width="1.5"/><path d="m166.167 147.37c-.986-.569-1.539-1.34-1.539-2.145l.001-67.1436c0-.8055.555-1.578 1.543-2.1469l18.287-10.5332c2.051-1.1814 5.371-1.1809 7.421.0011l18.917 10.907c.986.5689 1.541 1.3409 1.541 2.1459l-.001 67.0777c0 .802-.551 1.572-1.531 2.14l-18.299 10.607c-2.05 1.189-5.381 1.191-7.435.005z" fill="#eaebc4" stroke-width="1.7"/><rect fill="#fff" height="29.9128" rx="4.13877" stroke-width="2" transform="matrix(.866025 -.5 .866025 .5 161.539 78.8231)" width="29.1387" x="1.73205"/><path d="m189.043 91.459v67.985"/><path d="m120.55 185.431c-.985-.568-1.539-1.34-1.539-2.144l.001-57.697c0-.806.555-1.578 1.543-2.147l18.287-10.533c2.051-1.181 5.372-1.181 7.422.001l18.916 10.907c.987.569 1.541 1.341 1.541 2.146l-.001 57.631c0 .802-.55 1.572-1.531 2.14l-18.298 10.607c-2.05 1.188-5.382 1.19-7.436.004z" fill="#c3f4f4" stroke-width="1.7"/><rect fill="#e4ffff" height="30.2128" rx="4.28877" stroke-width="1.7" transform="matrix(.866025 -.5 .866025 .5 115.889 125.679)" width="29.4387" x="1.47224"/><path d="m143.359 139.23v58.489"/><circle cx="4.22941" cy="4.22941" fill="#eaebc4" r="3.74371" stroke-width=".971385" transform="matrix(.866025 -.5 0 1 152.467 215.517)"/><circle cx="4.22941" cy="4.22941" fill="#eaebc4" r="3.74371" stroke-width=".971385" transform="matrix(.866025 -.5 0 1 164.613 208.053)"/><circle cx="4.22941" cy="4.22941" fill="#eaebc4" r="3.74371" stroke-width=".971385" transform="matrix(.866025 -.5 0 1 176.322 200.381)"/></g></svg>