<svg width="241" height="210" viewBox="0 0 241 210" fill="none" xmlns="http://www.w3.org/2000/svg">
<path d="M232.475 -29.3345L139.717 28.9868C124.328 38.663 114.545 57.5076 114.154 78.2293L112.084 188.077C111.765 205.013 96.3831 215.412 84.0107 207.055C74.5889 200.691 68.7666 188.787 68.7666 175.886V64.825C68.7666 60.465 66.7713 56.4516 63.5614 54.3555C56.8806 49.9927 48.717 55.7504 48.717 64.825V121.58C48.717 136.13 35.9276 145.659 24.942 139.293C15.8356 134.017 10.0562 123.013 10.0562 110.951V26.8772C10.0562 22.452 8.03865 18.3759 4.7878 16.2332C-2.01976 11.7463 -10.3715 17.6104 -10.3715 26.8772V87.5676C-10.3715 100.206 -17.8394 109.866 -27.016 112.362C-27.8045 112.577 -28.435 113.194 -28.5816 113.998C-30.1306 122.491 -31.1507 130.957 -41.0807 129.791C-50.6489 128.668 -53 119.092 -53 114.219V-32.7194C-53 -53.8655 -43.1936 -73.2822 -27.5092 -83.1911L70.4509 -145.079C83.2969 -153.195 98.7298 -152.954 111.393 -144.44L232.871 -62.7601C243.886 -55.3539 243.661 -36.3677 232.475 -29.3345Z" fill="#C3F4F4"/>
</svg>
