<svg width="242" height="290" viewBox="0 0 242 290" fill="none" xmlns="http://www.w3.org/2000/svg">
<path d="M-43.475 239.335L49.2828 181.013C64.6724 171.337 74.455 152.492 74.8456 131.771L76.9159 21.923C77.2351 4.9866 92.6169 -5.41169 104.989 2.94501C114.411 9.30873 120.233 21.2134 120.233 34.1139L120.233 145.175C120.233 149.535 122.229 153.548 125.439 155.645C132.119 160.007 140.283 154.25 140.283 145.175V88.4205C140.283 73.8699 153.072 64.341 164.058 70.7066C173.164 75.9834 178.944 86.9872 178.944 99.0488V183.123C178.944 187.548 180.961 191.624 184.212 193.767C191.02 198.254 199.372 192.39 199.372 183.123V122.432C199.372 109.794 206.839 100.134 216.016 97.6379C216.805 97.4234 217.435 96.8055 217.582 96.0017C219.131 87.5088 220.151 79.0431 230.081 80.2087C239.649 81.3319 242 90.9076 242 95.7809V242.719C242 263.865 232.194 283.282 216.509 293.191L118.549 355.079C105.703 363.195 90.2702 362.954 77.6074 354.44L-43.8709 272.76C-54.8859 265.354 -54.6611 246.368 -43.475 239.335Z" fill="#C3F4F4" fill-opacity="0.5"/>
</svg>
