<svg width="166" height="209" viewBox="0 0 166 209" fill="none" xmlns="http://www.w3.org/2000/svg">
<path d="M2.37256 141.285L2.37256 162.962L20.3091 172.975L38.2456 161.186V141.285" stroke="white" stroke-width="0.655535"/>
<rect width="20.0263" height="20.0263" transform="matrix(0.866025 0.5 -0.866025 0.5 20.3132 131.277)" stroke="white" stroke-width="0.655535"/>
<path d="M20.3132 151.305L20.3132 171.885" stroke="white" stroke-width="0.655535" stroke-linecap="round" stroke-linejoin="round"/>
<path d="M126.775 140.723L126.775 161.416L144.711 172.412L162.648 162.399V140.723" stroke="white" stroke-width="0.655535"/>
<rect width="20.0263" height="20.0263" transform="matrix(0.866025 0.5 -0.866025 0.5 144.715 130.715)" stroke="white" stroke-width="0.655535"/>
<path d="M144.715 150.74L144.715 171.32" stroke="white" stroke-width="0.655535" stroke-linecap="round" stroke-linejoin="round"/>
<path d="M65.208 176.746L65.208 198.422L83.1445 208.436L101.081 198.422V176.746" stroke="white" stroke-width="0.655535"/>
<rect width="20.0263" height="20.0263" transform="matrix(0.866025 0.5 -0.866025 0.5 83.1487 166.738)" stroke="white" stroke-width="0.655535"/>
<path d="M83.1487 186.766L83.1487 207.346" stroke="white" stroke-width="0.655535" stroke-linecap="round" stroke-linejoin="round"/>
<path d="M65.208 106.055L65.208 127.731L83.1445 137.744L101.081 127.731V106.055" stroke="white" stroke-width="0.655535"/>
<rect width="20.0263" height="20.0263" transform="matrix(0.866025 0.5 -0.866025 0.5 83.1487 96.0391)" stroke="white" stroke-width="0.655535"/>
<path d="M83.1487 116.066L83.1487 136.646" stroke="white" stroke-width="0.655535" stroke-linecap="round" stroke-linejoin="round"/>
<rect x="-1.95365e-08" y="0.327768" width="92.1495" height="92.1495" transform="matrix(0.866025 0.5 -0.866025 0.5 83.1476 94.6561)" stroke="white" stroke-width="0.655535"/>
<path d="M1.11426 92.2462V106.689L82.7672 154.242L164.486 106.689V92.2462L78.7252 79.3281L1.11426 92.2462Z" fill="#131313"/>
<path d="M1.11426 92.2461V106.689L82.7672 154.242L164.486 106.689V92.2461" stroke="white" stroke-width="0.601826" stroke-linejoin="round"/>
<rect x="-1.79358e-08" y="0.300913" width="94.503" height="94.503" transform="matrix(0.866025 0.5 -0.866025 0.5 83.0069 44.8633)" fill="#131313" stroke="white" stroke-width="0.601826"/>
<path d="M82.7988 154.261V139.359" stroke="white" stroke-width="0.601826" stroke-linecap="round" stroke-linejoin="round"/>
<path d="M33.3806 35.7853C33.3806 30.4002 36.3131 25.4433 41.0307 22.8529L77.2749 2.95199L76.9186 2.30295L77.2749 2.95199C81.6919 0.526702 87.0408 0.526703 91.4578 2.95199L127.702 22.8529C132.42 25.4433 135.352 30.4002 135.352 35.7853V79.4124C135.352 84.7976 132.42 89.7545 127.702 92.3449L91.4578 112.246C87.0408 114.671 81.6919 114.671 77.275 112.246L41.0307 92.3449C36.3131 89.7545 33.3806 84.7976 33.3806 79.4124V35.7853Z" fill="#131313" stroke="white" stroke-width="1.48089"/>
<mask id="path-19-inside-1_10789_2011" fill="white">
<path fill-rule="evenodd" clip-rule="evenodd" d="M60.746 11.3276L40.8703 21.877C35.8081 24.564 32.6431 29.8288 32.6431 35.5627V75.406C32.6431 76.7274 33.4019 79.324 36.4901 79.6285C38.7889 79.8552 39.6082 78.7383 40.0722 77.2388C40.4861 75.9014 41.5533 74.9063 42.7845 74.241C44.8873 73.1046 46.4016 70.8956 46.4016 68.1794V51.7227C46.4016 49.21 49.097 47.62 51.2943 48.8366C52.3434 49.4175 52.9947 50.5228 52.9947 51.7227V74.52C52.9947 77.7905 54.86 80.7742 57.7991 82.2052C61.3447 83.9311 65.4725 81.3474 65.4725 77.4018V62.0126C65.4725 59.552 68.1074 57.9907 70.2635 59.1736C71.2996 59.742 71.9437 60.8302 71.9437 62.0126V92.1275C71.9437 95.6256 73.8229 98.8536 76.8637 100.579C80.8569 102.845 85.8214 100.025 85.9245 95.4331L86.5926 65.6471C86.7187 60.0284 89.876 54.9185 94.8432 52.2947L112.113 43.1725L111.121 43.5895C111.59 43.2803 112.137 42.9585 112.718 42.6169C116.076 40.6428 120.562 38.0057 117.491 33.3021C115.665 30.5065 112.428 29.3642 109.171 28.2145C106.298 27.2009 103.41 26.1815 101.457 24.0182C100.301 22.7374 99.6718 21.3222 99.0531 19.9313C97.7595 17.0231 96.513 14.221 90.5991 12.9757C87.4027 12.3026 85.1022 12.6741 83.1303 12.9925C80.7774 13.3725 78.8923 13.677 76.5111 12.0413C72.3666 9.19417 64.6626 10.0841 59.2193 12.1637L60.746 11.3276ZM79.266 3.4942L74.1412 4.35288C75.7927 3.73841 77.5329 3.4526 79.266 3.4942Z"/>
</mask>
<path fill-rule="evenodd" clip-rule="evenodd" d="M60.746 11.3276L40.8703 21.877C35.8081 24.564 32.6431 29.8288 32.6431 35.5627V75.406C32.6431 76.7274 33.4019 79.324 36.4901 79.6285C38.7889 79.8552 39.6082 78.7383 40.0722 77.2388C40.4861 75.9014 41.5533 74.9063 42.7845 74.241C44.8873 73.1046 46.4016 70.8956 46.4016 68.1794V51.7227C46.4016 49.21 49.097 47.62 51.2943 48.8366C52.3434 49.4175 52.9947 50.5228 52.9947 51.7227V74.52C52.9947 77.7905 54.86 80.7742 57.7991 82.2052C61.3447 83.9311 65.4725 81.3474 65.4725 77.4018V62.0126C65.4725 59.552 68.1074 57.9907 70.2635 59.1736C71.2996 59.742 71.9437 60.8302 71.9437 62.0126V92.1275C71.9437 95.6256 73.8229 98.8536 76.8637 100.579C80.8569 102.845 85.8214 100.025 85.9245 95.4331L86.5926 65.6471C86.7187 60.0284 89.876 54.9185 94.8432 52.2947L112.113 43.1725L111.121 43.5895C111.59 43.2803 112.137 42.9585 112.718 42.6169C116.076 40.6428 120.562 38.0057 117.491 33.3021C115.665 30.5065 112.428 29.3642 109.171 28.2145C106.298 27.2009 103.41 26.1815 101.457 24.0182C100.301 22.7374 99.6718 21.3222 99.0531 19.9313C97.7595 17.0231 96.513 14.221 90.5991 12.9757C87.4027 12.3026 85.1022 12.6741 83.1303 12.9925C80.7774 13.3725 78.8923 13.677 76.5111 12.0413C72.3666 9.19417 64.6626 10.0841 59.2193 12.1637L60.746 11.3276ZM79.266 3.4942L74.1412 4.35288C75.7927 3.73841 77.5329 3.4526 79.266 3.4942Z" fill="white"/>
<path d="M40.8703 21.877L39.183 18.6979L39.1829 18.698L40.8703 21.877ZM60.746 11.3276L62.4748 14.4843L59.0587 8.14853L60.746 11.3276ZM36.4901 79.6285L36.8433 76.0468L36.8432 76.0468L36.4901 79.6285ZM40.0722 77.2388L43.5105 78.3028L43.5105 78.3028L40.0722 77.2388ZM42.7845 74.241L44.4955 77.4074L44.4956 77.4073L42.7845 74.241ZM51.2943 48.8366L53.0377 45.688L53.0377 45.6879L51.2943 48.8366ZM57.7991 82.2052L56.2237 85.4412L56.2238 85.4412L57.7991 82.2052ZM70.2635 59.1736L68.5324 62.3291L68.5325 62.3291L70.2635 59.1736ZM76.8637 100.579L78.6401 97.4488L78.6399 97.4487L76.8637 100.579ZM85.9245 95.4331L89.5227 95.5139V95.5139L85.9245 95.4331ZM86.5926 65.6471L82.9944 65.5664V65.5664L86.5926 65.6471ZM94.8432 52.2947L93.1621 49.1123L93.1621 49.1123L94.8432 52.2947ZM112.113 43.1725L113.794 46.3549L110.717 39.8548L112.113 43.1725ZM111.121 43.5895L109.139 40.5855L112.516 46.9072L111.121 43.5895ZM112.718 42.6169L114.542 45.7196L114.542 45.7196L112.718 42.6169ZM117.491 33.3021L114.477 35.27L114.477 35.27L117.491 33.3021ZM109.171 28.2145L110.368 24.8205L109.171 28.2145ZM101.457 24.0182L104.129 21.6067L104.129 21.6066L101.457 24.0182ZM99.0531 19.9313L102.342 18.4686V18.4686L99.0531 19.9313ZM90.5991 12.9757L89.8575 16.4975L89.8575 16.4975L90.5991 12.9757ZM83.1303 12.9925L82.5565 9.43947H82.5565L83.1303 12.9925ZM76.5111 12.0413L74.4732 15.0079L74.4733 15.0079L76.5111 12.0413ZM59.2193 12.1637L57.4905 9.007L60.5037 15.5258L59.2193 12.1637ZM79.266 3.4942L79.8608 7.04383L79.3524 -0.103883L79.266 3.4942ZM74.1412 4.35288L72.8862 0.979666L74.7359 7.90251L74.1412 4.35288ZM42.5577 25.0561L62.4334 14.5067L59.0587 8.14853L39.183 18.6979L42.5577 25.0561ZM36.2422 35.5627C36.2422 31.1598 38.6725 27.1183 42.5577 25.056L39.1829 18.698C32.9437 22.0097 29.044 28.4978 29.044 35.5627H36.2422ZM36.2422 75.406V35.5627H29.044V75.406H36.2422ZM36.8432 76.0468C36.5679 76.0196 36.4659 75.9569 36.4542 75.9498C36.4382 75.9401 36.4198 75.9268 36.391 75.8841C36.3557 75.8318 36.3127 75.7445 36.2801 75.6258C36.2646 75.5694 36.2544 75.5165 36.2484 75.4721C36.2422 75.4264 36.2422 75.4026 36.2422 75.406H29.044C29.044 76.6346 29.3719 78.3525 30.426 79.9131C31.5767 81.6168 33.4839 82.9487 36.1369 83.2103L36.8432 76.0468ZM36.634 76.1748C36.601 76.2813 36.5728 76.3588 36.5501 76.4139C36.5391 76.4409 36.5301 76.4606 36.5237 76.4739C36.5205 76.4805 36.518 76.4854 36.5163 76.4887C36.5146 76.4919 36.5137 76.4935 36.5138 76.4934C36.515 76.4912 36.5767 76.3854 36.7265 76.266C36.7994 76.208 36.8777 76.1593 36.9555 76.1219C37.0326 76.085 37.0931 76.0669 37.1266 76.059C37.1887 76.0443 37.1173 76.0738 36.8433 76.0468L36.1369 83.2103C37.915 83.3856 39.7211 83.0837 41.2119 81.896C42.6026 80.788 43.2002 79.3055 43.5105 78.3028L36.634 76.1748ZM41.0735 71.0746C39.361 72 37.4245 73.6201 36.634 76.1749L43.5105 78.3028C43.5477 78.1826 43.7456 77.8126 44.4955 77.4074L41.0735 71.0746ZM42.8024 68.1794C42.8024 69.4764 42.101 70.5193 41.0733 71.0747L44.4956 77.4073C47.6736 75.6899 50.0007 72.3148 50.0007 68.1794H42.8024ZM42.8024 51.7227V68.1794H50.0007V51.7227H42.8024ZM53.0377 45.6879C48.4384 43.1413 42.8024 46.4716 42.8024 51.7227H50.0007C50.0007 51.7527 49.989 51.8154 49.9517 51.8781C49.9199 51.9319 49.883 51.9632 49.8526 51.9811C49.8221 51.9991 49.7765 52.0164 49.7132 52.0184C49.6394 52.0206 49.5779 52.0002 49.5508 51.9853L53.0377 45.6879ZM56.5938 51.7227C56.5938 49.2145 55.2325 46.9033 53.0377 45.688L49.5508 51.9852C49.4544 51.9318 49.3956 51.8311 49.3956 51.7227H56.5938ZM56.5938 74.52V51.7227H49.3956V74.52H56.5938ZM59.3746 78.9692C57.6742 78.1414 56.5938 76.4144 56.5938 74.52H49.3956C49.3956 79.1666 52.0457 83.4071 56.2237 85.4412L59.3746 78.9692ZM61.8734 77.4018C61.8734 78.6922 60.5261 79.5297 59.3744 78.9691L56.2238 85.4412C62.1633 88.3325 69.0717 84.0027 69.0717 77.4018H61.8734ZM61.8734 62.0126V77.4018H69.0717V62.0126H61.8734ZM71.9947 56.0182C67.4366 53.5175 61.8734 56.8201 61.8734 62.0126H69.0717C69.0717 62.0543 69.0569 62.1274 69.0146 62.1988C68.9776 62.2613 68.9334 62.2999 68.8942 62.3231C68.8551 62.3463 68.7995 62.3668 68.7261 62.3692C68.6422 62.3721 68.5699 62.3497 68.5324 62.3291L71.9947 56.0182ZM75.5428 62.0126C75.5428 59.517 74.1833 57.2188 71.9946 56.0181L68.5325 62.3291C68.4159 62.2652 68.3446 62.1434 68.3446 62.0126H75.5428ZM75.5428 92.1275V62.0126H68.3446V92.1275H75.5428ZM78.6399 97.4487C76.7265 96.363 75.5428 94.3309 75.5428 92.1275H68.3446C68.3446 96.9202 70.9192 101.344 75.0875 103.709L78.6399 97.4487ZM82.3263 95.3524C82.2842 97.2263 80.2616 98.369 78.6401 97.4488L75.0873 103.709C81.4522 107.321 89.3587 102.825 89.5227 95.5139L82.3263 95.3524ZM82.9944 65.5664L82.3263 95.3524L89.5227 95.5139L90.1908 65.7279L82.9944 65.5664ZM93.1621 49.1123C87.04 52.3462 83.1498 58.6435 82.9944 65.5664L90.1908 65.7279C90.2877 61.4134 92.7121 57.4908 96.5242 55.4771L93.1621 49.1123ZM110.432 39.99L93.1621 49.1123L96.5242 55.4771L113.794 46.3549L110.432 39.99ZM112.516 46.9072L113.508 46.4901L110.717 39.8548L109.726 40.2719L112.516 46.9072ZM110.894 39.5142C110.335 39.843 109.701 40.2146 109.139 40.5855L113.103 46.5936C113.478 46.346 113.939 46.0741 114.542 45.7196L110.894 39.5142ZM114.477 35.27C114.938 35.9765 114.918 36.2907 114.917 36.3071C114.917 36.3234 114.917 36.46 114.67 36.779C114.399 37.1296 113.938 37.5535 113.232 38.053C112.533 38.5485 111.755 39.0081 110.894 39.5142L114.542 45.7196C116.051 44.8324 118.695 43.3378 120.361 41.1871C121.271 40.0122 122.027 38.4842 122.109 36.6215C122.19 34.7588 121.578 32.9795 120.504 31.3342L114.477 35.27ZM107.973 31.6085C111.507 32.8556 113.436 33.6761 114.477 35.27L120.504 31.3342C117.894 27.3368 113.35 25.8728 110.368 24.8205L107.973 31.6085ZM98.7855 26.4296C101.461 29.3937 105.301 30.6654 107.973 31.6085L110.368 24.8205C107.296 23.7364 105.359 22.9693 104.129 21.6067L98.7855 26.4296ZM95.7646 21.3941C96.362 22.737 97.1931 24.6655 98.7856 26.4297L104.129 21.6066C103.409 20.8094 102.982 19.9075 102.342 18.4686L95.7646 21.3941ZM89.8575 16.4975C92.3104 17.0141 93.4054 17.7629 94.0063 18.3673C94.6848 19.0499 95.0872 19.8711 95.7646 21.3941L102.342 18.4686C101.725 17.0834 100.858 15.0494 99.1112 13.2925C97.2869 11.4574 94.8017 10.1826 91.3407 9.45378L89.8575 16.4975ZM83.7041 16.5456C85.5971 16.2399 87.3451 15.9685 89.8575 16.4975L91.3407 9.45378C87.4603 8.63665 84.6074 9.10826 82.5565 9.43947L83.7041 16.5456ZM74.4733 15.0079C76.172 16.1748 77.8445 16.7312 79.5583 16.8615C81.1224 16.9805 82.6141 16.7217 83.7041 16.5456L82.5565 9.43947C81.2936 9.64342 80.6663 9.72679 80.1043 9.68404C79.692 9.65268 79.2314 9.54345 78.549 9.07468L74.4733 15.0079ZM60.5037 15.5258C62.8963 14.6118 65.7992 13.9604 68.4979 13.8511C71.2911 13.738 73.3313 14.2234 74.4732 15.0079L78.549 9.0747C75.5465 7.01207 71.6624 6.51884 68.2066 6.65881C64.6563 6.80261 60.9855 7.63608 57.9348 8.80163L60.5037 15.5258ZM59.0172 8.17087L57.4905 9.007L60.948 15.3205L62.4748 14.4843L59.0172 8.17087ZM78.6713 -0.0554376L73.5464 0.803242L74.7359 7.90251L79.8608 7.04383L78.6713 -0.0554376ZM75.3962 7.72609C76.6149 7.27268 77.8995 7.06155 79.1797 7.09228L79.3524 -0.103883C77.1663 -0.156344 74.9706 0.20414 72.8862 0.979666L75.3962 7.72609Z" fill="white" mask="url(#path-19-inside-1_10789_2011)"/>
</svg>
