<svg width="491" height="395" viewBox="0 0 491 395" fill="none" xmlns="http://www.w3.org/2000/svg">
<g clip-path="url(#clip0_11169_2013)">
<path opacity="0.97" fill-rule="evenodd" clip-rule="evenodd" d="M379.982 365.155L312.899 326.424L245.81 365.158L312.894 403.888L379.982 365.155ZM245.813 287.081L312.899 325.813L379.983 287.082L312.897 248.35L245.813 287.081ZM245.284 287.387L312.37 326.119L245.281 364.852L178.195 326.12L245.284 287.387ZM245.284 286.775L178.197 248.042L245.281 209.312L312.368 248.044L245.284 286.775ZM244.755 287.081L177.667 248.348L110.579 287.082L177.666 325.815L244.755 287.081ZM110.588 209.008L177.667 247.737L244.751 209.006L177.672 170.277L110.588 209.008ZM110.058 209.314L177.138 248.042L110.049 286.776L42.9697 248.048L110.058 209.314ZM110.058 208.703L42.9683 169.968L110.052 131.237L177.142 169.972L110.058 208.703ZM109.529 209.008L42.439 170.274L-24.6496 209.008L42.4403 247.742L109.529 209.008ZM-24.646 130.931L42.4389 169.663L109.523 130.932L42.438 92.2002L-24.646 130.931ZM-25.1753 131.237L41.9096 169.968L-25.179 208.702L-92.2639 169.97L-25.1753 131.237ZM-25.1753 130.626L-27.1632 129.478L-27.6925 129.784L-25.7047 130.931L-92.7933 169.665L-94.7721 168.522L-95.3015 168.828L-93.3226 169.97L-159.784 208.342L-159.254 208.647L-92.7933 170.276L-25.7083 209.008L-92.169 247.379L-91.6397 247.684L-25.179 209.313L41.911 248.048L-24.5545 286.421L-24.0252 286.727L42.4403 248.353L109.52 287.082L43.0601 325.452L43.5894 325.758L110.049 287.387L177.137 326.12L110.671 364.494L111.2 364.8L177.666 326.426L244.752 365.158L178.287 403.531L178.817 403.837L245.281 365.463L312.364 404.194L245.904 442.565L246.433 442.871L584.425 247.731L585.418 248.304L585.947 247.999L584.954 247.425L650.348 209.67L649.818 209.365L584.425 247.12L517.342 208.389L582.731 170.636L582.202 170.331L516.812 208.084L449.727 169.352L515.115 131.6L514.585 131.294L449.197 169.046L382.11 130.313L447.504 92.5578L446.975 92.2522L381.581 130.007L314.501 91.279L379.889 53.5268L379.36 53.2212L313.971 90.9734L246.882 52.239L312.275 14.4841L311.746 14.1785L246.352 51.9333L179.267 13.2018L244.66 -24.5529L244.131 -24.8585L178.738 12.8962L177.929 12.4291L177.399 12.7347L178.209 13.2018L110.066 52.5437L108.081 51.3973L107.551 51.7029L109.537 52.8493L42.438 91.589L40.4551 90.4442L39.9258 90.7498L41.9087 91.8946L-25.1753 130.626ZM42.9673 91.8946L110.052 130.626L177.151 91.8864L110.066 53.1549L42.9673 91.8946ZM110.596 52.8493L177.681 91.5808L245.823 52.2389L178.738 13.5074L110.596 52.8493ZM177.672 169.666L110.582 130.932L177.681 92.192L244.771 130.926L177.672 169.666ZM245.3 130.621L178.21 91.8864L246.352 52.5446L313.442 91.279L245.3 130.621ZM178.201 169.972L245.281 208.7L312.38 169.961L245.3 131.232L178.201 169.972ZM245.829 130.926L312.909 169.655L381.051 130.313L313.971 91.5846L245.829 130.926ZM312.897 247.739L245.81 209.006L312.909 170.266L379.996 208.999L312.897 247.739ZM380.526 208.693L313.438 169.961L381.581 130.619L448.668 169.352L380.526 208.693ZM313.427 248.044L380.512 286.776L447.611 248.037L380.526 209.305L313.427 248.044ZM381.055 208.999L448.141 247.731L516.283 208.389L449.197 169.657L381.055 208.999ZM380.512 364.849L313.428 326.119L380.512 287.388L447.596 326.118L380.512 364.849ZM448.125 325.813L381.042 287.082L448.141 248.342L515.224 287.073L448.125 325.813ZM515.753 286.767L448.67 248.037L516.812 208.695L583.896 247.425L515.753 286.767ZM-162.918 207.863L245.101 443.432L245.63 443.127L-162.389 207.557L-162.918 207.863ZM650.803 209.199L242.784 -26.3709L243.314 -26.6765L651.332 208.893L650.803 209.199Z" fill="url(#paint0_radial_11169_2013)"/>
<path d="M73.9944 192.356L246.241 117.506L418.488 192.357L418.487 243.454L246.241 342.901L73.9942 243.454L73.9944 192.356Z" fill="#131313" stroke="white" stroke-width="1.50653"/>
<path d="M340.512 278.198L352.709 270.806V269.208L340.512 276.6V278.198Z" fill="white"/>
<path d="M246.241 92.8255L418.106 192.052L246.241 291.278L74.3767 192.052L246.241 92.8255Z" fill="url(#paint1_linear_11169_2013)" stroke="white" stroke-width="1.50653"/>
<path d="M464.095 268.987L438.824 253.494V224.542H489.344V254.891L464.095 268.987Z" fill="url(#paint2_linear_11169_2013)" stroke="white" stroke-width="0.940376"/>
<circle cx="4.83978" cy="4.83978" r="4.53978" transform="matrix(0.866025 0.5 -2.20305e-08 1 446.809 238.443)" stroke="white" stroke-width="0.6"/>
<rect width="29.5291" height="28.7281" transform="matrix(0.866025 0.5 -0.866025 0.5 464.09 209.715)" fill="url(#paint3_linear_11169_2013)"/>
<rect width="29.5291" height="28.7281" transform="matrix(0.866025 0.5 -0.866025 0.5 464.09 209.715)" fill="url(#paint4_linear_11169_2013)"/>
<rect width="29.5291" height="28.7281" transform="matrix(0.866025 0.5 -0.866025 0.5 464.09 209.715)" stroke="white" stroke-width="0.940376"/>
<path d="M464.09 238.443L464.09 267.966" stroke="white" stroke-width="0.940376" stroke-linecap="round" stroke-linejoin="round"/>
<path opacity="0.78" fill-rule="evenodd" clip-rule="evenodd" d="M305.739 259.565L276.621 242.753L247.5 259.567L276.618 276.378L305.739 259.565ZM247.504 225.372L276.621 242.183L305.74 225.371L276.622 208.56L247.504 225.372ZM247.01 225.657L276.127 242.468L247.006 259.281L217.888 242.47L247.01 225.657ZM247.01 225.087L217.89 208.274L247.009 191.463L276.128 208.275L247.01 225.087ZM246.516 225.372L217.396 208.56L188.275 225.373L217.394 242.185L246.516 225.372ZM188.282 191.18L217.396 207.989L246.515 191.178L217.401 174.369L188.282 191.18ZM187.788 191.466L216.902 208.274L187.781 225.088L158.667 208.279L187.788 191.466ZM187.788 190.895L158.669 174.083L187.787 157.271L216.907 174.084L187.788 190.895ZM187.294 191.18L158.175 174.368L129.053 191.181L158.173 207.994L187.294 191.18ZM129.059 156.988L158.175 173.798L187.293 156.986L158.178 140.176L129.059 156.988ZM128.565 157.273L157.681 174.083L128.559 190.896L99.4438 174.087L128.565 157.273ZM128.565 156.703L127.825 156.275L127.331 156.56L128.071 156.988L98.9497 173.801L98.2109 173.375L97.7169 173.66L98.4557 174.087L69.484 190.813L69.9781 191.099L98.9498 174.372L128.065 191.181L99.0922 207.909L99.5862 208.194L128.559 191.467L157.679 208.279L128.704 225.008L129.198 225.293L158.173 208.564L187.287 225.373L158.312 242.101L158.806 242.387L187.781 225.658L216.9 242.47L187.924 259.2L188.418 259.485L217.394 242.756L246.512 259.567L217.536 276.296L218.03 276.581L247.006 259.852L276.124 276.663L247.151 293.39L247.645 293.676L395.535 208.291L395.837 208.466L396.331 208.18L396.029 208.006L424.539 191.546L424.044 191.261L395.535 207.721L366.417 190.91L394.923 174.452L394.429 174.166L365.923 190.624L336.806 173.813L365.311 157.356L364.817 157.071L336.312 173.528L307.192 156.716L335.699 140.257L335.205 139.972L306.698 156.431L277.584 139.622L306.091 123.163L305.597 122.878L277.09 139.337L247.971 122.524L276.479 106.065L275.985 105.78L247.477 122.239L218.361 105.429L246.871 88.9692L246.377 88.684L217.867 105.144L217.641 105.013L217.147 105.299L217.373 105.429L187.795 122.506L187.056 122.08L186.562 122.365L187.301 122.792L158.178 139.606L157.44 139.18L156.946 139.465L157.684 139.891L128.565 156.703ZM158.672 139.891L187.787 156.701L216.91 139.887L187.795 123.077L158.672 139.891ZM188.289 122.792L217.404 139.601L246.983 122.524L217.867 105.715L188.289 122.792ZM217.401 173.798L188.281 156.986L217.404 140.172L246.524 156.984L217.401 173.798ZM247.018 156.699L217.898 139.887L247.477 122.81L276.596 139.622L247.018 156.699ZM217.895 174.084L247.009 190.892L276.132 174.078L247.018 157.269L217.895 174.084ZM247.512 156.984L276.626 173.793L306.204 156.716L277.09 139.907L247.512 156.984ZM276.622 207.99L247.503 191.178L276.626 174.363L305.745 191.176L276.622 207.99ZM306.239 190.89L277.12 174.078L306.698 157.001L335.818 173.813L306.239 190.89ZM277.116 208.275L306.234 225.086L335.357 208.272L306.239 191.461L277.116 208.275ZM306.733 191.176L335.851 207.987L365.429 190.91L336.312 174.099L306.733 191.176ZM306.233 259.279L277.115 242.468L306.234 225.657L335.352 242.468L306.233 259.279ZM335.846 242.183L306.728 225.371L335.851 208.557L364.969 225.368L335.846 242.183ZM365.463 225.083L336.345 208.272L365.923 191.195L395.041 208.006L365.463 225.083ZM68.1069 190.755L246.797 293.922L247.291 293.637L68.6009 190.469L68.1069 190.755ZM424.472 191.34L245.782 88.1728L246.276 87.8876L424.966 191.055L424.472 191.34Z" fill="url(#paint5_radial_11169_2013)"/>
<g filter="url(#filter0_d_11169_2013)">
<path d="M26.0499 266.666L0.778782 251.174V222.222H51.2988V252.571L26.0499 266.666Z" fill="url(#paint6_linear_11169_2013)" stroke="white" stroke-width="0.940376"/>
<rect width="29.5291" height="28.7281" transform="matrix(0.866025 0.5 -0.866025 0.5 26.0449 207.395)" fill="url(#paint7_linear_11169_2013)"/>
<rect width="29.5291" height="28.7281" transform="matrix(0.866025 0.5 -0.866025 0.5 26.0449 207.395)" fill="url(#paint8_linear_11169_2013)"/>
<rect width="29.5291" height="28.7281" transform="matrix(0.866025 0.5 -0.866025 0.5 26.0449 207.395)" stroke="white" stroke-width="0.940376"/>
<path d="M26.0449 236.123L26.0449 265.645" stroke="white" stroke-width="0.940376" stroke-linecap="round" stroke-linejoin="round"/>
<path d="M39.4893 245.113L220.675 350.981" stroke="white" stroke-dasharray="1 3"/>
<path d="M270.491 350.981L450.375 245.873" stroke="white" stroke-dasharray="1 3"/>
<circle cx="4.83978" cy="4.83978" r="4.53978" transform="matrix(0.866025 -0.5 2.20305e-08 1 35.1758 242.062)" stroke="white" stroke-width="0.6"/>
</g>
<path d="M293.992 168.628C320.874 184.413 320.973 209.941 294.227 225.646C267.481 241.351 224.007 241.293 197.125 225.508C170.243 209.723 170.144 184.195 196.89 168.489C223.636 152.784 267.11 152.842 293.992 168.628Z" fill="#131313" stroke="white" stroke-width="1.6594"/>
<path d="M293.991 168.628C320.873 184.413 320.972 209.941 294.226 225.646C267.48 241.351 224.006 241.293 197.124 225.508C170.242 209.723 170.143 184.195 196.889 168.489C223.635 152.784 267.109 152.842 293.991 168.628Z" fill="#131313" stroke="white" stroke-width="1.6594"/>
<mask id="path-18-inside-1_11169_2013" fill="white">
<path fill-rule="evenodd" clip-rule="evenodd" d="M310.179 210.177C319.21 195.781 313.882 178.981 294.195 167.421C267.203 151.571 223.44 151.571 196.448 167.421C176.761 178.981 171.433 195.781 180.465 210.177C183.816 204.835 189.144 199.825 196.448 195.535C223.44 179.686 267.203 179.686 294.195 195.535C301.5 199.825 306.827 204.835 310.179 210.177Z"/>
</mask>
<path fill-rule="evenodd" clip-rule="evenodd" d="M310.179 210.177C319.21 195.781 313.882 178.981 294.195 167.421C267.203 151.571 223.44 151.571 196.448 167.421C176.761 178.981 171.433 195.781 180.465 210.177C183.816 204.835 189.144 199.825 196.448 195.535C223.44 179.686 267.203 179.686 294.195 195.535C301.5 199.825 306.827 204.835 310.179 210.177Z" fill="#131313"/>
<path fill-rule="evenodd" clip-rule="evenodd" d="M310.179 210.177C319.21 195.781 313.882 178.981 294.195 167.421C267.203 151.571 223.44 151.571 196.448 167.421C176.761 178.981 171.433 195.781 180.465 210.177C183.816 204.835 189.144 199.825 196.448 195.535C223.44 179.686 267.203 179.686 294.195 195.535C301.5 199.825 306.827 204.835 310.179 210.177Z" fill="url(#paint9_linear_11169_2013)"/>
<path d="M294.195 167.421L293.355 168.851L294.195 167.421ZM310.179 210.177L308.773 211.058L310.179 213.299L311.584 211.058L310.179 210.177ZM196.448 167.421L195.608 165.99L196.448 167.421ZM180.465 210.177L179.059 211.058L180.465 213.299L181.87 211.058L180.465 210.177ZM196.448 195.535L197.288 196.966L196.448 195.535ZM294.195 195.535L295.035 194.104L294.195 195.535ZM293.355 168.851C302.967 174.496 308.897 181.316 311.394 188.294C313.876 195.229 313.036 202.499 308.773 209.295L311.584 211.058C316.352 203.458 317.365 195.13 314.519 187.176C311.688 179.266 305.11 171.906 295.035 165.99L293.355 168.851ZM197.288 168.851C210.471 161.111 227.851 157.193 245.322 157.193C262.792 157.193 280.173 161.111 293.355 168.851L295.035 165.99C281.225 157.88 263.229 153.874 245.322 153.874C227.414 153.874 209.418 157.88 195.608 165.99L197.288 168.851ZM181.87 209.295C177.607 202.499 176.768 195.229 179.249 188.294C181.746 181.316 187.676 174.496 197.288 168.851L195.608 165.99C185.533 171.906 178.955 179.266 176.124 187.176C173.278 195.13 174.291 203.458 179.059 211.058L181.87 209.295ZM181.87 211.058C185.05 205.99 190.16 201.152 197.288 196.966L195.608 194.104C188.127 198.497 182.581 203.68 179.059 209.295L181.87 211.058ZM197.288 196.966C210.471 189.226 227.851 185.307 245.322 185.307C262.792 185.307 280.173 189.226 293.355 196.966L295.035 194.104C281.225 185.995 263.229 181.989 245.322 181.989C227.414 181.989 209.418 185.995 195.608 194.104L197.288 196.966ZM293.355 196.966C300.483 201.152 305.593 205.99 308.773 211.058L311.584 209.295C308.062 203.68 302.516 198.497 295.035 194.104L293.355 196.966Z" fill="white" mask="url(#path-18-inside-1_11169_2013)"/>
<path d="M374.095 75.7046C336.568 120.859 343.101 169.031 309.286 213.813C305.928 218.26 301.147 222.423 294.944 226.066C267.799 242.005 223.685 241.944 196.41 225.928C189.407 221.816 184.196 217.052 180.776 211.972C150.05 166.323 158.134 117.548 125.237 71.4703L374.095 75.7046Z" fill="url(#paint10_linear_11169_2013)"/>
<line x1="246.237" y1="290.92" x2="246.237" y2="342.366" stroke="white" stroke-width="1.50653"/>
<mask id="path-22-inside-2_11169_2013" fill="white">
<path fill-rule="evenodd" clip-rule="evenodd" d="M214.984 294.459C213.017 293.649 211.272 293.761 210 294.651L215.977 290.466C217.5 289.399 219.704 289.448 222.155 290.863L222.151 290.866L222.156 290.863C226.753 293.517 230.48 299.972 230.48 305.281L230.479 305.282L230.48 305.281C230.48 307.759 229.668 309.549 228.334 310.484L222.356 314.67C223.316 313.997 224.006 312.882 224.317 311.386L223.558 312.139C223.558 306.83 218.587 297.612 213.99 294.957L214.984 294.459Z"/>
</mask>
<path fill-rule="evenodd" clip-rule="evenodd" d="M214.984 294.459C213.017 293.649 211.272 293.761 210 294.651L215.977 290.466C217.5 289.399 219.704 289.448 222.155 290.863L222.151 290.866L222.156 290.863C226.753 293.517 230.48 299.972 230.48 305.281L230.479 305.282L230.48 305.281C230.48 307.759 229.668 309.549 228.334 310.484L222.356 314.67C223.316 313.997 224.006 312.882 224.317 311.386L223.558 312.139C223.558 306.83 218.587 297.612 213.99 294.957L214.984 294.459Z" fill="black"/>
<path fill-rule="evenodd" clip-rule="evenodd" d="M214.984 294.459C213.017 293.649 211.272 293.761 210 294.651L215.977 290.466C217.5 289.399 219.704 289.448 222.155 290.863L222.151 290.866L222.156 290.863C226.753 293.517 230.48 299.972 230.48 305.281L230.479 305.282L230.48 305.281C230.48 307.759 229.668 309.549 228.334 310.484L222.356 314.67C223.316 313.997 224.006 312.882 224.317 311.386L223.558 312.139C223.558 306.83 218.587 297.612 213.99 294.957L214.984 294.459Z" fill="url(#paint11_linear_11169_2013)"/>
<path d="M210 294.651L209.455 293.873C209.026 294.174 208.921 294.766 209.222 295.196C209.523 295.626 210.115 295.73 210.545 295.429L210 294.651ZM214.984 294.459L215.41 295.308C215.742 295.141 215.947 294.795 215.933 294.423C215.92 294.052 215.69 293.722 215.346 293.58L214.984 294.459ZM215.977 290.466L216.522 291.244L216.522 291.244L215.977 290.466ZM222.155 290.863L222.699 291.641C222.965 291.455 223.117 291.146 223.103 290.822C223.089 290.498 222.91 290.203 222.629 290.041L222.155 290.863ZM222.151 290.866L221.606 290.088C221.199 290.373 221.081 290.925 221.335 291.352C221.59 291.78 222.132 291.938 222.577 291.715L222.151 290.866ZM222.156 290.863L222.631 290.041C222.354 289.881 222.016 289.871 221.731 290.014L222.156 290.863ZM230.48 305.281L231.148 305.956C231.329 305.777 231.43 305.534 231.43 305.281H230.48ZM230.479 305.282L229.811 304.607C229.46 304.954 229.434 305.512 229.75 305.891C230.066 306.269 230.619 306.343 231.023 306.06L230.479 305.282ZM230.48 305.281H231.43C231.43 304.927 231.233 304.602 230.919 304.438C230.605 304.275 230.226 304.3 229.936 304.503L230.48 305.281ZM228.334 310.484L228.879 311.262L228.879 311.262L228.334 310.484ZM222.356 314.67L221.811 313.892C221.382 314.193 221.278 314.785 221.578 315.214C221.879 315.644 222.471 315.748 222.901 315.448L222.356 314.67ZM224.317 311.386L225.247 311.58C225.332 311.17 225.139 310.752 224.771 310.552C224.402 310.352 223.946 310.417 223.649 310.712L224.317 311.386ZM223.558 312.139H222.608C222.608 312.522 222.838 312.868 223.192 313.015C223.546 313.163 223.954 313.083 224.226 312.814L223.558 312.139ZM213.99 294.957L213.564 294.108C213.252 294.265 213.05 294.58 213.04 294.929C213.03 295.279 213.212 295.605 213.515 295.78L213.99 294.957ZM210.545 295.429C211.479 294.775 212.863 294.612 214.623 295.337L215.346 293.58C213.17 292.685 211.064 292.747 209.455 293.873L210.545 295.429ZM215.432 289.688L209.455 293.873L210.545 295.429L216.522 291.244L215.432 289.688ZM222.629 290.041C219.994 288.519 217.368 288.333 215.432 289.688L216.522 291.244C217.633 290.466 219.413 290.377 221.68 291.686L222.629 290.041ZM222.696 291.644L222.699 291.641L221.61 290.085L221.606 290.088L222.696 291.644ZM222.577 291.715L222.582 291.712L221.731 290.014L221.726 290.017L222.577 291.715ZM221.681 291.686C223.802 292.91 225.775 295.049 227.22 297.552C228.665 300.054 229.53 302.832 229.53 305.281H231.43C231.43 302.421 230.432 299.317 228.865 296.602C227.297 293.887 225.108 291.471 222.631 290.041L221.681 291.686ZM229.812 304.606L229.811 304.607L231.147 305.957L231.148 305.956L229.812 304.606ZM229.936 304.503L229.934 304.504L231.023 306.06L231.025 306.059L229.936 304.503ZM228.879 311.262C230.553 310.089 231.43 307.947 231.43 305.281H229.531C229.531 307.572 228.784 309.009 227.789 309.706L228.879 311.262ZM222.901 315.448L228.879 311.262L227.789 309.706L221.812 313.892L222.901 315.448ZM223.387 311.193C223.113 312.508 222.531 313.388 221.811 313.892L222.901 315.447C224.101 314.607 224.898 313.256 225.247 311.58L223.387 311.193ZM223.649 310.712L222.889 311.464L224.226 312.814L224.986 312.061L223.649 310.712ZM224.507 312.139C224.507 309.252 223.179 305.454 221.329 302.095C219.483 298.741 216.987 295.591 214.464 294.135L213.515 295.78C215.589 296.978 217.878 299.764 219.666 303.011C221.45 306.252 222.608 309.717 222.608 312.139H224.507ZM214.415 295.806L215.41 295.308L214.559 293.61L213.564 294.108L214.415 295.806Z" fill="white" mask="url(#path-22-inside-2_11169_2013)"/>
<mask id="path-24-inside-3_11169_2013" fill="white">
<path fill-rule="evenodd" clip-rule="evenodd" d="M187.312 279.242C185.345 278.432 183.6 278.544 182.328 279.435L188.305 275.25C189.828 274.183 192.032 274.232 194.483 275.647L194.479 275.649L194.484 275.646C199.082 278.301 202.808 284.756 202.808 290.064L202.807 290.065L202.809 290.064C202.809 292.542 201.996 294.333 200.662 295.267L194.684 299.453C195.644 298.781 196.334 297.665 196.645 296.17L195.886 296.922C195.886 291.614 190.915 282.395 186.318 279.741L187.312 279.242Z"/>
</mask>
<path fill-rule="evenodd" clip-rule="evenodd" d="M187.312 279.242C185.345 278.432 183.6 278.544 182.328 279.435L188.305 275.25C189.828 274.183 192.032 274.232 194.483 275.647L194.479 275.649L194.484 275.646C199.082 278.301 202.808 284.756 202.808 290.064L202.807 290.065L202.809 290.064C202.809 292.542 201.996 294.333 200.662 295.267L194.684 299.453C195.644 298.781 196.334 297.665 196.645 296.17L195.886 296.922C195.886 291.614 190.915 282.395 186.318 279.741L187.312 279.242Z" fill="black"/>
<path fill-rule="evenodd" clip-rule="evenodd" d="M187.312 279.242C185.345 278.432 183.6 278.544 182.328 279.435L188.305 275.25C189.828 274.183 192.032 274.232 194.483 275.647L194.479 275.649L194.484 275.646C199.082 278.301 202.808 284.756 202.808 290.064L202.807 290.065L202.809 290.064C202.809 292.542 201.996 294.333 200.662 295.267L194.684 299.453C195.644 298.781 196.334 297.665 196.645 296.17L195.886 296.922C195.886 291.614 190.915 282.395 186.318 279.741L187.312 279.242Z" fill="url(#paint12_linear_11169_2013)"/>
<path d="M182.328 279.435L181.783 278.657C181.354 278.957 181.249 279.55 181.55 279.979C181.851 280.409 182.443 280.513 182.873 280.213L182.328 279.435ZM187.312 279.242L187.738 280.091C188.071 279.924 188.275 279.579 188.261 279.207C188.248 278.835 188.018 278.505 187.674 278.364L187.312 279.242ZM188.305 275.25L188.85 276.027L188.85 276.027L188.305 275.25ZM194.483 275.647L195.027 276.425C195.293 276.238 195.446 275.929 195.431 275.605C195.417 275.281 195.239 274.986 194.957 274.824L194.483 275.647ZM194.479 275.649L193.935 274.871C193.527 275.156 193.409 275.708 193.664 276.135C193.919 276.563 194.46 276.721 194.905 276.498L194.479 275.649ZM194.484 275.646L194.959 274.824C194.683 274.664 194.344 274.654 194.059 274.797L194.484 275.646ZM202.808 290.064L203.477 290.738C203.657 290.56 203.758 290.317 203.758 290.064H202.808ZM202.807 290.065L202.138 289.391C201.788 289.738 201.762 290.296 202.078 290.674C202.394 291.053 202.948 291.126 203.352 290.843L202.807 290.065ZM202.809 290.064H203.758C203.758 289.71 203.561 289.385 203.247 289.222C202.933 289.058 202.554 289.083 202.264 289.286L202.809 290.064ZM200.662 295.267L201.207 296.045L201.207 296.045L200.662 295.267ZM194.684 299.453L194.14 298.675C193.71 298.976 193.606 299.568 193.907 299.998C194.207 300.427 194.8 300.532 195.229 300.231L194.684 299.453ZM196.645 296.17L197.575 296.363C197.661 295.953 197.467 295.535 197.099 295.335C196.73 295.135 196.275 295.2 195.977 295.495L196.645 296.17ZM195.886 296.922H194.936C194.936 297.305 195.166 297.651 195.52 297.799C195.874 297.946 196.282 297.867 196.554 297.597L195.886 296.922ZM186.318 279.741L185.892 278.892C185.58 279.048 185.379 279.363 185.368 279.713C185.358 280.062 185.54 280.388 185.843 280.563L186.318 279.741ZM182.873 280.213C183.807 279.559 185.191 279.396 186.951 280.12L187.674 278.364C185.499 277.468 183.392 277.53 181.784 278.656L182.873 280.213ZM187.76 274.472L181.783 278.657L182.873 280.213L188.85 276.027L187.76 274.472ZM194.957 274.824C192.322 273.303 189.696 273.116 187.76 274.472L188.85 276.027C189.961 275.249 191.741 275.16 194.008 276.469L194.957 274.824ZM195.024 276.427L195.027 276.425L193.938 274.869L193.935 274.871L195.024 276.427ZM194.905 276.498L194.91 276.495L194.059 274.797L194.054 274.8L194.905 276.498ZM194.009 276.469C196.13 277.693 198.103 279.832 199.548 282.335C200.993 284.838 201.859 287.616 201.859 290.064H203.758C203.758 287.204 202.76 284.1 201.193 281.385C199.625 278.67 197.436 276.254 194.959 274.824L194.009 276.469ZM202.14 289.389L202.138 289.391L203.476 290.74L203.477 290.738L202.14 289.389ZM202.264 289.286L202.262 289.287L203.352 290.843L203.353 290.842L202.264 289.286ZM201.207 296.045C202.881 294.873 203.758 292.73 203.758 290.064H201.859C201.859 292.355 201.112 293.793 200.117 294.489L201.207 296.045ZM195.229 300.231L201.207 296.045L200.118 294.489L194.14 298.675L195.229 300.231ZM195.716 295.976C195.442 297.291 194.859 298.171 194.14 298.675L195.229 300.231C196.43 299.39 197.226 298.039 197.575 296.363L195.716 295.976ZM195.977 295.495L195.217 296.247L196.554 297.597L197.314 296.844L195.977 295.495ZM196.835 296.922C196.835 294.035 195.508 290.237 193.658 286.878C191.811 283.524 189.315 280.374 186.793 278.918L185.843 280.563C187.917 281.761 190.206 284.548 191.994 287.794C193.778 291.035 194.936 294.5 194.936 296.922H196.835ZM186.743 280.59L187.738 280.091L186.887 278.393L185.892 278.892L186.743 280.59Z" fill="white" mask="url(#path-24-inside-3_11169_2013)"/>
<path d="M224.896 308.726C224.896 311.084 224.126 312.649 223.009 313.431C221.75 314.313 219.817 314.352 217.484 313.005C215.3 311.744 213.288 309.556 211.821 307.015C210.354 304.473 209.465 301.637 209.465 299.115C209.465 296.756 210.235 295.192 211.352 294.41C212.611 293.528 214.543 293.489 216.876 294.835C219.061 296.097 221.073 298.285 222.54 300.826C224.007 303.367 224.896 306.204 224.896 308.726Z" fill="#131313" stroke="white" stroke-width="1.21628"/>
<path d="M197.222 293.509C197.222 295.868 196.452 297.432 195.335 298.214C194.076 299.096 192.144 299.135 189.811 297.789C187.626 296.527 185.614 294.339 184.147 291.798C182.68 289.257 181.791 286.42 181.791 283.898C181.791 281.54 182.561 279.975 183.678 279.193C184.937 278.311 186.87 278.272 189.202 279.619C191.387 280.88 193.399 283.068 194.866 285.609C196.333 288.151 197.222 290.987 197.222 293.509Z" fill="#131313" stroke="white" stroke-width="1.21628"/>
<path d="M246.253 394.448L220.982 378.955V350.003H271.502V380.352L246.253 394.448Z" fill="url(#paint13_linear_11169_2013)" stroke="white" stroke-width="0.940376"/>
<rect width="29.5291" height="28.7281" transform="matrix(0.866025 0.5 -0.866025 0.5 246.248 335.176)" fill="url(#paint14_linear_11169_2013)"/>
<rect width="29.5291" height="28.7281" transform="matrix(0.866025 0.5 -0.866025 0.5 246.248 335.176)" fill="url(#paint15_linear_11169_2013)"/>
<rect width="29.5291" height="28.7281" transform="matrix(0.866025 0.5 -0.866025 0.5 246.248 335.176)" stroke="white" stroke-width="0.940376"/>
<path d="M246.248 363.904L246.248 393.426" stroke="white" stroke-width="0.940376" stroke-linecap="round" stroke-linejoin="round"/>
<path d="M384.463 48.0769L385.393 45.8037L386.323 49.1506C387.457 53.2326 389.59 57.2856 392.33 60.5566L394.187 62.7738L392.33 62.8464C389.59 62.9535 387.457 64.5433 386.323 67.3158L385.393 69.589L384.463 66.2421C383.329 62.1601 381.196 58.1071 378.456 54.8362L376.598 52.6189L378.456 52.5463C381.196 52.4392 383.329 50.8494 384.463 48.0769Z" fill="#131313"/>
<path d="M384.463 48.0769L385.393 45.8037L386.323 49.1506C387.457 53.2326 389.59 57.2856 392.33 60.5566L394.187 62.7738L392.33 62.8464C389.59 62.9535 387.457 64.5433 386.323 67.3158L385.393 69.589L384.463 66.2421C383.329 62.1601 381.196 58.1071 378.456 54.8362L376.598 52.6189L378.456 52.5463C381.196 52.4392 383.329 50.8494 384.463 48.0769Z" fill="white"/>
<path d="M384.463 48.0769L385.393 45.8037L386.323 49.1506C387.457 53.2326 389.59 57.2856 392.33 60.5566L394.187 62.7738L392.33 62.8464C389.59 62.9535 387.457 64.5433 386.323 67.3158L385.393 69.589L384.463 66.2421C383.329 62.1601 381.196 58.1071 378.456 54.8362L376.598 52.6189L378.456 52.5463C381.196 52.4392 383.329 50.8494 384.463 48.0769Z" stroke="white" stroke-width="0.759202"/>
<mask id="path-32-inside-4_11169_2013" fill="white">
<path fill-rule="evenodd" clip-rule="evenodd" d="M105.485 162.672C104.216 158.204 103.117 154.329 101.539 155.098L110.704 150.628C113.919 149.06 118.215 149.449 122.935 152.174L122.933 152.176L122.937 152.174L139.625 161.809L139.598 161.843C149.269 167.854 157.667 181.83 157.667 193.065L157.667 193.065C157.667 199.123 155.429 203.284 151.855 205.028L142.69 209.498C144.887 208.426 142.859 200.666 140.97 193.437L140.97 193.437C139.787 188.907 138.658 184.586 138.658 182.253L143.173 184.821C139.799 180.406 135.24 176.217 130.758 172.773L127.22 177.148L117.359 162.114L110.704 173.98C108.3 172.592 106.801 167.312 105.485 162.672Z"/>
</mask>
<path fill-rule="evenodd" clip-rule="evenodd" d="M105.485 162.672C104.216 158.204 103.117 154.329 101.539 155.098L110.704 150.628C113.919 149.06 118.215 149.449 122.935 152.174L122.933 152.176L122.937 152.174L139.625 161.809L139.598 161.843C149.269 167.854 157.667 181.83 157.667 193.065L157.667 193.065C157.667 199.123 155.429 203.284 151.855 205.028L142.69 209.498C144.887 208.426 142.859 200.666 140.97 193.437L140.97 193.437C139.787 188.907 138.658 184.586 138.658 182.253L143.173 184.821C139.799 180.406 135.24 176.217 130.758 172.773L127.22 177.148L117.359 162.114L110.704 173.98C108.3 172.592 106.801 167.312 105.485 162.672Z" fill="#131313"/>
<path fill-rule="evenodd" clip-rule="evenodd" d="M105.485 162.672C104.216 158.204 103.117 154.329 101.539 155.098L110.704 150.628C113.919 149.06 118.215 149.449 122.935 152.174L122.933 152.176L122.937 152.174L139.625 161.809L139.598 161.843C149.269 167.854 157.667 181.83 157.667 193.065L157.667 193.065C157.667 199.123 155.429 203.284 151.855 205.028L142.69 209.498C144.887 208.426 142.859 200.666 140.97 193.437L140.97 193.437C139.787 188.907 138.658 184.586 138.658 182.253L143.173 184.821C139.799 180.406 135.24 176.217 130.758 172.773L127.22 177.148L117.359 162.114L110.704 173.98C108.3 172.592 106.801 167.312 105.485 162.672Z" fill="url(#paint16_linear_11169_2013)"/>
<path fill-rule="evenodd" clip-rule="evenodd" d="M105.485 162.672C104.216 158.204 103.117 154.329 101.539 155.098L110.704 150.628C113.919 149.06 118.215 149.449 122.935 152.174L122.933 152.176L122.937 152.174L139.625 161.809L139.598 161.843C149.269 167.854 157.667 181.83 157.667 193.065L157.667 193.065C157.667 199.123 155.429 203.284 151.855 205.028L142.69 209.498C144.887 208.426 142.859 200.666 140.97 193.437L140.97 193.437C139.787 188.907 138.658 184.586 138.658 182.253L143.173 184.821C139.799 180.406 135.24 176.217 130.758 172.773L127.22 177.148L117.359 162.114L110.704 173.98C108.3 172.592 106.801 167.312 105.485 162.672Z" fill="url(#paint17_linear_11169_2013)"/>
<path d="M101.539 155.098L101.153 154.307C100.717 154.52 100.536 155.047 100.748 155.484C100.961 155.92 101.488 156.102 101.925 155.889L101.539 155.098ZM105.485 162.672L104.638 162.913L105.485 162.672ZM110.704 150.628L110.318 149.837L110.318 149.837L110.704 150.628ZM122.935 152.174L123.702 152.604C123.937 152.184 123.791 151.653 123.374 151.412L122.935 152.174ZM122.933 152.176L122.166 151.745C121.978 152.081 122.03 152.5 122.294 152.779C122.558 153.059 122.973 153.135 123.319 152.966L122.933 152.176ZM122.937 152.174L123.377 151.412C123.124 151.266 122.814 151.255 122.551 151.383L122.937 152.174ZM139.625 161.809L140.309 162.362C140.471 162.162 140.537 161.901 140.49 161.648C140.443 161.395 140.288 161.176 140.065 161.047L139.625 161.809ZM139.598 161.843L138.914 161.29C138.755 161.486 138.688 161.74 138.73 161.989C138.772 162.238 138.919 162.457 139.133 162.59L139.598 161.843ZM157.667 193.065L156.787 193.065C156.787 193.382 156.958 193.675 157.234 193.831L157.667 193.065ZM157.667 193.065H158.547C158.547 192.748 158.376 192.455 158.1 192.299L157.667 193.065ZM151.855 205.028L152.24 205.819L152.241 205.819L151.855 205.028ZM142.69 209.498L142.304 208.708C141.868 208.921 141.686 209.447 141.899 209.884C142.112 210.32 142.639 210.502 143.076 210.289L142.69 209.498ZM140.97 193.437L141.821 193.215C141.817 193.196 141.811 193.178 141.805 193.159L140.97 193.437ZM140.97 193.437L140.119 193.66C140.124 193.679 140.13 193.697 140.136 193.716L140.97 193.437ZM138.658 182.253L139.093 181.488C138.82 181.333 138.486 181.335 138.215 181.492C137.945 181.65 137.778 181.939 137.778 182.253H138.658ZM143.173 184.821L142.738 185.585C143.102 185.792 143.56 185.714 143.836 185.399C144.111 185.084 144.126 184.619 143.872 184.287L143.173 184.821ZM130.758 172.773L131.294 172.076C130.916 171.785 130.374 171.849 130.074 172.22L130.758 172.773ZM127.22 177.148L126.484 177.631C126.639 177.866 126.896 178.013 127.176 178.027C127.457 178.041 127.727 177.92 127.904 177.702L127.22 177.148ZM117.359 162.114L118.095 161.631C117.926 161.374 117.636 161.224 117.329 161.234C117.022 161.245 116.743 161.415 116.592 161.683L117.359 162.114ZM110.704 173.98L110.264 174.742C110.468 174.859 110.71 174.89 110.937 174.828C111.164 174.766 111.356 174.615 111.471 174.41L110.704 173.98ZM101.925 155.889C101.962 155.87 101.949 155.885 101.917 155.878C101.902 155.874 101.943 155.878 102.039 155.969C102.25 156.167 102.518 156.583 102.823 157.276C103.423 158.638 103.997 160.654 104.638 162.913L106.331 162.432C105.704 160.222 105.094 158.067 104.433 156.566C104.107 155.828 103.725 155.14 103.246 154.688C102.997 154.454 102.684 154.247 102.302 154.161C101.903 154.072 101.511 154.133 101.154 154.307L101.925 155.889ZM110.318 149.837L101.153 154.307L101.925 155.889L111.089 151.419L110.318 149.837ZM123.374 151.412C118.503 148.599 113.886 148.098 110.318 149.837L111.089 151.419C113.952 150.023 117.928 150.299 122.495 152.935L123.374 151.412ZM123.7 152.606L123.702 152.604L122.168 151.743L122.166 151.745L123.7 152.606ZM122.551 151.383L122.548 151.385L123.319 152.966L123.322 152.964L122.551 151.383ZM140.065 161.047L123.377 151.412L122.497 152.936L139.185 162.571L140.065 161.047ZM140.282 162.396L140.309 162.362L138.941 161.256L138.914 161.29L140.282 162.396ZM139.133 162.59C143.821 165.503 148.246 170.383 151.5 175.94C154.756 181.499 156.787 187.649 156.787 193.065L158.546 193.065C158.546 187.246 156.379 180.79 153.018 175.051C149.656 169.308 145.046 164.194 140.062 161.096L139.133 162.59ZM158.1 192.299L158.1 192.299L157.234 193.831L157.235 193.831L158.1 192.299ZM152.241 205.819C156.226 203.874 158.547 199.317 158.547 193.065H156.788C156.788 198.928 154.632 202.695 151.469 204.238L152.241 205.819ZM143.076 210.289L152.24 205.819L151.469 204.238L142.304 208.708L143.076 210.289ZM140.119 193.66C141.068 197.288 142.033 200.988 142.493 203.913C142.724 205.381 142.817 206.592 142.738 207.474C142.652 208.424 142.401 208.661 142.304 208.708L143.076 210.289C144.078 209.8 144.397 208.664 144.49 207.632C144.589 206.531 144.469 205.15 144.231 203.64C143.755 200.609 142.762 196.815 141.821 193.215L140.119 193.66ZM140.136 193.716L140.136 193.716L141.805 193.159L141.805 193.159L140.136 193.716ZM137.778 182.253C137.778 183.525 138.081 185.272 138.511 187.212C138.946 189.169 139.529 191.399 140.119 193.66L141.821 193.215C141.228 190.946 140.655 188.75 140.229 186.831C139.799 184.894 139.537 183.314 139.537 182.253H137.778ZM143.608 184.056L139.093 181.488L138.223 183.017L142.738 185.585L143.608 184.056ZM143.872 184.287C140.435 179.79 135.813 175.548 131.294 172.076L130.222 173.471C134.667 176.886 139.162 181.021 142.474 185.355L143.872 184.287ZM127.904 177.702L131.442 173.326L130.074 172.22L126.536 176.595L127.904 177.702ZM116.624 162.596L126.484 177.631L127.955 176.666L118.095 161.631L116.624 162.596ZM111.471 174.41L118.127 162.544L116.592 161.683L109.937 173.55L111.471 174.41ZM104.638 162.913C105.294 165.221 106.01 167.75 106.871 169.876C107.303 170.941 107.781 171.933 108.323 172.762C108.861 173.583 109.497 174.299 110.264 174.742L111.144 173.218C110.709 172.967 110.256 172.502 109.795 171.798C109.339 171.102 108.91 170.224 108.502 169.215C107.684 167.195 106.993 164.764 106.331 162.432L104.638 162.913Z" fill="white" mask="url(#path-32-inside-4_11169_2013)"/>
<path d="M96.2959 167.392C96.2959 156.248 104.12 151.731 113.771 157.303L130.459 166.938C140.11 172.51 147.933 186.061 147.933 197.205C147.933 208.349 140.11 212.866 130.459 207.294L113.771 197.659C104.12 192.087 96.2959 178.536 96.2959 167.392Z" fill="#131313"/>
<path d="M96.2959 167.392C96.2959 156.248 104.12 151.731 113.771 157.303L130.459 166.938C140.11 172.51 147.933 186.061 147.933 197.205C147.933 208.349 140.11 212.866 130.459 207.294L113.771 197.659C104.12 192.087 96.2959 178.536 96.2959 167.392Z" fill="url(#paint18_linear_11169_2013)"/>
<path d="M96.2959 167.392C96.2959 156.248 104.12 151.731 113.771 157.303L130.459 166.938C140.11 172.51 147.933 186.061 147.933 197.205C147.933 208.349 140.11 212.866 130.459 207.294L113.771 197.659C104.12 192.087 96.2959 178.536 96.2959 167.392Z" fill="url(#paint19_linear_11169_2013)"/>
<path d="M96.2959 167.392C96.2959 156.248 104.12 151.731 113.771 157.303L130.459 166.938C140.11 172.51 147.933 186.061 147.933 197.205C147.933 208.349 140.11 212.866 130.459 207.294L113.771 197.659C104.12 192.087 96.2959 178.536 96.2959 167.392Z" stroke="white" stroke-width="1.3194"/>
<path d="M109.788 179.198L109.788 169.963L112.588 171.579L113.97 180.425L114.176 180.544L115.559 173.294L118.358 174.91L118.358 184.146L116.895 183.302L116.895 175.346L116.69 175.227L115.319 182.391L112.828 180.953L111.457 172.206L111.251 172.087L111.251 180.043L109.788 179.198ZM119.864 185.016L119.864 175.78L121.373 176.651L121.373 185.887L119.864 185.016ZM122.649 186.623L122.649 184.407L126.602 181.438L126.602 181.227L122.763 179.01L122.763 177.454L128.179 180.581L128.179 182.797L124.226 185.766L124.226 185.977L128.202 188.273L128.202 189.83L122.649 186.623ZM132.546 192.522C131.891 192.144 131.327 191.682 130.855 191.137C130.39 190.587 130.032 189.985 129.781 189.329C129.537 188.67 129.415 187.988 129.415 187.284L129.415 181.294L130.923 182.165L130.923 188.208C130.923 188.771 131.06 189.294 131.335 189.778C131.617 190.266 132.02 190.662 132.546 190.965C133.072 191.269 133.471 191.337 133.746 191.17C134.028 191.007 134.168 190.644 134.168 190.081L134.168 184.039L135.677 184.909L135.677 190.899C135.677 191.603 135.551 192.142 135.3 192.516C135.056 192.885 134.698 193.074 134.226 193.083C133.761 193.087 133.201 192.901 132.546 192.522Z" fill="white"/>
<g filter="url(#filter1_d_11169_2013)">
<path d="M165.112 78.5146C165.112 69.7897 169.863 61.7584 177.507 57.5614L235.401 25.773C242.558 21.8435 251.224 21.8435 258.381 25.773L316.275 57.5614C323.918 61.7584 328.67 69.7897 328.67 78.5146V148.202C328.67 156.927 323.918 164.958 316.275 169.155L258.381 200.943C251.224 204.873 242.558 204.873 235.401 200.943L177.507 169.155C169.863 164.958 165.112 156.927 165.112 148.202V78.5146Z" fill="#131313"/>
<path d="M165.112 78.5146C165.112 69.7897 169.863 61.7584 177.507 57.5614L235.401 25.773C242.558 21.8435 251.224 21.8435 258.381 25.773L316.275 57.5614C323.918 61.7584 328.67 69.7897 328.67 78.5146V148.202C328.67 156.927 323.918 164.958 316.275 169.155L258.381 200.943C251.224 204.873 242.558 204.873 235.401 200.943L177.507 169.155C169.863 164.958 165.112 156.927 165.112 148.202V78.5146Z" fill="url(#paint20_linear_11169_2013)"/>
<path d="M165.112 78.5146C165.112 69.7897 169.863 61.7584 177.507 57.5614L235.401 25.773C242.558 21.8435 251.224 21.8435 258.381 25.773L316.275 57.5614C323.918 61.7584 328.67 69.7897 328.67 78.5146V148.202C328.67 156.927 323.918 164.958 316.275 169.155L258.381 200.943C251.224 204.873 242.558 204.873 235.401 200.943L177.507 169.155C169.863 164.958 165.112 156.927 165.112 148.202V78.5146Z" stroke="white" stroke-width="1.69075"/>
<mask id="path-37-inside-5_11169_2013" fill="white">
<path fill-rule="evenodd" clip-rule="evenodd" d="M208.301 40.528L206.72 41.4077C215.415 38.0858 227.721 36.6643 234.341 41.2121C238.144 43.8248 241.156 43.3385 244.914 42.7316C248.064 42.2229 251.738 41.6294 256.844 42.7046C266.291 44.6938 268.282 49.1697 270.348 53.8152C271.336 56.0369 272.342 58.2974 274.188 60.3432C277.307 63.7987 281.921 65.4271 286.509 67.0461C291.713 68.8826 296.883 70.7072 299.799 75.1727C304.705 82.6861 297.54 86.8983 292.176 90.0516C291.247 90.5973 290.373 91.1113 289.625 91.6052L291.215 90.9366L263.625 105.51C255.691 109.701 250.647 117.863 250.446 126.838L249.379 174.417C249.214 181.752 241.284 186.256 234.906 182.636C230.049 179.88 227.047 174.724 227.047 169.137V121.033C227.047 119.144 226.018 117.406 224.363 116.498C220.919 114.609 216.71 117.102 216.71 121.033V145.615C216.71 151.917 210.117 156.044 204.453 153.287C199.758 151.002 196.779 146.235 196.779 141.011V104.596C196.779 102.68 195.739 100.914 194.063 99.9864C190.553 98.043 186.247 100.583 186.247 104.596V130.883C186.247 135.222 183.829 138.75 180.47 140.566C178.503 141.628 176.798 143.218 176.137 145.354C175.396 147.749 174.087 149.534 170.415 149.171C165.483 148.685 164.271 144.537 164.271 142.427V78.7834C164.271 69.6245 169.326 61.2148 177.412 56.9228L208.301 40.528Z"/>
</mask>
<path fill-rule="evenodd" clip-rule="evenodd" d="M208.301 40.528L206.72 41.4077C215.415 38.0858 227.721 36.6643 234.341 41.2121C238.144 43.8248 241.156 43.3385 244.914 42.7316C248.064 42.2229 251.738 41.6294 256.844 42.7046C266.291 44.6938 268.282 49.1697 270.348 53.8152C271.336 56.0369 272.342 58.2974 274.188 60.3432C277.307 63.7987 281.921 65.4271 286.509 67.0461C291.713 68.8826 296.883 70.7072 299.799 75.1727C304.705 82.6861 297.54 86.8983 292.176 90.0516C291.247 90.5973 290.373 91.1113 289.625 91.6052L291.215 90.9366L263.625 105.51C255.691 109.701 250.647 117.863 250.446 126.838L249.379 174.417C249.214 181.752 241.284 186.256 234.906 182.636C230.049 179.88 227.047 174.724 227.047 169.137V121.033C227.047 119.144 226.018 117.406 224.363 116.498C220.919 114.609 216.71 117.102 216.71 121.033V145.615C216.71 151.917 210.117 156.044 204.453 153.287C199.758 151.002 196.779 146.235 196.779 141.011V104.596C196.779 102.68 195.739 100.914 194.063 99.9864C190.553 98.043 186.247 100.583 186.247 104.596V130.883C186.247 135.222 183.829 138.75 180.47 140.566C178.503 141.628 176.798 143.218 176.137 145.354C175.396 147.749 174.087 149.534 170.415 149.171C165.483 148.685 164.271 144.537 164.271 142.427V78.7834C164.271 69.6245 169.326 61.2148 177.412 56.9228L208.301 40.528Z" fill="white"/>
<path d="M208.301 40.528L211.096 45.5518L205.606 35.45L208.301 40.528ZM206.72 41.4077L203.925 36.384L208.772 46.7781L206.72 41.4077ZM234.341 41.2121L231.086 45.9507L231.086 45.9507L234.341 41.2121ZM244.914 42.7316L243.997 37.0561V37.0561L244.914 42.7316ZM256.844 42.7046L255.66 48.3302L255.66 48.3302L256.844 42.7046ZM270.348 53.8152L265.095 56.1517L265.095 56.1517L270.348 53.8152ZM274.188 60.3432L278.456 56.4913L278.456 56.4911L274.188 60.3432ZM286.509 67.0461L288.422 61.6248H288.422L286.509 67.0461ZM299.799 75.1727L294.985 78.3161L294.985 78.3161L299.799 75.1727ZM292.176 90.0516L289.262 85.0956L292.176 90.0516ZM289.625 91.6052L286.458 86.8068L291.853 96.9046L289.625 91.6052ZM291.215 90.9366L293.9 96.0199L288.986 85.6372L291.215 90.9366ZM263.625 105.51L260.94 100.427V100.427L263.625 105.51ZM250.446 126.838L244.699 126.709V126.71L250.446 126.838ZM249.379 174.417L255.126 174.546V174.546L249.379 174.417ZM234.906 182.636L237.743 177.636L237.743 177.636L234.906 182.636ZM224.363 116.498L221.598 121.538L221.598 121.538L224.363 116.498ZM204.453 153.287L201.937 158.456L201.937 158.456L204.453 153.287ZM194.063 99.9864L196.848 94.9569L196.848 94.9569L194.063 99.9864ZM180.47 140.566L183.203 145.623L183.203 145.623L180.47 140.566ZM176.137 145.354L181.629 147.054L181.629 147.054L176.137 145.354ZM170.415 149.171L170.98 143.45L170.98 143.45L170.415 149.171ZM177.412 56.9228L174.717 51.8448L174.717 51.8448L177.412 56.9228ZM205.506 35.5043L203.925 36.384L209.515 46.4314L211.096 45.5518L205.506 35.5043ZM208.772 46.7781C212.593 45.318 217.23 44.2776 221.541 44.103C226.003 43.9223 229.262 44.6976 231.086 45.9507L237.596 36.4734C232.8 33.1787 226.596 32.3909 221.076 32.6145C215.405 32.8442 209.541 34.1755 204.668 36.0373L208.772 46.7781ZM231.086 45.9507C233.799 47.8147 236.471 48.7034 239.208 48.9116C241.707 49.1017 244.089 48.6882 245.831 48.407L243.997 37.0561C241.98 37.3819 240.978 37.515 240.08 37.4468C239.422 37.3967 238.686 37.2222 237.596 36.4734L231.086 45.9507ZM245.831 48.407C248.854 47.9187 251.646 47.4851 255.66 48.3302L258.029 37.079C251.831 35.7737 247.273 36.5271 243.997 37.0561L245.831 48.407ZM255.66 48.3302C259.578 49.1553 261.327 50.3515 262.287 51.3169C263.37 52.4072 264.013 53.7189 265.095 56.1517L275.601 51.4786C274.617 49.266 273.231 46.017 270.441 43.2106C267.527 40.2795 263.557 38.2431 258.029 37.079L255.66 48.3302ZM265.095 56.1517C266.049 58.2967 267.377 61.3771 269.921 64.1953L278.456 56.4911C277.307 55.2177 276.623 53.7771 275.601 51.4786L265.095 56.1517ZM269.921 64.1951C274.194 68.9297 280.327 70.961 284.596 72.4674L288.422 61.6248C283.515 59.8931 280.421 58.6677 278.456 56.4913L269.921 64.1951ZM284.596 72.4674C290.24 74.4595 293.323 75.7702 294.985 78.3161L304.612 72.0294C300.443 65.6442 293.185 63.3057 288.422 61.6248L284.596 72.4674ZM294.985 78.3161C295.722 79.4446 295.69 79.9466 295.688 79.9727C295.687 79.9988 295.689 80.217 295.294 80.7266C294.86 81.2865 294.124 81.9637 292.997 82.7616C291.879 83.5531 290.637 84.2871 289.262 85.0956L295.089 95.0077C297.5 93.5905 301.723 91.2032 304.384 87.7678C305.837 85.891 307.045 83.4503 307.175 80.4749C307.306 77.4996 306.329 74.6575 304.612 72.0294L294.985 78.3161ZM289.262 85.0956C288.369 85.6207 287.356 86.2144 286.458 86.8068L292.791 96.4037C293.39 96.0082 294.126 95.574 295.089 95.0077L289.262 85.0956ZM291.853 96.9046L293.443 96.2359L288.986 85.6372L287.396 86.3058L291.853 96.9046ZM288.529 85.8532L260.94 100.427L266.31 110.594L293.9 96.0199L288.529 85.8532ZM260.94 100.427C251.161 105.592 244.947 115.651 244.699 126.709L256.194 126.967C256.348 120.076 260.221 113.81 266.31 110.594L260.94 100.427ZM244.699 126.71L243.631 174.288L255.126 174.546L256.194 126.967L244.699 126.71ZM243.631 174.288C243.564 177.281 240.333 179.106 237.743 177.636L232.068 187.636C242.235 193.406 254.864 186.223 255.126 174.546L243.631 174.288ZM237.743 177.636C234.687 175.902 232.796 172.656 232.796 169.137H221.298C221.298 176.792 225.41 183.859 232.069 187.637L237.743 177.636ZM232.796 169.137V121.033H221.298V169.137H232.796ZM232.796 121.033C232.796 117.047 230.624 113.376 227.128 111.458L221.598 121.538C221.412 121.436 221.298 121.242 221.298 121.033H232.796ZM227.128 111.458C219.847 107.463 210.961 112.739 210.961 121.033H222.459C222.459 121.099 222.436 121.216 222.368 121.33C222.309 121.43 222.238 121.492 222.176 121.529C222.113 121.566 222.025 121.599 221.907 121.603C221.773 121.607 221.658 121.571 221.598 121.538L227.128 111.458ZM210.961 121.033V145.615H222.459V121.033H210.961ZM210.961 145.615C210.961 147.676 208.809 149.014 206.969 148.118L201.937 158.456C211.424 163.075 222.459 156.158 222.459 145.615H210.961ZM206.97 148.118C204.254 146.796 202.528 144.037 202.528 141.011H191.03C191.03 148.434 195.263 155.207 201.937 158.456L206.97 148.118ZM202.528 141.011V104.596H191.03V141.011H202.528ZM202.528 104.596C202.528 100.59 200.353 96.8982 196.848 94.9569L191.278 105.016C191.124 104.931 191.03 104.77 191.03 104.596H202.528ZM196.848 94.9569C189.501 90.889 180.498 96.2087 180.498 104.596H191.996C191.996 104.644 191.978 104.744 191.918 104.845C191.867 104.931 191.808 104.981 191.76 105.009C191.711 105.038 191.638 105.066 191.537 105.069C191.419 105.072 191.321 105.04 191.278 105.016L196.848 94.9569ZM180.498 104.596V130.883H191.996V104.596H180.498ZM180.498 130.883C180.498 132.955 179.378 134.621 177.737 135.508L183.203 145.623C188.279 142.88 191.996 137.489 191.996 130.883H180.498ZM177.737 135.508C175.001 136.986 171.908 139.574 170.645 143.655L181.629 147.054C181.689 146.862 182.005 146.271 183.203 145.623L177.737 135.508ZM170.645 143.655C170.593 143.825 170.548 143.949 170.511 144.037C170.494 144.08 170.479 144.111 170.469 144.132C170.464 144.143 170.46 144.151 170.457 144.156C170.455 144.161 170.453 144.164 170.453 144.164C170.455 144.16 170.554 143.991 170.793 143.8C170.91 143.708 171.035 143.63 171.159 143.57C171.282 143.511 171.379 143.482 171.432 143.47C171.531 143.446 171.417 143.493 170.98 143.45L169.851 154.893C172.692 155.173 175.576 154.69 177.958 152.793C180.179 151.023 181.134 148.655 181.629 147.054L170.645 143.655ZM170.98 143.45C170.54 143.407 170.377 143.307 170.358 143.295C170.333 143.28 170.303 143.258 170.257 143.19C170.201 143.107 170.132 142.967 170.08 142.778C170.055 142.688 170.039 142.603 170.029 142.532C170.02 142.459 170.02 142.421 170.02 142.427H158.522C158.522 144.389 159.045 147.133 160.729 149.626C162.567 152.347 165.614 154.475 169.851 154.893L170.98 143.45ZM170.02 142.427V78.7834H158.522V142.427H170.02ZM170.02 78.7834C170.02 71.7506 173.902 65.2949 180.108 62.0008L174.717 51.8448C164.751 57.1348 158.522 67.4985 158.522 78.7834H170.02ZM180.107 62.0009L210.996 45.6061L205.606 35.45L174.717 51.8448L180.107 62.0009Z" fill="white" mask="url(#path-37-inside-5_11169_2013)"/>
</g>
<mask id="path-39-inside-6_11169_2013" fill="white">
<path fill-rule="evenodd" clip-rule="evenodd" d="M359.298 122.419C357.333 121.191 355.149 124.635 352.661 128.559C350.569 131.859 348.261 135.499 345.687 136.986L344.788 135.025C340.517 139.033 337.179 144.026 335.18 149.49C334.896 150.412 334.589 151.371 334.27 152.349C333.5 155.18 333.089 158.109 333.089 161.069L331.667 160.366C330.092 165.504 329.121 169.862 330.612 170.794L323.071 166.082C319.638 163.938 317.527 159.551 317.527 153.376C317.527 140.694 326.431 125.273 337.414 118.931L337.414 118.931C343.05 115.677 348.138 115.446 351.757 117.707L359.298 122.419Z"/>
</mask>
<path fill-rule="evenodd" clip-rule="evenodd" d="M359.298 122.419C357.333 121.191 355.149 124.635 352.661 128.559C350.569 131.859 348.261 135.499 345.687 136.986L344.788 135.025C340.517 139.033 337.179 144.026 335.18 149.49C334.896 150.412 334.589 151.371 334.27 152.349C333.5 155.18 333.089 158.109 333.089 161.069L331.667 160.366C330.092 165.504 329.121 169.862 330.612 170.794L323.071 166.082C319.638 163.938 317.527 159.551 317.527 153.376C317.527 140.694 326.431 125.273 337.414 118.931L337.414 118.931C343.05 115.677 348.138 115.446 351.757 117.707L359.298 122.419Z" fill="black"/>
<path fill-rule="evenodd" clip-rule="evenodd" d="M359.298 122.419C357.333 121.191 355.149 124.635 352.661 128.559C350.569 131.859 348.261 135.499 345.687 136.986L344.788 135.025C340.517 139.033 337.179 144.026 335.18 149.49C334.896 150.412 334.589 151.371 334.27 152.349C333.5 155.18 333.089 158.109 333.089 161.069L331.667 160.366C330.092 165.504 329.121 169.862 330.612 170.794L323.071 166.082C319.638 163.938 317.527 159.551 317.527 153.376C317.527 140.694 326.431 125.273 337.414 118.931L337.414 118.931C343.05 115.677 348.138 115.446 351.757 117.707L359.298 122.419Z" fill="url(#paint21_linear_11169_2013)"/>
<path d="M330.81 170.481L330.81 170.481L330.414 171.107L330.414 171.108L330.81 170.481ZM352.661 128.559L352.035 128.162V128.162L352.661 128.559ZM359.298 122.419L358.906 123.048C359.253 123.264 359.71 123.159 359.927 122.812C360.144 122.465 360.038 122.007 359.691 121.791L359.298 122.419ZM345.687 136.986L345.013 137.295C345.1 137.484 345.263 137.628 345.461 137.692C345.66 137.755 345.876 137.732 346.057 137.628L345.687 136.986ZM344.788 135.025L345.462 134.716C345.362 134.499 345.165 134.344 344.931 134.298C344.697 134.252 344.455 134.321 344.281 134.485L344.788 135.025ZM335.18 149.49L334.484 149.235C334.48 149.248 334.476 149.26 334.472 149.272L335.18 149.49ZM334.27 152.349L333.565 152.119C333.561 152.131 333.558 152.143 333.555 152.154L334.27 152.349ZM333.089 161.069L332.761 161.733C332.99 161.847 333.262 161.834 333.48 161.699C333.698 161.563 333.83 161.325 333.83 161.069H333.089ZM331.667 160.366L331.996 159.702C331.801 159.606 331.573 159.6 331.374 159.686C331.174 159.772 331.022 159.941 330.959 160.149L331.667 160.366ZM330.612 170.794L330.219 171.423C330.566 171.639 331.023 171.534 331.24 171.187C331.457 170.84 331.352 170.383 331.005 170.166L330.612 170.794ZM323.071 166.082L323.464 165.454L323.464 165.454L323.071 166.082ZM337.414 118.931L337.784 119.573C338.116 119.381 338.247 118.968 338.086 118.62L337.414 118.931ZM337.414 118.931L337.043 118.289C336.711 118.481 336.58 118.894 336.741 119.242L337.414 118.931ZM351.757 117.707L352.15 117.078L352.15 117.078L351.757 117.707ZM353.287 128.956C354.545 126.972 355.674 125.197 356.721 124.059C357.245 123.489 357.691 123.145 358.061 122.995C358.386 122.863 358.638 122.88 358.906 123.048L359.691 121.791C358.976 121.344 358.218 121.331 357.503 121.622C356.832 121.895 356.208 122.427 355.63 123.055C354.472 124.314 353.265 126.223 352.035 128.162L353.287 128.956ZM346.057 137.628C347.472 136.811 348.764 135.436 349.942 133.905C351.127 132.365 352.245 130.6 353.287 128.956L352.035 128.162C350.985 129.819 349.904 131.524 348.767 133.001C347.625 134.486 346.476 135.674 345.316 136.344L346.057 137.628ZM344.114 135.334L345.013 137.295L346.36 136.677L345.462 134.716L344.114 135.334ZM344.281 134.485C339.928 138.57 336.523 143.66 334.484 149.235L335.876 149.745C337.834 144.392 341.106 139.497 345.295 135.565L344.281 134.485ZM334.974 152.579C335.294 151.599 335.603 150.636 335.888 149.708L334.472 149.272C334.19 150.189 333.883 151.143 333.565 152.119L334.974 152.579ZM333.555 152.154C332.768 155.046 332.348 158.04 332.348 161.069H333.83C333.83 158.177 334.231 155.314 334.985 152.543L333.555 152.154ZM333.417 160.405L331.996 159.702L331.339 161.03L332.761 161.733L333.417 160.405ZM331.005 170.166C330.9 170.1 330.739 169.913 330.659 169.383C330.58 168.865 330.601 168.153 330.724 167.258C330.968 165.473 331.589 163.149 332.376 160.583L330.959 160.149C330.17 162.722 329.517 165.145 329.255 167.057C329.125 168.01 329.084 168.883 329.194 169.605C329.301 170.315 329.578 171.022 330.219 171.423L331.005 170.166ZM322.678 166.711L330.219 171.423L331.005 170.166L323.464 165.454L322.678 166.711ZM316.786 153.376C316.786 159.703 318.953 164.384 322.679 166.711L323.464 165.454C320.322 163.491 318.268 159.399 318.268 153.376H316.786ZM318.268 153.376C318.268 147.196 320.443 140.297 323.994 134.146C327.545 127.996 332.432 122.663 337.784 119.573L337.043 118.289C331.413 121.54 326.357 127.089 322.71 133.405C319.064 139.721 316.786 146.874 316.786 153.376H318.268ZM336.741 119.242L336.741 119.242L338.086 118.62L338.086 118.62L336.741 119.242ZM352.15 117.078C348.216 114.621 342.818 114.955 337.043 118.289L337.784 119.573C343.282 116.399 348.061 116.272 351.365 118.335L352.15 117.078ZM359.691 121.791L352.15 117.078L351.364 118.335L358.906 123.047L359.691 121.791Z" fill="white" mask="url(#path-39-inside-6_11169_2013)"/>
<circle cx="22.9637" cy="22.9637" r="22.5932" transform="matrix(0.866025 -0.5 2.20305e-08 1 325.068 135.123)" fill="#131313"/>
<circle cx="22.9637" cy="22.9637" r="22.5932" transform="matrix(0.866025 -0.5 2.20305e-08 1 325.068 135.123)" fill="url(#paint22_linear_11169_2013)"/>
<circle cx="22.9637" cy="22.9637" r="22.5932" transform="matrix(0.866025 -0.5 2.20305e-08 1 325.068 135.123)" fill="white"/>
<circle cx="22.9637" cy="22.9637" r="22.5932" transform="matrix(0.866025 -0.5 2.20305e-08 1 325.068 135.123)" stroke="white" stroke-width="0.741029"/>
<path d="M336.829 158.132L341.635 142.909L344.099 141.486L348.92 151.152L346.301 152.664L342.358 143.949L343.344 143.38L339.386 156.656L336.829 158.132ZM339.232 154.078L339.894 151.508L345.439 148.306L346.117 150.103L339.232 154.078ZM350.038 150.506L350.038 138.057L352.533 136.616L352.533 149.066L350.038 150.506Z" fill="#131313"/>
<circle cx="263.36" cy="219.637" r="6.40464" fill="#131313"/>
<circle cx="263.36" cy="219.637" r="6.40464" fill="url(#paint23_linear_11169_2013)"/>
<circle cx="263.36" cy="219.637" r="6.40464" fill="url(#paint24_linear_11169_2013)"/>
<circle cx="263.36" cy="219.637" r="6.40464" stroke="url(#paint25_linear_11169_2013)" stroke-width="0.7"/>
<circle cx="263.359" cy="218.223" r="3.4043" fill="url(#paint26_radial_11169_2013)"/>
<circle cx="145.466" cy="109.255" r="3.85697" fill="#131313"/>
<circle cx="145.466" cy="109.255" r="3.85697" fill="url(#paint27_linear_11169_2013)"/>
<circle cx="145.466" cy="109.255" r="3.85697" fill="url(#paint28_linear_11169_2013)"/>
<circle cx="145.466" cy="109.255" r="3.85697" fill="url(#paint29_linear_11169_2013)"/>
<circle cx="145.466" cy="109.255" r="3.85697" stroke="url(#paint30_linear_11169_2013)" stroke-width="0.421551"/>
<circle cx="145.466" cy="108.404" r="2.05012" fill="url(#paint31_radial_11169_2013)"/>
</g>
<defs>
<filter id="filter0_d_11169_2013" x="-18.1969" y="188.418" width="487.329" height="181.501" filterUnits="userSpaceOnUse" color-interpolation-filters="sRGB">
<feFlood flood-opacity="0" result="BackgroundImageFix"/>
<feColorMatrix in="SourceAlpha" type="matrix" values="0 0 0 0 0 0 0 0 0 0 0 0 0 0 0 0 0 0 127 0" result="hardAlpha"/>
<feOffset/>
<feGaussianBlur stdDeviation="9.25277"/>
<feComposite in2="hardAlpha" operator="out"/>
<feColorMatrix type="matrix" values="0 0 0 0 0.998226 0 0 0 0 0.998226 0 0 0 0 0.998226 0 0 0 0.08 0"/>
<feBlend mode="normal" in2="BackgroundImageFix" result="effect1_dropShadow_11169_2013"/>
<feBlend mode="normal" in="SourceGraphic" in2="effect1_dropShadow_11169_2013" result="shape"/>
</filter>
<filter id="filter1_d_11169_2013" x="141.409" y="5.6494" width="208.891" height="221.945" filterUnits="userSpaceOnUse" color-interpolation-filters="sRGB">
<feFlood flood-opacity="0" result="BackgroundImageFix"/>
<feColorMatrix in="SourceAlpha" type="matrix" values="0 0 0 0 0 0 0 0 0 0 0 0 0 0 0 0 0 0 127 0" result="hardAlpha"/>
<feOffset/>
<feGaussianBlur stdDeviation="8.16553"/>
<feComposite in2="hardAlpha" operator="out"/>
<feColorMatrix type="matrix" values="0 0 0 0 0.998226 0 0 0 0 0.998226 0 0 0 0 0.998226 0 0 0 0.21 0"/>
<feBlend mode="normal" in2="BackgroundImageFix" result="effect1_dropShadow_11169_2013"/>
<feBlend mode="normal" in="SourceGraphic" in2="effect1_dropShadow_11169_2013" result="shape"/>
</filter>
<radialGradient id="paint0_radial_11169_2013" cx="0" cy="0" r="1" gradientUnits="userSpaceOnUse" gradientTransform="translate(245.282 209.006) rotate(30.6827) scale(206.791 211.665)">
<stop stop-color="white"/>
<stop offset="1" stop-color="white" stop-opacity="0"/>
</radialGradient>
<linearGradient id="paint1_linear_11169_2013" x1="246.241" y1="172.81" x2="246.241" y2="305.665" gradientUnits="userSpaceOnUse">
<stop stop-color="#131313"/>
<stop offset="1" stop-color="#272727"/>
</linearGradient>
<linearGradient id="paint2_linear_11169_2013" x1="475.15" y1="235.533" x2="475.424" y2="265.467" gradientUnits="userSpaceOnUse">
<stop stop-color="#0A0A0A"/>
<stop offset="1" stop-color="#232222"/>
</linearGradient>
<linearGradient id="paint3_linear_11169_2013" x1="24.9814" y1="9.94339" x2="18.0447" y2="32.582" gradientUnits="userSpaceOnUse">
<stop stop-color="#0A0A0A"/>
<stop offset="1" stop-color="#232222"/>
</linearGradient>
<linearGradient id="paint4_linear_11169_2013" x1="7.98396" y1="20.9607" x2="17.0511" y2="12.8198" gradientUnits="userSpaceOnUse">
<stop stop-color="#0A0A0A"/>
<stop offset="1" stop-color="#232222"/>
</linearGradient>
<radialGradient id="paint5_radial_11169_2013" cx="0" cy="0" r="1" gradientUnits="userSpaceOnUse" gradientTransform="translate(247.042 194.635) rotate(30.6836) scale(96.8598 99.2727)">
<stop stop-color="white"/>
<stop offset="1" stop-color="white" stop-opacity="0"/>
</radialGradient>
<linearGradient id="paint6_linear_11169_2013" x1="37.1049" y1="233.212" x2="37.3795" y2="263.146" gradientUnits="userSpaceOnUse">
<stop stop-color="#0A0A0A"/>
<stop offset="1" stop-color="#232222"/>
</linearGradient>
<linearGradient id="paint7_linear_11169_2013" x1="24.9814" y1="9.94339" x2="18.0447" y2="32.582" gradientUnits="userSpaceOnUse">
<stop stop-color="#0A0A0A"/>
<stop offset="1" stop-color="#232222"/>
</linearGradient>
<linearGradient id="paint8_linear_11169_2013" x1="7.98396" y1="20.9607" x2="17.0511" y2="12.8198" gradientUnits="userSpaceOnUse">
<stop stop-color="#0A0A0A"/>
<stop offset="1" stop-color="#232222"/>
</linearGradient>
<linearGradient id="paint9_linear_11169_2013" x1="244.841" y1="189.217" x2="310.309" y2="188.838" gradientUnits="userSpaceOnUse">
<stop stop-color="#0A0A0A"/>
<stop offset="1" stop-color="#2B2A2A"/>
</linearGradient>
<linearGradient id="paint10_linear_11169_2013" x1="243.826" y1="-5.597" x2="243.826" y2="248.47" gradientUnits="userSpaceOnUse">
<stop offset="0.59375" stop-color="white" stop-opacity="0"/>
<stop offset="1" stop-color="white" stop-opacity="0.4"/>
</linearGradient>
<linearGradient id="paint11_linear_11169_2013" x1="219.15" y1="302.641" x2="217.02" y2="311.109" gradientUnits="userSpaceOnUse">
<stop stop-color="#8F8F8F"/>
<stop offset="1" stop-color="#484848"/>
</linearGradient>
<linearGradient id="paint12_linear_11169_2013" x1="191.478" y1="287.425" x2="189.348" y2="295.892" gradientUnits="userSpaceOnUse">
<stop stop-color="#8F8F8F"/>
<stop offset="1" stop-color="#484848"/>
</linearGradient>
<linearGradient id="paint13_linear_11169_2013" x1="257.308" y1="360.993" x2="257.583" y2="390.928" gradientUnits="userSpaceOnUse">
<stop stop-color="#0A0A0A"/>
<stop offset="1" stop-color="#232222"/>
</linearGradient>
<linearGradient id="paint14_linear_11169_2013" x1="24.9814" y1="9.94339" x2="18.0447" y2="32.582" gradientUnits="userSpaceOnUse">
<stop stop-color="#0A0A0A"/>
<stop offset="1" stop-color="#232222"/>
</linearGradient>
<linearGradient id="paint15_linear_11169_2013" x1="7.98396" y1="20.9607" x2="17.0511" y2="12.8198" gradientUnits="userSpaceOnUse">
<stop stop-color="#0A0A0A"/>
<stop offset="1" stop-color="#232222"/>
</linearGradient>
<linearGradient id="paint16_linear_11169_2013" x1="101.539" y1="179.604" x2="157.667" y2="179.604" gradientUnits="userSpaceOnUse">
<stop stop-color="#131313"/>
<stop offset="1" stop-color="#232222"/>
</linearGradient>
<linearGradient id="paint17_linear_11169_2013" x1="129.408" y1="179.719" x2="157.667" y2="179.617" gradientUnits="userSpaceOnUse">
<stop stop-color="#0A0A0A"/>
<stop offset="1" stop-color="#232222"/>
</linearGradient>
<linearGradient id="paint18_linear_11169_2013" x1="95.7246" y1="167.062" x2="148.505" y2="167.062" gradientUnits="userSpaceOnUse">
<stop stop-color="#131313"/>
<stop offset="1" stop-color="#232222"/>
</linearGradient>
<linearGradient id="paint19_linear_11169_2013" x1="121.931" y1="182.273" x2="148.43" y2="182.145" gradientUnits="userSpaceOnUse">
<stop stop-color="#0A0A0A"/>
<stop offset="1" stop-color="#232222"/>
</linearGradient>
<linearGradient id="paint20_linear_11169_2013" x1="295.764" y1="107.006" x2="308.516" y2="162.09" gradientUnits="userSpaceOnUse">
<stop stop-color="#0A0A0A"/>
<stop offset="1" stop-color="#232222"/>
</linearGradient>
<linearGradient id="paint21_linear_11169_2013" x1="336.188" y1="144.475" x2="331.234" y2="162.838" gradientUnits="userSpaceOnUse">
<stop stop-color="#8F8F8F"/>
<stop offset="1" stop-color="#484848"/>
</linearGradient>
<linearGradient id="paint22_linear_11169_2013" x1="20.5178" y1="23.7801" x2="32.4862" y2="37.8035" gradientUnits="userSpaceOnUse">
<stop stop-color="#0A0A0A"/>
<stop offset="1" stop-color="#232222"/>
</linearGradient>
<linearGradient id="paint23_linear_11169_2013" x1="256.605" y1="219.637" x2="270.115" y2="219.637" gradientUnits="userSpaceOnUse">
<stop stop-color="#131313"/>
<stop offset="1" stop-color="#232222"/>
</linearGradient>
<linearGradient id="paint24_linear_11169_2013" x1="263.313" y1="219.664" x2="270.115" y2="219.637" gradientUnits="userSpaceOnUse">
<stop stop-color="#0A0A0A"/>
<stop offset="1" stop-color="#232222"/>
</linearGradient>
<linearGradient id="paint25_linear_11169_2013" x1="267.98" y1="216.14" x2="263.36" y2="226.392" gradientUnits="userSpaceOnUse">
<stop stop-color="white" stop-opacity="0.38"/>
<stop offset="1" stop-color="#999999" stop-opacity="0.43"/>
</linearGradient>
<radialGradient id="paint26_radial_11169_2013" cx="0" cy="0" r="1" gradientUnits="userSpaceOnUse" gradientTransform="translate(263.785 218.648) rotate(90) scale(2.55322)">
<stop stop-color="white"/>
<stop offset="1" stop-color="#999999" stop-opacity="0"/>
</radialGradient>
<linearGradient id="paint27_linear_11169_2013" x1="141.398" y1="109.255" x2="149.534" y2="109.255" gradientUnits="userSpaceOnUse">
<stop stop-color="#131313"/>
<stop offset="1" stop-color="#232222"/>
</linearGradient>
<linearGradient id="paint28_linear_11169_2013" x1="145.438" y1="109.271" x2="149.534" y2="109.255" gradientUnits="userSpaceOnUse">
<stop stop-color="#0A0A0A"/>
<stop offset="1" stop-color="#232222"/>
</linearGradient>
<linearGradient id="paint29_linear_11169_2013" x1="145.033" y1="109.4" x2="144.451" y2="112.216" gradientUnits="userSpaceOnUse">
<stop stop-color="#8F8F8F"/>
<stop offset="1" stop-color="#484848"/>
</linearGradient>
<linearGradient id="paint30_linear_11169_2013" x1="148.248" y1="107.149" x2="145.466" y2="113.323" gradientUnits="userSpaceOnUse">
<stop stop-color="white" stop-opacity="0.38"/>
<stop offset="1" stop-color="#999999" stop-opacity="0.43"/>
</linearGradient>
<radialGradient id="paint31_radial_11169_2013" cx="0" cy="0" r="1" gradientUnits="userSpaceOnUse" gradientTransform="translate(145.722 108.66) rotate(90) scale(1.53759)">
<stop stop-color="white"/>
<stop offset="1" stop-color="#999999" stop-opacity="0"/>
</radialGradient>
<clipPath id="clip0_11169_2013">
<rect width="491" height="394.477" fill="white" transform="translate(0 0.523438)"/>
</clipPath>
</defs>
</svg>
