<svg fill="none" height="407" viewBox="0 0 241 407" width="241" xmlns="http://www.w3.org/2000/svg" xmlns:xlink="http://www.w3.org/1999/xlink"><mask id="a" fill="#fff"><path clip-rule="evenodd" d="m89.3486 17.0735-28.779 15.275c-7.323 3.887-11.9016 11.5032-11.9016 19.7978v57.6377c0 1.912 1.0977 5.668 5.5651 6.108 3.3255.328 4.5107-1.287 5.182-3.456.5987-1.935 2.1425-3.375 3.9236-4.337 3.0419-1.644 5.2324-4.84 5.2324-8.769v-23.8064c0-3.635 3.8993-5.935 7.0779-4.1751 1.5177.8404 2.4599 2.4393 2.4599 4.1751v32.9784c0 4.732 2.6983 9.048 6.9501 11.118 5.129 2.497 11.1004-1.241 11.1004-6.949v-22.2619c0-3.5596 3.8117-5.8181 6.9306-4.1069 1.499.8222 2.431 2.3964 2.431 4.1069v43.5649c0 5.06 2.718 9.73 7.117 12.226 5.777 3.278 12.958-.801 13.107-7.444l.967-43.0892c.182-8.1281 4.75-15.5201 11.935-19.3157l24.978-13.1942-1.43.6017c.678-.4473 1.47-.9128 2.31-1.4071 4.858-2.8557 11.348-6.6705 6.904-13.4749-2.641-4.0442-7.323-5.6965-12.036-7.3597-4.154-1.4663-8.333-2.941-11.158-6.0705-1.672-1.8527-2.583-3.8999-3.478-5.912-1.871-4.2071-3.674-8.2607-12.229-10.0622-4.624-.9737-7.952-.4362-10.805.0244-3.403.5497-6.131.9901-9.575-1.3761-5.996-4.1186-17.1404-2.8312-25.0147.1772zm26.7674-11.31771-7.419 1.24299c2.391-.88979 4.91-1.30351 7.419-1.24299z" fill="#fff" fill-rule="evenodd"/></mask><g stroke="#fff"><path d="m4.87891 308.6v31.357l25.94719 14.485 25.9471-17.053v-28.789" stroke-width=".948304"/><path d="m0 0h28.9703v28.9703h-28.9703z" stroke-width=".948304" transform="matrix(.866025 .5 -.866025 .5 30.832 294.121)"/><path d="m30.832 323.092v29.771" stroke-linecap="round" stroke-linejoin="round" stroke-width=".948304"/><path d="m4.87891 205.086v31.357l25.94719 14.485 25.9471-17.053v-28.789" stroke-width=".948304"/><path d="m0 0h28.9703v28.9703h-28.9703z" stroke-width=".948304" transform="matrix(.866025 .5 -.866025 .5 30.832 190.607)"/><path d="m30.832 219.578v29.771" stroke-linecap="round" stroke-linejoin="round" stroke-width=".948304"/><path d="m184.84 307.793v29.936l25.947 15.906 25.947-14.485v-31.357" stroke-width=".948304"/><path d="m0 0h28.9703v28.9703h-28.9703z" stroke-width=".948304" transform="matrix(.866025 .5 -.866025 .5 210.793 293.314)"/><path d="m210.793 322.285v29.771" stroke-linecap="round" stroke-linejoin="round" stroke-width=".948304"/><path d="m184.84 204.275v29.936l25.947 15.907 25.947-14.485v-31.358" stroke-width=".948304"/><path d="m0 0h28.9703v28.9703h-28.9703z" stroke-width=".948304" transform="matrix(.866025 .5 -.866025 .5 210.793 189.797)"/><path d="m210.793 218.768v29.771" stroke-linecap="round" stroke-linejoin="round" stroke-width=".948304"/><path d="m95.7773 359.914v31.357l25.9477 14.486 25.947-14.486v-31.357" stroke-width=".948304"/><path d="m0 0h28.9703v28.9703h-28.9703z" stroke-width=".948304" transform="matrix(.866025 .5 -.866025 .5 121.73 345.426)"/><path d="m121.73 374.396v29.772" stroke-linecap="round" stroke-linejoin="round" stroke-width=".948304"/><path d="m95.7773 256.385v31.357l25.9477 14.485 25.947-14.485v-31.357" stroke-width=".948304"/><path d="m0 0h28.9703v28.9703h-28.9703z" stroke-width=".948304" transform="matrix(.866025 .5 -.866025 .5 121.73 241.906)"/><path d="m121.73 270.877v29.771" stroke-linecap="round" stroke-linejoin="round" stroke-width=".948304"/><path d="m95.7773 154.121v31.357l25.9477 14.486 25.947-14.486v-31.357" stroke-width=".948304"/><path d="m0 0h28.9703v28.9703h-28.9703z" stroke-width=".948304" transform="matrix(.866025 .5 -.866025 .5 121.73 139.633)"/><path d="m121.73 168.604v29.771" stroke-linecap="round" stroke-linejoin="round" stroke-width=".948304"/><path d="m0 .474152h133.304v133.304h-133.304z" stroke-width=".948304" transform="matrix(.866025 .5 -.866025 .5 121.729 241.153)"/><path d="m0 .474152h133.304v133.304h-133.304z" stroke-width=".948304" transform="matrix(.866025 .5 -.866025 .5 121.729 137.632)"/></g><path d="m3.05859 134.148v20.894l118.12041 68.79 118.215-68.79v-20.894l-124.063-18.687z" fill="#131313"/><path d="m3.05859 134.148v20.894l118.12041 68.79 118.215-68.79v-20.894" stroke="#fff" stroke-linejoin="round" stroke-width=".870609"/><path d="m0 .435304h136.709v136.709h-136.709z" fill="#131313" stroke="#fff" stroke-width=".870609" transform="matrix(.866025 .5 -.866025 .5 121.525 65.6044)"/><path d="m121.225 223.859v-21.556" stroke="#fff" stroke-linecap="round" stroke-linejoin="round" stroke-width=".870609"/><path d="m49.7352 52.4691c0-7.7902 4.2421-14.961 11.0668-18.7083l52.431-28.7888-.515-.93891.515.93891c6.39-3.50844 14.128-3.50844 20.517 0l.516-.93891-.516.93891 52.431 28.7888c6.825 3.7473 11.067 10.9181 11.067 18.7083v63.1109c0 7.791-4.242 14.961-11.067 18.709l-52.431 28.788.516.939-.516-.939c-6.389 3.509-14.127 3.509-20.517 0l-.515.939.515-.939-52.4311-28.788c-6.8246-3.748-11.0667-10.918-11.0667-18.709z" fill="#131313" stroke="#fff" stroke-width="2.14227"/><path clip-rule="evenodd" d="m89.3486 17.0735-28.779 15.275c-7.323 3.887-11.9016 11.5032-11.9016 19.7978v57.6377c0 1.912 1.0977 5.668 5.5651 6.108 3.3255.328 4.5107-1.287 5.182-3.456.5987-1.935 2.1425-3.375 3.9236-4.337 3.0419-1.644 5.2324-4.84 5.2324-8.769v-23.8064c0-3.635 3.8993-5.935 7.0779-4.1751 1.5177.8404 2.4599 2.4393 2.4599 4.1751v32.9784c0 4.732 2.6983 9.048 6.9501 11.118 5.129 2.497 11.1004-1.241 11.1004-6.949v-22.2619c0-3.5596 3.8117-5.8181 6.9306-4.1069 1.499.8222 2.431 2.3964 2.431 4.1069v43.5649c0 5.06 2.718 9.73 7.117 12.226 5.777 3.278 12.958-.801 13.107-7.444l.967-43.0892c.182-8.1281 4.75-15.5201 11.935-19.3157l24.978-13.1942-1.43.6017c.678-.4473 1.47-.9128 2.31-1.4071 4.858-2.8557 11.348-6.6705 6.904-13.4749-2.641-4.0442-7.323-5.6965-12.036-7.3597-4.154-1.4663-8.333-2.941-11.158-6.0705-1.672-1.8527-2.583-3.8999-3.478-5.912-1.871-4.2071-3.674-8.2607-12.229-10.0622-4.624-.9737-7.952-.4362-10.805.0244-3.403.5497-6.131.9901-9.575-1.3761-5.996-4.1186-17.1404-2.8312-25.0147.1772zm26.7674-11.31771-7.419 1.24299c2.391-.88979 4.91-1.30351 7.419-1.24299z" fill="#fff" fill-rule="evenodd"/><path d="m60.5696 32.3485-2.4409-4.5989-.0001.0001zm28.779-15.275 2.5008 4.5666-4.9418-9.1655zm-35.1155 98.8185.5109-5.181zm5.182-3.456 4.9738 1.539zm3.9236-4.337 2.4751 4.58h.0002zm12.3103-36.7505 2.5221-4.5548zm9.41 48.2715-2.279 4.681h.0002zm18.031-33.3178-2.504 4.5647v.0001zm9.548 59.8978 2.57-4.529h-.001zm13.107-7.444 5.206.116zm.967-43.0892-5.205-.1168v.0001zm11.935-19.3157-2.432-4.6037zm24.978-13.1942 2.432 4.6038-4.45-9.4031zm-1.43.6017-2.868-4.3457 4.886 9.145zm2.31-1.4071 2.639 4.4885zm6.904-13.4749-4.359 2.8468zm-12.036-7.3597 1.733-4.9098zm-11.158-6.0705 3.865-3.4884v-.0002zm-3.478-5.912-4.757 2.116zm-12.229-10.0622-1.073 5.0948zm-10.805.0244-.83-5.1399zm-9.575-1.3761-2.948 4.2915zm-25.0147.1772-2.5009-4.5666 4.359 9.4302zm29.0027-12.54191.86 5.13491-.735-10.339912zm-7.419 1.24299-1.816-4.8795 2.677 10.01442zm-45.6865 29.94862 28.779-15.275-4.8819-9.1978-28.7789 15.275zm-9.136 15.1989c0-6.3692 3.5157-12.2157 9.1361-15.199l-4.882-9.1976c-9.0257 4.7907-14.6671 14.1765-14.6671 24.3966zm0 57.6377v-57.6377h-10.413v57.6377zm.8695.927c-.3984-.039-.5459-.13-.5628-.14-.0231-.014-.0497-.034-.0914-.095-.0512-.076-.1132-.202-.1605-.374-.0224-.081-.0372-.158-.0459-.222-.0089-.066-.0089-.101-.0089-.096h-10.413c0 1.777.4743 4.262 1.9992 6.52 1.6647 2.465 4.4237 4.391 8.2615 4.77zm-.3027.185c-.0477.154-.0886.266-.1213.346-.016.039-.029.068-.0383.087-.0046.01-.0082.017-.0106.021-.0025.005-.0038.007-.0038.007.0019-.003.0911-.156.3079-.329.1054-.084.2186-.154.3312-.208.1115-.054.1991-.08.2475-.091.0898-.021-.0134.021-.4099-.018l-1.0219 10.363c2.5723.254 5.185-.183 7.3416-1.901 2.0118-1.603 2.8763-3.748 3.3252-5.198zm6.4222-7.378c-2.4774 1.339-5.2786 3.683-6.4222 7.378l9.9476 3.079c.0538-.174.3402-.71 1.4249-1.296zm2.5011-4.188c0 1.876-1.0146 3.385-2.5013 4.188l4.9507 9.161c4.5973-2.484 7.9637-7.367 7.9637-13.349zm0-23.8064v23.8064h10.4131v-23.8064zm14.8065-8.7299c-6.6534-3.6841-14.8065 1.1336-14.8065 8.7299h10.4131c0 .0434-.0169.1341-.0708.2249-.0461.0776-.0995.1229-.1435.1489-.0441.026-.1101.0511-.2016.0539-.1068.0033-.1957-.0262-.2349-.0479zm5.1443 8.7299c0-3.6284-1.9693-6.9719-5.1443-8.7299l-5.0442 9.1097c-.1395-.0772-.2245-.223-.2245-.3798zm0 32.9784v-32.9784h-10.413v32.9784zm4.0226 6.437c-2.4597-1.198-4.0226-3.696-4.0226-6.437h-10.413c0 6.722 3.8336 12.857 9.8776 15.799zm3.6149-2.268c0 1.867-1.949 3.079-3.6151 2.268l-4.5576 9.362c8.592 4.183 18.5858-2.081 18.5858-11.63zm0-22.2619v22.2619h10.4131v-22.2619zm14.6411-8.6716c-6.5934-3.6175-14.6411 1.16-14.6411 8.6716h10.4131c0 .0603-.021.166-.083.2693-.053.0904-.117.1463-.174.1799-.056.0336-.137.0631-.243.0667-.121.0041-.226-.0283-.28-.0581zm5.133 8.6716c0-3.6102-1.966-6.9347-5.133-8.6717l-5.008 9.1296c-.169-.0926-.272-.2687-.272-.4579zm0 43.5649v-43.5649h-10.413v43.5649zm4.48 7.697c-2.767-1.57-4.48-4.51-4.48-7.697h-10.413c0 6.933 3.725 13.332 9.755 16.754zm5.333-3.032c-.061 2.711-2.987 4.364-5.332 3.032l-5.14 9.057c9.208 5.225 20.645-1.28 20.883-11.856zm.967-43.0889-.967 43.0889 10.411.233.966-43.0884zm14.708-23.8027c-8.856 4.6782-14.484 13.7879-14.708 23.8026l10.41.2337c.14-6.2415 3.647-11.9159 9.162-14.8289zm24.979-13.1942-24.979 13.1942 4.864 9.2074 24.978-13.1941zm3.019 10.0047 1.431-.6016-4.037-9.5987-1.431.6016zm-2.346-10.6948c-.809.4756-1.727 1.0133-2.54 1.5498l5.736 8.6913c.542-.3581 1.209-.7514 2.081-1.2642zm5.183-6.1397c.667 1.022.638 1.4766.637 1.5003-.001.0236 0 .2212-.358.6827-.393.5071-1.06 1.1204-2.08 1.843-1.012.7168-2.137 1.3816-3.382 2.1137l5.277 8.9769c2.183-1.2835 6.007-3.4456 8.417-6.5568 1.317-1.6997 2.411-3.9101 2.529-6.6047.117-2.6946-.767-5.2685-2.322-7.6486zm-9.409-5.2968c5.112 1.8041 7.903 2.9911 9.409 5.2968l8.718-5.6935c-3.776-5.7827-10.349-7.9005-14.662-9.4228zm-13.291-7.4917c3.87 4.2878 9.425 6.1275 13.291 7.4917l3.465-9.8195c-4.444-1.5683-7.247-2.678-9.026-4.6491zm-4.37-7.2845c.864 1.9426 2.067 4.7324 4.37 7.2846l7.73-6.9772c-1.041-1.1533-1.66-2.4579-2.586-4.5395zm-8.545-7.0834c3.548.7472 5.132 1.8305 6.002 2.7049.981.9873 1.563 2.1753 2.543 4.3785l9.514-4.2321c-.891-2.0038-2.146-4.9462-4.673-7.4878-2.639-2.6546-6.234-4.4988-11.24-5.5531zm-8.902.0696c2.739-.4423 5.267-.8349 8.902-.0696l2.146-10.1896c-5.614-1.182-9.741-.4998-12.708-.0207zm-13.353-2.2246c2.457 1.6881 4.877 2.493 7.356 2.6816 2.263.1721 4.42-.2024 5.997-.457l-1.66-10.2799c-1.827.2951-2.734.4157-3.547.3538-.597-.0453-1.263-.2034-2.25-.8815zm-20.2086.7493c3.4611-1.3223 7.6606-2.2645 11.5646-2.4226 4.041-.1637 6.992.5385 8.644 1.6733l5.896-8.583c-4.344-2.9838-9.962-3.6973-14.962-3.4948-5.1355.208-10.4456 1.4137-14.8589 3.0998zm-2.1237-10.6544-2.2353 1.2242 5.0018 9.1331 2.2352-1.2241zm28.4073-11.886047-7.418 1.242987 1.721 10.26986 7.418-1.243zm-4.742 11.257447c1.764-.6566 3.624-.9622 5.477-.9175l.251-10.410012c-3.164-.076337-6.343.445482-9.36 1.568492z" fill="#fff" mask="url(#a)"/></svg>