<svg width="17" height="18" viewBox="0 0 17 18" fill="none" xmlns="http://www.w3.org/2000/svg">
<path d="M16.5071 6.06642L11.1435 8.97441C10.2536 9.45688 9.68797 10.3965 9.66539 11.4297L9.54568 16.9069C9.52722 17.7514 8.6378 18.2698 7.92239 17.8532C7.37759 17.5359 7.04093 16.9423 7.04093 16.299V10.7614C7.04093 10.544 6.92555 10.3438 6.73994 10.2393C6.35364 10.0218 5.88159 10.3089 5.88159 10.7614V13.5912C5.88159 14.3167 5.14207 14.7919 4.50685 14.4745C3.98029 14.2114 3.64611 13.6627 3.64611 13.0613V8.86922C3.64611 8.64858 3.52945 8.44533 3.34147 8.3385C2.94784 8.11478 2.46491 8.40717 2.46491 8.86922V11.8953C2.46491 12.063 2.43436 12.2201 2.37951 12.3628C2.09953 13.0912 1.46561 14.0793 0.68921 14.0007C0.135948 13.9447 0 13.4672 0 13.2242V5.89765C0 4.84327 0.56704 3.87513 1.47396 3.38105L7.13832 0.295219C7.88111 -0.109442 8.77349 -0.09742 9.50569 0.327112L16.53 4.39977C17.1669 4.76906 17.1539 5.71574 16.5071 6.06642Z" fill="#37DBFF"/>
</svg>
