<svg width="83" height="30" viewBox="0 0 83 30" fill="none" xmlns="http://www.w3.org/2000/svg">
<path d="M0 9.28028C0 7.79745 0.805101 6.43244 2.10043 5.7191L11.576 0.500915C12.7888 -0.166972 14.2574 -0.166972 15.4702 0.500915L24.9458 5.7191C26.2411 6.43244 27.0462 7.79745 27.0462 9.28028V20.7197C27.0462 22.2026 26.2411 23.5676 24.9458 24.2809L15.4702 29.4991C14.2574 30.167 12.7888 30.167 11.576 29.4991L2.10043 24.2809C0.805102 23.5676 0 22.2026 0 20.7197V9.28028Z" fill="black"/>
<path d="M24.0882 9.37307L16.2613 13.5197C14.9628 14.2077 14.1373 15.5475 14.1044 17.0208L13.9297 24.8309C13.9028 26.0351 12.6048 26.7744 11.5609 26.1803C10.7659 25.7278 10.2746 24.8814 10.2746 23.9642V16.0678C10.2746 15.7578 10.1062 15.4724 9.83537 15.3234C9.27165 15.0132 8.58281 15.4226 8.58281 16.0678V20.103C8.58281 21.1375 7.50365 21.815 6.57669 21.3624C5.8083 20.9873 5.32064 20.2049 5.32064 19.3473V13.3697C5.32064 13.0551 5.1504 12.7653 4.8761 12.6129C4.30168 12.2939 3.59696 12.7108 3.59696 13.3697V17.6848C3.59696 18.397 3.20109 18.9762 2.65133 19.2742C2.32946 19.4486 2.05046 19.7095 1.94225 20.0602C1.82094 20.4534 1.60674 20.7463 1.00574 20.6868C0.198384 20.607 0 19.9262 0 19.5797V9.13241C0 7.62894 0.827462 6.24842 2.1509 5.5439L10.4167 1.14368C11.5006 0.566656 12.8029 0.583799 13.8713 1.18916L24.1216 6.99653C25.051 7.52311 25.0321 8.87302 24.0882 9.37307Z" fill="#37DBFF"/>
<path d="M11.2595 0.749038L7.60675 2.75537C9.02983 2.21008 11.0439 1.97672 12.1275 2.72326C13.2718 3.51161 13.9778 2.58119 15.8106 2.96826C18.0962 3.45097 17.7151 4.8257 18.6493 5.86371C19.7388 7.07434 21.9429 6.91871 22.841 8.29803C23.783 9.74481 22.0061 10.4459 21.1758 10.9955L26.7021 8.66439L26.0788 6.92286L24.8731 6.07608L15.8106 0.647998L14.3328 0.232583L11.2595 0.749038Z" fill="black"/>
<path d="M50.4989 22.016H47.477V12.8199L43.8703 22.016H41.3748L37.768 12.9373V22.016H34.8436V8.14365H38.8598L42.6615 17.5158L46.2683 8.14365H50.4989V22.016Z" fill="black"/>
<path d="M56.6213 22.016H53.5019V8.14365H56.6213V22.016Z" fill="black"/>
<path d="M69.7904 22.016H58.8141V19.0419L65.4818 11.0981H59.1066V8.14365H69.7124V11.0003L62.8888 19.0615H69.7904V22.016Z" fill="black"/>
<path d="M77.5216 22.329C74.4802 22.329 72.0432 20.4898 72.0432 17.0071V8.14365H75.1236V16.7527C75.1236 18.4354 76.0594 19.2767 77.5216 19.2767C78.9838 19.2767 79.9196 18.4354 79.9196 16.7527V8.14365H83V17.0071C83 20.4898 80.563 22.329 77.5216 22.329Z" fill="black"/>
</svg>
