<svg width="91" height="29" viewBox="0 0 91 29" fill="none" xmlns="http://www.w3.org/2000/svg">
<path d="M1.4404 8.75731C1.4404 7.53395 2.10658 6.40796 3.17816 5.81957L12.0482 0.949263L11.8362 0.563225L12.0482 0.949262C13.0514 0.398387 14.2663 0.398387 15.2696 0.949262L24.1396 5.81957C25.2112 6.40796 25.8773 7.53395 25.8773 8.75731V19.4341C25.8773 20.6575 25.2112 21.7835 24.1396 22.3718L15.2696 27.2421C14.2663 27.793 13.0514 27.793 12.0482 27.2421L3.17816 22.3718C2.10658 21.7835 1.4404 20.6575 1.4404 19.4341V8.75731Z" stroke="white" stroke-width="0.880805"/>
<mask id="path-2-inside-1_10757_1347" fill="white">
<path fill-rule="evenodd" clip-rule="evenodd" d="M7.88426 2.768L3.01344 5.35328C1.77458 6.01086 1 7.29931 1 8.70255V18.4533C1 18.7767 1.18571 19.4122 1.94147 19.4867C2.50406 19.5422 2.70457 19.2688 2.81813 18.9019C2.91941 18.5746 3.18059 18.331 3.48189 18.1682C3.99652 17.8901 4.36709 17.3495 4.36709 16.6848V12.6574C4.36709 12.0424 5.02675 11.6533 5.56448 11.9511C5.82124 12.0932 5.98062 12.3637 5.98062 12.6574V18.2365C5.98062 19.0369 6.4371 19.7671 7.1564 20.1173C8.0241 20.5397 9.0343 19.9074 9.0343 18.9418V15.1756C9.0343 14.5734 9.67913 14.1913 10.2068 14.4808C10.4604 14.6199 10.618 14.8862 10.618 15.1756V22.5456C10.618 23.4016 11.0779 24.1916 11.822 24.6139C12.7993 25.1685 14.0143 24.4784 14.0395 23.3545L14.203 16.0651C14.2338 14.69 15.0065 13.4395 16.2221 12.7974L20.4476 10.5653L20.2059 10.667C20.3206 10.5913 20.4546 10.5126 20.5968 10.429C21.4186 9.94584 22.5164 9.30047 21.7647 8.14935C21.3179 7.46518 20.5258 7.18564 19.7286 6.90428C19.0257 6.65622 18.3188 6.40674 17.8409 5.87732C17.558 5.56388 17.404 5.21755 17.2526 4.87716C16.936 4.16543 16.6309 3.47967 15.1836 3.1749C14.4014 3.01018 13.8384 3.1011 13.3558 3.17904C12.78 3.27203 12.3186 3.34653 11.7359 2.94623C10.7216 2.24946 8.83622 2.46726 7.50409 2.9762L7.88426 2.768ZM12.4103 0.854493L11.1555 1.06474C11.5598 0.914249 11.9859 0.844271 12.4103 0.854493Z"/>
</mask>
<path fill-rule="evenodd" clip-rule="evenodd" d="M7.88426 2.768L3.01344 5.35328C1.77458 6.01086 1 7.29931 1 8.70255V18.4533C1 18.7767 1.18571 19.4122 1.94147 19.4867C2.50406 19.5422 2.70457 19.2688 2.81813 18.9019C2.91941 18.5746 3.18059 18.331 3.48189 18.1682C3.99652 17.8901 4.36709 17.3495 4.36709 16.6848V12.6574C4.36709 12.0424 5.02675 11.6533 5.56448 11.9511C5.82124 12.0932 5.98062 12.3637 5.98062 12.6574V18.2365C5.98062 19.0369 6.4371 19.7671 7.1564 20.1173C8.0241 20.5397 9.0343 19.9074 9.0343 18.9418V15.1756C9.0343 14.5734 9.67913 14.1913 10.2068 14.4808C10.4604 14.6199 10.618 14.8862 10.618 15.1756V22.5456C10.618 23.4016 11.0779 24.1916 11.822 24.6139C12.7993 25.1685 14.0143 24.4784 14.0395 23.3545L14.203 16.0651C14.2338 14.69 15.0065 13.4395 16.2221 12.7974L20.4476 10.5653L20.2059 10.667C20.3206 10.5913 20.4546 10.5126 20.5968 10.429C21.4186 9.94584 22.5164 9.30047 21.7647 8.14935C21.3179 7.46518 20.5258 7.18564 19.7286 6.90428C19.0257 6.65622 18.3188 6.40674 17.8409 5.87732C17.558 5.56388 17.404 5.21755 17.2526 4.87716C16.936 4.16543 16.6309 3.47967 15.1836 3.1749C14.4014 3.01018 13.8384 3.1011 13.3558 3.17904C12.78 3.27203 12.3186 3.34653 11.7359 2.94623C10.7216 2.24946 8.83622 2.46726 7.50409 2.9762L7.88426 2.768ZM12.4103 0.854493L11.1555 1.06474C11.5598 0.914249 11.9859 0.844271 12.4103 0.854493Z" fill="white"/>
<path d="M3.01344 5.35328L2.6005 4.57527L2.60049 4.57528L3.01344 5.35328ZM7.88426 2.768L8.30734 3.54054L7.47132 1.98999L7.88426 2.768ZM1.94147 19.4867L2.02791 18.6102L2.0279 18.6102L1.94147 19.4867ZM2.81813 18.9019L3.65957 19.1623L3.65957 19.1623L2.81813 18.9019ZM3.48189 18.1682L3.90063 18.9431L3.90066 18.9431L3.48189 18.1682ZM5.56448 11.9511L5.99115 11.1805L5.99114 11.1805L5.56448 11.9511ZM7.1564 20.1173L6.77085 20.9092L6.77088 20.9092L7.1564 20.1173ZM10.2068 14.4808L9.78314 15.253L9.78316 15.2531L10.2068 14.4808ZM11.822 24.6139L12.2568 23.8478L12.2567 23.8478L11.822 24.6139ZM14.0395 23.3545L14.9201 23.3743V23.3743L14.0395 23.3545ZM14.203 16.0651L13.3224 16.0453V16.0453L14.203 16.0651ZM16.2221 12.7974L15.8107 12.0185L15.8107 12.0185L16.2221 12.7974ZM20.4476 10.5653L20.859 11.3442L20.1061 9.75343L20.4476 10.5653ZM20.2059 10.667L19.7208 9.93181L20.5474 11.4789L20.2059 10.667ZM20.5968 10.429L20.1504 9.66963L20.5968 10.429ZM21.7647 8.14935L21.0272 8.63095L21.0272 8.63095L21.7647 8.14935ZM19.7286 6.90428L20.0217 6.07368L19.7286 6.90428ZM17.8409 5.87732L18.4948 5.28716L18.4948 5.28714L17.8409 5.87732ZM17.2526 4.87716L16.4478 5.23513L17.2526 4.87716ZM15.1836 3.1749L15.0021 4.0368L15.0021 4.03681L15.1836 3.1749ZM13.3558 3.17904L13.2154 2.3095L13.3558 3.17904ZM11.7359 2.94623L11.2372 3.67224L11.2372 3.67224L11.7359 2.94623ZM7.50409 2.9762L7.08101 2.20366L7.81844 3.799L7.50409 2.9762ZM12.4103 0.854493L12.5558 1.72319L12.4315 -0.026057L12.4103 0.854493ZM11.1555 1.06474L10.8483 0.239243L11.301 1.93343L11.1555 1.06474ZM3.42638 6.13129L8.2972 3.54601L7.47132 1.98999L2.6005 4.57527L3.42638 6.13129ZM1.88081 8.70255C1.88081 7.62504 2.47558 6.63597 3.4264 6.13128L2.60049 4.57528C1.07358 5.38575 0.119195 6.97358 0.119195 8.70255H1.88081ZM1.88081 18.4533V8.70255H0.119195V18.4533H1.88081ZM2.0279 18.6102C1.96051 18.6035 1.93556 18.5882 1.93269 18.5864C1.92878 18.584 1.92428 18.5808 1.91723 18.5704C1.90858 18.5575 1.89807 18.5362 1.89008 18.5071C1.88629 18.4933 1.88379 18.4804 1.88232 18.4695C1.88081 18.4583 1.88081 18.4525 1.88081 18.4533H0.119195C0.119195 18.754 0.199448 19.1744 0.457413 19.5563C0.739034 19.9733 1.20578 20.2992 1.85504 20.3633L2.0279 18.6102ZM1.97669 18.6415C1.96863 18.6675 1.96171 18.6865 1.95617 18.7C1.95346 18.7066 1.95127 18.7114 1.9497 18.7147C1.94892 18.7163 1.94831 18.7175 1.9479 18.7183C1.94748 18.7191 1.94726 18.7195 1.94727 18.7195C1.94757 18.7189 1.96268 18.693 1.99934 18.6638C2.01717 18.6496 2.03633 18.6377 2.05538 18.6285C2.07424 18.6195 2.08906 18.6151 2.09724 18.6131C2.11244 18.6096 2.09498 18.6168 2.02791 18.6102L1.85503 20.3633C2.29019 20.4062 2.73218 20.3323 3.09703 20.0416C3.43737 19.7705 3.58363 19.4077 3.65957 19.1623L1.97669 18.6415ZM3.06316 17.3933C2.64406 17.6198 2.17016 18.0163 1.97669 18.6415L3.65957 19.1623C3.66867 19.1328 3.71711 19.0423 3.90063 18.9431L3.06316 17.3933ZM3.48629 16.6848C3.48629 17.0022 3.31463 17.2574 3.06313 17.3933L3.90066 18.9431C4.6784 18.5228 5.2479 17.6968 5.2479 16.6848H3.48629ZM3.48629 12.6574V16.6848H5.2479V12.6574H3.48629ZM5.99114 11.1805C4.86557 10.5573 3.48629 11.3723 3.48629 12.6574H5.2479C5.2479 12.6647 5.24504 12.68 5.23592 12.6954C5.22812 12.7085 5.2191 12.7162 5.21165 12.7206C5.2042 12.725 5.19303 12.7292 5.17755 12.7297C5.15948 12.7303 5.14443 12.7253 5.13781 12.7216L5.99114 11.1805ZM6.86143 12.6574C6.86143 12.0435 6.52828 11.4779 5.99115 11.1805L5.1378 12.7216C5.1142 12.7085 5.09982 12.6839 5.09982 12.6574H6.86143ZM6.86143 18.2365V12.6574H5.09982V18.2365H6.86143ZM7.54195 19.3253C7.12583 19.1228 6.86143 18.7001 6.86143 18.2365H5.09982C5.09982 19.3737 5.74837 20.4114 6.77085 20.9092L7.54195 19.3253ZM8.1535 18.9418C8.1535 19.2576 7.82377 19.4625 7.54192 19.3253L6.77088 20.9092C8.22443 21.6168 9.91511 20.5572 9.91511 18.9418H8.1535ZM8.1535 15.1756V18.9418H9.91511V15.1756H8.1535ZM10.6305 13.7086C9.51495 13.0966 8.1535 13.9048 8.1535 15.1756H9.91511C9.91511 15.1858 9.91149 15.2037 9.90114 15.2212C9.89208 15.2365 9.88127 15.2459 9.87169 15.2516C9.8621 15.2573 9.84851 15.2623 9.83053 15.2629C9.81 15.2636 9.79232 15.2581 9.78314 15.253L10.6305 13.7086ZM11.4988 15.1756C11.4988 14.5648 11.1661 14.0024 10.6304 13.7086L9.78316 15.2531C9.75463 15.2374 9.73717 15.2076 9.73717 15.1756H11.4988ZM11.4988 22.5456V15.1756H9.73717V22.5456H11.4988ZM12.2567 23.8478C11.7885 23.5821 11.4988 23.0848 11.4988 22.5456H9.73717C9.73717 23.7185 10.3673 24.8011 11.3874 25.38L12.2567 23.8478ZM13.1589 23.3348C13.1486 23.7934 12.6536 24.073 12.2568 23.8478L11.3873 25.3799C12.945 26.2639 14.8799 25.1634 14.9201 23.3743L13.1589 23.3348ZM13.3224 16.0453L13.1589 23.3348L14.9201 23.3743L15.0836 16.0848L13.3224 16.0453ZM15.8107 12.0185C14.3125 12.81 13.3604 14.3511 13.3224 16.0453L15.0836 16.0848C15.1073 15.0289 15.7006 14.069 16.6335 13.5762L15.8107 12.0185ZM20.0362 9.78652L15.8107 12.0185L16.6335 13.5762L20.859 11.3442L20.0362 9.78652ZM20.5474 11.4789L20.7891 11.3773L20.1061 9.75343L19.8645 9.85506L20.5474 11.4789ZM20.1504 9.66963C20.0135 9.75009 19.8583 9.84105 19.7208 9.93181L20.691 11.4022C20.7829 11.3416 20.8956 11.275 21.0432 11.1883L20.1504 9.66963ZM21.0272 8.63095C21.1401 8.80385 21.1351 8.88076 21.135 8.88476C21.1348 8.88875 21.135 8.92218 21.0745 9.00026C21.008 9.08605 20.8952 9.1898 20.7226 9.31204C20.5514 9.43331 20.3611 9.54578 20.1504 9.66963L21.0432 11.1883C21.4125 10.9711 22.0594 10.6054 22.4672 10.079C22.6899 9.7915 22.875 9.41756 22.8949 8.9617C22.9148 8.50585 22.7651 8.07041 22.5022 7.66776L21.0272 8.63095ZM19.4355 7.73488C20.3003 8.04008 20.7725 8.24089 21.0272 8.63095L22.5022 7.66776C21.8634 6.68948 20.7514 6.33121 20.0217 6.07368L19.4355 7.73488ZM17.1871 6.46747C17.8418 7.19286 18.7815 7.50408 19.4355 7.73488L20.0217 6.07368C19.2699 5.80836 18.7958 5.62062 18.4948 5.28716L17.1871 6.46747ZM16.4478 5.23513C16.594 5.56378 16.7974 6.03573 17.1871 6.4675L18.4948 5.28714C18.3187 5.09203 18.214 4.87132 18.0573 4.51918L16.4478 5.23513ZM15.0021 4.03681C15.6024 4.16321 15.8704 4.34648 16.0175 4.4944C16.1835 4.66143 16.282 4.86241 16.4478 5.23513L18.0573 4.51918C17.9065 4.18018 17.6942 3.6824 17.2668 3.25243C16.8203 2.80335 16.2121 2.49136 15.3651 2.313L15.0021 4.03681ZM13.4962 4.04858C13.9595 3.97376 14.3873 3.90733 15.0021 4.0368L15.3651 2.313C14.4155 2.11303 13.7173 2.22844 13.2154 2.3095L13.4962 4.04858ZM11.2372 3.67224C11.6529 3.95782 12.0622 4.09399 12.4816 4.12589C12.8644 4.155 13.2295 4.09165 13.4962 4.04858L13.2154 2.3095C12.9063 2.35941 12.7528 2.37981 12.6152 2.36935C12.5143 2.36168 12.4016 2.33494 12.2346 2.22022L11.2372 3.67224ZM7.81844 3.799C8.40396 3.5753 9.11439 3.41591 9.77483 3.38916C10.4584 3.36147 10.9577 3.48025 11.2372 3.67224L12.2346 2.22023C11.4998 1.71544 10.5493 1.59474 9.70354 1.62899C8.83467 1.66418 7.93635 1.86816 7.18973 2.1534L7.81844 3.799ZM7.46118 1.99546L7.08101 2.20366L7.92717 3.74874L8.30734 3.54054L7.46118 1.99546ZM12.2647 -0.0142031L11.0099 0.19604L11.301 1.93343L12.5558 1.72319L12.2647 -0.0142031ZM11.4627 1.89023C11.7611 1.77919 12.0756 1.72749 12.3891 1.73504L12.4315 -0.026057C11.8962 -0.0389507 11.3586 0.0493117 10.8483 0.239243L11.4627 1.89023Z" fill="white" mask="url(#path-2-inside-1_10757_1347)"/>
<path d="M36.584 22.5V5.7H42.464L45.368 20.34H45.8L48.704 5.7H54.584V22.5H51.512V8.028H51.08L48.2 22.5H42.968L40.088 8.028H39.656V22.5H36.584ZM57.1481 22.5V5.7H60.3161V22.5H57.1481ZM62.3962 22.5V18.468L70.7002 8.916V8.532H62.6362V5.7H74.0122V9.732L65.7082 19.284V19.668H74.0602V22.5H62.3962ZM82.5843 22.836C81.2083 22.836 80.0243 22.588 79.0323 22.092C78.0563 21.58 77.3043 20.86 76.7763 19.932C76.2643 18.988 76.0083 17.876 76.0083 16.596V5.7H79.1763V16.692C79.1763 17.716 79.4643 18.524 80.0403 19.116C80.6323 19.708 81.4803 20.004 82.5843 20.004C83.6883 20.004 84.5283 19.708 85.1043 19.116C85.6963 18.524 85.9923 17.716 85.9923 16.692V5.7H89.1603V16.596C89.1603 17.876 88.8963 18.988 88.3683 19.932C87.8563 20.86 87.1043 21.58 86.1123 22.092C85.1363 22.588 83.9603 22.836 82.5843 22.836Z" fill="white"/>
</svg>
