<svg fill="none" height="64" viewBox="0 0 58 64" width="58" xmlns="http://www.w3.org/2000/svg"><path d="m.00441299 31.5885c0-3.8052.00760851-7.6085-.00190444-11.4136-.00951294-3.7957 1.61339145-6.5906 4.97146145-8.419 6.47453-3.52168 12.91283-7.10806 19.38733-10.62785 2.8634-1.556316 5.7763-1.476404 8.6245.07991 6.4383 3.51598 12.8653 7.05099 19.2941 10.58414 3.2629 1.7922 4.903 4.549 4.9011 8.2819-.0038 7.6085-.0191 15.2188.0057 22.8273.0133 3.8013-1.5583 6.6362-4.9049 8.4741-6.543 3.594-13.0613 7.2374-19.6366 10.7724-2.7188 1.4612-5.5708 1.3851-8.2915-.0894-6.5601-3.5578-13.1069-7.1461-19.63277-10.7686-3.07268-1.7048-4.6784657-4.3703-4.7051019-7.9072-.0304414-3.9307-.00760622-7.8615-.00760622-11.7941.00190262 0-.0019063 0-.00380889 0zm.57838801-1.1321c-.001903 0-.0019 0-.003803 0 0 3.6777-.001907 7.3554.001899 11.0331.001902 1.0978.473743 1.6952 1.468793 1.8931 1.22337.2416 1.81507-.038 2.26218-1.1473.28349-.7039.70396-1.2385 1.37747-1.6171 1.48402-.8334 2.18417-2.1252 2.16895-3.8338-.02473-2.7892-.01903-5.5784-.03044-8.3694-.00571-1.368 1.04642-2.2774 2.27735-1.9597.8657.2226 1.3109.8866 1.3128 2.0529.0076 3.9307.0114 7.8634-.0057 11.7941-.0038 1.0122.2283 1.9368.7135 2.8177.7458 1.3547 2.5076 2.266 3.809 1.9445 1.5449-.3805 2.3021-1.4726 2.3059-3.339.0057-2.3783.0019-4.7565.0076-7.1329.0038-1.6533.6127-2.5266 1.7542-2.5342 1.2158-.0076 1.798.8562 1.7941 2.5894-.0095 5.0723-.0095 10.1446-.0057 15.2188 0 1.5392.3977 2.9376 1.4726 4.0963 1.5868 1.7104 3.8642 1.8094 5.352.2188.7249-.7744.8295-1.7333.8505-2.734.1027-5.0381.2397-10.078.331-15.1161.0609-3.3676 1.368-6.0616 4.3455-7.7093 4.0373-2.2355 8.1507-4.3341 12.2337-6.4878.624-.3291 1.1529-.7743 1.6153-1.3033.7191-.8257.8466-1.7142.3576-2.7188-.6221-1.2804-1.7028-2.0129-2.9471-2.5399-1.1073-.468-2.2374-.8752-3.3675-1.2881-1.9274-.7039-3.2801-1.971-3.9936-3.9155-.9208-2.5114-2.8139-3.68149-5.4052-3.96878-1.2519-.13889-2.4658.00951-3.6872.16933-1.0198.13318-2.0034.16933-2.9433-.38432-3.1754-1.87024-6.4745-1.51636-9.5586-.01903-3.9213 1.90259-7.67697 4.1533-11.48975 6.2766-2.95092 1.642-4.379755 4.1838-4.372144 7.5533.003805 3.4855-.001905 6.973-.001905 10.4604z" fill="#030404"/><path d="m.582794 30.4564c0-3.4874.007608-6.9748-.001905-10.4623-.00761-3.3714 1.421231-5.9113 4.372151-7.5533 3.81468-2.1232 7.56846-4.3721 11.48976-6.27659 3.0841-1.49734 6.385-1.85122 9.5586.01903.9417.55365 1.9235.5175 2.9433.38432 1.2233-.15982 2.4353-.30632 3.6872-.16933 2.5913.28539 4.4844 1.45548 5.4052 3.96877.7135 1.9445 2.0662 3.2135 3.9936 3.9155 1.1282.4129 2.2602.8201 3.3675 1.2881 1.2443.5251 2.325 1.2595 2.9471 2.5399.489 1.0046.3615 1.8931-.3576 2.7189-.4605.5289-.9894.9741-1.6153 1.3032-4.083 2.1537-8.1964 4.2523-12.2337 6.4878-2.9775 1.6477-4.2846 4.3436-4.3455 7.7093-.0913 5.04-.2283 10.078-.331 15.1161-.021 1.0026-.1237 1.9596-.8505 2.734-1.4878 1.5906-3.7652 1.4916-5.352-.2188-1.0768-1.1606-1.4726-2.559-1.4726-4.0963-.0038-5.0723-.0038-10.1446.0057-15.2188.0038-1.7332-.5784-2.597-1.7941-2.5894-1.1416.0076-1.7504.8828-1.7542 2.5343-.0057 2.3782-.0019 4.7564-.0076 7.1328-.0038 1.8664-.761 2.9585-2.3059 3.339-1.3014.3215-3.0651-.5898-3.809-1.9444-.4852-.8809-.7173-1.8056-.7135-2.8178.019-3.9307.0133-7.8634.0057-11.7941-.0019-1.1644-.4471-1.8284-1.3128-2.0529-1.22903-.3177-2.28117.5917-2.27736 1.9597.01142 2.7892.00571 5.5802.03044 8.3694.01522 1.7067-.68683 3.0004-2.16895 3.8338-.67351.3786-1.09399.9113-1.37747 1.6172-.44711 1.1092-1.03881 1.3888-2.26218 1.1472-.99505-.196-1.466891-.7953-1.468794-1.8931-.003805-3.6777-.001904-7.3554-.001904-11.0331.003805.0019.005709.0019.007612.0019z" fill="#37d8fa"/></svg>