<svg width="299" height="344" viewBox="0 0 299 344" fill="none" xmlns="http://www.w3.org/2000/svg">
<path d="M128.906 325.244L120.361 319.794L152.019 306.933L169.797 325.5L166.043 327.337C154.145 333.16 140.074 332.367 128.906 325.244Z" fill="#0197B1"/>
<path fill-rule="evenodd" clip-rule="evenodd" d="M169.707 4.97056C158.228 -1.65686 139.617 -1.65685 128.138 4.97057L20.4296 67.1559C8.95055 73.7833 8.95056 84.5285 20.4296 91.1559L128.138 153.341C139.617 159.969 158.228 159.969 169.707 153.341L273.639 93.3361C284.595 91.3514 295.798 98.2805 298.306 109.862L298.523 110.864L298.376 100.729C298.185 87.4844 291.11 75.2952 279.704 68.5592L278.975 68.1286C278.481 67.7956 277.961 67.4711 277.415 67.1559L169.707 4.97056Z" fill="url(#paint0_linear_9021_279)"/>
<rect width="172.371" height="172.371" rx="24" transform="matrix(0.866025 0.5 -2.20305e-08 1 0 79.1558)" fill="url(#paint1_linear_9021_279)"/>
<rect width="172.371" height="173.717" rx="24" transform="matrix(0.866025 -0.5 2.20305e-08 1 149.221 163.996)" fill="url(#paint2_linear_9021_279)"/>
<rect width="172.371" height="173.717" rx="24" transform="matrix(0.866025 -0.5 2.20305e-08 1 149.221 163.996)" fill="url(#paint3_linear_9021_279)" fill-opacity="0.2"/>
<path d="M148.222 190.173V219.838L133.839 206.354L117.658 145.676L133.839 139.384L171.144 151.969C153.525 163.115 148.671 182.083 148.222 190.173Z" fill="#062127"/>
<path d="M0 100.932V111.068L27.8667 91.2913L21.772 66.3184L18.2047 68.4954C6.89776 75.3957 0 87.686 0 100.932Z" fill="url(#paint4_linear_9021_279)"/>
<g filter="url(#filter0_ii_9021_279)">
<path fill-rule="evenodd" clip-rule="evenodd" d="M82.2898 37.0669C97.2563 31.7122 120.002 29.6405 131.046 37.2221C137.573 41.7027 142.74 40.8687 149.189 39.8279C154.594 38.9555 160.899 37.9378 169.661 39.7816C185.871 43.1929 189.288 50.8687 192.833 58.8353C194.529 62.6452 196.255 66.5217 199.423 70.0301C204.775 75.9558 212.693 78.7482 220.565 81.5248C229.495 84.6741 238.366 87.8031 243.37 95.4612C250.117 105.786 243.562 112.476 235.955 117.509L174.384 150.012C160.769 157.199 152.115 171.197 151.769 186.588L149.938 268.18C149.655 280.76 136.047 288.483 125.102 282.276C116.767 277.549 111.616 268.707 111.616 259.125V176.632C111.616 173.393 109.851 170.412 107.011 168.855C101.101 165.615 93.8785 169.891 93.8785 176.632V218.787C93.8785 229.595 82.5641 236.673 72.8455 231.945C64.7894 228.025 59.6765 219.852 59.6765 210.893V148.445C59.6765 145.158 57.8916 142.131 55.0157 140.539C48.9933 137.206 41.6047 141.562 41.6047 148.445V193.524C41.6047 200.919 37.5054 206.941 31.7971 210.071C28.3696 211.95 25.3965 214.73 24.2196 218.457C22.9412 222.506 20.6787 225.502 14.4372 224.887C5.97252 224.053 3.89258 216.94 3.89258 213.32V104.179C3.89258 88.4719 12.568 74.0498 26.4435 66.6897L82.2898 37.0669Z" fill="url(#paint5_linear_9021_279)"/>
</g>
<g style="mix-blend-mode:plus-lighter" opacity="0.6" filter="url(#filter1_f_9021_279)">
<path d="M191.614 126.777C181.916 131.169 161.75 143.412 155.381 150.658C147.42 159.716 144.4 167.952 144.4 183.598C144.4 196.115 144.4 206.747 144.4 210.499" stroke="url(#paint6_linear_9021_279)" stroke-width="2" stroke-linecap="round"/>
</g>
<g style="mix-blend-mode:plus-lighter" opacity="0.52" filter="url(#filter2_f_9021_279)">
<path d="M87.6211 179.611L87.6211 221.206" stroke="url(#paint7_linear_9021_279)" stroke-width="2" stroke-linecap="round"/>
</g>
<g style="mix-blend-mode:plus-lighter" opacity="0.52" filter="url(#filter3_f_9021_279)">
<path d="M32.1387 139.384L32.1387 180.979" stroke="url(#paint8_linear_9021_279)" stroke-width="2" stroke-linecap="round"/>
</g>
<defs>
<filter id="filter0_ii_9021_279" x="-0.107422" y="28.2671" width="246.291" height="259.497" filterUnits="userSpaceOnUse" color-interpolation-filters="sRGB">
<feFlood flood-opacity="0" result="BackgroundImageFix"/>
<feBlend mode="normal" in="SourceGraphic" in2="BackgroundImageFix" result="shape"/>
<feColorMatrix in="SourceAlpha" type="matrix" values="0 0 0 0 0 0 0 0 0 0 0 0 0 0 0 0 0 0 127 0" result="hardAlpha"/>
<feOffset dy="4"/>
<feGaussianBlur stdDeviation="1.65"/>
<feComposite in2="hardAlpha" operator="arithmetic" k2="-1" k3="1"/>
<feColorMatrix type="matrix" values="0 0 0 0 1 0 0 0 0 1 0 0 0 0 1 0 0 0 0.55 0"/>
<feBlend mode="normal" in2="shape" result="effect1_innerShadow_9021_279"/>
<feColorMatrix in="SourceAlpha" type="matrix" values="0 0 0 0 0 0 0 0 0 0 0 0 0 0 0 0 0 0 127 0" result="hardAlpha"/>
<feOffset dx="-6" dy="-4"/>
<feGaussianBlur stdDeviation="2"/>
<feComposite in2="hardAlpha" operator="arithmetic" k2="-1" k3="1"/>
<feColorMatrix type="matrix" values="0 0 0 0 0.0666667 0 0 0 0 0.721569 0 0 0 0 0.862745 0 0 0 0.69 0"/>
<feBlend mode="normal" in2="effect1_innerShadow_9021_279" result="effect2_innerShadow_9021_279"/>
</filter>
<filter id="filter1_f_9021_279" x="137.4" y="119.777" width="61.2144" height="97.7217" filterUnits="userSpaceOnUse" color-interpolation-filters="sRGB">
<feFlood flood-opacity="0" result="BackgroundImageFix"/>
<feBlend mode="normal" in="SourceGraphic" in2="BackgroundImageFix" result="shape"/>
<feGaussianBlur stdDeviation="3" result="effect1_foregroundBlur_9021_279"/>
</filter>
<filter id="filter2_f_9021_279" x="80.6211" y="172.611" width="14" height="55.5947" filterUnits="userSpaceOnUse" color-interpolation-filters="sRGB">
<feFlood flood-opacity="0" result="BackgroundImageFix"/>
<feBlend mode="normal" in="SourceGraphic" in2="BackgroundImageFix" result="shape"/>
<feGaussianBlur stdDeviation="3" result="effect1_foregroundBlur_9021_279"/>
</filter>
<filter id="filter3_f_9021_279" x="25.1387" y="132.384" width="14" height="55.5947" filterUnits="userSpaceOnUse" color-interpolation-filters="sRGB">
<feFlood flood-opacity="0" result="BackgroundImageFix"/>
<feBlend mode="normal" in="SourceGraphic" in2="BackgroundImageFix" result="shape"/>
<feGaussianBlur stdDeviation="3" result="effect1_foregroundBlur_9021_279"/>
</filter>
<linearGradient id="paint0_linear_9021_279" x1="160.457" y1="79.156" x2="258.633" y2="29.6658" gradientUnits="userSpaceOnUse">
<stop stop-color="#056678"/>
<stop offset="1" stop-color="#13A1BB"/>
</linearGradient>
<linearGradient id="paint1_linear_9021_279" x1="80.6383" y1="88.9588" x2="118.711" y2="207.837" gradientUnits="userSpaceOnUse">
<stop stop-color="#003038"/>
<stop offset="1" stop-color="#127A8C"/>
</linearGradient>
<linearGradient id="paint2_linear_9021_279" x1="38.9812" y1="35.2139" x2="263.492" y2="43.0962" gradientUnits="userSpaceOnUse">
<stop stop-color="#0096B0"/>
<stop offset="1" stop-color="#006678"/>
</linearGradient>
<linearGradient id="paint3_linear_9021_279" x1="119.795" y1="9.63304" x2="118.681" y2="67.1195" gradientUnits="userSpaceOnUse">
<stop stop-color="#0EBEDC"/>
<stop offset="1" stop-color="#2DB5CC" stop-opacity="0"/>
</linearGradient>
<linearGradient id="paint4_linear_9021_279" x1="3.95348" y1="107.304" x2="22.3386" y2="70.8002" gradientUnits="userSpaceOnUse">
<stop stop-color="#013740"/>
<stop offset="1" stop-color="#066778"/>
</linearGradient>
<linearGradient id="paint5_linear_9021_279" x1="207.862" y1="69.8192" x2="113.438" y2="266.405" gradientUnits="userSpaceOnUse">
<stop stop-color="#16D5FF"/>
<stop offset="0.267914" stop-color="#3CDCFF"/>
<stop offset="0.391713" stop-color="#4ADEFF"/>
<stop offset="0.499723" stop-color="#00B0D7"/>
<stop offset="0.798035" stop-color="#09ACD0"/>
<stop offset="1" stop-color="#15839B"/>
</linearGradient>
<linearGradient id="paint6_linear_9021_279" x1="186.158" y1="124.663" x2="161.56" y2="209.633" gradientUnits="userSpaceOnUse">
<stop stop-color="white" stop-opacity="0"/>
<stop offset="0.21" stop-color="white" stop-opacity="0.5"/>
<stop offset="0.5251" stop-color="white"/>
<stop offset="0.7625" stop-color="white" stop-opacity="0.5"/>
<stop offset="1" stop-color="white" stop-opacity="0"/>
</linearGradient>
<linearGradient id="paint7_linear_9021_279" x1="88.5055" y1="178.56" x2="81.9109" y2="179.532" gradientUnits="userSpaceOnUse">
<stop stop-color="white" stop-opacity="0"/>
<stop offset="0.21" stop-color="white" stop-opacity="0.5"/>
<stop offset="0.5251" stop-color="white"/>
<stop offset="0.7625" stop-color="white" stop-opacity="0.5"/>
<stop offset="1" stop-color="white" stop-opacity="0"/>
</linearGradient>
<linearGradient id="paint8_linear_9021_279" x1="33.0231" y1="138.333" x2="26.4284" y2="139.304" gradientUnits="userSpaceOnUse">
<stop stop-color="white" stop-opacity="0"/>
<stop offset="0.21" stop-color="white" stop-opacity="0.5"/>
<stop offset="0.5251" stop-color="white"/>
<stop offset="0.7625" stop-color="white" stop-opacity="0.5"/>
<stop offset="1" stop-color="white" stop-opacity="0"/>
</linearGradient>
</defs>
</svg>
