<svg fill="none" height="247" viewBox="0 0 247 247" width="247" xmlns="http://www.w3.org/2000/svg" xmlns:xlink="http://www.w3.org/1999/xlink"><mask id="a" fill="#fff"><path clip-rule="evenodd" d="m152.872 184.621c2.49-5.179.463-11.025-6.08-15.117-9.48-5.928-24.85-5.928-34.33 0-6.543 4.092-8.57 9.938-6.08 15.117 1.117-2.323 3.144-4.513 6.08-6.349 9.48-5.928 24.85-5.928 34.33 0 2.936 1.836 4.963 4.026 6.08 6.349z" fill="#fff" fill-rule="evenodd"/></mask><path d="m124.781 237.446v-.009l-.513-.305-57.2218-33.98-.0091-.005c-1.9089-1.108-2.6292-2.414-2.6294-3.508v-20.284l129.7063 2.768v20.328c0 1.094-.72 2.4-2.629 3.508l-.006.003-53.053 31.202c-.001 0-.002 0-.003.001-1.794 1.041-4.173 1.619-6.638 1.681-2.464.062-4.921-.394-6.857-1.327l-.147.304.147-.304c-.049-.024-.098-.048-.147-.073z" fill="#91d4d4" stroke="#3f808e" stroke-width="2.1"/><rect fill="#fff" height="76.3066" rx="7.45384" stroke="#3f808e" stroke-width="2.1" transform="matrix(.866025 .5 -.866025 .5 128.479 139.859)" width="81.0044" y="1.05"/><path d="m131.678 217.424v20.976" stroke="#3f808e" stroke-linecap="round" stroke-linejoin="round" stroke-width="1.0265"/><circle cx="20.2446" cy="20.2446" fill="#c3f4f4" r="19.7313" stroke="#3f808e" stroke-width="1.0265" transform="matrix(.847872 -.5302 .847872 .5302 95.5178 180.238)"/><path clip-rule="evenodd" d="m152.872 184.621c2.49-5.179.463-11.025-6.08-15.117-9.48-5.928-24.85-5.928-34.33 0-6.543 4.092-8.57 9.938-6.08 15.117 1.117-2.323 3.144-4.513 6.08-6.349 9.48-5.928 24.85-5.928 34.33 0 2.936 1.836 4.963 4.026 6.08 6.349z" fill="#91d4d4" fill-rule="evenodd"/><path d="m146.792 169.504.544-.871zm6.08 15.117-.925.445.925 1.924.925-1.924zm-40.41-15.117.544.87zm-6.08 15.117-.925.445.925 1.924.925-1.924zm6.08-6.349.544.87zm34.33 0-.544.87zm-.544-7.898c3.13 1.958 5.099 4.284 6.014 6.651.909 2.351.81 4.813-.315 7.152l1.85.889c1.366-2.84 1.498-5.891.38-8.781-1.111-2.874-3.428-5.517-6.841-7.652zm-33.242 0c4.542-2.84 10.554-4.29 16.621-4.29s12.079 1.45 16.621 4.29l1.088-1.741c-4.939-3.088-11.351-4.602-17.709-4.602s-12.77 1.514-17.709 4.602zm-5.699 13.803c-1.125-2.339-1.224-4.801-.315-7.152.915-2.367 2.884-4.693 6.014-6.651l-1.088-1.741c-3.413 2.135-5.73 4.778-6.841 7.652-1.118 2.89-.986 5.941.38 8.781zm0 .889c1.016-2.113 2.891-4.167 5.699-5.924l-1.088-1.74c-3.064 1.915-5.243 4.24-6.461 6.775zm5.699-5.924c4.542-2.839 10.554-4.29 16.621-4.29s12.079 1.451 16.621 4.29l1.088-1.74c-4.939-3.089-11.351-4.603-17.709-4.603s-12.77 1.514-17.709 4.603zm33.242 0c2.808 1.757 4.683 3.811 5.699 5.924l1.85-.889c-1.218-2.535-3.397-4.86-6.461-6.775z" fill="#3f808e" mask="url(#a)"/><g stroke="#3f808e"><circle cx="4.581" cy="4.581" fill="#cbf693" r="4.06776" stroke-width="1.0265" transform="matrix(.866025 .5 -.00000002 1 76.9148 193.401)"/><circle cx="4.581" cy="4.581" fill="#cbf693" r="4.06776" stroke-width="1.0265" transform="matrix(.866025 .5 -.00000002 1 91.2959 201.704)"/><circle cx="4.581" cy="4.581" fill="#cbf693" r="4.06776" stroke-width="1.0265" transform="matrix(.866025 .5 -.00000002 1 105.679 210.009)"/><circle cx="122.244" cy="98.9842" r="80.194" stroke-width="2.053"/><circle cx="122.602" cy="98.5067" fill="#c3f4f4" r="57.0123" stroke-width="2.1"/><circle cx="171.825" cy="28.8859" fill="#e7ffc7" r="14.0019" stroke-width="1.24464"/><circle cx="37.2687" cy="103.34" fill="#e7ffc7" r="14.0019" stroke-width="1.24464" transform="matrix(-.69148784 -.7223881 .7223881 -.69148784 -11.612033 201.720819)"/><circle cx="196.321" cy="64.176" fill="#91d4d4" r="9.85835" stroke-width="1.24464"/><circle cx="55.8414" cy="138.835" fill="#91d4d4" r="9.85835" stroke-width="1.24464" transform="matrix(-.69148784 -.7223881 .7223881 -.69148784 -5.837703 275.176877)"/><circle cx="189.313" cy="141.505" fill="#e7ffc7" r="11.8901" stroke-width="1.24464" transform="matrix(-.80677473 -.59085915 .59085915 -.80677473 258.43642 367.524977)"/><path d="m178.728 90.8008c.337 1.5731-.603 3.5262-3.056 5.7761-2.417 2.2163-6.139 4.5661-10.917 6.9011-9.547 4.666-23.176 9.214-38.621 12.524s-29.7412 4.747-40.3618 4.403c-5.3152-.173-9.6739-.79-12.7865-1.821-3.1596-1.047-4.8171-2.444-5.1542-4.017s.6025-3.526 3.0555-5.776c2.4166-2.216 6.1395-4.566 10.9173-6.901 9.5468-4.6662 23.1757-9.2145 38.6207-12.5245 15.445-3.3101 29.741-4.7465 40.362-4.4023 5.315.1723 9.674.7896 12.786 1.821 3.16 1.047 4.817 2.4435 5.155 4.0166z" stroke-width="1.24464"/><path d="m136.394 153.982c-1.553.412-3.552-.438-5.924-2.797-2.336-2.323-4.87-5.952-7.443-10.641-5.141-9.369-10.369-22.845-14.451-38.204-4.081-15.3586-6.233-29.6519-6.421-40.3376-.095-5.3478.304-9.7561 1.178-12.9323.889-3.2252 2.201-4.9554 3.754-5.3682 1.553-.4127 3.552.4376 5.924 2.7964 2.336 2.323 4.87 5.952 7.443 10.6411 5.141 9.3695 10.369 22.8454 14.45 38.204 4.082 15.3586 6.234 29.6516 6.422 40.3376.095 5.348-.304 9.756-1.178 12.932-.889 3.226-2.201 4.956-3.754 5.369z" stroke-width="1.24464"/><path d="m136.395 153.982c-11.404 3.031-23.397-.328-33.586-8.298-10.188-7.97-18.5366-20.532-22.5956-35.805-4.059-15.2744-3.0477-30.3231 1.84-42.2997 4.8874-11.9762 13.6313-20.846 25.0356-23.8767 11.404-3.0306 23.398.3284 33.586 8.2983 10.188 7.9701 18.537 20.5316 22.596 35.8054 4.059 15.2737 3.047 30.3227-1.84 42.2997-4.888 11.976-13.632 20.846-25.036 23.876z" stroke-width="1.24464"/></g></svg>