<svg width="213" height="263" viewBox="0 0 213 263" fill="none" xmlns="http://www.w3.org/2000/svg">
<path fill-rule="evenodd" clip-rule="evenodd" d="M102.932 258.372L40.7202 222.494C38.4731 221.196 37.3494 219.496 37.3491 217.796V195.074C37.3494 196.774 38.4729 198.474 40.7197 199.772L103.87 236.176C108.389 238.273 115.014 238.11 119.208 235.69L176.982 202.333V202.334C179.229 201.037 180.353 199.336 180.353 197.636V220.357C180.353 222.058 179.23 223.758 176.982 225.056V225.055L119.209 258.411C114.969 260.859 108.246 260.998 103.724 258.829C103.452 258.698 103.187 258.559 102.932 258.411V258.372Z" fill="white"/>
<path d="M38.3726 194.795V217.517C38.3728 219.217 39.4965 220.917 41.7436 222.215L102.934 258.366V258.406C103.189 258.553 103.454 258.692 103.726 258.823C108.248 260.993 114.971 260.853 119.211 258.405L175.95 225.207C178.198 223.909 179.321 222.209 179.321 220.508V197.787" stroke="#223893" stroke-width="2"/>
<rect x="-5.96046e-08" y="1" width="88.6304" height="83.5072" rx="6.29394" transform="matrix(0.866025 0.5 -0.866025 0.5 107.504 152.82)" fill="url(#paint0_linear_9098_1430)" stroke="#223893" stroke-width="2"/>
<circle cx="18.5011" cy="18.5011" r="17.5852" transform="matrix(0.866025 -0.5 0.866025 0.5 77.646 194.795)" fill="#80C0FF" stroke="#223893" stroke-width="1.83165"/>
<path d="M130.662 198.318C130.191 197.653 129.621 197.007 128.953 196.386C128.052 195.549 126.972 194.757 125.713 194.03C116.864 188.921 102.517 188.921 93.6681 194.03C92.4088 194.757 91.3286 195.549 90.4277 196.386C89.9393 196.84 89.5036 197.308 89.1206 197.786" stroke="#223893" stroke-width="1.83165"/>
<path d="M111.119 238.615L111.11 261.103" stroke="#223893" stroke-width="2" stroke-linecap="round" stroke-linejoin="round" stroke-dasharray="1.14 2.47"/>
<circle cx="111.336" cy="110.588" r="81.7835" transform="rotate(-12.7878 111.336 110.588)" fill="url(#paint1_linear_9098_1430)" stroke="#223893" stroke-width="2.49503"/>
<path d="M126.342 30.8029C114.961 53.2501 105.867 80.1071 100.45 109.551C95.2653 137.734 93.5437 165.896 95.773 190.12" stroke="#223893" stroke-width="2.49503"/>
<path d="M121.504 191.249C139.934 174.072 151.63 152.869 153.838 129.197C157.355 91.5063 136.076 55.5132 99.7554 29.4629" stroke="#223893" stroke-width="2.49503"/>
<path d="M73.339 182.73C54.0227 160.866 45.8921 131.34 54.3518 103.176C67.1239 60.6545 113.617 35.8463 160.291 45.4857" stroke="#223893" stroke-width="2.49503"/>
<path d="M64.5679 44.8242C72.5987 64.0865 95.5412 78.9002 123.436 80.6793C145.097 82.0609 164.795 75.2667 177.392 63.6923" stroke="#223893" stroke-width="2.49503"/>
<path d="M188.564 85.2665C171.977 100.488 146.04 109.421 117.517 107.602C83.9552 105.462 55.8363 89.009 43.1655 66.8594" stroke="#223893" stroke-width="2.49503"/>
<path d="M192.584 108.42C173.916 127.693 144.858 139.148 113.006 137.117C77.1475 134.83 46.9724 116.037 32.2046 90.1406" stroke="#223893" stroke-width="2.49503"/>
<path d="M189.216 135.527C170.661 154.807 141.787 166.274 110.142 164.256C74.5172 161.984 44.5456 143.204 29.8843 117.314" stroke="#223893" stroke-width="2.49503"/>
<path d="M190.062 137.229C184.046 155.15 172.006 170.726 155.803 181.005L176.965 193.223C179.281 194.561 180.404 196.326 180.333 198.078V220.643C180.333 222.344 179.209 224.044 176.962 225.342L119.188 258.697C114.949 261.145 108.225 261.284 103.704 259.115C103.431 258.984 103.167 258.845 102.912 258.697V258.658L40.6999 222.78C38.4528 221.482 37.3291 219.782 37.3288 218.082V195.36C37.3288 193.345 37.2003 192.683 40.702 190.662L62.5262 178.062C46.7947 166.648 34.9807 149.694 30.3408 129.252C29.5407 125.727 28.9778 122.203 28.6416 118.698C28.5366 118.514 28.4059 118.426 28.6056 118.312C24.8821 77.4922 51.869 39.2224 92.9342 29.9018C95.4948 29.3206 98.0547 28.8646 100.607 28.5297L100.769 28.5087C142.738 23.0859 182.727 50.3905 192.284 92.4952C195.743 107.736 194.768 122.95 190.21 136.786C190.414 136.983 190.246 137.04 190.062 137.229Z" stroke="#223893" stroke-width="4"/>
<defs>
<linearGradient id="paint0_linear_9098_1430" x1="45.3161" y1="32.6493" x2="30.0794" y2="76.1401" gradientUnits="userSpaceOnUse">
<stop stop-color="#E1FFFD"/>
<stop offset="1" stop-color="#B7FBF6"/>
</linearGradient>
<linearGradient id="paint1_linear_9098_1430" x1="111.336" y1="27.5565" x2="111.336" y2="193.619" gradientUnits="userSpaceOnUse">
<stop stop-color="#EFE6FF"/>
<stop offset="1" stop-color="white"/>
</linearGradient>
</defs>
</svg>
