<svg width="257" height="224" viewBox="0 0 257 224" fill="none" xmlns="http://www.w3.org/2000/svg">
<path d="M7.85803 -15.3345L93.3593 42.9868C107.545 52.663 116.562 71.5076 116.922 92.2293L118.831 202.077C119.125 219.013 133.303 229.412 144.708 221.055C153.393 214.691 158.759 202.787 158.759 189.886V78.825C158.759 74.465 160.599 70.4516 163.557 68.3555C169.715 63.9927 177.24 69.7504 177.24 78.825V135.58C177.24 150.13 189.029 159.659 199.156 153.293C207.549 148.017 212.877 137.013 212.877 124.951V40.8772C212.877 36.452 214.736 32.3759 217.733 30.2332C224.008 25.7463 231.706 31.6104 231.706 40.8772V101.568C231.706 114.159 238.539 123.795 246.955 126.334C247.736 126.57 248.357 127.195 248.492 128C249.92 136.492 250.861 144.957 260.013 143.791C268.833 142.668 271 133.092 271 128.219V-18.7194C271 -39.8655 261.961 -59.2822 247.503 -69.1911L157.207 -131.079C145.366 -139.195 131.14 -138.954 119.468 -130.44L7.4931 -48.7601C-2.66016 -41.3539 -2.45291 -22.3677 7.85803 -15.3345Z" fill="#012626"/>
</svg>
