<svg width="245" height="177" viewBox="0 0 245 177" fill="none" xmlns="http://www.w3.org/2000/svg">
<path d="M237.896 9.92991L160.598 50.6418C147.773 57.3963 139.621 70.551 139.295 85.016L137.57 161.696C137.304 173.519 124.486 180.778 114.176 174.944C106.324 170.502 101.472 162.192 101.472 153.186L101.472 75.659C101.472 72.6154 99.8094 69.8139 97.1345 68.3506C91.5672 65.3051 84.7642 69.3244 84.7642 75.659L84.7642 115.277C84.7642 125.434 74.1063 132.086 64.9517 127.642C57.363 123.959 52.5468 116.278 52.5468 107.858L52.5468 49.1691C52.5468 46.0801 50.8655 43.2347 48.1565 41.739C42.4835 38.6069 35.5238 42.7004 35.5238 49.1691L35.5238 91.5347C35.5238 100.272 29.4199 106.97 21.8742 108.791C21.0836 108.982 20.4364 109.575 20.2653 110.37C19.0175 116.166 18.0285 121.805 9.93274 121.009C1.95925 120.225 0 113.541 0 110.139L0 7.56705C0 -7.19418 8.17204 -20.7482 21.2424 -27.6652L102.876 -70.8669C113.581 -76.5322 126.441 -76.3639 136.994 -70.4204L238.226 -13.4032C247.405 -8.23315 247.218 5.02031 237.896 9.92991Z" fill="white"/>
</svg>
