<svg width="34" height="98" viewBox="0 0 34 98" fill="none" xmlns="http://www.w3.org/2000/svg">
<g clip-path="url(#clip0_220_17)">
<path d="M17.0646 0.99996C8.22806 0.988057 1.05497 8.14185 1.04307 16.9784C1.03116 25.8149 8.18495 32.988 17.0215 32.9999C25.858 33.0118 33.0311 25.858 33.043 17.0215C33.0549 8.18495 25.9012 1.01186 17.0646 0.99996Z" fill="#C6D5D5" fill-opacity="0.45"/>
<path d="M17.0538 8.99998C12.6355 8.99403 9.04897 12.5709 9.04302 16.9892C9.03707 21.4075 12.614 24.994 17.0322 25C21.4505 25.0059 25.0371 21.429 25.043 17.0107C25.049 12.5925 21.4721 9.00593 17.0538 8.99998Z" fill="white"/>
<path d="M15.9353 96.9985L16.0431 16.9986" stroke="white" stroke-width="2"/>
</g>
<defs>
<clipPath id="clip0_220_17">
<rect width="32" height="96" fill="white" transform="translate(32.9353 97.0215) rotate(-179.923)"/>
</clipPath>
</defs>
</svg>
