<svg fill="none" height="339" viewBox="0 0 1111 339" width="1111" xmlns="http://www.w3.org/2000/svg"><path d="m661.45 43v-1.296c0-.7893.128-1.4347.384-1.936.267-.512.646-.928 1.136-1.248.491-.3307 1.088-.6027 1.792-.816l1.024-.32c.416-.1387.768-.304 1.056-.496s.512-.4267.672-.704c.16-.288.24-.624.24-1.008v-.064c0-.576-.197-1.0293-.592-1.36-.394-.3413-.922-.512-1.584-.512-.661 0-1.2.1813-1.616.544-.416.352-.624.8747-.624 1.568v.272h-1.856v-.24c0-.8107.182-1.4987.544-2.064.363-.5653.854-.9973 1.472-1.296.619-.2987 1.312-.448 2.08-.448s1.456.1493 2.064.448c.619.288 1.099.6933 1.44 1.216.352.5227.528 1.136.528 1.84v.16c0 .7147-.144 1.3173-.432 1.808s-.688.896-1.2 1.216c-.501.3093-1.072.5653-1.712.768l-.992.304c-.48.1493-.864.3093-1.152.48-.277.1707-.474.368-.592.592-.117.2133-.176.4853-.176.816v.112h6.16v1.664zm13.98.224c-1.312 0-2.363-.368-3.152-1.104-.79-.736-1.184-1.8453-1.184-3.328v-2.784c0-1.4507.394-2.5493 1.184-3.296.789-.7573 1.84-1.136 3.152-1.136 1.322 0 2.373.3787 3.152 1.136.789.7467 1.184 1.8453 1.184 3.296v2.784c0 1.4827-.395 2.592-1.184 3.328-.779.736-1.83 1.104-3.152 1.104zm0-1.664c.842 0 1.461-.2347 1.856-.704.405-.4693.608-1.136.608-2v-2.928c0-.8747-.219-1.5413-.656-2-.438-.4587-1.04-.688-1.808-.688-.79 0-1.398.2347-1.824.704-.427.4693-.64 1.1307-.64 1.984v2.928c0 .8853.202 1.5573.608 2.016.416.4587 1.034.688 1.856.688zm5.895 1.44v-1.296c0-.7893.128-1.4347.384-1.936.267-.512.646-.928 1.136-1.248.491-.3307 1.088-.6027 1.792-.816l1.024-.32c.416-.1387.768-.304 1.056-.496s.512-.4267.672-.704c.16-.288.24-.624.24-1.008v-.064c0-.576-.197-1.0293-.592-1.36-.394-.3413-.922-.512-1.584-.512-.661 0-1.2.1813-1.616.544-.416.352-.624.8747-.624 1.568v.272h-1.856v-.24c0-.8107.182-1.4987.544-2.064.363-.5653.854-.9973 1.472-1.296.619-.2987 1.312-.448 2.08-.448s1.456.1493 2.064.448c.619.288 1.099.6933 1.44 1.216.352.5227.528 1.136.528 1.84v.16c0 .7147-.144 1.3173-.432 1.808s-.688.896-1.2 1.216c-.501.3093-1.072.5653-1.712.768l-.992.304c-.48.1493-.864.3093-1.152.48-.277.1707-.474.368-.592.592-.117.2133-.176.4853-.176.816v.112h6.16v1.664zm13.66.224c-.864 0-1.611-.1547-2.24-.464-.619-.3093-1.099-.7467-1.44-1.312-.342-.5653-.512-1.2213-.512-1.968v-.16h1.888v.144c0 .608.192 1.1093.576 1.504.394.3947.96.592 1.696.592s1.306-.2027 1.712-.608c.405-.4053.608-.9387.608-1.6v-.144c0-.6507-.203-1.168-.608-1.552-.395-.384-.896-.576-1.504-.576-.342 0-.624.048-.848.144-.214.096-.39.2187-.528.368-.139.1387-.251.2827-.336.432h-2.304v-6.224h7.568v1.696h-5.712v3.008h.272c.117-.16.266-.3093.448-.448.192-.1493.437-.272.736-.368.309-.1067.677-.16 1.104-.16.661 0 1.258.144 1.792.432.544.2773.976.688 1.296 1.232s.48 1.2107.48 2v.176c0 .7787-.166 1.456-.496 2.032-.331.576-.806 1.024-1.424 1.344-.619.32-1.36.48-2.224.48zm14.216 0c-1.387 0-2.496-.384-3.328-1.152-.822-.7787-1.232-1.8933-1.232-3.344v-2.656c0-1.4507.41-2.56 1.232-3.328.832-.7787 1.941-1.168 3.328-1.168 1.397 0 2.506.3893 3.328 1.168.821.768 1.232 1.8773 1.232 3.328v2.656c0 1.4507-.411 2.5653-1.232 3.344-.822.768-1.931 1.152-3.328 1.152zm0-1.728c.832 0 1.477-.24 1.936-.72.469-.4907.704-1.152.704-1.984v-2.784c0-.832-.235-1.488-.704-1.968-.459-.4907-1.104-.736-1.936-.736-.822 0-1.467.2453-1.936.736-.459.48-.688 1.136-.688 1.968v2.784c0 .832.229 1.4933.688 1.984.469.48 1.114.72 1.936.72zm.72 4.304c-.491 0-.891-.1547-1.2-.464-.299-.2987-.448-.704-.448-1.216v-1.12h1.856v.832c0 .32.149.48.448.48h.976v1.488zm9.533-2.576c-.832 0-1.573-.1493-2.224-.448-.64-.2987-1.141-.7253-1.504-1.28-.363-.5653-.544-1.2373-.544-2.016v-.288h1.856v.24c0 .6507.219 1.168.656 1.552.448.384 1.035.576 1.76.576s1.291-.176 1.696-.528c.405-.3627.608-.816.608-1.36v-.144c0-.384-.096-.6933-.288-.928-.181-.2347-.432-.4053-.752-.512-.309-.1173-.661-.176-1.056-.176h-2.144v-2.08l3.792-2.128v-.24h-5.856v-1.664h7.904v2.496l-3.584 2.016v.24h.656c.533 0 1.04.1067 1.52.32.491.2027.891.5173 1.2.944s.464.9813.464 1.664v.176c0 .7253-.176 1.3547-.528 1.888-.341.5333-.827.9493-1.456 1.248-.619.288-1.344.432-2.176.432z" fill="#fff"/><path d="m665.14 72.196c-.7 0-1.325-.1213-1.876-.364-.55-.252-.984-.63-1.302-1.134-.317-.5133-.476-1.162-.476-1.946v-.266h.896v.266c0 .9053.257 1.5773.77 2.016.523.4293 1.186.644 1.988.644.812 0 1.438-.1867 1.876-.56.439-.3827.658-.868.658-1.456 0-.392-.098-.7047-.294-.938-.186-.2427-.452-.434-.798-.574-.336-.1493-.728-.28-1.176-.392l-.896-.224c-.532-.14-1.008-.3127-1.428-.518-.42-.2147-.751-.49-.994-.826-.242-.3453-.364-.784-.364-1.316s.136-.994.406-1.386c.28-.392.663-.6907 1.148-.896.486-.2147 1.05-.322 1.694-.322s1.223.112 1.736.336c.523.224.934.5553 1.232.994.308.4293.462.9707.462 1.624v.658h-.896v-.658c0-.5133-.112-.9287-.336-1.246s-.527-.5507-.91-.7c-.382-.1493-.812-.224-1.288-.224-.681 0-1.246.1587-1.694.476-.438.308-.658.756-.658 1.344 0 .392.089.7047.266.938.187.2333.444.42.77.56.336.14.728.266 1.176.378l.896.224c.514.1213.985.2847 1.414.49.43.196.775.4713 1.036.826.262.3453.392.8027.392 1.372s-.144 1.064-.434 1.484c-.28.42-.676.7467-1.19.98-.513.224-1.115.336-1.806.336zm5.749 2.604v-9.604h.812v1.246h.168c.196-.3733.5-.7047.91-.994.42-.2987 1.004-.448 1.75-.448.607 0 1.158.1447 1.652.434.495.28.887.6813 1.176 1.204.299.5227.448 1.148.448 1.876v.168c0 .7187-.144 1.344-.434 1.876-.289.5227-.681.9287-1.176 1.218-.494.28-1.05.42-1.666.42-.494 0-.919-.0653-1.274-.196-.345-.14-.63-.3173-.854-.532-.214-.2147-.382-.434-.504-.658h-.168v3.99zm3.444-3.36c.775 0 1.4-.2473 1.876-.742.486-.4947.728-1.176.728-2.044v-.112c0-.868-.242-1.5493-.728-2.044-.476-.4947-1.101-.742-1.876-.742-.765 0-1.39.2473-1.876.742-.485.4947-.728 1.176-.728 2.044v.112c0 .868.243 1.5493.728 2.044.486.4947 1.111.742 1.876.742zm9.043.756c-.7 0-1.311-.1447-1.834-.434-.513-.2987-.914-.714-1.204-1.246-.289-.532-.434-1.1433-.434-1.834v-.168c0-.7.145-1.3113.434-1.834.29-.532.686-.9427 1.19-1.232.514-.2987 1.097-.448 1.75-.448.635 0 1.195.1353 1.68.406.495.2613.882.644 1.162 1.148.28.4947.42 1.0873.42 1.778v.448h-5.796c.028.8493.285 1.5073.77 1.974.495.4573 1.116.686 1.862.686.635 0 1.125-.1447 1.47-.434.355-.2893.626-.644.812-1.064l.756.336c-.14.308-.336.6113-.588.91-.242.2893-.56.532-.952.728-.392.1867-.891.28-1.498.28zm-2.618-4.144h4.928c-.037-.7373-.275-1.302-.714-1.694-.438-.4013-1.003-.602-1.694-.602-.681 0-1.246.2007-1.694.602-.448.392-.723.9567-.826 1.694zm11.257 4.144c-.662 0-1.255-.14-1.778-.42-.513-.2893-.919-.7-1.218-1.232-.298-.532-.448-1.1573-.448-1.876v-.14c0-.728.15-1.3533.448-1.876.299-.532.705-.938 1.218-1.218.523-.2893 1.116-.434 1.778-.434.654 0 1.204.126 1.652.378.458.2427.812.5647 1.064.966.262.392.425.8073.49 1.246l-.826.168c-.046-.364-.163-.6953-.35-.994-.186-.308-.448-.5507-.784-.728-.336-.1867-.751-.28-1.246-.28-.494 0-.938.1167-1.33.35-.392.224-.704.546-.938.966-.224.4107-.336.9007-.336 1.47v.112c0 .5693.112 1.064.336 1.484.234.4107.546.7327.938.966.392.224.836.336 1.33.336.747 0 1.316-.1913 1.708-.574.392-.392.635-.868.728-1.428l.826.168c-.084.4387-.261.8587-.532 1.26-.261.392-.62.714-1.078.966-.448.2427-.998.364-1.652.364zm5.628-.196v-6.804h.84v6.804zm.42-7.98c-.205 0-.378-.07-.518-.21s-.21-.3127-.21-.518c0-.2147.07-.3873.21-.518.14-.14.313-.21.518-.21.215 0 .387.07.518.21.14.1307.21.3033.21.518 0 .2053-.07.378-.21.518-.131.14-.303.21-.518.21zm5.275 8.176c-.476 0-.91-.0793-1.302-.238-.383-.168-.686-.4107-.91-.728s-.336-.7-.336-1.148c0-.4573.112-.8353.336-1.134s.527-.5227.91-.672c.382-.1493.807-.224 1.274-.224h2.492v-.546c0-.5507-.159-.98-.476-1.288-.318-.308-.78-.462-1.386-.462-.598 0-1.074.1493-1.428.448-.346.2893-.579.6813-.7 1.176l-.812-.238c.112-.4013.289-.7607.532-1.078.242-.3267.564-.5833.966-.77.401-.196.882-.294 1.442-.294.858 0 1.521.224 1.988.672.476.448.714 1.0733.714 1.876v3.304c0 .28.13.42.392.42h.658v.728h-.896c-.29 0-.518-.084-.686-.252-.168-.1773-.252-.4153-.252-.714v-.098h-.14c-.122.2053-.28.406-.476.602-.187.196-.434.3547-.742.476s-.696.182-1.162.182zm.056-.756c.718 0 1.297-.2147 1.736-.644.448-.4387.672-1.0547.672-1.848v-.168h-2.478c-.486 0-.892.1073-1.218.322-.318.2053-.476.5273-.476.966s.163.7793.49 1.022c.336.2333.76.35 1.274.35zm6.197.56v-9.8h.84v9.8zm3.608 0v-6.804h.84v6.804zm.42-7.98c-.205 0-.378-.07-.518-.21s-.21-.3127-.21-.518c0-.2147.07-.3873.21-.518.14-.14.313-.21.518-.21.215 0 .388.07.518.21.14.1307.21.3033.21.518 0 .2053-.07.378-.21.518-.13.14-.303.21-.518.21zm2.853 7.98v-1.148l4.578-4.76v-.14h-4.438v-.756h5.292v1.148l-4.592 4.76v.14h4.704v.756zm10.744.196c-.7 0-1.311-.1447-1.834-.434-.513-.2987-.914-.714-1.204-1.246-.289-.532-.434-1.1433-.434-1.834v-.168c0-.7.145-1.3113.434-1.834.29-.532.686-.9427 1.19-1.232.514-.2987 1.097-.448 1.75-.448.635 0 1.195.1353 1.68.406.495.2613.882.644 1.162 1.148.28.4947.42 1.0873.42 1.778v.448h-5.796c.028.8493.285 1.5073.77 1.974.495.4573 1.116.686 1.862.686.635 0 1.125-.1447 1.47-.434.355-.2893.626-.644.812-1.064l.756.336c-.14.308-.336.6113-.588.91-.242.2893-.56.532-.952.728-.392.1867-.891.28-1.498.28zm-2.618-4.144h4.928c-.037-.7373-.275-1.302-.714-1.694-.438-.4013-1.003-.602-1.694-.602-.681 0-1.246.2007-1.694.602-.448.392-.723.9567-.826 1.694zm11.09 4.144c-.607 0-1.158-.14-1.652-.42-.495-.2893-.892-.6953-1.19-1.218-.29-.532-.434-1.1573-.434-1.876v-.168c0-.7187.144-1.3393.434-1.862.289-.532.681-.938 1.176-1.218.504-.2893 1.059-.434 1.666-.434.504 0 .928.07 1.274.21.345.1307.625.3033.84.518.224.2053.396.4247.518.658h.168v-4.186h.84v9.8h-.812v-1.246h-.168c-.196.3733-.504.7093-.924 1.008-.411.2893-.99.434-1.736.434zm.196-.756c.774 0 1.4-.2473 1.876-.742.485-.4947.728-1.176.728-2.044v-.112c0-.868-.243-1.5493-.728-2.044-.476-.4947-1.102-.742-1.876-.742-.766 0-1.391.2473-1.876.742-.486.4947-.728 1.176-.728 2.044v.112c0 .868.242 1.5493.728 2.044.485.4947 1.11.742 1.876.742zm13.232.756c-.663 0-1.256-.14-1.778-.42-.514-.2893-.92-.7-1.218-1.232-.299-.532-.448-1.1573-.448-1.876v-.14c0-.728.149-1.3533.448-1.876.298-.532.704-.938 1.218-1.218.522-.2893 1.115-.434 1.778-.434.653 0 1.204.126 1.652.378.457.2427.812.5647 1.064.966.261.392.424.8073.49 1.246l-.826.168c-.047-.364-.164-.6953-.35-.994-.187-.308-.448-.5507-.784-.728-.336-.1867-.752-.28-1.246-.28-.495 0-.938.1167-1.33.35-.392.224-.705.546-.938.966-.224.4107-.336.9007-.336 1.47v.112c0 .5693.112 1.064.336 1.484.233.4107.546.7327.938.966.392.224.835.336 1.33.336.746 0 1.316-.1913 1.708-.574.392-.392.634-.868.728-1.428l.826.168c-.084.4387-.262.8587-.532 1.26-.262.392-.621.714-1.078.966-.448.2427-.999.364-1.652.364zm5.627-.196v-6.804h.84v6.804zm.42-7.98c-.205 0-.378-.07-.518-.21s-.21-.3127-.21-.518c0-.2147.07-.3873.21-.518.14-.14.313-.21.518-.21.215 0 .388.07.518.21.14.1307.21.3033.21.518 0 .2053-.07.378-.21.518-.13.14-.303.21-.518.21zm3.189 7.98v-6.804h.812v.854h.168c.131-.308.322-.532.574-.672.261-.14.621-.21 1.078-.21h.798v.784h-.896c-.513 0-.924.1447-1.232.434s-.462.742-.462 1.358v4.256zm8.33.196c-.663 0-1.256-.14-1.778-.42-.514-.2893-.92-.7-1.218-1.232-.299-.532-.448-1.1573-.448-1.876v-.14c0-.728.149-1.3533.448-1.876.298-.532.704-.938 1.218-1.218.522-.2893 1.115-.434 1.778-.434.653 0 1.204.126 1.652.378.457.2427.812.5647 1.064.966.261.392.424.8073.49 1.246l-.826.168c-.047-.364-.164-.6953-.35-.994-.187-.308-.448-.5507-.784-.728-.336-.1867-.752-.28-1.246-.28-.495 0-.938.1167-1.33.35-.392.224-.705.546-.938.966-.224.4107-.336.9007-.336 1.47v.112c0 .5693.112 1.064.336 1.484.233.4107.546.7327.938.966.392.224.835.336 1.33.336.746 0 1.316-.1913 1.708-.574.392-.392.634-.868.728-1.428l.826.168c-.084.4387-.262.8587-.532 1.26-.262.392-.621.714-1.078.966-.448.2427-.999.364-1.652.364zm8.245-.056c-.485 0-.938-.1027-1.358-.308-.41-.2053-.742-.5133-.994-.924-.242-.42-.364-.9427-.364-1.568v-4.144h.84v4.088c0 .7373.187 1.274.56 1.61.374.3267.873.49 1.498.49.7 0 1.284-.2287 1.75-.686.467-.4667.7-1.1667.7-2.1v-3.402h.84v6.804h-.812v-1.26h-.168c-.168.364-.443.6907-.826.98-.382.28-.938.42-1.666.42zm6.241-.14v-6.804h.84v6.804zm.42-7.98c-.205 0-.378-.07-.518-.21s-.21-.3127-.21-.518c0-.2147.07-.3873.21-.518.14-.14.313-.21.518-.21.215 0 .387.07.518.21.14.1307.21.3033.21.518 0 .2053-.07.378-.21.518-.131.14-.303.21-.518.21zm5.653 7.98c-.364 0-.64-.0933-.826-.28-.178-.1867-.266-.448-.266-.784v-4.984h-2.184v-.756h2.184v-2.548h.84v2.548h2.38v.756h-2.38v4.872c0 .28.14.42.42.42h1.596v.756zm7.004.196c-.821 0-1.526-.196-2.114-.588-.578-.392-.933-1.0407-1.064-1.946l.826-.154c.075.4947.224.8867.448 1.176.234.28.514.4807.84.602.336.1213.691.182 1.064.182.56 0 1.008-.112 1.344-.336.346-.2333.518-.5507.518-.952 0-.4107-.163-.6953-.49-.854-.317-.1587-.742-.2847-1.274-.378l-.644-.112c-.429-.0747-.816-.1867-1.162-.336-.345-.1587-.62-.3687-.826-.63-.196-.2613-.294-.588-.294-.98 0-.588.229-1.05.686-1.386.467-.336 1.083-.504 1.848-.504.775 0 1.396.1773 1.862.532.476.3453.775.8493.896 1.512l-.784.168c-.093-.5413-.317-.924-.672-1.148-.345-.224-.779-.336-1.302-.336-.513 0-.924.098-1.232.294s-.462.4853-.462.868c0 .3733.14.6487.42.826.28.168.663.294 1.148.378l.644.112c.467.0747.887.1867 1.26.336.374.14.668.3407.882.602.224.2613.336.6067.336 1.036 0 .644-.242 1.1433-.728 1.498-.485.3453-1.143.518-1.974.518zm-130.855 16.804v-6.048h-2.24v-.756h2.24v-1.932c0-.336.089-.5973.266-.784.187-.1867.462-.28.826-.28h1.68v.756h-1.512c-.28 0-.42.14-.42.42v1.82h2.296v.756h-2.296v6.048zm7.711.14c-.485 0-.938-.1027-1.358-.308-.41-.2053-.742-.5133-.994-.924-.242-.42-.364-.9427-.364-1.568v-4.144h.84v4.088c0 .7373.187 1.274.56 1.61.374.3267.873.49 1.498.49.7 0 1.284-.2287 1.75-.686.467-.4667.7-1.1667.7-2.1v-3.402h.84v6.804h-.812v-1.26h-.168c-.168.364-.443.6907-.826.98-.382.28-.938.42-1.666.42zm6.241-.14v-6.804h.812v.854h.168c.13-.308.322-.532.574-.672.261-.14.62-.21 1.078-.21h.798v.784h-.896c-.514 0-.924.1447-1.232.434s-.462.742-.462 1.358v4.256zm7.932 0c-.364 0-.64-.0933-.826-.28-.178-.1867-.266-.448-.266-.784v-4.984h-2.184v-.756h2.184v-2.548h.84v2.548h2.38v.756h-2.38v4.872c0 .28.14.42.42.42h1.596v.756zm4.303 0v-9.8h.84v4.186h.168c.112-.224.266-.434.462-.63.205-.2053.466-.3687.784-.49.326-.1307.732-.196 1.218-.196.494 0 .947.1027 1.358.308.41.2053.737.5133.98.924.252.4107.378.9287.378 1.554v4.144h-.84v-4.088c0-.7467-.187-1.2787-.56-1.596-.374-.3267-.873-.49-1.498-.49-.7 0-1.284.2287-1.75.686-.467.4573-.7 1.1527-.7 2.086v3.402zm12.008.196c-.7 0-1.312-.1447-1.834-.434-.514-.2987-.915-.714-1.204-1.246-.29-.532-.434-1.1433-.434-1.834v-.168c0-.7.144-1.3113.434-1.834.289-.532.686-.9427 1.19-1.232.513-.2987 1.096-.448 1.75-.448.634 0 1.194.1353 1.68.406.494.2613.882.644 1.162 1.148.28.4947.42 1.0873.42 1.778v.448h-5.796c.028.8493.284 1.5073.77 1.974.494.4573 1.115.686 1.862.686.634 0 1.124-.1447 1.47-.434.354-.2893.625-.644.812-1.064l.756.336c-.14.308-.336.6113-.588.91-.243.2893-.56.532-.952.728-.392.1867-.892.28-1.498.28zm-2.618-4.144h4.928c-.038-.7373-.276-1.302-.714-1.694-.439-.4013-1.004-.602-1.694-.602-.682 0-1.246.2007-1.694.602-.448.392-.724.9567-.826 1.694zm8.149 3.948v-6.804h.812v.854h.168c.131-.308.322-.532.574-.672.261-.14.621-.21 1.078-.21h.798v.784h-.896c-.513 0-.924.1447-1.232.434s-.462.742-.462 1.358v4.256zm11.463.196c-.476 0-.91-.0793-1.302-.238-.382-.168-.686-.4107-.91-.728s-.336-.7-.336-1.148c0-.4573.112-.8353.336-1.134s.528-.5227.91-.672c.383-.1493.808-.224 1.274-.224h2.492v-.546c0-.5507-.158-.98-.476-1.288-.317-.308-.779-.462-1.386-.462-.597 0-1.073.1493-1.428.448-.345.2893-.578.6813-.7 1.176l-.812-.238c.112-.4013.29-.7607.532-1.078.243-.3267.565-.5833.966-.77.402-.196.882-.294 1.442-.294.859 0 1.522.224 1.988.672.476.448.714 1.0733.714 1.876v3.304c0 .28.131.42.392.42h.658v.728h-.896c-.289 0-.518-.084-.686-.252-.168-.1773-.252-.4153-.252-.714v-.098h-.14c-.121.2053-.28.406-.476.602-.186.196-.434.3547-.742.476s-.695.182-1.162.182zm.056-.756c.719 0 1.298-.2147 1.736-.644.448-.4387.672-1.0547.672-1.848v-.168h-2.478c-.485 0-.891.1073-1.218.322-.317.2053-.476.5273-.476.966s.164.7793.49 1.022c.336.2333.761.35 1.274.35zm9.1.756c-.662 0-1.255-.14-1.778-.42-.513-.2893-.919-.7-1.218-1.232-.298-.532-.448-1.1573-.448-1.876v-.14c0-.728.15-1.3533.448-1.876.299-.532.705-.938 1.218-1.218.523-.2893 1.116-.434 1.778-.434.654 0 1.204.126 1.652.378.458.2427.812.5647 1.064.966.262.392.425.8073.49 1.246l-.826.168c-.046-.364-.163-.6953-.35-.994-.186-.308-.448-.5507-.784-.728-.336-.1867-.751-.28-1.246-.28-.494 0-.938.1167-1.33.35-.392.224-.704.546-.938.966-.224.4107-.336.9007-.336 1.47v.112c0 .5693.112 1.064.336 1.484.234.4107.546.7327.938.966.392.224.836.336 1.33.336.747 0 1.316-.1913 1.708-.574.392-.392.635-.868.728-1.428l.826.168c-.084.4387-.261.8587-.532 1.26-.261.392-.62.714-1.078.966-.448.2427-.998.364-1.652.364zm8.736 0c-.663 0-1.255-.14-1.778-.42-.513-.2893-.919-.7-1.218-1.232s-.448-1.1573-.448-1.876v-.14c0-.728.149-1.3533.448-1.876.299-.532.705-.938 1.218-1.218.523-.2893 1.115-.434 1.778-.434.653 0 1.204.126 1.652.378.457.2427.812.5647 1.064.966.261.392.425.8073.49 1.246l-.826.168c-.047-.364-.163-.6953-.35-.994-.187-.308-.448-.5507-.784-.728-.336-.1867-.751-.28-1.246-.28s-.938.1167-1.33.35c-.392.224-.705.546-.938.966-.224.4107-.336.9007-.336 1.47v.112c0 .5693.112 1.064.336 1.484.233.4107.546.7327.938.966.392.224.835.336 1.33.336.747 0 1.316-.1913 1.708-.574.392-.392.635-.868.728-1.428l.826.168c-.084.4387-.261.8587-.532 1.26-.261.392-.621.714-1.078.966-.448.2427-.999.364-1.652.364zm8.763 0c-.7 0-1.311-.1447-1.834-.434-.513-.2987-.914-.714-1.204-1.246-.289-.532-.434-1.1433-.434-1.834v-.168c0-.7.145-1.3113.434-1.834.29-.532.686-.9427 1.19-1.232.514-.2987 1.097-.448 1.75-.448.635 0 1.195.1353 1.68.406.495.2613.882.644 1.162 1.148.28.4947.42 1.0873.42 1.778v.448h-5.796c.028.8493.285 1.5073.77 1.974.495.4573 1.116.686 1.862.686.635 0 1.125-.1447 1.47-.434.355-.2893.626-.644.812-1.064l.756.336c-.14.308-.336.6113-.588.91-.242.2893-.56.532-.952.728-.392.1867-.891.28-1.498.28zm-2.618-4.144h4.928c-.037-.7373-.275-1.302-.714-1.694-.438-.4013-1.003-.602-1.694-.602-.681 0-1.246.2007-1.694.602-.448.392-.723.9567-.826 1.694zm8.15 3.948v-9.8h.84v9.8zm6.744.196c-.7 0-1.311-.1447-1.834-.434-.513-.2987-.914-.714-1.204-1.246-.289-.532-.434-1.1433-.434-1.834v-.168c0-.7.145-1.3113.434-1.834.29-.532.686-.9427 1.19-1.232.514-.2987 1.097-.448 1.75-.448.635 0 1.195.1353 1.68.406.495.2613.882.644 1.162 1.148.28.4947.42 1.0873.42 1.778v.448h-5.796c.028.8493.285 1.5073.77 1.974.495.4573 1.116.686 1.862.686.635 0 1.125-.1447 1.47-.434.355-.2893.626-.644.812-1.064l.756.336c-.14.308-.336.6113-.588.91-.242.2893-.56.532-.952.728-.392.1867-.891.28-1.498.28zm-2.618-4.144h4.928c-.037-.7373-.275-1.302-.714-1.694-.438-.4013-1.003-.602-1.694-.602-.681 0-1.246.2007-1.694.602-.448.392-.723.9567-.826 1.694zm8.149 3.948v-6.804h.812v.854h.168c.131-.308.322-.532.574-.672.262-.14.621-.21 1.078-.21h.798v.784h-.896c-.513 0-.924.1447-1.232.434s-.462.742-.462 1.358v4.256zm7.295.196c-.476 0-.91-.0793-1.302-.238-.383-.168-.686-.4107-.91-.728s-.336-.7-.336-1.148c0-.4573.112-.8353.336-1.134s.527-.5227.91-.672c.382-.1493.807-.224 1.274-.224h2.492v-.546c0-.5507-.159-.98-.476-1.288-.318-.308-.78-.462-1.386-.462-.598 0-1.074.1493-1.428.448-.346.2893-.579.6813-.7 1.176l-.812-.238c.112-.4013.289-.7607.532-1.078.242-.3267.564-.5833.966-.77.401-.196.882-.294 1.442-.294.858 0 1.521.224 1.988.672.476.448.714 1.0733.714 1.876v3.304c0 .28.13.42.392.42h.658v.728h-.896c-.29 0-.518-.084-.686-.252-.168-.1773-.252-.4153-.252-.714v-.098h-.14c-.122.2053-.28.406-.476.602-.187.196-.434.3547-.742.476s-.696.182-1.162.182zm.056-.756c.718 0 1.297-.2147 1.736-.644.448-.4387.672-1.0547.672-1.848v-.168h-2.478c-.486 0-.892.1073-1.218.322-.318.2053-.476.5273-.476.966s.163.7793.49 1.022c.336.2333.76.35 1.274.35zm8.237.56c-.364 0-.64-.0933-.826-.28-.178-.1867-.266-.448-.266-.784v-4.984h-2.184v-.756h2.184v-2.548h.84v2.548h2.38v.756h-2.38v4.872c0 .28.14.42.42.42h1.596v.756zm7.193.196c-.7 0-1.312-.1447-1.834-.434-.514-.2987-.915-.714-1.204-1.246-.29-.532-.434-1.1433-.434-1.834v-.168c0-.7.144-1.3113.434-1.834.289-.532.686-.9427 1.19-1.232.513-.2987 1.096-.448 1.75-.448.634 0 1.194.1353 1.68.406.494.2613.882.644 1.162 1.148.28.4947.42 1.0873.42 1.778v.448h-5.796c.028.8493.284 1.5073.77 1.974.494.4573 1.115.686 1.862.686.634 0 1.124-.1447 1.47-.434.354-.2893.625-.644.812-1.064l.756.336c-.14.308-.336.6113-.588.91-.243.2893-.56.532-.952.728-.392.1867-.892.28-1.498.28zm-2.618-4.144h4.928c-.038-.7373-.276-1.302-.714-1.694-.439-.4013-1.004-.602-1.694-.602-.682 0-1.246.2007-1.694.602-.448.392-.724.9567-.826 1.694zm10.851 4.144c-.822 0-1.526-.196-2.114-.588-.579-.392-.934-1.0407-1.064-1.946l.826-.154c.074.4947.224.8867.448 1.176.233.28.513.4807.84.602.336.1213.69.182 1.064.182.56 0 1.008-.112 1.344-.336.345-.2333.518-.5507.518-.952 0-.4107-.164-.6953-.49-.854-.318-.1587-.742-.2847-1.274-.378l-.644-.112c-.43-.0747-.817-.1867-1.162-.336-.346-.1587-.621-.3687-.826-.63-.196-.2613-.294-.588-.294-.98 0-.588.228-1.05.686-1.386.466-.336 1.082-.504 1.848-.504.774 0 1.395.1773 1.862.532.476.3453.774.8493.896 1.512l-.784.168c-.094-.5413-.318-.924-.672-1.148-.346-.224-.78-.336-1.302-.336-.514 0-.924.098-1.232.294s-.462.4853-.462.868c0 .3733.14.6487.42.826.28.168.662.294 1.148.378l.644.112c.466.0747.886.1867 1.26.336.373.14.667.3407.882.602.224.2613.336.6067.336 1.036 0 .644-.243 1.1433-.728 1.498-.486.3453-1.144.518-1.974.518zm-129.139 17c-.718 0-1.325-.131-1.82-.392-.494-.261-.868-.611-1.12-1.05-.252-.448-.378-.943-.378-1.484h.868c0 .644.21 1.162.63 1.554s1.027.588 1.82.588c.831 0 1.47-.224 1.918-.672.448-.457.672-1.083.672-1.876v-1.498h-.168c-.177.317-.476.611-.896.882-.41.261-.98.392-1.708.392-.597 0-1.143-.131-1.638-.392-.485-.271-.872-.649-1.162-1.134-.28-.485-.42-1.055-.42-1.708v-.168c0-.672.15-1.246.448-1.722.308-.4853.719-.8587 1.232-1.12.523-.2613 1.106-.392 1.75-.392.654 0 1.237.1307 1.75.392.514.2613.92.6393 1.218 1.134.308.4853.462 1.078.462 1.778v3.458c0 .7-.135 1.307-.406 1.82-.27.513-.667.91-1.19 1.19-.513.28-1.134.42-1.862.42zm.028-4.312c.504 0 .948-.103 1.33-.308.383-.215.682-.509.896-.882.224-.383.336-.826.336-1.33v-.112c0-.7653-.238-1.3673-.714-1.806s-1.092-.658-1.848-.658-1.372.2193-1.848.658-.714 1.0407-.714 1.806v.112c0 .504.108.947.322 1.33.224.373.528.667.91.882.383.205.826.308 1.33.308zm9.097 4.312c-1.101 0-1.974-.331-2.618-.994-.634-.672-.952-1.666-.952-2.982v-2.24c0-1.316.318-2.3053.952-2.968.644-.672 1.517-1.008 2.618-1.008 1.102 0 1.97.336 2.604 1.008.644.6627.966 1.652.966 2.968v2.24c0 1.316-.322 2.31-.966 2.982-.634.663-1.502.994-2.604.994zm0-.784c.896 0 1.568-.275 2.016-.826.458-.56.686-1.33.686-2.31v-2.352c0-.98-.228-1.7453-.686-2.296-.448-.56-1.12-.84-2.016-.84s-1.572.28-2.03.84c-.448.5507-.672 1.316-.672 2.296v2.352c0 .98.224 1.75.672 2.31.458.551 1.134.826 2.03.826zm6.568.784-.616-.49 7.896-9.702.616.49zm6.342 0c-.663 0-1.199-.201-1.61-.602-.401-.411-.602-.957-.602-1.638v-.084c0-.691.201-1.237.602-1.638.411-.401.947-.602 1.61-.602s1.195.201 1.596.602c.411.401.616.947.616 1.638v.084c0 .681-.205 1.227-.616 1.638-.401.401-.933.602-1.596.602zm0-.672c.448 0 .803-.14 1.064-.42.261-.289.392-.663.392-1.12v-.14c0-.467-.131-.84-.392-1.12s-.616-.42-1.064-.42-.803.14-1.064.42-.392.653-.392 1.12v.14c0 .457.131.831.392 1.12.261.28.616.42 1.064.42zm-5.404-4.956c-.663 0-1.199-.201-1.61-.602-.401-.4107-.602-.9567-.602-1.638v-.084c0-.6907.201-1.2367.602-1.638.411-.4013.947-.602 1.61-.602s1.195.2007 1.596.602c.411.4013.616.9473.616 1.638v.084c0 .6813-.205 1.2273-.616 1.638-.401.401-.933.602-1.596.602zm0-.672c.448 0 .803-.14 1.064-.42.261-.2893.392-.6627.392-1.12v-.14c0-.4667-.131-.84-.392-1.12s-.616-.42-1.064-.42-.803.14-1.064.42-.392.6533-.392 1.12v.14c0 .4573.131.8307.392 1.12.261.28.616.42 1.064.42zm16.702 6.3c-.691 0-1.297-.145-1.82-.434-.513-.299-.915-.709-1.204-1.232-.28-.532-.42-1.148-.42-1.848v-.168c0-.7.14-1.311.42-1.834.289-.532.691-.9427 1.204-1.232.523-.2987 1.129-.448 1.82-.448s1.293.1493 1.806.448c.523.2893.924.7 1.204 1.232.289.523.434 1.134.434 1.834v.168c0 .7-.145 1.316-.434 1.848-.28.523-.681.933-1.204 1.232-.513.289-1.115.434-1.806.434zm0-.756c.803 0 1.437-.252 1.904-.756.467-.513.7-1.19.7-2.03v-.112c0-.84-.233-1.512-.7-2.016-.467-.513-1.101-.77-1.904-.77-.793 0-1.428.257-1.904.77-.467.504-.7 1.176-.7 2.016v.112c0 .84.233 1.517.7 2.03.476.504 1.111.756 1.904.756zm7.001.56v-6.048h-2.24v-.756h2.24v-1.932c0-.336.089-.5973.266-.784.187-.1867.462-.28.826-.28h1.68v.756h-1.512c-.28 0-.42.14-.42.42v1.82h2.296v.756h-2.296v6.048zm8.666 0v-1.148l4.578-4.76v-.14h-4.438v-.756h5.292v1.148l-4.592 4.76v.14h4.704v.756zm7.95 0v-9.8h.84v5.908h.168l3.486-2.912h1.232l-4.032 3.318 4.144 3.486h-1.218l-3.612-3.066h-.168v3.066zm7.655 0v-9.8h.896v9.8zm3.637 0v-6.804h.812v1.26h.168c.168-.364.443-.686.826-.966.382-.2893.938-.434 1.666-.434.494 0 .947.1027 1.358.308.41.2053.737.518.98.938.252.411.378.929.378 1.554v4.144h-.84v-4.088c0-.747-.187-1.283-.56-1.61-.374-.3267-.873-.49-1.498-.49-.7 0-1.284.233-1.75.7-.467.457-.7 1.153-.7 2.086v3.402zm11.812.196c-.607 0-1.157-.14-1.652-.42-.495-.289-.891-.695-1.19-1.218-.289-.532-.434-1.157-.434-1.876v-.168c0-.719.145-1.339.434-1.862.289-.532.681-.938 1.176-1.218.504-.2893 1.059-.434 1.666-.434.504 0 .929.07 1.274.21.345.1307.625.3033.84.518.224.2053.397.425.518.658h.168v-4.186h.84v9.8h-.812v-1.246h-.168c-.196.373-.504.709-.924 1.008-.411.289-.989.434-1.736.434zm.196-.756c.775 0 1.4-.247 1.876-.742.485-.495.728-1.176.728-2.044v-.112c0-.868-.243-1.549-.728-2.044-.476-.495-1.101-.742-1.876-.742-.765 0-1.391.247-1.876.742s-.728 1.176-.728 2.044v.112c0 .868.243 1.549.728 2.044s1.111.742 1.876.742zm9.351.756c-.7 0-1.312-.145-1.834-.434-.514-.299-.915-.714-1.204-1.246-.29-.532-.434-1.143-.434-1.834v-.168c0-.7.144-1.311.434-1.834.289-.532.686-.9427 1.19-1.232.513-.2987 1.096-.448 1.75-.448.634 0 1.194.1353 1.68.406.494.2613.882.644 1.162 1.148.28.495.42 1.087.42 1.778v.448h-5.796c.028.849.284 1.507.77 1.974.494.457 1.115.686 1.862.686.634 0 1.124-.145 1.47-.434.354-.289.625-.644.812-1.064l.756.336c-.14.308-.336.611-.588.91-.243.289-.56.532-.952.728-.392.187-.892.28-1.498.28zm-2.618-4.144h4.928c-.038-.737-.276-1.302-.714-1.694-.439-.4013-1.004-.602-1.694-.602-.682 0-1.246.2007-1.694.602-.448.392-.724.957-.826 1.694zm7.152 3.948 2.842-3.458-2.744-3.346h1.05l2.226 2.786h.168l2.226-2.786h1.05l-2.744 3.346 2.842 3.458h-1.064l-2.31-2.898h-.168l-2.31 2.898zm9.145 0v-6.804h.84v6.804zm.42-7.98c-.206 0-.378-.07-.518-.21s-.21-.3127-.21-.518c0-.2147.07-.3873.21-.518.14-.14.312-.21.518-.21.214 0 .387.07.518.21.14.1307.21.3033.21.518 0 .2053-.07.378-.21.518-.131.14-.304.21-.518.21zm3.188 7.98v-6.804h.812v1.26h.168c.168-.364.444-.686.826-.966.383-.2893.938-.434 1.666-.434.495 0 .948.1027 1.358.308.411.2053.738.518.98.938.252.411.378.929.378 1.554v4.144h-.84v-4.088c0-.747-.186-1.283-.56-1.61-.373-.3267-.872-.49-1.498-.49-.7 0-1.283.233-1.75.7-.466.457-.7 1.153-.7 2.086v3.402zm8.537-3.374v-.168c0-.719.144-1.335.434-1.848.298-.513.695-.91 1.19-1.19.494-.28 1.045-.42 1.652-.42.746 0 1.325.1493 1.736.448.42.2893.728.621.924.994h.168v-1.246h.784v8.54c0 .336-.089.597-.266.784-.178.187-.448.28-.812.28h-4.648v-.756h4.48c.289 0 .434-.14.434-.42v-2.926h-.168c-.122.224-.294.443-.518.658-.215.215-.495.392-.84.532-.346.131-.77.196-1.274.196-.607 0-1.162-.14-1.666-.42-.495-.28-.887-.677-1.176-1.19-.29-.523-.434-1.139-.434-1.848zm3.472 2.702c.774 0 1.4-.243 1.876-.728.485-.485.728-1.153.728-2.002v-.112c0-.859-.243-1.526-.728-2.002-.476-.4853-1.102-.728-1.876-.728-.766 0-1.391.2427-1.876.728-.486.476-.728 1.143-.728 2.002v.112c0 .849.242 1.517.728 2.002.485.485 1.11.728 1.876.728zm-119.233 17.812c-.485 0-.938-.103-1.358-.308-.41-.205-.742-.513-.994-.924-.242-.42-.364-.943-.364-1.568v-4.144h.84v4.088c0 .737.187 1.274.56 1.61.374.327.873.49 1.498.49.7 0 1.284-.229 1.75-.686.467-.467.7-1.167.7-2.1v-3.402h.84v6.804h-.812v-1.26h-.168c-.168.364-.443.691-.826.98-.382.28-.938.42-1.666.42zm8.943.056c-.821 0-1.526-.196-2.114-.588-.579-.392-.933-1.041-1.064-1.946l.826-.154c.075.495.224.887.448 1.176.233.28.513.481.84.602.336.121.691.182 1.064.182.56 0 1.008-.112 1.344-.336.345-.233.518-.551.518-.952 0-.411-.163-.695-.49-.854-.317-.159-.742-.285-1.274-.378l-.644-.112c-.429-.075-.817-.187-1.162-.336-.345-.159-.621-.369-.826-.63-.196-.261-.294-.588-.294-.98 0-.588.229-1.05.686-1.386.467-.336 1.083-.504 1.848-.504.775 0 1.395.177 1.862.532.476.345.775.849.896 1.512l-.784.168c-.093-.541-.317-.924-.672-1.148-.345-.224-.779-.336-1.302-.336-.513 0-.924.098-1.232.294s-.462.485-.462.868c0 .373.14.649.42.826.28.168.663.294 1.148.378l.644.112c.467.075.887.187 1.26.336.373.14.667.341.882.602.224.261.336.607.336 1.036 0 .644-.243 1.143-.728 1.498-.485.345-1.143.518-1.974.518zm7.026 0c-.476 0-.91-.079-1.302-.238-.383-.168-.686-.411-.91-.728s-.336-.7-.336-1.148c0-.457.112-.835.336-1.134s.527-.523.91-.672.807-.224 1.274-.224h2.492v-.546c0-.551-.159-.98-.476-1.288s-.779-.462-1.386-.462c-.597 0-1.073.149-1.428.448-.345.289-.579.681-.7 1.176l-.812-.238c.112-.401.289-.761.532-1.078.243-.327.565-.583.966-.77.401-.196.882-.294 1.442-.294.859 0 1.521.224 1.988.672.476.448.714 1.073.714 1.876v3.304c0 .28.131.42.392.42h.658v.728h-.896c-.289 0-.518-.084-.686-.252-.168-.177-.252-.415-.252-.714v-.098h-.14c-.121.205-.28.406-.476.602-.187.196-.434.355-.742.476s-.695.182-1.162.182zm.056-.756c.719 0 1.297-.215 1.736-.644.448-.439.672-1.055.672-1.848v-.168h-2.478c-.485 0-.891.107-1.218.322-.317.205-.476.527-.476.966s.163.779.49 1.022c.336.233.761.35 1.274.35zm5.656-2.814v-.168c0-.719.145-1.335.434-1.848.299-.513.695-.91 1.19-1.19s1.045-.42 1.652-.42c.747 0 1.325.149 1.736.448.42.289.728.621.924.994h.168v-1.246h.784v8.54c0 .336-.089.597-.266.784s-.448.28-.812.28h-4.648v-.756h4.48c.289 0 .434-.14.434-.42v-2.926h-.168c-.121.224-.294.443-.518.658-.215.215-.495.392-.84.532-.345.131-.77.196-1.274.196-.607 0-1.162-.14-1.666-.42-.495-.28-.887-.677-1.176-1.19-.289-.523-.434-1.139-.434-1.848zm3.472 2.702c.775 0 1.4-.243 1.876-.728.485-.485.728-1.153.728-2.002v-.112c0-.859-.243-1.526-.728-2.002-.476-.485-1.101-.728-1.876-.728-.765 0-1.391.243-1.876.728-.485.476-.728 1.143-.728 2.002v.112c0 .849.243 1.517.728 2.002s1.111.728 1.876.728zm9.31.868c-.7 0-1.312-.145-1.834-.434-.514-.299-.915-.714-1.204-1.246-.29-.532-.434-1.143-.434-1.834v-.168c0-.7.144-1.311.434-1.834.289-.532.686-.943 1.19-1.232.513-.299 1.096-.448 1.75-.448.634 0 1.194.135 1.68.406.494.261.882.644 1.162 1.148.28.495.42 1.087.42 1.778v.448h-5.796c.028.849.284 1.507.77 1.974.494.457 1.115.686 1.862.686.634 0 1.124-.145 1.47-.434.354-.289.625-.644.812-1.064l.756.336c-.14.308-.336.611-.588.91-.243.289-.56.532-.952.728-.392.187-.892.28-1.498.28zm-2.618-4.144h4.928c-.038-.737-.276-1.302-.714-1.694-.439-.401-1.004-.602-1.694-.602-.682 0-1.246.201-1.694.602-.448.392-.724.957-.826 1.694z" fill="#fff"/><path d="m402.45 253v-1.296c0-.789.128-1.435.384-1.936.267-.512.646-.928 1.136-1.248.491-.331 1.088-.603 1.792-.816l1.024-.32c.416-.139.768-.304 1.056-.496s.512-.427.672-.704c.16-.288.24-.624.24-1.008v-.064c0-.576-.197-1.029-.592-1.36-.394-.341-.922-.512-1.584-.512-.661 0-1.2.181-1.616.544-.416.352-.624.875-.624 1.568v.272h-1.856v-.24c0-.811.182-1.499.544-2.064.363-.565.854-.997 1.472-1.296.619-.299 1.312-.448 2.08-.448s1.456.149 2.064.448c.619.288 1.099.693 1.44 1.216.352.523.528 1.136.528 1.84v.16c0 .715-.144 1.317-.432 1.808s-.688.896-1.2 1.216c-.501.309-1.072.565-1.712.768l-.992.304c-.48.149-.864.309-1.152.48-.277.171-.474.368-.592.592-.117.213-.176.485-.176.816v.112h6.16v1.664zm13.98.224c-1.312 0-2.363-.368-3.152-1.104-.79-.736-1.184-1.845-1.184-3.328v-2.784c0-1.451.394-2.549 1.184-3.296.789-.757 1.84-1.136 3.152-1.136 1.322 0 2.373.379 3.152 1.136.789.747 1.184 1.845 1.184 3.296v2.784c0 1.483-.395 2.592-1.184 3.328-.779.736-1.83 1.104-3.152 1.104zm0-1.664c.842 0 1.461-.235 1.856-.704.405-.469.608-1.136.608-2v-2.928c0-.875-.219-1.541-.656-2-.438-.459-1.04-.688-1.808-.688-.79 0-1.398.235-1.824.704-.427.469-.64 1.131-.64 1.984v2.928c0 .885.202 1.557.608 2.016.416.459 1.034.688 1.856.688zm5.895 1.44v-1.296c0-.789.128-1.435.384-1.936.267-.512.646-.928 1.136-1.248.491-.331 1.088-.603 1.792-.816l1.024-.32c.416-.139.768-.304 1.056-.496s.512-.427.672-.704c.16-.288.24-.624.24-1.008v-.064c0-.576-.197-1.029-.592-1.36-.394-.341-.922-.512-1.584-.512-.661 0-1.2.181-1.616.544-.416.352-.624.875-.624 1.568v.272h-1.856v-.24c0-.811.182-1.499.544-2.064.363-.565.854-.997 1.472-1.296.619-.299 1.312-.448 2.08-.448s1.456.149 2.064.448c.619.288 1.099.693 1.44 1.216.352.523.528 1.136.528 1.84v.16c0 .715-.144 1.317-.432 1.808s-.688.896-1.2 1.216c-.501.309-1.072.565-1.712.768l-.992.304c-.48.149-.864.309-1.152.48-.277.171-.474.368-.592.592-.117.213-.176.485-.176.816v.112h6.16v1.664zm13.66.224c-.864 0-1.611-.155-2.24-.464-.619-.309-1.099-.747-1.44-1.312-.342-.565-.512-1.221-.512-1.968v-.16h1.888v.144c0 .608.192 1.109.576 1.504.394.395.96.592 1.696.592s1.306-.203 1.712-.608c.405-.405.608-.939.608-1.6v-.144c0-.651-.203-1.168-.608-1.552-.395-.384-.896-.576-1.504-.576-.342 0-.624.048-.848.144-.214.096-.39.219-.528.368-.139.139-.251.283-.336.432h-2.304v-6.224h7.568v1.696h-5.712v3.008h.272c.117-.16.266-.309.448-.448.192-.149.437-.272.736-.368.309-.107.677-.16 1.104-.16.661 0 1.258.144 1.792.432.544.277.976.688 1.296 1.232s.48 1.211.48 2v.176c0 .779-.166 1.456-.496 2.032-.331.576-.806 1.024-1.424 1.344-.619.32-1.36.48-2.224.48zm14.216 0c-1.387 0-2.496-.384-3.328-1.152-.822-.779-1.232-1.893-1.232-3.344v-2.656c0-1.451.41-2.56 1.232-3.328.832-.779 1.941-1.168 3.328-1.168 1.397 0 2.506.389 3.328 1.168.821.768 1.232 1.877 1.232 3.328v2.656c0 1.451-.411 2.565-1.232 3.344-.822.768-1.931 1.152-3.328 1.152zm0-1.728c.832 0 1.477-.24 1.936-.72.469-.491.704-1.152.704-1.984v-2.784c0-.832-.235-1.488-.704-1.968-.459-.491-1.104-.736-1.936-.736-.822 0-1.467.245-1.936.736-.459.48-.688 1.136-.688 1.968v2.784c0 .832.229 1.493.688 1.984.469.48 1.114.72 1.936.72zm.72 4.304c-.491 0-.891-.155-1.2-.464-.299-.299-.448-.704-.448-1.216v-1.12h1.856v.832c0 .32.149.48.448.48h.976v1.488zm8.797-2.8v-9.856h-.272l-1.68 3.664h-1.968l2.384-5.008h3.392v11.2z" fill="#fff"/><path d="m402.402 280v-.812h1.4v-8.176h-1.4v-.812h3.724c1.279 0 2.273.327 2.982.98.719.644 1.078 1.652 1.078 3.024v1.806c0 1.372-.359 2.38-1.078 3.024-.709.644-1.703.966-2.982.966zm2.296-.812h1.428c1.027 0 1.811-.247 2.352-.742.542-.495.812-1.293.812-2.394v-1.89c0-1.111-.27-1.909-.812-2.394-.541-.495-1.325-.742-2.352-.742h-1.428zm10.97 1.008c-.7 0-1.311-.145-1.834-.434-.513-.299-.915-.714-1.204-1.246s-.434-1.143-.434-1.834v-.168c0-.7.145-1.311.434-1.834.289-.532.686-.943 1.19-1.232.513-.299 1.097-.448 1.75-.448.635 0 1.195.135 1.68.406.495.261.882.644 1.162 1.148.28.495.42 1.087.42 1.778v.448h-5.796c.028.849.285 1.507.77 1.974.495.457 1.115.686 1.862.686.635 0 1.125-.145 1.47-.434.355-.289.625-.644.812-1.064l.756.336c-.14.308-.336.611-.588.91-.243.289-.56.532-.952.728-.392.187-.891.28-1.498.28zm-2.618-4.144h4.928c-.037-.737-.275-1.302-.714-1.694-.439-.401-1.003-.602-1.694-.602-.681 0-1.246.201-1.694.602-.448.392-.723.957-.826 1.694zm11.257 4.144c-.662 0-1.255-.14-1.778-.42-.513-.289-.919-.7-1.218-1.232-.298-.532-.448-1.157-.448-1.876v-.14c0-.728.15-1.353.448-1.876.299-.532.705-.938 1.218-1.218.523-.289 1.116-.434 1.778-.434.654 0 1.204.126 1.652.378.458.243.812.565 1.064.966.262.392.425.807.49 1.246l-.826.168c-.046-.364-.163-.695-.35-.994-.186-.308-.448-.551-.784-.728-.336-.187-.751-.28-1.246-.28-.494 0-.938.117-1.33.35-.392.224-.704.546-.938.966-.224.411-.336.901-.336 1.47v.112c0 .569.112 1.064.336 1.484.234.411.546.733.938.966.392.224.836.336 1.33.336.747 0 1.316-.191 1.708-.574.392-.392.635-.868.728-1.428l.826.168c-.084.439-.261.859-.532 1.26-.261.392-.62.714-1.078.966-.448.243-.998.364-1.652.364zm8.764 0c-.7 0-1.312-.145-1.834-.434-.514-.299-.915-.714-1.204-1.246-.29-.532-.434-1.143-.434-1.834v-.168c0-.7.144-1.311.434-1.834.289-.532.686-.943 1.19-1.232.513-.299 1.096-.448 1.75-.448.634 0 1.194.135 1.68.406.494.261.882.644 1.162 1.148.28.495.42 1.087.42 1.778v.448h-5.796c.028.849.284 1.507.77 1.974.494.457 1.115.686 1.862.686.634 0 1.124-.145 1.47-.434.354-.289.625-.644.812-1.064l.756.336c-.14.308-.336.611-.588.91-.243.289-.56.532-.952.728-.392.187-.892.28-1.498.28zm-2.618-4.144h4.928c-.038-.737-.276-1.302-.714-1.694-.439-.401-1.004-.602-1.694-.602-.682 0-1.246.201-1.694.602-.448.392-.724.957-.826 1.694zm8.149 3.948v-6.804h.812v1.26h.168c.168-.364.443-.686.826-.966.383-.289.938-.434 1.666-.434.495 0 .947.103 1.358.308s.737.518.98.938c.252.411.378.929.378 1.554v4.144h-.84v-4.088c0-.747-.187-1.283-.56-1.61s-.873-.49-1.498-.49c-.7 0-1.283.233-1.75.7-.467.457-.7 1.153-.7 2.086v3.402zm11.145 0c-.364 0-.64-.093-.826-.28-.178-.187-.266-.448-.266-.784v-4.984h-2.184v-.756h2.184v-2.548h.84v2.548h2.38v.756h-2.38v4.872c0 .28.14.42.42.42h1.596v.756zm4.303 0v-6.804h.812v.854h.168c.13-.308.322-.532.574-.672.261-.14.62-.21 1.078-.21h.798v.784h-.896c-.514 0-.924.145-1.232.434s-.462.742-.462 1.358v4.256zm7.294.196c-.476 0-.91-.079-1.302-.238-.383-.168-.686-.411-.91-.728s-.336-.7-.336-1.148c0-.457.112-.835.336-1.134s.527-.523.91-.672c.382-.149.807-.224 1.274-.224h2.492v-.546c0-.551-.159-.98-.476-1.288-.318-.308-.78-.462-1.386-.462-.598 0-1.074.149-1.428.448-.346.289-.579.681-.7 1.176l-.812-.238c.112-.401.289-.761.532-1.078.242-.327.564-.583.966-.77.401-.196.882-.294 1.442-.294.858 0 1.521.224 1.988.672.476.448.714 1.073.714 1.876v3.304c0 .28.13.42.392.42h.658v.728h-.896c-.29 0-.518-.084-.686-.252-.168-.177-.252-.415-.252-.714v-.098h-.14c-.122.205-.28.406-.476.602-.187.196-.434.355-.742.476s-.696.182-1.162.182zm.056-.756c.718 0 1.297-.215 1.736-.644.448-.439.672-1.055.672-1.848v-.168h-2.478c-.486 0-.892.107-1.218.322-.318.205-.476.527-.476.966s.163.779.49 1.022c.336.233.76.35 1.274.35zm6.197.56v-9.8h.84v9.8zm3.608 0v-6.804h.84v6.804zm.42-7.98c-.205 0-.378-.07-.518-.21s-.21-.313-.21-.518c0-.215.07-.387.21-.518.14-.14.313-.21.518-.21.215 0 .388.07.518.21.14.131.21.303.21.518 0 .205-.07.378-.21.518-.13.14-.303.21-.518.21zm2.853 7.98v-1.148l4.578-4.76v-.14h-4.438v-.756h5.292v1.148l-4.592 4.76v.14h4.704v.756zm10.745.196c-.7 0-1.312-.145-1.834-.434-.514-.299-.915-.714-1.204-1.246-.29-.532-.434-1.143-.434-1.834v-.168c0-.7.144-1.311.434-1.834.289-.532.686-.943 1.19-1.232.513-.299 1.096-.448 1.75-.448.634 0 1.194.135 1.68.406.494.261.882.644 1.162 1.148.28.495.42 1.087.42 1.778v.448h-5.796c.028.849.284 1.507.77 1.974.494.457 1.115.686 1.862.686.634 0 1.124-.145 1.47-.434.354-.289.625-.644.812-1.064l.756.336c-.14.308-.336.611-.588.91-.243.289-.56.532-.952.728-.392.187-.892.28-1.498.28zm-2.618-4.144h4.928c-.038-.737-.276-1.302-.714-1.694-.439-.401-1.004-.602-1.694-.602-.682 0-1.246.201-1.694.602-.448.392-.724.957-.826 1.694zm11.089 4.144c-.607 0-1.157-.14-1.652-.42-.495-.289-.891-.695-1.19-1.218-.289-.532-.434-1.157-.434-1.876v-.168c0-.719.145-1.339.434-1.862.289-.532.681-.938 1.176-1.218.504-.289 1.059-.434 1.666-.434.504 0 .929.07 1.274.21.345.131.625.303.84.518.224.205.397.425.518.658h.168v-4.186h.84v9.8h-.812v-1.246h-.168c-.196.373-.504.709-.924 1.008-.411.289-.989.434-1.736.434zm.196-.756c.775 0 1.4-.247 1.876-.742.485-.495.728-1.176.728-2.044v-.112c0-.868-.243-1.549-.728-2.044-.476-.495-1.101-.742-1.876-.742-.765 0-1.391.247-1.876.742s-.728 1.176-.728 2.044v.112c0 .868.243 1.549.728 2.044s1.111.742 1.876.742zm10.124 3.36v-9.604h.812v1.246h.168c.196-.373.499-.705.91-.994.42-.299 1.003-.448 1.75-.448.607 0 1.157.145 1.652.434.495.28.887.681 1.176 1.204.299.523.448 1.148.448 1.876v.168c0 .719-.145 1.344-.434 1.876-.289.523-.681.929-1.176 1.218-.495.28-1.05.42-1.666.42-.495 0-.919-.065-1.274-.196-.345-.14-.63-.317-.854-.532-.215-.215-.383-.434-.504-.658h-.168v3.99zm3.444-3.36c.775 0 1.4-.247 1.876-.742.485-.495.728-1.176.728-2.044v-.112c0-.868-.243-1.549-.728-2.044-.476-.495-1.101-.742-1.876-.742-.765 0-1.391.247-1.876.742s-.728 1.176-.728 2.044v.112c0 .868.243 1.549.728 2.044s1.111.742 1.876.742zm5.907.56v-6.804h.812v.854h.168c.13-.308.322-.532.574-.672.261-.14.62-.21 1.078-.21h.798v.784h-.896c-.514 0-.924.145-1.232.434s-.462.742-.462 1.358v4.256zm8.33.196c-.691 0-1.298-.145-1.82-.434-.514-.299-.915-.709-1.204-1.232-.28-.532-.42-1.148-.42-1.848v-.168c0-.7.14-1.311.42-1.834.289-.532.69-.943 1.204-1.232.522-.299 1.129-.448 1.82-.448.69 0 1.292.149 1.806.448.522.289.924.7 1.204 1.232.289.523.434 1.134.434 1.834v.168c0 .7-.145 1.316-.434 1.848-.28.523-.682.933-1.204 1.232-.514.289-1.116.434-1.806.434zm0-.756c.802 0 1.437-.252 1.904-.756.466-.513.7-1.19.7-2.03v-.112c0-.84-.234-1.512-.7-2.016-.467-.513-1.102-.77-1.904-.77-.794 0-1.428.257-1.904.77-.467.504-.7 1.176-.7 2.016v.112c0 .84.233 1.517.7 2.03.476.504 1.11.756 1.904.756zm7.393.56-2.548-6.804h.896l2.24 6.16h.168l2.24-6.16h.896l-2.548 6.804zm8.766.196c-.7 0-1.311-.145-1.834-.434-.513-.299-.915-.714-1.204-1.246s-.434-1.143-.434-1.834v-.168c0-.7.145-1.311.434-1.834.289-.532.686-.943 1.19-1.232.513-.299 1.097-.448 1.75-.448.635 0 1.195.135 1.68.406.495.261.882.644 1.162 1.148.28.495.42 1.087.42 1.778v.448h-5.796c.028.849.285 1.507.77 1.974.495.457 1.115.686 1.862.686.635 0 1.125-.145 1.47-.434.355-.289.625-.644.812-1.064l.756.336c-.14.308-.336.611-.588.91-.243.289-.56.532-.952.728-.392.187-.891.28-1.498.28zm-2.618-4.144h4.928c-.037-.737-.275-1.302-.714-1.694-.439-.401-1.003-.602-1.694-.602-.681 0-1.246.201-1.694.602-.448.392-.723.957-.826 1.694zm8.149 3.948v-6.804h.812v.854h.168c.131-.308.322-.532.574-.672.261-.14.621-.21 1.078-.21h.798v.784h-.896c-.513 0-.924.145-1.232.434s-.462.742-.462 1.358v4.256zm9.377 0v-6.804h.812v1.26h.168c.168-.364.444-.686.826-.966.383-.289.938-.434 1.666-.434.495 0 .948.103 1.358.308.411.205.738.518.98.938.252.411.378.929.378 1.554v4.144h-.84v-4.088c0-.747-.186-1.283-.56-1.61-.373-.327-.872-.49-1.498-.49-.7 0-1.283.233-1.75.7-.466.457-.7 1.153-.7 2.086v3.402zm12.009.196c-.7 0-1.312-.145-1.834-.434-.514-.299-.915-.714-1.204-1.246-.29-.532-.434-1.143-.434-1.834v-.168c0-.7.144-1.311.434-1.834.289-.532.686-.943 1.19-1.232.513-.299 1.096-.448 1.75-.448.634 0 1.194.135 1.68.406.494.261.882.644 1.162 1.148.28.495.42 1.087.42 1.778v.448h-5.796c.028.849.284 1.507.77 1.974.494.457 1.115.686 1.862.686.634 0 1.124-.145 1.47-.434.354-.289.625-.644.812-1.064l.756.336c-.14.308-.336.611-.588.91-.243.289-.56.532-.952.728-.392.187-.892.28-1.498.28zm-2.618-4.144h4.928c-.038-.737-.276-1.302-.714-1.694-.439-.401-1.004-.602-1.694-.602-.682 0-1.246.201-1.694.602-.448.392-.724.957-.826 1.694zm10.312 3.948c-.364 0-.639-.093-.826-.28-.177-.187-.266-.448-.266-.784v-4.984h-2.184v-.756h2.184v-2.548h.84v2.548h2.38v.756h-2.38v4.872c0 .28.14.42.42.42h1.596v.756zm5.423 0-1.54-6.804h.868l1.344 6.244h.168l1.75-6.244h1.428l1.75 6.244h.168l1.344-6.244h.868l-1.54 6.804h-1.47l-1.75-6.244h-.168l-1.75 6.244zm13.417.196c-.691 0-1.297-.145-1.82-.434-.513-.299-.915-.709-1.204-1.232-.28-.532-.42-1.148-.42-1.848v-.168c0-.7.14-1.311.42-1.834.289-.532.691-.943 1.204-1.232.523-.299 1.129-.448 1.82-.448s1.293.149 1.806.448c.523.289.924.7 1.204 1.232.289.523.434 1.134.434 1.834v.168c0 .7-.145 1.316-.434 1.848-.28.523-.681.933-1.204 1.232-.513.289-1.115.434-1.806.434zm0-.756c.803 0 1.437-.252 1.904-.756.467-.513.7-1.19.7-2.03v-.112c0-.84-.233-1.512-.7-2.016-.467-.513-1.101-.77-1.904-.77-.793 0-1.428.257-1.904.77-.467.504-.7 1.176-.7 2.016v.112c0 .84.233 1.517.7 2.03.476.504 1.111.756 1.904.756zm5.873.56v-6.804h.812v.854h.168c.131-.308.322-.532.574-.672.262-.14.621-.21 1.078-.21h.798v.784h-.896c-.513 0-.924.145-1.232.434s-.462.742-.462 1.358v4.256zm5.468 0v-9.8h.84v5.908h.168l3.486-2.912h1.232l-4.032 3.318 4.144 3.486h-1.218l-3.612-3.066h-.168v3.066zm-198.564 17-1.54-6.804h.868l1.344 6.244h.168l1.75-6.244h1.428l1.75 6.244h.168l1.344-6.244h.868l-1.54 6.804h-1.47l-1.75-6.244h-.168l-1.75 6.244zm10.487 0v-6.804h.84v6.804zm.42-7.98c-.205 0-.378-.07-.518-.21s-.21-.313-.21-.518c0-.215.07-.387.21-.518.14-.14.313-.21.518-.21.215 0 .387.07.518.21.14.131.21.303.21.518 0 .205-.07.378-.21.518-.131.14-.303.21-.518.21zm5.653 7.98c-.364 0-.64-.093-.826-.28-.178-.187-.266-.448-.266-.784v-4.984h-2.184v-.756h2.184v-2.548h.84v2.548h2.38v.756h-2.38v4.872c0 .28.14.42.42.42h1.596v.756zm4.302 0v-9.8h.84v4.186h.168c.112-.224.266-.434.462-.63.206-.205.467-.369.784-.49.327-.131.733-.196 1.218-.196.495 0 .948.103 1.359.308.41.205.737.513.979.924.253.411.379.929.379 1.554v4.144h-.84v-4.088c0-.747-.187-1.279-.561-1.596-.373-.327-.872-.49-1.498-.49-.7 0-1.283.229-1.75.686-.466.457-.7 1.153-.7 2.086v3.402zm14.868.196c-.476 0-.91-.079-1.302-.238-.383-.168-.686-.411-.91-.728s-.336-.7-.336-1.148c0-.457.112-.835.336-1.134s.527-.523.91-.672.807-.224 1.274-.224h2.492v-.546c0-.551-.159-.98-.476-1.288s-.779-.462-1.386-.462c-.597 0-1.073.149-1.428.448-.345.289-.579.681-.7 1.176l-.812-.238c.112-.401.289-.761.532-1.078.243-.327.565-.583.966-.77.401-.196.882-.294 1.442-.294.859 0 1.521.224 1.988.672.476.448.714 1.073.714 1.876v3.304c0 .28.131.42.392.42h.658v.728h-.896c-.289 0-.518-.084-.686-.252-.168-.177-.252-.415-.252-.714v-.098h-.14c-.121.205-.28.406-.476.602-.187.196-.434.355-.742.476s-.695.182-1.162.182zm.056-.756c.719 0 1.297-.215 1.736-.644.448-.439.672-1.055.672-1.848v-.168h-2.478c-.485 0-.891.107-1.218.322-.317.205-.476.527-.476.966s.163.779.49 1.022c.336.233.761.35 1.274.35zm6.197.56v-9.8h.84v9.8zm3.609 0v-9.8h.84v9.8zm9.982 0c-.364 0-.64-.093-.826-.28-.178-.187-.266-.448-.266-.784v-4.984h-2.184v-.756h2.184v-2.548h.84v2.548h2.38v.756h-2.38v4.872c0 .28.14.42.42.42h1.596v.756zm4.303 0v-9.8h.84v4.186h.168c.112-.224.266-.434.462-.63.205-.205.466-.369.784-.49.326-.131.732-.196 1.218-.196.494 0 .947.103 1.358.308.41.205.737.513.98.924.252.411.378.929.378 1.554v4.144h-.84v-4.088c0-.747-.187-1.279-.56-1.596-.374-.327-.873-.49-1.498-.49-.7 0-1.284.229-1.75.686-.467.457-.7 1.153-.7 2.086v3.402zm12.008.196c-.7 0-1.312-.145-1.834-.434-.514-.299-.915-.714-1.204-1.246-.29-.532-.434-1.143-.434-1.834v-.168c0-.7.144-1.311.434-1.834.289-.532.686-.943 1.19-1.232.513-.299 1.096-.448 1.75-.448.634 0 1.194.135 1.68.406.494.261.882.644 1.162 1.148.28.495.42 1.087.42 1.778v.448h-5.796c.028.849.284 1.507.77 1.974.494.457 1.115.686 1.862.686.634 0 1.124-.145 1.47-.434.354-.289.625-.644.812-1.064l.756.336c-.14.308-.336.611-.588.91-.243.289-.56.532-.952.728-.392.187-.892.28-1.498.28zm-2.618-4.144h4.928c-.038-.737-.276-1.302-.714-1.694-.439-.401-1.004-.602-1.694-.602-.682 0-1.246.201-1.694.602-.448.392-.724.957-.826 1.694zm12.058 3.948v-6.804h.812v1.26h.168c.168-.364.444-.686.826-.966.383-.289.938-.434 1.666-.434.495 0 .948.103 1.358.308.411.205.738.518.98.938.252.411.378.929.378 1.554v4.144h-.84v-4.088c0-.747-.186-1.283-.56-1.61-.373-.327-.872-.49-1.498-.49-.7 0-1.283.233-1.75.7-.466.457-.7 1.153-.7 2.086v3.402zm11.981.196c-.691 0-1.298-.145-1.82-.434-.514-.299-.915-.709-1.204-1.232-.28-.532-.42-1.148-.42-1.848v-.168c0-.7.14-1.311.42-1.834.289-.532.69-.943 1.204-1.232.522-.299 1.129-.448 1.82-.448.69 0 1.292.149 1.806.448.522.289.924.7 1.204 1.232.289.523.434 1.134.434 1.834v.168c0 .7-.145 1.316-.434 1.848-.28.523-.682.933-1.204 1.232-.514.289-1.116.434-1.806.434zm0-.756c.802 0 1.437-.252 1.904-.756.466-.513.7-1.19.7-2.03v-.112c0-.84-.234-1.512-.7-2.016-.467-.513-1.102-.77-1.904-.77-.794 0-1.428.257-1.904.77-.467.504-.7 1.176-.7 2.016v.112c0 .84.233 1.517.7 2.03.476.504 1.11.756 1.904.756zm8.813.756c-.606 0-1.157-.14-1.652-.42-.494-.289-.891-.695-1.19-1.218-.289-.532-.434-1.157-.434-1.876v-.168c0-.719.145-1.339.434-1.862.29-.532.682-.938 1.176-1.218.504-.289 1.06-.434 1.666-.434.504 0 .929.07 1.274.21.346.131.626.303.84.518.224.205.397.425.518.658h.168v-4.186h.84v9.8h-.812v-1.246h-.168c-.196.373-.504.709-.924 1.008-.41.289-.989.434-1.736.434zm.196-.756c.775 0 1.4-.247 1.876-.742.486-.495.728-1.176.728-2.044v-.112c0-.868-.242-1.549-.728-2.044-.476-.495-1.101-.742-1.876-.742-.765 0-1.39.247-1.876.742-.485.495-.728 1.176-.728 2.044v.112c0 .868.243 1.549.728 2.044.486.495 1.111.742 1.876.742zm9.351.756c-.7 0-1.311-.145-1.834-.434-.513-.299-.915-.714-1.204-1.246s-.434-1.143-.434-1.834v-.168c0-.7.145-1.311.434-1.834.289-.532.686-.943 1.19-1.232.513-.299 1.097-.448 1.75-.448.635 0 1.195.135 1.68.406.495.261.882.644 1.162 1.148.28.495.42 1.087.42 1.778v.448h-5.796c.028.849.285 1.507.77 1.974.495.457 1.115.686 1.862.686.635 0 1.125-.145 1.47-.434.355-.289.625-.644.812-1.064l.756.336c-.14.308-.336.611-.588.91-.243.289-.56.532-.952.728-.392.187-.891.28-1.498.28zm-2.618-4.144h4.928c-.037-.737-.275-1.302-.714-1.694-.439-.401-1.003-.602-1.694-.602-.681 0-1.246.201-1.694.602-.448.392-.723.957-.826 1.694zm15.167 4.144c-.663 0-1.256-.14-1.778-.42-.514-.289-.92-.7-1.218-1.232-.299-.532-.448-1.157-.448-1.876v-.14c0-.728.149-1.353.448-1.876.298-.532.704-.938 1.218-1.218.522-.289 1.115-.434 1.778-.434.653 0 1.204.126 1.652.378.457.243.812.565 1.064.966.261.392.424.807.49 1.246l-.826.168c-.047-.364-.164-.695-.35-.994-.187-.308-.448-.551-.784-.728-.336-.187-.752-.28-1.246-.28-.495 0-.938.117-1.33.35-.392.224-.705.546-.938.966-.224.411-.336.901-.336 1.47v.112c0 .569.112 1.064.336 1.484.233.411.546.733.938.966.392.224.835.336 1.33.336.746 0 1.316-.191 1.708-.574.392-.392.634-.868.728-1.428l.826.168c-.084.439-.262.859-.532 1.26-.262.392-.621.714-1.078.966-.448.243-.999.364-1.652.364zm5.627-.196v-9.8h.84v9.8zm3.609 0v-6.804h.84v6.804zm.42-7.98c-.206 0-.378-.07-.518-.21s-.21-.313-.21-.518c0-.215.07-.387.21-.518.14-.14.312-.21.518-.21.214 0 .387.07.518.21.14.131.21.303.21.518 0 .205-.07.378-.21.518-.131.14-.304.21-.518.21zm6.324 8.176c-.7 0-1.311-.145-1.834-.434-.513-.299-.914-.714-1.204-1.246-.289-.532-.434-1.143-.434-1.834v-.168c0-.7.145-1.311.434-1.834.29-.532.686-.943 1.19-1.232.514-.299 1.097-.448 1.75-.448.635 0 1.195.135 1.68.406.495.261.882.644 1.162 1.148.28.495.42 1.087.42 1.778v.448h-5.796c.028.849.285 1.507.77 1.974.495.457 1.116.686 1.862.686.635 0 1.125-.145 1.47-.434.355-.289.626-.644.812-1.064l.756.336c-.14.308-.336.611-.588.91-.242.289-.56.532-.952.728-.392.187-.891.28-1.498.28zm-2.618-4.144h4.928c-.037-.737-.275-1.302-.714-1.694-.438-.401-1.003-.602-1.694-.602-.681 0-1.246.201-1.694.602-.448.392-.723.957-.826 1.694zm8.15 3.948v-6.804h.812v1.26h.168c.168-.364.443-.686.826-.966.382-.289.938-.434 1.666-.434.494 0 .947.103 1.358.308.41.205.737.518.98.938.252.411.378.929.378 1.554v4.144h-.84v-4.088c0-.747-.187-1.283-.56-1.61-.374-.327-.873-.49-1.498-.49-.7 0-1.284.233-1.75.7-.467.457-.7 1.153-.7 2.086v3.402zm11.144 0c-.364 0-.639-.093-.826-.28-.177-.187-.266-.448-.266-.784v-4.984h-2.184v-.756h2.184v-2.548h.84v2.548h2.38v.756h-2.38v4.872c0 .28.14.42.42.42h1.596v.756zm7.005.196c-.821 0-1.526-.196-2.114-.588-.578-.392-.933-1.041-1.064-1.946l.826-.154c.075.495.224.887.448 1.176.234.28.514.481.84.602.336.121.691.182 1.064.182.56 0 1.008-.112 1.344-.336.346-.233.518-.551.518-.952 0-.411-.163-.695-.49-.854-.317-.159-.742-.285-1.274-.378l-.644-.112c-.429-.075-.816-.187-1.162-.336-.345-.159-.62-.369-.826-.63-.196-.261-.294-.588-.294-.98 0-.588.229-1.05.686-1.386.467-.336 1.083-.504 1.848-.504.775 0 1.396.177 1.862.532.476.345.775.849.896 1.512l-.784.168c-.093-.541-.317-.924-.672-1.148-.345-.224-.779-.336-1.302-.336-.513 0-.924.098-1.232.294s-.462.485-.462.868c0 .373.14.649.42.826.28.168.663.294 1.148.378l.644.112c.467.075.887.187 1.26.336.374.14.668.341.882.602.224.261.336.607.336 1.036 0 .644-.242 1.143-.728 1.498-.485.345-1.143.518-1.974.518z" fill="#fff"/><path d="m138.45 43v-1.296c0-.7893.128-1.4347.384-1.936.267-.512.646-.928 1.136-1.248.491-.3307 1.088-.6027 1.792-.816l1.024-.32c.416-.1387.768-.304 1.056-.496s.512-.4267.672-.704c.16-.288.24-.624.24-1.008v-.064c0-.576-.197-1.0293-.592-1.36-.394-.3413-.922-.512-1.584-.512-.661 0-1.2.1813-1.616.544-.416.352-.624.8747-.624 1.568v.272h-1.856v-.24c0-.8107.182-1.4987.544-2.064.363-.5653.854-.9973 1.472-1.296.619-.2987 1.312-.448 2.08-.448s1.456.1493 2.064.448c.619.288 1.099.6933 1.44 1.216.352.5227.528 1.136.528 1.84v.16c0 .7147-.144 1.3173-.432 1.808s-.688.896-1.2 1.216c-.501.3093-1.072.5653-1.712.768l-.992.304c-.48.1493-.864.3093-1.152.48-.277.1707-.474.368-.592.592-.117.2133-.176.4853-.176.816v.112h6.16v1.664zm13.98.224c-1.312 0-2.363-.368-3.152-1.104-.79-.736-1.184-1.8453-1.184-3.328v-2.784c0-1.4507.394-2.5493 1.184-3.296.789-.7573 1.84-1.136 3.152-1.136 1.322 0 2.373.3787 3.152 1.136.789.7467 1.184 1.8453 1.184 3.296v2.784c0 1.4827-.395 2.592-1.184 3.328-.779.736-1.83 1.104-3.152 1.104zm0-1.664c.842 0 1.461-.2347 1.856-.704.405-.4693.608-1.136.608-2v-2.928c0-.8747-.219-1.5413-.656-2-.438-.4587-1.04-.688-1.808-.688-.79 0-1.398.2347-1.824.704-.427.4693-.64 1.1307-.64 1.984v2.928c0 .8853.202 1.5573.608 2.016.416.4587 1.034.688 1.856.688zm5.895 1.44v-1.296c0-.7893.128-1.4347.384-1.936.267-.512.646-.928 1.136-1.248.491-.3307 1.088-.6027 1.792-.816l1.024-.32c.416-.1387.768-.304 1.056-.496s.512-.4267.672-.704c.16-.288.24-.624.24-1.008v-.064c0-.576-.197-1.0293-.592-1.36-.394-.3413-.922-.512-1.584-.512-.661 0-1.2.1813-1.616.544-.416.352-.624.8747-.624 1.568v.272h-1.856v-.24c0-.8107.182-1.4987.544-2.064.363-.5653.854-.9973 1.472-1.296.619-.2987 1.312-.448 2.08-.448s1.456.1493 2.064.448c.619.288 1.099.6933 1.44 1.216.352.5227.528 1.136.528 1.84v.16c0 .7147-.144 1.3173-.432 1.808s-.688.896-1.2 1.216c-.501.3093-1.072.5653-1.712.768l-.992.304c-.48.1493-.864.3093-1.152.48-.277.1707-.474.368-.592.592-.117.2133-.176.4853-.176.816v.112h6.16v1.664zm14.547 0v-2.272h-5.6v-2.16l4.08-6.768h3.376v7.264h1.872v1.664h-1.872v2.272zm-3.808-3.936h3.808v-6.08h-.272l-3.536 5.84zm17.371 4.16c-1.387 0-2.496-.384-3.328-1.152-.821-.7787-1.232-1.8933-1.232-3.344v-2.656c0-1.4507.411-2.56 1.232-3.328.832-.7787 1.941-1.168 3.328-1.168 1.397 0 2.507.3893 3.328 1.168.821.768 1.232 1.8773 1.232 3.328v2.656c0 1.4507-.411 2.5653-1.232 3.344-.821.768-1.931 1.152-3.328 1.152zm0-1.728c.832 0 1.477-.24 1.936-.72.469-.4907.704-1.152.704-1.984v-2.784c0-.832-.235-1.488-.704-1.968-.459-.4907-1.104-.736-1.936-.736-.821 0-1.467.2453-1.936.736-.459.48-.688 1.136-.688 1.968v2.784c0 .832.229 1.4933.688 1.984.469.48 1.115.72 1.936.72zm.72 4.304c-.491 0-.891-.1547-1.2-.464-.299-.2987-.448-.704-.448-1.216v-1.12h1.856v.832c0 .32.149.48.448.48h.976v1.488zm9.533-2.576c-.832 0-1.573-.1493-2.224-.448-.64-.2987-1.141-.7253-1.504-1.28-.362-.5653-.544-1.2373-.544-2.016v-.288h1.856v.24c0 .6507.219 1.168.656 1.552.448.384 1.035.576 1.76.576.726 0 1.291-.176 1.696-.528.406-.3627.608-.816.608-1.36v-.144c0-.384-.096-.6933-.288-.928-.181-.2347-.432-.4053-.752-.512-.309-.1173-.661-.176-1.056-.176h-2.144v-2.08l3.792-2.128v-.24h-5.856v-1.664h7.904v2.496l-3.584 2.016v.24h.656c.534 0 1.04.1067 1.52.32.491.2027.891.5173 1.2.944.31.4267.464.9813.464 1.664v.176c0 .7253-.176 1.3547-.528 1.888-.341.5333-.826.9493-1.456 1.248-.618.288-1.344.432-2.176.432z" fill="#fff"/><path d="m138.626 66v-1.148l4.578-4.76v-.14h-4.438v-.756h5.292v1.148l-4.592 4.76v.14h4.704v.756zm7.951 0v-9.8h.84v5.908h.168l3.486-2.912h1.232l-4.032 3.318 4.144 3.486h-1.218l-3.612-3.066h-.168v3.066zm7.655 0v-9.8h.896v9.8zm3.636 0v-6.804h.812v1.26h.168c.168-.364.444-.686.826-.966.383-.2893.938-.434 1.666-.434.495 0 .948.1027 1.358.308.411.2053.738.518.98.938.252.4107.378.9287.378 1.554v4.144h-.84v-4.088c0-.7467-.186-1.2833-.56-1.61-.373-.3267-.872-.49-1.498-.49-.7 0-1.283.2333-1.75.7-.466.4573-.7 1.1527-.7 2.086v3.402zm11.813.196c-.607 0-1.158-.14-1.652-.42-.495-.2893-.892-.6953-1.19-1.218-.29-.532-.434-1.1573-.434-1.876v-.168c0-.7187.144-1.3393.434-1.862.289-.532.681-.938 1.176-1.218.504-.2893 1.059-.434 1.666-.434.504 0 .928.07 1.274.21.345.1307.625.3033.84.518.224.2053.396.4247.518.658h.168v-4.186h.84v9.8h-.812v-1.246h-.168c-.196.3733-.504.7093-.924 1.008-.411.2893-.99.434-1.736.434zm.196-.756c.774 0 1.4-.2473 1.876-.742.485-.4947.728-1.176.728-2.044v-.112c0-.868-.243-1.5493-.728-2.044-.476-.4947-1.102-.742-1.876-.742-.766 0-1.391.2473-1.876.742-.486.4947-.728 1.176-.728 2.044v.112c0 .868.242 1.5493.728 2.044.485.4947 1.11.742 1.876.742zm9.35.756c-.7 0-1.311-.1447-1.834-.434-.513-.2987-.914-.714-1.204-1.246-.289-.532-.434-1.1433-.434-1.834v-.168c0-.7.145-1.3113.434-1.834.29-.532.686-.9427 1.19-1.232.514-.2987 1.097-.448 1.75-.448.635 0 1.195.1353 1.68.406.495.2613.882.644 1.162 1.148.28.4947.42 1.0873.42 1.778v.448h-5.796c.028.8493.285 1.5073.77 1.974.495.4573 1.116.686 1.862.686.635 0 1.125-.1447 1.47-.434.355-.2893.626-.644.812-1.064l.756.336c-.14.308-.336.6113-.588.91-.242.2893-.56.532-.952.728-.392.1867-.891.28-1.498.28zm-2.618-4.144h4.928c-.037-.7373-.275-1.302-.714-1.694-.438-.4013-1.003-.602-1.694-.602-.681 0-1.246.2007-1.694.602-.448.392-.723.9567-.826 1.694zm7.153 3.948 2.842-3.458-2.744-3.346h1.05l2.226 2.786h.168l2.226-2.786h1.05l-2.744 3.346 2.842 3.458h-1.064l-2.31-2.898h-.168l-2.31 2.898zm9.144 0v-6.804h.84v6.804zm.42-7.98c-.205 0-.378-.07-.518-.21s-.21-.3127-.21-.518c0-.2147.07-.3873.21-.518.14-.14.313-.21.518-.21.215 0 .388.07.518.21.14.1307.21.3033.21.518 0 .2053-.07.378-.21.518-.13.14-.303.21-.518.21zm3.189 7.98v-6.804h.812v1.26h.168c.168-.364.443-.686.826-.966.382-.2893.938-.434 1.666-.434.494 0 .947.1027 1.358.308.41.2053.737.518.98.938.252.4107.378.9287.378 1.554v4.144h-.84v-4.088c0-.7467-.187-1.2833-.56-1.61-.374-.3267-.873-.49-1.498-.49-.7 0-1.284.2333-1.75.7-.467.4573-.7 1.1527-.7 2.086v3.402zm8.536-3.374v-.168c0-.7187.145-1.3347.434-1.848.299-.5133.695-.91 1.19-1.19s1.045-.42 1.652-.42c.747 0 1.325.1493 1.736.448.42.2893.728.6207.924.994h.168v-1.246h.784v8.54c0 .336-.089.5973-.266.784s-.448.28-.812.28h-4.648v-.756h4.48c.289 0 .434-.14.434-.42v-2.926h-.168c-.121.224-.294.4433-.518.658-.215.2147-.495.392-.84.532-.345.1307-.77.196-1.274.196-.607 0-1.162-.14-1.666-.42-.495-.28-.887-.6767-1.176-1.19-.289-.5227-.434-1.1387-.434-1.848zm3.472 2.702c.775 0 1.4-.2427 1.876-.728.485-.4853.728-1.1527.728-2.002v-.112c0-.8587-.243-1.526-.728-2.002-.476-.4853-1.101-.728-1.876-.728-.765 0-1.391.2427-1.876.728-.485.476-.728 1.1433-.728 2.002v.112c0 .8493.243 1.5167.728 2.002s1.111.728 1.876.728zm9.523.672v-.812h1.4v-8.176h-1.4v-.812h3.724c1.279 0 2.273.3267 2.982.98.719.644 1.078 1.652 1.078 3.024v1.806c0 1.372-.359 2.38-1.078 3.024-.709.644-1.703.966-2.982.966zm2.296-.812h1.428c1.027 0 1.811-.2473 2.352-.742.542-.4947.812-1.2927.812-2.394v-1.89c0-1.1107-.27-1.9087-.812-2.394-.541-.4947-1.325-.742-2.352-.742h-1.428zm10.97 1.008c-.7 0-1.312-.1447-1.834-.434-.514-.2987-.915-.714-1.204-1.246-.29-.532-.434-1.1433-.434-1.834v-.168c0-.7.144-1.3113.434-1.834.289-.532.686-.9427 1.19-1.232.513-.2987 1.096-.448 1.75-.448.634 0 1.194.1353 1.68.406.494.2613.882.644 1.162 1.148.28.4947.42 1.0873.42 1.778v.448h-5.796c.028.8493.284 1.5073.77 1.974.494.4573 1.115.686 1.862.686.634 0 1.124-.1447 1.47-.434.354-.2893.625-.644.812-1.064l.756.336c-.14.308-.336.6113-.588.91-.243.2893-.56.532-.952.728-.392.1867-.892.28-1.498.28zm-2.618-4.144h4.928c-.038-.7373-.276-1.302-.714-1.694-.439-.4013-1.004-.602-1.694-.602-.682 0-1.246.2007-1.694.602-.448.392-.724.9567-.826 1.694zm8.149 3.948v-6.804h.812v.896h.168c.14-.252.364-.4853.672-.7.308-.224.747-.336 1.316-.336.551 0 .994.126 1.33.378.345.252.593.5553.742.91h.168c.159-.3547.406-.658.742-.91s.807-.378 1.414-.378c.467 0 .873.098 1.218.294.345.1867.616.4527.812.798.196.336.294.7327.294 1.19v4.662h-.84v-4.578c0-.4853-.149-.8727-.448-1.162-.289-.2987-.7-.448-1.232-.448-.541 0-.994.1773-1.358.532-.364.3453-.546.854-.546 1.526v4.13h-.84v-4.578c0-.4853-.149-.8727-.448-1.162-.289-.2987-.7-.448-1.232-.448-.541 0-.994.1773-1.358.532-.364.3453-.546.854-.546 1.526v4.13zm15.48.196c-.69 0-1.297-.1447-1.82-.434-.513-.2987-.914-.7093-1.204-1.232-.28-.532-.42-1.148-.42-1.848v-.168c0-.7.14-1.3113.42-1.834.29-.532.691-.9427 1.204-1.232.523-.2987 1.13-.448 1.82-.448.691 0 1.293.1493 1.806.448.523.2893.924.7 1.204 1.232.29.5227.434 1.134.434 1.834v.168c0 .7-.144 1.316-.434 1.848-.28.5227-.681.9333-1.204 1.232-.513.2893-1.115.434-1.806.434zm0-.756c.803 0 1.438-.252 1.904-.756.467-.5133.7-1.19.7-2.03v-.112c0-.84-.233-1.512-.7-2.016-.466-.5133-1.101-.77-1.904-.77-.793 0-1.428.2567-1.904.77-.466.504-.7 1.176-.7 2.016v.112c0 .84.234 1.5167.7 2.03.476.504 1.111.756 1.904.756zm11.211.56v-6.048h-2.24v-.756h2.24v-1.932c0-.336.089-.5973.266-.784.187-.1867.462-.28.826-.28h1.68v.756h-1.512c-.28 0-.42.14-.42.42v1.82h2.296v.756h-2.296v6.048zm7.818.196c-.691 0-1.297-.1447-1.82-.434-.513-.2987-.915-.7093-1.204-1.232-.28-.532-.42-1.148-.42-1.848v-.168c0-.7.14-1.3113.42-1.834.289-.532.691-.9427 1.204-1.232.523-.2987 1.129-.448 1.82-.448s1.293.1493 1.806.448c.523.2893.924.7 1.204 1.232.289.5227.434 1.134.434 1.834v.168c0 .7-.145 1.316-.434 1.848-.28.5227-.681.9333-1.204 1.232-.513.2893-1.115.434-1.806.434zm0-.756c.803 0 1.437-.252 1.904-.756.467-.5133.7-1.19.7-2.03v-.112c0-.84-.233-1.512-.7-2.016-.467-.5133-1.101-.77-1.904-.77-.793 0-1.428.2567-1.904.77-.467.504-.7 1.176-.7 2.016v.112c0 .84.233 1.5167.7 2.03.476.504 1.111.756 1.904.756zm5.874.56v-6.804h.812v.854h.168c.13-.308.322-.532.574-.672.261-.14.62-.21 1.078-.21h.798v.784h-.896c-.514 0-.924.1447-1.232.434s-.462.742-.462 1.358v4.256zm-134.848 17.196c-.7 0-1.316-.1213-1.848-.364-.522-.252-.933-.63-1.232-1.134-.298-.504-.448-1.1387-.448-1.904v-6.594h.896v6.594c0 .8773.229 1.5307.686 1.96.467.42 1.116.63 1.946.63.831 0 1.475-.21 1.932-.63.467-.4293.7-1.0827.7-1.96v-6.594h.896v6.594c0 .7653-.149 1.4-.448 1.904-.289.504-.7.882-1.232 1.134-.532.2427-1.148.364-1.848.364zm6.181-.196v-6.804h.812v1.26h.168c.168-.364.444-.686.826-.966.383-.2893.938-.434 1.666-.434.495 0 .948.1027 1.358.308.411.2053.738.518.98.938.252.4107.378.9287.378 1.554v4.144h-.84v-4.088c0-.7467-.186-1.2833-.56-1.61-.373-.3267-.872-.49-1.498-.49-.7 0-1.283.2333-1.75.7-.466.4573-.7 1.1527-.7 2.086v3.402zm8.873 0v-6.804h.84v6.804zm.42-7.98c-.206 0-.378-.07-.518-.21s-.21-.3127-.21-.518c0-.2147.07-.3873.21-.518.14-.14.312-.21.518-.21.214 0 .387.07.518.21.14.1307.21.3033.21.518 0 .2053-.07.378-.21.518-.131.14-.304.21-.518.21zm5.89 8.176c-.821 0-1.526-.196-2.114-.588-.578-.392-.933-1.0407-1.064-1.946l.826-.154c.075.4947.224.8867.448 1.176.234.28.514.4807.84.602.336.1213.691.182 1.064.182.56 0 1.008-.112 1.344-.336.346-.2333.518-.5507.518-.952 0-.4107-.163-.6953-.49-.854-.317-.1587-.742-.2847-1.274-.378l-.644-.112c-.429-.0747-.816-.1867-1.162-.336-.345-.1587-.62-.3687-.826-.63-.196-.2613-.294-.588-.294-.98 0-.588.229-1.05.686-1.386.467-.336 1.083-.504 1.848-.504.775 0 1.396.1773 1.862.532.476.3453.775.8493.896 1.512l-.784.168c-.093-.5413-.317-.924-.672-1.148-.345-.224-.779-.336-1.302-.336-.513 0-.924.098-1.232.294s-.462.4853-.462.868c0 .3733.14.6487.42.826.28.168.663.294 1.148.378l.644.112c.467.0747.887.1867 1.26.336.374.14.668.3407.882.602.224.2613.336.6067.336 1.036 0 .644-.242 1.1433-.728 1.498-.485.3453-1.143.518-1.974.518zm5.951-.196-1.54-6.804h.868l1.344 6.244h.168l1.75-6.244h1.428l1.75 6.244h.168l1.344-6.244h.868l-1.54 6.804h-1.47l-1.75-6.244h-.168l-1.75 6.244zm12.408.196c-.476 0-.91-.0793-1.302-.238-.382-.168-.686-.4107-.91-.728s-.336-.7-.336-1.148c0-.4573.112-.8353.336-1.134s.528-.5227.91-.672c.383-.1493.808-.224 1.274-.224h2.492v-.546c0-.5507-.158-.98-.476-1.288-.317-.308-.779-.462-1.386-.462-.597 0-1.073.1493-1.428.448-.345.2893-.578.6813-.7 1.176l-.812-.238c.112-.4013.29-.7607.532-1.078.243-.3267.565-.5833.966-.77.402-.196.882-.294 1.442-.294.859 0 1.522.224 1.988.672.476.448.714 1.0733.714 1.876v3.304c0 .28.131.42.392.42h.658v.728h-.896c-.289 0-.518-.084-.686-.252-.168-.1773-.252-.4153-.252-.714v-.098h-.14c-.121.2053-.28.406-.476.602-.186.196-.434.3547-.742.476s-.695.182-1.162.182zm.056-.756c.719 0 1.298-.2147 1.736-.644.448-.4387.672-1.0547.672-1.848v-.168h-2.478c-.485 0-.891.1073-1.218.322-.317.2053-.476.5273-.476.966s.164.7793.49 1.022c.336.2333.761.35 1.274.35zm6.197 3.36v-9.604h.812v1.246h.168c.196-.3733.5-.7047.91-.994.42-.2987 1.004-.448 1.75-.448.607 0 1.158.1447 1.652.434.495.28.887.6813 1.176 1.204.299.5227.448 1.148.448 1.876v.168c0 .7187-.144 1.344-.434 1.876-.289.5227-.681.9287-1.176 1.218-.494.28-1.05.42-1.666.42-.494 0-.919-.0653-1.274-.196-.345-.14-.63-.3173-.854-.532-.214-.2147-.382-.434-.504-.658h-.168v3.99zm3.444-3.36c.775 0 1.4-.2473 1.876-.742.486-.4947.728-1.176.728-2.044v-.112c0-.868-.242-1.5493-.728-2.044-.476-.4947-1.101-.742-1.876-.742-.765 0-1.39.2473-1.876.742-.485.4947-.728 1.176-.728 2.044v.112c0 .868.243 1.5493.728 2.044.486.4947 1.111.742 1.876.742zm11.935.56-3.15-9.8h.938l2.926 9.282h.168l2.926-9.282h.938l-3.15 9.8zm6.252 0v-.966c0-.7.126-1.2507.378-1.652.252-.4107.602-.7373 1.05-.98.457-.2427.994-.4573 1.61-.644l.7-.224c.457-.14.858-.308 1.204-.504.354-.2053.63-.4667.826-.784s.294-.7187.294-1.204v-.056c0-.6813-.238-1.218-.714-1.61-.467-.392-1.064-.588-1.792-.588-.775 0-1.41.21-1.904.63-.495.4107-.742 1.0407-.742 1.89v.182h-.84v-.182c0-.7093.149-1.3067.448-1.792.298-.4947.709-.868 1.232-1.12.532-.2613 1.134-.392 1.806-.392s1.26.126 1.764.378c.513.2427.91.588 1.19 1.036.28.4387.42.952.42 1.54v.126c0 .6347-.126 1.1573-.378 1.568-.243.4013-.588.7327-1.036.994-.448.252-.976.476-1.582.672l-.7.21c-.504.1587-.934.3267-1.288.504-.346.168-.612.3967-.798.686-.187.28-.28.672-.28 1.176v.322h5.978v.784zm16.227.196c-.69 0-1.297-.1447-1.82-.434-.513-.2987-.914-.7093-1.204-1.232-.28-.532-.42-1.148-.42-1.848v-.168c0-.7.14-1.3113.42-1.834.29-.532.691-.9427 1.204-1.232.523-.2987 1.13-.448 1.82-.448.691 0 1.293.1493 1.806.448.523.2893.924.7 1.204 1.232.29.5227.434 1.134.434 1.834v.168c0 .7-.144 1.316-.434 1.848-.28.5227-.681.9333-1.204 1.232-.513.2893-1.115.434-1.806.434zm0-.756c.803 0 1.438-.252 1.904-.756.467-.5133.7-1.19.7-2.03v-.112c0-.84-.233-1.512-.7-2.016-.466-.5133-1.101-.77-1.904-.77-.793 0-1.428.2567-1.904.77-.466.504-.7 1.176-.7 2.016v.112c0 .84.234 1.5167.7 2.03.476.504 1.111.756 1.904.756zm5.874.56v-6.804h.812v1.26h.168c.168-.364.443-.686.826-.966.383-.2893.938-.434 1.666-.434.495 0 .947.1027 1.358.308s.737.518.98.938c.252.4107.378.9287.378 1.554v4.144h-.84v-4.088c0-.7467-.187-1.2833-.56-1.61s-.873-.49-1.498-.49c-.7 0-1.283.2333-1.75.7-.467.4573-.7 1.1527-.7 2.086v3.402zm12.754 0v-9.8h5.922v.812h-5.026v3.668h4.634v.812h-4.634v3.696h5.082v.812zm10.735 0c-.364 0-.639-.0933-.826-.28-.177-.1867-.266-.448-.266-.784v-4.984h-2.184v-.756h2.184v-2.548h.84v2.548h2.38v.756h-2.38v4.872c0 .28.14.42.42.42h1.596v.756zm4.303 0v-9.8h.84v4.186h.168c.112-.224.266-.434.462-.63.205-.2053.466-.3687.784-.49.326-.1307.732-.196 1.218-.196.494 0 .947.1027 1.358.308.41.2053.737.5133.98.924.252.4107.378.9287.378 1.554v4.144h-.84v-4.088c0-.7467-.187-1.2787-.56-1.596-.374-.3267-.873-.49-1.498-.49-.7 0-1.284.2287-1.75.686-.467.4573-.7 1.1527-.7 2.086v3.402zm12.008.196c-.7 0-1.311-.1447-1.834-.434-.513-.2987-.915-.714-1.204-1.246s-.434-1.1433-.434-1.834v-.168c0-.7.145-1.3113.434-1.834.289-.532.686-.9427 1.19-1.232.513-.2987 1.097-.448 1.75-.448.635 0 1.195.1353 1.68.406.495.2613.882.644 1.162 1.148.28.4947.42 1.0873.42 1.778v.448h-5.796c.028.8493.285 1.5073.77 1.974.495.4573 1.115.686 1.862.686.635 0 1.125-.1447 1.47-.434.355-.2893.625-.644.812-1.064l.756.336c-.14.308-.336.6113-.588.91-.243.2893-.56.532-.952.728-.392.1867-.891.28-1.498.28zm-2.618-4.144h4.928c-.037-.7373-.275-1.302-.714-1.694-.439-.4013-1.003-.602-1.694-.602-.681 0-1.246.2007-1.694.602-.448.392-.723.9567-.826 1.694zm8.149 3.948v-6.804h.812v.854h.168c.131-.308.322-.532.574-.672.261-.14.621-.21 1.078-.21h.798v.784h-.896c-.513 0-.924.1447-1.232.434s-.462.742-.462 1.358v4.256zm8.358.196c-.7 0-1.311-.1447-1.834-.434-.513-.2987-.915-.714-1.204-1.246s-.434-1.1433-.434-1.834v-.168c0-.7.145-1.3113.434-1.834.289-.532.686-.9427 1.19-1.232.513-.2987 1.097-.448 1.75-.448.635 0 1.195.1353 1.68.406.495.2613.882.644 1.162 1.148.28.4947.42 1.0873.42 1.778v.448h-5.796c.028.8493.285 1.5073.77 1.974.495.4573 1.115.686 1.862.686.635 0 1.125-.1447 1.47-.434.355-.2893.625-.644.812-1.064l.756.336c-.14.308-.336.6113-.588.91-.243.2893-.56.532-.952.728-.392.1867-.891.28-1.498.28zm-2.618-4.144h4.928c-.037-.7373-.275-1.302-.714-1.694-.439-.4013-1.003-.602-1.694-.602-.681 0-1.246.2007-1.694.602-.448.392-.723.9567-.826 1.694zm10.767 4.088c-.485 0-.938-.1027-1.358-.308-.41-.2053-.742-.5133-.994-.924-.242-.42-.364-.9427-.364-1.568v-4.144h.84v4.088c0 .7373.187 1.274.56 1.61.374.3267.873.49 1.498.49.7 0 1.284-.2287 1.75-.686.467-.4667.7-1.1667.7-2.1v-3.402h.84v6.804h-.812v-1.26h-.168c-.168.364-.443.6907-.826.98-.382.28-.938.42-1.666.42zm6.241-.14v-6.804h.812v.896h.168c.14-.252.364-.4853.672-.7.308-.224.746-.336 1.316-.336.55 0 .994.126 1.33.378.345.252.592.5553.742.91h.168c.158-.3547.406-.658.742-.91s.807-.378 1.414-.378c.466 0 .872.098 1.218.294.345.1867.616.4527.812.798.196.336.294.7327.294 1.19v4.662h-.84v-4.578c0-.4853-.15-.8727-.448-1.162-.29-.2987-.7-.448-1.232-.448-.542 0-.994.1773-1.358.532-.364.3453-.546.854-.546 1.526v4.13h-.84v-4.578c0-.4853-.15-.8727-.448-1.162-.29-.2987-.7-.448-1.232-.448-.542 0-.994.1773-1.358.532-.364.3453-.546.854-.546 1.526v4.13z" fill="#fff"/><path d="m880.23 259-261.5-129" stroke="#fff" stroke-dasharray="2.62 2.62"/><path d="m337.654 268.694 239.844-138.474" stroke="#fff" stroke-dasharray="2.62 2.62"/><path d="m0-.5h276.948" stroke="#fff" stroke-dasharray="2.62 2.62" transform="matrix(-.866025 -.5 -.5 .866025 316.492 269.127)"/><path d="m289.202 269.247 38.702-23.597 38.703 23.597v18.342l-38.703 21.6-38.702-21.6z" fill="#131313" stroke="#fff"/><path d="m327.904 290.047v19.471" stroke="#fff"/><path d="m361.558 277.531 2.133-1.298v.604l-2.133 1.298z" fill="#fff"/><g stroke="#fff"><circle cx="2.3341" cy="2.3341" fill="#131313" r="1.8341" transform="matrix(-.866025 .5 .00000002 1 343.908 288.713)"/><circle cx="2.3341" cy="2.3341" fill="#131313" r="1.8341" transform="matrix(-.866025 .5 .00000002 1 336.927 292.781)"/><path d="m289.696 268.792 38.208-23.526 38.208 23.526-38.208 20.958z" fill="#131313"/><circle cx="327.904" cy="220.858" fill="#131313" r="44.7744" transform="matrix(.65032885 .75965281 -.75965281 .65032885 282.433971 -171.865523)"/><path d="m372.564 216.472c-.528-11.793-21.008-20.454-45.744-19.346-24.735 1.108-44.358 11.566-43.83 23.359"/><path d="m298.086 254.693c15.015 9.08 37.453-.535 50.115-21.476 12.663-20.941 10.755-45.277-4.26-54.357"/><path d="m352.712 258.285c-10.174 5.963-28.573-6.523-41.094-27.888s-14.423-43.518-4.249-49.481"/><path d="m558.02 112.226 38.703-23.5972 38.702 23.5962v18.342l-38.702 21.6-38.702-21.6z" fill="#131313"/><path d="m596.723 133.025v19.471"/></g><path d="m630.377 120.51 2.133-1.298v.603l-2.133 1.298z" fill="#fff"/><circle cx="2.3341" cy="2.3341" fill="#131313" r="1.8341" stroke="#fff" transform="matrix(-.866025 .5 .00000002 1 612.726 131.691)"/><circle cx="2.3341" cy="2.3341" fill="#131313" r="1.8341" stroke="#fff" transform="matrix(-.866025 .5 .00000002 1 605.746 135.76)"/><path d="m558.515 111.771 38.208-23.5265 38.208 23.5265-38.208 20.957z" fill="#131313" stroke="#fff"/><circle cx="596.722" cy="63.836" fill="#131313" r="44.7744" stroke="#fff" transform="matrix(.65032885 .75965281 -.75965281 .65032885 257.149668 -430.979937)"/><path d="m641.383 59.4501c-.529-11.7924-21.009-20.4536-45.744-19.3454s-44.359 11.5663-43.831 23.3587" stroke="#fff"/><path d="m566.904 97.6732c15.016 9.0798 37.453-.5352 50.116-21.4757 12.662-20.9406 10.755-45.2769-4.261-54.3567" stroke="#fff"/><path d="m621.53 101.263c-10.174 5.963-28.572-6.5228-41.093-27.8877-12.521-21.3648-14.424-43.5181-4.249-49.4808" stroke="#fff"/><path d="m972.45 234v-1.296c0-.789.128-1.435.384-1.936.267-.512.646-.928 1.136-1.248.491-.331 1.088-.603 1.792-.816l1.024-.32c.416-.139.768-.304 1.056-.496s.512-.427.672-.704c.16-.288.24-.624.24-1.008v-.064c0-.576-.197-1.029-.592-1.36-.394-.341-.922-.512-1.584-.512-.661 0-1.2.181-1.616.544-.416.352-.624.875-.624 1.568v.272h-1.856v-.24c0-.811.182-1.499.544-2.064.363-.565.854-.997 1.472-1.296.619-.299 1.312-.448 2.08-.448s1.456.149 2.064.448c.619.288 1.099.693 1.44 1.216.352.523.528 1.136.528 1.84v.16c0 .715-.144 1.317-.432 1.808s-.688.896-1.2 1.216c-.501.309-1.072.565-1.712.768l-.992.304c-.48.149-.864.309-1.152.48-.277.171-.474.368-.592.592-.117.213-.176.485-.176.816v.112h6.16v1.664zm13.98.224c-1.312 0-2.363-.368-3.152-1.104-.79-.736-1.184-1.845-1.184-3.328v-2.784c0-1.451.394-2.549 1.184-3.296.789-.757 1.84-1.136 3.152-1.136 1.322 0 2.373.379 3.152 1.136.789.747 1.184 1.845 1.184 3.296v2.784c0 1.483-.395 2.592-1.184 3.328-.779.736-1.83 1.104-3.152 1.104zm0-1.664c.842 0 1.461-.235 1.856-.704.405-.469.608-1.136.608-2v-2.928c0-.875-.219-1.541-.656-2-.438-.459-1.04-.688-1.808-.688-.79 0-1.398.235-1.824.704-.427.469-.64 1.131-.64 1.984v2.928c0 .885.202 1.557.608 2.016.416.459 1.034.688 1.856.688zm5.895 1.44v-1.296c0-.789.128-1.435.384-1.936.267-.512.646-.928 1.136-1.248.491-.331 1.088-.603 1.792-.816l1.024-.32c.416-.139.768-.304 1.056-.496s.512-.427.672-.704c.16-.288.24-.624.24-1.008v-.064c0-.576-.197-1.029-.592-1.36-.394-.341-.922-.512-1.584-.512-.661 0-1.2.181-1.616.544-.416.352-.624.875-.624 1.568v.272h-1.856v-.24c0-.811.182-1.499.544-2.064.363-.565.854-.997 1.472-1.296.619-.299 1.312-.448 2.08-.448s1.456.149 2.064.448c.619.288 1.099.693 1.44 1.216.353.523.533 1.136.533 1.84v.16c0 .715-.15 1.317-.44 1.808-.285.491-.685.896-1.197 1.216-.501.309-1.072.565-1.712.768l-.992.304c-.48.149-.864.309-1.152.48-.277.171-.474.368-.592.592-.117.213-.176.485-.176.816v.112h6.161v1.664zm13.655.224c-.86 0-1.61-.155-2.24-.464-.61-.309-1.09-.747-1.44-1.312-.34-.565-.51-1.221-.51-1.968v-.16h1.89v.144c0 .608.19 1.109.58 1.504s.96.592 1.69.592c.74 0 1.31-.203 1.71-.608.41-.405.61-.939.61-1.6v-.144c0-.651-.2-1.168-.61-1.552-.39-.384-.89-.576-1.5-.576-.34 0-.62.048-.85.144-.21.096-.39.219-.53.368-.13.139-.25.283-.33.432h-2.31v-6.224h7.57v1.696h-5.71v3.008h.27c.12-.16.27-.309.45-.448.19-.149.44-.272.74-.368.31-.107.67-.16 1.1-.16.66 0 1.26.144 1.79.432.55.277.98.688 1.3 1.232s.48 1.211.48 2v.176c0 .779-.17 1.456-.5 2.032s-.8 1.024-1.42 1.344-1.36.48-2.23.48zm14.22 0c-1.39 0-2.5-.384-3.33-1.152-.82-.779-1.23-1.893-1.23-3.344v-2.656c0-1.451.41-2.56 1.23-3.328.83-.779 1.94-1.168 3.33-1.168 1.4 0 2.51.389 3.33 1.168.82.768 1.23 1.877 1.23 3.328v2.656c0 1.451-.41 2.565-1.23 3.344-.82.768-1.93 1.152-3.33 1.152zm0-1.728c.83 0 1.48-.24 1.94-.72.47-.491.7-1.152.7-1.984v-2.784c0-.832-.23-1.488-.7-1.968-.46-.491-1.11-.736-1.94-.736-.82 0-1.47.245-1.94.736-.45.48-.68 1.136-.68 1.968v2.784c0 .832.23 1.493.68 1.984.47.48 1.12.72 1.94.72zm.72 4.304c-.49 0-.89-.155-1.2-.464-.3-.299-.45-.704-.45-1.216v-1.12h1.86v.832c0 .32.15.48.45.48h.97v1.488zm10.7-2.8v-2.272h-5.6v-2.16l4.08-6.768h3.38v7.264h1.87v1.664h-1.87v2.272zm-3.81-3.936h3.81v-6.08h-.27l-3.54 5.84z" fill="#fff"/><path d="m972.402 263v-.812h1.4v-8.176h-1.4v-.812h4.858c.56 0 1.06.103 1.498.308.439.205.78.495 1.022.868.252.364.378.789.378 1.274v.112c0 .457-.088.835-.266 1.134-.177.299-.392.532-.644.7s-.499.289-.742.364v.168c.243.056.49.173.742.35.262.168.476.401.644.7.178.299.266.677.266 1.134v.14c0 .532-.13.989-.392 1.372-.252.383-.602.677-1.05.882-.438.196-.938.294-1.498.294zm2.296-.812h2.436c.7 0 1.228-.163 1.582-.49.364-.327.546-.765.546-1.316v-.112c0-.551-.182-.989-.546-1.316-.354-.327-.882-.49-1.582-.49h-2.436zm0-4.536h2.492c.644 0 1.148-.159 1.512-.476.374-.327.56-.751.56-1.274v-.14c0-.523-.186-.943-.56-1.26-.364-.327-.868-.49-1.512-.49h-2.492zm7.807 5.348v-6.804h.812v.854h.168c.13-.308.322-.532.574-.672.261-.14.62-.21 1.078-.21h.798v.784h-.896c-.514 0-.924.145-1.232.434s-.462.742-.462 1.358v4.256zm8.33.196c-.691 0-1.298-.145-1.82-.434-.514-.299-.915-.709-1.204-1.232-.28-.532-.42-1.148-.42-1.848v-.168c0-.7.14-1.311.42-1.834.289-.532.69-.943 1.204-1.232.522-.299 1.129-.448 1.82-.448.69 0 1.292.149 1.806.448.522.289.924.7 1.204 1.232.289.523.434 1.134.434 1.834v.168c0 .7-.145 1.316-.434 1.848-.28.523-.682.933-1.204 1.232-.514.289-1.116.434-1.806.434zm0-.756c.802 0 1.437-.252 1.904-.756.466-.513.7-1.19.7-2.03v-.112c0-.84-.234-1.512-.7-2.016-.467-.513-1.102-.77-1.904-.77-.794 0-1.428.257-1.904.77-.467.504-.7 1.176-.7 2.016v.112c0 .84.233 1.517.7 2.03.476.504 1.11.756 1.904.756zm6.815.56-1.54-6.804h.868l1.344 6.244h.168l1.75-6.244h1.43l1.75 6.244h.17l1.34-6.244h.87l-1.54 6.804h-1.47l-1.75-6.244h-.17l-1.75 6.244zm13.09.196c-.82 0-1.52-.196-2.11-.588-.58-.392-.93-1.041-1.06-1.946l.82-.154c.08.495.23.887.45 1.176.23.28.51.481.84.602.34.121.69.182 1.06.182.56 0 1.01-.112 1.35-.336.34-.233.52-.551.52-.952 0-.411-.17-.695-.49-.854s-.75-.285-1.28-.378l-.64-.112c-.43-.075-.82-.187-1.16-.336-.35-.159-.63-.369-.83-.63s-.29-.588-.29-.98c0-.588.22-1.05.68-1.386.47-.336 1.08-.504 1.85-.504s1.39.177 1.86.532c.48.345.78.849.9 1.512l-.79.168c-.09-.541-.31-.924-.67-1.148-.34-.224-.78-.336-1.3-.336-.51 0-.92.098-1.23.294s-.46.485-.46.868c0 .373.14.649.42.826.28.168.66.294 1.14.378l.65.112c.46.075.88.187 1.26.336.37.14.66.341.88.602s.34.607.34 1.036c0 .644-.25 1.143-.73 1.498-.49.345-1.15.518-1.98.518zm8.13 0c-.7 0-1.31-.145-1.83-.434-.51-.299-.91-.714-1.2-1.246s-.44-1.143-.44-1.834v-.168c0-.7.15-1.311.44-1.834.29-.532.68-.943 1.19-1.232.51-.299 1.09-.448 1.75-.448.63 0 1.19.135 1.68.406.49.261.88.644 1.16 1.148.28.495.42 1.087.42 1.778v.448h-5.8c.03.849.29 1.507.77 1.974.5.457 1.12.686 1.86.686.64 0 1.13-.145 1.47-.434.36-.289.63-.644.82-1.064l.75.336c-.14.308-.33.611-.59.91-.24.289-.56.532-.95.728-.39.187-.89.28-1.5.28zm-2.61-4.144h4.92c-.03-.737-.27-1.302-.71-1.694-.44-.401-1-.602-1.69-.602s-1.25.201-1.7.602c-.45.392-.72.957-.82 1.694zm8.15 3.948v-6.804h.81v.854h.17c.13-.308.32-.532.57-.672.26-.14.62-.21 1.08-.21h.8v.784h-.9c-.51 0-.92.145-1.23.434s-.46.742-.46 1.358v4.256zm9.04 0v-1.148l4.57-4.76v-.14h-4.43v-.756h5.29v1.148l-4.59 4.76v.14h4.7v.756zm7.95 0v-9.8h.84v5.908h.16l3.49-2.912h1.23l-4.03 3.318 4.14 3.486h-1.21l-3.62-3.066h-.16v3.066zm8.73 0-1.72-9.8h.91l1.57 9.268h.16l2.03-9.268h1.66l2.03 9.268h.16l1.57-9.268h.91l-1.72 9.8h-1.67l-2.03-9.268h-.16l-2.03 9.268zm10.13 0 3.2-9.8h1.6l3.2 9.8h-.93l-.84-2.604h-4.46l-.84 2.604zm2.03-3.416h3.94l-1.89-5.852h-.16zm11.02 3.612c-.7 0-1.32-.121-1.88-.364-.55-.252-.98-.63-1.3-1.134-.31-.513-.47-1.162-.47-1.946v-.266h.89v.266c0 .905.26 1.577.77 2.016.53.429 1.19.644 1.99.644.81 0 1.44-.187 1.88-.56.44-.383.65-.868.65-1.456 0-.392-.09-.705-.29-.938-.19-.243-.45-.434-.8-.574-.33-.149-.73-.28-1.17-.392l-.9-.224c-.53-.14-1.01-.313-1.43-.518-.42-.215-.75-.49-.99-.826-.24-.345-.37-.784-.37-1.316s.14-.994.41-1.386c.28-.392.66-.691 1.15-.896.48-.215 1.05-.322 1.69-.322.65 0 1.23.112 1.74.336.52.224.93.555 1.23.994.31.429.46.971.46 1.624v.658h-.89v-.658c0-.513-.12-.929-.34-1.246s-.53-.551-.91-.7-.81-.224-1.29-.224c-.68 0-1.24.159-1.69.476-.44.308-.66.756-.66 1.344 0 .392.09.705.27.938s.44.42.77.56.72.266 1.17.378l.9.224c.51.121.98.285 1.41.49.43.196.78.471 1.04.826.26.345.39.803.39 1.372s-.14 1.064-.43 1.484c-.28.42-.68.747-1.19.98-.52.224-1.12.336-1.81.336zm5.72-.196v-9.8h1.75l2.97 9.268h.17l2.97-9.268h1.75v9.8h-.87v-9.268h-.17l-2.97 9.268h-1.59l-2.97-9.268h-.17v9.268zm-106.068 19.8v-9.604h.812v1.246h.168c.196-.373.5-.705.91-.994.42-.299 1.004-.448 1.75-.448.607 0 1.158.145 1.652.434.495.28.887.681 1.176 1.204.299.523.448 1.148.448 1.876v.168c0 .719-.144 1.344-.434 1.876-.289.523-.681.929-1.176 1.218-.494.28-1.05.42-1.666.42-.494 0-.919-.065-1.274-.196-.345-.14-.63-.317-.854-.532-.214-.215-.382-.434-.504-.658h-.168v3.99zm3.444-3.36c.775 0 1.4-.247 1.876-.742.486-.495.728-1.176.728-2.044v-.112c0-.868-.242-1.549-.728-2.044-.476-.495-1.101-.742-1.876-.742-.765 0-1.39.247-1.876.742-.485.495-.728 1.176-.728 2.044v.112c0 .868.243 1.549.728 2.044.486.495 1.111.742 1.876.742zm5.907.56v-6.804h.812v.854h.168c.131-.308.322-.532.574-.672.262-.14.621-.21 1.078-.21h.798v.784h-.896c-.513 0-.924.145-1.232.434s-.462.742-.462 1.358v4.256zm8.33.196c-.691 0-1.297-.145-1.82-.434-.513-.299-.915-.709-1.204-1.232-.28-.532-.42-1.148-.42-1.848v-.168c0-.7.14-1.311.42-1.834.289-.532.691-.943 1.204-1.232.523-.299 1.129-.448 1.82-.448s1.293.149 1.806.448c.523.289.924.7 1.204 1.232.289.523.434 1.134.434 1.834v.168c0 .7-.145 1.316-.434 1.848-.28.523-.681.933-1.204 1.232-.513.289-1.115.434-1.806.434zm0-.756c.803 0 1.437-.252 1.904-.756.467-.513.7-1.19.7-2.03v-.112c0-.84-.233-1.512-.7-2.016-.467-.513-1.101-.77-1.904-.77-.793 0-1.428.257-1.904.77-.467.504-.7 1.176-.7 2.016v.112c0 .84.233 1.517.7 2.03.476.504 1.111.756 1.904.756zm8.982.756c-.691 0-1.298-.145-1.82-.434-.514-.299-.915-.709-1.204-1.232-.28-.532-.42-1.148-.42-1.848v-.168c0-.7.14-1.311.42-1.834.289-.532.69-.943 1.204-1.232.522-.299 1.129-.448 1.82-.448.695 0 1.295.149 1.805.448.52.289.92.7 1.2 1.232.29.523.44 1.134.44 1.834v.168c0 .7-.15 1.316-.44 1.848-.28.523-.68.933-1.2 1.232-.51.289-1.11.434-1.805.434zm0-.756c.805 0 1.435-.252 1.905-.756.47-.513.7-1.19.7-2.03v-.112c0-.84-.23-1.512-.7-2.016-.47-.513-1.1-.77-1.905-.77-.794 0-1.428.257-1.904.77-.467.504-.7 1.176-.7 2.016v.112c0 .84.233 1.517.7 2.03.476.504 1.11.756 1.904.756zm7.395.56-2.55-6.804h.9l2.24 6.16h.16l2.24-6.16h.9l-2.55 6.804zm8.76.196c-.7 0-1.31-.145-1.83-.434-.51-.299-.91-.714-1.2-1.246s-.44-1.143-.44-1.834v-.168c0-.7.15-1.311.44-1.834.29-.532.68-.943 1.19-1.232.51-.299 1.09-.448 1.75-.448.63 0 1.19.135 1.68.406.49.261.88.644 1.16 1.148.28.495.42 1.087.42 1.778v.448h-5.8c.03.849.29 1.507.77 1.974.5.457 1.12.686 1.86.686.64 0 1.13-.145 1.47-.434.36-.289.63-.644.82-1.064l.75.336c-.14.308-.33.611-.59.91-.24.289-.56.532-.95.728-.39.187-.89.28-1.5.28zm-2.61-4.144h4.92c-.03-.737-.27-1.302-.71-1.694-.44-.401-1-.602-1.69-.602s-1.25.201-1.7.602c-.45.392-.72.957-.82 1.694zm8.15 3.948v-6.804h.81v.854h.17c.13-.308.32-.532.57-.672.26-.14.62-.21 1.08-.21h.8v.784h-.9c-.51 0-.92.145-1.23.434s-.46.742-.46 1.358v4.256zm13.01.196c-.74 0-1.33-.145-1.75-.434-.41-.299-.71-.635-.91-1.008h-.17v1.246h-.81v-9.8h.84v4.186h.17c.12-.233.29-.453.5-.658.23-.215.51-.387.86-.518.35-.14.78-.21 1.27-.21.62 0 1.17.145 1.67.434.49.28.89.686 1.17 1.218.29.523.44 1.143.44 1.862v.168c0 .719-.15 1.344-.45 1.876-.29.523-.68.929-1.18 1.218-.49.28-1.04.42-1.65.42zm-.19-.756c.77 0 1.4-.247 1.87-.742.49-.495.73-1.176.73-2.044v-.112c0-.868-.24-1.549-.73-2.044-.47-.495-1.1-.742-1.87-.742s-1.39.247-1.88.742c-.48.495-.73 1.176-.73 2.044v.112c0 .868.25 1.549.73 2.044.49.495 1.11.742 1.88.742zm6.76 3.36v-.756h3.97c.28 0 .42-.14.42-.42v-2.8h-.16c-.12.224-.28.439-.48.644-.2.196-.46.359-.78.49-.32.121-.72.182-1.21.182-.48 0-.94-.103-1.36-.308-.41-.205-.74-.513-.99-.924-.24-.411-.36-.929-.36-1.554v-4.158h.84v4.102c0 .737.18 1.269.56 1.596.37.327.87.49 1.49.49.7 0 1.29-.229 1.75-.686.47-.457.7-1.153.7-2.086v-3.416h.84v8.54c0 .336-.09.597-.28.784-.17.187-.44.28-.81.28zm10.54 0v-.756h.98c.28 0 .42-.14.42-.42v-8.428h.84v8.54c0 .336-.09.597-.28.784-.18.187-.45.28-.81.28zm1.82-10.78c-.21 0-.38-.07-.52-.21s-.21-.313-.21-.518c0-.215.07-.387.21-.518.14-.14.31-.21.52-.21s.39.07.52.21c.14.131.21.303.21.518 0 .205-.07.378-.21.518-.13.14-.31.21-.52.21zm5.81 8.12c-.49 0-.94-.103-1.36-.308-.41-.205-.74-.513-1-.924-.24-.42-.36-.943-.36-1.568v-4.144h.84v4.088c0 .737.19 1.274.56 1.61.37.327.87.49 1.5.49.7 0 1.28-.229 1.75-.686.46-.467.7-1.167.7-2.1v-3.402h.84v6.804h-.81v-1.26h-.17c-.17.364-.45.691-.83.98-.38.28-.94.42-1.66.42zm8.94.056c-.82 0-1.53-.196-2.12-.588-.57-.392-.93-1.041-1.06-1.946l.83-.154c.07.495.22.887.44 1.176.24.28.52.481.84.602.34.121.69.182 1.07.182.56 0 1.01-.112 1.34-.336.35-.233.52-.551.52-.952 0-.411-.16-.695-.49-.854-.32-.159-.74-.285-1.27-.378l-.65-.112c-.43-.075-.81-.187-1.16-.336-.35-.159-.62-.369-.83-.63-.19-.261-.29-.588-.29-.98 0-.588.23-1.05.69-1.386s1.08-.504 1.84-.504c.78 0 1.4.177 1.87.532.47.345.77.849.89 1.512l-.78.168c-.1-.541-.32-.924-.67-1.148s-.78-.336-1.31-.336c-.51 0-.92.098-1.23.294s-.46.485-.46.868c0 .373.14.649.42.826.28.168.66.294 1.15.378l.64.112c.47.075.89.187 1.26.336.38.14.67.341.88.602.23.261.34.607.34 1.036 0 .644-.24 1.143-.73 1.498-.48.345-1.14.518-1.97.518zm4.99-.196v-6.804h.81v.854h.17c.13-.308.32-.532.58-.672s.62-.21 1.07-.21h.8v.784h-.89c-.52 0-.93.145-1.24.434-.3.289-.46.742-.46 1.358v4.256zm-96.93 17.196c-.69 0-1.297-.145-1.82-.434-.513-.299-.914-.709-1.204-1.232-.28-.532-.42-1.148-.42-1.848v-.168c0-.7.14-1.311.42-1.834.29-.532.691-.943 1.204-1.232.523-.299 1.13-.448 1.82-.448.691 0 1.293.149 1.806.448.523.289.924.7 1.204 1.232.29.523.434 1.134.434 1.834v.168c0 .7-.144 1.316-.434 1.848-.28.523-.681.933-1.204 1.232-.513.289-1.115.434-1.806.434zm0-.756c.803 0 1.438-.252 1.904-.756.467-.513.7-1.19.7-2.03v-.112c0-.84-.233-1.512-.7-2.016-.466-.513-1.101-.77-1.904-.77-.793 0-1.428.257-1.904.77-.466.504-.7 1.176-.7 2.016v.112c0 .84.234 1.517.7 2.03.476.504 1.111.756 1.904.756zm5.874 3.36v-9.604h.812v1.246h.168c.196-.373.499-.705.91-.994.42-.299 1.003-.448 1.75-.448.607 0 1.157.145 1.652.434.495.28.887.681 1.176 1.204.299.523.448 1.148.448 1.876v.168c0 .719-.145 1.344-.434 1.876-.289.523-.681.929-1.176 1.218-.495.28-1.05.42-1.666.42-.495 0-.919-.065-1.274-.196-.345-.14-.63-.317-.854-.532-.215-.215-.383-.434-.504-.658h-.168v3.99zm3.444-3.36c.775 0 1.4-.247 1.876-.742.485-.495.728-1.176.728-2.044v-.112c0-.868-.243-1.549-.728-2.044-.476-.495-1.101-.742-1.876-.742-.765 0-1.391.247-1.876.742s-.728 1.176-.728 2.044v.112c0 .868.243 1.549.728 2.044s1.111.742 1.876.742zm9.043.756c-.7 0-1.311-.145-1.834-.434-.513-.299-.915-.714-1.204-1.246s-.434-1.143-.434-1.834v-.168c0-.7.145-1.311.434-1.834.289-.532.686-.943 1.19-1.232.513-.299 1.097-.448 1.75-.448.635 0 1.195.135 1.68.406.495.261.882.644 1.162 1.148.28.495.42 1.087.42 1.778v.448h-5.796c.028.849.285 1.507.77 1.974.495.457 1.115.686 1.862.686.635 0 1.125-.145 1.47-.434.355-.289.625-.644.812-1.064l.756.336c-.14.308-.336.611-.588.91-.243.289-.56.532-.952.728-.392.187-.891.28-1.498.28zm-2.618-4.144h4.928c-.037-.737-.275-1.302-.714-1.694-.439-.401-1.003-.602-1.694-.602-.681 0-1.246.201-1.694.602-.448.392-.723.957-.826 1.694zm8.149 3.948v-6.804h.808v1.26h.17c.17-.364.45-.686.83-.966.38-.289.94-.434 1.66-.434.5 0 .95.103 1.36.308s.74.518.98.938c.25.411.38.929.38 1.554v4.144h-.84v-4.088c0-.747-.19-1.283-.56-1.61s-.87-.49-1.5-.49c-.7 0-1.28.233-1.75.7-.46.457-.7 1.153-.7 2.086v3.402zm8.868 0v-6.804h.84v6.804zm.42-7.98c-.2 0-.37-.07-.51-.21s-.21-.313-.21-.518c0-.215.07-.387.21-.518.14-.14.31-.21.51-.21.22 0 .39.07.52.21.14.131.21.303.21.518 0 .205-.07.378-.21.518-.13.14-.3.21-.52.21zm3.19 7.98v-6.804h.81v1.26h.17c.17-.364.45-.686.83-.966.38-.289.94-.434 1.66-.434.5 0 .95.103 1.36.308s.74.518.98.938c.25.411.38.929.38 1.554v4.144h-.84v-4.088c0-.747-.19-1.283-.56-1.61s-.87-.49-1.5-.49c-.7 0-1.28.233-1.75.7-.46.457-.7 1.153-.7 2.086v3.402zm8.54-3.374v-.168c0-.719.14-1.335.43-1.848.3-.513.7-.91 1.19-1.19.5-.28 1.05-.42 1.66-.42.74 0 1.32.149 1.73.448.42.289.73.621.93.994h.16v-1.246h.79v8.54c0 .336-.09.597-.27.784s-.45.28-.81.28h-4.65v-.756h4.48c.29 0 .44-.14.44-.42v-2.926h-.17c-.12.224-.3.443-.52.658s-.5.392-.84.532c-.35.131-.77.196-1.27.196-.61 0-1.17-.14-1.67-.42s-.89-.677-1.18-1.19c-.29-.523-.43-1.139-.43-1.848zm3.47 2.702c.78 0 1.4-.243 1.88-.728s.73-1.153.73-2.002v-.112c0-.859-.25-1.526-.73-2.002-.48-.485-1.1-.728-1.88-.728-.76 0-1.39.243-1.87.728-.49.476-.73 1.143-.73 2.002v.112c0 .849.24 1.517.73 2.002.48.485 1.11.728 1.87.728z" fill="#fff"/><path d="m867.805 269.183 38.703-23.597 38.702 23.596v18.342l-38.702 21.6-38.702-21.6z" fill="#131313" stroke="#fff"/><path d="m906.508 289.982v19.471" stroke="#fff"/><path d="m940.162 277.467 2.133-1.298v.603l-2.133 1.298z" fill="#fff"/><circle cx="2.3341" cy="2.3341" fill="#131313" r="1.8341" stroke="#fff" transform="matrix(-.866025 .5 .00000002 1 922.512 288.648)"/><circle cx="2.3341" cy="2.3341" fill="#131313" r="1.8341" stroke="#fff" transform="matrix(-.866025 .5 .00000002 1 915.531 292.717)"/><path d="m868.3 268.728 38.208-23.526 38.208 23.526-38.208 20.957z" fill="#131313" stroke="#fff"/><circle cx="906.508" cy="220.793" fill="#131313" r="44.7744" stroke="#fff" transform="matrix(.65032885 .75965281 -.75965281 .65032885 484.705722 -611.426407)"/><path d="m951.168 216.407c-.528-11.792-21.009-20.453-45.744-19.345s-44.359 11.566-43.831 23.358" stroke="#fff"/><path d="m876.689 254.63c15.016 9.08 37.453-.535 50.116-21.476 12.662-20.94 10.755-45.276-4.261-54.356" stroke="#fff"/><path d="m931.315 258.22c-10.174 5.963-28.572-6.523-41.093-27.888-12.521-21.364-14.424-43.518-4.249-49.48" stroke="#fff"/><path d="m35.02 112.226 38.7028-23.5972 38.7022 23.5962v18.342l-38.7022 21.6-38.7021-21.6z" fill="#131313" stroke="#fff"/><path d="m73.7227 133.025v19.471" stroke="#fff"/><path d="m107.377 120.51 2.133-1.298v.603l-2.133 1.298z" fill="#fff"/><circle cx="2.3341" cy="2.3341" fill="#131313" r="1.8341" stroke="#fff" transform="matrix(-.866025 .5 .00000002 1 89.7263 131.691)"/><circle cx="2.3341" cy="2.3341" fill="#131313" r="1.8341" stroke="#fff" transform="matrix(-.866025 .5 .00000002 1 82.7458 135.76)"/><path d="m35.5147 111.771 38.208-23.5265 38.2083 23.5265-38.2083 20.957z" fill="#131313" stroke="#fff"/><circle cx="73.7223" cy="63.836" fill="#131313" r="44.7744" stroke="#fff" transform="matrix(.65032885 .75965281 -.75965281 .65032885 74.271759 -33.681745)"/><path d="m118.383 59.4501c-.529-11.7924-21.0089-20.4536-45.7442-19.3454s-44.3589 11.5663-43.8306 23.3587" stroke="#fff"/><path d="m43.9039 97.6732c15.0157 9.0798 37.4534-.5352 50.1159-21.4757 12.6622-20.9406 10.7552-45.2769-4.2609-54.3567" stroke="#fff"/><path d="m98.5301 101.263c-10.1742 5.963-28.5723-6.5228-41.0934-27.8877-12.521-21.3648-14.4234-43.5181-4.2492-49.4808" stroke="#fff"/></svg>