<svg fill="none" height="326" viewBox="0 0 326 326" width="326" xmlns="http://www.w3.org/2000/svg"><path d="m107.073 119.942 120.252 56.074" stroke="#223893" stroke-dasharray="5 0" stroke-linecap="round"/><path d="m7.25515 255.417v-184.9612c1.77293 1.1351 4.17995 1.4061 7.02335 1.0549 3.3322-.4115 7.3713-1.6893 11.9393-3.5897 9.1395-3.8024 20.5197-10.1505 32.8184-17.2742 2.9779-1.7248 6.0097-3.4951 9.0773-5.2863 22.0635-12.8829 45.9785-26.8471 64.9855-32.7544v185.2999c-.001 1.908-1.193 3.904-3.772 5.509-.002.001-.003.002-.005.003l-.266.157-97.5583 57.515.2539.431-.2539-.431c-2.7644 1.63-6.4186 2.459-10.0998 2.459s-7.3355-.829-10.1-2.459c-2.7663-1.63-4.04307-3.7-4.04275-5.673z" fill="#d7c1ff" stroke="#1d1fa3"/><path d="m119.201 111.82c0 23.617-16.318 52.324-36.4367 64.125-20.1183 11.801-36.4366 2.238-36.4366-21.379 0-23.618 16.3183-52.325 36.4366-64.1254 20.1187-11.8009 36.4367-2.2381 36.4367 21.3794z" stroke="#fff" stroke-width="1.07114"/><path d="m103.479 121.041c0 13.432-9.2797 29.753-20.7156 36.461-11.436 6.708-20.716 1.274-20.716-12.157 0-13.432 9.28-29.753 20.716-36.461 11.4359-6.708 20.7156-1.274 20.7156 12.157z" stroke="#fff" stroke-width="1.07114"/><rect fill="#fff" height="23.127" rx="11.5635" stroke="#3538aa" transform="matrix(.862559 -.505957 -.862559 -.505957 20.3746 81.324)" width="137.112" y="-.505957"/><circle cx="2.92448" cy="2.92448" fill="#eecbc0" r="2.62448" stroke="#1d1fa3" stroke-width=".6" transform="matrix(.862559 -.505957 .862559 .505957 92.312 24.2871)"/><circle cx="2.92448" cy="2.92448" fill="#eecbc0" r="2.62448" stroke="#1d1fa3" stroke-width=".6" transform="matrix(.862559 -.505957 .862559 .505957 100.085 19.7275)"/><circle cx="2.92448" cy="2.92448" fill="#eecbc0" r="2.62448" stroke="#1d1fa3" stroke-width=".6" transform="matrix(.862559 -.505957 .862559 .505957 107.859 15.168)"/><path d="m21.8618 95.4395v168.6095" stroke="#1d1fa3" stroke-linecap="round" stroke-width=".4"/><path d="m110.627 119.163 120.252 56.073" stroke="#fff" stroke-dasharray="5 0" stroke-linecap="round"/><path d="m291.174 218.978c12.026-6.488 23.66-12.766 31.435-15.772v84.873c0 .606-.395 1.302-1.381 1.88l-58.831 34.51c-.984.577-2.303.879-3.646.879s-2.661-.302-3.645-.879c-.986-.578-1.38-1.274-1.38-1.881v-85.209c8.911-3.105 22.092-10.122 35.084-17.126.789-.425 1.578-.851 2.364-1.275z" fill="#adc9f5" stroke="#1d1fa3" stroke-width=".910761"/><rect fill="#fff" height="8.07497" rx="4.03749" stroke="#3538aa" stroke-width=".910761" transform="matrix(.862559 -.505957 -.862559 -.505957 258.353 240.908)" width="76.2802" y="-.460806"/><path d="m260.356 246.763v78.308" stroke="#1d1fa3" stroke-linecap="round" stroke-width=".364305"/><path d="m293.067 245.102c-8.978 5.267-16.257 18.077-16.257 28.609 0 10.533 7.279 14.803 16.257 9.537 8.978-5.267 16.258-18.077 16.258-28.609 0-10.533-7.28-14.803-16.258-9.537zm0 9.537c-1.07.628-2.116 1.13-3.128 1.515.951-5.036 2.381-8.229 3.128-8.668.748-.438 2.177 1.078 3.128 4.998-1.012.799-2.057 1.527-3.128 2.155zm5.106-3.864c-.494-2.082-1.154-3.691-1.927-4.719 2.308-.732 4.402-.679 6.133.068-1.281 1.68-2.696 3.246-4.206 4.651zm-10.212 5.99c-1.509.366-2.921.454-4.202.281 1.731-2.778 3.821-5.281 6.129-7.256-.773 1.93-1.43 4.312-1.927 6.975zm11.185 2.652c-.048-2.42-.244-4.621-.559-6.543 1.905-1.756 3.676-3.744 5.254-5.884 1.938 1.503 3.176 4.128 3.401 7.678zm-20.253 11.88c.225-3.81 1.458-7.884 3.393-11.658 1.578.287 3.353.187 5.262-.294-.316 2.297-.512 4.728-.559 7.203zm10.128-5.941c.047-2.399.232-4.623.504-6.626 1.147-.434 2.326-.994 3.542-1.707 1.212-.711 2.395-1.533 3.542-2.444.272 1.684.454 3.693.504 6.031zm14.82 3.364c-1.578-.288-3.349-.198-5.254.281.315-2.297.511-4.728.559-7.199l8.096-4.749c-.225 3.814-1.463 7.89-3.401 11.667zm-14.316 5.055c-.272-1.684-.453-3.693-.504-6.035l8.089-4.744c-.047 2.394-.229 4.617-.505 6.622-1.143.432-2.326.998-3.538 1.709s-2.395 1.537-3.542 2.448zm-7.236 7.582c-1.934-1.505-3.171-4.129-3.393-7.678l8.096-4.749c.047 2.421.243 4.622.559 6.548-1.909 1.758-3.683 3.74-5.262 5.879zm10.778-.493c-.747.438-2.177-1.078-3.128-4.999 1.012-.798 2.058-1.526 3.128-2.154 1.071-.628 2.116-1.126 3.128-1.515-.951 5.036-2.38 8.229-3.128 8.668zm3.179-2.299c.773-1.935 1.433-4.319 1.927-6.98 1.513-.368 2.925-.46 4.206-.288-1.731 2.783-3.825 5.292-6.133 7.268zm-6.358 3.729c-2.308.732-4.398.681-6.129-.066 1.277-1.677 2.689-3.242 4.202-4.649.497 2.075 1.154 3.687 1.927 4.715z" fill="#fff"/><g stroke-linecap="round"><path d="m46.962 165.429 93.038 45.571" stroke="#fff" stroke-dasharray="5 0"/><path d="m276 202 23 13" stroke="#fff" stroke-dasharray="5 0"/><path d="m200 253 51 25" stroke="#fff" stroke-dasharray="5 0"/><path d="m142 219.994c0-3.16 1.721-6.069 4.492-7.589l20.264-11.12c2.594-1.423 5.735-1.423 8.328 0l20.265 11.12c2.77 1.52 4.492 4.429 4.492 7.589v24.377c0 3.159-1.722 6.068-4.492 7.588l-20.265 11.12c-2.593 1.423-5.734 1.423-8.328 0l-20.264-11.12c-2.771-1.52-4.492-4.429-4.492-7.588z" fill="#37dbff" stroke="#82b5b5"/></g><path d="m170.952 209.418c-2.163-1.5-6.186-1.031-9.028.065l-10.896 5.604c-2.643 1.416-4.295 4.191-4.295 7.212v20.998c0 .696.396 2.064 2.008 2.225 1.201.119 1.628-.469 1.871-1.26.216-.704.773-1.229 1.416-1.579 1.098-.599 1.888-1.763 1.888-3.195v-8.672c0-1.325 1.407-2.163 2.554-1.521.548.306.888.888.888 1.521v12.014c0 1.723.974 3.296 2.509 4.05 1.851.909 4.006-.452 4.006-2.532v-8.11c0-1.296 1.375-2.119 2.501-1.496.541.3.877.873.877 1.496v15.871c0 1.843.981 3.544 2.569 4.454 2.085 1.194 4.677-.292 4.731-2.712l.348-15.697c.066-2.961 1.715-5.654 4.308-7.037l11.732-6.256c1.447-.967 2.692-2.254 1.408-4.238-.953-1.474-2.643-2.076-4.344-2.682-1.499-.534-3.007-1.071-4.026-2.211-.604-.675-.933-1.421-1.256-2.154-.675-1.532-1.326-3.009-4.413-3.665-1.669-.355-2.87-.159-3.9.009-1.228.2-2.212.36-3.456-.502z" fill="#1a687c"/><path d="m215 175.994c0-3.16 1.721-6.069 4.492-7.589l20.264-11.12c2.594-1.423 5.735-1.423 8.328 0l20.265 11.12c2.77 1.52 4.492 4.429 4.492 7.589v24.377c0 3.159-1.722 6.068-4.492 7.588l-20.265 11.12c-2.593 1.423-5.734 1.423-8.328 0l-20.264-11.12c-2.771-1.52-4.492-4.429-4.492-7.588z" fill="#37dbff" stroke="#82b5b5" stroke-linecap="round"/><path d="m243.952 165.418c-2.163-1.5-6.186-1.031-9.028.065l-10.896 5.604c-2.643 1.416-4.295 4.191-4.295 7.212v20.998c0 .696.396 2.064 2.008 2.225 1.201.119 1.628-.469 1.871-1.26.216-.704.773-1.229 1.416-1.579 1.098-.599 1.888-1.763 1.888-3.195v-8.672c0-1.325 1.407-2.163 2.554-1.521.548.306.888.888.888 1.521v12.014c0 1.723.974 3.296 2.509 4.05 1.851.909 4.006-.452 4.006-2.532v-8.11c0-1.296 1.375-2.119 2.501-1.496.541.3.877.873.877 1.496v15.871c0 1.843.981 3.544 2.569 4.454 2.085 1.194 4.677-.292 4.731-2.712l.348-15.697c.066-2.961 1.715-5.654 4.308-7.037l11.732-6.256c1.447-.967 2.692-2.254 1.408-4.238-.953-1.474-2.643-2.076-4.344-2.682-1.499-.534-3.007-1.071-4.026-2.211-.604-.675-.933-1.421-1.256-2.154-.675-1.532-1.326-3.009-4.413-3.665-1.669-.355-2.87-.159-3.9.009-1.228.2-2.212.36-3.456-.502z" fill="#1a687c"/></svg>