<svg fill="none" height="363" viewBox="0 0 491 363" width="491" xmlns="http://www.w3.org/2000/svg"><path d="m143.947 194.481.532-15.895v-.134c0-1.347.579-2.63 1.589-3.522l.19-.167c.222-.196.462-.371.716-.521l42.506-25.153 73.404-31.984c1.379-.601 2.963-.505 4.26.259l93.969 55.337c.671.394 1.233.949 1.635 1.615l2.082 3.439c.444.734.679 1.575.679 2.432v14.974c0 .676-.146 1.343-.428 1.957l-.571 1.247c-.4.874-1.059 1.604-1.887 2.091l-93.431 55.008-8.094 3.439c-.414.177-.851.292-1.298.344l-6.782.782c-.688.08-1.385.006-2.041-.215l-4.963-1.675c-.299-.101-.588-.232-.861-.391l-97.505-56.74c-.693-.403-1.271-.977-1.679-1.666l-1.369-2.31c-.456-.771-.683-1.656-.653-2.551z" fill="#022"/><path d="m365.604 179.517v15.578c.001 2.262-1.477 4.524-4.432 6.249l-95.653 55.854c-5.91 3.451-15.492 3.451-21.402 0l-.002-.012v.01l-95.649-55.852c-2.955-1.725-4.432-3.985-4.433-6.247v-15.58" stroke="#3e9292" stroke-linejoin="round" stroke-width="1.32076"/><rect fill="#013030" height="134.709" rx="11.7752" stroke="#3e9292" stroke-width="1.32076" transform="matrix(.866025 .5 -.866025 .5 255.164 111.025)" width="134.709" y=".660378"/><circle cx="4.36111" cy="4.36111" fill="#012626" r="3.96967" stroke="#297070" stroke-width=".78289" transform="matrix(.866025 -.5 .00000002 1 311.489 217.47)"/><path d="m315.956 220.008 50.172 28.967" stroke="#00bed8" stroke-width="1.56578"/><path d="m314.697 2.80762h1.924l4.368 1.26356 32.062 19.12712v44.0033l-.663 2.3218-35.158 19.6798-3.98-.7739-33.74-20.2327v-1.769-41.947l1.836-3.3292z" fill="#022"/><path d="m279.956 24.3885.01.5022c-.27-.3466-.405-.7197-.405-1.0928v43.9551c0 .6818.451 1.3637 1.352 1.8839l32.199 18.5902c1.802 1.0404 4.723 1.0398 6.525-.0006l32.198-18.5897c.901-.5202 1.351-1.202 1.351-1.8838v-43.9547" stroke="#267777" stroke-linejoin="round" stroke-width="1.25262"/><rect fill="#013030" height="45.7039" rx="5.40333" stroke="#267777" stroke-width="1.25262" transform="matrix(.866025 .5 -.866025 .5 316.916 .631516)" width="45.7039" y=".626312"/><path d="m316.582 45.2256v43.7786" stroke="#267777" stroke-width="1.25262"/><rect fill="#013030" height="16.4424" rx=".505469" stroke="#37dbff" stroke-width="1.01094" transform="matrix(.866025 -.5 .866025 .5 301.584 24.2356)" width="16.4424" x=".875498"/><path d="m380.66 40.9971h1.923l4.368 1.2635 32.063 19.1271v44.0033l-.663 2.322-35.159 19.68-3.98-.774-33.74-20.233v-1.769-41.9469l1.837-3.3293z" fill="#022"/><path d="m345.912 62.574.011.5023c-.27-.3466-.405-.7198-.405-1.0929v43.9556c0 .681.451 1.363 1.352 1.883l32.198 18.591c1.802 1.04 4.724 1.039 6.526-.001l32.198-18.59c.901-.52 1.351-1.202 1.351-1.883v-43.9552" stroke="#267777" stroke-linejoin="round" stroke-width="1.25262"/><rect fill="#013030" height="45.7039" rx="5.40333" stroke="#267777" stroke-width="1.25262" transform="matrix(.866025 .5 -.866025 .5 382.878 38.8171)" width="45.7039" y=".626312"/><path d="m382.537 83.4111v43.7789" stroke="#267777" stroke-width="1.25262"/><circle cx="9.04503" cy="9.04503" fill="#013030" r="8.53956" stroke="#37dbff" stroke-width="1.01094" transform="matrix(.866025 -.5 .866025 .5 366.578 60.167)"/><path d="m448.882 80.1689h1.924l4.368 1.2636 32.063 19.1275v44.003l-.664 2.322-35.158 19.68-3.98-.774-33.74-20.233v-1.769-41.947l1.836-3.3293z" fill="#022"/><path d="m414.137 101.747.011.502c-.27-.346-.405-.72-.405-1.093v43.955c0 .682.45 1.364 1.351 1.884l32.199 18.59c1.802 1.041 4.724 1.04 6.526 0l32.198-18.59c.901-.52 1.351-1.202 1.351-1.884v-43.954" stroke="#267777" stroke-linejoin="round" stroke-width="1.25262"/><rect fill="#013030" height="45.7039" rx="5.40333" stroke="#267777" stroke-width="1.25262" transform="matrix(.866025 .5 -.866025 .5 451.099 77.9909)" width="45.7039" y=".626312"/><path d="m450.76 122.586v43.779" stroke="#267777" stroke-width="1.25262"/><path d="m436.206 96.8228 22.306-3.4508-5.977 12.879z" fill="#013030" stroke="#37dbff" stroke-width="1.01094"/><g fill="#012626" stroke-width=".78289"><circle cx="7.15751" cy="7.15751" r="6.76606" stroke="#267777" transform="matrix(.866025 .5 -.00000002 1 356.774 83.8291)"/><circle cx="7.15503" cy="7.15503" r="6.76358" stroke="#267777" transform="matrix(.866025 .5 -.00000002 1 289.292 48.0137)"/><circle cx="7.15751" cy="7.15751" r="6.76606" stroke="#267777" transform="matrix(.866025 .5 -.00000002 1 423.693 125.631)"/><circle cx="4.36111" cy="4.36111" r="3.96967" stroke="#297070" transform="matrix(.866025 .5 -.00000002 1 169.286 199.788)"/><circle cx="4.36111" cy="4.36111" r="3.96967" stroke="#297070" transform="matrix(.866025 .5 -.00000002 1 186.802 210.35)"/><circle cx="4.36111" cy="4.36111" r="3.96967" stroke="#297070" transform="matrix(.866025 .5 -.00000002 1 204.518 220.921)"/></g><path d="m173.227 206.643-37.364 21.572c-2.247 1.297-5.889 1.297-8.136 0l-45.7168-26.395c-2.2467-1.297-5.8894-1.297-8.1361 0l-7.0572 4.075" stroke="#00bed8" stroke-width="1.56578"/><path d="m190.581 216.892-56.659 33.383" stroke="#00bed8" stroke-width="1.56578"/><path d="m363.305 94.7607-49.914 29.4093" stroke="#00bed8" stroke-width="1.56578"/><path d="m208.409 227.28-38.589 22.28c-2.247 1.297-2.247 3.4 0 4.697l42.675 24.639c2.247 1.297 2.247 3.4 0 4.697l-6.14 3.545" stroke="#00bed8" stroke-width="1.56578"/><path d="m39.1201 193.835h1.9235l4.368 1.264 32.0627 19.127v44.003l-.6633 2.322-35.1584 19.68-3.9802-.774-33.73978-20.233v-1.769-41.947l1.83643-3.329z" fill="#022"/><path d="m4.37855 215.413.01062.502c-.26994-.346-.40496-.72-.40504-1.093v43.955c.00011.682.45063 1.364 1.35153 1.884l32.19874 18.59c1.802 1.041 4.7236 1.04 6.5256 0l32.1982-18.59c.9008-.52 1.3511-1.202 1.351-1.884v-43.954" stroke="#267777" stroke-linejoin="round" stroke-width="1.25262"/><rect fill="#013030" height="45.7039" rx="5.40333" stroke="#267777" stroke-width="1.25262" transform="matrix(.866025 .5 -.866025 .5 41.3403 191.657)" width="45.7039" y=".626312"/><path d="m41.0068 236.251v43.779" stroke="#267777" stroke-width="1.25262"/><path d="m25.2496 211.555 22.3064-3.451-5.977 12.879z" fill="#013030" stroke="#37dbff" stroke-width="1.01094"/><path d="m103.516 232.023h1.923l4.368 1.264 32.063 19.127v44.003l-.664 2.322-35.158 19.68-3.98-.774-33.7399-20.233v-1.769-41.947l1.8365-3.329z" fill="#022"/><path d="m68.7699 253.602.0106.503c-.2699-.347-.4049-.72-.405-1.093v43.955c.0001.682.4506 1.364 1.3515 1.884l32.199 18.59c1.802 1.04 4.723 1.04 6.525-.001l32.199-18.589c.9-.521 1.351-1.202 1.351-1.884v-43.955" stroke="#267777" stroke-linejoin="round" stroke-width="1.25262"/><rect fill="#013030" height="45.7039" rx="5.40333" stroke="#267777" stroke-width="1.25262" transform="matrix(.866025 .5 -.866025 .5 105.734 229.84)" width="45.7039" y=".626312"/><path d="m105.393 274.437v43.778" stroke="#267777" stroke-width="1.25262"/><circle cx="9.04503" cy="9.04503" fill="#013030" r="8.53956" stroke="#37dbff" stroke-width="1.01094" transform="matrix(.866025 -.5 .866025 .5 89.4326 251.737)"/><path d="m174.868 272.76h1.923l4.368 1.263 32.063 19.127v44.004l-.663 2.322-35.159 19.679-3.98-.774-33.74-20.232v-1.769-41.947l1.837-3.329z" fill="#022"/><path d="m140.12 294.34.011.502c-.27-.347-.405-.72-.405-1.093v43.955c0 .682.451 1.364 1.352 1.884l32.198 18.59c1.802 1.041 4.724 1.04 6.526 0l32.198-18.59c.901-.52 1.351-1.202 1.351-1.884v-43.955" stroke="#267777" stroke-linejoin="round" stroke-width="1.25262"/><rect fill="#013030" height="45.7039" rx="5.40333" stroke="#267777" stroke-width="1.25262" transform="matrix(.866025 .5 -.866025 .5 177.084 270.585)" width="45.7039" y=".626312"/><rect fill="#013030" height="16.4424" rx=".505469" stroke="#37dbff" stroke-width="1.01094" transform="matrix(.866025 -.5 .866025 .5 161.454 293.435)" width="16.4424" x=".875498"/><path d="m176.747 315.178v43.778" stroke="#267777" stroke-width="1.25262"/><path d="m430.22 136.332-19.726 11.92c-2.23 1.348-5.945 1.372-8.228.054l-20.687-11.944c-2.225-1.285-5.826-1.298-8.081-.031l-38.163 21.455" stroke="#37dbff" stroke-width="1.56578"/><path d="m295.536 58.7773-20.565 12.6611c-2.124 1.3078-2.067 3.353.129 4.6208l22.826 13.1788c2.282 1.3176 2.241 3.4611-.092 4.749l-32.889 18.162" stroke="#37dbff" stroke-width="1.56578"/><path d="m385.597 216.384h2.076l4.713 1.363 34.594 20.638v31.89l-.716 2.505-73.69 42.025-4.295-.835-36.404-21.831v-1.908-29.672l1.982-3.592z" fill="#022"/><path d="m312.354 261.494.012.542c-.292-.374-.437-.777-.437-1.179v30.799c0 .735.486 1.471 1.458 2.032l34.741 20.059c1.944 1.122 5.097 1.121 7.041-.001l70.451-40.694c.972-.562 1.458-1.297 1.458-2.033v-30.798" stroke="#267777" stroke-linejoin="round" stroke-width=".963135"/><rect fill="#013030" height="90.6171" rx="6.02418" stroke="#267777" stroke-width=".963135" transform="matrix(.866025 .5 -.866025 .5 387.504 214.265)" width="49.7012" y=".481568"/><path clip-rule="evenodd" d="m339.204 252.858c2.241-1.294 5.025-2.083 7.929-2.367l.2.763c-2.631.26-5.153.977-7.184 2.149-5.222 3.015-5.222 7.902 0 10.916 5.221 3.015 13.686 3.015 18.907 0 5.221-3.014 5.221-7.901 0-10.916-1.287-.743-2.771-1.302-4.354-1.679l-.23-.876c2.019.408 3.915 1.078 5.528 2.01 5.743 3.316 5.743 8.691 0 12.007-5.742 3.315-15.053 3.315-20.796 0-5.743-3.316-5.743-8.691 0-12.007zm14.478 8.477-2.673-11.958-1.325.099 2.576 11.523h-8.368v.771h9.127.76z" fill="#37dbff" fill-rule="evenodd"/><path d="m351.867 283.419v31.165" stroke="#267777" stroke-width=".963135"/><path clip-rule="evenodd" d="m364.399 246.253 10.41-6.01-.945-.546-10.409 6.01zm6.765 5.27 30.753-17.755-.944-.546-30.754 17.756z" fill="#37dbff" fill-rule="evenodd"/><circle cx="7.15503" cy="7.15503" fill="#012626" r="6.76358" stroke="#267777" stroke-width=".78289" transform="matrix(.866025 -.5 .00000002 1 193.266 77.6064)"/><path d="m199.165 81.488 15.618 8.5602c2.346 1.2863 2.395 3.4365.107 4.7575l-18.028 10.4083c-2.223 1.283-2.25 3.359-.061 4.662l28.752 17.111" stroke="#00bed8" stroke-width="1.56578"/><path d="m124.496 68.293h1.923l4.368 1.2636 32.063 19.1271v44.0033l-.664 2.322-67.2258 38.784-3.9802-.774-33.7398-20.233v-1.769-41.947l1.8365-3.329z" fill="#022"/><path d="m57.5592 106.766.0106.502c-.2699-.346-.4049-.719-.405-1.093v43.956c.0001.681.4506 1.363 1.3515 1.883l32.1987 18.591c1.8021 1.04 4.7237 1.039 6.5257-.001l64.0843-37.277c.901-.52 1.351-1.202 1.351-1.884v-43.9547" stroke="#267777" stroke-linejoin="round" stroke-width="1.25262"/><circle cx="7.15503" cy="7.15503" fill="#012626" r="6.76358" stroke="#267777" stroke-width=".78289" transform="matrix(.866025 -.5 .00000002 1 126.861 125.938)"/><rect fill="#013030" height="82.1316" rx="5.40333" stroke="#267777" stroke-width="1.25262" transform="matrix(.866025 .5 -.866025 .5 126.065 64.7966)" width="45.7039" y=".626312"/><path d="m89.6035 108.563 10.9045 6.296" stroke="#147777" stroke-width="1.01094"/><path d="m95.7283 100.145 15.1347 8.737" stroke="#147777" stroke-width="1.01094"/><path d="m112.59 97.9219 8.627 4.9811" stroke="#147777" stroke-width="1.01094"/><path d="m119.785 90.1201 11.785 6.804" stroke="#147777" stroke-width="1.01094"/><path d="m120.43 78.5391 21.492 12.4082" stroke="#147777" stroke-width="1.01094"/><path d="m85.8948 106.455 3.4251-9.8855 19.5181-.7248 7.643-7.5809.005-11.9915" stroke="#37dbff" stroke-width="1.21313"/><path d="m95.0549 127.605v43.779" stroke="#267777" stroke-width="1.25262"/><path d="m133.686 130.661 18.445 10.649c.749.433 1.964.433 2.714 0l24.674-14.245c.749-.433 1.964-.433 2.714 0l36.362 20.993" stroke="#00bed8" stroke-width="1.56695"/><path d="m190.581 119.781c0-7.191 3.811-13.81 9.942-17.269l44.852-25.3046c5.741-3.2388 12.692-3.2388 18.433 0l44.851 25.3046c6.132 3.459 9.943 10.078 9.943 17.269v55.472c0 7.191-3.811 13.81-9.943 17.27l-44.851 25.304c-5.741 3.239-12.692 3.239-18.433 0l-44.852-25.304c-6.131-3.46-9.942-10.079-9.942-17.27z" fill="#37dbff"/><path d="m304.6 120.231-37.047 20.108c-6.147 3.336-10.054 9.833-10.21 16.978l-.827 37.873c-.128 5.839-6.271 9.424-11.213 6.543-3.763-2.194-6.088-6.299-6.088-10.746v-38.292c0-1.503-.797-2.887-2.079-3.61-2.668-1.504-5.929.481-5.929 3.61v19.568c0 5.017-5.108 8.302-9.496 6.107-3.637-1.819-5.945-5.613-5.945-9.772v-28.987c0-1.525-.806-2.931-2.104-3.669-2.719-1.547-6.055.474-6.055 3.669v20.925c0 3.454-1.874 6.263-4.476 7.708-1.523.846-2.844 2.111-3.356 3.811-.574 1.907-1.588 3.327-4.433 3.039-3.822-.387-4.761-3.689-4.761-5.369v-50.661c0-7.291 3.917-13.986 10.181-17.402l39.126-21.3377c5.13-2.7981 11.294-2.715 16.352.2205l48.518 28.1612c4.4 2.554 4.31 9.1-.158 11.525z" fill="#012626"/><path d="m243.877 78.4106-17.29 9.7292c6.736-2.6443 16.27-3.7758 21.399-.1557 5.416 3.8229 8.758-.6889 17.433 1.1881 10.819 2.3407 9.015 9.0071 13.437 14.0408 5.157 5.871 15.59 5.116 19.841 11.805 4.458 7.015-3.952 10.415-7.882 13.08l26.158-11.304-2.95-8.445-5.707-4.106-42.897-26.3224-6.995-2.0144z" fill="#37dbff"/><path d="m190.581 119.781c0-7.191 3.811-13.81 9.942-17.269l44.852-25.3046c5.741-3.2388 12.692-3.2388 18.433 0l44.851 25.3046c6.132 3.459 9.943 10.078 9.943 17.269v55.472c0 7.191-3.811 13.81-9.943 17.27l-44.851 25.304c-5.741 3.239-12.692 3.239-18.433 0l-44.852-25.304c-6.131-3.46-9.942-10.079-9.942-17.27z" stroke="#37dbff" stroke-linecap="round" stroke-width="1.84815"/><path d="m304.6 120.231-37.047 20.108c-6.147 3.336-10.054 9.833-10.21 16.978l-.827 37.873c-.128 5.839-6.271 9.424-11.213 6.543-3.763-2.194-6.088-6.299-6.088-10.746v-38.292c0-1.503-.797-2.887-2.079-3.61-2.668-1.504-5.929.481-5.929 3.61v19.568c0 5.017-5.108 8.302-9.496 6.107-3.637-1.819-5.945-5.613-5.945-9.772v-28.987c0-1.525-.806-2.931-2.104-3.669-2.719-1.547-6.055.474-6.055 3.669v20.925c0 3.454-1.874 6.263-4.476 7.708-1.523.846-2.844 2.111-3.356 3.811-.574 1.907-1.588 3.327-4.433 3.039-3.822-.387-4.761-3.689-4.761-5.369v-50.661c0-7.291 3.917-13.986 10.181-17.402l39.126-21.3377c5.13-2.7981 11.294-2.715 16.352.2205l48.518 28.1612c4.4 2.554 4.31 9.1-.158 11.525z" stroke="#37dbff" stroke-linecap="round" stroke-width="1.84815"/><path d="m243.877 78.4106-17.29 9.7292c6.736-2.6443 16.27-3.7758 21.399-.1557 5.416 3.8229 8.758-.6889 17.433 1.1881 10.819 2.3407 9.015 9.0071 13.437 14.0408 5.157 5.871 15.59 5.116 19.841 11.805 4.458 7.015-3.952 10.415-7.882 13.08l26.158-11.304-2.95-8.445-5.707-4.106-42.897-26.3224-6.995-2.0144z" stroke="#37dbff" stroke-linecap="round" stroke-width="1.84815"/><path d="m190.581 119.781c0-7.191 3.811-13.81 9.942-17.269l44.852-25.3046c5.741-3.2388 12.692-3.2388 18.433 0l44.851 25.3046c6.132 3.459 9.943 10.078 9.943 17.269v55.472c0 7.191-3.811 13.81-9.943 17.27l-44.851 25.304c-5.741 3.239-12.692 3.239-18.433 0l-44.852-25.304c-6.131-3.46-9.942-10.079-9.942-17.27z" stroke="#37dbff" stroke-linecap="round" stroke-width="1.84815"/></svg>