<svg width="812" height="611" viewBox="0 0 812 611" fill="none" xmlns="http://www.w3.org/2000/svg">
<g filter="url(#filter0_dii_9091_952)">
<rect width="300" height="310" rx="20" transform="matrix(0.866025 -0.5 0.866025 0.5 37 436)" fill="#C5F0C2" fill-opacity="0.8" shape-rendering="crispEdges"/>
</g>
<g filter="url(#filter1_dii_9091_952)">
<rect width="300" height="310" rx="20" transform="matrix(0.866025 -0.5 0.866025 0.5 37 344)" fill="#F0E9C2" fill-opacity="0.8" shape-rendering="crispEdges"/>
</g>
<path d="M305 389.667C306.473 389.667 307.667 388.473 307.667 387C307.667 385.527 306.473 384.333 305 384.333C303.527 384.333 302.333 385.527 302.333 387C302.333 388.473 303.527 389.667 305 389.667ZM305 387.5H308V386.5H305V387.5ZM314 387.5H320V386.5H314V387.5ZM326 387.5H332V386.5H326V387.5ZM338 387.5H344V386.5H338V387.5ZM350 387.5H356V386.5H350V387.5ZM362 387.5H368V386.5H362V387.5ZM374 387.5H380V386.5H374V387.5ZM386 387.5H392V386.5H386V387.5ZM398 387.5H404V386.5H398V387.5ZM410 387.5H416V386.5H410V387.5ZM422 387.5H428V386.5H422V387.5ZM434 387.5H440V386.5H434V387.5ZM446 387.5H452V386.5H446V387.5ZM458 387.5H464V386.5H458V387.5ZM470 387.5H476V386.5H470V387.5ZM482 387.5H488V386.5H482V387.5ZM494 387.5H500V386.5H494V387.5ZM506 387.5H512V386.5H506V387.5ZM518 387.5H524V386.5H518V387.5ZM530 387.5H536V386.5H530V387.5ZM542 387.5H548V386.5H542V387.5ZM554 387.5H557V386.5H554V387.5Z" fill="#5D9393"/>
<rect x="569" y="367" width="40" height="40" rx="20" fill="#CEF7E3"/>
<path d="M588.921 394.2C587.988 394.2 587.181 394.087 586.501 393.86C585.821 393.633 585.255 393.34 584.801 392.98C584.361 392.607 584.028 392.207 583.801 391.78C583.575 391.34 583.455 390.907 583.441 390.48C583.441 390.36 583.481 390.267 583.561 390.2C583.655 390.12 583.761 390.08 583.881 390.08H585.681C585.815 390.08 585.928 390.107 586.021 390.16C586.115 390.213 586.195 390.32 586.261 390.48C586.381 390.84 586.575 391.127 586.841 391.34C587.121 391.553 587.441 391.707 587.801 391.8C588.161 391.88 588.541 391.92 588.941 391.92C589.741 391.92 590.375 391.733 590.841 391.36C591.321 390.973 591.561 390.427 591.561 389.72C591.561 389.013 591.341 388.507 590.901 388.2C590.461 387.88 589.848 387.72 589.061 387.72H587.001C586.855 387.72 586.735 387.68 586.641 387.6C586.548 387.507 586.501 387.387 586.501 387.24V386.4C586.501 386.267 586.528 386.153 586.581 386.06C586.648 385.953 586.715 385.867 586.781 385.8L590.361 382.3H584.641C584.495 382.3 584.375 382.253 584.281 382.16C584.201 382.067 584.161 381.953 584.161 381.82V380.5C584.161 380.353 584.201 380.233 584.281 380.14C584.375 380.047 584.495 380 584.641 380H593.221C593.368 380 593.488 380.047 593.581 380.14C593.675 380.233 593.721 380.353 593.721 380.5V381.7C593.721 381.82 593.695 381.927 593.641 382.02C593.588 382.113 593.528 382.193 593.461 382.26L590.001 385.82L590.241 385.84C591.055 385.907 591.775 386.093 592.401 386.4C593.041 386.693 593.535 387.127 593.881 387.7C594.241 388.273 594.421 388.993 594.421 389.86C594.421 390.767 594.181 391.547 593.701 392.2C593.235 392.84 592.588 393.333 591.761 393.68C590.935 394.027 589.988 394.2 588.921 394.2Z" fill="#012626"/>
<path d="M623.04 394C622.907 394 622.793 393.953 622.7 393.86C622.607 393.767 622.56 393.653 622.56 393.52V380.5C622.56 380.353 622.607 380.233 622.7 380.14C622.793 380.047 622.907 380 623.04 380H627.92C629.267 380 630.373 380.207 631.24 380.62C632.12 381.033 632.78 381.647 633.22 382.46C633.673 383.273 633.907 384.267 633.92 385.44C633.947 386.027 633.96 386.547 633.96 387C633.96 387.453 633.947 387.967 633.92 388.54C633.893 389.78 633.667 390.807 633.24 391.62C632.813 392.42 632.167 393.02 631.3 393.42C630.447 393.807 629.353 394 628.02 394H623.04ZM625.34 391.7H627.92C628.667 391.7 629.273 391.593 629.74 391.38C630.207 391.167 630.547 390.827 630.76 390.36C630.987 389.88 631.107 389.253 631.12 388.48C631.133 388.08 631.14 387.733 631.14 387.44C631.153 387.133 631.153 386.833 631.14 386.54C631.14 386.233 631.133 385.887 631.12 385.5C631.093 384.407 630.82 383.6 630.3 383.08C629.78 382.56 628.953 382.3 627.82 382.3H625.34V391.7ZM639.403 394.2C638.709 394.2 638.083 394.067 637.523 393.8C636.963 393.52 636.516 393.153 636.183 392.7C635.863 392.233 635.703 391.713 635.703 391.14C635.703 390.207 636.076 389.467 636.823 388.92C637.583 388.36 638.583 387.987 639.823 387.8L642.563 387.4V386.98C642.563 386.42 642.423 385.987 642.143 385.68C641.863 385.373 641.383 385.22 640.703 385.22C640.223 385.22 639.829 385.32 639.523 385.52C639.229 385.707 639.009 385.96 638.863 386.28C638.756 386.453 638.603 386.54 638.403 386.54H636.823C636.676 386.54 636.563 386.5 636.483 386.42C636.416 386.34 636.382 386.233 636.382 386.1C636.396 385.887 636.483 385.627 636.643 385.32C636.803 385.013 637.056 384.72 637.403 384.44C637.749 384.147 638.196 383.9 638.743 383.7C639.289 383.5 639.949 383.4 640.723 383.4C641.563 383.4 642.269 383.507 642.843 383.72C643.429 383.92 643.896 384.193 644.243 384.54C644.589 384.887 644.843 385.293 645.003 385.76C645.163 386.227 645.243 386.72 645.243 387.24V393.52C645.243 393.653 645.196 393.767 645.103 393.86C645.009 393.953 644.896 394 644.763 394H643.143C642.996 394 642.876 393.953 642.783 393.86C642.703 393.767 642.663 393.653 642.663 393.52V392.74C642.489 392.993 642.256 393.233 641.963 393.46C641.669 393.673 641.309 393.853 640.883 394C640.469 394.133 639.976 394.2 639.403 394.2ZM640.083 392.3C640.549 392.3 640.969 392.2 641.343 392C641.729 391.8 642.029 391.493 642.243 391.08C642.469 390.653 642.583 390.12 642.583 389.48V389.06L640.583 389.38C639.796 389.5 639.209 389.693 638.823 389.96C638.436 390.227 638.243 390.553 638.243 390.94C638.243 391.233 638.329 391.487 638.503 391.7C638.689 391.9 638.923 392.053 639.203 392.16C639.483 392.253 639.776 392.3 640.083 392.3ZM652.411 394C651.611 394 650.937 393.86 650.391 393.58C649.844 393.3 649.437 392.887 649.171 392.34C648.904 391.78 648.771 391.087 648.771 390.26V385.72H647.191C647.057 385.72 646.944 385.673 646.851 385.58C646.757 385.487 646.711 385.373 646.711 385.24V384.08C646.711 383.947 646.757 383.833 646.851 383.74C646.944 383.647 647.057 383.6 647.191 383.6H648.771V380.28C648.771 380.147 648.811 380.033 648.891 379.94C648.984 379.847 649.104 379.8 649.251 379.8H650.871C651.004 379.8 651.117 379.847 651.211 379.94C651.304 380.033 651.351 380.147 651.351 380.28V383.6H653.851C653.984 383.6 654.097 383.647 654.191 383.74C654.284 383.833 654.331 383.947 654.331 384.08V385.24C654.331 385.373 654.284 385.487 654.191 385.58C654.097 385.673 653.984 385.72 653.851 385.72H651.351V390.06C651.351 390.607 651.444 391.033 651.631 391.34C651.831 391.647 652.171 391.8 652.651 391.8H654.031C654.164 391.8 654.277 391.847 654.371 391.94C654.464 392.033 654.511 392.147 654.511 392.28V393.52C654.511 393.653 654.464 393.767 654.371 393.86C654.277 393.953 654.164 394 654.031 394H652.411ZM659.305 394.2C658.612 394.2 657.985 394.067 657.425 393.8C656.865 393.52 656.418 393.153 656.085 392.7C655.765 392.233 655.605 391.713 655.605 391.14C655.605 390.207 655.978 389.467 656.725 388.92C657.485 388.36 658.485 387.987 659.725 387.8L662.465 387.4V386.98C662.465 386.42 662.325 385.987 662.045 385.68C661.765 385.373 661.285 385.22 660.605 385.22C660.125 385.22 659.732 385.32 659.425 385.52C659.132 385.707 658.912 385.96 658.765 386.28C658.658 386.453 658.505 386.54 658.305 386.54H656.725C656.578 386.54 656.465 386.5 656.385 386.42C656.318 386.34 656.285 386.233 656.285 386.1C656.298 385.887 656.385 385.627 656.545 385.32C656.705 385.013 656.958 384.72 657.305 384.44C657.652 384.147 658.098 383.9 658.645 383.7C659.192 383.5 659.852 383.4 660.625 383.4C661.465 383.4 662.172 383.507 662.745 383.72C663.332 383.92 663.798 384.193 664.145 384.54C664.492 384.887 664.745 385.293 664.905 385.76C665.065 386.227 665.145 386.72 665.145 387.24V393.52C665.145 393.653 665.098 393.767 665.005 393.86C664.912 393.953 664.798 394 664.665 394H663.045C662.898 394 662.778 393.953 662.685 393.86C662.605 393.767 662.565 393.653 662.565 393.52V392.74C662.392 392.993 662.158 393.233 661.865 393.46C661.572 393.673 661.212 393.853 660.785 394C660.372 394.133 659.878 394.2 659.305 394.2ZM659.985 392.3C660.452 392.3 660.872 392.2 661.245 392C661.632 391.8 661.932 391.493 662.145 391.08C662.372 390.653 662.485 390.12 662.485 389.48V389.06L660.485 389.38C659.698 389.5 659.112 389.693 658.725 389.96C658.338 390.227 658.145 390.553 658.145 390.94C658.145 391.233 658.232 391.487 658.405 391.7C658.592 391.9 658.825 392.053 659.105 392.16C659.385 392.253 659.678 392.3 659.985 392.3ZM673.001 394C672.868 394 672.754 393.96 672.661 393.88C672.568 393.787 672.521 393.667 672.521 393.52V380.5C672.521 380.353 672.568 380.233 672.661 380.14C672.754 380.047 672.868 380 673.001 380H674.821C674.968 380 675.081 380.047 675.161 380.14C675.254 380.233 675.301 380.353 675.301 380.5V385.66H681.201V380.5C681.201 380.353 681.248 380.233 681.341 380.14C681.434 380.047 681.548 380 681.681 380H683.481C683.628 380 683.748 380.047 683.841 380.14C683.934 380.233 683.981 380.353 683.981 380.5V393.52C683.981 393.653 683.934 393.767 683.841 393.86C683.748 393.953 683.628 394 683.481 394H681.681C681.548 394 681.434 393.953 681.341 393.86C681.248 393.767 681.201 393.653 681.201 393.52V388.16H675.301V393.52C675.301 393.653 675.254 393.767 675.161 393.86C675.081 393.953 674.968 394 674.821 394H673.001ZM691.451 394.2C690.385 394.2 689.485 394.013 688.751 393.64C688.031 393.267 687.478 392.74 687.091 392.06C686.718 391.38 686.505 390.587 686.451 389.68C686.438 389.44 686.431 389.147 686.431 388.8C686.431 388.453 686.438 388.16 686.451 387.92C686.505 387 686.725 386.207 687.111 385.54C687.511 384.86 688.071 384.333 688.791 383.96C689.525 383.587 690.411 383.4 691.451 383.4C692.491 383.4 693.371 383.587 694.091 383.96C694.825 384.333 695.385 384.86 695.771 385.54C696.171 386.207 696.398 387 696.451 387.92C696.465 388.16 696.471 388.453 696.471 388.8C696.471 389.147 696.465 389.44 696.451 389.68C696.398 390.587 696.178 391.38 695.791 392.06C695.418 392.74 694.865 393.267 694.131 393.64C693.411 394.013 692.518 394.2 691.451 394.2ZM691.451 392.22C692.158 392.22 692.705 392 693.091 391.56C693.478 391.107 693.691 390.447 693.731 389.58C693.745 389.38 693.751 389.12 693.751 388.8C693.751 388.48 693.745 388.22 693.731 388.02C693.691 387.167 693.478 386.513 693.091 386.06C692.705 385.607 692.158 385.38 691.451 385.38C690.745 385.38 690.198 385.607 689.811 386.06C689.425 386.513 689.211 387.167 689.171 388.02C689.158 388.22 689.151 388.48 689.151 388.8C689.151 389.12 689.158 389.38 689.171 389.58C689.211 390.447 689.425 391.107 689.811 391.56C690.198 392 690.745 392.22 691.451 392.22ZM702.627 394.2C701.827 394.2 701.141 394.107 700.567 393.92C700.007 393.733 699.547 393.5 699.187 393.22C698.827 392.94 698.561 392.66 698.387 392.38C698.214 392.1 698.121 391.867 698.107 391.68C698.094 391.533 698.134 391.42 698.227 391.34C698.334 391.247 698.447 391.2 698.567 391.2H700.147C700.201 391.2 700.247 391.207 700.287 391.22C700.327 391.233 700.381 391.273 700.447 391.34C700.621 391.487 700.801 391.64 700.987 391.8C701.187 391.96 701.421 392.1 701.687 392.22C701.954 392.327 702.287 392.38 702.687 392.38C703.207 392.38 703.641 392.28 703.987 392.08C704.347 391.867 704.527 391.567 704.527 391.18C704.527 390.9 704.447 390.673 704.287 390.5C704.141 390.327 703.861 390.173 703.447 390.04C703.034 389.893 702.447 389.74 701.687 389.58C700.941 389.407 700.321 389.187 699.827 388.92C699.334 388.653 698.967 388.32 698.727 387.92C698.487 387.52 698.367 387.053 698.367 386.52C698.367 386 698.521 385.507 698.827 385.04C699.147 384.56 699.614 384.167 700.227 383.86C700.854 383.553 701.627 383.4 702.547 383.4C703.267 383.4 703.894 383.493 704.427 383.68C704.961 383.853 705.401 384.073 705.747 384.34C706.107 384.607 706.381 384.88 706.567 385.16C706.754 385.427 706.854 385.66 706.867 385.86C706.881 386.007 706.841 386.127 706.747 386.22C706.654 386.3 706.547 386.34 706.427 386.34H704.947C704.881 386.34 704.821 386.327 704.767 386.3C704.714 386.273 704.661 386.24 704.607 386.2C704.461 386.067 704.301 385.927 704.127 385.78C703.954 385.633 703.741 385.507 703.487 385.4C703.247 385.28 702.927 385.22 702.527 385.22C702.021 385.22 701.634 385.333 701.367 385.56C701.101 385.773 700.967 386.047 700.967 386.38C700.967 386.607 701.027 386.807 701.147 386.98C701.281 387.14 701.541 387.293 701.927 387.44C702.314 387.587 702.901 387.74 703.687 387.9C704.581 388.06 705.287 388.3 705.807 388.62C706.341 388.927 706.714 389.287 706.927 389.7C707.154 390.1 707.267 390.547 707.267 391.04C707.267 391.64 707.087 392.18 706.727 392.66C706.381 393.14 705.861 393.52 705.167 393.8C704.487 394.067 703.641 394.2 702.627 394.2ZM713.993 394C713.193 394 712.519 393.86 711.973 393.58C711.426 393.3 711.019 392.887 710.753 392.34C710.486 391.78 710.353 391.087 710.353 390.26V385.72H708.773C708.639 385.72 708.526 385.673 708.433 385.58C708.339 385.487 708.293 385.373 708.293 385.24V384.08C708.293 383.947 708.339 383.833 708.433 383.74C708.526 383.647 708.639 383.6 708.773 383.6H710.353V380.28C710.353 380.147 710.393 380.033 710.473 379.94C710.566 379.847 710.686 379.8 710.833 379.8H712.453C712.586 379.8 712.699 379.847 712.793 379.94C712.886 380.033 712.933 380.147 712.933 380.28V383.6H715.433C715.566 383.6 715.679 383.647 715.773 383.74C715.866 383.833 715.913 383.947 715.913 384.08V385.24C715.913 385.373 715.866 385.487 715.773 385.58C715.679 385.673 715.566 385.72 715.433 385.72H712.933V390.06C712.933 390.607 713.026 391.033 713.213 391.34C713.413 391.647 713.753 391.8 714.233 391.8H715.613C715.746 391.8 715.859 391.847 715.953 391.94C716.046 392.033 716.093 392.147 716.093 392.28V393.52C716.093 393.653 716.046 393.767 715.953 393.86C715.859 393.953 715.746 394 715.613 394H713.993Z" fill="#012626"/>
<g filter="url(#filter2_dii_9091_952)">
<rect width="300" height="310" rx="20" transform="matrix(0.866025 -0.5 0.866025 0.5 37 252)" fill="#C2D2F0" fill-opacity="0.8" shape-rendering="crispEdges"/>
</g>
<path d="M305 288.667C306.473 288.667 307.667 287.473 307.667 286C307.667 284.527 306.473 283.333 305 283.333C303.527 283.333 302.333 284.527 302.333 286C302.333 287.473 303.527 288.667 305 288.667ZM305 286.5H308V285.5H305V286.5ZM314 286.5H320V285.5H314V286.5ZM326 286.5H332V285.5H326V286.5ZM338 286.5H344V285.5H338V286.5ZM350 286.5H356V285.5H350V286.5ZM362 286.5H368V285.5H362V286.5ZM374 286.5H380V285.5H374V286.5ZM386 286.5H392V285.5H386V286.5ZM398 286.5H404V285.5H398V286.5ZM410 286.5H416V285.5H410V286.5ZM422 286.5H428V285.5H422V286.5ZM434 286.5H440V285.5H434V286.5ZM446 286.5H452V285.5H446V286.5ZM458 286.5H464V285.5H458V286.5ZM470 286.5H476V285.5H470V286.5ZM482 286.5H488V285.5H482V286.5ZM494 286.5H500V285.5H494V286.5ZM506 286.5H512V285.5H506V286.5ZM518 286.5H524V285.5H518V286.5ZM530 286.5H536V285.5H530V286.5ZM542 286.5H548V285.5H542V286.5ZM554 286.5H557V285.5H554V286.5Z" fill="#5D9393"/>
<rect x="569" y="266" width="40" height="40" rx="20" fill="#CEF7E3"/>
<path d="M584.189 293C584.055 293 583.942 292.953 583.849 292.86C583.755 292.767 583.709 292.653 583.709 292.52V291.5C583.709 291.38 583.735 291.24 583.789 291.08C583.855 290.907 583.995 290.733 584.209 290.56L587.369 287.42C588.249 286.727 588.955 286.14 589.489 285.66C590.035 285.167 590.429 284.72 590.669 284.32C590.922 283.907 591.049 283.5 591.049 283.1C591.049 282.5 590.882 282.013 590.549 281.64C590.229 281.267 589.715 281.08 589.009 281.08C588.542 281.08 588.149 281.18 587.829 281.38C587.509 281.567 587.255 281.82 587.069 282.14C586.895 282.46 586.775 282.813 586.709 283.2C586.682 283.373 586.609 283.493 586.489 283.56C586.369 283.627 586.249 283.66 586.129 283.66H584.349C584.229 283.66 584.129 283.62 584.049 283.54C583.969 283.46 583.929 283.367 583.929 283.26C583.942 282.687 584.062 282.133 584.289 281.6C584.515 281.053 584.842 280.573 585.269 280.16C585.709 279.733 586.242 279.393 586.869 279.14C587.495 278.887 588.202 278.76 588.989 278.76C590.095 278.76 591.009 278.947 591.729 279.32C592.462 279.693 593.009 280.2 593.369 280.84C593.742 281.48 593.929 282.2 593.929 283C593.929 283.627 593.809 284.207 593.569 284.74C593.329 285.26 592.982 285.767 592.529 286.26C592.075 286.74 591.529 287.233 590.889 287.74L588.049 290.62H593.749C593.895 290.62 594.009 290.667 594.089 290.76C594.182 290.84 594.229 290.953 594.229 291.1V292.52C594.229 292.653 594.182 292.767 594.089 292.86C594.009 292.953 593.895 293 593.749 293H584.189Z" fill="#012626"/>
<path d="M623.04 293C622.907 293 622.793 292.953 622.7 292.86C622.607 292.767 622.56 292.653 622.56 292.52V279.5C622.56 279.353 622.607 279.233 622.7 279.14C622.793 279.047 622.907 279 623.04 279H627.92C629.267 279 630.373 279.207 631.24 279.62C632.12 280.033 632.78 280.647 633.22 281.46C633.673 282.273 633.907 283.267 633.92 284.44C633.947 285.027 633.96 285.547 633.96 286C633.96 286.453 633.947 286.967 633.92 287.54C633.893 288.78 633.667 289.807 633.24 290.62C632.813 291.42 632.167 292.02 631.3 292.42C630.447 292.807 629.353 293 628.02 293H623.04ZM625.34 290.7H627.92C628.667 290.7 629.273 290.593 629.74 290.38C630.207 290.167 630.547 289.827 630.76 289.36C630.987 288.88 631.107 288.253 631.12 287.48C631.133 287.08 631.14 286.733 631.14 286.44C631.153 286.133 631.153 285.833 631.14 285.54C631.14 285.233 631.133 284.887 631.12 284.5C631.093 283.407 630.82 282.6 630.3 282.08C629.78 281.56 628.953 281.3 627.82 281.3H625.34V290.7ZM639.403 293.2C638.709 293.2 638.083 293.067 637.523 292.8C636.963 292.52 636.516 292.153 636.183 291.7C635.863 291.233 635.703 290.713 635.703 290.14C635.703 289.207 636.076 288.467 636.823 287.92C637.583 287.36 638.583 286.987 639.823 286.8L642.563 286.4V285.98C642.563 285.42 642.423 284.987 642.143 284.68C641.863 284.373 641.383 284.22 640.703 284.22C640.223 284.22 639.829 284.32 639.523 284.52C639.229 284.707 639.009 284.96 638.863 285.28C638.756 285.453 638.603 285.54 638.403 285.54H636.823C636.676 285.54 636.563 285.5 636.483 285.42C636.416 285.34 636.382 285.233 636.382 285.1C636.396 284.887 636.483 284.627 636.643 284.32C636.803 284.013 637.056 283.72 637.403 283.44C637.749 283.147 638.196 282.9 638.743 282.7C639.289 282.5 639.949 282.4 640.723 282.4C641.563 282.4 642.269 282.507 642.843 282.72C643.429 282.92 643.896 283.193 644.243 283.54C644.589 283.887 644.843 284.293 645.003 284.76C645.163 285.227 645.243 285.72 645.243 286.24V292.52C645.243 292.653 645.196 292.767 645.103 292.86C645.009 292.953 644.896 293 644.763 293H643.143C642.996 293 642.876 292.953 642.783 292.86C642.703 292.767 642.663 292.653 642.663 292.52V291.74C642.489 291.993 642.256 292.233 641.963 292.46C641.669 292.673 641.309 292.853 640.883 293C640.469 293.133 639.976 293.2 639.403 293.2ZM640.083 291.3C640.549 291.3 640.969 291.2 641.343 291C641.729 290.8 642.029 290.493 642.243 290.08C642.469 289.653 642.583 289.12 642.583 288.48V288.06L640.583 288.38C639.796 288.5 639.209 288.693 638.823 288.96C638.436 289.227 638.243 289.553 638.243 289.94C638.243 290.233 638.329 290.487 638.503 290.7C638.689 290.9 638.923 291.053 639.203 291.16C639.483 291.253 639.776 291.3 640.083 291.3ZM652.411 293C651.611 293 650.937 292.86 650.391 292.58C649.844 292.3 649.437 291.887 649.171 291.34C648.904 290.78 648.771 290.087 648.771 289.26V284.72H647.191C647.057 284.72 646.944 284.673 646.851 284.58C646.757 284.487 646.711 284.373 646.711 284.24V283.08C646.711 282.947 646.757 282.833 646.851 282.74C646.944 282.647 647.057 282.6 647.191 282.6H648.771V279.28C648.771 279.147 648.811 279.033 648.891 278.94C648.984 278.847 649.104 278.8 649.251 278.8H650.871C651.004 278.8 651.117 278.847 651.211 278.94C651.304 279.033 651.351 279.147 651.351 279.28V282.6H653.851C653.984 282.6 654.097 282.647 654.191 282.74C654.284 282.833 654.331 282.947 654.331 283.08V284.24C654.331 284.373 654.284 284.487 654.191 284.58C654.097 284.673 653.984 284.72 653.851 284.72H651.351V289.06C651.351 289.607 651.444 290.033 651.631 290.34C651.831 290.647 652.171 290.8 652.651 290.8H654.031C654.164 290.8 654.277 290.847 654.371 290.94C654.464 291.033 654.511 291.147 654.511 291.28V292.52C654.511 292.653 654.464 292.767 654.371 292.86C654.277 292.953 654.164 293 654.031 293H652.411ZM659.305 293.2C658.612 293.2 657.985 293.067 657.425 292.8C656.865 292.52 656.418 292.153 656.085 291.7C655.765 291.233 655.605 290.713 655.605 290.14C655.605 289.207 655.978 288.467 656.725 287.92C657.485 287.36 658.485 286.987 659.725 286.8L662.465 286.4V285.98C662.465 285.42 662.325 284.987 662.045 284.68C661.765 284.373 661.285 284.22 660.605 284.22C660.125 284.22 659.732 284.32 659.425 284.52C659.132 284.707 658.912 284.96 658.765 285.28C658.658 285.453 658.505 285.54 658.305 285.54H656.725C656.578 285.54 656.465 285.5 656.385 285.42C656.318 285.34 656.285 285.233 656.285 285.1C656.298 284.887 656.385 284.627 656.545 284.32C656.705 284.013 656.958 283.72 657.305 283.44C657.652 283.147 658.098 282.9 658.645 282.7C659.192 282.5 659.852 282.4 660.625 282.4C661.465 282.4 662.172 282.507 662.745 282.72C663.332 282.92 663.798 283.193 664.145 283.54C664.492 283.887 664.745 284.293 664.905 284.76C665.065 285.227 665.145 285.72 665.145 286.24V292.52C665.145 292.653 665.098 292.767 665.005 292.86C664.912 292.953 664.798 293 664.665 293H663.045C662.898 293 662.778 292.953 662.685 292.86C662.605 292.767 662.565 292.653 662.565 292.52V291.74C662.392 291.993 662.158 292.233 661.865 292.46C661.572 292.673 661.212 292.853 660.785 293C660.372 293.133 659.878 293.2 659.305 293.2ZM659.985 291.3C660.452 291.3 660.872 291.2 661.245 291C661.632 290.8 661.932 290.493 662.145 290.08C662.372 289.653 662.485 289.12 662.485 288.48V288.06L660.485 288.38C659.698 288.5 659.112 288.693 658.725 288.96C658.338 289.227 658.145 289.553 658.145 289.94C658.145 290.233 658.232 290.487 658.405 290.7C658.592 290.9 658.825 291.053 659.105 291.16C659.385 291.253 659.678 291.3 659.985 291.3ZM673.001 293C672.868 293 672.754 292.953 672.661 292.86C672.568 292.767 672.521 292.653 672.521 292.52V279.5C672.521 279.353 672.568 279.233 672.661 279.14C672.754 279.047 672.868 279 673.001 279H678.361C679.401 279 680.308 279.167 681.081 279.5C681.854 279.82 682.454 280.313 682.881 280.98C683.308 281.633 683.521 282.453 683.521 283.44C683.521 284.44 683.308 285.267 682.881 285.92C682.454 286.56 681.854 287.04 681.081 287.36C680.308 287.68 679.401 287.84 678.361 287.84H675.381V292.52C675.381 292.653 675.334 292.767 675.241 292.86C675.161 292.953 675.048 293 674.901 293H673.001ZM675.341 285.62H678.261C679.034 285.62 679.628 285.44 680.041 285.08C680.454 284.707 680.661 284.16 680.661 283.44C680.661 282.773 680.468 282.24 680.081 281.84C679.694 281.427 679.088 281.22 678.261 281.22H675.341V285.62ZM685.945 293C685.811 293 685.698 292.953 685.605 292.86C685.511 292.767 685.465 292.653 685.465 292.52V283.1C685.465 282.953 685.511 282.833 685.605 282.74C685.698 282.647 685.811 282.6 685.945 282.6H687.565C687.698 282.6 687.811 282.647 687.905 282.74C688.011 282.833 688.065 282.953 688.065 283.1V283.92C688.371 283.493 688.765 283.167 689.245 282.94C689.738 282.713 690.305 282.6 690.945 282.6H691.765C691.911 282.6 692.025 282.647 692.105 282.74C692.198 282.833 692.245 282.947 692.245 283.08V284.52C692.245 284.653 692.198 284.767 692.105 284.86C692.025 284.953 691.911 285 691.765 285H690.205C689.565 285 689.065 285.18 688.705 285.54C688.358 285.9 688.185 286.393 688.185 287.02V292.52C688.185 292.653 688.138 292.767 688.045 292.86C687.951 292.953 687.831 293 687.685 293H685.945ZM698.148 293.2C696.668 293.2 695.494 292.773 694.628 291.92C693.761 291.067 693.294 289.853 693.228 288.28C693.214 288.147 693.208 287.98 693.208 287.78C693.208 287.567 693.214 287.4 693.228 287.28C693.281 286.28 693.508 285.413 693.908 284.68C694.321 283.947 694.888 283.387 695.608 283C696.328 282.6 697.174 282.4 698.148 282.4C699.228 282.4 700.134 282.627 700.868 283.08C701.601 283.52 702.154 284.14 702.528 284.94C702.901 285.727 703.088 286.64 703.088 287.68V288.1C703.088 288.233 703.041 288.347 702.948 288.44C702.854 288.533 702.734 288.58 702.588 288.58H695.948C695.948 288.58 695.948 288.6 695.948 288.64C695.948 288.68 695.948 288.713 695.948 288.74C695.961 289.207 696.048 289.64 696.208 290.04C696.381 290.427 696.628 290.74 696.948 290.98C697.281 291.22 697.674 291.34 698.128 291.34C698.501 291.34 698.814 291.287 699.068 291.18C699.321 291.06 699.528 290.927 699.688 290.78C699.848 290.633 699.961 290.513 700.028 290.42C700.148 290.26 700.241 290.167 700.308 290.14C700.388 290.1 700.501 290.08 700.648 290.08H702.368C702.501 290.08 702.608 290.12 702.688 290.2C702.781 290.28 702.821 290.38 702.808 290.5C702.794 290.713 702.681 290.973 702.468 291.28C702.268 291.587 701.974 291.887 701.588 292.18C701.201 292.473 700.714 292.72 700.128 292.92C699.554 293.107 698.894 293.2 698.148 293.2ZM695.948 286.9H700.368V286.84C700.368 286.32 700.281 285.867 700.108 285.48C699.934 285.093 699.681 284.787 699.348 284.56C699.014 284.333 698.614 284.22 698.148 284.22C697.681 284.22 697.281 284.333 696.948 284.56C696.614 284.787 696.361 285.093 696.188 285.48C696.028 285.867 695.948 286.32 695.948 286.84V286.9ZM705.631 288.14C705.484 288.14 705.364 288.093 705.271 288C705.191 287.907 705.151 287.793 705.151 287.66V286.34C705.151 286.207 705.191 286.093 705.271 286C705.364 285.907 705.484 285.86 705.631 285.86H711.771C711.904 285.86 712.017 285.907 712.111 286C712.204 286.093 712.251 286.207 712.251 286.34V287.66C712.251 287.793 712.204 287.907 712.111 288C712.017 288.093 711.904 288.14 711.771 288.14H705.631ZM715.442 293C715.309 293 715.196 292.953 715.102 292.86C715.009 292.767 714.962 292.653 714.962 292.52V279.5C714.962 279.353 715.009 279.233 715.102 279.14C715.196 279.047 715.309 279 715.442 279H720.802C721.842 279 722.749 279.167 723.522 279.5C724.296 279.82 724.896 280.313 725.322 280.98C725.749 281.633 725.962 282.453 725.962 283.44C725.962 284.44 725.749 285.267 725.322 285.92C724.896 286.56 724.296 287.04 723.522 287.36C722.749 287.68 721.842 287.84 720.802 287.84H717.822V292.52C717.822 292.653 717.776 292.767 717.682 292.86C717.602 292.953 717.489 293 717.342 293H715.442ZM717.782 285.62H720.702C721.476 285.62 722.069 285.44 722.482 285.08C722.896 284.707 723.102 284.16 723.102 283.44C723.102 282.773 722.909 282.24 722.522 281.84C722.136 281.427 721.529 281.22 720.702 281.22H717.782V285.62ZM728.386 293C728.253 293 728.139 292.953 728.046 292.86C727.953 292.767 727.906 292.653 727.906 292.52V283.1C727.906 282.953 727.953 282.833 728.046 282.74C728.139 282.647 728.253 282.6 728.386 282.6H730.006C730.139 282.6 730.253 282.647 730.346 282.74C730.453 282.833 730.506 282.953 730.506 283.1V283.92C730.813 283.493 731.206 283.167 731.686 282.94C732.179 282.713 732.746 282.6 733.386 282.6H734.206C734.353 282.6 734.466 282.647 734.546 282.74C734.639 282.833 734.686 282.947 734.686 283.08V284.52C734.686 284.653 734.639 284.767 734.546 284.86C734.466 284.953 734.353 285 734.206 285H732.646C732.006 285 731.506 285.18 731.146 285.54C730.799 285.9 730.626 286.393 730.626 287.02V292.52C730.626 292.653 730.579 292.767 730.486 292.86C730.393 292.953 730.273 293 730.126 293H728.386ZM740.709 293.2C739.642 293.2 738.742 293.013 738.009 292.64C737.289 292.267 736.736 291.74 736.349 291.06C735.976 290.38 735.762 289.587 735.709 288.68C735.696 288.44 735.689 288.147 735.689 287.8C735.689 287.453 735.696 287.16 735.709 286.92C735.762 286 735.982 285.207 736.369 284.54C736.769 283.86 737.329 283.333 738.049 282.96C738.782 282.587 739.669 282.4 740.709 282.4C741.749 282.4 742.629 282.587 743.349 282.96C744.082 283.333 744.642 283.86 745.029 284.54C745.429 285.207 745.656 286 745.709 286.92C745.722 287.16 745.729 287.453 745.729 287.8C745.729 288.147 745.722 288.44 745.709 288.68C745.656 289.587 745.436 290.38 745.049 291.06C744.676 291.74 744.122 292.267 743.389 292.64C742.669 293.013 741.776 293.2 740.709 293.2ZM740.709 291.22C741.416 291.22 741.962 291 742.349 290.56C742.736 290.107 742.949 289.447 742.989 288.58C743.002 288.38 743.009 288.12 743.009 287.8C743.009 287.48 743.002 287.22 742.989 287.02C742.949 286.167 742.736 285.513 742.349 285.06C741.962 284.607 741.416 284.38 740.709 284.38C740.002 284.38 739.456 284.607 739.069 285.06C738.682 285.513 738.469 286.167 738.429 287.02C738.416 287.22 738.409 287.48 738.409 287.8C738.409 288.12 738.416 288.38 738.429 288.58C738.469 289.447 738.682 290.107 739.069 290.56C739.456 291 740.002 291.22 740.709 291.22ZM752.445 293.2C751.485 293.2 750.638 293.02 749.905 292.66C749.185 292.3 748.618 291.78 748.205 291.1C747.805 290.407 747.585 289.573 747.545 288.6C747.532 288.4 747.525 288.14 747.525 287.82C747.525 287.487 747.532 287.213 747.545 287C747.585 286.027 747.805 285.2 748.205 284.52C748.618 283.827 749.185 283.3 749.905 282.94C750.638 282.58 751.485 282.4 752.445 282.4C753.298 282.4 754.025 282.52 754.625 282.76C755.225 283 755.718 283.3 756.105 283.66C756.492 284.02 756.778 284.4 756.965 284.8C757.165 285.187 757.272 285.54 757.285 285.86C757.298 286.007 757.252 286.127 757.145 286.22C757.052 286.3 756.938 286.34 756.805 286.34H755.045C754.912 286.34 754.805 286.307 754.725 286.24C754.658 286.173 754.592 286.073 754.525 285.94C754.325 285.407 754.058 285.033 753.725 284.82C753.405 284.593 752.992 284.48 752.485 284.48C751.818 284.48 751.285 284.693 750.885 285.12C750.498 285.533 750.292 286.193 750.265 287.1C750.238 287.607 750.238 288.073 750.265 288.5C750.292 289.42 750.498 290.087 750.885 290.5C751.285 290.913 751.818 291.12 752.485 291.12C753.005 291.12 753.425 291.013 753.745 290.8C754.065 290.573 754.325 290.193 754.525 289.66C754.592 289.527 754.658 289.427 754.725 289.36C754.805 289.293 754.912 289.26 755.045 289.26H756.805C756.938 289.26 757.052 289.307 757.145 289.4C757.252 289.48 757.298 289.593 757.285 289.74C757.272 289.98 757.205 290.253 757.085 290.56C756.978 290.853 756.798 291.16 756.545 291.48C756.305 291.787 755.998 292.073 755.625 292.34C755.252 292.593 754.798 292.8 754.265 292.96C753.745 293.12 753.138 293.2 752.445 293.2ZM763.851 293.2C762.371 293.2 761.197 292.773 760.331 291.92C759.464 291.067 758.997 289.853 758.931 288.28C758.917 288.147 758.911 287.98 758.911 287.78C758.911 287.567 758.917 287.4 758.931 287.28C758.984 286.28 759.211 285.413 759.611 284.68C760.024 283.947 760.591 283.387 761.311 283C762.031 282.6 762.877 282.4 763.851 282.4C764.931 282.4 765.837 282.627 766.571 283.08C767.304 283.52 767.857 284.14 768.231 284.94C768.604 285.727 768.791 286.64 768.791 287.68V288.1C768.791 288.233 768.744 288.347 768.651 288.44C768.557 288.533 768.437 288.58 768.291 288.58H761.651C761.651 288.58 761.651 288.6 761.651 288.64C761.651 288.68 761.651 288.713 761.651 288.74C761.664 289.207 761.751 289.64 761.911 290.04C762.084 290.427 762.331 290.74 762.651 290.98C762.984 291.22 763.377 291.34 763.831 291.34C764.204 291.34 764.517 291.287 764.771 291.18C765.024 291.06 765.231 290.927 765.391 290.78C765.551 290.633 765.664 290.513 765.731 290.42C765.851 290.26 765.944 290.167 766.011 290.14C766.091 290.1 766.204 290.08 766.351 290.08H768.071C768.204 290.08 768.311 290.12 768.391 290.2C768.484 290.28 768.524 290.38 768.511 290.5C768.497 290.713 768.384 290.973 768.171 291.28C767.971 291.587 767.677 291.887 767.291 292.18C766.904 292.473 766.417 292.72 765.831 292.92C765.257 293.107 764.597 293.2 763.851 293.2ZM761.651 286.9H766.071V286.84C766.071 286.32 765.984 285.867 765.811 285.48C765.637 285.093 765.384 284.787 765.051 284.56C764.717 284.333 764.317 284.22 763.851 284.22C763.384 284.22 762.984 284.333 762.651 284.56C762.317 284.787 762.064 285.093 761.891 285.48C761.731 285.867 761.651 286.32 761.651 286.84V286.9ZM774.854 293.2C774.054 293.2 773.367 293.107 772.794 292.92C772.234 292.733 771.774 292.5 771.414 292.22C771.054 291.94 770.787 291.66 770.614 291.38C770.44 291.1 770.347 290.867 770.334 290.68C770.32 290.533 770.36 290.42 770.454 290.34C770.56 290.247 770.674 290.2 770.794 290.2H772.374C772.427 290.2 772.474 290.207 772.514 290.22C772.554 290.233 772.607 290.273 772.674 290.34C772.847 290.487 773.027 290.64 773.214 290.8C773.414 290.96 773.647 291.1 773.914 291.22C774.18 291.327 774.514 291.38 774.914 291.38C775.434 291.38 775.867 291.28 776.214 291.08C776.574 290.867 776.754 290.567 776.754 290.18C776.754 289.9 776.674 289.673 776.514 289.5C776.367 289.327 776.087 289.173 775.674 289.04C775.26 288.893 774.674 288.74 773.914 288.58C773.167 288.407 772.547 288.187 772.054 287.92C771.56 287.653 771.194 287.32 770.954 286.92C770.714 286.52 770.594 286.053 770.594 285.52C770.594 285 770.747 284.507 771.054 284.04C771.374 283.56 771.84 283.167 772.454 282.86C773.08 282.553 773.854 282.4 774.774 282.4C775.494 282.4 776.12 282.493 776.654 282.68C777.187 282.853 777.627 283.073 777.974 283.34C778.334 283.607 778.607 283.88 778.794 284.16C778.98 284.427 779.08 284.66 779.094 284.86C779.107 285.007 779.067 285.127 778.974 285.22C778.88 285.3 778.774 285.34 778.654 285.34H777.174C777.107 285.34 777.047 285.327 776.994 285.3C776.94 285.273 776.887 285.24 776.834 285.2C776.687 285.067 776.527 284.927 776.354 284.78C776.18 284.633 775.967 284.507 775.714 284.4C775.474 284.28 775.154 284.22 774.754 284.22C774.247 284.22 773.86 284.333 773.594 284.56C773.327 284.773 773.194 285.047 773.194 285.38C773.194 285.607 773.254 285.807 773.374 285.98C773.507 286.14 773.767 286.293 774.154 286.44C774.54 286.587 775.127 286.74 775.914 286.9C776.807 287.06 777.514 287.3 778.034 287.62C778.567 287.927 778.94 288.287 779.154 288.7C779.38 289.1 779.494 289.547 779.494 290.04C779.494 290.64 779.314 291.18 778.954 291.66C778.607 292.14 778.087 292.52 777.394 292.8C776.714 293.067 775.867 293.2 774.854 293.2ZM785.498 293.2C784.698 293.2 784.012 293.107 783.438 292.92C782.878 292.733 782.418 292.5 782.058 292.22C781.698 291.94 781.432 291.66 781.258 291.38C781.085 291.1 780.992 290.867 780.978 290.68C780.965 290.533 781.005 290.42 781.098 290.34C781.205 290.247 781.318 290.2 781.438 290.2H783.018C783.072 290.2 783.118 290.207 783.158 290.22C783.198 290.233 783.252 290.273 783.318 290.34C783.492 290.487 783.672 290.64 783.858 290.8C784.058 290.96 784.292 291.1 784.558 291.22C784.825 291.327 785.158 291.38 785.558 291.38C786.078 291.38 786.512 291.28 786.858 291.08C787.218 290.867 787.398 290.567 787.398 290.18C787.398 289.9 787.318 289.673 787.158 289.5C787.012 289.327 786.732 289.173 786.318 289.04C785.905 288.893 785.318 288.74 784.558 288.58C783.812 288.407 783.192 288.187 782.698 287.92C782.205 287.653 781.838 287.32 781.598 286.92C781.358 286.52 781.238 286.053 781.238 285.52C781.238 285 781.392 284.507 781.698 284.04C782.018 283.56 782.485 283.167 783.098 282.86C783.725 282.553 784.498 282.4 785.418 282.4C786.138 282.4 786.765 282.493 787.298 282.68C787.832 282.853 788.272 283.073 788.618 283.34C788.978 283.607 789.252 283.88 789.438 284.16C789.625 284.427 789.725 284.66 789.738 284.86C789.752 285.007 789.712 285.127 789.618 285.22C789.525 285.3 789.418 285.34 789.298 285.34H787.818C787.752 285.34 787.692 285.327 787.638 285.3C787.585 285.273 787.532 285.24 787.478 285.2C787.332 285.067 787.172 284.927 786.998 284.78C786.825 284.633 786.612 284.507 786.358 284.4C786.118 284.28 785.798 284.22 785.398 284.22C784.892 284.22 784.505 284.333 784.238 284.56C783.972 284.773 783.838 285.047 783.838 285.38C783.838 285.607 783.898 285.807 784.018 285.98C784.152 286.14 784.412 286.293 784.798 286.44C785.185 286.587 785.772 286.74 786.558 286.9C787.452 287.06 788.158 287.3 788.678 287.62C789.212 287.927 789.585 288.287 789.798 288.7C790.025 289.1 790.138 289.547 790.138 290.04C790.138 290.64 789.958 291.18 789.598 291.66C789.252 292.14 788.732 292.52 788.038 292.8C787.358 293.067 786.512 293.2 785.498 293.2ZM796.803 293.2C795.736 293.2 794.836 293.013 794.103 292.64C793.383 292.267 792.829 291.74 792.443 291.06C792.069 290.38 791.856 289.587 791.803 288.68C791.789 288.44 791.783 288.147 791.783 287.8C791.783 287.453 791.789 287.16 791.803 286.92C791.856 286 792.076 285.207 792.463 284.54C792.863 283.86 793.423 283.333 794.143 282.96C794.876 282.587 795.763 282.4 796.803 282.4C797.843 282.4 798.723 282.587 799.443 282.96C800.176 283.333 800.736 283.86 801.123 284.54C801.523 285.207 801.749 286 801.803 286.92C801.816 287.16 801.823 287.453 801.823 287.8C801.823 288.147 801.816 288.44 801.803 288.68C801.749 289.587 801.529 290.38 801.143 291.06C800.769 291.74 800.216 292.267 799.483 292.64C798.763 293.013 797.869 293.2 796.803 293.2ZM796.803 291.22C797.509 291.22 798.056 291 798.443 290.56C798.829 290.107 799.043 289.447 799.083 288.58C799.096 288.38 799.103 288.12 799.103 287.8C799.103 287.48 799.096 287.22 799.083 287.02C799.043 286.167 798.829 285.513 798.443 285.06C798.056 284.607 797.509 284.38 796.803 284.38C796.096 284.38 795.549 284.607 795.163 285.06C794.776 285.513 794.563 286.167 794.523 287.02C794.509 287.22 794.503 287.48 794.503 287.8C794.503 288.12 794.509 288.38 794.523 288.58C794.563 289.447 794.776 290.107 795.163 290.56C795.549 291 796.096 291.22 796.803 291.22ZM804.519 293C804.385 293 804.272 292.953 804.179 292.86C804.085 292.767 804.039 292.653 804.039 292.52V283.1C804.039 282.953 804.085 282.833 804.179 282.74C804.272 282.647 804.385 282.6 804.519 282.6H806.139C806.272 282.6 806.385 282.647 806.479 282.74C806.585 282.833 806.639 282.953 806.639 283.1V283.92C806.945 283.493 807.339 283.167 807.819 282.94C808.312 282.713 808.879 282.6 809.519 282.6H810.339C810.485 282.6 810.599 282.647 810.679 282.74C810.772 282.833 810.819 282.947 810.819 283.08V284.52C810.819 284.653 810.772 284.767 810.679 284.86C810.599 284.953 810.485 285 810.339 285H808.779C808.139 285 807.639 285.18 807.279 285.54C806.932 285.9 806.759 286.393 806.759 287.02V292.52C806.759 292.653 806.712 292.767 806.619 292.86C806.525 292.953 806.405 293 806.259 293H804.519Z" fill="#012626"/>
<g filter="url(#filter3_dii_9091_952)">
<rect width="300" height="310" rx="20" transform="matrix(0.866025 -0.5 0.866025 0.5 37 160)" fill="#C2F0E8" fill-opacity="0.8" shape-rendering="crispEdges"/>
</g>
<path d="M305 145.667C306.473 145.667 307.667 144.473 307.667 143C307.667 141.527 306.473 140.333 305 140.333C303.527 140.333 302.333 141.527 302.333 143C302.333 144.473 303.527 145.667 305 145.667ZM305 143.5H308V142.5H305V143.5ZM314 143.5H320V142.5H314V143.5ZM326 143.5H332V142.5H326V143.5ZM338 143.5H344V142.5H338V143.5ZM350 143.5H356V142.5H350V143.5ZM362 143.5H368V142.5H362V143.5ZM374 143.5H380V142.5H374V143.5ZM386 143.5H392V142.5H386V143.5ZM398 143.5H404V142.5H398V143.5ZM410 143.5H416V142.5H410V143.5ZM422 143.5H428V142.5H422V143.5ZM434 143.5H440V142.5H434V143.5ZM446 143.5H452V142.5H446V143.5ZM458 143.5H464V142.5H458V143.5ZM470 143.5H476V142.5H470V143.5ZM482 143.5H488V142.5H482V143.5ZM494 143.5H500V142.5H494V143.5ZM506 143.5H512V142.5H506V143.5ZM518 143.5H524V142.5H518V143.5ZM530 143.5H536V142.5H530V143.5ZM542 143.5H548V142.5H542V143.5ZM554 143.5H557V142.5H554V143.5Z" fill="#5D9393"/>
<rect x="569" y="123" width="40" height="40" rx="20" fill="#CEF7E3"/>
<path d="M589.911 150C589.764 150 589.644 149.953 589.551 149.86C589.471 149.767 589.431 149.653 589.431 149.52V139.16L586.391 141.5C586.271 141.58 586.151 141.613 586.031 141.6C585.911 141.573 585.804 141.5 585.711 141.38L584.871 140.3C584.791 140.18 584.758 140.053 584.771 139.92C584.798 139.787 584.871 139.68 584.991 139.6L589.471 136.14C589.551 136.073 589.631 136.033 589.711 136.02C589.791 136.007 589.878 136 589.971 136H591.731C591.864 136 591.978 136.047 592.071 136.14C592.164 136.233 592.211 136.347 592.211 136.48V149.52C592.211 149.653 592.164 149.767 592.071 149.86C591.978 149.953 591.864 150 591.731 150H589.911Z" fill="#012626"/>
<path d="M623.04 150C622.907 150 622.793 149.953 622.7 149.86C622.607 149.767 622.56 149.653 622.56 149.52V136.5C622.56 136.353 622.607 136.233 622.7 136.14C622.793 136.047 622.907 136 623.04 136H627.92C629.267 136 630.373 136.207 631.24 136.62C632.12 137.033 632.78 137.647 633.22 138.46C633.673 139.273 633.907 140.267 633.92 141.44C633.947 142.027 633.96 142.547 633.96 143C633.96 143.453 633.947 143.967 633.92 144.54C633.893 145.78 633.667 146.807 633.24 147.62C632.813 148.42 632.167 149.02 631.3 149.42C630.447 149.807 629.353 150 628.02 150H623.04ZM625.34 147.7H627.92C628.667 147.7 629.273 147.593 629.74 147.38C630.207 147.167 630.547 146.827 630.76 146.36C630.987 145.88 631.107 145.253 631.12 144.48C631.133 144.08 631.14 143.733 631.14 143.44C631.153 143.133 631.153 142.833 631.14 142.54C631.14 142.233 631.133 141.887 631.12 141.5C631.093 140.407 630.82 139.6 630.3 139.08C629.78 138.56 628.953 138.3 627.82 138.3H625.34V147.7ZM639.403 150.2C638.709 150.2 638.083 150.067 637.523 149.8C636.963 149.52 636.516 149.153 636.183 148.7C635.863 148.233 635.703 147.713 635.703 147.14C635.703 146.207 636.076 145.467 636.823 144.92C637.583 144.36 638.583 143.987 639.823 143.8L642.563 143.4V142.98C642.563 142.42 642.423 141.987 642.143 141.68C641.863 141.373 641.383 141.22 640.703 141.22C640.223 141.22 639.829 141.32 639.523 141.52C639.229 141.707 639.009 141.96 638.863 142.28C638.756 142.453 638.603 142.54 638.403 142.54H636.823C636.676 142.54 636.563 142.5 636.483 142.42C636.416 142.34 636.382 142.233 636.382 142.1C636.396 141.887 636.483 141.627 636.643 141.32C636.803 141.013 637.056 140.72 637.403 140.44C637.749 140.147 638.196 139.9 638.743 139.7C639.289 139.5 639.949 139.4 640.723 139.4C641.563 139.4 642.269 139.507 642.843 139.72C643.429 139.92 643.896 140.193 644.243 140.54C644.589 140.887 644.843 141.293 645.003 141.76C645.163 142.227 645.243 142.72 645.243 143.24V149.52C645.243 149.653 645.196 149.767 645.103 149.86C645.009 149.953 644.896 150 644.763 150H643.143C642.996 150 642.876 149.953 642.783 149.86C642.703 149.767 642.663 149.653 642.663 149.52V148.74C642.489 148.993 642.256 149.233 641.963 149.46C641.669 149.673 641.309 149.853 640.883 150C640.469 150.133 639.976 150.2 639.403 150.2ZM640.083 148.3C640.549 148.3 640.969 148.2 641.343 148C641.729 147.8 642.029 147.493 642.243 147.08C642.469 146.653 642.583 146.12 642.583 145.48V145.06L640.583 145.38C639.796 145.5 639.209 145.693 638.823 145.96C638.436 146.227 638.243 146.553 638.243 146.94C638.243 147.233 638.329 147.487 638.503 147.7C638.689 147.9 638.923 148.053 639.203 148.16C639.483 148.253 639.776 148.3 640.083 148.3ZM652.411 150C651.611 150 650.937 149.86 650.391 149.58C649.844 149.3 649.437 148.887 649.171 148.34C648.904 147.78 648.771 147.087 648.771 146.26V141.72H647.191C647.057 141.72 646.944 141.673 646.851 141.58C646.757 141.487 646.711 141.373 646.711 141.24V140.08C646.711 139.947 646.757 139.833 646.851 139.74C646.944 139.647 647.057 139.6 647.191 139.6H648.771V136.28C648.771 136.147 648.811 136.033 648.891 135.94C648.984 135.847 649.104 135.8 649.251 135.8H650.871C651.004 135.8 651.117 135.847 651.211 135.94C651.304 136.033 651.351 136.147 651.351 136.28V139.6H653.851C653.984 139.6 654.097 139.647 654.191 139.74C654.284 139.833 654.331 139.947 654.331 140.08V141.24C654.331 141.373 654.284 141.487 654.191 141.58C654.097 141.673 653.984 141.72 653.851 141.72H651.351V146.06C651.351 146.607 651.444 147.033 651.631 147.34C651.831 147.647 652.171 147.8 652.651 147.8H654.031C654.164 147.8 654.277 147.847 654.371 147.94C654.464 148.033 654.511 148.147 654.511 148.28V149.52C654.511 149.653 654.464 149.767 654.371 149.86C654.277 149.953 654.164 150 654.031 150H652.411ZM659.305 150.2C658.612 150.2 657.985 150.067 657.425 149.8C656.865 149.52 656.418 149.153 656.085 148.7C655.765 148.233 655.605 147.713 655.605 147.14C655.605 146.207 655.978 145.467 656.725 144.92C657.485 144.36 658.485 143.987 659.725 143.8L662.465 143.4V142.98C662.465 142.42 662.325 141.987 662.045 141.68C661.765 141.373 661.285 141.22 660.605 141.22C660.125 141.22 659.732 141.32 659.425 141.52C659.132 141.707 658.912 141.96 658.765 142.28C658.658 142.453 658.505 142.54 658.305 142.54H656.725C656.578 142.54 656.465 142.5 656.385 142.42C656.318 142.34 656.285 142.233 656.285 142.1C656.298 141.887 656.385 141.627 656.545 141.32C656.705 141.013 656.958 140.72 657.305 140.44C657.652 140.147 658.098 139.9 658.645 139.7C659.192 139.5 659.852 139.4 660.625 139.4C661.465 139.4 662.172 139.507 662.745 139.72C663.332 139.92 663.798 140.193 664.145 140.54C664.492 140.887 664.745 141.293 664.905 141.76C665.065 142.227 665.145 142.72 665.145 143.24V149.52C665.145 149.653 665.098 149.767 665.005 149.86C664.912 149.953 664.798 150 664.665 150H663.045C662.898 150 662.778 149.953 662.685 149.86C662.605 149.767 662.565 149.653 662.565 149.52V148.74C662.392 148.993 662.158 149.233 661.865 149.46C661.572 149.673 661.212 149.853 660.785 150C660.372 150.133 659.878 150.2 659.305 150.2ZM659.985 148.3C660.452 148.3 660.872 148.2 661.245 148C661.632 147.8 661.932 147.493 662.145 147.08C662.372 146.653 662.485 146.12 662.485 145.48V145.06L660.485 145.38C659.698 145.5 659.112 145.693 658.725 145.96C658.338 146.227 658.145 146.553 658.145 146.94C658.145 147.233 658.232 147.487 658.405 147.7C658.592 147.9 658.825 148.053 659.105 148.16C659.385 148.253 659.678 148.3 659.985 148.3ZM673.001 150C672.868 150 672.754 149.953 672.661 149.86C672.568 149.767 672.521 149.653 672.521 149.52V136.5C672.521 136.353 672.568 136.233 672.661 136.14C672.754 136.047 672.868 136 673.001 136H678.361C679.401 136 680.308 136.167 681.081 136.5C681.854 136.82 682.454 137.313 682.881 137.98C683.308 138.633 683.521 139.453 683.521 140.44C683.521 141.44 683.308 142.267 682.881 142.92C682.454 143.56 681.854 144.04 681.081 144.36C680.308 144.68 679.401 144.84 678.361 144.84H675.381V149.52C675.381 149.653 675.334 149.767 675.241 149.86C675.161 149.953 675.048 150 674.901 150H673.001ZM675.341 142.62H678.261C679.034 142.62 679.628 142.44 680.041 142.08C680.454 141.707 680.661 141.16 680.661 140.44C680.661 139.773 680.468 139.24 680.081 138.84C679.694 138.427 679.088 138.22 678.261 138.22H675.341V142.62ZM689.325 150.2C688.511 150.2 687.805 150.02 687.205 149.66C686.618 149.287 686.165 148.767 685.845 148.1C685.525 147.42 685.365 146.62 685.365 145.7V140.08C685.365 139.947 685.411 139.833 685.505 139.74C685.598 139.647 685.711 139.6 685.845 139.6H687.605C687.751 139.6 687.865 139.647 687.945 139.74C688.038 139.833 688.085 139.947 688.085 140.08V145.58C688.085 147.233 688.811 148.06 690.265 148.06C690.958 148.06 691.505 147.84 691.905 147.4C692.318 146.96 692.525 146.353 692.525 145.58V140.08C692.525 139.947 692.571 139.833 692.665 139.74C692.758 139.647 692.871 139.6 693.005 139.6H694.765C694.898 139.6 695.011 139.647 695.105 139.74C695.198 139.833 695.245 139.947 695.245 140.08V149.52C695.245 149.653 695.198 149.767 695.105 149.86C695.011 149.953 694.898 150 694.765 150H693.145C692.998 150 692.878 149.953 692.785 149.86C692.705 149.767 692.665 149.653 692.665 149.52V148.7C692.305 149.167 691.858 149.533 691.325 149.8C690.791 150.067 690.125 150.2 689.325 150.2ZM703.646 150.2C702.873 150.2 702.226 150.067 701.706 149.8C701.2 149.533 700.78 149.193 700.446 148.78V149.52C700.446 149.653 700.4 149.767 700.306 149.86C700.226 149.953 700.113 150 699.966 150H698.386C698.253 150 698.14 149.953 698.046 149.86C697.953 149.767 697.906 149.653 697.906 149.52V136.28C697.906 136.147 697.953 136.033 698.046 135.94C698.14 135.847 698.253 135.8 698.386 135.8H700.086C700.233 135.8 700.346 135.847 700.426 135.94C700.52 136.033 700.566 136.147 700.566 136.28V140.72C700.9 140.333 701.313 140.02 701.806 139.78C702.313 139.527 702.926 139.4 703.646 139.4C704.353 139.4 704.966 139.52 705.486 139.76C706.006 140 706.44 140.34 706.786 140.78C707.146 141.207 707.42 141.707 707.606 142.28C707.793 142.853 707.893 143.473 707.906 144.14C707.92 144.38 707.926 144.6 707.926 144.8C707.926 144.987 707.92 145.2 707.906 145.44C707.88 146.133 707.773 146.773 707.586 147.36C707.4 147.933 707.133 148.433 706.786 148.86C706.44 149.287 706.006 149.62 705.486 149.86C704.966 150.087 704.353 150.2 703.646 150.2ZM702.906 148.06C703.48 148.06 703.926 147.94 704.246 147.7C704.566 147.447 704.793 147.12 704.926 146.72C705.073 146.32 705.16 145.88 705.186 145.4C705.213 145 705.213 144.6 705.186 144.2C705.16 143.72 705.073 143.28 704.926 142.88C704.793 142.48 704.566 142.16 704.246 141.92C703.926 141.667 703.48 141.54 702.906 141.54C702.373 141.54 701.94 141.66 701.606 141.9C701.273 142.14 701.02 142.447 700.846 142.82C700.673 143.18 700.58 143.56 700.566 143.96C700.553 144.2 700.546 144.46 700.546 144.74C700.546 145.007 700.553 145.26 700.566 145.5C700.593 145.913 700.68 146.32 700.826 146.72C700.986 147.107 701.233 147.427 701.566 147.68C701.913 147.933 702.36 148.06 702.906 148.06ZM710.652 150C710.519 150 710.405 149.953 710.312 149.86C710.219 149.767 710.172 149.653 710.172 149.52V136.28C710.172 136.147 710.219 136.033 710.312 135.94C710.405 135.847 710.519 135.8 710.652 135.8H712.312C712.445 135.8 712.559 135.847 712.652 135.94C712.745 136.033 712.792 136.147 712.792 136.28V149.52C712.792 149.653 712.745 149.767 712.652 149.86C712.559 149.953 712.445 150 712.312 150H710.652ZM715.925 150C715.792 150 715.678 149.953 715.585 149.86C715.492 149.767 715.445 149.653 715.445 149.52V140.08C715.445 139.947 715.492 139.833 715.585 139.74C715.678 139.647 715.792 139.6 715.925 139.6H717.585C717.732 139.6 717.845 139.647 717.925 139.74C718.018 139.833 718.065 139.947 718.065 140.08V149.52C718.065 149.653 718.018 149.767 717.925 149.86C717.845 149.953 717.732 150 717.585 150H715.925ZM715.845 137.88C715.698 137.88 715.578 137.84 715.485 137.76C715.405 137.667 715.365 137.547 715.365 137.4V135.96C715.365 135.827 715.405 135.713 715.485 135.62C715.578 135.527 715.698 135.48 715.845 135.48H717.665C717.812 135.48 717.932 135.527 718.025 135.62C718.118 135.713 718.165 135.827 718.165 135.96V137.4C718.165 137.547 718.118 137.667 718.025 137.76C717.932 137.84 717.812 137.88 717.665 137.88H715.845ZM724.658 150.2C723.858 150.2 723.172 150.107 722.598 149.92C722.038 149.733 721.578 149.5 721.218 149.22C720.858 148.94 720.592 148.66 720.418 148.38C720.245 148.1 720.152 147.867 720.138 147.68C720.125 147.533 720.165 147.42 720.258 147.34C720.365 147.247 720.478 147.2 720.598 147.2H722.178C722.232 147.2 722.278 147.207 722.318 147.22C722.358 147.233 722.412 147.273 722.478 147.34C722.652 147.487 722.832 147.64 723.018 147.8C723.218 147.96 723.452 148.1 723.718 148.22C723.985 148.327 724.318 148.38 724.718 148.38C725.238 148.38 725.672 148.28 726.018 148.08C726.378 147.867 726.558 147.567 726.558 147.18C726.558 146.9 726.478 146.673 726.318 146.5C726.172 146.327 725.892 146.173 725.478 146.04C725.065 145.893 724.478 145.74 723.718 145.58C722.972 145.407 722.352 145.187 721.858 144.92C721.365 144.653 720.998 144.32 720.758 143.92C720.518 143.52 720.398 143.053 720.398 142.52C720.398 142 720.552 141.507 720.858 141.04C721.178 140.56 721.645 140.167 722.258 139.86C722.885 139.553 723.658 139.4 724.578 139.4C725.298 139.4 725.925 139.493 726.458 139.68C726.992 139.853 727.432 140.073 727.778 140.34C728.138 140.607 728.412 140.88 728.598 141.16C728.785 141.427 728.885 141.66 728.898 141.86C728.912 142.007 728.872 142.127 728.778 142.22C728.685 142.3 728.578 142.34 728.458 142.34H726.978C726.912 142.34 726.852 142.327 726.798 142.3C726.745 142.273 726.692 142.24 726.638 142.2C726.492 142.067 726.332 141.927 726.158 141.78C725.985 141.633 725.772 141.507 725.518 141.4C725.278 141.28 724.958 141.22 724.558 141.22C724.052 141.22 723.665 141.333 723.398 141.56C723.132 141.773 722.998 142.047 722.998 142.38C722.998 142.607 723.058 142.807 723.178 142.98C723.312 143.14 723.572 143.293 723.958 143.44C724.345 143.587 724.932 143.74 725.718 143.9C726.612 144.06 727.318 144.3 727.838 144.62C728.372 144.927 728.745 145.287 728.958 145.7C729.185 146.1 729.298 146.547 729.298 147.04C729.298 147.64 729.118 148.18 728.758 148.66C728.412 149.14 727.892 149.52 727.198 149.8C726.518 150.067 725.672 150.2 724.658 150.2ZM731.863 150C731.73 150 731.616 149.953 731.523 149.86C731.43 149.767 731.383 149.653 731.383 149.52V136.28C731.383 136.147 731.43 136.033 731.523 135.94C731.616 135.847 731.73 135.8 731.863 135.8H733.643C733.79 135.8 733.903 135.847 733.983 135.94C734.076 136.033 734.123 136.147 734.123 136.28V140.84C734.483 140.413 734.923 140.067 735.443 139.8C735.963 139.533 736.603 139.4 737.363 139.4C738.176 139.4 738.883 139.587 739.483 139.96C740.096 140.32 740.57 140.833 740.903 141.5C741.236 142.167 741.403 142.967 741.403 143.9V149.52C741.403 149.653 741.356 149.767 741.263 149.86C741.17 149.953 741.056 150 740.923 150H739.123C738.99 150 738.876 149.953 738.783 149.86C738.69 149.767 738.643 149.653 738.643 149.52V144.02C738.643 143.247 738.45 142.64 738.063 142.2C737.69 141.76 737.143 141.54 736.423 141.54C735.73 141.54 735.17 141.76 734.743 142.2C734.33 142.64 734.123 143.247 734.123 144.02V149.52C734.123 149.653 734.076 149.767 733.983 149.86C733.903 149.953 733.79 150 733.643 150H731.863ZM748.421 150.2C746.941 150.2 745.768 149.773 744.901 148.92C744.034 148.067 743.568 146.853 743.501 145.28C743.488 145.147 743.481 144.98 743.481 144.78C743.481 144.567 743.488 144.4 743.501 144.28C743.554 143.28 743.781 142.413 744.181 141.68C744.594 140.947 745.161 140.387 745.881 140C746.601 139.6 747.448 139.4 748.421 139.4C749.501 139.4 750.408 139.627 751.141 140.08C751.874 140.52 752.428 141.14 752.801 141.94C753.174 142.727 753.361 143.64 753.361 144.68V145.1C753.361 145.233 753.314 145.347 753.221 145.44C753.128 145.533 753.008 145.58 752.861 145.58H746.221C746.221 145.58 746.221 145.6 746.221 145.64C746.221 145.68 746.221 145.713 746.221 145.74C746.234 146.207 746.321 146.64 746.481 147.04C746.654 147.427 746.901 147.74 747.221 147.98C747.554 148.22 747.948 148.34 748.401 148.34C748.774 148.34 749.088 148.287 749.341 148.18C749.594 148.06 749.801 147.927 749.961 147.78C750.121 147.633 750.234 147.513 750.301 147.42C750.421 147.26 750.514 147.167 750.581 147.14C750.661 147.1 750.774 147.08 750.921 147.08H752.641C752.774 147.08 752.881 147.12 752.961 147.2C753.054 147.28 753.094 147.38 753.081 147.5C753.068 147.713 752.954 147.973 752.741 148.28C752.541 148.587 752.248 148.887 751.861 149.18C751.474 149.473 750.988 149.72 750.401 149.92C749.828 150.107 749.168 150.2 748.421 150.2ZM746.221 143.9H750.641V143.84C750.641 143.32 750.554 142.867 750.381 142.48C750.208 142.093 749.954 141.787 749.621 141.56C749.288 141.333 748.888 141.22 748.421 141.22C747.954 141.22 747.554 141.333 747.221 141.56C746.888 141.787 746.634 142.093 746.461 142.48C746.301 142.867 746.221 143.32 746.221 143.84V143.9ZM755.964 150C755.831 150 755.717 149.953 755.624 149.86C755.531 149.767 755.484 149.653 755.484 149.52V140.1C755.484 139.953 755.531 139.833 755.624 139.74C755.717 139.647 755.831 139.6 755.964 139.6H757.584C757.717 139.6 757.831 139.647 757.924 139.74C758.031 139.833 758.084 139.953 758.084 140.1V140.92C758.391 140.493 758.784 140.167 759.264 139.94C759.757 139.713 760.324 139.6 760.964 139.6H761.784C761.931 139.6 762.044 139.647 762.124 139.74C762.217 139.833 762.264 139.947 762.264 140.08V141.52C762.264 141.653 762.217 141.767 762.124 141.86C762.044 141.953 761.931 142 761.784 142H760.224C759.584 142 759.084 142.18 758.724 142.54C758.377 142.9 758.204 143.393 758.204 144.02V149.52C758.204 149.653 758.157 149.767 758.064 149.86C757.971 149.953 757.851 150 757.704 150H755.964Z" fill="#012626"/>
<path d="M307 552.667C308.473 552.667 309.667 551.473 309.667 550C309.667 548.527 308.473 547.333 307 547.333C305.527 547.333 304.333 548.527 304.333 550C304.333 551.473 305.527 552.667 307 552.667ZM307 550.5H310V549.5H307V550.5ZM316 550.5H322V549.5H316V550.5ZM328 550.5H334V549.5H328V550.5ZM340 550.5H346V549.5H340V550.5ZM352 550.5H358V549.5H352V550.5ZM364 550.5H370V549.5H364V550.5ZM376 550.5H382V549.5H376V550.5ZM388 550.5H394V549.5H388V550.5ZM400 550.5H406V549.5H400V550.5ZM412 550.5H418V549.5H412V550.5ZM424 550.5H430V549.5H424V550.5ZM436 550.5H442V549.5H436V550.5ZM448 550.5H454V549.5H448V550.5ZM460 550.5H466V549.5H460V550.5ZM472 550.5H478V549.5H472V550.5ZM484 550.5H490V549.5H484V550.5ZM496 550.5H502V549.5H496V550.5ZM508 550.5H514V549.5H508V550.5ZM520 550.5H526V549.5H520V550.5ZM532 550.5H538V549.5H532V550.5ZM544 550.5H550V549.5H544V550.5ZM556 550.5H559V549.5H556V550.5Z" fill="#5D9393"/>
<rect x="571" y="530" width="40" height="40" rx="20" fill="#CEF7E3"/>
<path d="M592.377 557C592.243 557 592.13 556.953 592.037 556.86C591.943 556.767 591.897 556.653 591.897 556.52V553.96H585.557C585.41 553.96 585.29 553.913 585.197 553.82C585.117 553.727 585.077 553.613 585.077 553.48V552.12C585.077 552.04 585.09 551.947 585.117 551.84C585.157 551.72 585.217 551.613 585.297 551.52L591.197 543.34C591.37 543.113 591.617 543 591.937 543H594.117C594.25 543 594.363 543.047 594.457 543.14C594.55 543.233 594.597 543.347 594.597 543.48V551.6H596.377C596.537 551.6 596.657 551.647 596.737 551.74C596.83 551.82 596.877 551.933 596.877 552.08V553.48C596.877 553.613 596.83 553.727 596.737 553.82C596.643 553.913 596.53 553.96 596.397 553.96H594.597V556.52C594.597 556.653 594.55 556.767 594.457 556.86C594.363 556.953 594.25 557 594.117 557H592.377ZM587.857 551.68H591.957V545.9L587.857 551.68Z" fill="#012626"/>
<path d="M623.7 557C623.593 557 623.493 556.96 623.4 556.88C623.32 556.8 623.28 556.7 623.28 556.58C623.28 556.527 623.293 556.467 623.32 556.4L628.14 543.5C628.18 543.367 628.253 543.253 628.36 543.16C628.48 543.053 628.64 543 628.84 543H631.02C631.22 543 631.373 543.053 631.48 543.16C631.587 543.253 631.667 543.367 631.72 543.5L636.54 556.4C636.553 556.467 636.56 556.527 636.56 556.58C636.56 556.7 636.52 556.8 636.44 556.88C636.36 556.96 636.267 557 636.16 557H634.42C634.233 557 634.093 556.96 634 556.88C633.92 556.787 633.867 556.7 633.84 556.62L632.9 554.18H626.96L626.02 556.62C625.993 556.7 625.933 556.787 625.84 556.88C625.76 556.96 625.627 557 625.44 557H623.7ZM627.66 551.88H632.2L629.92 545.7L627.66 551.88ZM638.907 557C638.774 557 638.661 556.953 638.567 556.86C638.474 556.767 638.427 556.653 638.427 556.52V543.48C638.427 543.347 638.474 543.233 638.567 543.14C638.661 543.047 638.774 543 638.907 543H640.787C640.934 543 641.047 543.047 641.127 543.14C641.221 543.233 641.267 543.347 641.267 543.48V556.52C641.267 556.653 641.221 556.767 641.127 556.86C641.047 556.953 640.934 557 640.787 557H638.907ZM647.587 557C647.48 557 647.38 556.96 647.287 556.88C647.207 556.8 647.167 556.7 647.167 556.58C647.167 556.527 647.18 556.467 647.207 556.4L652.027 543.5C652.067 543.367 652.14 543.253 652.247 543.16C652.367 543.053 652.527 543 652.727 543H654.907C655.107 543 655.26 543.053 655.367 543.16C655.473 543.253 655.553 543.367 655.607 543.5L660.427 556.4C660.44 556.467 660.447 556.527 660.447 556.58C660.447 556.7 660.407 556.8 660.327 556.88C660.247 556.96 660.153 557 660.047 557H658.307C658.12 557 657.98 556.96 657.887 556.88C657.807 556.787 657.753 556.7 657.727 556.62L656.787 554.18H650.847L649.907 556.62C649.88 556.7 649.82 556.787 649.727 556.88C649.647 556.96 649.513 557 649.327 557H647.587ZM651.547 551.88H656.087L653.807 545.7L651.547 551.88ZM662.574 560.8C662.441 560.8 662.327 560.753 662.234 560.66C662.141 560.567 662.094 560.453 662.094 560.32V547.08C662.094 546.947 662.141 546.833 662.234 546.74C662.327 546.647 662.441 546.6 662.574 546.6H664.154C664.301 546.6 664.414 546.647 664.494 546.74C664.587 546.833 664.634 546.947 664.634 547.08V547.88C664.954 547.453 665.374 547.1 665.894 546.82C666.414 546.54 667.061 546.4 667.834 546.4C668.541 546.4 669.154 546.513 669.674 546.74C670.194 546.967 670.627 547.293 670.974 547.72C671.321 548.133 671.587 548.627 671.774 549.2C671.961 549.773 672.067 550.407 672.094 551.1C672.107 551.327 672.114 551.56 672.114 551.8C672.114 552.04 672.107 552.28 672.094 552.52C672.081 553.187 671.981 553.807 671.794 554.38C671.607 554.94 671.334 555.433 670.974 555.86C670.627 556.273 670.194 556.6 669.674 556.84C669.154 557.08 668.541 557.2 667.834 557.2C667.114 557.2 666.501 557.073 665.994 556.82C665.487 556.553 665.074 556.207 664.754 555.78V560.32C664.754 560.453 664.707 560.567 664.614 560.66C664.534 560.753 664.421 560.8 664.274 560.8H662.574ZM667.094 555.06C667.667 555.06 668.114 554.94 668.434 554.7C668.754 554.447 668.981 554.12 669.114 553.72C669.261 553.32 669.347 552.88 669.374 552.4C669.401 552 669.401 551.6 669.374 551.2C669.347 550.72 669.261 550.28 669.114 549.88C668.981 549.48 668.754 549.16 668.434 548.92C668.114 548.667 667.667 548.54 667.094 548.54C666.547 548.54 666.101 548.667 665.754 548.92C665.421 549.173 665.174 549.5 665.014 549.9C664.867 550.287 664.781 550.687 664.754 551.1C664.741 551.34 664.734 551.593 664.734 551.86C664.734 552.127 664.741 552.387 664.754 552.64C664.767 553.04 664.861 553.427 665.034 553.8C665.207 554.16 665.461 554.46 665.794 554.7C666.127 554.94 666.561 555.06 667.094 555.06ZM674.859 560.8C674.726 560.8 674.612 560.753 674.519 560.66C674.426 560.567 674.379 560.453 674.379 560.32V547.08C674.379 546.947 674.426 546.833 674.519 546.74C674.612 546.647 674.726 546.6 674.859 546.6H676.439C676.586 546.6 676.699 546.647 676.779 546.74C676.872 546.833 676.919 546.947 676.919 547.08V547.88C677.239 547.453 677.659 547.1 678.179 546.82C678.699 546.54 679.346 546.4 680.119 546.4C680.826 546.4 681.439 546.513 681.959 546.74C682.479 546.967 682.912 547.293 683.259 547.72C683.606 548.133 683.872 548.627 684.059 549.2C684.246 549.773 684.352 550.407 684.379 551.1C684.392 551.327 684.399 551.56 684.399 551.8C684.399 552.04 684.392 552.28 684.379 552.52C684.366 553.187 684.266 553.807 684.079 554.38C683.892 554.94 683.619 555.433 683.259 555.86C682.912 556.273 682.479 556.6 681.959 556.84C681.439 557.08 680.826 557.2 680.119 557.2C679.399 557.2 678.786 557.073 678.279 556.82C677.772 556.553 677.359 556.207 677.039 555.78V560.32C677.039 560.453 676.992 560.567 676.899 560.66C676.819 560.753 676.706 560.8 676.559 560.8H674.859ZM679.379 555.06C679.952 555.06 680.399 554.94 680.719 554.7C681.039 554.447 681.266 554.12 681.399 553.72C681.546 553.32 681.632 552.88 681.659 552.4C681.686 552 681.686 551.6 681.659 551.2C681.632 550.72 681.546 550.28 681.399 549.88C681.266 549.48 681.039 549.16 680.719 548.92C680.399 548.667 679.952 548.54 679.379 548.54C678.832 548.54 678.386 548.667 678.039 548.92C677.706 549.173 677.459 549.5 677.299 549.9C677.152 550.287 677.066 550.687 677.039 551.1C677.026 551.34 677.019 551.593 677.019 551.86C677.019 552.127 677.026 552.387 677.039 552.64C677.052 553.04 677.146 553.427 677.319 553.8C677.492 554.16 677.746 554.46 678.079 554.7C678.412 554.94 678.846 555.06 679.379 555.06ZM687.144 557C687.011 557 686.898 556.953 686.804 556.86C686.711 556.767 686.664 556.653 686.664 556.52V543.28C686.664 543.147 686.711 543.033 686.804 542.94C686.898 542.847 687.011 542.8 687.144 542.8H688.804C688.938 542.8 689.051 542.847 689.144 542.94C689.238 543.033 689.284 543.147 689.284 543.28V556.52C689.284 556.653 689.238 556.767 689.144 556.86C689.051 556.953 688.938 557 688.804 557H687.144ZM692.847 557C692.714 557 692.6 556.953 692.507 556.86C692.414 556.767 692.367 556.653 692.367 556.52V547.08C692.367 546.947 692.414 546.833 692.507 546.74C692.6 546.647 692.714 546.6 692.847 546.6H694.507C694.654 546.6 694.767 546.647 694.847 546.74C694.94 546.833 694.987 546.947 694.987 547.08V556.52C694.987 556.653 694.94 556.767 694.847 556.86C694.767 556.953 694.654 557 694.507 557H692.847ZM692.767 544.88C692.62 544.88 692.5 544.84 692.407 544.76C692.327 544.667 692.287 544.547 692.287 544.4V542.96C692.287 542.827 692.327 542.713 692.407 542.62C692.5 542.527 692.62 542.48 692.767 542.48H694.587C694.734 542.48 694.854 542.527 694.947 542.62C695.04 542.713 695.087 542.827 695.087 542.96V544.4C695.087 544.547 695.04 544.667 694.947 544.76C694.854 544.84 694.734 544.88 694.587 544.88H692.767ZM702.199 557.2C701.239 557.2 700.392 557.02 699.659 556.66C698.939 556.3 698.372 555.78 697.959 555.1C697.559 554.407 697.339 553.573 697.299 552.6C697.286 552.4 697.279 552.14 697.279 551.82C697.279 551.487 697.286 551.213 697.299 551C697.339 550.027 697.559 549.2 697.959 548.52C698.372 547.827 698.939 547.3 699.659 546.94C700.392 546.58 701.239 546.4 702.199 546.4C703.052 546.4 703.779 546.52 704.379 546.76C704.979 547 705.472 547.3 705.859 547.66C706.246 548.02 706.532 548.4 706.719 548.8C706.919 549.187 707.026 549.54 707.039 549.86C707.052 550.007 707.006 550.127 706.899 550.22C706.806 550.3 706.692 550.34 706.559 550.34H704.799C704.666 550.34 704.559 550.307 704.479 550.24C704.412 550.173 704.346 550.073 704.279 549.94C704.079 549.407 703.812 549.033 703.479 548.82C703.159 548.593 702.746 548.48 702.239 548.48C701.572 548.48 701.039 548.693 700.639 549.12C700.252 549.533 700.046 550.193 700.019 551.1C699.992 551.607 699.992 552.073 700.019 552.5C700.046 553.42 700.252 554.087 700.639 554.5C701.039 554.913 701.572 555.12 702.239 555.12C702.759 555.12 703.179 555.013 703.499 554.8C703.819 554.573 704.079 554.193 704.279 553.66C704.346 553.527 704.412 553.427 704.479 553.36C704.559 553.293 704.666 553.26 704.799 553.26H706.559C706.692 553.26 706.806 553.307 706.899 553.4C707.006 553.48 707.052 553.593 707.039 553.74C707.026 553.98 706.959 554.253 706.839 554.56C706.732 554.853 706.552 555.16 706.299 555.48C706.059 555.787 705.752 556.073 705.379 556.34C705.006 556.593 704.552 556.8 704.019 556.96C703.499 557.12 702.892 557.2 702.199 557.2ZM712.145 557.2C711.451 557.2 710.825 557.067 710.265 556.8C709.705 556.52 709.258 556.153 708.925 555.7C708.605 555.233 708.445 554.713 708.445 554.14C708.445 553.207 708.818 552.467 709.565 551.92C710.325 551.36 711.325 550.987 712.565 550.8L715.305 550.4V549.98C715.305 549.42 715.165 548.987 714.885 548.68C714.605 548.373 714.125 548.22 713.445 548.22C712.965 548.22 712.571 548.32 712.265 548.52C711.971 548.707 711.751 548.96 711.605 549.28C711.498 549.453 711.345 549.54 711.145 549.54H709.565C709.418 549.54 709.305 549.5 709.225 549.42C709.158 549.34 709.125 549.233 709.125 549.1C709.138 548.887 709.225 548.627 709.385 548.32C709.545 548.013 709.798 547.72 710.145 547.44C710.491 547.147 710.938 546.9 711.485 546.7C712.031 546.5 712.691 546.4 713.465 546.4C714.305 546.4 715.011 546.507 715.585 546.72C716.171 546.92 716.638 547.193 716.985 547.54C717.331 547.887 717.585 548.293 717.745 548.76C717.905 549.227 717.985 549.72 717.985 550.24V556.52C717.985 556.653 717.938 556.767 717.845 556.86C717.751 556.953 717.638 557 717.505 557H715.885C715.738 557 715.618 556.953 715.525 556.86C715.445 556.767 715.405 556.653 715.405 556.52V555.74C715.231 555.993 714.998 556.233 714.705 556.46C714.411 556.673 714.051 556.853 713.625 557C713.211 557.133 712.718 557.2 712.145 557.2ZM712.825 555.3C713.291 555.3 713.711 555.2 714.085 555C714.471 554.8 714.771 554.493 714.985 554.08C715.211 553.653 715.325 553.12 715.325 552.48V552.06L713.325 552.38C712.538 552.5 711.951 552.693 711.565 552.96C711.178 553.227 710.985 553.553 710.985 553.94C710.985 554.233 711.071 554.487 711.245 554.7C711.431 554.9 711.665 555.053 711.945 555.16C712.225 555.253 712.518 555.3 712.825 555.3ZM725.153 557C724.353 557 723.679 556.86 723.133 556.58C722.586 556.3 722.179 555.887 721.913 555.34C721.646 554.78 721.513 554.087 721.513 553.26V548.72H719.933C719.799 548.72 719.686 548.673 719.593 548.58C719.499 548.487 719.453 548.373 719.453 548.24V547.08C719.453 546.947 719.499 546.833 719.593 546.74C719.686 546.647 719.799 546.6 719.933 546.6H721.513V543.28C721.513 543.147 721.553 543.033 721.633 542.94C721.726 542.847 721.846 542.8 721.993 542.8H723.613C723.746 542.8 723.859 542.847 723.953 542.94C724.046 543.033 724.093 543.147 724.093 543.28V546.6H726.593C726.726 546.6 726.839 546.647 726.933 546.74C727.026 546.833 727.073 546.947 727.073 547.08V548.24C727.073 548.373 727.026 548.487 726.933 548.58C726.839 548.673 726.726 548.72 726.593 548.72H724.093V553.06C724.093 553.607 724.186 554.033 724.373 554.34C724.573 554.647 724.913 554.8 725.393 554.8H726.773C726.906 554.8 727.019 554.847 727.113 554.94C727.206 555.033 727.253 555.147 727.253 555.28V556.52C727.253 556.653 727.206 556.767 727.113 556.86C727.019 556.953 726.906 557 726.773 557H725.153ZM729.507 557C729.374 557 729.26 556.953 729.167 556.86C729.074 556.767 729.027 556.653 729.027 556.52V547.08C729.027 546.947 729.074 546.833 729.167 546.74C729.26 546.647 729.374 546.6 729.507 546.6H731.167C731.314 546.6 731.427 546.647 731.507 546.74C731.6 546.833 731.647 546.947 731.647 547.08V556.52C731.647 556.653 731.6 556.767 731.507 556.86C731.427 556.953 731.314 557 731.167 557H729.507ZM729.427 544.88C729.28 544.88 729.16 544.84 729.067 544.76C728.987 544.667 728.947 544.547 728.947 544.4V542.96C728.947 542.827 728.987 542.713 729.067 542.62C729.16 542.527 729.28 542.48 729.427 542.48H731.247C731.394 542.48 731.514 542.527 731.607 542.62C731.7 542.713 731.747 542.827 731.747 542.96V544.4C731.747 544.547 731.7 544.667 731.607 544.76C731.514 544.84 731.394 544.88 731.247 544.88H729.427ZM738.959 557.2C737.892 557.2 736.992 557.013 736.259 556.64C735.539 556.267 734.986 555.74 734.599 555.06C734.226 554.38 734.012 553.587 733.959 552.68C733.946 552.44 733.939 552.147 733.939 551.8C733.939 551.453 733.946 551.16 733.959 550.92C734.012 550 734.232 549.207 734.619 548.54C735.019 547.86 735.579 547.333 736.299 546.96C737.032 546.587 737.919 546.4 738.959 546.4C739.999 546.4 740.879 546.587 741.599 546.96C742.332 547.333 742.892 547.86 743.279 548.54C743.679 549.207 743.906 550 743.959 550.92C743.972 551.16 743.979 551.453 743.979 551.8C743.979 552.147 743.972 552.44 743.959 552.68C743.906 553.587 743.686 554.38 743.299 555.06C742.926 555.74 742.372 556.267 741.639 556.64C740.919 557.013 740.026 557.2 738.959 557.2ZM738.959 555.22C739.666 555.22 740.212 555 740.599 554.56C740.986 554.107 741.199 553.447 741.239 552.58C741.252 552.38 741.259 552.12 741.259 551.8C741.259 551.48 741.252 551.22 741.239 551.02C741.199 550.167 740.986 549.513 740.599 549.06C740.212 548.607 739.666 548.38 738.959 548.38C738.252 548.38 737.706 548.607 737.319 549.06C736.932 549.513 736.719 550.167 736.679 551.02C736.666 551.22 736.659 551.48 736.659 551.8C736.659 552.12 736.666 552.38 736.679 552.58C736.719 553.447 736.932 554.107 737.319 554.56C737.706 555 738.252 555.22 738.959 555.22ZM746.675 557C746.542 557 746.428 556.953 746.335 556.86C746.242 556.767 746.195 556.653 746.195 556.52V547.08C746.195 546.947 746.242 546.833 746.335 546.74C746.428 546.647 746.542 546.6 746.675 546.6H748.315C748.448 546.6 748.562 546.647 748.655 546.74C748.748 546.833 748.795 546.947 748.795 547.08V547.9C749.142 547.473 749.582 547.12 750.115 546.84C750.662 546.547 751.335 546.4 752.135 546.4C752.948 546.4 753.655 546.587 754.255 546.96C754.855 547.32 755.315 547.833 755.635 548.5C755.968 549.167 756.135 549.967 756.135 550.9V556.52C756.135 556.653 756.088 556.767 755.995 556.86C755.902 556.953 755.788 557 755.655 557H753.895C753.762 557 753.648 556.953 753.555 556.86C753.462 556.767 753.415 556.653 753.415 556.52V551.02C753.415 550.247 753.222 549.64 752.835 549.2C752.462 548.76 751.915 548.54 751.195 548.54C750.502 548.54 749.948 548.76 749.535 549.2C749.122 549.64 748.915 550.247 748.915 551.02V556.52C748.915 556.653 748.868 556.767 748.775 556.86C748.682 556.953 748.568 557 748.435 557H746.675ZM762.615 557.2C761.815 557.2 761.129 557.107 760.555 556.92C759.995 556.733 759.535 556.5 759.175 556.22C758.815 555.94 758.549 555.66 758.375 555.38C758.202 555.1 758.109 554.867 758.095 554.68C758.082 554.533 758.122 554.42 758.215 554.34C758.322 554.247 758.435 554.2 758.555 554.2H760.135C760.189 554.2 760.235 554.207 760.275 554.22C760.315 554.233 760.369 554.273 760.435 554.34C760.609 554.487 760.789 554.64 760.975 554.8C761.175 554.96 761.409 555.1 761.675 555.22C761.942 555.327 762.275 555.38 762.675 555.38C763.195 555.38 763.629 555.28 763.975 555.08C764.335 554.867 764.515 554.567 764.515 554.18C764.515 553.9 764.435 553.673 764.275 553.5C764.129 553.327 763.849 553.173 763.435 553.04C763.022 552.893 762.435 552.74 761.675 552.58C760.929 552.407 760.309 552.187 759.815 551.92C759.322 551.653 758.955 551.32 758.715 550.92C758.475 550.52 758.355 550.053 758.355 549.52C758.355 549 758.509 548.507 758.815 548.04C759.135 547.56 759.602 547.167 760.215 546.86C760.842 546.553 761.615 546.4 762.535 546.4C763.255 546.4 763.882 546.493 764.415 546.68C764.949 546.853 765.389 547.073 765.735 547.34C766.095 547.607 766.369 547.88 766.555 548.16C766.742 548.427 766.842 548.66 766.855 548.86C766.869 549.007 766.829 549.127 766.735 549.22C766.642 549.3 766.535 549.34 766.415 549.34H764.935C764.869 549.34 764.809 549.327 764.755 549.3C764.702 549.273 764.649 549.24 764.595 549.2C764.449 549.067 764.289 548.927 764.115 548.78C763.942 548.633 763.729 548.507 763.475 548.4C763.235 548.28 762.915 548.22 762.515 548.22C762.009 548.22 761.622 548.333 761.355 548.56C761.089 548.773 760.955 549.047 760.955 549.38C760.955 549.607 761.015 549.807 761.135 549.98C761.269 550.14 761.529 550.293 761.915 550.44C762.302 550.587 762.889 550.74 763.675 550.9C764.569 551.06 765.275 551.3 765.795 551.62C766.329 551.927 766.702 552.287 766.915 552.7C767.142 553.1 767.255 553.547 767.255 554.04C767.255 554.64 767.075 555.18 766.715 555.66C766.369 556.14 765.849 556.52 765.155 556.8C764.475 557.067 763.629 557.2 762.615 557.2Z" fill="#012626"/>
<path d="M3 551.009L5.88675 546.009H0.113249L3 551.009ZM3.5 542.066V536.104H2.5V542.066H3.5ZM3.5 530.143V524.181H2.5V530.143H3.5ZM3.5 518.219V512.257H2.5V518.219H3.5ZM3.5 506.296V500.334H2.5V506.296H3.5ZM3.5 494.372V488.41H2.5V494.372H3.5ZM3.5 482.449L3.5 476.487H2.5V482.449H3.5ZM3.5 470.525V464.563H2.5V470.525H3.5ZM3.5 458.602V452.64H2.5V458.602H3.5ZM3.5 446.678V440.716H2.5V446.678H3.5ZM3.5 434.754V428.793H2.5V434.754H3.5ZM3.5 422.831V416.869H2.5V422.831H3.5ZM3.5 410.907V404.946H2.5V410.907H3.5ZM3.5 398.984V393.022H2.5V398.984H3.5ZM3.5 387.06V381.099H2.5V387.06H3.5ZM3.5 375.137V369.175H2.5L2.5 375.137H3.5ZM3.5 363.213V357.252H2.5V363.213H3.5ZM3.5 351.29V345.328H2.5V351.29H3.5ZM3.5 339.366V333.405H2.5V339.366H3.5ZM3.5 327.443V321.481H2.5V327.443H3.5ZM3.5 315.519V309.557H2.5V315.519H3.5ZM3.5 303.596V297.634H2.5V303.596H3.5ZM3.5 291.672V285.71H2.5V291.672H3.5ZM3.5 279.749V273.787H2.5V279.749H3.5ZM3.5 267.825V261.863H2.5V267.825H3.5ZM3.5 255.902V249.94H2.5V255.902H3.5ZM3.5 243.978V238.016H2.5V243.978H3.5ZM3.5 232.055V226.093H2.5V232.055H3.5ZM3.5 220.131V214.169H2.5L2.5 220.131H3.5ZM3.5 208.208V202.246H2.5V208.208H3.5ZM3.5 196.284V190.322H2.5V196.284H3.5ZM3.5 184.361V178.399H2.5V184.361H3.5ZM3.5 172.437V166.475H2.5V172.437H3.5ZM3.5 160.513V154.552H2.5V160.513H3.5ZM3.5 148.59V142.628H2.5V148.59H3.5ZM3.5 136.666V130.705H2.5V136.666H3.5ZM3.5 124.743V118.781H2.5L2.5 124.743H3.5ZM3.5 112.819L3.5 106.858H2.5V112.819H3.5ZM3.5 100.896V94.9341H2.5V100.896H3.5ZM3.5 88.9723V85.9916H2.5V88.9723H3.5Z" fill="#5D9393"/>
<defs>
<filter id="filter0_dii_9091_952" x="17.2" y="270.2" width="569.875" height="346.6" filterUnits="userSpaceOnUse" color-interpolation-filters="sRGB">
<feFlood flood-opacity="0" result="BackgroundImageFix"/>
<feColorMatrix in="SourceAlpha" type="matrix" values="0 0 0 0 0 0 0 0 0 0 0 0 0 0 0 0 0 0 127 0" result="hardAlpha"/>
<feOffset dx="1" dy="5"/>
<feGaussianBlur stdDeviation="10.4"/>
<feComposite in2="hardAlpha" operator="out"/>
<feColorMatrix type="matrix" values="0 0 0 0 0.257066 0 0 0 0 0.511019 0 0 0 0 0.193578 0 0 0 0.28 0"/>
<feBlend mode="normal" in2="BackgroundImageFix" result="effect1_dropShadow_9091_952"/>
<feBlend mode="normal" in="SourceGraphic" in2="effect1_dropShadow_9091_952" result="shape"/>
<feColorMatrix in="SourceAlpha" type="matrix" values="0 0 0 0 0 0 0 0 0 0 0 0 0 0 0 0 0 0 127 0" result="hardAlpha"/>
<feOffset dx="3" dy="3"/>
<feGaussianBlur stdDeviation="2"/>
<feComposite in2="hardAlpha" operator="arithmetic" k2="-1" k3="1"/>
<feColorMatrix type="matrix" values="0 0 0 0 1 0 0 0 0 1 0 0 0 0 1 0 0 0 1 0"/>
<feBlend mode="normal" in2="shape" result="effect2_innerShadow_9091_952"/>
<feColorMatrix in="SourceAlpha" type="matrix" values="0 0 0 0 0 0 0 0 0 0 0 0 0 0 0 0 0 0 127 0" result="hardAlpha"/>
<feOffset dx="-3" dy="-3"/>
<feGaussianBlur stdDeviation="2"/>
<feComposite in2="hardAlpha" operator="arithmetic" k2="-1" k3="1"/>
<feColorMatrix type="matrix" values="0 0 0 0 0.895516 0 0 0 0 1 0 0 0 0 0.831478 0 0 0 0.93 0"/>
<feBlend mode="normal" in2="effect2_innerShadow_9091_952" result="effect3_innerShadow_9091_952"/>
</filter>
<filter id="filter1_dii_9091_952" x="17.2" y="178.2" width="569.875" height="346.6" filterUnits="userSpaceOnUse" color-interpolation-filters="sRGB">
<feFlood flood-opacity="0" result="BackgroundImageFix"/>
<feColorMatrix in="SourceAlpha" type="matrix" values="0 0 0 0 0 0 0 0 0 0 0 0 0 0 0 0 0 0 127 0" result="hardAlpha"/>
<feOffset dx="1" dy="5"/>
<feGaussianBlur stdDeviation="10.4"/>
<feComposite in2="hardAlpha" operator="out"/>
<feColorMatrix type="matrix" values="0 0 0 0 0.511019 0 0 0 0 0.364996 0 0 0 0 0.193578 0 0 0 0.28 0"/>
<feBlend mode="normal" in2="BackgroundImageFix" result="effect1_dropShadow_9091_952"/>
<feBlend mode="normal" in="SourceGraphic" in2="effect1_dropShadow_9091_952" result="shape"/>
<feColorMatrix in="SourceAlpha" type="matrix" values="0 0 0 0 0 0 0 0 0 0 0 0 0 0 0 0 0 0 127 0" result="hardAlpha"/>
<feOffset dx="3" dy="3"/>
<feGaussianBlur stdDeviation="2"/>
<feComposite in2="hardAlpha" operator="arithmetic" k2="-1" k3="1"/>
<feColorMatrix type="matrix" values="0 0 0 0 1 0 0 0 0 1 0 0 0 0 1 0 0 0 1 0"/>
<feBlend mode="normal" in2="shape" result="effect2_innerShadow_9091_952"/>
<feColorMatrix in="SourceAlpha" type="matrix" values="0 0 0 0 0 0 0 0 0 0 0 0 0 0 0 0 0 0 127 0" result="hardAlpha"/>
<feOffset dx="-3" dy="-3"/>
<feGaussianBlur stdDeviation="2"/>
<feComposite in2="hardAlpha" operator="arithmetic" k2="-1" k3="1"/>
<feColorMatrix type="matrix" values="0 0 0 0 1 0 0 0 0 0.973036 0 0 0 0 0.831478 0 0 0 0.93 0"/>
<feBlend mode="normal" in2="effect2_innerShadow_9091_952" result="effect3_innerShadow_9091_952"/>
</filter>
<filter id="filter2_dii_9091_952" x="17.2" y="86.2" width="569.875" height="346.6" filterUnits="userSpaceOnUse" color-interpolation-filters="sRGB">
<feFlood flood-opacity="0" result="BackgroundImageFix"/>
<feColorMatrix in="SourceAlpha" type="matrix" values="0 0 0 0 0 0 0 0 0 0 0 0 0 0 0 0 0 0 127 0" result="hardAlpha"/>
<feOffset dx="1" dy="5"/>
<feGaussianBlur stdDeviation="10.4"/>
<feComposite in2="hardAlpha" operator="out"/>
<feColorMatrix type="matrix" values="0 0 0 0 0.193578 0 0 0 0 0.244369 0 0 0 0 0.511019 0 0 0 0.28 0"/>
<feBlend mode="normal" in2="BackgroundImageFix" result="effect1_dropShadow_9091_952"/>
<feBlend mode="normal" in="SourceGraphic" in2="effect1_dropShadow_9091_952" result="shape"/>
<feColorMatrix in="SourceAlpha" type="matrix" values="0 0 0 0 0 0 0 0 0 0 0 0 0 0 0 0 0 0 127 0" result="hardAlpha"/>
<feOffset dx="3" dy="3"/>
<feGaussianBlur stdDeviation="2"/>
<feComposite in2="hardAlpha" operator="arithmetic" k2="-1" k3="1"/>
<feColorMatrix type="matrix" values="0 0 0 0 1 0 0 0 0 1 0 0 0 0 1 0 0 0 1 0"/>
<feBlend mode="normal" in2="shape" result="effect2_innerShadow_9091_952"/>
<feColorMatrix in="SourceAlpha" type="matrix" values="0 0 0 0 0 0 0 0 0 0 0 0 0 0 0 0 0 0 127 0" result="hardAlpha"/>
<feOffset dx="-3" dy="-3"/>
<feGaussianBlur stdDeviation="2"/>
<feComposite in2="hardAlpha" operator="arithmetic" k2="-1" k3="1"/>
<feColorMatrix type="matrix" values="0 0 0 0 0.831478 0 0 0 0 0.84833 0 0 0 0 1 0 0 0 0.93 0"/>
<feBlend mode="normal" in2="effect2_innerShadow_9091_952" result="effect3_innerShadow_9091_952"/>
</filter>
<filter id="filter3_dii_9091_952" x="17.2" y="-5.8" width="569.875" height="346.6" filterUnits="userSpaceOnUse" color-interpolation-filters="sRGB">
<feFlood flood-opacity="0" result="BackgroundImageFix"/>
<feColorMatrix in="SourceAlpha" type="matrix" values="0 0 0 0 0 0 0 0 0 0 0 0 0 0 0 0 0 0 127 0" result="hardAlpha"/>
<feOffset dx="1" dy="5"/>
<feGaussianBlur stdDeviation="10.4"/>
<feComposite in2="hardAlpha" operator="out"/>
<feColorMatrix type="matrix" values="0 0 0 0 0.193578 0 0 0 0 0.511019 0 0 0 0 0.511019 0 0 0 0.28 0"/>
<feBlend mode="normal" in2="BackgroundImageFix" result="effect1_dropShadow_9091_952"/>
<feBlend mode="normal" in="SourceGraphic" in2="effect1_dropShadow_9091_952" result="shape"/>
<feColorMatrix in="SourceAlpha" type="matrix" values="0 0 0 0 0 0 0 0 0 0 0 0 0 0 0 0 0 0 127 0" result="hardAlpha"/>
<feOffset dx="3" dy="3"/>
<feGaussianBlur stdDeviation="2"/>
<feComposite in2="hardAlpha" operator="arithmetic" k2="-1" k3="1"/>
<feColorMatrix type="matrix" values="0 0 0 0 1 0 0 0 0 1 0 0 0 0 1 0 0 0 1 0"/>
<feBlend mode="normal" in2="shape" result="effect2_innerShadow_9091_952"/>
<feColorMatrix in="SourceAlpha" type="matrix" values="0 0 0 0 0 0 0 0 0 0 0 0 0 0 0 0 0 0 127 0" result="hardAlpha"/>
<feOffset dx="-3" dy="-3"/>
<feGaussianBlur stdDeviation="2"/>
<feComposite in2="hardAlpha" operator="arithmetic" k2="-1" k3="1"/>
<feColorMatrix type="matrix" values="0 0 0 0 0.831478 0 0 0 0 1 0 0 0 0 1 0 0 0 0.93 0"/>
<feBlend mode="normal" in2="effect2_innerShadow_9091_952" result="effect3_innerShadow_9091_952"/>
</filter>
</defs>
</svg>
