<svg width="866" height="611" viewBox="0 0 866 611" fill="none" xmlns="http://www.w3.org/2000/svg">
<g filter="url(#filter0_dii_9091_952)">
<rect width="300" height="310" rx="20" transform="matrix(0.866025 -0.5 0.866025 0.5 37 436)" fill="#C5F0C2" fill-opacity="0.8" shape-rendering="crispEdges"/>
</g>
<g filter="url(#filter1_dii_9091_952)">
<rect width="300" height="310" rx="20" transform="matrix(0.866025 -0.5 0.866025 0.5 37 344)" fill="#F0E9C2" fill-opacity="0.8" shape-rendering="crispEdges"/>
</g>
<path d="M312 389.667C313.473 389.667 314.667 388.473 314.667 387C314.667 385.527 313.473 384.333 312 384.333C310.527 384.333 309.333 385.527 309.333 387C309.333 388.473 310.527 389.667 312 389.667ZM312 387.5H315V386.5H312V387.5ZM321 387.5H327V386.5H321V387.5ZM333 387.5H339V386.5H333V387.5ZM345 387.5H351V386.5H345V387.5ZM357 387.5H363V386.5H357V387.5ZM369 387.5H375V386.5H369V387.5ZM381 387.5H387V386.5H381V387.5ZM393 387.5H399V386.5H393V387.5ZM405 387.5H411V386.5H405V387.5ZM417 387.5H423V386.5H417V387.5ZM429 387.5H435V386.5H429V387.5ZM441 387.5H447V386.5H441V387.5ZM453 387.5H459V386.5H453V387.5ZM465 387.5H471V386.5H465V387.5ZM477 387.5H483V386.5H477V387.5ZM489 387.5H495V386.5H489V387.5ZM501 387.5H507V386.5H501V387.5ZM513 387.5H519V386.5H513V387.5ZM525 387.5H531V386.5H525V387.5ZM537 387.5H543V386.5H537V387.5ZM549 387.5H555V386.5H549V387.5ZM561 387.5H564V386.5H561V387.5Z" fill="#5D9393"/>
<rect x="576" y="367" width="40" height="40" rx="20" fill="#CEF7E3"/>
<path d="M595.921 394.2C594.988 394.2 594.181 394.087 593.501 393.86C592.821 393.633 592.255 393.34 591.801 392.98C591.361 392.607 591.028 392.207 590.801 391.78C590.575 391.34 590.455 390.907 590.441 390.48C590.441 390.36 590.481 390.267 590.561 390.2C590.655 390.12 590.761 390.08 590.881 390.08H592.681C592.815 390.08 592.928 390.107 593.021 390.16C593.115 390.213 593.195 390.32 593.261 390.48C593.381 390.84 593.575 391.127 593.841 391.34C594.121 391.553 594.441 391.707 594.801 391.8C595.161 391.88 595.541 391.92 595.941 391.92C596.741 391.92 597.375 391.733 597.841 391.36C598.321 390.973 598.561 390.427 598.561 389.72C598.561 389.013 598.341 388.507 597.901 388.2C597.461 387.88 596.848 387.72 596.061 387.72H594.001C593.855 387.72 593.735 387.68 593.641 387.6C593.548 387.507 593.501 387.387 593.501 387.24V386.4C593.501 386.267 593.528 386.153 593.581 386.06C593.648 385.953 593.715 385.867 593.781 385.8L597.361 382.3H591.641C591.495 382.3 591.375 382.253 591.281 382.16C591.201 382.067 591.161 381.953 591.161 381.82V380.5C591.161 380.353 591.201 380.233 591.281 380.14C591.375 380.047 591.495 380 591.641 380H600.221C600.368 380 600.488 380.047 600.581 380.14C600.675 380.233 600.721 380.353 600.721 380.5V381.7C600.721 381.82 600.695 381.927 600.641 382.02C600.588 382.113 600.528 382.193 600.461 382.26L597.001 385.82L597.241 385.84C598.055 385.907 598.775 386.093 599.401 386.4C600.041 386.693 600.535 387.127 600.881 387.7C601.241 388.273 601.421 388.993 601.421 389.86C601.421 390.767 601.181 391.547 600.701 392.2C600.235 392.84 599.588 393.333 598.761 393.68C597.935 394.027 596.988 394.2 595.921 394.2Z" fill="#012626"/>
<path d="M630.04 394C629.907 394 629.793 393.953 629.7 393.86C629.607 393.767 629.56 393.653 629.56 393.52V380.5C629.56 380.353 629.607 380.233 629.7 380.14C629.793 380.047 629.907 380 630.04 380H634.92C636.267 380 637.373 380.207 638.24 380.62C639.12 381.033 639.78 381.647 640.22 382.46C640.673 383.273 640.907 384.267 640.92 385.44C640.947 386.027 640.96 386.547 640.96 387C640.96 387.453 640.947 387.967 640.92 388.54C640.893 389.78 640.667 390.807 640.24 391.62C639.813 392.42 639.167 393.02 638.3 393.42C637.447 393.807 636.353 394 635.02 394H630.04ZM632.34 391.7H634.92C635.667 391.7 636.273 391.593 636.74 391.38C637.207 391.167 637.547 390.827 637.76 390.36C637.987 389.88 638.107 389.253 638.12 388.48C638.133 388.08 638.14 387.733 638.14 387.44C638.153 387.133 638.153 386.833 638.14 386.54C638.14 386.233 638.133 385.887 638.12 385.5C638.093 384.407 637.82 383.6 637.3 383.08C636.78 382.56 635.953 382.3 634.82 382.3H632.34V391.7ZM646.403 394.2C645.709 394.2 645.083 394.067 644.523 393.8C643.963 393.52 643.516 393.153 643.183 392.7C642.863 392.233 642.703 391.713 642.703 391.14C642.703 390.207 643.076 389.467 643.823 388.92C644.583 388.36 645.583 387.987 646.823 387.8L649.563 387.4V386.98C649.563 386.42 649.423 385.987 649.143 385.68C648.863 385.373 648.383 385.22 647.703 385.22C647.223 385.22 646.829 385.32 646.523 385.52C646.229 385.707 646.009 385.96 645.863 386.28C645.756 386.453 645.603 386.54 645.403 386.54H643.823C643.676 386.54 643.563 386.5 643.483 386.42C643.416 386.34 643.382 386.233 643.382 386.1C643.396 385.887 643.483 385.627 643.643 385.32C643.803 385.013 644.056 384.72 644.403 384.44C644.749 384.147 645.196 383.9 645.743 383.7C646.289 383.5 646.949 383.4 647.723 383.4C648.563 383.4 649.269 383.507 649.843 383.72C650.429 383.92 650.896 384.193 651.243 384.54C651.589 384.887 651.843 385.293 652.003 385.76C652.163 386.227 652.243 386.72 652.243 387.24V393.52C652.243 393.653 652.196 393.767 652.103 393.86C652.009 393.953 651.896 394 651.763 394H650.143C649.996 394 649.876 393.953 649.783 393.86C649.703 393.767 649.663 393.653 649.663 393.52V392.74C649.489 392.993 649.256 393.233 648.963 393.46C648.669 393.673 648.309 393.853 647.883 394C647.469 394.133 646.976 394.2 646.403 394.2ZM647.083 392.3C647.549 392.3 647.969 392.2 648.343 392C648.729 391.8 649.029 391.493 649.243 391.08C649.469 390.653 649.583 390.12 649.583 389.48V389.06L647.583 389.38C646.796 389.5 646.209 389.693 645.823 389.96C645.436 390.227 645.243 390.553 645.243 390.94C645.243 391.233 645.329 391.487 645.503 391.7C645.689 391.9 645.923 392.053 646.203 392.16C646.483 392.253 646.776 392.3 647.083 392.3ZM659.411 394C658.611 394 657.937 393.86 657.391 393.58C656.844 393.3 656.437 392.887 656.171 392.34C655.904 391.78 655.771 391.087 655.771 390.26V385.72H654.191C654.057 385.72 653.944 385.673 653.851 385.58C653.757 385.487 653.711 385.373 653.711 385.24V384.08C653.711 383.947 653.757 383.833 653.851 383.74C653.944 383.647 654.057 383.6 654.191 383.6H655.771V380.28C655.771 380.147 655.811 380.033 655.891 379.94C655.984 379.847 656.104 379.8 656.251 379.8H657.871C658.004 379.8 658.117 379.847 658.211 379.94C658.304 380.033 658.351 380.147 658.351 380.28V383.6H660.851C660.984 383.6 661.097 383.647 661.191 383.74C661.284 383.833 661.331 383.947 661.331 384.08V385.24C661.331 385.373 661.284 385.487 661.191 385.58C661.097 385.673 660.984 385.72 660.851 385.72H658.351V390.06C658.351 390.607 658.444 391.033 658.631 391.34C658.831 391.647 659.171 391.8 659.651 391.8H661.031C661.164 391.8 661.277 391.847 661.371 391.94C661.464 392.033 661.511 392.147 661.511 392.28V393.52C661.511 393.653 661.464 393.767 661.371 393.86C661.277 393.953 661.164 394 661.031 394H659.411ZM666.305 394.2C665.612 394.2 664.985 394.067 664.425 393.8C663.865 393.52 663.418 393.153 663.085 392.7C662.765 392.233 662.605 391.713 662.605 391.14C662.605 390.207 662.978 389.467 663.725 388.92C664.485 388.36 665.485 387.987 666.725 387.8L669.465 387.4V386.98C669.465 386.42 669.325 385.987 669.045 385.68C668.765 385.373 668.285 385.22 667.605 385.22C667.125 385.22 666.732 385.32 666.425 385.52C666.132 385.707 665.912 385.96 665.765 386.28C665.658 386.453 665.505 386.54 665.305 386.54H663.725C663.578 386.54 663.465 386.5 663.385 386.42C663.318 386.34 663.285 386.233 663.285 386.1C663.298 385.887 663.385 385.627 663.545 385.32C663.705 385.013 663.958 384.72 664.305 384.44C664.652 384.147 665.098 383.9 665.645 383.7C666.192 383.5 666.852 383.4 667.625 383.4C668.465 383.4 669.172 383.507 669.745 383.72C670.332 383.92 670.798 384.193 671.145 384.54C671.492 384.887 671.745 385.293 671.905 385.76C672.065 386.227 672.145 386.72 672.145 387.24V393.52C672.145 393.653 672.098 393.767 672.005 393.86C671.912 393.953 671.798 394 671.665 394H670.045C669.898 394 669.778 393.953 669.685 393.86C669.605 393.767 669.565 393.653 669.565 393.52V392.74C669.392 392.993 669.158 393.233 668.865 393.46C668.572 393.673 668.212 393.853 667.785 394C667.372 394.133 666.878 394.2 666.305 394.2ZM666.985 392.3C667.452 392.3 667.872 392.2 668.245 392C668.632 391.8 668.932 391.493 669.145 391.08C669.372 390.653 669.485 390.12 669.485 389.48V389.06L667.485 389.38C666.698 389.5 666.112 389.693 665.725 389.96C665.338 390.227 665.145 390.553 665.145 390.94C665.145 391.233 665.232 391.487 665.405 391.7C665.592 391.9 665.825 392.053 666.105 392.16C666.385 392.253 666.678 392.3 666.985 392.3ZM680.001 394C679.868 394 679.754 393.953 679.661 393.86C679.568 393.767 679.521 393.653 679.521 393.52V380.5C679.521 380.353 679.568 380.233 679.661 380.14C679.754 380.047 679.868 380 680.001 380H685.181C686.794 380 688.068 380.373 689.001 381.12C689.934 381.867 690.401 382.953 690.401 384.38C690.401 385.367 690.154 386.187 689.661 386.84C689.181 387.493 688.534 387.967 687.721 388.26L690.641 393.36C690.681 393.44 690.701 393.513 690.701 393.58C690.701 393.7 690.654 393.8 690.561 393.88C690.481 393.96 690.388 394 690.281 394H688.461C688.234 394 688.061 393.94 687.941 393.82C687.821 393.7 687.728 393.58 687.661 393.46L685.081 388.72H682.301V393.52C682.301 393.653 682.254 393.767 682.161 393.86C682.081 393.953 681.968 394 681.821 394H680.001ZM682.301 386.46H685.121C685.934 386.46 686.541 386.28 686.941 385.92C687.341 385.547 687.541 385.027 687.541 384.36C687.541 383.693 687.341 383.173 686.941 382.8C686.554 382.413 685.948 382.22 685.121 382.22H682.301V386.46ZM697.101 394.2C695.621 394.2 694.447 393.773 693.581 392.92C692.714 392.067 692.247 390.853 692.181 389.28C692.167 389.147 692.161 388.98 692.161 388.78C692.161 388.567 692.167 388.4 692.181 388.28C692.234 387.28 692.461 386.413 692.861 385.68C693.274 384.947 693.841 384.387 694.561 384C695.281 383.6 696.127 383.4 697.101 383.4C698.181 383.4 699.087 383.627 699.821 384.08C700.554 384.52 701.107 385.14 701.481 385.94C701.854 386.727 702.041 387.64 702.041 388.68V389.1C702.041 389.233 701.994 389.347 701.901 389.44C701.807 389.533 701.687 389.58 701.541 389.58H694.901C694.901 389.58 694.901 389.6 694.901 389.64C694.901 389.68 694.901 389.713 694.901 389.74C694.914 390.207 695.001 390.64 695.161 391.04C695.334 391.427 695.581 391.74 695.901 391.98C696.234 392.22 696.627 392.34 697.081 392.34C697.454 392.34 697.767 392.287 698.021 392.18C698.274 392.06 698.481 391.927 698.641 391.78C698.801 391.633 698.914 391.513 698.981 391.42C699.101 391.26 699.194 391.167 699.261 391.14C699.341 391.1 699.454 391.08 699.601 391.08H701.321C701.454 391.08 701.561 391.12 701.641 391.2C701.734 391.28 701.774 391.38 701.761 391.5C701.747 391.713 701.634 391.973 701.421 392.28C701.221 392.587 700.927 392.887 700.541 393.18C700.154 393.473 699.667 393.72 699.081 393.92C698.507 394.107 697.847 394.2 697.101 394.2ZM694.901 387.9H699.321V387.84C699.321 387.32 699.234 386.867 699.061 386.48C698.887 386.093 698.634 385.787 698.301 385.56C697.967 385.333 697.567 385.22 697.101 385.22C696.634 385.22 696.234 385.333 695.901 385.56C695.567 385.787 695.314 386.093 695.141 386.48C694.981 386.867 694.901 387.32 694.901 387.84V387.9ZM704.664 397.8C704.53 397.8 704.417 397.753 704.324 397.66C704.23 397.567 704.184 397.453 704.184 397.32V384.08C704.184 383.947 704.23 383.833 704.324 383.74C704.417 383.647 704.53 383.6 704.664 383.6H706.244C706.39 383.6 706.504 383.647 706.584 383.74C706.677 383.833 706.724 383.947 706.724 384.08V384.88C707.044 384.453 707.464 384.1 707.984 383.82C708.504 383.54 709.15 383.4 709.924 383.4C710.63 383.4 711.244 383.513 711.764 383.74C712.284 383.967 712.717 384.293 713.064 384.72C713.41 385.133 713.677 385.627 713.864 386.2C714.05 386.773 714.157 387.407 714.184 388.1C714.197 388.327 714.204 388.56 714.204 388.8C714.204 389.04 714.197 389.28 714.184 389.52C714.17 390.187 714.07 390.807 713.884 391.38C713.697 391.94 713.424 392.433 713.064 392.86C712.717 393.273 712.284 393.6 711.764 393.84C711.244 394.08 710.63 394.2 709.924 394.2C709.204 394.2 708.59 394.073 708.084 393.82C707.577 393.553 707.164 393.207 706.844 392.78V397.32C706.844 397.453 706.797 397.567 706.704 397.66C706.624 397.753 706.51 397.8 706.364 397.8H704.664ZM709.184 392.06C709.757 392.06 710.204 391.94 710.524 391.7C710.844 391.447 711.07 391.12 711.204 390.72C711.35 390.32 711.437 389.88 711.464 389.4C711.49 389 711.49 388.6 711.464 388.2C711.437 387.72 711.35 387.28 711.204 386.88C711.07 386.48 710.844 386.16 710.524 385.92C710.204 385.667 709.757 385.54 709.184 385.54C708.637 385.54 708.19 385.667 707.844 385.92C707.51 386.173 707.264 386.5 707.104 386.9C706.957 387.287 706.87 387.687 706.844 388.1C706.83 388.34 706.824 388.593 706.824 388.86C706.824 389.127 706.83 389.387 706.844 389.64C706.857 390.04 706.95 390.427 707.124 390.8C707.297 391.16 707.55 391.46 707.884 391.7C708.217 391.94 708.65 392.06 709.184 392.06ZM721.049 394.2C719.982 394.2 719.082 394.013 718.349 393.64C717.629 393.267 717.076 392.74 716.689 392.06C716.316 391.38 716.102 390.587 716.049 389.68C716.036 389.44 716.029 389.147 716.029 388.8C716.029 388.453 716.036 388.16 716.049 387.92C716.102 387 716.322 386.207 716.709 385.54C717.109 384.86 717.669 384.333 718.389 383.96C719.122 383.587 720.009 383.4 721.049 383.4C722.089 383.4 722.969 383.587 723.689 383.96C724.422 384.333 724.982 384.86 725.369 385.54C725.769 386.207 725.996 387 726.049 387.92C726.062 388.16 726.069 388.453 726.069 388.8C726.069 389.147 726.062 389.44 726.049 389.68C725.996 390.587 725.776 391.38 725.389 392.06C725.016 392.74 724.462 393.267 723.729 393.64C723.009 394.013 722.116 394.2 721.049 394.2ZM721.049 392.22C721.756 392.22 722.302 392 722.689 391.56C723.076 391.107 723.289 390.447 723.329 389.58C723.342 389.38 723.349 389.12 723.349 388.8C723.349 388.48 723.342 388.22 723.329 388.02C723.289 387.167 723.076 386.513 722.689 386.06C722.302 385.607 721.756 385.38 721.049 385.38C720.342 385.38 719.796 385.607 719.409 386.06C719.022 386.513 718.809 387.167 718.769 388.02C718.756 388.22 718.749 388.48 718.749 388.8C718.749 389.12 718.756 389.38 718.769 389.58C718.809 390.447 719.022 391.107 719.409 391.56C719.796 392 720.342 392.22 721.049 392.22ZM732.225 394.2C731.425 394.2 730.738 394.107 730.165 393.92C729.605 393.733 729.145 393.5 728.785 393.22C728.425 392.94 728.158 392.66 727.985 392.38C727.812 392.1 727.718 391.867 727.705 391.68C727.692 391.533 727.732 391.42 727.825 391.34C727.932 391.247 728.045 391.2 728.165 391.2H729.745C729.798 391.2 729.845 391.207 729.885 391.22C729.925 391.233 729.978 391.273 730.045 391.34C730.218 391.487 730.398 391.64 730.585 391.8C730.785 391.96 731.018 392.1 731.285 392.22C731.552 392.327 731.885 392.38 732.285 392.38C732.805 392.38 733.238 392.28 733.585 392.08C733.945 391.867 734.125 391.567 734.125 391.18C734.125 390.9 734.045 390.673 733.885 390.5C733.738 390.327 733.458 390.173 733.045 390.04C732.632 389.893 732.045 389.74 731.285 389.58C730.538 389.407 729.918 389.187 729.425 388.92C728.932 388.653 728.565 388.32 728.325 387.92C728.085 387.52 727.965 387.053 727.965 386.52C727.965 386 728.118 385.507 728.425 385.04C728.745 384.56 729.212 384.167 729.825 383.86C730.452 383.553 731.225 383.4 732.145 383.4C732.865 383.4 733.492 383.493 734.025 383.68C734.558 383.853 734.998 384.073 735.345 384.34C735.705 384.607 735.978 384.88 736.165 385.16C736.352 385.427 736.452 385.66 736.465 385.86C736.478 386.007 736.438 386.127 736.345 386.22C736.252 386.3 736.145 386.34 736.025 386.34H734.545C734.478 386.34 734.418 386.327 734.365 386.3C734.312 386.273 734.258 386.24 734.205 386.2C734.058 386.067 733.898 385.927 733.725 385.78C733.552 385.633 733.338 385.507 733.085 385.4C732.845 385.28 732.525 385.22 732.125 385.22C731.618 385.22 731.232 385.333 730.965 385.56C730.698 385.773 730.565 386.047 730.565 386.38C730.565 386.607 730.625 386.807 730.745 386.98C730.878 387.14 731.138 387.293 731.525 387.44C731.912 387.587 732.498 387.74 733.285 387.9C734.178 388.06 734.885 388.3 735.405 388.62C735.938 388.927 736.312 389.287 736.525 389.7C736.752 390.1 736.865 390.547 736.865 391.04C736.865 391.64 736.685 392.18 736.325 392.66C735.978 393.14 735.458 393.52 734.765 393.8C734.085 394.067 733.238 394.2 732.225 394.2ZM739.409 394C739.276 394 739.163 393.953 739.069 393.86C738.976 393.767 738.929 393.653 738.929 393.52V384.08C738.929 383.947 738.976 383.833 739.069 383.74C739.163 383.647 739.276 383.6 739.409 383.6H741.069C741.216 383.6 741.329 383.647 741.409 383.74C741.503 383.833 741.549 383.947 741.549 384.08V393.52C741.549 393.653 741.503 393.767 741.409 393.86C741.329 393.953 741.216 394 741.069 394H739.409ZM739.329 381.88C739.183 381.88 739.063 381.84 738.969 381.76C738.889 381.667 738.849 381.547 738.849 381.4V379.96C738.849 379.827 738.889 379.713 738.969 379.62C739.063 379.527 739.183 379.48 739.329 379.48H741.149C741.296 379.48 741.416 379.527 741.509 379.62C741.603 379.713 741.649 379.827 741.649 379.96V381.4C741.649 381.547 741.603 381.667 741.509 381.76C741.416 381.84 741.296 381.88 741.149 381.88H739.329ZM748.903 394C748.103 394 747.429 393.86 746.883 393.58C746.336 393.3 745.929 392.887 745.663 392.34C745.396 391.78 745.263 391.087 745.263 390.26V385.72H743.683C743.549 385.72 743.436 385.673 743.343 385.58C743.249 385.487 743.203 385.373 743.203 385.24V384.08C743.203 383.947 743.249 383.833 743.343 383.74C743.436 383.647 743.549 383.6 743.683 383.6H745.263V380.28C745.263 380.147 745.303 380.033 745.383 379.94C745.476 379.847 745.596 379.8 745.743 379.8H747.363C747.496 379.8 747.609 379.847 747.703 379.94C747.796 380.033 747.843 380.147 747.843 380.28V383.6H750.343C750.476 383.6 750.589 383.647 750.683 383.74C750.776 383.833 750.823 383.947 750.823 384.08V385.24C750.823 385.373 750.776 385.487 750.683 385.58C750.589 385.673 750.476 385.72 750.343 385.72H747.843V390.06C747.843 390.607 747.936 391.033 748.123 391.34C748.323 391.647 748.663 391.8 749.143 391.8H750.523C750.656 391.8 750.769 391.847 750.863 391.94C750.956 392.033 751.003 392.147 751.003 392.28V393.52C751.003 393.653 750.956 393.767 750.863 393.86C750.769 393.953 750.656 394 750.523 394H748.903ZM757.377 394.2C756.31 394.2 755.41 394.013 754.677 393.64C753.957 393.267 753.404 392.74 753.017 392.06C752.644 391.38 752.43 390.587 752.377 389.68C752.364 389.44 752.357 389.147 752.357 388.8C752.357 388.453 752.364 388.16 752.377 387.92C752.43 387 752.65 386.207 753.037 385.54C753.437 384.86 753.997 384.333 754.717 383.96C755.45 383.587 756.337 383.4 757.377 383.4C758.417 383.4 759.297 383.587 760.017 383.96C760.75 384.333 761.31 384.86 761.697 385.54C762.097 386.207 762.324 387 762.377 387.92C762.39 388.16 762.397 388.453 762.397 388.8C762.397 389.147 762.39 389.44 762.377 389.68C762.324 390.587 762.104 391.38 761.717 392.06C761.344 392.74 760.79 393.267 760.057 393.64C759.337 394.013 758.444 394.2 757.377 394.2ZM757.377 392.22C758.084 392.22 758.63 392 759.017 391.56C759.404 391.107 759.617 390.447 759.657 389.58C759.67 389.38 759.677 389.12 759.677 388.8C759.677 388.48 759.67 388.22 759.657 388.02C759.617 387.167 759.404 386.513 759.017 386.06C758.63 385.607 758.084 385.38 757.377 385.38C756.67 385.38 756.124 385.607 755.737 386.06C755.35 386.513 755.137 387.167 755.097 388.02C755.084 388.22 755.077 388.48 755.077 388.8C755.077 389.12 755.084 389.38 755.097 389.58C755.137 390.447 755.35 391.107 755.737 391.56C756.124 392 756.67 392.22 757.377 392.22ZM765.093 394C764.96 394 764.846 393.953 764.753 393.86C764.66 393.767 764.613 393.653 764.613 393.52V384.1C764.613 383.953 764.66 383.833 764.753 383.74C764.846 383.647 764.96 383.6 765.093 383.6H766.713C766.846 383.6 766.96 383.647 767.053 383.74C767.16 383.833 767.213 383.953 767.213 384.1V384.92C767.52 384.493 767.913 384.167 768.393 383.94C768.886 383.713 769.453 383.6 770.093 383.6H770.913C771.06 383.6 771.173 383.647 771.253 383.74C771.346 383.833 771.393 383.947 771.393 384.08V385.52C771.393 385.653 771.346 385.767 771.253 385.86C771.173 385.953 771.06 386 770.913 386H769.353C768.713 386 768.213 386.18 767.853 386.54C767.506 386.9 767.333 387.393 767.333 388.02V393.52C767.333 393.653 767.286 393.767 767.193 393.86C767.1 393.953 766.98 394 766.833 394H765.093ZM774.833 397.8C774.726 397.8 774.633 397.76 774.553 397.68C774.473 397.6 774.433 397.507 774.433 397.4C774.433 397.347 774.433 397.293 774.433 397.24C774.446 397.2 774.473 397.147 774.513 397.08L776.073 393.38L772.233 384.32C772.179 384.187 772.153 384.093 772.153 384.04C772.166 383.92 772.213 383.82 772.293 383.74C772.373 383.647 772.473 383.6 772.593 383.6H774.213C774.373 383.6 774.493 383.64 774.573 383.72C774.653 383.8 774.713 383.887 774.753 383.98L777.413 390.52L780.153 383.98C780.193 383.873 780.253 383.787 780.333 383.72C780.413 383.64 780.533 383.6 780.693 383.6H782.293C782.399 383.6 782.493 383.64 782.573 383.72C782.666 383.8 782.713 383.893 782.713 384C782.713 384.08 782.686 384.187 782.633 384.32L776.973 397.42C776.919 397.527 776.853 397.613 776.773 397.68C776.693 397.76 776.573 397.8 776.413 397.8H774.833Z" fill="#012626"/>
<g filter="url(#filter2_dii_9091_952)">
<rect width="300" height="310" rx="20" transform="matrix(0.866025 -0.5 0.866025 0.5 37 252)" fill="#C2D2F0" fill-opacity="0.8" shape-rendering="crispEdges"/>
</g>
<path d="M305 288.667C306.473 288.667 307.667 287.473 307.667 286C307.667 284.527 306.473 283.333 305 283.333C303.527 283.333 302.333 284.527 302.333 286C302.333 287.473 303.527 288.667 305 288.667ZM305 286.5H308V285.5H305V286.5ZM314 286.5H320V285.5H314V286.5ZM326 286.5H332V285.5H326V286.5ZM338 286.5H344V285.5H338V286.5ZM350 286.5H356V285.5H350V286.5ZM362 286.5H368V285.5H362V286.5ZM374 286.5H380V285.5H374V286.5ZM386 286.5H392V285.5H386V286.5ZM398 286.5H404V285.5H398V286.5ZM410 286.5H416V285.5H410V286.5ZM422 286.5H428V285.5H422V286.5ZM434 286.5H440V285.5H434V286.5ZM446 286.5H452V285.5H446V286.5ZM458 286.5H464V285.5H458V286.5ZM470 286.5H476V285.5H470V286.5ZM482 286.5H488V285.5H482V286.5ZM494 286.5H500V285.5H494V286.5ZM506 286.5H512V285.5H506V286.5ZM518 286.5H524V285.5H518V286.5ZM530 286.5H536V285.5H530V286.5ZM542 286.5H548V285.5H542V286.5ZM554 286.5H557V285.5H554V286.5Z" fill="#5D9393"/>
<rect x="569" y="266" width="40" height="40" rx="20" fill="#CEF7E3"/>
<path d="M584.189 293C584.055 293 583.942 292.953 583.849 292.86C583.755 292.767 583.709 292.653 583.709 292.52V291.5C583.709 291.38 583.735 291.24 583.789 291.08C583.855 290.907 583.995 290.733 584.209 290.56L587.369 287.42C588.249 286.727 588.955 286.14 589.489 285.66C590.035 285.167 590.429 284.72 590.669 284.32C590.922 283.907 591.049 283.5 591.049 283.1C591.049 282.5 590.882 282.013 590.549 281.64C590.229 281.267 589.715 281.08 589.009 281.08C588.542 281.08 588.149 281.18 587.829 281.38C587.509 281.567 587.255 281.82 587.069 282.14C586.895 282.46 586.775 282.813 586.709 283.2C586.682 283.373 586.609 283.493 586.489 283.56C586.369 283.627 586.249 283.66 586.129 283.66H584.349C584.229 283.66 584.129 283.62 584.049 283.54C583.969 283.46 583.929 283.367 583.929 283.26C583.942 282.687 584.062 282.133 584.289 281.6C584.515 281.053 584.842 280.573 585.269 280.16C585.709 279.733 586.242 279.393 586.869 279.14C587.495 278.887 588.202 278.76 588.989 278.76C590.095 278.76 591.009 278.947 591.729 279.32C592.462 279.693 593.009 280.2 593.369 280.84C593.742 281.48 593.929 282.2 593.929 283C593.929 283.627 593.809 284.207 593.569 284.74C593.329 285.26 592.982 285.767 592.529 286.26C592.075 286.74 591.529 287.233 590.889 287.74L588.049 290.62H593.749C593.895 290.62 594.009 290.667 594.089 290.76C594.182 290.84 594.229 290.953 594.229 291.1V292.52C594.229 292.653 594.182 292.767 594.089 292.86C594.009 292.953 593.895 293 593.749 293H584.189Z" fill="#012626"/>
<path d="M623.04 293C622.907 293 622.793 292.953 622.7 292.86C622.607 292.767 622.56 292.653 622.56 292.52V279.5C622.56 279.353 622.607 279.233 622.7 279.14C622.793 279.047 622.907 279 623.04 279H627.92C629.267 279 630.373 279.207 631.24 279.62C632.12 280.033 632.78 280.647 633.22 281.46C633.673 282.273 633.907 283.267 633.92 284.44C633.947 285.027 633.96 285.547 633.96 286C633.96 286.453 633.947 286.967 633.92 287.54C633.893 288.78 633.667 289.807 633.24 290.62C632.813 291.42 632.167 292.02 631.3 292.42C630.447 292.807 629.353 293 628.02 293H623.04ZM625.34 290.7H627.92C628.667 290.7 629.273 290.593 629.74 290.38C630.207 290.167 630.547 289.827 630.76 289.36C630.987 288.88 631.107 288.253 631.12 287.48C631.133 287.08 631.14 286.733 631.14 286.44C631.153 286.133 631.153 285.833 631.14 285.54C631.14 285.233 631.133 284.887 631.12 284.5C631.093 283.407 630.82 282.6 630.3 282.08C629.78 281.56 628.953 281.3 627.82 281.3H625.34V290.7ZM639.403 293.2C638.709 293.2 638.083 293.067 637.523 292.8C636.963 292.52 636.516 292.153 636.183 291.7C635.863 291.233 635.703 290.713 635.703 290.14C635.703 289.207 636.076 288.467 636.823 287.92C637.583 287.36 638.583 286.987 639.823 286.8L642.563 286.4V285.98C642.563 285.42 642.423 284.987 642.143 284.68C641.863 284.373 641.383 284.22 640.703 284.22C640.223 284.22 639.829 284.32 639.523 284.52C639.229 284.707 639.009 284.96 638.863 285.28C638.756 285.453 638.603 285.54 638.403 285.54H636.823C636.676 285.54 636.563 285.5 636.483 285.42C636.416 285.34 636.382 285.233 636.382 285.1C636.396 284.887 636.483 284.627 636.643 284.32C636.803 284.013 637.056 283.72 637.403 283.44C637.749 283.147 638.196 282.9 638.743 282.7C639.289 282.5 639.949 282.4 640.723 282.4C641.563 282.4 642.269 282.507 642.843 282.72C643.429 282.92 643.896 283.193 644.243 283.54C644.589 283.887 644.843 284.293 645.003 284.76C645.163 285.227 645.243 285.72 645.243 286.24V292.52C645.243 292.653 645.196 292.767 645.103 292.86C645.009 292.953 644.896 293 644.763 293H643.143C642.996 293 642.876 292.953 642.783 292.86C642.703 292.767 642.663 292.653 642.663 292.52V291.74C642.489 291.993 642.256 292.233 641.963 292.46C641.669 292.673 641.309 292.853 640.883 293C640.469 293.133 639.976 293.2 639.403 293.2ZM640.083 291.3C640.549 291.3 640.969 291.2 641.343 291C641.729 290.8 642.029 290.493 642.243 290.08C642.469 289.653 642.583 289.12 642.583 288.48V288.06L640.583 288.38C639.796 288.5 639.209 288.693 638.823 288.96C638.436 289.227 638.243 289.553 638.243 289.94C638.243 290.233 638.329 290.487 638.503 290.7C638.689 290.9 638.923 291.053 639.203 291.16C639.483 291.253 639.776 291.3 640.083 291.3ZM652.411 293C651.611 293 650.937 292.86 650.391 292.58C649.844 292.3 649.437 291.887 649.171 291.34C648.904 290.78 648.771 290.087 648.771 289.26V284.72H647.191C647.057 284.72 646.944 284.673 646.851 284.58C646.757 284.487 646.711 284.373 646.711 284.24V283.08C646.711 282.947 646.757 282.833 646.851 282.74C646.944 282.647 647.057 282.6 647.191 282.6H648.771V279.28C648.771 279.147 648.811 279.033 648.891 278.94C648.984 278.847 649.104 278.8 649.251 278.8H650.871C651.004 278.8 651.117 278.847 651.211 278.94C651.304 279.033 651.351 279.147 651.351 279.28V282.6H653.851C653.984 282.6 654.097 282.647 654.191 282.74C654.284 282.833 654.331 282.947 654.331 283.08V284.24C654.331 284.373 654.284 284.487 654.191 284.58C654.097 284.673 653.984 284.72 653.851 284.72H651.351V289.06C651.351 289.607 651.444 290.033 651.631 290.34C651.831 290.647 652.171 290.8 652.651 290.8H654.031C654.164 290.8 654.277 290.847 654.371 290.94C654.464 291.033 654.511 291.147 654.511 291.28V292.52C654.511 292.653 654.464 292.767 654.371 292.86C654.277 292.953 654.164 293 654.031 293H652.411ZM659.305 293.2C658.612 293.2 657.985 293.067 657.425 292.8C656.865 292.52 656.418 292.153 656.085 291.7C655.765 291.233 655.605 290.713 655.605 290.14C655.605 289.207 655.978 288.467 656.725 287.92C657.485 287.36 658.485 286.987 659.725 286.8L662.465 286.4V285.98C662.465 285.42 662.325 284.987 662.045 284.68C661.765 284.373 661.285 284.22 660.605 284.22C660.125 284.22 659.732 284.32 659.425 284.52C659.132 284.707 658.912 284.96 658.765 285.28C658.658 285.453 658.505 285.54 658.305 285.54H656.725C656.578 285.54 656.465 285.5 656.385 285.42C656.318 285.34 656.285 285.233 656.285 285.1C656.298 284.887 656.385 284.627 656.545 284.32C656.705 284.013 656.958 283.72 657.305 283.44C657.652 283.147 658.098 282.9 658.645 282.7C659.192 282.5 659.852 282.4 660.625 282.4C661.465 282.4 662.172 282.507 662.745 282.72C663.332 282.92 663.798 283.193 664.145 283.54C664.492 283.887 664.745 284.293 664.905 284.76C665.065 285.227 665.145 285.72 665.145 286.24V292.52C665.145 292.653 665.098 292.767 665.005 292.86C664.912 292.953 664.798 293 664.665 293H663.045C662.898 293 662.778 292.953 662.685 292.86C662.605 292.767 662.565 292.653 662.565 292.52V291.74C662.392 291.993 662.158 292.233 661.865 292.46C661.572 292.673 661.212 292.853 660.785 293C660.372 293.133 659.878 293.2 659.305 293.2ZM659.985 291.3C660.452 291.3 660.872 291.2 661.245 291C661.632 290.8 661.932 290.493 662.145 290.08C662.372 289.653 662.485 289.12 662.485 288.48V288.06L660.485 288.38C659.698 288.5 659.112 288.693 658.725 288.96C658.338 289.227 658.145 289.553 658.145 289.94C658.145 290.233 658.232 290.487 658.405 290.7C658.592 290.9 658.825 291.053 659.105 291.16C659.385 291.253 659.678 291.3 659.985 291.3ZM676.074 293C675.86 293 675.694 292.947 675.574 292.84C675.454 292.733 675.367 292.6 675.314 292.44L671.034 279.6C671.007 279.533 670.994 279.473 670.994 279.42C670.994 279.3 671.034 279.2 671.114 279.12C671.194 279.04 671.294 279 671.414 279H673.174C673.36 279 673.5 279.053 673.594 279.16C673.7 279.253 673.767 279.347 673.794 279.44L677.174 289.74L680.534 279.44C680.574 279.347 680.64 279.253 680.734 279.16C680.84 279.053 680.987 279 681.174 279H682.934C683.04 279 683.134 279.04 683.214 279.12C683.307 279.2 683.354 279.3 683.354 279.42C683.354 279.473 683.34 279.533 683.314 279.6L679.034 292.44C678.98 292.6 678.894 292.733 678.774 292.84C678.654 292.947 678.487 293 678.274 293H676.074ZM687.098 293.2C686.404 293.2 685.778 293.067 685.218 292.8C684.658 292.52 684.211 292.153 683.878 291.7C683.558 291.233 683.398 290.713 683.398 290.14C683.398 289.207 683.771 288.467 684.518 287.92C685.278 287.36 686.278 286.987 687.518 286.8L690.258 286.4V285.98C690.258 285.42 690.118 284.987 689.838 284.68C689.558 284.373 689.078 284.22 688.398 284.22C687.918 284.22 687.524 284.32 687.218 284.52C686.924 284.707 686.704 284.96 686.558 285.28C686.451 285.453 686.298 285.54 686.098 285.54H684.518C684.371 285.54 684.258 285.5 684.178 285.42C684.111 285.34 684.078 285.233 684.078 285.1C684.091 284.887 684.178 284.627 684.338 284.32C684.498 284.013 684.751 283.72 685.098 283.44C685.444 283.147 685.891 282.9 686.438 282.7C686.984 282.5 687.644 282.4 688.418 282.4C689.258 282.4 689.964 282.507 690.538 282.72C691.124 282.92 691.591 283.193 691.938 283.54C692.284 283.887 692.538 284.293 692.698 284.76C692.858 285.227 692.938 285.72 692.938 286.24V292.52C692.938 292.653 692.891 292.767 692.798 292.86C692.704 292.953 692.591 293 692.458 293H690.838C690.691 293 690.571 292.953 690.478 292.86C690.398 292.767 690.358 292.653 690.358 292.52V291.74C690.184 291.993 689.951 292.233 689.658 292.46C689.364 292.673 689.004 292.853 688.578 293C688.164 293.133 687.671 293.2 687.098 293.2ZM687.778 291.3C688.244 291.3 688.664 291.2 689.038 291C689.424 290.8 689.724 290.493 689.938 290.08C690.164 289.653 690.278 289.12 690.278 288.48V288.06L688.278 288.38C687.491 288.5 686.904 288.693 686.518 288.96C686.131 289.227 685.938 289.553 685.938 289.94C685.938 290.233 686.024 290.487 686.198 290.7C686.384 290.9 686.618 291.053 686.898 291.16C687.178 291.253 687.471 291.3 687.778 291.3ZM696.004 293C695.87 293 695.757 292.953 695.664 292.86C695.57 292.767 695.524 292.653 695.524 292.52V279.28C695.524 279.147 695.57 279.033 695.664 278.94C695.757 278.847 695.87 278.8 696.004 278.8H697.664C697.797 278.8 697.91 278.847 698.004 278.94C698.097 279.033 698.144 279.147 698.144 279.28V292.52C698.144 292.653 698.097 292.767 698.004 292.86C697.91 292.953 697.797 293 697.664 293H696.004ZM701.706 293C701.573 293 701.46 292.953 701.366 292.86C701.273 292.767 701.226 292.653 701.226 292.52V283.08C701.226 282.947 701.273 282.833 701.366 282.74C701.46 282.647 701.573 282.6 701.706 282.6H703.366C703.513 282.6 703.626 282.647 703.706 282.74C703.8 282.833 703.846 282.947 703.846 283.08V292.52C703.846 292.653 703.8 292.767 703.706 292.86C703.626 292.953 703.513 293 703.366 293H701.706ZM701.626 280.88C701.48 280.88 701.36 280.84 701.266 280.76C701.186 280.667 701.146 280.547 701.146 280.4V278.96C701.146 278.827 701.186 278.713 701.266 278.62C701.36 278.527 701.48 278.48 701.626 278.48H703.446C703.593 278.48 703.713 278.527 703.806 278.62C703.9 278.713 703.946 278.827 703.946 278.96V280.4C703.946 280.547 703.9 280.667 703.806 280.76C703.713 280.84 703.593 280.88 703.446 280.88H701.626ZM710.36 293.2C709.666 293.2 709.053 293.087 708.52 292.86C708 292.62 707.566 292.287 707.22 291.86C706.873 291.433 706.606 290.933 706.42 290.36C706.233 289.773 706.126 289.133 706.1 288.44C706.086 288.2 706.08 287.987 706.08 287.8C706.08 287.6 706.086 287.38 706.1 287.14C706.126 286.473 706.226 285.853 706.4 285.28C706.586 284.707 706.853 284.207 707.2 283.78C707.56 283.34 708 283 708.52 282.76C709.053 282.52 709.666 282.4 710.36 282.4C711.08 282.4 711.686 282.527 712.18 282.78C712.686 283.02 713.106 283.333 713.44 283.72V279.28C713.44 279.147 713.48 279.033 713.56 278.94C713.653 278.847 713.773 278.8 713.92 278.8H715.62C715.753 278.8 715.866 278.847 715.96 278.94C716.053 279.033 716.1 279.147 716.1 279.28V292.52C716.1 292.653 716.053 292.767 715.96 292.86C715.866 292.953 715.753 293 715.62 293H714.04C713.893 293 713.773 292.953 713.68 292.86C713.6 292.767 713.56 292.653 713.56 292.52V291.78C713.226 292.193 712.8 292.533 712.28 292.8C711.773 293.067 711.133 293.2 710.36 293.2ZM711.1 291.06C711.66 291.06 712.106 290.933 712.44 290.68C712.773 290.427 713.02 290.107 713.18 289.72C713.34 289.32 713.426 288.913 713.44 288.5C713.453 288.26 713.46 288.007 713.46 287.74C713.46 287.46 713.453 287.2 713.44 286.96C713.426 286.56 713.333 286.18 713.16 285.82C712.986 285.447 712.733 285.14 712.4 284.9C712.066 284.66 711.633 284.54 711.1 284.54C710.54 284.54 710.093 284.667 709.76 284.92C709.44 285.16 709.206 285.48 709.06 285.88C708.913 286.28 708.826 286.72 708.8 287.2C708.786 287.6 708.786 288 708.8 288.4C708.826 288.88 708.913 289.32 709.06 289.72C709.206 290.12 709.44 290.447 709.76 290.7C710.093 290.94 710.54 291.06 711.1 291.06ZM721.785 293.2C721.092 293.2 720.465 293.067 719.905 292.8C719.345 292.52 718.899 292.153 718.565 291.7C718.245 291.233 718.085 290.713 718.085 290.14C718.085 289.207 718.459 288.467 719.205 287.92C719.965 287.36 720.965 286.987 722.205 286.8L724.945 286.4V285.98C724.945 285.42 724.805 284.987 724.525 284.68C724.245 284.373 723.765 284.22 723.085 284.22C722.605 284.22 722.212 284.32 721.905 284.52C721.612 284.707 721.392 284.96 721.245 285.28C721.139 285.453 720.985 285.54 720.785 285.54H719.205C719.059 285.54 718.945 285.5 718.865 285.42C718.799 285.34 718.765 285.233 718.765 285.1C718.779 284.887 718.865 284.627 719.025 284.32C719.185 284.013 719.439 283.72 719.785 283.44C720.132 283.147 720.579 282.9 721.125 282.7C721.672 282.5 722.332 282.4 723.105 282.4C723.945 282.4 724.652 282.507 725.225 282.72C725.812 282.92 726.279 283.193 726.625 283.54C726.972 283.887 727.225 284.293 727.385 284.76C727.545 285.227 727.625 285.72 727.625 286.24V292.52C727.625 292.653 727.579 292.767 727.485 292.86C727.392 292.953 727.279 293 727.145 293H725.525C725.379 293 725.259 292.953 725.165 292.86C725.085 292.767 725.045 292.653 725.045 292.52V291.74C724.872 291.993 724.639 292.233 724.345 292.46C724.052 292.673 723.692 292.853 723.265 293C722.852 293.133 722.359 293.2 721.785 293.2ZM722.465 291.3C722.932 291.3 723.352 291.2 723.725 291C724.112 290.8 724.412 290.493 724.625 290.08C724.852 289.653 724.965 289.12 724.965 288.48V288.06L722.965 288.38C722.179 288.5 721.592 288.693 721.205 288.96C720.819 289.227 720.625 289.553 720.625 289.94C720.625 290.233 720.712 290.487 720.885 290.7C721.072 290.9 721.305 291.053 721.585 291.16C721.865 291.253 722.159 291.3 722.465 291.3ZM734.793 293C733.993 293 733.32 292.86 732.773 292.58C732.227 292.3 731.82 291.887 731.553 291.34C731.287 290.78 731.153 290.087 731.153 289.26V284.72H729.573C729.44 284.72 729.327 284.673 729.233 284.58C729.14 284.487 729.093 284.373 729.093 284.24V283.08C729.093 282.947 729.14 282.833 729.233 282.74C729.327 282.647 729.44 282.6 729.573 282.6H731.153V279.28C731.153 279.147 731.193 279.033 731.273 278.94C731.367 278.847 731.487 278.8 731.633 278.8H733.253C733.387 278.8 733.5 278.847 733.593 278.94C733.687 279.033 733.733 279.147 733.733 279.28V282.6H736.233C736.367 282.6 736.48 282.647 736.573 282.74C736.667 282.833 736.713 282.947 736.713 283.08V284.24C736.713 284.373 736.667 284.487 736.573 284.58C736.48 284.673 736.367 284.72 736.233 284.72H733.733V289.06C733.733 289.607 733.827 290.033 734.013 290.34C734.213 290.647 734.553 290.8 735.033 290.8H736.413C736.547 290.8 736.66 290.847 736.753 290.94C736.847 291.033 736.893 291.147 736.893 291.28V292.52C736.893 292.653 736.847 292.767 736.753 292.86C736.66 292.953 736.547 293 736.413 293H734.793ZM743.268 293.2C742.201 293.2 741.301 293.013 740.568 292.64C739.848 292.267 739.294 291.74 738.908 291.06C738.534 290.38 738.321 289.587 738.268 288.68C738.254 288.44 738.248 288.147 738.248 287.8C738.248 287.453 738.254 287.16 738.268 286.92C738.321 286 738.541 285.207 738.928 284.54C739.328 283.86 739.888 283.333 740.608 282.96C741.341 282.587 742.228 282.4 743.268 282.4C744.308 282.4 745.188 282.587 745.908 282.96C746.641 283.333 747.201 283.86 747.588 284.54C747.988 285.207 748.214 286 748.268 286.92C748.281 287.16 748.288 287.453 748.288 287.8C748.288 288.147 748.281 288.44 748.268 288.68C748.214 289.587 747.994 290.38 747.608 291.06C747.234 291.74 746.681 292.267 745.948 292.64C745.228 293.013 744.334 293.2 743.268 293.2ZM743.268 291.22C743.974 291.22 744.521 291 744.908 290.56C745.294 290.107 745.508 289.447 745.548 288.58C745.561 288.38 745.568 288.12 745.568 287.8C745.568 287.48 745.561 287.22 745.548 287.02C745.508 286.167 745.294 285.513 744.908 285.06C744.521 284.607 743.974 284.38 743.268 284.38C742.561 284.38 742.014 284.607 741.628 285.06C741.241 285.513 741.028 286.167 740.988 287.02C740.974 287.22 740.968 287.48 740.968 287.8C740.968 288.12 740.974 288.38 740.988 288.58C741.028 289.447 741.241 290.107 741.628 290.56C742.014 291 742.561 291.22 743.268 291.22ZM750.984 293C750.85 293 750.737 292.953 750.644 292.86C750.55 292.767 750.504 292.653 750.504 292.52V283.1C750.504 282.953 750.55 282.833 750.644 282.74C750.737 282.647 750.85 282.6 750.984 282.6H752.604C752.737 282.6 752.85 282.647 752.944 282.74C753.05 282.833 753.104 282.953 753.104 283.1V283.92C753.41 283.493 753.804 283.167 754.284 282.94C754.777 282.713 755.344 282.6 755.984 282.6H756.804C756.95 282.6 757.064 282.647 757.144 282.74C757.237 282.833 757.284 282.947 757.284 283.08V284.52C757.284 284.653 757.237 284.767 757.144 284.86C757.064 284.953 756.95 285 756.804 285H755.244C754.604 285 754.104 285.18 753.744 285.54C753.397 285.9 753.224 286.393 753.224 287.02V292.52C753.224 292.653 753.177 292.767 753.084 292.86C752.99 292.953 752.87 293 752.724 293H750.984Z" fill="#012626"/>
<g filter="url(#filter3_dii_9091_952)">
<rect width="300" height="310" rx="20" transform="matrix(0.866025 -0.5 0.866025 0.5 37 160)" fill="#C2F0E8" fill-opacity="0.8" shape-rendering="crispEdges"/>
</g>
<path d="M305 145.667C306.473 145.667 307.667 144.473 307.667 143C307.667 141.527 306.473 140.333 305 140.333C303.527 140.333 302.333 141.527 302.333 143C302.333 144.473 303.527 145.667 305 145.667ZM305 143.5H308V142.5H305V143.5ZM314 143.5H320V142.5H314V143.5ZM326 143.5H332V142.5H326V143.5ZM338 143.5H344V142.5H338V143.5ZM350 143.5H356V142.5H350V143.5ZM362 143.5H368V142.5H362V143.5ZM374 143.5H380V142.5H374V143.5ZM386 143.5H392V142.5H386V143.5ZM398 143.5H404V142.5H398V143.5ZM410 143.5H416V142.5H410V143.5ZM422 143.5H428V142.5H422V143.5ZM434 143.5H440V142.5H434V143.5ZM446 143.5H452V142.5H446V143.5ZM458 143.5H464V142.5H458V143.5ZM470 143.5H476V142.5H470V143.5ZM482 143.5H488V142.5H482V143.5ZM494 143.5H500V142.5H494V143.5ZM506 143.5H512V142.5H506V143.5ZM518 143.5H524V142.5H518V143.5ZM530 143.5H536V142.5H530V143.5ZM542 143.5H548V142.5H542V143.5ZM554 143.5H557V142.5H554V143.5Z" fill="#5D9393"/>
<rect x="569" y="123" width="40" height="40" rx="20" fill="#CEF7E3"/>
<path d="M589.911 150C589.764 150 589.644 149.953 589.551 149.86C589.471 149.767 589.431 149.653 589.431 149.52V139.16L586.391 141.5C586.271 141.58 586.151 141.613 586.031 141.6C585.911 141.573 585.804 141.5 585.711 141.38L584.871 140.3C584.791 140.18 584.758 140.053 584.771 139.92C584.798 139.787 584.871 139.68 584.991 139.6L589.471 136.14C589.551 136.073 589.631 136.033 589.711 136.02C589.791 136.007 589.878 136 589.971 136H591.731C591.864 136 591.978 136.047 592.071 136.14C592.164 136.233 592.211 136.347 592.211 136.48V149.52C592.211 149.653 592.164 149.767 592.071 149.86C591.978 149.953 591.864 150 591.731 150H589.911Z" fill="#012626"/>
<path d="M623.04 150C622.907 150 622.793 149.953 622.7 149.86C622.607 149.767 622.56 149.653 622.56 149.52V136.5C622.56 136.353 622.607 136.233 622.7 136.14C622.793 136.047 622.907 136 623.04 136H627.92C629.267 136 630.373 136.207 631.24 136.62C632.12 137.033 632.78 137.647 633.22 138.46C633.673 139.273 633.907 140.267 633.92 141.44C633.947 142.027 633.96 142.547 633.96 143C633.96 143.453 633.947 143.967 633.92 144.54C633.893 145.78 633.667 146.807 633.24 147.62C632.813 148.42 632.167 149.02 631.3 149.42C630.447 149.807 629.353 150 628.02 150H623.04ZM625.34 147.7H627.92C628.667 147.7 629.273 147.593 629.74 147.38C630.207 147.167 630.547 146.827 630.76 146.36C630.987 145.88 631.107 145.253 631.12 144.48C631.133 144.08 631.14 143.733 631.14 143.44C631.153 143.133 631.153 142.833 631.14 142.54C631.14 142.233 631.133 141.887 631.12 141.5C631.093 140.407 630.82 139.6 630.3 139.08C629.78 138.56 628.953 138.3 627.82 138.3H625.34V147.7ZM639.403 150.2C638.709 150.2 638.083 150.067 637.523 149.8C636.963 149.52 636.516 149.153 636.183 148.7C635.863 148.233 635.703 147.713 635.703 147.14C635.703 146.207 636.076 145.467 636.823 144.92C637.583 144.36 638.583 143.987 639.823 143.8L642.563 143.4V142.98C642.563 142.42 642.423 141.987 642.143 141.68C641.863 141.373 641.383 141.22 640.703 141.22C640.223 141.22 639.829 141.32 639.523 141.52C639.229 141.707 639.009 141.96 638.863 142.28C638.756 142.453 638.603 142.54 638.403 142.54H636.823C636.676 142.54 636.563 142.5 636.483 142.42C636.416 142.34 636.382 142.233 636.382 142.1C636.396 141.887 636.483 141.627 636.643 141.32C636.803 141.013 637.056 140.72 637.403 140.44C637.749 140.147 638.196 139.9 638.743 139.7C639.289 139.5 639.949 139.4 640.723 139.4C641.563 139.4 642.269 139.507 642.843 139.72C643.429 139.92 643.896 140.193 644.243 140.54C644.589 140.887 644.843 141.293 645.003 141.76C645.163 142.227 645.243 142.72 645.243 143.24V149.52C645.243 149.653 645.196 149.767 645.103 149.86C645.009 149.953 644.896 150 644.763 150H643.143C642.996 150 642.876 149.953 642.783 149.86C642.703 149.767 642.663 149.653 642.663 149.52V148.74C642.489 148.993 642.256 149.233 641.963 149.46C641.669 149.673 641.309 149.853 640.883 150C640.469 150.133 639.976 150.2 639.403 150.2ZM640.083 148.3C640.549 148.3 640.969 148.2 641.343 148C641.729 147.8 642.029 147.493 642.243 147.08C642.469 146.653 642.583 146.12 642.583 145.48V145.06L640.583 145.38C639.796 145.5 639.209 145.693 638.823 145.96C638.436 146.227 638.243 146.553 638.243 146.94C638.243 147.233 638.329 147.487 638.503 147.7C638.689 147.9 638.923 148.053 639.203 148.16C639.483 148.253 639.776 148.3 640.083 148.3ZM652.411 150C651.611 150 650.937 149.86 650.391 149.58C649.844 149.3 649.437 148.887 649.171 148.34C648.904 147.78 648.771 147.087 648.771 146.26V141.72H647.191C647.057 141.72 646.944 141.673 646.851 141.58C646.757 141.487 646.711 141.373 646.711 141.24V140.08C646.711 139.947 646.757 139.833 646.851 139.74C646.944 139.647 647.057 139.6 647.191 139.6H648.771V136.28C648.771 136.147 648.811 136.033 648.891 135.94C648.984 135.847 649.104 135.8 649.251 135.8H650.871C651.004 135.8 651.117 135.847 651.211 135.94C651.304 136.033 651.351 136.147 651.351 136.28V139.6H653.851C653.984 139.6 654.097 139.647 654.191 139.74C654.284 139.833 654.331 139.947 654.331 140.08V141.24C654.331 141.373 654.284 141.487 654.191 141.58C654.097 141.673 653.984 141.72 653.851 141.72H651.351V146.06C651.351 146.607 651.444 147.033 651.631 147.34C651.831 147.647 652.171 147.8 652.651 147.8H654.031C654.164 147.8 654.277 147.847 654.371 147.94C654.464 148.033 654.511 148.147 654.511 148.28V149.52C654.511 149.653 654.464 149.767 654.371 149.86C654.277 149.953 654.164 150 654.031 150H652.411ZM659.305 150.2C658.612 150.2 657.985 150.067 657.425 149.8C656.865 149.52 656.418 149.153 656.085 148.7C655.765 148.233 655.605 147.713 655.605 147.14C655.605 146.207 655.978 145.467 656.725 144.92C657.485 144.36 658.485 143.987 659.725 143.8L662.465 143.4V142.98C662.465 142.42 662.325 141.987 662.045 141.68C661.765 141.373 661.285 141.22 660.605 141.22C660.125 141.22 659.732 141.32 659.425 141.52C659.132 141.707 658.912 141.96 658.765 142.28C658.658 142.453 658.505 142.54 658.305 142.54H656.725C656.578 142.54 656.465 142.5 656.385 142.42C656.318 142.34 656.285 142.233 656.285 142.1C656.298 141.887 656.385 141.627 656.545 141.32C656.705 141.013 656.958 140.72 657.305 140.44C657.652 140.147 658.098 139.9 658.645 139.7C659.192 139.5 659.852 139.4 660.625 139.4C661.465 139.4 662.172 139.507 662.745 139.72C663.332 139.92 663.798 140.193 664.145 140.54C664.492 140.887 664.745 141.293 664.905 141.76C665.065 142.227 665.145 142.72 665.145 143.24V149.52C665.145 149.653 665.098 149.767 665.005 149.86C664.912 149.953 664.798 150 664.665 150H663.045C662.898 150 662.778 149.953 662.685 149.86C662.605 149.767 662.565 149.653 662.565 149.52V148.74C662.392 148.993 662.158 149.233 661.865 149.46C661.572 149.673 661.212 149.853 660.785 150C660.372 150.133 659.878 150.2 659.305 150.2ZM659.985 148.3C660.452 148.3 660.872 148.2 661.245 148C661.632 147.8 661.932 147.493 662.145 147.08C662.372 146.653 662.485 146.12 662.485 145.48V145.06L660.485 145.38C659.698 145.5 659.112 145.693 658.725 145.96C658.338 146.227 658.145 146.553 658.145 146.94C658.145 147.233 658.232 147.487 658.405 147.7C658.592 147.9 658.825 148.053 659.105 148.16C659.385 148.253 659.678 148.3 659.985 148.3ZM677.921 150.2C676.681 150.2 675.628 149.987 674.761 149.56C673.908 149.12 673.254 148.5 672.801 147.7C672.348 146.887 672.094 145.913 672.041 144.78C672.028 144.233 672.021 143.647 672.021 143.02C672.021 142.393 672.028 141.793 672.041 141.22C672.094 140.1 672.348 139.133 672.801 138.32C673.268 137.507 673.928 136.887 674.781 136.46C675.648 136.02 676.694 135.8 677.921 135.8C678.828 135.8 679.641 135.92 680.361 136.16C681.081 136.4 681.694 136.733 682.201 137.16C682.708 137.573 683.101 138.06 683.381 138.62C683.661 139.18 683.808 139.787 683.821 140.44C683.834 140.56 683.794 140.66 683.701 140.74C683.621 140.82 683.521 140.86 683.401 140.86H681.501C681.354 140.86 681.234 140.827 681.141 140.76C681.048 140.68 680.981 140.553 680.941 140.38C680.728 139.5 680.361 138.9 679.841 138.58C679.321 138.26 678.674 138.1 677.901 138.1C677.008 138.1 676.294 138.353 675.761 138.86C675.228 139.353 674.941 140.173 674.901 141.32C674.861 142.413 674.861 143.533 674.901 144.68C674.941 145.827 675.228 146.653 675.761 147.16C676.294 147.653 677.008 147.9 677.901 147.9C678.674 147.9 679.321 147.74 679.841 147.42C680.361 147.087 680.728 146.487 680.941 145.62C680.981 145.433 681.048 145.307 681.141 145.24C681.234 145.173 681.354 145.14 681.501 145.14H683.401C683.521 145.14 683.621 145.18 683.701 145.26C683.794 145.34 683.834 145.44 683.821 145.56C683.808 146.213 683.661 146.82 683.381 147.38C683.101 147.94 682.708 148.433 682.201 148.86C681.694 149.273 681.081 149.6 680.361 149.84C679.641 150.08 678.828 150.2 677.921 150.2ZM690.553 150.2C689.486 150.2 688.586 150.013 687.853 149.64C687.133 149.267 686.579 148.74 686.193 148.06C685.819 147.38 685.606 146.587 685.553 145.68C685.539 145.44 685.533 145.147 685.533 144.8C685.533 144.453 685.539 144.16 685.553 143.92C685.606 143 685.826 142.207 686.213 141.54C686.613 140.86 687.173 140.333 687.893 139.96C688.626 139.587 689.513 139.4 690.553 139.4C691.593 139.4 692.473 139.587 693.193 139.96C693.926 140.333 694.486 140.86 694.873 141.54C695.273 142.207 695.499 143 695.553 143.92C695.566 144.16 695.573 144.453 695.573 144.8C695.573 145.147 695.566 145.44 695.553 145.68C695.499 146.587 695.279 147.38 694.893 148.06C694.519 148.74 693.966 149.267 693.233 149.64C692.513 150.013 691.619 150.2 690.553 150.2ZM690.553 148.22C691.259 148.22 691.806 148 692.193 147.56C692.579 147.107 692.793 146.447 692.833 145.58C692.846 145.38 692.853 145.12 692.853 144.8C692.853 144.48 692.846 144.22 692.833 144.02C692.793 143.167 692.579 142.513 692.193 142.06C691.806 141.607 691.259 141.38 690.553 141.38C689.846 141.38 689.299 141.607 688.913 142.06C688.526 142.513 688.313 143.167 688.273 144.02C688.259 144.22 688.253 144.48 688.253 144.8C688.253 145.12 688.259 145.38 688.273 145.58C688.313 146.447 688.526 147.107 688.913 147.56C689.299 148 689.846 148.22 690.553 148.22ZM698.289 150C698.155 150 698.042 149.953 697.949 149.86C697.855 149.767 697.809 149.653 697.809 149.52V136.28C697.809 136.147 697.855 136.033 697.949 135.94C698.042 135.847 698.155 135.8 698.289 135.8H699.949C700.082 135.8 700.195 135.847 700.289 135.94C700.382 136.033 700.429 136.147 700.429 136.28V149.52C700.429 149.653 700.382 149.767 700.289 149.86C700.195 149.953 700.082 150 699.949 150H698.289ZM703.582 150C703.448 150 703.335 149.953 703.242 149.86C703.148 149.767 703.102 149.653 703.102 149.52V136.28C703.102 136.147 703.148 136.033 703.242 135.94C703.335 135.847 703.448 135.8 703.582 135.8H705.242C705.375 135.8 705.488 135.847 705.582 135.94C705.675 136.033 705.722 136.147 705.722 136.28V149.52C705.722 149.653 705.675 149.767 705.582 149.86C705.488 149.953 705.375 150 705.242 150H703.582ZM712.855 150.2C711.375 150.2 710.201 149.773 709.335 148.92C708.468 148.067 708.001 146.853 707.935 145.28C707.921 145.147 707.915 144.98 707.915 144.78C707.915 144.567 707.921 144.4 707.935 144.28C707.988 143.28 708.215 142.413 708.615 141.68C709.028 140.947 709.595 140.387 710.315 140C711.035 139.6 711.881 139.4 712.855 139.4C713.935 139.4 714.841 139.627 715.575 140.08C716.308 140.52 716.861 141.14 717.235 141.94C717.608 142.727 717.795 143.64 717.795 144.68V145.1C717.795 145.233 717.748 145.347 717.655 145.44C717.561 145.533 717.441 145.58 717.295 145.58H710.655C710.655 145.58 710.655 145.6 710.655 145.64C710.655 145.68 710.655 145.713 710.655 145.74C710.668 146.207 710.755 146.64 710.915 147.04C711.088 147.427 711.335 147.74 711.655 147.98C711.988 148.22 712.381 148.34 712.835 148.34C713.208 148.34 713.521 148.287 713.775 148.18C714.028 148.06 714.235 147.927 714.395 147.78C714.555 147.633 714.668 147.513 714.735 147.42C714.855 147.26 714.948 147.167 715.015 147.14C715.095 147.1 715.208 147.08 715.355 147.08H717.075C717.208 147.08 717.315 147.12 717.395 147.2C717.488 147.28 717.528 147.38 717.515 147.5C717.501 147.713 717.388 147.973 717.175 148.28C716.975 148.587 716.681 148.887 716.295 149.18C715.908 149.473 715.421 149.72 714.835 149.92C714.261 150.107 713.601 150.2 712.855 150.2ZM710.655 143.9H715.075V143.84C715.075 143.32 714.988 142.867 714.815 142.48C714.641 142.093 714.388 141.787 714.055 141.56C713.721 141.333 713.321 141.22 712.855 141.22C712.388 141.22 711.988 141.333 711.655 141.56C711.321 141.787 711.068 142.093 710.895 142.48C710.735 142.867 710.655 143.32 710.655 143.84V143.9ZM724.418 150.2C723.458 150.2 722.611 150.02 721.878 149.66C721.158 149.3 720.591 148.78 720.178 148.1C719.778 147.407 719.558 146.573 719.518 145.6C719.504 145.4 719.498 145.14 719.498 144.82C719.498 144.487 719.504 144.213 719.518 144C719.558 143.027 719.778 142.2 720.178 141.52C720.591 140.827 721.158 140.3 721.878 139.94C722.611 139.58 723.458 139.4 724.418 139.4C725.271 139.4 725.998 139.52 726.598 139.76C727.198 140 727.691 140.3 728.078 140.66C728.464 141.02 728.751 141.4 728.938 141.8C729.138 142.187 729.244 142.54 729.258 142.86C729.271 143.007 729.224 143.127 729.118 143.22C729.024 143.3 728.911 143.34 728.778 143.34H727.018C726.884 143.34 726.778 143.307 726.698 143.24C726.631 143.173 726.564 143.073 726.498 142.94C726.298 142.407 726.031 142.033 725.698 141.82C725.378 141.593 724.964 141.48 724.458 141.48C723.791 141.48 723.258 141.693 722.858 142.12C722.471 142.533 722.264 143.193 722.238 144.1C722.211 144.607 722.211 145.073 722.238 145.5C722.264 146.42 722.471 147.087 722.858 147.5C723.258 147.913 723.791 148.12 724.458 148.12C724.978 148.12 725.398 148.013 725.718 147.8C726.038 147.573 726.298 147.193 726.498 146.66C726.564 146.527 726.631 146.427 726.698 146.36C726.778 146.293 726.884 146.26 727.018 146.26H728.778C728.911 146.26 729.024 146.307 729.118 146.4C729.224 146.48 729.271 146.593 729.258 146.74C729.244 146.98 729.178 147.253 729.058 147.56C728.951 147.853 728.771 148.16 728.518 148.48C728.278 148.787 727.971 149.073 727.598 149.34C727.224 149.593 726.771 149.8 726.238 149.96C725.718 150.12 725.111 150.2 724.418 150.2ZM736.043 150C735.243 150 734.57 149.86 734.023 149.58C733.477 149.3 733.07 148.887 732.803 148.34C732.537 147.78 732.403 147.087 732.403 146.26V141.72H730.823C730.69 141.72 730.577 141.673 730.483 141.58C730.39 141.487 730.343 141.373 730.343 141.24V140.08C730.343 139.947 730.39 139.833 730.483 139.74C730.577 139.647 730.69 139.6 730.823 139.6H732.403V136.28C732.403 136.147 732.443 136.033 732.523 135.94C732.617 135.847 732.737 135.8 732.883 135.8H734.503C734.637 135.8 734.75 135.847 734.843 135.94C734.937 136.033 734.983 136.147 734.983 136.28V139.6H737.483C737.617 139.6 737.73 139.647 737.823 139.74C737.917 139.833 737.963 139.947 737.963 140.08V141.24C737.963 141.373 737.917 141.487 737.823 141.58C737.73 141.673 737.617 141.72 737.483 141.72H734.983V146.06C734.983 146.607 735.077 147.033 735.263 147.34C735.463 147.647 735.803 147.8 736.283 147.8H737.663C737.797 147.8 737.91 147.847 738.003 147.94C738.097 148.033 738.143 148.147 738.143 148.28V149.52C738.143 149.653 738.097 149.767 738.003 149.86C737.91 149.953 737.797 150 737.663 150H736.043ZM744.518 150.2C743.451 150.2 742.551 150.013 741.818 149.64C741.098 149.267 740.544 148.74 740.158 148.06C739.784 147.38 739.571 146.587 739.518 145.68C739.504 145.44 739.498 145.147 739.498 144.8C739.498 144.453 739.504 144.16 739.518 143.92C739.571 143 739.791 142.207 740.178 141.54C740.578 140.86 741.138 140.333 741.858 139.96C742.591 139.587 743.478 139.4 744.518 139.4C745.558 139.4 746.438 139.587 747.158 139.96C747.891 140.333 748.451 140.86 748.838 141.54C749.238 142.207 749.464 143 749.518 143.92C749.531 144.16 749.538 144.453 749.538 144.8C749.538 145.147 749.531 145.44 749.518 145.68C749.464 146.587 749.244 147.38 748.858 148.06C748.484 148.74 747.931 149.267 747.198 149.64C746.478 150.013 745.584 150.2 744.518 150.2ZM744.518 148.22C745.224 148.22 745.771 148 746.158 147.56C746.544 147.107 746.758 146.447 746.798 145.58C746.811 145.38 746.818 145.12 746.818 144.8C746.818 144.48 746.811 144.22 746.798 144.02C746.758 143.167 746.544 142.513 746.158 142.06C745.771 141.607 745.224 141.38 744.518 141.38C743.811 141.38 743.264 141.607 742.878 142.06C742.491 142.513 742.278 143.167 742.238 144.02C742.224 144.22 742.218 144.48 742.218 144.8C742.218 145.12 742.224 145.38 742.238 145.58C742.278 146.447 742.491 147.107 742.878 147.56C743.264 148 743.811 148.22 744.518 148.22ZM752.234 150C752.1 150 751.987 149.953 751.894 149.86C751.8 149.767 751.754 149.653 751.754 149.52V140.1C751.754 139.953 751.8 139.833 751.894 139.74C751.987 139.647 752.1 139.6 752.234 139.6H753.854C753.987 139.6 754.1 139.647 754.194 139.74C754.3 139.833 754.354 139.953 754.354 140.1V140.92C754.66 140.493 755.054 140.167 755.534 139.94C756.027 139.713 756.594 139.6 757.234 139.6H758.054C758.2 139.6 758.314 139.647 758.394 139.74C758.487 139.833 758.534 139.947 758.534 140.08V141.52C758.534 141.653 758.487 141.767 758.394 141.86C758.314 141.953 758.2 142 758.054 142H756.494C755.854 142 755.354 142.18 754.994 142.54C754.647 142.9 754.474 143.393 754.474 144.02V149.52C754.474 149.653 754.427 149.767 754.334 149.86C754.24 149.953 754.12 150 753.974 150H752.234ZM758.677 151.68C758.571 151.68 758.477 151.64 758.397 151.56C758.317 151.48 758.277 151.38 758.277 151.26C758.277 151.207 758.291 151.133 758.317 151.04L765.117 134.7C765.171 134.607 765.244 134.513 765.337 134.42C765.431 134.327 765.564 134.28 765.737 134.28H767.037C767.144 134.28 767.237 134.32 767.317 134.4C767.411 134.48 767.457 134.58 767.457 134.7C767.457 134.753 767.437 134.827 767.397 134.92L760.577 151.26C760.537 151.34 760.471 151.427 760.377 151.52C760.284 151.627 760.144 151.68 759.957 151.68H758.677ZM774.484 150.2C773.258 150.2 772.211 149.987 771.344 149.56C770.491 149.133 769.824 148.52 769.344 147.72C768.878 146.907 768.624 145.94 768.584 144.82C768.571 144.247 768.564 143.633 768.564 142.98C768.564 142.313 768.571 141.687 768.584 141.1C768.624 139.993 768.878 139.047 769.344 138.26C769.824 137.473 770.498 136.867 771.364 136.44C772.244 136.013 773.284 135.8 774.484 135.8C775.458 135.8 776.311 135.933 777.044 136.2C777.778 136.453 778.384 136.787 778.864 137.2C779.358 137.6 779.724 138.033 779.964 138.5C780.218 138.967 780.351 139.4 780.364 139.8C780.378 139.92 780.344 140.02 780.264 140.1C780.184 140.18 780.078 140.22 779.944 140.22H777.884C777.751 140.22 777.651 140.193 777.584 140.14C777.518 140.087 777.458 140.007 777.404 139.9C777.298 139.62 777.131 139.347 776.904 139.08C776.678 138.8 776.371 138.567 775.984 138.38C775.598 138.193 775.098 138.1 774.484 138.1C773.578 138.1 772.851 138.34 772.304 138.82C771.771 139.3 771.484 140.093 771.444 141.2C771.404 142.36 771.404 143.533 771.444 144.72C771.484 145.853 771.778 146.667 772.324 147.16C772.884 147.653 773.618 147.9 774.524 147.9C775.124 147.9 775.658 147.793 776.124 147.58C776.604 147.367 776.978 147.033 777.244 146.58C777.524 146.127 777.664 145.547 777.664 144.84V144.22H775.224C775.091 144.22 774.978 144.173 774.884 144.08C774.791 143.987 774.744 143.867 774.744 143.72V142.66C774.744 142.513 774.791 142.393 774.884 142.3C774.978 142.207 775.091 142.16 775.224 142.16H780.004C780.151 142.16 780.264 142.207 780.344 142.3C780.438 142.393 780.484 142.513 780.484 142.66V144.76C780.484 145.88 780.238 146.847 779.744 147.66C779.264 148.473 778.571 149.1 777.664 149.54C776.771 149.98 775.711 150.2 774.484 150.2ZM787.288 150.2C785.808 150.2 784.635 149.773 783.768 148.92C782.902 148.067 782.435 146.853 782.368 145.28C782.355 145.147 782.348 144.98 782.348 144.78C782.348 144.567 782.355 144.4 782.368 144.28C782.422 143.28 782.648 142.413 783.048 141.68C783.462 140.947 784.028 140.387 784.748 140C785.468 139.6 786.315 139.4 787.288 139.4C788.368 139.4 789.275 139.627 790.008 140.08C790.742 140.52 791.295 141.14 791.668 141.94C792.042 142.727 792.228 143.64 792.228 144.68V145.1C792.228 145.233 792.182 145.347 792.088 145.44C791.995 145.533 791.875 145.58 791.728 145.58H785.088C785.088 145.58 785.088 145.6 785.088 145.64C785.088 145.68 785.088 145.713 785.088 145.74C785.102 146.207 785.188 146.64 785.348 147.04C785.522 147.427 785.768 147.74 786.088 147.98C786.422 148.22 786.815 148.34 787.268 148.34C787.642 148.34 787.955 148.287 788.208 148.18C788.462 148.06 788.668 147.927 788.828 147.78C788.988 147.633 789.102 147.513 789.168 147.42C789.288 147.26 789.382 147.167 789.448 147.14C789.528 147.1 789.642 147.08 789.788 147.08H791.508C791.642 147.08 791.748 147.12 791.828 147.2C791.922 147.28 791.962 147.38 791.948 147.5C791.935 147.713 791.822 147.973 791.608 148.28C791.408 148.587 791.115 148.887 790.728 149.18C790.342 149.473 789.855 149.72 789.268 149.92C788.695 150.107 788.035 150.2 787.288 150.2ZM785.088 143.9H789.508V143.84C789.508 143.32 789.422 142.867 789.248 142.48C789.075 142.093 788.822 141.787 788.488 141.56C788.155 141.333 787.755 141.22 787.288 141.22C786.822 141.22 786.422 141.333 786.088 141.56C785.755 141.787 785.502 142.093 785.328 142.48C785.168 142.867 785.088 143.32 785.088 143.84V143.9ZM794.831 150C794.698 150 794.585 149.953 794.491 149.86C794.398 149.767 794.351 149.653 794.351 149.52V140.08C794.351 139.947 794.398 139.833 794.491 139.74C794.585 139.647 794.698 139.6 794.831 139.6H796.471C796.605 139.6 796.718 139.647 796.811 139.74C796.905 139.833 796.951 139.947 796.951 140.08V140.9C797.298 140.473 797.738 140.12 798.271 139.84C798.818 139.547 799.491 139.4 800.291 139.4C801.105 139.4 801.811 139.587 802.411 139.96C803.011 140.32 803.471 140.833 803.791 141.5C804.125 142.167 804.291 142.967 804.291 143.9V149.52C804.291 149.653 804.245 149.767 804.151 149.86C804.058 149.953 803.945 150 803.811 150H802.051C801.918 150 801.805 149.953 801.711 149.86C801.618 149.767 801.571 149.653 801.571 149.52V144.02C801.571 143.247 801.378 142.64 800.991 142.2C800.618 141.76 800.071 141.54 799.351 141.54C798.658 141.54 798.105 141.76 797.691 142.2C797.278 142.64 797.071 143.247 797.071 144.02V149.52C797.071 149.653 797.025 149.767 796.931 149.86C796.838 149.953 796.725 150 796.591 150H794.831ZM811.312 150.2C809.832 150.2 808.658 149.773 807.792 148.92C806.925 148.067 806.458 146.853 806.392 145.28C806.378 145.147 806.372 144.98 806.372 144.78C806.372 144.567 806.378 144.4 806.392 144.28C806.445 143.28 806.672 142.413 807.072 141.68C807.485 140.947 808.052 140.387 808.772 140C809.492 139.6 810.338 139.4 811.312 139.4C812.392 139.4 813.298 139.627 814.032 140.08C814.765 140.52 815.318 141.14 815.692 141.94C816.065 142.727 816.252 143.64 816.252 144.68V145.1C816.252 145.233 816.205 145.347 816.112 145.44C816.018 145.533 815.898 145.58 815.752 145.58H809.112C809.112 145.58 809.112 145.6 809.112 145.64C809.112 145.68 809.112 145.713 809.112 145.74C809.125 146.207 809.212 146.64 809.372 147.04C809.545 147.427 809.792 147.74 810.112 147.98C810.445 148.22 810.838 148.34 811.292 148.34C811.665 148.34 811.978 148.287 812.232 148.18C812.485 148.06 812.692 147.927 812.852 147.78C813.012 147.633 813.125 147.513 813.192 147.42C813.312 147.26 813.405 147.167 813.472 147.14C813.552 147.1 813.665 147.08 813.812 147.08H815.532C815.665 147.08 815.772 147.12 815.852 147.2C815.945 147.28 815.985 147.38 815.972 147.5C815.958 147.713 815.845 147.973 815.632 148.28C815.432 148.587 815.138 148.887 814.752 149.18C814.365 149.473 813.878 149.72 813.292 149.92C812.718 150.107 812.058 150.2 811.312 150.2ZM809.112 143.9H813.532V143.84C813.532 143.32 813.445 142.867 813.272 142.48C813.098 142.093 812.845 141.787 812.512 141.56C812.178 141.333 811.778 141.22 811.312 141.22C810.845 141.22 810.445 141.333 810.112 141.56C809.778 141.787 809.525 142.093 809.352 142.48C809.192 142.867 809.112 143.32 809.112 143.84V143.9ZM818.855 150C818.721 150 818.608 149.953 818.515 149.86C818.421 149.767 818.375 149.653 818.375 149.52V140.1C818.375 139.953 818.421 139.833 818.515 139.74C818.608 139.647 818.721 139.6 818.855 139.6H820.475C820.608 139.6 820.721 139.647 820.815 139.74C820.921 139.833 820.975 139.953 820.975 140.1V140.92C821.281 140.493 821.675 140.167 822.155 139.94C822.648 139.713 823.215 139.6 823.855 139.6H824.675C824.821 139.6 824.935 139.647 825.015 139.74C825.108 139.833 825.155 139.947 825.155 140.08V141.52C825.155 141.653 825.108 141.767 825.015 141.86C824.935 141.953 824.821 142 824.675 142H823.115C822.475 142 821.975 142.18 821.615 142.54C821.268 142.9 821.095 143.393 821.095 144.02V149.52C821.095 149.653 821.048 149.767 820.955 149.86C820.861 149.953 820.741 150 820.595 150H818.855ZM829.578 150.2C828.885 150.2 828.258 150.067 827.698 149.8C827.138 149.52 826.692 149.153 826.358 148.7C826.038 148.233 825.878 147.713 825.878 147.14C825.878 146.207 826.252 145.467 826.998 144.92C827.758 144.36 828.758 143.987 829.998 143.8L832.738 143.4V142.98C832.738 142.42 832.598 141.987 832.318 141.68C832.038 141.373 831.558 141.22 830.878 141.22C830.398 141.22 830.005 141.32 829.698 141.52C829.405 141.707 829.185 141.96 829.038 142.28C828.932 142.453 828.778 142.54 828.578 142.54H826.998C826.852 142.54 826.738 142.5 826.658 142.42C826.592 142.34 826.558 142.233 826.558 142.1C826.572 141.887 826.658 141.627 826.818 141.32C826.978 141.013 827.232 140.72 827.578 140.44C827.925 140.147 828.372 139.9 828.918 139.7C829.465 139.5 830.125 139.4 830.898 139.4C831.738 139.4 832.445 139.507 833.018 139.72C833.605 139.92 834.072 140.193 834.418 140.54C834.765 140.887 835.018 141.293 835.178 141.76C835.338 142.227 835.418 142.72 835.418 143.24V149.52C835.418 149.653 835.372 149.767 835.278 149.86C835.185 149.953 835.072 150 834.938 150H833.318C833.172 150 833.052 149.953 832.958 149.86C832.878 149.767 832.838 149.653 832.838 149.52V148.74C832.665 148.993 832.432 149.233 832.138 149.46C831.845 149.673 831.485 149.853 831.058 150C830.645 150.133 830.152 150.2 829.578 150.2ZM830.258 148.3C830.725 148.3 831.145 148.2 831.518 148C831.905 147.8 832.205 147.493 832.418 147.08C832.645 146.653 832.758 146.12 832.758 145.48V145.06L830.758 145.38C829.972 145.5 829.385 145.693 828.998 145.96C828.612 146.227 828.418 146.553 828.418 146.94C828.418 147.233 828.505 147.487 828.678 147.7C828.865 147.9 829.098 148.053 829.378 148.16C829.658 148.253 829.952 148.3 830.258 148.3ZM842.586 150C841.786 150 841.113 149.86 840.566 149.58C840.02 149.3 839.613 148.887 839.346 148.34C839.08 147.78 838.946 147.087 838.946 146.26V141.72H837.366C837.233 141.72 837.12 141.673 837.026 141.58C836.933 141.487 836.886 141.373 836.886 141.24V140.08C836.886 139.947 836.933 139.833 837.026 139.74C837.12 139.647 837.233 139.6 837.366 139.6H838.946V136.28C838.946 136.147 838.986 136.033 839.066 135.94C839.16 135.847 839.28 135.8 839.426 135.8H841.046C841.18 135.8 841.293 135.847 841.386 135.94C841.48 136.033 841.526 136.147 841.526 136.28V139.6H844.026C844.16 139.6 844.273 139.647 844.366 139.74C844.46 139.833 844.506 139.947 844.506 140.08V141.24C844.506 141.373 844.46 141.487 844.366 141.58C844.273 141.673 844.16 141.72 844.026 141.72H841.526V146.06C841.526 146.607 841.62 147.033 841.806 147.34C842.006 147.647 842.346 147.8 842.826 147.8H844.206C844.34 147.8 844.453 147.847 844.546 147.94C844.64 148.033 844.686 148.147 844.686 148.28V149.52C844.686 149.653 844.64 149.767 844.546 149.86C844.453 149.953 844.34 150 844.206 150H842.586ZM851.061 150.2C849.994 150.2 849.094 150.013 848.361 149.64C847.641 149.267 847.087 148.74 846.701 148.06C846.327 147.38 846.114 146.587 846.061 145.68C846.047 145.44 846.041 145.147 846.041 144.8C846.041 144.453 846.047 144.16 846.061 143.92C846.114 143 846.334 142.207 846.721 141.54C847.121 140.86 847.681 140.333 848.401 139.96C849.134 139.587 850.021 139.4 851.061 139.4C852.101 139.4 852.981 139.587 853.701 139.96C854.434 140.333 854.994 140.86 855.381 141.54C855.781 142.207 856.007 143 856.061 143.92C856.074 144.16 856.081 144.453 856.081 144.8C856.081 145.147 856.074 145.44 856.061 145.68C856.007 146.587 855.787 147.38 855.401 148.06C855.027 148.74 854.474 149.267 853.741 149.64C853.021 150.013 852.127 150.2 851.061 150.2ZM851.061 148.22C851.767 148.22 852.314 148 852.701 147.56C853.087 147.107 853.301 146.447 853.341 145.58C853.354 145.38 853.361 145.12 853.361 144.8C853.361 144.48 853.354 144.22 853.341 144.02C853.301 143.167 853.087 142.513 852.701 142.06C852.314 141.607 851.767 141.38 851.061 141.38C850.354 141.38 849.807 141.607 849.421 142.06C849.034 142.513 848.821 143.167 848.781 144.02C848.767 144.22 848.761 144.48 848.761 144.8C848.761 145.12 848.767 145.38 848.781 145.58C848.821 146.447 849.034 147.107 849.421 147.56C849.807 148 850.354 148.22 851.061 148.22ZM858.777 150C858.643 150 858.53 149.953 858.437 149.86C858.343 149.767 858.297 149.653 858.297 149.52V140.1C858.297 139.953 858.343 139.833 858.437 139.74C858.53 139.647 858.643 139.6 858.777 139.6H860.397C860.53 139.6 860.643 139.647 860.737 139.74C860.843 139.833 860.897 139.953 860.897 140.1V140.92C861.203 140.493 861.597 140.167 862.077 139.94C862.57 139.713 863.137 139.6 863.777 139.6H864.597C864.743 139.6 864.857 139.647 864.937 139.74C865.03 139.833 865.077 139.947 865.077 140.08V141.52C865.077 141.653 865.03 141.767 864.937 141.86C864.857 141.953 864.743 142 864.597 142H863.037C862.397 142 861.897 142.18 861.537 142.54C861.19 142.9 861.017 143.393 861.017 144.02V149.52C861.017 149.653 860.97 149.767 860.877 149.86C860.783 149.953 860.663 150 860.517 150H858.777Z" fill="#012626"/>
<path d="M307 552.667C308.473 552.667 309.667 551.473 309.667 550C309.667 548.527 308.473 547.333 307 547.333C305.527 547.333 304.333 548.527 304.333 550C304.333 551.473 305.527 552.667 307 552.667ZM307 550.5H310V549.5H307V550.5ZM316 550.5H322V549.5H316V550.5ZM328 550.5H334V549.5H328V550.5ZM340 550.5H346V549.5H340V550.5ZM352 550.5H358V549.5H352V550.5ZM364 550.5H370V549.5H364V550.5ZM376 550.5H382V549.5H376V550.5ZM388 550.5H394V549.5H388V550.5ZM400 550.5H406V549.5H400V550.5ZM412 550.5H418V549.5H412V550.5ZM424 550.5H430V549.5H424V550.5ZM436 550.5H442V549.5H436V550.5ZM448 550.5H454V549.5H448V550.5ZM460 550.5H466V549.5H460V550.5ZM472 550.5H478V549.5H472V550.5ZM484 550.5H490V549.5H484V550.5ZM496 550.5H502V549.5H496V550.5ZM508 550.5H514V549.5H508V550.5ZM520 550.5H526V549.5H520V550.5ZM532 550.5H538V549.5H532V550.5ZM544 550.5H550V549.5H544V550.5ZM556 550.5H559V549.5H556V550.5Z" fill="#5D9393"/>
<rect x="571" y="530" width="40" height="40" rx="20" fill="#CEF7E3"/>
<path d="M592.377 557C592.243 557 592.13 556.953 592.037 556.86C591.943 556.767 591.897 556.653 591.897 556.52V553.96H585.557C585.41 553.96 585.29 553.913 585.197 553.82C585.117 553.727 585.077 553.613 585.077 553.48V552.12C585.077 552.04 585.09 551.947 585.117 551.84C585.157 551.72 585.217 551.613 585.297 551.52L591.197 543.34C591.37 543.113 591.617 543 591.937 543H594.117C594.25 543 594.363 543.047 594.457 543.14C594.55 543.233 594.597 543.347 594.597 543.48V551.6H596.377C596.537 551.6 596.657 551.647 596.737 551.74C596.83 551.82 596.877 551.933 596.877 552.08V553.48C596.877 553.613 596.83 553.727 596.737 553.82C596.643 553.913 596.53 553.96 596.397 553.96H594.597V556.52C594.597 556.653 594.55 556.767 594.457 556.86C594.363 556.953 594.25 557 594.117 557H592.377ZM587.857 551.68H591.957V545.9L587.857 551.68Z" fill="#012626"/>
<path d="M623.7 557C623.593 557 623.493 556.96 623.4 556.88C623.32 556.8 623.28 556.7 623.28 556.58C623.28 556.527 623.293 556.467 623.32 556.4L628.14 543.5C628.18 543.367 628.253 543.253 628.36 543.16C628.48 543.053 628.64 543 628.84 543H631.02C631.22 543 631.373 543.053 631.48 543.16C631.587 543.253 631.667 543.367 631.72 543.5L636.54 556.4C636.553 556.467 636.56 556.527 636.56 556.58C636.56 556.7 636.52 556.8 636.44 556.88C636.36 556.96 636.267 557 636.16 557H634.42C634.233 557 634.093 556.96 634 556.88C633.92 556.787 633.867 556.7 633.84 556.62L632.9 554.18H626.96L626.02 556.62C625.993 556.7 625.933 556.787 625.84 556.88C625.76 556.96 625.627 557 625.44 557H623.7ZM627.66 551.88H632.2L629.92 545.7L627.66 551.88ZM638.907 557C638.774 557 638.661 556.953 638.567 556.86C638.474 556.767 638.427 556.653 638.427 556.52V543.48C638.427 543.347 638.474 543.233 638.567 543.14C638.661 543.047 638.774 543 638.907 543H640.787C640.934 543 641.047 543.047 641.127 543.14C641.221 543.233 641.267 543.347 641.267 543.48V556.52C641.267 556.653 641.221 556.767 641.127 556.86C641.047 556.953 640.934 557 640.787 557H638.907ZM647.587 557C647.48 557 647.38 556.96 647.287 556.88C647.207 556.8 647.167 556.7 647.167 556.58C647.167 556.527 647.18 556.467 647.207 556.4L652.027 543.5C652.067 543.367 652.14 543.253 652.247 543.16C652.367 543.053 652.527 543 652.727 543H654.907C655.107 543 655.26 543.053 655.367 543.16C655.473 543.253 655.553 543.367 655.607 543.5L660.427 556.4C660.44 556.467 660.447 556.527 660.447 556.58C660.447 556.7 660.407 556.8 660.327 556.88C660.247 556.96 660.153 557 660.047 557H658.307C658.12 557 657.98 556.96 657.887 556.88C657.807 556.787 657.753 556.7 657.727 556.62L656.787 554.18H650.847L649.907 556.62C649.88 556.7 649.82 556.787 649.727 556.88C649.647 556.96 649.513 557 649.327 557H647.587ZM651.547 551.88H656.087L653.807 545.7L651.547 551.88ZM662.574 560.8C662.441 560.8 662.327 560.753 662.234 560.66C662.141 560.567 662.094 560.453 662.094 560.32V547.08C662.094 546.947 662.141 546.833 662.234 546.74C662.327 546.647 662.441 546.6 662.574 546.6H664.154C664.301 546.6 664.414 546.647 664.494 546.74C664.587 546.833 664.634 546.947 664.634 547.08V547.88C664.954 547.453 665.374 547.1 665.894 546.82C666.414 546.54 667.061 546.4 667.834 546.4C668.541 546.4 669.154 546.513 669.674 546.74C670.194 546.967 670.627 547.293 670.974 547.72C671.321 548.133 671.587 548.627 671.774 549.2C671.961 549.773 672.067 550.407 672.094 551.1C672.107 551.327 672.114 551.56 672.114 551.8C672.114 552.04 672.107 552.28 672.094 552.52C672.081 553.187 671.981 553.807 671.794 554.38C671.607 554.94 671.334 555.433 670.974 555.86C670.627 556.273 670.194 556.6 669.674 556.84C669.154 557.08 668.541 557.2 667.834 557.2C667.114 557.2 666.501 557.073 665.994 556.82C665.487 556.553 665.074 556.207 664.754 555.78V560.32C664.754 560.453 664.707 560.567 664.614 560.66C664.534 560.753 664.421 560.8 664.274 560.8H662.574ZM667.094 555.06C667.667 555.06 668.114 554.94 668.434 554.7C668.754 554.447 668.981 554.12 669.114 553.72C669.261 553.32 669.347 552.88 669.374 552.4C669.401 552 669.401 551.6 669.374 551.2C669.347 550.72 669.261 550.28 669.114 549.88C668.981 549.48 668.754 549.16 668.434 548.92C668.114 548.667 667.667 548.54 667.094 548.54C666.547 548.54 666.101 548.667 665.754 548.92C665.421 549.173 665.174 549.5 665.014 549.9C664.867 550.287 664.781 550.687 664.754 551.1C664.741 551.34 664.734 551.593 664.734 551.86C664.734 552.127 664.741 552.387 664.754 552.64C664.767 553.04 664.861 553.427 665.034 553.8C665.207 554.16 665.461 554.46 665.794 554.7C666.127 554.94 666.561 555.06 667.094 555.06ZM674.859 560.8C674.726 560.8 674.612 560.753 674.519 560.66C674.426 560.567 674.379 560.453 674.379 560.32V547.08C674.379 546.947 674.426 546.833 674.519 546.74C674.612 546.647 674.726 546.6 674.859 546.6H676.439C676.586 546.6 676.699 546.647 676.779 546.74C676.872 546.833 676.919 546.947 676.919 547.08V547.88C677.239 547.453 677.659 547.1 678.179 546.82C678.699 546.54 679.346 546.4 680.119 546.4C680.826 546.4 681.439 546.513 681.959 546.74C682.479 546.967 682.912 547.293 683.259 547.72C683.606 548.133 683.872 548.627 684.059 549.2C684.246 549.773 684.352 550.407 684.379 551.1C684.392 551.327 684.399 551.56 684.399 551.8C684.399 552.04 684.392 552.28 684.379 552.52C684.366 553.187 684.266 553.807 684.079 554.38C683.892 554.94 683.619 555.433 683.259 555.86C682.912 556.273 682.479 556.6 681.959 556.84C681.439 557.08 680.826 557.2 680.119 557.2C679.399 557.2 678.786 557.073 678.279 556.82C677.772 556.553 677.359 556.207 677.039 555.78V560.32C677.039 560.453 676.992 560.567 676.899 560.66C676.819 560.753 676.706 560.8 676.559 560.8H674.859ZM679.379 555.06C679.952 555.06 680.399 554.94 680.719 554.7C681.039 554.447 681.266 554.12 681.399 553.72C681.546 553.32 681.632 552.88 681.659 552.4C681.686 552 681.686 551.6 681.659 551.2C681.632 550.72 681.546 550.28 681.399 549.88C681.266 549.48 681.039 549.16 680.719 548.92C680.399 548.667 679.952 548.54 679.379 548.54C678.832 548.54 678.386 548.667 678.039 548.92C677.706 549.173 677.459 549.5 677.299 549.9C677.152 550.287 677.066 550.687 677.039 551.1C677.026 551.34 677.019 551.593 677.019 551.86C677.019 552.127 677.026 552.387 677.039 552.64C677.052 553.04 677.146 553.427 677.319 553.8C677.492 554.16 677.746 554.46 678.079 554.7C678.412 554.94 678.846 555.06 679.379 555.06ZM687.144 557C687.011 557 686.898 556.953 686.804 556.86C686.711 556.767 686.664 556.653 686.664 556.52V543.28C686.664 543.147 686.711 543.033 686.804 542.94C686.898 542.847 687.011 542.8 687.144 542.8H688.804C688.938 542.8 689.051 542.847 689.144 542.94C689.238 543.033 689.284 543.147 689.284 543.28V556.52C689.284 556.653 689.238 556.767 689.144 556.86C689.051 556.953 688.938 557 688.804 557H687.144ZM692.847 557C692.714 557 692.6 556.953 692.507 556.86C692.414 556.767 692.367 556.653 692.367 556.52V547.08C692.367 546.947 692.414 546.833 692.507 546.74C692.6 546.647 692.714 546.6 692.847 546.6H694.507C694.654 546.6 694.767 546.647 694.847 546.74C694.94 546.833 694.987 546.947 694.987 547.08V556.52C694.987 556.653 694.94 556.767 694.847 556.86C694.767 556.953 694.654 557 694.507 557H692.847ZM692.767 544.88C692.62 544.88 692.5 544.84 692.407 544.76C692.327 544.667 692.287 544.547 692.287 544.4V542.96C692.287 542.827 692.327 542.713 692.407 542.62C692.5 542.527 692.62 542.48 692.767 542.48H694.587C694.734 542.48 694.854 542.527 694.947 542.62C695.04 542.713 695.087 542.827 695.087 542.96V544.4C695.087 544.547 695.04 544.667 694.947 544.76C694.854 544.84 694.734 544.88 694.587 544.88H692.767ZM702.199 557.2C701.239 557.2 700.392 557.02 699.659 556.66C698.939 556.3 698.372 555.78 697.959 555.1C697.559 554.407 697.339 553.573 697.299 552.6C697.286 552.4 697.279 552.14 697.279 551.82C697.279 551.487 697.286 551.213 697.299 551C697.339 550.027 697.559 549.2 697.959 548.52C698.372 547.827 698.939 547.3 699.659 546.94C700.392 546.58 701.239 546.4 702.199 546.4C703.052 546.4 703.779 546.52 704.379 546.76C704.979 547 705.472 547.3 705.859 547.66C706.246 548.02 706.532 548.4 706.719 548.8C706.919 549.187 707.026 549.54 707.039 549.86C707.052 550.007 707.006 550.127 706.899 550.22C706.806 550.3 706.692 550.34 706.559 550.34H704.799C704.666 550.34 704.559 550.307 704.479 550.24C704.412 550.173 704.346 550.073 704.279 549.94C704.079 549.407 703.812 549.033 703.479 548.82C703.159 548.593 702.746 548.48 702.239 548.48C701.572 548.48 701.039 548.693 700.639 549.12C700.252 549.533 700.046 550.193 700.019 551.1C699.992 551.607 699.992 552.073 700.019 552.5C700.046 553.42 700.252 554.087 700.639 554.5C701.039 554.913 701.572 555.12 702.239 555.12C702.759 555.12 703.179 555.013 703.499 554.8C703.819 554.573 704.079 554.193 704.279 553.66C704.346 553.527 704.412 553.427 704.479 553.36C704.559 553.293 704.666 553.26 704.799 553.26H706.559C706.692 553.26 706.806 553.307 706.899 553.4C707.006 553.48 707.052 553.593 707.039 553.74C707.026 553.98 706.959 554.253 706.839 554.56C706.732 554.853 706.552 555.16 706.299 555.48C706.059 555.787 705.752 556.073 705.379 556.34C705.006 556.593 704.552 556.8 704.019 556.96C703.499 557.12 702.892 557.2 702.199 557.2ZM712.145 557.2C711.451 557.2 710.825 557.067 710.265 556.8C709.705 556.52 709.258 556.153 708.925 555.7C708.605 555.233 708.445 554.713 708.445 554.14C708.445 553.207 708.818 552.467 709.565 551.92C710.325 551.36 711.325 550.987 712.565 550.8L715.305 550.4V549.98C715.305 549.42 715.165 548.987 714.885 548.68C714.605 548.373 714.125 548.22 713.445 548.22C712.965 548.22 712.571 548.32 712.265 548.52C711.971 548.707 711.751 548.96 711.605 549.28C711.498 549.453 711.345 549.54 711.145 549.54H709.565C709.418 549.54 709.305 549.5 709.225 549.42C709.158 549.34 709.125 549.233 709.125 549.1C709.138 548.887 709.225 548.627 709.385 548.32C709.545 548.013 709.798 547.72 710.145 547.44C710.491 547.147 710.938 546.9 711.485 546.7C712.031 546.5 712.691 546.4 713.465 546.4C714.305 546.4 715.011 546.507 715.585 546.72C716.171 546.92 716.638 547.193 716.985 547.54C717.331 547.887 717.585 548.293 717.745 548.76C717.905 549.227 717.985 549.72 717.985 550.24V556.52C717.985 556.653 717.938 556.767 717.845 556.86C717.751 556.953 717.638 557 717.505 557H715.885C715.738 557 715.618 556.953 715.525 556.86C715.445 556.767 715.405 556.653 715.405 556.52V555.74C715.231 555.993 714.998 556.233 714.705 556.46C714.411 556.673 714.051 556.853 713.625 557C713.211 557.133 712.718 557.2 712.145 557.2ZM712.825 555.3C713.291 555.3 713.711 555.2 714.085 555C714.471 554.8 714.771 554.493 714.985 554.08C715.211 553.653 715.325 553.12 715.325 552.48V552.06L713.325 552.38C712.538 552.5 711.951 552.693 711.565 552.96C711.178 553.227 710.985 553.553 710.985 553.94C710.985 554.233 711.071 554.487 711.245 554.7C711.431 554.9 711.665 555.053 711.945 555.16C712.225 555.253 712.518 555.3 712.825 555.3ZM725.153 557C724.353 557 723.679 556.86 723.133 556.58C722.586 556.3 722.179 555.887 721.913 555.34C721.646 554.78 721.513 554.087 721.513 553.26V548.72H719.933C719.799 548.72 719.686 548.673 719.593 548.58C719.499 548.487 719.453 548.373 719.453 548.24V547.08C719.453 546.947 719.499 546.833 719.593 546.74C719.686 546.647 719.799 546.6 719.933 546.6H721.513V543.28C721.513 543.147 721.553 543.033 721.633 542.94C721.726 542.847 721.846 542.8 721.993 542.8H723.613C723.746 542.8 723.859 542.847 723.953 542.94C724.046 543.033 724.093 543.147 724.093 543.28V546.6H726.593C726.726 546.6 726.839 546.647 726.933 546.74C727.026 546.833 727.073 546.947 727.073 547.08V548.24C727.073 548.373 727.026 548.487 726.933 548.58C726.839 548.673 726.726 548.72 726.593 548.72H724.093V553.06C724.093 553.607 724.186 554.033 724.373 554.34C724.573 554.647 724.913 554.8 725.393 554.8H726.773C726.906 554.8 727.019 554.847 727.113 554.94C727.206 555.033 727.253 555.147 727.253 555.28V556.52C727.253 556.653 727.206 556.767 727.113 556.86C727.019 556.953 726.906 557 726.773 557H725.153ZM729.507 557C729.374 557 729.26 556.953 729.167 556.86C729.074 556.767 729.027 556.653 729.027 556.52V547.08C729.027 546.947 729.074 546.833 729.167 546.74C729.26 546.647 729.374 546.6 729.507 546.6H731.167C731.314 546.6 731.427 546.647 731.507 546.74C731.6 546.833 731.647 546.947 731.647 547.08V556.52C731.647 556.653 731.6 556.767 731.507 556.86C731.427 556.953 731.314 557 731.167 557H729.507ZM729.427 544.88C729.28 544.88 729.16 544.84 729.067 544.76C728.987 544.667 728.947 544.547 728.947 544.4V542.96C728.947 542.827 728.987 542.713 729.067 542.62C729.16 542.527 729.28 542.48 729.427 542.48H731.247C731.394 542.48 731.514 542.527 731.607 542.62C731.7 542.713 731.747 542.827 731.747 542.96V544.4C731.747 544.547 731.7 544.667 731.607 544.76C731.514 544.84 731.394 544.88 731.247 544.88H729.427ZM738.959 557.2C737.892 557.2 736.992 557.013 736.259 556.64C735.539 556.267 734.986 555.74 734.599 555.06C734.226 554.38 734.012 553.587 733.959 552.68C733.946 552.44 733.939 552.147 733.939 551.8C733.939 551.453 733.946 551.16 733.959 550.92C734.012 550 734.232 549.207 734.619 548.54C735.019 547.86 735.579 547.333 736.299 546.96C737.032 546.587 737.919 546.4 738.959 546.4C739.999 546.4 740.879 546.587 741.599 546.96C742.332 547.333 742.892 547.86 743.279 548.54C743.679 549.207 743.906 550 743.959 550.92C743.972 551.16 743.979 551.453 743.979 551.8C743.979 552.147 743.972 552.44 743.959 552.68C743.906 553.587 743.686 554.38 743.299 555.06C742.926 555.74 742.372 556.267 741.639 556.64C740.919 557.013 740.026 557.2 738.959 557.2ZM738.959 555.22C739.666 555.22 740.212 555 740.599 554.56C740.986 554.107 741.199 553.447 741.239 552.58C741.252 552.38 741.259 552.12 741.259 551.8C741.259 551.48 741.252 551.22 741.239 551.02C741.199 550.167 740.986 549.513 740.599 549.06C740.212 548.607 739.666 548.38 738.959 548.38C738.252 548.38 737.706 548.607 737.319 549.06C736.932 549.513 736.719 550.167 736.679 551.02C736.666 551.22 736.659 551.48 736.659 551.8C736.659 552.12 736.666 552.38 736.679 552.58C736.719 553.447 736.932 554.107 737.319 554.56C737.706 555 738.252 555.22 738.959 555.22ZM746.675 557C746.542 557 746.428 556.953 746.335 556.86C746.242 556.767 746.195 556.653 746.195 556.52V547.08C746.195 546.947 746.242 546.833 746.335 546.74C746.428 546.647 746.542 546.6 746.675 546.6H748.315C748.448 546.6 748.562 546.647 748.655 546.74C748.748 546.833 748.795 546.947 748.795 547.08V547.9C749.142 547.473 749.582 547.12 750.115 546.84C750.662 546.547 751.335 546.4 752.135 546.4C752.948 546.4 753.655 546.587 754.255 546.96C754.855 547.32 755.315 547.833 755.635 548.5C755.968 549.167 756.135 549.967 756.135 550.9V556.52C756.135 556.653 756.088 556.767 755.995 556.86C755.902 556.953 755.788 557 755.655 557H753.895C753.762 557 753.648 556.953 753.555 556.86C753.462 556.767 753.415 556.653 753.415 556.52V551.02C753.415 550.247 753.222 549.64 752.835 549.2C752.462 548.76 751.915 548.54 751.195 548.54C750.502 548.54 749.948 548.76 749.535 549.2C749.122 549.64 748.915 550.247 748.915 551.02V556.52C748.915 556.653 748.868 556.767 748.775 556.86C748.682 556.953 748.568 557 748.435 557H746.675ZM762.615 557.2C761.815 557.2 761.129 557.107 760.555 556.92C759.995 556.733 759.535 556.5 759.175 556.22C758.815 555.94 758.549 555.66 758.375 555.38C758.202 555.1 758.109 554.867 758.095 554.68C758.082 554.533 758.122 554.42 758.215 554.34C758.322 554.247 758.435 554.2 758.555 554.2H760.135C760.189 554.2 760.235 554.207 760.275 554.22C760.315 554.233 760.369 554.273 760.435 554.34C760.609 554.487 760.789 554.64 760.975 554.8C761.175 554.96 761.409 555.1 761.675 555.22C761.942 555.327 762.275 555.38 762.675 555.38C763.195 555.38 763.629 555.28 763.975 555.08C764.335 554.867 764.515 554.567 764.515 554.18C764.515 553.9 764.435 553.673 764.275 553.5C764.129 553.327 763.849 553.173 763.435 553.04C763.022 552.893 762.435 552.74 761.675 552.58C760.929 552.407 760.309 552.187 759.815 551.92C759.322 551.653 758.955 551.32 758.715 550.92C758.475 550.52 758.355 550.053 758.355 549.52C758.355 549 758.509 548.507 758.815 548.04C759.135 547.56 759.602 547.167 760.215 546.86C760.842 546.553 761.615 546.4 762.535 546.4C763.255 546.4 763.882 546.493 764.415 546.68C764.949 546.853 765.389 547.073 765.735 547.34C766.095 547.607 766.369 547.88 766.555 548.16C766.742 548.427 766.842 548.66 766.855 548.86C766.869 549.007 766.829 549.127 766.735 549.22C766.642 549.3 766.535 549.34 766.415 549.34H764.935C764.869 549.34 764.809 549.327 764.755 549.3C764.702 549.273 764.649 549.24 764.595 549.2C764.449 549.067 764.289 548.927 764.115 548.78C763.942 548.633 763.729 548.507 763.475 548.4C763.235 548.28 762.915 548.22 762.515 548.22C762.009 548.22 761.622 548.333 761.355 548.56C761.089 548.773 760.955 549.047 760.955 549.38C760.955 549.607 761.015 549.807 761.135 549.98C761.269 550.14 761.529 550.293 761.915 550.44C762.302 550.587 762.889 550.74 763.675 550.9C764.569 551.06 765.275 551.3 765.795 551.62C766.329 551.927 766.702 552.287 766.915 552.7C767.142 553.1 767.255 553.547 767.255 554.04C767.255 554.64 767.075 555.18 766.715 555.66C766.369 556.14 765.849 556.52 765.155 556.8C764.475 557.067 763.629 557.2 762.615 557.2Z" fill="#012626"/>
<path d="M3 551.009L5.88675 546.009H0.113249L3 551.009ZM3.5 542.066V536.104H2.5V542.066H3.5ZM3.5 530.143V524.181H2.5V530.143H3.5ZM3.5 518.219V512.257H2.5V518.219H3.5ZM3.5 506.296V500.334H2.5V506.296H3.5ZM3.5 494.372V488.41H2.5V494.372H3.5ZM3.5 482.449L3.5 476.487H2.5V482.449H3.5ZM3.5 470.525V464.563H2.5V470.525H3.5ZM3.5 458.602V452.64H2.5V458.602H3.5ZM3.5 446.678V440.716H2.5V446.678H3.5ZM3.5 434.754V428.793H2.5V434.754H3.5ZM3.5 422.831V416.869H2.5V422.831H3.5ZM3.5 410.907V404.946H2.5V410.907H3.5ZM3.5 398.984V393.022H2.5V398.984H3.5ZM3.5 387.06V381.099H2.5V387.06H3.5ZM3.5 375.137V369.175H2.5L2.5 375.137H3.5ZM3.5 363.213V357.252H2.5V363.213H3.5ZM3.5 351.29V345.328H2.5V351.29H3.5ZM3.5 339.366V333.405H2.5V339.366H3.5ZM3.5 327.443V321.481H2.5V327.443H3.5ZM3.5 315.519V309.557H2.5V315.519H3.5ZM3.5 303.596V297.634H2.5V303.596H3.5ZM3.5 291.672V285.71H2.5V291.672H3.5ZM3.5 279.749V273.787H2.5V279.749H3.5ZM3.5 267.825V261.863H2.5V267.825H3.5ZM3.5 255.902V249.94H2.5V255.902H3.5ZM3.5 243.978V238.016H2.5V243.978H3.5ZM3.5 232.055V226.093H2.5V232.055H3.5ZM3.5 220.131V214.169H2.5L2.5 220.131H3.5ZM3.5 208.208V202.246H2.5V208.208H3.5ZM3.5 196.284V190.322H2.5V196.284H3.5ZM3.5 184.361V178.399H2.5V184.361H3.5ZM3.5 172.437V166.475H2.5V172.437H3.5ZM3.5 160.513V154.552H2.5V160.513H3.5ZM3.5 148.59V142.628H2.5V148.59H3.5ZM3.5 136.666V130.705H2.5V136.666H3.5ZM3.5 124.743V118.781H2.5L2.5 124.743H3.5ZM3.5 112.819L3.5 106.858H2.5V112.819H3.5ZM3.5 100.896V94.9341H2.5V100.896H3.5ZM3.5 88.9723V85.9916H2.5V88.9723H3.5Z" fill="#5D9393"/>
<defs>
<filter id="filter0_dii_9091_952" x="17.2" y="270.2" width="569.875" height="346.6" filterUnits="userSpaceOnUse" color-interpolation-filters="sRGB">
<feFlood flood-opacity="0" result="BackgroundImageFix"/>
<feColorMatrix in="SourceAlpha" type="matrix" values="0 0 0 0 0 0 0 0 0 0 0 0 0 0 0 0 0 0 127 0" result="hardAlpha"/>
<feOffset dx="1" dy="5"/>
<feGaussianBlur stdDeviation="10.4"/>
<feComposite in2="hardAlpha" operator="out"/>
<feColorMatrix type="matrix" values="0 0 0 0 0.257066 0 0 0 0 0.511019 0 0 0 0 0.193578 0 0 0 0.28 0"/>
<feBlend mode="normal" in2="BackgroundImageFix" result="effect1_dropShadow_9091_952"/>
<feBlend mode="normal" in="SourceGraphic" in2="effect1_dropShadow_9091_952" result="shape"/>
<feColorMatrix in="SourceAlpha" type="matrix" values="0 0 0 0 0 0 0 0 0 0 0 0 0 0 0 0 0 0 127 0" result="hardAlpha"/>
<feOffset dx="3" dy="3"/>
<feGaussianBlur stdDeviation="2"/>
<feComposite in2="hardAlpha" operator="arithmetic" k2="-1" k3="1"/>
<feColorMatrix type="matrix" values="0 0 0 0 1 0 0 0 0 1 0 0 0 0 1 0 0 0 1 0"/>
<feBlend mode="normal" in2="shape" result="effect2_innerShadow_9091_952"/>
<feColorMatrix in="SourceAlpha" type="matrix" values="0 0 0 0 0 0 0 0 0 0 0 0 0 0 0 0 0 0 127 0" result="hardAlpha"/>
<feOffset dx="-3" dy="-3"/>
<feGaussianBlur stdDeviation="2"/>
<feComposite in2="hardAlpha" operator="arithmetic" k2="-1" k3="1"/>
<feColorMatrix type="matrix" values="0 0 0 0 0.895516 0 0 0 0 1 0 0 0 0 0.831478 0 0 0 0.93 0"/>
<feBlend mode="normal" in2="effect2_innerShadow_9091_952" result="effect3_innerShadow_9091_952"/>
</filter>
<filter id="filter1_dii_9091_952" x="17.2" y="178.2" width="569.875" height="346.6" filterUnits="userSpaceOnUse" color-interpolation-filters="sRGB">
<feFlood flood-opacity="0" result="BackgroundImageFix"/>
<feColorMatrix in="SourceAlpha" type="matrix" values="0 0 0 0 0 0 0 0 0 0 0 0 0 0 0 0 0 0 127 0" result="hardAlpha"/>
<feOffset dx="1" dy="5"/>
<feGaussianBlur stdDeviation="10.4"/>
<feComposite in2="hardAlpha" operator="out"/>
<feColorMatrix type="matrix" values="0 0 0 0 0.511019 0 0 0 0 0.364996 0 0 0 0 0.193578 0 0 0 0.28 0"/>
<feBlend mode="normal" in2="BackgroundImageFix" result="effect1_dropShadow_9091_952"/>
<feBlend mode="normal" in="SourceGraphic" in2="effect1_dropShadow_9091_952" result="shape"/>
<feColorMatrix in="SourceAlpha" type="matrix" values="0 0 0 0 0 0 0 0 0 0 0 0 0 0 0 0 0 0 127 0" result="hardAlpha"/>
<feOffset dx="3" dy="3"/>
<feGaussianBlur stdDeviation="2"/>
<feComposite in2="hardAlpha" operator="arithmetic" k2="-1" k3="1"/>
<feColorMatrix type="matrix" values="0 0 0 0 1 0 0 0 0 1 0 0 0 0 1 0 0 0 1 0"/>
<feBlend mode="normal" in2="shape" result="effect2_innerShadow_9091_952"/>
<feColorMatrix in="SourceAlpha" type="matrix" values="0 0 0 0 0 0 0 0 0 0 0 0 0 0 0 0 0 0 127 0" result="hardAlpha"/>
<feOffset dx="-3" dy="-3"/>
<feGaussianBlur stdDeviation="2"/>
<feComposite in2="hardAlpha" operator="arithmetic" k2="-1" k3="1"/>
<feColorMatrix type="matrix" values="0 0 0 0 1 0 0 0 0 0.973036 0 0 0 0 0.831478 0 0 0 0.93 0"/>
<feBlend mode="normal" in2="effect2_innerShadow_9091_952" result="effect3_innerShadow_9091_952"/>
</filter>
<filter id="filter2_dii_9091_952" x="17.2" y="86.2" width="569.875" height="346.6" filterUnits="userSpaceOnUse" color-interpolation-filters="sRGB">
<feFlood flood-opacity="0" result="BackgroundImageFix"/>
<feColorMatrix in="SourceAlpha" type="matrix" values="0 0 0 0 0 0 0 0 0 0 0 0 0 0 0 0 0 0 127 0" result="hardAlpha"/>
<feOffset dx="1" dy="5"/>
<feGaussianBlur stdDeviation="10.4"/>
<feComposite in2="hardAlpha" operator="out"/>
<feColorMatrix type="matrix" values="0 0 0 0 0.193578 0 0 0 0 0.244369 0 0 0 0 0.511019 0 0 0 0.28 0"/>
<feBlend mode="normal" in2="BackgroundImageFix" result="effect1_dropShadow_9091_952"/>
<feBlend mode="normal" in="SourceGraphic" in2="effect1_dropShadow_9091_952" result="shape"/>
<feColorMatrix in="SourceAlpha" type="matrix" values="0 0 0 0 0 0 0 0 0 0 0 0 0 0 0 0 0 0 127 0" result="hardAlpha"/>
<feOffset dx="3" dy="3"/>
<feGaussianBlur stdDeviation="2"/>
<feComposite in2="hardAlpha" operator="arithmetic" k2="-1" k3="1"/>
<feColorMatrix type="matrix" values="0 0 0 0 1 0 0 0 0 1 0 0 0 0 1 0 0 0 1 0"/>
<feBlend mode="normal" in2="shape" result="effect2_innerShadow_9091_952"/>
<feColorMatrix in="SourceAlpha" type="matrix" values="0 0 0 0 0 0 0 0 0 0 0 0 0 0 0 0 0 0 127 0" result="hardAlpha"/>
<feOffset dx="-3" dy="-3"/>
<feGaussianBlur stdDeviation="2"/>
<feComposite in2="hardAlpha" operator="arithmetic" k2="-1" k3="1"/>
<feColorMatrix type="matrix" values="0 0 0 0 0.831478 0 0 0 0 0.84833 0 0 0 0 1 0 0 0 0.93 0"/>
<feBlend mode="normal" in2="effect2_innerShadow_9091_952" result="effect3_innerShadow_9091_952"/>
</filter>
<filter id="filter3_dii_9091_952" x="17.2" y="-5.8" width="569.875" height="346.6" filterUnits="userSpaceOnUse" color-interpolation-filters="sRGB">
<feFlood flood-opacity="0" result="BackgroundImageFix"/>
<feColorMatrix in="SourceAlpha" type="matrix" values="0 0 0 0 0 0 0 0 0 0 0 0 0 0 0 0 0 0 127 0" result="hardAlpha"/>
<feOffset dx="1" dy="5"/>
<feGaussianBlur stdDeviation="10.4"/>
<feComposite in2="hardAlpha" operator="out"/>
<feColorMatrix type="matrix" values="0 0 0 0 0.193578 0 0 0 0 0.511019 0 0 0 0 0.511019 0 0 0 0.28 0"/>
<feBlend mode="normal" in2="BackgroundImageFix" result="effect1_dropShadow_9091_952"/>
<feBlend mode="normal" in="SourceGraphic" in2="effect1_dropShadow_9091_952" result="shape"/>
<feColorMatrix in="SourceAlpha" type="matrix" values="0 0 0 0 0 0 0 0 0 0 0 0 0 0 0 0 0 0 127 0" result="hardAlpha"/>
<feOffset dx="3" dy="3"/>
<feGaussianBlur stdDeviation="2"/>
<feComposite in2="hardAlpha" operator="arithmetic" k2="-1" k3="1"/>
<feColorMatrix type="matrix" values="0 0 0 0 1 0 0 0 0 1 0 0 0 0 1 0 0 0 1 0"/>
<feBlend mode="normal" in2="shape" result="effect2_innerShadow_9091_952"/>
<feColorMatrix in="SourceAlpha" type="matrix" values="0 0 0 0 0 0 0 0 0 0 0 0 0 0 0 0 0 0 127 0" result="hardAlpha"/>
<feOffset dx="-3" dy="-3"/>
<feGaussianBlur stdDeviation="2"/>
<feComposite in2="hardAlpha" operator="arithmetic" k2="-1" k3="1"/>
<feColorMatrix type="matrix" values="0 0 0 0 0.831478 0 0 0 0 1 0 0 0 0 1 0 0 0 0.93 0"/>
<feBlend mode="normal" in2="effect2_innerShadow_9091_952" result="effect3_innerShadow_9091_952"/>
</filter>
</defs>
</svg>
