<svg width="494" height="315" viewBox="0 0 494 315" fill="none" xmlns="http://www.w3.org/2000/svg">
<rect x="20.2" y="11.2" width="469.6" height="299.6" fill="#131313" stroke="white" stroke-width="0.4"/>
<rect x="0.2" y="0.2" width="469.6" height="290.6" fill="#131313" stroke="white" stroke-width="0.4"/>
<path d="M249.344 45.1953V56.7137L292.749 82.0961L320.772 65.2417V54.0488L249.344 45.1953Z" fill="white"/>
<rect x="-1.8562e-08" y="0.311418" width="49.862" height="32.2131" transform="matrix(0.866025 0.5 -0.866025 0.5 277.684 28.937)" fill="white" stroke="#131313" stroke-width="0.622836"/>
<path d="M277.362 40.6879C276.785 40.3546 276.489 39.9919 276.475 39.5999C276.471 39.2079 276.789 38.8266 277.431 38.4559L278.54 37.8159C279.182 37.4452 279.84 37.2626 280.514 37.2679C281.198 37.2732 281.828 37.4426 282.406 37.7759C282.988 38.1119 283.281 38.4759 283.286 38.8679C283.3 39.2599 282.985 39.6412 282.343 40.0119L281.235 40.6519C280.593 41.0226 279.93 41.2052 279.247 41.1999C278.572 41.1946 277.944 41.0239 277.362 40.6879ZM277.882 40.3879C278.302 40.6306 278.752 40.7466 279.233 40.7359C279.718 40.7226 280.184 40.5866 280.632 40.3279L281.782 39.6639C282.23 39.4052 282.464 39.1372 282.482 38.8599C282.505 38.5799 282.306 38.3186 281.886 38.0759C281.47 37.8359 281.02 37.7226 280.535 37.7359C280.055 37.7466 279.591 37.8812 279.143 38.1399L277.993 38.8039C277.544 39.0626 277.309 39.3319 277.286 39.6119C277.267 39.8892 277.466 40.1479 277.882 40.3879ZM279.775 41.9691L283.163 40.0131L283.697 40.3211L283.122 40.6531L283.219 40.7091C283.454 40.6585 283.724 40.6465 284.029 40.6731C284.343 40.6998 284.673 40.8131 285.02 41.0131C285.274 41.1598 285.447 41.3211 285.539 41.4971C285.636 41.6758 285.641 41.8598 285.553 42.0491C285.466 42.2385 285.269 42.4211 284.964 42.5971L282.914 43.7811L282.366 43.4651L284.376 42.3051C284.713 42.1105 284.872 41.9198 284.854 41.7331C284.84 41.5491 284.69 41.3745 284.403 41.2091C284.075 41.0198 283.701 40.9265 283.281 40.9291C282.865 40.9345 282.447 41.0585 282.027 41.3011L280.323 42.2851L279.775 41.9691ZM284.948 43.1877L285.454 42.8957L287.505 44.0797L286.999 44.3717L284.948 43.1877ZM287.653 46.6295C287.076 46.2962 286.783 45.9348 286.773 45.5455C286.769 45.1535 287.087 44.7722 287.729 44.4015L288.838 43.7615C289.48 43.3908 290.138 43.2082 290.812 43.2135C291.491 43.2162 292.12 43.3842 292.697 43.7175C293.27 44.0482 293.549 44.3935 293.535 44.7535C293.526 45.1162 293.244 45.4575 292.69 45.7775L292.655 45.7975L292.08 45.4655L292.136 45.4335C292.501 45.2228 292.699 44.9935 292.732 44.7455C292.773 44.4975 292.588 44.2548 292.177 44.0175C291.766 43.7802 291.318 43.6682 290.833 43.6815C290.353 43.6922 289.886 43.8282 289.434 44.0895L288.298 44.7455C287.845 45.0068 287.607 45.2775 287.584 45.5575C287.565 45.8348 287.762 46.0922 288.173 46.3295C288.584 46.5668 289.002 46.6748 289.427 46.6535C289.861 46.6322 290.26 46.5162 290.625 46.3055L290.736 46.2415L291.311 46.5735L291.221 46.6255C290.667 46.9455 290.076 47.1082 289.448 47.1135C288.824 47.1215 288.226 46.9602 287.653 46.6295ZM289.884 47.8054L294.734 45.0054L295.281 45.3214L293.279 46.4774L293.376 46.5334C293.523 46.5014 293.687 46.4867 293.868 46.4894C294.057 46.492 294.256 46.5187 294.463 46.5694C294.676 46.6227 294.898 46.716 295.128 46.8494C295.383 46.996 295.553 47.1587 295.641 47.3374C295.738 47.516 295.743 47.7 295.655 47.8894C295.572 48.076 295.378 48.2574 295.073 48.4334L293.022 49.6174L292.475 49.3014L294.484 48.1414C294.821 47.9467 294.981 47.756 294.962 47.5694C294.948 47.3854 294.798 47.2107 294.512 47.0454C294.184 46.856 293.81 46.7627 293.389 46.7654C292.974 46.7707 292.556 46.8947 292.135 47.1374L290.431 48.1214L289.884 47.8054ZM294.496 50.5799C294.26 50.4439 294.087 50.2959 293.976 50.1359C293.865 49.9759 293.833 49.8186 293.879 49.6639C293.925 49.5093 294.061 49.3666 294.288 49.2359C294.519 49.1026 294.763 49.0253 295.022 49.0039C295.285 48.9799 295.551 49.0026 295.819 49.0719C296.091 49.1386 296.348 49.2413 296.588 49.3799L297.731 50.0399L297.98 49.8959C298.221 49.7573 298.338 49.6066 298.334 49.4439C298.334 49.2839 298.195 49.1239 297.918 48.9639C297.646 48.8066 297.366 48.7226 297.08 48.7119C296.798 48.6986 296.519 48.7399 296.241 48.8359L295.895 48.4439C296.14 48.3666 296.398 48.3186 296.671 48.2999C296.948 48.2786 297.232 48.2986 297.523 48.3599C297.823 48.4213 298.114 48.5333 298.396 48.6959C298.83 48.9466 299.054 49.2066 299.068 49.4759C299.087 49.7426 298.893 49.9933 298.486 50.2279L296.955 51.1119C296.816 51.1919 296.812 51.2693 296.941 51.3439L297.253 51.5239L296.789 51.7919L296.311 51.5159C296.158 51.4279 296.077 51.3333 296.068 51.2319C296.064 51.1279 296.133 51.0346 296.276 50.9519L296.311 50.9319L296.228 50.8839C296.089 50.9053 295.927 50.9186 295.743 50.9239C295.567 50.9293 295.375 50.9066 295.168 50.8559C294.955 50.8079 294.731 50.7159 294.496 50.5799ZM295.029 50.3439C295.352 50.5306 295.708 50.6266 296.096 50.6319C296.493 50.6373 296.865 50.5399 297.211 50.3399L297.288 50.2959L296.165 49.6479C295.948 49.5226 295.72 49.4466 295.479 49.4199C295.248 49.3933 295.038 49.4346 294.849 49.5439C294.66 49.6533 294.583 49.7799 294.62 49.9239C294.662 50.0706 294.798 50.2106 295.029 50.3439ZM296.959 51.8902L300.347 49.9342L300.894 50.2502L297.506 52.2062L296.959 51.8902ZM301.15 49.7902C301.03 49.7208 300.968 49.6395 300.963 49.5462C300.963 49.4555 301.023 49.3755 301.144 49.3062C301.268 49.2342 301.409 49.1982 301.566 49.1982C301.728 49.2008 301.869 49.2368 301.989 49.3062C302.109 49.3755 302.169 49.4555 302.169 49.5462C302.169 49.6368 302.107 49.7182 301.982 49.7902C301.862 49.8595 301.723 49.8942 301.566 49.8942C301.409 49.8942 301.271 49.8595 301.15 49.7902ZM298.078 52.5361L301.466 50.5801L301.999 50.8881L301.424 51.2201L301.521 51.2761C301.757 51.2254 302.027 51.2134 302.332 51.2401C302.646 51.2668 302.976 51.3801 303.322 51.5801C303.576 51.7268 303.75 51.8881 303.842 52.0641C303.939 52.2428 303.944 52.4268 303.856 52.6161C303.768 52.8054 303.572 52.9881 303.267 53.1641L301.216 54.3481L300.669 54.0321L302.678 52.8721C303.015 52.6774 303.175 52.4868 303.156 52.3001C303.142 52.1161 302.992 51.9414 302.706 51.7761C302.378 51.5868 302.004 51.4934 301.583 51.4961C301.168 51.5014 300.75 51.6254 300.329 51.8681L298.625 52.8521L298.078 52.5361ZM271.497 49.1898L272.017 48.8898L272.696 49.2818L276.506 47.0818L275.827 46.6898L276.347 46.3898L278.238 47.4818C278.876 47.8498 279.206 48.2271 279.229 48.6138C279.257 49.0031 278.936 49.3911 278.266 49.7778L277.365 50.2978C276.691 50.6872 276.017 50.8738 275.342 50.8578C274.677 50.8418 274.026 50.6498 273.389 50.2818L271.497 49.1898ZM273.285 49.6138L273.915 49.9778C274.386 50.2498 274.857 50.3885 275.328 50.3938C275.8 50.3992 276.278 50.2618 276.763 49.9818L277.712 49.4338C278.206 49.1485 278.446 48.8711 278.432 48.6018C278.418 48.3325 278.176 48.0618 277.705 47.7898L277.074 47.4258L273.285 49.6138ZM276.703 52.3076C276.468 52.1716 276.295 52.0236 276.184 51.8636C276.073 51.7036 276.041 51.5463 276.087 51.3916C276.133 51.2369 276.269 51.0943 276.496 50.9636C276.726 50.8303 276.971 50.7529 277.23 50.7316C277.493 50.7076 277.759 50.7303 278.027 50.7996C278.299 50.8663 278.556 50.9689 278.796 51.1076L279.939 51.7676L280.188 51.6236C280.428 51.4849 280.546 51.3343 280.542 51.1716C280.542 51.0116 280.403 50.8516 280.126 50.6916C279.853 50.5343 279.574 50.4503 279.288 50.4396C279.006 50.4263 278.726 50.4676 278.449 50.5636L278.103 50.1716C278.348 50.0943 278.606 50.0463 278.879 50.0276C279.156 50.0063 279.44 50.0263 279.731 50.0876C280.031 50.1489 280.322 50.2609 280.604 50.4236C281.038 50.6743 281.262 50.9343 281.276 51.2036C281.294 51.4703 281.1 51.7209 280.694 51.9556L279.163 52.8396C279.024 52.9196 279.02 52.9969 279.149 53.0716L279.461 53.2516L278.997 53.5196L278.519 53.2436C278.366 53.1556 278.285 53.0609 278.276 52.9596C278.271 52.8556 278.341 52.7623 278.484 52.6796L278.519 52.6596L278.435 52.6116C278.297 52.6329 278.135 52.6463 277.95 52.6516C277.775 52.6569 277.583 52.6343 277.375 52.5836C277.163 52.5356 276.939 52.4436 276.703 52.3076ZM277.237 52.0716C277.56 52.2583 277.916 52.3543 278.304 52.3596C278.701 52.3649 279.073 52.2676 279.419 52.0676L279.495 52.0236L278.373 51.3756C278.156 51.2503 277.927 51.1743 277.687 51.1476C277.456 51.1209 277.246 51.1623 277.057 51.2716C276.867 51.3809 276.791 51.5076 276.828 51.6516C276.87 51.7983 277.006 51.9383 277.237 52.0716ZM280.191 54.2089C279.997 54.0969 279.9 53.9796 279.9 53.8569C279.904 53.7369 279.999 53.6236 280.184 53.5169L282.498 52.1809L281.479 51.5929L281.957 51.3169L282.976 51.9049L284.181 51.2089L284.729 51.5249L283.523 52.2209L284.632 52.8609L284.153 53.1369L283.045 52.4969L280.814 53.7849C280.676 53.8649 280.673 53.9436 280.807 54.0209L281.562 54.4569L281.091 54.7289L280.191 54.2089ZM282.473 55.6385C282.237 55.5025 282.064 55.3545 281.953 55.1945C281.842 55.0345 281.81 54.8772 281.856 54.7225C281.902 54.5679 282.039 54.4252 282.265 54.2945C282.496 54.1612 282.741 54.0839 282.999 54.0625C283.262 54.0385 283.528 54.0612 283.796 54.1305C284.068 54.1972 284.325 54.2999 284.565 54.4385L285.708 55.0985L285.958 54.9545C286.198 54.8159 286.316 54.6652 286.311 54.5025C286.311 54.3425 286.172 54.1825 285.895 54.0225C285.623 53.8652 285.343 53.7812 285.057 53.7705C284.775 53.7572 284.496 53.7985 284.219 53.8945L283.872 53.5025C284.117 53.4252 284.376 53.3772 284.648 53.3585C284.925 53.3372 285.209 53.3572 285.5 53.4185C285.801 53.4799 286.092 53.5919 286.373 53.7545C286.807 54.0052 287.031 54.2652 287.045 54.5345C287.064 54.8012 286.87 55.0519 286.463 55.2865L284.932 56.1705C284.794 56.2505 284.789 56.3279 284.918 56.4025L285.23 56.5825L284.766 56.8505L284.288 56.5745C284.135 56.4865 284.055 56.3919 284.045 56.2905C284.041 56.1865 284.11 56.0932 284.253 56.0105L284.288 55.9905L284.205 55.9425C284.066 55.9639 283.905 55.9772 283.72 55.9825C283.544 55.9879 283.353 55.9652 283.145 55.9145C282.932 55.8665 282.708 55.7745 282.473 55.6385ZM283.006 55.4025C283.329 55.5892 283.685 55.6852 284.073 55.6905C284.47 55.6959 284.842 55.5985 285.189 55.3985L285.265 55.3545L284.142 54.7065C283.925 54.5812 283.697 54.5052 283.456 54.4785C283.226 54.4519 283.015 54.4932 282.826 54.6025C282.637 54.7119 282.56 54.8385 282.597 54.9825C282.639 55.1292 282.775 55.2692 283.006 55.4025Z" fill="#131313"/>
<path d="M292.641 69.9453V82.3498" stroke="#131313" stroke-width="0.622836"/>
<path d="M299 76.2812V87.7997L342.405 113.182L370.429 96.3277V85.1348L299 76.2812Z" fill="white"/>
<rect x="-1.8562e-08" y="0.311418" width="49.862" height="32.2131" transform="matrix(0.866025 0.5 -0.866025 0.5 327.348 60.0229)" fill="white" stroke="#131313" stroke-width="0.622836"/>
<path d="M321.176 68.3968C320.599 68.0634 320.304 67.7008 320.29 67.3088C320.285 66.9168 320.604 66.5354 321.246 66.1648L322.354 65.5248C322.996 65.1541 323.654 64.9714 324.329 64.9768C325.012 64.9821 325.643 65.1514 326.22 65.4848C326.802 65.8208 327.095 66.1848 327.1 66.5768C327.114 66.9688 326.8 67.3501 326.158 67.7208L325.049 68.3608C324.407 68.7314 323.745 68.9141 323.061 68.9088C322.387 68.9034 321.758 68.7328 321.176 68.3968ZM321.696 68.0968C322.116 68.3394 322.567 68.4554 323.047 68.4448C323.532 68.4314 323.999 68.2954 324.447 68.0368L325.597 67.3728C326.045 67.1141 326.278 66.8461 326.296 66.5688C326.32 66.2888 326.121 66.0274 325.701 65.7848C325.285 65.5448 324.835 65.4314 324.35 65.4448C323.869 65.4554 323.405 65.5901 322.957 65.8488L321.807 66.5128C321.359 66.7714 321.123 67.0408 321.1 67.3208C321.082 67.5981 321.28 67.8568 321.696 68.0968ZM322.204 70.478L326.978 67.722L327.511 68.03L326.95 68.354L327.047 68.41C327.305 68.362 327.599 68.3553 327.927 68.39C328.259 68.4273 328.601 68.5473 328.952 68.75C329.243 68.918 329.437 69.1127 329.534 69.334C329.64 69.5553 329.636 69.782 329.52 70.014C329.409 70.2487 329.171 70.4713 328.807 70.682L328.717 70.734C328.356 70.942 327.973 71.0807 327.566 71.15C327.16 71.2193 326.765 71.2233 326.382 71.162C326.003 71.1033 325.666 70.9887 325.37 70.818C325.135 70.682 324.966 70.5473 324.864 70.414C324.763 70.286 324.71 70.1647 324.705 70.05C324.7 69.9353 324.721 69.8327 324.767 69.742L324.67 69.686L322.751 70.794L322.204 70.478ZM325.71 70.454C326.061 70.6567 326.456 70.7567 326.894 70.754C327.342 70.7513 327.767 70.634 328.169 70.402L328.232 70.366C328.633 70.134 328.834 69.89 328.834 69.634C328.844 69.378 328.673 69.1487 328.322 68.946C327.975 68.746 327.576 68.646 327.123 68.646C326.68 68.646 326.257 68.762 325.855 68.994L325.793 69.03C325.391 69.262 325.188 69.5073 325.183 69.766C325.188 70.0247 325.363 70.254 325.71 70.454ZM328.924 72.8697C328.582 72.6723 328.353 72.4577 328.238 72.2257C328.127 71.991 328.132 71.7563 328.252 71.5217C328.372 71.287 328.605 71.0697 328.952 70.8697L329.035 70.8217C329.386 70.619 329.764 70.483 330.171 70.4137C330.577 70.3443 330.979 70.3417 331.376 70.4057C331.778 70.467 332.143 70.5923 332.471 70.7817C332.79 70.9657 333.002 71.1683 333.108 71.3897C333.219 71.6083 333.217 71.831 333.102 72.0577C332.986 72.2843 332.757 72.4963 332.416 72.6937L332.166 72.8377L329.402 71.2417C329.051 71.4603 328.882 71.6937 328.896 71.9417C328.915 72.187 329.09 72.4057 329.423 72.5977C329.714 72.7657 330.005 72.8563 330.296 72.8697C330.587 72.883 330.866 72.8603 331.134 72.8017L331.376 73.2057C331.164 73.2483 330.924 73.275 330.656 73.2857C330.393 73.299 330.113 73.2763 329.818 73.2177C329.527 73.1617 329.229 73.0457 328.924 72.8697ZM329.859 70.9857L332.062 72.2577C332.358 72.0657 332.494 71.8617 332.471 71.6457C332.453 71.4323 332.291 71.2377 331.986 71.0617C331.677 70.883 331.335 70.787 330.961 70.7737C330.587 70.7603 330.219 70.831 329.859 70.9857ZM330.99 73.9503L334.377 71.9943L334.911 72.3023L334.336 72.6343L334.433 72.6903C334.668 72.6396 334.939 72.6276 335.243 72.6543C335.558 72.681 335.888 72.7943 336.234 72.9943C336.488 73.141 336.661 73.3023 336.754 73.4783C336.851 73.657 336.855 73.841 336.768 74.0303C336.68 74.2196 336.484 74.4023 336.179 74.5783L334.128 75.7623L333.581 75.4463L335.59 74.2863C335.927 74.0916 336.086 73.901 336.068 73.7143C336.054 73.5303 335.904 73.3556 335.618 73.1903C335.29 73.001 334.916 72.9076 334.495 72.9103C334.08 72.9156 333.662 73.0396 333.241 73.2823L331.537 74.2663L330.99 73.9503ZM336.162 75.1689L336.668 74.8769L338.719 76.0609L338.213 76.3529L336.162 75.1689ZM338.729 78.5307C338.378 78.328 338.126 78.1107 337.974 77.8787C337.821 77.6467 337.789 77.412 337.877 77.1747C337.974 76.9373 338.212 76.7093 338.59 76.4907L338.736 76.4067L339.311 76.7387L339.165 76.8227C338.764 77.0547 338.581 77.296 338.618 77.5467C338.66 77.7947 338.865 78.0253 339.235 78.2387C339.613 78.4573 339.988 78.5747 340.357 78.5907C340.727 78.6067 341.041 78.54 341.299 78.3907C341.479 78.2867 341.576 78.1773 341.59 78.0627C341.609 77.9507 341.569 77.8293 341.473 77.6987C341.38 77.5653 341.251 77.4213 341.085 77.2667L340.814 77.0067C340.606 76.8013 340.447 76.6053 340.336 76.4187C340.225 76.232 340.193 76.0533 340.239 75.8827C340.295 75.712 340.459 75.548 340.731 75.3907C341.004 75.2333 341.306 75.136 341.639 75.0987C341.976 75.064 342.32 75.0867 342.671 75.1667C343.027 75.2493 343.366 75.384 343.69 75.5707C344.017 75.76 344.253 75.9627 344.396 76.1787C344.549 76.3947 344.588 76.6093 344.514 76.8227C344.449 77.036 344.251 77.2387 343.918 77.4307L343.627 77.5987L343.052 77.2667L343.343 77.0987C343.579 76.9627 343.717 76.824 343.759 76.6827C343.805 76.544 343.775 76.404 343.669 76.2627C343.567 76.124 343.405 75.9907 343.184 75.8627C342.865 75.6787 342.537 75.572 342.2 75.5427C341.867 75.5107 341.572 75.5693 341.313 75.7187C341.142 75.8173 341.045 75.9213 341.022 76.0307C340.999 76.14 341.029 76.2587 341.112 76.3867C341.2 76.512 341.325 76.6507 341.486 76.8027L341.757 77.0627C341.978 77.26 342.147 77.4533 342.262 77.6427C342.387 77.832 342.426 78.0173 342.38 78.1987C342.339 78.3773 342.175 78.5493 341.888 78.7147C341.602 78.88 341.281 78.9827 340.925 79.0227C340.57 79.0627 340.2 79.0413 339.817 78.9587C339.443 78.876 339.08 78.7333 338.729 78.5307ZM342.371 80.6332C342.029 80.4359 341.798 80.2199 341.678 79.9852C341.562 79.7532 341.56 79.5199 341.671 79.2852C341.791 79.0506 342.029 78.8306 342.385 78.6252L342.475 78.5732C342.826 78.3706 343.204 78.2346 343.611 78.1652C344.022 78.0986 344.428 78.0986 344.83 78.1652C345.237 78.2346 345.611 78.3679 345.953 78.5652C346.294 78.7626 346.523 78.9772 346.638 79.2092C346.759 79.4439 346.759 79.6786 346.638 79.9132C346.523 80.1506 346.29 80.3706 345.939 80.5732L345.849 80.6252C345.493 80.8306 345.11 80.9666 344.699 81.0332C344.297 81.0999 343.893 81.0986 343.486 81.0292C343.084 80.9626 342.713 80.8306 342.371 80.6332ZM342.863 80.3492C343.223 80.5572 343.622 80.6572 344.061 80.6492C344.509 80.6412 344.927 80.5252 345.315 80.3012L345.378 80.2652C345.766 80.0412 345.964 79.8012 345.973 79.5452C345.992 79.2892 345.821 79.0572 345.461 78.8492C345.105 78.6439 344.703 78.5452 344.255 78.5532C343.812 78.5586 343.396 78.6732 343.008 78.8972L342.946 78.9332C342.558 79.1572 342.357 79.3986 342.343 79.6572C342.334 79.9132 342.507 80.1439 342.863 80.3492ZM345.838 82.5954C345.594 82.454 345.42 82.2927 345.319 82.1114C345.222 81.9327 345.217 81.7487 345.305 81.5594C345.402 81.37 345.601 81.1887 345.901 81.0154L347.952 79.8314L348.499 80.1474L346.49 81.3074C346.153 81.502 345.991 81.6914 346.005 81.8754C346.023 82.062 346.176 82.238 346.462 82.4034C346.785 82.59 347.157 82.682 347.577 82.6794C347.998 82.6767 348.418 82.554 348.838 82.3114L350.543 81.3274L351.09 81.6434L347.702 83.5994L347.169 83.2914L347.744 82.9594L347.647 82.9034C347.411 82.954 347.136 82.966 346.822 82.9394C346.513 82.91 346.185 82.7954 345.838 82.5954ZM348.268 83.926L351.656 81.97L352.189 82.278L351.774 82.518L351.871 82.574C352.078 82.5234 352.279 82.514 352.473 82.546C352.667 82.578 352.866 82.6527 353.069 82.77L353.471 83.002L352.972 83.29L352.536 83.038C352.291 82.8967 352.023 82.822 351.732 82.814C351.45 82.806 351.166 82.8847 350.88 83.05L348.815 84.242L348.268 83.926ZM351.64 85.985C351.312 85.7957 351.086 85.585 350.961 85.353C350.846 85.121 350.843 84.885 350.954 84.645C351.07 84.4077 351.308 84.185 351.668 83.977L351.744 83.933C352.109 83.7223 352.495 83.585 352.901 83.521C353.317 83.457 353.723 83.4597 354.121 83.529C354.527 83.5983 354.894 83.7277 355.222 83.917C355.545 84.1037 355.76 84.297 355.866 84.497C355.977 84.6997 355.998 84.8957 355.929 85.085C355.864 85.277 355.737 85.449 355.548 85.601L354.903 85.357C355.047 85.2477 355.144 85.1277 355.194 84.997C355.25 84.869 355.243 84.737 355.174 84.601C355.104 84.465 354.959 84.333 354.737 84.205C354.511 84.0743 354.257 83.9863 353.975 83.941C353.698 83.8983 353.412 83.901 353.116 83.949C352.825 83.9997 352.548 84.101 352.285 84.253L352.222 84.289C351.959 84.441 351.783 84.601 351.696 84.769C351.612 84.9397 351.608 85.105 351.682 85.265C351.76 85.4277 351.913 85.5743 352.139 85.705C352.476 85.8997 352.82 85.997 353.171 85.997C353.527 85.9997 353.855 85.9383 354.155 85.813L354.578 86.193C354.305 86.2917 354.003 86.3597 353.67 86.397C353.338 86.4343 352.996 86.421 352.645 86.357C352.298 86.2957 351.964 86.1717 351.64 85.985ZM355.195 88.0371C354.853 87.8397 354.624 87.6251 354.509 87.3931C354.398 87.1584 354.402 86.9237 354.522 86.6891C354.643 86.4544 354.876 86.2371 355.222 86.0371L355.305 85.9891C355.656 85.7864 356.035 85.6504 356.442 85.5811C356.848 85.5117 357.25 85.5091 357.647 85.5731C358.049 85.6344 358.414 85.7597 358.742 85.9491C359.06 86.1331 359.273 86.3357 359.379 86.5571C359.49 86.7757 359.488 86.9984 359.372 87.2251C359.257 87.4517 359.028 87.6637 358.686 87.8611L358.437 88.0051L355.673 86.4091C355.322 86.6277 355.153 86.8611 355.167 87.1091C355.185 87.3544 355.361 87.5731 355.693 87.7651C355.984 87.9331 356.275 88.0237 356.566 88.0371C356.857 88.0504 357.137 88.0277 357.405 87.9691L357.647 88.3731C357.435 88.4157 357.194 88.4424 356.927 88.4531C356.663 88.4664 356.384 88.4437 356.088 88.3851C355.797 88.3291 355.499 88.2131 355.195 88.0371ZM356.13 86.1531L358.333 87.4251C358.629 87.2331 358.765 87.0291 358.742 86.8131C358.723 86.5997 358.562 86.4051 358.257 86.2291C357.947 86.0504 357.606 85.9544 357.231 85.9411C356.857 85.9277 356.49 85.9984 356.13 86.1531ZM321.161 80.2758L321.681 79.9758L322.359 80.3678L326.17 78.1678L325.491 77.7758L326.011 77.4758L327.902 78.5678C328.539 78.9358 328.87 79.3131 328.893 79.6998C328.921 80.0891 328.599 80.4771 327.93 80.8638L327.029 81.3838C326.355 81.7731 325.68 81.9598 325.006 81.9438C324.341 81.9278 323.69 81.7358 323.052 81.3678L321.161 80.2758ZM322.948 80.6998L323.579 81.0638C324.05 81.3358 324.521 81.4744 324.992 81.4798C325.463 81.4851 325.941 81.3478 326.426 81.0678L327.376 80.5198C327.87 80.2344 328.11 79.9571 328.096 79.6878C328.082 79.4184 327.84 79.1478 327.369 78.8758L326.738 78.5118L322.948 80.6998ZM326.367 83.3936C326.132 83.2576 325.958 83.1096 325.847 82.9496C325.737 82.7896 325.704 82.6322 325.751 82.4776C325.797 82.3229 325.933 82.1802 326.159 82.0496C326.39 81.9162 326.635 81.8389 326.894 81.8176C327.157 81.7936 327.423 81.8162 327.69 81.8856C327.963 81.9522 328.219 82.0549 328.459 82.1936L329.603 82.8536L329.852 82.7096C330.092 82.5709 330.21 82.4202 330.205 82.2576C330.205 82.0976 330.067 81.9376 329.79 81.7776C329.517 81.6202 329.238 81.5362 328.951 81.5256C328.67 81.5122 328.39 81.5536 328.113 81.6496L327.767 81.2576C328.011 81.1802 328.27 81.1322 328.543 81.1136C328.82 81.0922 329.104 81.1122 329.395 81.1736C329.695 81.2349 329.986 81.3469 330.268 81.5096C330.702 81.7602 330.926 82.0202 330.94 82.2896C330.958 82.5562 330.764 82.8069 330.358 83.0416L328.827 83.9256C328.688 84.0056 328.683 84.0829 328.813 84.1576L329.125 84.3376L328.66 84.6056L328.182 84.3296C328.03 84.2416 327.949 84.1469 327.94 84.0456C327.935 83.9416 328.004 83.8482 328.148 83.7656L328.182 83.7456L328.099 83.6976C327.961 83.7189 327.799 83.7322 327.614 83.7376C327.439 83.7429 327.247 83.7202 327.039 83.6696C326.827 83.6216 326.603 83.5296 326.367 83.3936ZM326.901 83.1576C327.224 83.3442 327.58 83.4402 327.968 83.4456C328.365 83.4509 328.737 83.3536 329.083 83.1536L329.159 83.1096L328.037 82.4616C327.82 82.3362 327.591 82.2602 327.351 82.2336C327.12 82.2069 326.91 82.2482 326.72 82.3576C326.531 82.4669 326.455 82.5936 326.492 82.7376C326.533 82.8842 326.67 83.0242 326.901 83.1576ZM329.854 85.2949C329.66 85.1829 329.563 85.0656 329.563 84.9429C329.568 84.8229 329.663 84.7096 329.847 84.6029L332.161 83.2669L331.143 82.6789L331.621 82.4029L332.639 82.9909L333.845 82.2949L334.392 82.6109L333.187 83.3069L334.295 83.9469L333.817 84.2229L332.709 83.5829L330.478 84.8709C330.339 84.9509 330.337 85.0296 330.471 85.1069L331.226 85.5429L330.755 85.8149L329.854 85.2949ZM332.136 86.7245C331.901 86.5885 331.728 86.4405 331.617 86.2805C331.506 86.1205 331.474 85.9631 331.52 85.8085C331.566 85.6538 331.702 85.5111 331.929 85.3805C332.16 85.2471 332.404 85.1698 332.663 85.1485C332.926 85.1245 333.192 85.1471 333.46 85.2165C333.732 85.2831 333.989 85.3858 334.229 85.5245L335.372 86.1845L335.621 86.0405C335.861 85.9018 335.979 85.7511 335.975 85.5885C335.975 85.4285 335.836 85.2685 335.559 85.1085C335.286 84.9511 335.007 84.8671 334.721 84.8565C334.439 84.8431 334.159 84.8845 333.882 84.9805L333.536 84.5885C333.781 84.5111 334.039 84.4631 334.312 84.4445C334.589 84.4231 334.873 84.4431 335.164 84.5045C335.464 84.5658 335.755 84.6778 336.037 84.8405C336.471 85.0911 336.695 85.3511 336.709 85.6205C336.728 85.8871 336.534 86.1378 336.127 86.3725L334.596 87.2565C334.457 87.3365 334.453 87.4138 334.582 87.4885L334.894 87.6685L334.43 87.9365L333.952 87.6605C333.799 87.5725 333.718 87.4778 333.709 87.3765C333.705 87.2725 333.774 87.1791 333.917 87.0965L333.952 87.0765L333.868 87.0285C333.73 87.0498 333.568 87.0631 333.383 87.0685C333.208 87.0738 333.016 87.0511 332.808 87.0005C332.596 86.9525 332.372 86.8605 332.136 86.7245ZM332.67 86.4885C332.993 86.6751 333.349 86.7711 333.737 86.7765C334.134 86.7818 334.506 86.6845 334.852 86.4845L334.928 86.4405L333.806 85.7925C333.589 85.6671 333.36 85.5911 333.12 85.5645C332.889 85.5378 332.679 85.5791 332.49 85.6885C332.3 85.7978 332.224 85.9245 332.261 86.0685C332.303 86.2151 332.439 86.3551 332.67 86.4885Z" fill="#131313"/>
<path d="M342.305 101.031V113.436" stroke="#131313" stroke-width="0.622836"/>
<path d="M349.094 107.227V118.745L392.499 144.127L420.522 127.273V116.08L349.094 107.227Z" fill="white"/>
<rect x="-1.8562e-08" y="0.311418" width="49.862" height="32.2131" transform="matrix(0.866025 0.5 -0.866025 0.5 377.442 90.9682)" fill="white" stroke="#131313" stroke-width="0.622836"/>
<path d="M375.461 101.763C375.11 101.56 374.858 101.343 374.706 101.111C374.553 100.879 374.521 100.644 374.609 100.407C374.706 100.169 374.944 99.9413 375.322 99.7227L375.468 99.6387L376.043 99.9707L375.897 100.055C375.495 100.287 375.313 100.528 375.35 100.779C375.392 101.027 375.597 101.257 375.967 101.471C376.345 101.689 376.719 101.807 377.089 101.823C377.458 101.839 377.773 101.772 378.031 101.623C378.211 101.519 378.308 101.409 378.322 101.295C378.341 101.183 378.301 101.061 378.204 100.931C378.112 100.797 377.983 100.653 377.816 100.499L377.546 100.239C377.338 100.033 377.179 99.8373 377.068 99.6507C376.957 99.464 376.925 99.2853 376.971 99.1147C377.027 98.944 377.191 98.78 377.463 98.6227C377.736 98.4653 378.038 98.368 378.371 98.3307C378.708 98.296 379.052 98.3187 379.403 98.3987C379.759 98.4813 380.098 98.616 380.421 98.8027C380.749 98.992 380.985 99.1947 381.128 99.4107C381.281 99.6267 381.32 99.8413 381.246 100.055C381.181 100.268 380.983 100.471 380.65 100.663L380.359 100.831L379.784 100.499L380.075 100.331C380.311 100.195 380.449 100.056 380.491 99.9147C380.537 99.776 380.507 99.636 380.401 99.4947C380.299 99.356 380.137 99.2227 379.916 99.0947C379.597 98.9107 379.269 98.804 378.932 98.7747C378.599 98.7427 378.304 98.8013 378.045 98.9507C377.874 99.0493 377.777 99.1533 377.754 99.2627C377.731 99.372 377.761 99.4907 377.844 99.6187C377.932 99.744 378.057 99.8827 378.218 100.035L378.488 100.295C378.71 100.492 378.879 100.685 378.994 100.875C379.119 101.064 379.158 101.249 379.112 101.431C379.07 101.609 378.906 101.781 378.62 101.947C378.334 102.112 378.013 102.215 377.657 102.255C377.301 102.295 376.932 102.273 376.549 102.191C376.174 102.108 375.812 101.965 375.461 101.763ZM376.657 103.941L377.142 103.661L379.082 104.781C379.216 104.859 379.352 104.857 379.491 104.777L380.724 104.065L380.627 104.009C380.484 104.039 380.315 104.053 380.121 104.053C379.936 104.053 379.738 104.027 379.525 103.973C379.317 103.917 379.098 103.823 378.867 103.689C378.622 103.548 378.449 103.387 378.347 103.205C378.25 103.027 378.246 102.843 378.334 102.653C378.426 102.467 378.622 102.287 378.922 102.113L380.98 100.925L381.527 101.241L379.511 102.405C379.179 102.597 379.019 102.785 379.033 102.969C379.052 103.156 379.204 103.332 379.491 103.497C379.814 103.684 380.186 103.776 380.606 103.773C381.026 103.771 381.447 103.648 381.867 103.405L383.571 102.421L384.119 102.737L379.941 105.149C379.756 105.256 379.558 105.309 379.345 105.309C379.137 105.312 378.934 105.256 378.735 105.141L376.657 103.941ZM381.297 105.02L384.684 103.064L385.218 103.372L384.643 103.704L384.74 103.76C384.975 103.709 385.246 103.697 385.55 103.724C385.865 103.751 386.195 103.864 386.541 104.064C386.795 104.211 386.968 104.372 387.061 104.548C387.158 104.727 387.162 104.911 387.075 105.1C386.987 105.289 386.791 105.472 386.486 105.648L384.435 106.832L383.888 106.516L385.897 105.356C386.234 105.161 386.393 104.971 386.375 104.784C386.361 104.6 386.211 104.425 385.925 104.26C385.597 104.071 385.223 103.977 384.802 103.98C384.387 103.985 383.969 104.109 383.548 104.352L381.844 105.336L381.297 105.02ZM386.118 107.804C385.924 107.692 385.827 107.574 385.827 107.452C385.832 107.332 385.927 107.218 386.111 107.112L388.426 105.776L387.407 105.188L387.885 104.912L388.904 105.5L390.109 104.804L390.656 105.12L389.451 105.816L390.559 106.456L390.081 106.732L388.973 106.092L386.742 107.38C386.603 107.46 386.601 107.538 386.735 107.616L387.49 108.052L387.019 108.324L386.118 107.804ZM387.479 108.589L392.328 105.789L392.876 106.105L390.873 107.261L390.97 107.317C391.118 107.285 391.282 107.27 391.462 107.273C391.652 107.276 391.85 107.302 392.058 107.353C392.271 107.406 392.492 107.5 392.723 107.633C392.977 107.78 393.148 107.942 393.236 108.121C393.333 108.3 393.338 108.484 393.25 108.673C393.167 108.86 392.973 109.041 392.668 109.217L390.617 110.401L390.07 110.085L392.079 108.925C392.416 108.73 392.575 108.54 392.557 108.353C392.543 108.169 392.393 107.994 392.107 107.829C391.779 107.64 391.405 107.546 390.984 107.549C390.569 107.554 390.151 107.678 389.73 107.921L388.026 108.905L387.479 108.589ZM392.603 111.66C392.261 111.462 392.033 111.248 391.917 111.016C391.806 110.781 391.811 110.546 391.931 110.312C392.051 110.077 392.284 109.86 392.631 109.66L392.714 109.612C393.065 109.409 393.444 109.273 393.85 109.204C394.257 109.134 394.658 109.132 395.056 109.196C395.457 109.257 395.822 109.382 396.15 109.572C396.469 109.756 396.681 109.958 396.788 110.18C396.898 110.398 396.896 110.621 396.781 110.848C396.665 111.074 396.437 111.286 396.095 111.484L395.845 111.628L393.081 110.032C392.73 110.25 392.561 110.484 392.575 110.732C392.594 110.977 392.769 111.196 393.102 111.388C393.393 111.556 393.684 111.646 393.975 111.66C394.266 111.673 394.545 111.65 394.813 111.592L395.056 111.996C394.843 112.038 394.603 112.065 394.335 112.076C394.072 112.089 393.792 112.066 393.497 112.008C393.206 111.952 392.908 111.836 392.603 111.66ZM393.538 109.776L395.741 111.048C396.037 110.856 396.173 110.652 396.15 110.436C396.132 110.222 395.97 110.028 395.665 109.852C395.356 109.673 395.014 109.577 394.64 109.564C394.266 109.55 393.899 109.621 393.538 109.776ZM395.774 113.378C395.58 113.266 395.483 113.149 395.483 113.026C395.487 112.906 395.582 112.793 395.767 112.686L398.081 111.35L397.062 110.762L397.54 110.486L398.559 111.074L399.764 110.378L400.312 110.694L399.106 111.39L400.215 112.03L399.737 112.306L398.628 111.666L396.397 112.954C396.259 113.034 396.256 113.113 396.39 113.19L397.146 113.626L396.674 113.898L395.774 113.378ZM397.134 114.164L400.522 112.208L401.069 112.524L397.681 114.48L397.134 114.164ZM401.325 112.064C401.205 111.994 401.143 111.913 401.138 111.82C401.138 111.729 401.198 111.649 401.319 111.58C401.443 111.508 401.584 111.472 401.741 111.472C401.903 111.474 402.044 111.51 402.164 111.58C402.284 111.649 402.344 111.729 402.344 111.82C402.344 111.91 402.282 111.992 402.157 112.064C402.037 112.133 401.898 112.168 401.741 112.168C401.584 112.168 401.446 112.133 401.325 112.064ZM399.715 115.766C399.387 115.576 399.16 115.366 399.036 115.134C398.92 114.902 398.918 114.666 399.029 114.426C399.144 114.188 399.382 113.966 399.742 113.758L399.818 113.714C400.183 113.503 400.569 113.366 400.975 113.302C401.391 113.238 401.798 113.24 402.195 113.31C402.601 113.379 402.968 113.508 403.296 113.698C403.62 113.884 403.835 114.078 403.941 114.278C404.052 114.48 404.072 114.676 404.003 114.866C403.938 115.058 403.811 115.23 403.622 115.382L402.978 115.138C403.121 115.028 403.218 114.908 403.269 114.778C403.324 114.65 403.317 114.518 403.248 114.382C403.179 114.246 403.033 114.114 402.811 113.986C402.585 113.855 402.331 113.767 402.049 113.722C401.772 113.679 401.486 113.682 401.19 113.73C400.899 113.78 400.622 113.882 400.359 114.034L400.297 114.07C400.033 114.222 399.858 114.382 399.77 114.55C399.687 114.72 399.682 114.886 399.756 115.046C399.835 115.208 399.987 115.355 400.213 115.486C400.551 115.68 400.895 115.778 401.246 115.778C401.601 115.78 401.929 115.719 402.229 115.594L402.652 115.974C402.38 116.072 402.077 116.14 401.744 116.178C401.412 116.215 401.07 116.202 400.719 116.138C400.373 116.076 400.038 115.952 399.715 115.766ZM371.253 111.221L371.772 110.921L372.451 111.313L376.262 109.113L375.583 108.721L376.102 108.421L377.994 109.513C378.631 109.881 378.961 110.258 378.985 110.645C379.012 111.034 378.691 111.422 378.022 111.809L377.121 112.329C376.447 112.718 375.772 112.905 375.098 112.889C374.433 112.873 373.781 112.681 373.144 112.313L371.253 111.221ZM373.04 111.645L373.671 112.009C374.142 112.281 374.613 112.42 375.084 112.425C375.555 112.43 376.033 112.293 376.518 112.013L377.467 111.465C377.961 111.18 378.202 110.902 378.188 110.633C378.174 110.364 377.931 110.093 377.46 109.821L376.83 109.457L373.04 111.645ZM376.459 114.339C376.223 114.203 376.05 114.055 375.939 113.895C375.828 113.735 375.796 113.578 375.842 113.423C375.888 113.268 376.025 113.126 376.251 112.995C376.482 112.862 376.727 112.784 376.985 112.763C377.249 112.739 377.514 112.762 377.782 112.831C378.055 112.898 378.311 113 378.551 113.139L379.694 113.799L379.944 113.655C380.184 113.516 380.302 113.366 380.297 113.203C380.297 113.043 380.159 112.883 379.881 112.723C379.609 112.566 379.329 112.482 379.043 112.471C378.761 112.458 378.482 112.499 378.205 112.595L377.858 112.203C378.103 112.126 378.362 112.078 378.634 112.059C378.911 112.038 379.195 112.058 379.486 112.119C379.787 112.18 380.078 112.292 380.359 112.455C380.794 112.706 381.018 112.966 381.031 113.235C381.05 113.502 380.856 113.752 380.45 113.987L378.918 114.871C378.78 114.951 378.775 115.028 378.905 115.103L379.216 115.283L378.752 115.551L378.274 115.275C378.122 115.187 378.041 115.092 378.032 114.991C378.027 114.887 378.096 114.794 378.239 114.711L378.274 114.691L378.191 114.643C378.052 114.664 377.891 114.678 377.706 114.683C377.53 114.688 377.339 114.666 377.131 114.615C376.918 114.567 376.694 114.475 376.459 114.339ZM376.992 114.103C377.316 114.29 377.671 114.386 378.059 114.391C378.456 114.396 378.828 114.299 379.175 114.099L379.251 114.055L378.129 113.407C377.911 113.282 377.683 113.206 377.443 113.179C377.212 113.152 377.002 113.194 376.812 113.303C376.623 113.412 376.547 113.539 376.584 113.683C376.625 113.83 376.761 113.97 376.992 114.103ZM379.946 116.24C379.752 116.128 379.655 116.011 379.655 115.888C379.66 115.768 379.754 115.655 379.939 115.548L382.253 114.212L381.235 113.624L381.713 113.348L382.731 113.936L383.937 113.24L384.484 113.556L383.279 114.252L384.387 114.892L383.909 115.168L382.8 114.528L380.57 115.816C380.431 115.896 380.429 115.975 380.563 116.052L381.318 116.488L380.847 116.76L379.946 116.24ZM382.228 117.67C381.993 117.534 381.819 117.386 381.709 117.226C381.598 117.066 381.565 116.908 381.612 116.754C381.658 116.599 381.794 116.456 382.02 116.326C382.251 116.192 382.496 116.115 382.755 116.094C383.018 116.07 383.284 116.092 383.551 116.162C383.824 116.228 384.08 116.331 384.32 116.47L385.464 117.13L385.713 116.986C385.953 116.847 386.071 116.696 386.066 116.534C386.066 116.374 385.928 116.214 385.651 116.054C385.378 115.896 385.099 115.812 384.812 115.802C384.531 115.788 384.251 115.83 383.974 115.926L383.628 115.534C383.872 115.456 384.131 115.408 384.404 115.39C384.681 115.368 384.965 115.388 385.256 115.45C385.556 115.511 385.847 115.623 386.129 115.786C386.563 116.036 386.787 116.296 386.801 116.566C386.819 116.832 386.625 117.083 386.219 117.318L384.688 118.202C384.549 118.282 384.544 118.359 384.674 118.434L384.986 118.614L384.521 118.882L384.043 118.606C383.891 118.518 383.81 118.423 383.801 118.322C383.796 118.218 383.866 118.124 384.009 118.042L384.043 118.022L383.96 117.974C383.822 117.995 383.66 118.008 383.475 118.014C383.3 118.019 383.108 117.996 382.9 117.946C382.688 117.898 382.464 117.806 382.228 117.67ZM382.762 117.434C383.085 117.62 383.441 117.716 383.829 117.722C384.226 117.727 384.598 117.63 384.944 117.43L385.02 117.386L383.898 116.738C383.681 116.612 383.452 116.536 383.212 116.51C382.981 116.483 382.771 116.524 382.582 116.634C382.392 116.743 382.316 116.87 382.353 117.014C382.394 117.16 382.531 117.3 382.762 117.434Z" fill="#131313"/>
<path d="M392.398 131.977V144.381" stroke="#131313" stroke-width="0.622836"/>
<path fill-rule="evenodd" clip-rule="evenodd" d="M317.309 90.1434C319.014 93.0817 318.014 96.8456 315.075 98.5503L283.996 116.487C281.058 118.192 277.294 117.191 275.589 114.253C273.885 111.315 274.885 107.551 277.823 105.846L308.902 87.9096C311.841 86.205 315.604 87.2051 317.309 90.1434Z" fill="white" stroke="#131313" stroke-width="0.76342" stroke-linecap="round"/>
<path d="M111.336 139.699V159.566L223.653 224.977L336.062 159.566V139.699L218.093 121.93L111.336 139.699Z" fill="#131313"/>
<path d="M111.336 139.695V159.562L223.653 224.973L336.062 159.562V139.695" stroke="white" stroke-width="0.76342" stroke-linejoin="round"/>
<rect x="-2.27517e-08" y="0.38171" width="130.058" height="130.058" transform="matrix(0.866025 0.5 -0.866025 0.5 223.956 74.5034)" fill="#131313" stroke="white" stroke-width="0.76342"/>
<path d="M223.695 224.997V204.5" stroke="white" stroke-width="0.76342" stroke-linecap="round" stroke-linejoin="round"/>
<circle cx="3.36512" cy="3.36512" r="2.98342" transform="matrix(-0.866025 0.5 2.20305e-08 1 290.156 172.844)" stroke="white" stroke-width="0.76342"/>
<circle cx="3.36512" cy="3.36512" r="2.98342" transform="matrix(-0.866025 0.5 2.20305e-08 1 279.594 178.938)" stroke="white" stroke-width="0.76342"/>
<path fill-rule="evenodd" clip-rule="evenodd" d="M171.127 180.925C172.832 183.863 171.832 187.627 168.894 189.332L138.77 206.808C135.831 208.513 132.067 207.512 130.363 204.574C128.658 201.636 129.658 197.872 132.597 196.167L162.72 178.691C165.659 176.986 169.423 177.986 171.127 180.925Z" fill="#131313" stroke="white" stroke-width="0.76342" stroke-linecap="round"/>
<path d="M42.6797 174.703V186.356L86.5905 212.034L114.941 194.983V183.66L42.6797 174.703Z" fill="#131313"/>
<rect x="-1.87783e-08" y="0.315047" width="50.443" height="32.5884" transform="matrix(0.866025 0.5 -0.866025 0.5 71.3588 158.259)" fill="#131313" stroke="white" stroke-width="0.630094"/>
<path d="M66.9395 174.825L73.6818 170.933L75.2229 171.822L70.7826 176.455L70.9079 176.527L78.9312 173.963L80.4723 174.853L73.73 178.746L72.9498 178.295L79.1624 174.709L79.0275 174.631L71.0331 177.189L69.6364 176.382L74.0671 171.767L73.9323 171.689L67.7197 175.276L66.9395 174.825ZM74.6871 179.299L81.4295 175.406L82.2385 175.873L75.4962 179.766L74.6871 179.299ZM76.1635 180.151L77.2327 179.534L85.8243 178.911L85.9399 178.844L82.299 176.742L83.0214 176.325L87.4617 178.889L86.3926 179.506L77.8009 180.129L77.6854 180.195L81.5188 182.409L80.7965 182.826L76.1635 180.151ZM83.7273 184.674C83.2265 184.384 82.8797 184.08 82.6871 183.762C82.4944 183.443 82.472 183.122 82.6197 182.8C82.7738 182.473 83.1109 182.16 83.631 181.86L88.1195 179.268L88.9189 179.73L84.4208 182.327C83.8686 182.646 83.6021 182.97 83.6214 183.3C83.6406 183.63 83.9167 183.949 84.4497 184.256C84.9827 184.564 85.5349 184.724 86.1064 184.735C86.6779 184.746 87.2397 184.592 87.792 184.273L92.2901 181.676L93.0991 182.143L88.6107 184.735C88.0906 185.035 87.548 185.23 86.9829 185.319C86.4242 185.404 85.8656 185.389 85.3069 185.274C84.7547 185.163 84.2282 184.963 83.7273 184.674Z" fill="white"/>
<path d="M42.6797 174.703L42.6797 186.356L86.5905 212.034L114.941 194.983V183.66" stroke="white" stroke-width="0.630094" stroke-linejoin="round"/>
<path d="M86.4922 199.75V211.748" stroke="white" stroke-width="0.630094"/>
<path d="M93.2188 204.086V215.739L137.13 241.417L165.48 224.366V213.043L93.2188 204.086Z" fill="#131313"/>
<rect x="-1.87783e-08" y="0.315047" width="50.443" height="32.5884" transform="matrix(0.866025 0.5 -0.866025 0.5 121.898 187.642)" fill="#131313" stroke="white" stroke-width="0.630094"/>
<path d="M111.615 200.98C111.127 200.698 110.777 200.396 110.565 200.073C110.353 199.751 110.308 199.425 110.43 199.095C110.565 198.765 110.895 198.448 111.422 198.144L111.624 198.027L112.424 198.489L112.221 198.605C111.663 198.928 111.409 199.263 111.461 199.612C111.518 199.957 111.804 200.277 112.318 200.574C112.844 200.878 113.364 201.041 113.878 201.063C114.392 201.086 114.828 200.993 115.188 200.785C115.438 200.641 115.573 200.489 115.593 200.329C115.618 200.174 115.564 200.005 115.429 199.823C115.3 199.638 115.121 199.438 114.889 199.223L114.514 198.861C114.225 198.576 114.003 198.303 113.849 198.044C113.695 197.784 113.65 197.536 113.714 197.299C113.791 197.061 114.019 196.833 114.398 196.615C114.777 196.396 115.198 196.26 115.66 196.209C116.129 196.16 116.607 196.192 117.095 196.303C117.59 196.418 118.062 196.605 118.511 196.865C118.967 197.128 119.294 197.41 119.494 197.71C119.705 198.01 119.76 198.309 119.657 198.605C119.567 198.902 119.291 199.184 118.829 199.451L118.424 199.684L117.625 199.223L118.029 198.989C118.357 198.8 118.55 198.607 118.607 198.411C118.672 198.218 118.63 198.023 118.482 197.827C118.341 197.634 118.116 197.449 117.808 197.271C117.365 197.015 116.909 196.867 116.44 196.826C115.978 196.781 115.567 196.863 115.207 197.071C114.97 197.208 114.835 197.352 114.803 197.504C114.771 197.656 114.812 197.821 114.928 197.999C115.05 198.173 115.223 198.366 115.448 198.578L115.824 198.939C116.132 199.213 116.366 199.482 116.527 199.745C116.7 200.009 116.755 200.266 116.691 200.518C116.633 200.767 116.405 201.006 116.007 201.236C115.609 201.466 115.162 201.608 114.668 201.664C114.173 201.72 113.66 201.69 113.127 201.575C112.607 201.46 112.103 201.262 111.615 200.98ZM116.878 204.019C116.403 203.744 116.085 203.446 115.924 203.123C115.77 202.797 115.776 202.471 115.943 202.144C116.11 201.818 116.435 201.516 116.916 201.238L117.032 201.171C117.52 200.89 118.046 200.7 118.611 200.604C119.176 200.508 119.735 200.504 120.287 200.593C120.846 200.678 121.353 200.852 121.809 201.116C122.252 201.372 122.548 201.653 122.695 201.961C122.849 202.265 122.846 202.575 122.686 202.89C122.525 203.205 122.207 203.5 121.732 203.774L121.385 203.974L117.542 201.755C117.054 202.059 116.82 202.384 116.839 202.728C116.865 203.069 117.109 203.373 117.571 203.64C117.976 203.874 118.38 204 118.785 204.019C119.189 204.037 119.578 204.006 119.95 203.924L120.287 204.486C119.992 204.545 119.658 204.582 119.286 204.597C118.92 204.615 118.531 204.584 118.12 204.502C117.716 204.424 117.301 204.263 116.878 204.019ZM118.178 201.399L121.241 203.168C121.652 202.901 121.841 202.617 121.809 202.317C121.784 202.02 121.559 201.75 121.135 201.505C120.705 201.257 120.23 201.123 119.709 201.105C119.189 201.086 118.679 201.184 118.178 201.399ZM119.969 205.648L124.679 202.928L125.421 203.356L124.621 203.818L124.756 203.896C125.083 203.825 125.459 203.809 125.883 203.846C126.32 203.883 126.779 204.04 127.26 204.318C127.613 204.522 127.854 204.747 127.983 204.991C128.117 205.24 128.124 205.496 128.002 205.759C127.88 206.022 127.607 206.276 127.183 206.521L124.332 208.167L123.571 207.727L126.364 206.115C126.833 205.844 127.055 205.579 127.029 205.319C127.01 205.064 126.801 204.821 126.403 204.591C125.947 204.328 125.427 204.198 124.843 204.202C124.265 204.209 123.684 204.381 123.099 204.719L120.73 206.087L119.969 205.648ZM126.892 209.644C126.622 209.489 126.487 209.326 126.487 209.155C126.494 208.988 126.625 208.831 126.882 208.682L130.099 206.825L128.683 206.008L129.348 205.624L130.764 206.441L132.44 205.474L133.201 205.913L131.525 206.881L133.066 207.77L132.401 208.154L130.86 207.264L127.759 209.055C127.566 209.166 127.563 209.276 127.749 209.383L128.799 209.989L128.144 210.367L126.892 209.644ZM129.002 210.863L133.712 208.144L134.473 208.583L129.763 211.302L129.002 210.863ZM134.829 207.943C134.662 207.847 134.576 207.734 134.569 207.604C134.569 207.478 134.653 207.367 134.82 207.271C134.993 207.17 135.189 207.12 135.407 207.12C135.632 207.124 135.828 207.174 135.995 207.271C136.162 207.367 136.245 207.478 136.245 207.604C136.245 207.73 136.159 207.843 135.985 207.943C135.818 208.04 135.626 208.088 135.407 208.088C135.189 208.088 134.996 208.04 134.829 207.943ZM132.8 213.211C132.324 212.937 132.007 212.638 131.846 212.316C131.692 211.989 131.698 211.663 131.865 211.337C132.032 211.011 132.357 210.709 132.838 210.431L132.954 210.364C133.442 210.082 133.968 209.893 134.533 209.797C135.098 209.7 135.657 209.697 136.209 209.785C136.768 209.871 137.275 210.045 137.731 210.308C138.174 210.564 138.47 210.846 138.617 211.153C138.771 211.457 138.768 211.767 138.608 212.082C138.447 212.397 138.129 212.692 137.654 212.966L137.307 213.167L133.464 210.948C132.976 211.252 132.742 211.576 132.761 211.921C132.787 212.262 133.031 212.566 133.493 212.833C133.898 213.066 134.302 213.193 134.707 213.211C135.111 213.23 135.5 213.198 135.872 213.117L136.209 213.678C135.914 213.737 135.58 213.775 135.208 213.789C134.842 213.808 134.453 213.776 134.042 213.695C133.638 213.617 133.223 213.456 132.8 213.211ZM134.1 210.592L137.163 212.36C137.574 212.093 137.763 211.81 137.731 211.509C137.705 211.213 137.481 210.942 137.057 210.697C136.627 210.449 136.151 210.316 135.631 210.297C135.111 210.279 134.601 210.377 134.1 210.592ZM135.891 214.84L140.601 212.121L141.342 212.549L140.543 213.01L140.678 213.088C141.005 213.018 141.381 213.001 141.805 213.038C142.241 213.075 142.701 213.233 143.182 213.511C143.535 213.715 143.776 213.939 143.905 214.184C144.039 214.432 144.046 214.688 143.924 214.951C143.802 215.214 143.529 215.468 143.105 215.713L140.254 217.359L139.493 216.92L142.286 215.307C142.755 215.037 142.977 214.771 142.951 214.512C142.932 214.256 142.723 214.013 142.325 213.783C141.869 213.52 141.349 213.39 140.765 213.394C140.187 213.402 139.605 213.574 139.021 213.911L136.652 215.279L135.891 214.84ZM142.814 218.837C142.544 218.681 142.409 218.518 142.409 218.348C142.416 218.181 142.547 218.023 142.804 217.875L146.021 216.018L144.605 215.2L145.27 214.816L146.686 215.634L148.362 214.666L149.123 215.106L147.447 216.073L148.988 216.963L148.323 217.347L146.782 216.457L143.681 218.248C143.488 218.359 143.485 218.468 143.671 218.576L144.721 219.182L144.066 219.56L142.814 218.837Z" fill="white"/>
<path d="M93.2188 204.086L93.2187 215.739L137.13 241.417L165.48 224.366V213.043" stroke="white" stroke-width="0.630094" stroke-linejoin="round"/>
<path d="M137.031 229.133V241.131" stroke="white" stroke-width="0.630094"/>
<path d="M144.094 235.18V246.832L188.005 272.51L216.355 255.46V244.136L144.094 235.18Z" fill="#131313"/>
<rect x="-1.87783e-08" y="0.315047" width="50.443" height="32.5884" transform="matrix(0.866025 0.5 -0.866025 0.5 172.773 218.736)" fill="#131313" stroke="white" stroke-width="0.630094"/>
<path d="M167.266 234.675L174.008 230.782L175.578 231.688L171.696 236.643L171.822 236.715L178.053 233.117L178.853 233.579L172.111 237.472L170.541 236.565L174.441 231.61L174.307 231.533L168.065 235.136L167.266 234.675ZM173.076 238.029L179.818 234.136L183.969 236.533L183.237 236.956L179.895 235.026L177.641 236.327L180.714 238.101L179.982 238.524L176.909 236.75L174.617 238.073L178.007 240.031L177.275 240.454L173.076 238.029ZM177.387 240.518L186.21 237.827L187.635 238.65L182.974 243.743L182.136 243.26L183.32 241.975L180.45 240.318L178.225 241.002L177.387 240.518ZM181.384 240.012L183.84 241.43L186.499 238.561L186.364 238.483L181.384 240.012ZM183.398 243.988L190.14 240.096L192.866 241.669C193.283 241.91 193.575 242.164 193.742 242.431C193.922 242.698 193.967 242.961 193.877 243.221C193.794 243.477 193.566 243.712 193.193 243.927L193.087 243.988C192.644 244.244 192.188 244.385 191.719 244.411C191.251 244.437 190.827 244.392 190.448 244.277L190.313 244.355C190.538 244.492 190.65 244.646 190.65 244.817C190.663 244.987 190.525 245.156 190.236 245.323L187.973 246.63L187.173 246.168L189.34 244.917C189.533 244.806 189.626 244.689 189.62 244.567C189.62 244.448 189.514 244.327 189.302 244.205L186.971 242.859L184.207 244.455L183.398 243.988ZM187.703 242.437L189.543 243.499C189.986 243.755 190.432 243.89 190.882 243.905C191.344 243.92 191.768 243.816 192.153 243.593L192.22 243.555C192.606 243.332 192.785 243.091 192.76 242.832C192.74 242.568 192.506 242.307 192.057 242.047L190.217 240.985L187.703 242.437Z" fill="white"/>
<path d="M144.094 235.18L144.094 246.832L188.005 272.51L216.355 255.46V244.136" stroke="white" stroke-width="0.630094" stroke-linejoin="round"/>
<path d="M187.906 260.227V272.225" stroke="white" stroke-width="0.630094"/>
<path d="M166.694 86.9686C166.694 80.6403 170.14 74.8151 175.684 71.7709L217.135 49.0115C222.325 46.1613 228.611 46.1614 233.802 49.0115L275.252 71.7709C280.796 74.8151 284.243 80.6403 284.243 86.9686V136.862C284.243 143.19 280.796 149.015 275.252 152.06L233.802 174.819C228.611 177.669 222.325 177.669 217.135 174.819L175.684 152.06C170.14 149.015 166.694 143.19 166.694 136.862V86.9686Z" fill="#131313" stroke="white" stroke-width="0.76342"/>
<mask id="path-39-inside-1_10813_1918" fill="white">
<path fill-rule="evenodd" clip-rule="evenodd" d="M198.444 59.0069L196.713 59.9548C202.938 57.5765 211.749 56.5587 216.489 59.8148C219.212 61.6854 221.368 61.3373 224.058 60.9027C226.314 60.5385 228.945 60.1136 232.6 60.8834C239.363 62.3076 240.789 65.5122 242.268 68.8381C242.976 70.4288 243.696 72.0473 245.018 73.512C247.251 75.986 250.554 77.1518 253.839 78.311C257.565 79.6259 261.266 80.9322 263.354 84.1294C266.867 89.5086 261.737 92.5245 257.896 94.7821C257.232 95.1728 256.606 95.5408 256.07 95.8944L257.206 95.4164L237.454 105.85C231.774 108.851 228.163 114.694 228.019 121.12L227.255 155.184C227.137 160.436 221.459 163.661 216.893 161.069C213.415 159.096 211.266 155.405 211.266 151.404V116.964C211.266 115.611 210.529 114.367 209.344 113.717C206.879 112.364 203.865 114.149 203.865 116.964V134.563C203.865 139.076 199.144 142.03 195.09 140.056C191.728 138.42 189.595 135.008 189.595 131.267V105.196C189.595 103.823 188.85 102.559 187.65 101.895C185.138 100.504 182.055 102.322 182.055 105.196V124.016C182.055 127.122 180.323 129.649 177.918 130.948C176.51 131.709 175.29 132.847 174.817 134.377C174.286 136.092 173.349 137.369 170.72 137.11C167.188 136.761 166.32 133.792 166.32 132.281V86.7145C166.32 80.1571 169.94 74.136 175.729 71.0631L198.444 59.0069Z"/>
</mask>
<path fill-rule="evenodd" clip-rule="evenodd" d="M198.444 59.0069L196.713 59.9548C202.938 57.5765 211.749 56.5587 216.489 59.8148C219.212 61.6854 221.368 61.3373 224.058 60.9027C226.314 60.5385 228.945 60.1136 232.6 60.8834C239.363 62.3076 240.789 65.5122 242.268 68.8381C242.976 70.4288 243.696 72.0473 245.018 73.512C247.251 75.986 250.554 77.1518 253.839 78.311C257.565 79.6259 261.266 80.9322 263.354 84.1294C266.867 89.5086 261.737 92.5245 257.896 94.7821C257.232 95.1728 256.606 95.5408 256.07 95.8944L257.206 95.4164L237.454 105.85C231.774 108.851 228.163 114.694 228.019 121.12L227.255 155.184C227.137 160.436 221.459 163.661 216.893 161.069C213.415 159.096 211.266 155.405 211.266 151.404V116.964C211.266 115.611 210.529 114.367 209.344 113.717C206.879 112.364 203.865 114.149 203.865 116.964V134.563C203.865 139.076 199.144 142.03 195.09 140.056C191.728 138.42 189.595 135.008 189.595 131.267V105.196C189.595 103.823 188.85 102.559 187.65 101.895C185.138 100.504 182.055 102.322 182.055 105.196V124.016C182.055 127.122 180.323 129.649 177.918 130.948C176.51 131.709 175.29 132.847 174.817 134.377C174.286 136.092 173.349 137.369 170.72 137.11C167.188 136.761 166.32 133.792 166.32 132.281V86.7145C166.32 80.1571 169.94 74.136 175.729 71.0631L198.444 59.0069Z" fill="white"/>
<path d="M198.444 59.0069L200.421 62.617L196.514 55.3712L198.444 59.0069ZM196.713 59.9548L194.736 56.3447L198.182 63.7998L196.713 59.9548ZM216.489 59.8148L214.158 63.2075L214.158 63.2075L216.489 59.8148ZM224.058 60.9027L224.715 64.9661L224.058 60.9027ZM232.6 60.8834L231.752 64.9111L231.752 64.9111L232.6 60.8834ZM242.268 68.8381L246.029 67.1653V67.1653L242.268 68.8381ZM245.018 73.512L248.073 70.7541L248.073 70.754L245.018 73.512ZM253.839 78.311L255.209 74.4296H255.209L253.839 78.311ZM263.354 84.1294L259.908 86.3799L259.908 86.3799L263.354 84.1294ZM257.896 94.7821L259.982 98.3305L259.982 98.3305L257.896 94.7821ZM256.07 95.8944L253.803 92.4589L257.665 99.6886L256.07 95.8944ZM257.206 95.4164L259.129 99.056L255.61 91.6223L257.206 95.4164ZM237.454 105.85L235.532 102.21H235.532L237.454 105.85ZM228.019 121.12L223.904 121.028V121.028L228.019 121.12ZM227.255 155.184L231.37 155.277V155.277L227.255 155.184ZM216.893 161.069L218.924 157.49L218.924 157.49L216.893 161.069ZM209.344 113.717L207.365 117.325L207.365 117.326L209.344 113.717ZM195.09 140.056L193.288 143.757L193.288 143.757L195.09 140.056ZM187.65 101.895L189.644 98.2941L189.644 98.2941L187.65 101.895ZM177.918 130.948L179.875 134.57L179.875 134.569L177.918 130.948ZM174.817 134.377L178.749 135.594L178.749 135.594L174.817 134.377ZM170.72 137.11L171.124 133.014L171.124 133.014L170.72 137.11ZM175.729 71.0631L173.8 67.4274L173.8 67.4275L175.729 71.0631ZM196.467 55.3967L194.736 56.3447L198.69 63.565L200.421 62.617L196.467 55.3967ZM198.182 63.7998C200.918 62.7545 204.238 62.0096 207.324 61.8846C210.519 61.7552 212.852 62.3103 214.158 63.2075L218.819 56.4221C215.385 54.0632 210.943 53.4992 206.991 53.6592C202.931 53.8237 198.733 54.7769 195.244 56.1098L198.182 63.7998ZM214.158 63.2075C216.101 64.542 218.013 65.1783 219.973 65.3274C221.762 65.4635 223.468 65.1674 224.715 64.9661L223.402 56.8393C221.958 57.0725 221.24 57.1679 220.598 57.119C220.126 57.0831 219.6 56.9582 218.819 56.4221L214.158 63.2075ZM224.715 64.9661C226.88 64.6165 228.879 64.3061 231.752 64.9111L233.448 56.8556C229.01 55.9212 225.748 56.4605 223.402 56.8393L224.715 64.9661ZM231.752 64.9111C234.557 65.5018 235.809 66.3583 236.497 67.0495C237.273 67.8301 237.733 68.7692 238.508 70.511L246.029 67.1653C245.324 65.5811 244.332 63.255 242.335 61.2457C240.248 59.1471 237.406 57.6891 233.448 56.8556L231.752 64.9111ZM238.508 70.511C239.191 72.0468 240.141 74.2522 241.962 76.2699L248.073 70.754C247.25 69.8423 246.761 68.8109 246.029 67.1653L238.508 70.511ZM241.962 76.2698C245.022 79.6596 249.413 81.114 252.469 82.1925L255.209 74.4296C251.696 73.1897 249.48 72.3124 248.073 70.7541L241.962 76.2698ZM252.469 82.1925C256.51 83.6187 258.717 84.5571 259.908 86.3799L266.8 81.8789C263.815 77.3073 258.619 75.633 255.209 74.4296L252.469 82.1925ZM259.908 86.3799C260.435 87.1879 260.412 87.5473 260.411 87.566C260.41 87.5846 260.411 87.7409 260.129 88.1057C259.818 88.5066 259.291 88.9915 258.484 89.5627C257.684 90.1294 256.795 90.655 255.81 91.2338L259.982 98.3305C261.708 97.3158 264.731 95.6066 266.637 93.147C267.677 91.8033 268.542 90.0558 268.635 87.9255C268.728 85.7953 268.029 83.7605 266.8 81.8788L259.908 86.3799ZM255.81 91.2337C255.171 91.6097 254.445 92.0348 253.803 92.4589L258.337 99.33C258.766 99.0468 259.292 98.7359 259.982 98.3305L255.81 91.2337ZM257.665 99.6886L258.802 99.2106L255.61 91.6223L254.474 92.1003L257.665 99.6886ZM255.284 91.7769L235.532 102.21L239.377 109.489L259.129 99.056L255.284 91.7769ZM235.532 102.21C228.53 105.909 224.082 113.11 223.904 121.028L232.134 121.212C232.245 116.278 235.017 111.792 239.377 109.489L235.532 102.21ZM223.904 121.028L223.14 155.092L231.37 155.277L232.134 121.212L223.904 121.028ZM223.14 155.092C223.092 157.235 220.778 158.542 218.924 157.49L214.861 164.649C222.14 168.78 231.182 163.638 231.37 155.277L223.14 155.092ZM218.924 157.49C216.736 156.248 215.382 153.924 215.382 151.404H207.15C207.15 156.885 210.094 161.944 214.861 164.649L218.924 157.49ZM215.382 151.404V116.964H207.15V151.404H215.382ZM215.382 116.964C215.382 114.109 213.827 111.481 211.324 110.108L207.365 117.326C207.231 117.252 207.15 117.113 207.15 116.964H215.382ZM211.324 110.108C206.111 107.248 199.749 111.025 199.749 116.964H207.981C207.981 117.011 207.964 117.095 207.916 117.177C207.874 117.248 207.823 117.292 207.778 117.319C207.734 117.345 207.67 117.369 207.586 117.371C207.49 117.375 207.408 117.349 207.365 117.325L211.324 110.108ZM199.749 116.964V134.563H207.981V116.964H199.749ZM199.749 134.563C199.749 136.039 198.208 136.997 196.891 136.356L193.288 143.757C200.081 147.064 207.981 142.112 207.981 134.563H199.749ZM196.891 136.356C194.947 135.409 193.711 133.434 193.711 131.267H185.479C185.479 136.581 188.51 141.431 193.288 143.757L196.891 136.356ZM193.711 131.267V105.196H185.479V131.267H193.711ZM193.711 105.196C193.711 102.327 192.154 99.684 189.644 98.2941L185.657 105.496C185.546 105.435 185.479 105.32 185.479 105.196H193.711ZM189.644 98.2941C184.384 95.3817 177.939 99.1903 177.939 105.196H186.171C186.171 105.23 186.158 105.302 186.115 105.373C186.079 105.435 186.036 105.471 186.002 105.491C185.967 105.512 185.915 105.532 185.842 105.534C185.758 105.536 185.688 105.513 185.657 105.496L189.644 98.2941ZM177.939 105.196V124.016H186.171V105.196H177.939ZM177.939 124.016C177.939 125.499 177.137 126.692 175.961 127.327L179.875 134.569C183.51 132.605 186.171 128.745 186.171 124.016H177.939ZM175.962 127.327C174.003 128.385 171.789 130.238 170.884 133.16L178.749 135.594C178.791 135.456 179.018 135.033 179.875 134.57L175.962 127.327ZM170.884 133.16C170.847 133.282 170.814 133.37 170.789 133.433C170.776 133.464 170.766 133.487 170.758 133.502C170.755 133.51 170.752 133.515 170.75 133.519C170.748 133.523 170.747 133.524 170.747 133.524C170.748 133.522 170.819 133.401 170.99 133.264C171.074 133.198 171.163 133.142 171.252 133.099C171.34 133.057 171.41 133.037 171.448 133.027C171.519 133.011 171.437 133.044 171.124 133.014L170.316 141.206C172.349 141.406 174.415 141.061 176.12 139.703C177.71 138.436 178.394 136.74 178.749 135.594L170.884 133.16ZM171.124 133.014C170.809 132.982 170.692 132.911 170.679 132.903C170.661 132.891 170.64 132.876 170.607 132.828C170.566 132.768 170.517 132.668 170.48 132.532C170.462 132.468 170.45 132.407 170.443 132.356C170.436 132.304 170.436 132.277 170.436 132.281H162.204C162.204 133.686 162.579 135.65 163.785 137.435C165.101 139.384 167.282 140.907 170.316 141.206L171.124 133.014ZM170.436 132.281V86.7145H162.204V132.281H170.436ZM170.436 86.7145C170.436 81.6792 173.216 77.0572 177.659 74.6988L173.8 67.4275C166.664 71.2148 162.204 78.6349 162.204 86.7145H170.436ZM177.659 74.6988L200.374 62.6425L196.514 55.3712L173.8 67.4274L177.659 74.6988Z" fill="white" mask="url(#path-39-inside-1_10813_1918)"/>
</svg>
