<svg fill="none" height="315" viewBox="0 0 494 315" width="494" xmlns="http://www.w3.org/2000/svg" xmlns:xlink="http://www.w3.org/1999/xlink"><mask id="a" fill="#fff"><path clip-rule="evenodd" d="m198.448 59.0049-1.731.948c6.225-2.3783 15.036-3.3961 19.776-.1401 2.723 1.8707 4.879 1.5225 7.57 1.088 2.255-.3642 4.886-.7891 8.541-.0194 6.764 1.4242 8.189 4.6288 9.668 7.9548.708 1.5907 1.428 3.2091 2.75 4.6738 2.233 2.4741 5.536 3.6399 8.821 4.7991 3.726 1.3148 7.427 2.6211 9.515 5.8183 3.513 5.3793-1.617 8.3951-5.458 10.6528-.664.3907-1.29.7587-1.826 1.1123l1.136-.478-19.751 10.4335c-5.681 3.001-9.292 8.844-9.436 15.27l-.764 34.064c-.118 5.252-5.796 8.477-10.362 5.885-3.478-1.973-5.627-5.664-5.627-9.665v-34.44c0-1.353-.737-2.597-1.921-3.247-2.466-1.353-5.48.433-5.48 3.247v17.599c0 4.513-4.72 7.467-8.775 5.494-3.362-1.637-5.495-5.049-5.495-8.789v-26.072c0-1.373-.745-2.637-1.944-3.301-2.513-1.391-5.596.427-5.596 3.301v18.82c0 3.107-1.732 5.633-4.136 6.932-1.408.761-2.629 1.899-3.102 3.429-.531 1.715-1.468 2.992-4.097 2.733-3.532-.348-4.4-3.318-4.4-4.829v-45.5664c0-6.5575 3.62-12.5785 9.409-15.6514z" fill="#fff" fill-rule="evenodd"/></mask><path d="m20.2 11.2h469.6v299.6h-469.6z" fill="#131313" stroke="#fff" stroke-width=".4"/><path d="m.2.2h469.6v290.6h-469.6z" fill="#131313" stroke="#fff" stroke-width=".4"/><path d="m249.337 45.1875v11.5184l43.405 25.3823 28.023-16.8543v-11.1929z" fill="#fff"/><path d="m0 .311418h49.862v32.2131h-49.862z" fill="#fff" stroke="#131313" stroke-width=".622836" transform="matrix(.866025 .5 -.866025 .5 277.682 28.9331)"/><path d="m270.978 43.8833 5.195-2.9998.819.4724-.649.3742.149.0859c.284-.0491.616-.0532.999-.0123.382.0409.779.1799 1.19.4171.404.2332.641.4724.712.7178.078.2495.046.4805-.096.6932l.149.0859c.375-.0777.772-.0982 1.19-.0614.425.0409.857.1882 1.296.4417.348.2004.581.4172.702.6503.12.2331.12.4703 0 .7116-.107.2413-.344.4683-.712.681l-3.517 2.0305-.84-.4846 3.443-1.9876c.347-.2004.517-.4172.51-.6503.007-.2331-.17-.454-.531-.6625-.383-.2209-.822-.3313-1.318-.3313-.489.0041-.967.1411-1.434.411l-3.124 1.8036-.84-.4846 3.443-1.9877c.347-.2004.517-.4171.51-.6502.007-.2331-.17-.454-.531-.6626-.383-.2208-.822-.3312-1.318-.3312-.488.004-.967.1411-1.434.411l-3.124 1.8036zm10.007 5.9495c-.361-.2086-.627-.4355-.797-.6809s-.22-.4867-.149-.7239.28-.456.627-.6564c.354-.2045.73-.3231 1.126-.3558.404-.0368.811-.0021 1.222.1043.418.1022.811.2597 1.18.4723l1.753 1.0122.382-.2208c.369-.2127.549-.4437.542-.6932 0-.2454-.212-.4908-.637-.7362-.418-.2413-.847-.3701-1.286-.3865-.432-.0204-.861.043-1.286.1902l-.531-.6012c.376-.1186.772-.1922 1.19-.2208.425-.0327.861-.0021 1.307.092.461.0941.907.2658 1.339.5153.666.3844 1.009.7832 1.031 1.1963.028.4089-.27.7934-.893 1.1533l-2.348 1.3557c-.213.1227-.22.2413-.021.3558l.478.2761-.712.411-.733-.4233c-.234-.1349-.358-.2801-.372-.4355-.007-.1595.099-.3027.319-.4295l.053-.0306-.128-.0737c-.212.0328-.46.0532-.744.0614-.269.0082-.563-.0266-.881-.1043-.326-.0736-.67-.2147-1.031-.4233zm.818-.3619c.496.2863 1.041.4335 1.636.4417.61.0081 1.18-.1411 1.711-.4479l.117-.0674-1.721-.9939c-.333-.1922-.684-.3087-1.052-.3496-.355-.0409-.677.0225-.967.1901-.291.1677-.408.362-.351.5828.064.225.273.4397.627.6442zm4.839 3.4564c-.297-.1717-.446-.3517-.446-.5398.007-.184.152-.3579.436-.5214l3.549-2.049-1.562-.9018.733-.4233 1.562.9018 1.849-1.0674.839.4846-1.849 1.0674 1.7.9816-.733.4233-1.7-.9816-3.421 1.9754c-.213.1227-.217.2433-.011.3619l1.158.6687-.722.4171zm2.396 1.383 7.437-4.2943.84.4846-3.071 1.773.149.0858c.226-.049.478-.0715.754-.0674.291.0041.595.045.914.1227.326.0818.666.2249 1.02.4294.39.2249.652.4744.786.7484.149.274.156.5562.022.8466-.128.2863-.425.5644-.893.8343l-3.145 1.8159-.84-.4847 3.082-1.779c.517-.2986.761-.591.733-.8773-.021-.2822-.251-.5501-.691-.8036-.503-.2904-1.076-.4335-1.721-.4294-.638.0081-1.279.1983-1.923.5705l-2.614 1.5091z" fill="#131313"/><path d="m292.643 69.9473v12.4044" stroke="#131313" stroke-width=".622836"/><path d="m299.001 76.2734v11.5184l43.405 25.3822 28.023-16.8542v-11.1928z" fill="#fff"/><path d="m0 .311418h49.862v32.2131h-49.862z" fill="#fff" stroke="#131313" stroke-width=".622836" transform="matrix(.866025 .5 -.866025 .5 327.346 60.019)"/><path d="m320.642 74.9693 5.195-2.9999.819.4724-.649.3742.149.0859c.284-.0491.617-.0532.999-.0123.383.0409.779.18 1.19.4172.404.2331.641.4723.712.7177.078.2495.046.4806-.096.6932l.149.0859c.376-.0777.772-.0981 1.19-.0613.425.0409.857.1881 1.296.4417.348.2004.581.4171.702.6503.12.2331.12.4703 0 .7116-.106.2413-.344.4682-.712.6809l-3.517 2.0306-.84-.4847 3.443-1.9876c.347-.2004.517-.4171.51-.6503.007-.2331-.17-.4539-.531-.6625-.383-.2208-.822-.3313-1.318-.3313-.489.0041-.967.1411-1.434.4111l-3.124 1.8035-.84-.4846 3.443-1.9876c.347-.2004.517-.4172.51-.6503.007-.2331-.17-.454-.531-.6625-.383-.2209-.822-.3313-1.318-.3313-.488.0041-.967.1411-1.434.411l-3.124 1.8036zm10.007 5.9495c-.361-.2086-.627-.4356-.797-.681s-.22-.4867-.149-.7239.28-.456.627-.6564c.354-.2045.73-.3231 1.126-.3558.404-.0368.812-.002 1.222.1043.418.1022.811.2597 1.18.4724l1.753 1.0122.383-.2209c.368-.2126.549-.4437.541-.6932 0-.2454-.212-.4908-.637-.7361-.418-.2413-.847-.3702-1.286-.3865-.432-.0205-.86.0429-1.285.1901l-.532-.6011c.376-.1186.772-.1923 1.19-.2209.425-.0327.861-.002 1.307.092.461.0941.907.2659 1.339.5153.666.3845 1.009.7832 1.031 1.1963.028.409-.269.7934-.893 1.1533l-2.348 1.3558c-.213.1227-.22.2413-.021.3558l.478.276-.712.4111-.733-.4233c-.234-.135-.358-.2802-.372-.4356-.007-.1595.099-.3026.319-.4294l.053-.0307-.128-.0736c-.212.0327-.46.0532-.744.0613-.269.0082-.563-.0266-.881-.1043-.326-.0736-.67-.2147-1.031-.4232zm.818-.362c.496.2863 1.041.4335 1.636.4417.61.0082 1.18-.1411 1.711-.4478l.117-.0675-1.721-.9938c-.333-.1922-.684-.3088-1.052-.3497-.354-.0409-.677.0225-.967.1902-.291.1677-.408.3619-.351.5828.064.2249.273.4396.627.6441zm4.839 3.4565c-.297-.1718-.446-.3517-.446-.5399.007-.184.152-.3578.436-.5214l3.549-2.049-1.562-.9018.733-.4233 1.562.9018 1.849-1.0674.839.4846-1.849 1.0675 1.7.9815-.733.4233-1.7-.9815-3.421 1.9753c-.213.1227-.216.2434-.011.362l1.158.6686-.722.4172zm2.396 1.3829 7.437-4.2943.84.4847-3.071 1.7729.149.0859c.227-.0491.478-.0716.754-.0675.291.0041.595.045.914.1227.326.0818.666.2249 1.02.4294.39.225.652.4744.786.7484.149.2741.156.5563.022.8466-.128.2863-.425.5644-.893.8343l-3.145 1.8159-.839-.4846 3.081-1.7791c.517-.2985.761-.591.733-.8772-.021-.2822-.251-.5501-.691-.8037-.503-.2904-1.076-.4335-1.721-.4294-.637.0082-1.279.1983-1.923.5705l-2.614 1.5091z" fill="#131313"/><path d="m342.307 101.033v12.405" stroke="#131313" stroke-width=".622836"/><path d="m349.094 107.215v11.518l43.405 25.383 28.024-16.855v-11.193z" fill="#fff"/><path d="m0 .311418h49.862v32.2131h-49.862z" fill="#fff" stroke="#131313" stroke-width=".622836" transform="matrix(.866025 .5 -.866025 .5 377.44 90.9604)"/><path d="m370.735 105.911 5.196-3 .818.472-.648.374.149.086c.283-.049.616-.053.999-.012.382.041.779.18 1.19.417.404.233.641.473.712.718.078.249.046.48-.096.693l.149.086c.375-.078.772-.098 1.19-.061.425.041.857.188 1.296.441.347.201.581.418.702.651.12.233.12.47 0 .711-.107.242-.344.469-.712.681l-3.517 2.031-.84-.485 3.443-1.987c.347-.201.517-.418.51-.651.007-.233-.17-.454-.531-.662-.383-.221-.822-.332-1.318-.332-.489.005-.967.142-1.434.411l-3.124 1.804-.84-.485 3.443-1.987c.347-.201.517-.417.51-.65.007-.234-.17-.454-.531-.663-.383-.221-.822-.331-1.318-.331-.489.004-.967.141-1.434.411l-3.124 1.803zm10.008 5.949c-.362-.208-.627-.435-.797-.681-.17-.245-.22-.486-.149-.724.071-.237.28-.456.627-.656.354-.205.729-.323 1.126-.356.404-.037.811-.002 1.222.104.418.103.811.26 1.18.473l1.753 1.012.382-.221c.369-.213.549-.444.542-.693 0-.245-.212-.491-.637-.736-.418-.242-.847-.37-1.286-.387-.432-.02-.861.043-1.286.19l-.531-.601c.375-.118.772-.192 1.19-.221.425-.032.861-.002 1.307.092.46.094.907.266 1.339.516.666.384 1.009.783 1.03 1.196.029.409-.269.793-.892 1.153l-2.348 1.356c-.213.123-.22.241-.022.356l.479.276-.712.411-.733-.423c-.234-.135-.358-.28-.372-.436-.007-.159.099-.303.318-.429l.054-.031-.128-.074c-.212.033-.46.054-.744.062-.269.008-.563-.027-.882-.105-.326-.073-.669-.214-1.03-.423zm.818-.362c.496.286 1.041.434 1.636.442.609.008 1.18-.141 1.711-.448l.117-.067-1.722-.994c-.333-.192-.683-.309-1.052-.35-.354-.041-.676.023-.966.19-.291.168-.408.362-.351.583.064.225.273.44.627.644zm4.839 3.457c-.297-.172-.446-.352-.446-.54.007-.184.152-.358.435-.522l3.549-2.049-1.562-.901.734-.424 1.561.902 1.849-1.067.84.484-1.849 1.068 1.7.981-.733.424-1.7-.982-3.422 1.975c-.212.123-.216.244-.01.362l1.158.669-.723.417zm2.395 1.383 7.438-4.295.84.485-3.071 1.773.149.086c.226-.049.478-.072.754-.068.29.004.595.045.914.123.326.082.666.225 1.02.429.389.225.652.475.786.749.149.274.156.556.021.846-.127.287-.425.565-.892.835l-3.145 1.816-.84-.485 3.082-1.779c.517-.299.761-.591.733-.877-.021-.283-.252-.55-.691-.804-.503-.29-1.077-.433-1.721-.429-.638.008-1.279.198-1.923.57l-2.614 1.509z" fill="#131313"/><path d="m392.401 131.975v12.404" stroke="#131313" stroke-width=".622836"/><path d="m317.311 90.1395c1.705 2.9383.705 6.7022-2.234 8.4069l-31.079 17.9366c-2.938 1.705-6.702.705-8.407-2.234-1.704-2.938-.704-6.702 2.234-8.407l31.079-17.9363c2.939-1.7046 6.702-.7045 8.407 2.2338z" style="fill-rule:evenodd;clip-rule:evenodd;fill:#fff;stroke:#131313;stroke-width:.76342;stroke-linecap:round"/><path d="m111.336 139.697v19.867l112.317 65.411 112.409-65.411v-19.867l-117.969-17.769z" fill="#131313"/><g stroke="#fff"><path d="m111.336 139.697v19.867l112.317 65.411 112.409-65.411v-19.867" stroke-linejoin="round" stroke-width=".76342"/><path d="m0 .38171h130.058v130.058h-130.058z" fill="#131313" stroke-width=".76342" transform="matrix(.866025 .5 -.866025 .5 223.953 74.5034)"/><path d="m223.695 224.999v-20.497" stroke-linecap="round" stroke-linejoin="round" stroke-width=".76342"/><circle cx="3.36512" cy="3.36512" r="2.98342" stroke-width=".76342" transform="matrix(-.866025 .5 .00000002 1 290.162 172.836)"/><circle cx="3.36512" cy="3.36512" r="2.98342" stroke-width=".76342" transform="matrix(-.866025 .5 .00000002 1 279.596 178.936)"/><path clip-rule="evenodd" d="m171.133 180.921c1.705 2.938.705 6.702-2.234 8.407l-30.123 17.476c-2.939 1.705-6.703.705-8.407-2.234-1.705-2.938-.705-6.702 2.233-8.407l30.124-17.476c2.939-1.705 6.703-.705 8.407 2.234z" fill="#131313" fill-rule="evenodd" stroke-linecap="round" stroke-width=".76342"/></g><path d="m42.6831 174.701v11.653l43.9108 25.678 28.3501-17.051v-11.323z" fill="#131313"/><path d="m0 .315047h50.443v32.5884h-50.443z" fill="#131313" stroke="#fff" stroke-width=".630094" transform="matrix(.866025 .5 -.866025 .5 71.3607 158.257)"/><path d="m63.2056 172.666c-.2697-.156-.4045-.319-.4045-.49.0064-.167.138-.324.3949-.473l3.217-1.857-1.4158-.817.6646-.384 1.4158.817 1.676-.967.7609.439-1.6759.968 1.5411.889-.6646.384-1.5411-.89-3.1015 1.791c-.1926.111-.1959.221-.0096.328l1.0498.606-.6549.378zm2.1104 1.218 6.7423-3.893.7609.44-2.7836 1.607.1348.078c.2055-.045.4335-.065.6839-.062.2633.004.5394.041.8283.112.2954.074.6036.204.9247.389.3532.204.5908.43.7128.678.1348.249.1412.505.0192.768-.1156.259-.3852.511-.8091.756l-2.851 1.646-.7609-.439 2.7932-1.613c.4688-.271.6903-.536.6646-.795-.0192-.256-.2279-.499-.626-.729-.4559-.263-.9761-.393-1.5604-.389-.5779.008-1.159.18-1.7434.517l-2.3694 1.368zm7.3435 4.395c-.4752-.274-.793-.572-.9535-.895-.1541-.326-.1477-.652.0192-.979.167-.326.4913-.628.9728-.906l.1156-.067c.488-.282 1.0146-.471 1.5797-.567.565-.096 1.1237-.1 1.6759-.011.5586.085 1.0659.259 1.5218.523.4431.255.7385.537.8862.845.1541.304.1509.613-.0097.929-.1605.315-.4783.609-.9535.884l-.3468.2-3.8431-2.219c-.488.304-.7224.629-.7031.973.0257.341.2697.645.732.912.4046.234.8091.36 1.2136.378.4046.019.7931-.013 1.1655-.094l.3371.562c-.2954.059-.6293.096-1.0017.111-.366.018-.7545-.013-1.1655-.095-.4045-.078-.8187-.239-1.2425-.484zm1.3003-2.619 3.063 1.769c.4109-.267.6003-.551.5682-.851-.0256-.297-.2504-.567-.6742-.812-.4302-.248-.9054-.382-1.4255-.4-.5201-.019-1.0306.079-1.5315.294zm1.7522 6.45 6.6363-3.831.7417.428-.7802.451.1349.077c.3595-.066.7673-.076 1.2232-.027.4623.052.9375.218 1.4255.5.4046.234.6743.504.8091.812.1477.308.1413.623-.0193.945-.1541.327-.4848.636-.992.929l-.1253.072c-.5008.29-1.0338.482-1.5989.579-.565.096-1.114.102-1.647.016-.5265-.081-.9953-.241-1.4063-.478-.3274-.189-.5618-.376-.7031-.562-.1413-.177-.2151-.346-.2215-.506-.0064-.159.0225-.302.0867-.428l-.1349-.078-2.668 1.541zm4.8737-.033c.488.282 1.037.421 1.6471.417.6228-.004 1.2136-.167 1.7722-.489l.0867-.05c.5587-.323.838-.662.838-1.018.0128-.356-.2248-.675-.7128-.956-.4816-.278-1.037-.417-1.6663-.417-.6164 0-1.204.161-1.7626.483l-.0867.05c-.5587.323-.8412.664-.8476 1.024.0064.359.2504.678.732.956zm2.6651 2.162 4.71-2.72.7609.44-4.71 2.719zm5.8273-2.92c-.167-.096-.2537-.209-.2601-.339 0-.126.0835-.237.2504-.334.1734-.1.3693-.15.5876-.15.2247.004.4206.054.5875.15.167.097.2505.208.2505.334s-.0867.239-.2601.339c-.167.096-.3596.145-.5779.145s-.411-.049-.5779-.145zm-4.0526 3.944 6.7423-3.892.761.439-6.7424 3.893zm3.7975 2.348c-.4752-.274-.7931-.572-.9536-.895-.1541-.326-.1477-.652.0193-.979.1669-.326.4912-.628.9728-.906l.1156-.067c.488-.282 1.0145-.471 1.5796-.567s1.1237-.1 1.6759-.011c.5587.085 1.066.259 1.5219.523.443.255.7384.537.8861.845.1541.304.1509.613-.0096.929-.1606.315-.4784.609-.9536.884l-.3467.2-3.8431-2.219c-.4881.304-.7224.628-.7032.973.0257.341.2697.645.7321.912.4045.234.809.36 1.2136.378.4045.019.793-.013 1.1654-.094l.3371.562c-.2953.059-.6292.096-1.0017.111-.366.018-.7545-.013-1.1654-.095-.4046-.078-.8187-.239-1.2425-.484zm1.3003-2.619 3.0629 1.769c.411-.267.6004-.551.5683-.851-.0257-.297-.2505-.567-.6743-.812-.4302-.249-.9053-.382-1.4255-.401-.5201-.018-1.0306.08-1.5314.295z" fill="#fff"/><path d="m42.6831 174.701v11.653l43.9108 25.678 28.3501-17.051v-11.323" stroke="#fff" stroke-linejoin="round" stroke-width=".630094"/><path d="m86.4958 199.748v11.998" stroke="#fff" stroke-width=".630094"/><path d="m93.2202 204.082v11.653l43.9108 25.678 28.35-17.051v-11.323z" fill="#131313"/><path d="m0 .315047h50.443v32.5884h-50.443z" fill="#131313" stroke="#fff" stroke-width=".630094" transform="matrix(.866025 .5 -.866025 .5 121.898 187.638)"/><path d="m113.743 202.046c-.27-.155-.405-.318-.405-.489.007-.167.138-.324.395-.473l3.217-1.857-1.416-.817.665-.384 1.416.817 1.676-.967.761.439-1.676.968 1.541.889-.665.384-1.541-.89-3.101 1.791c-.193.111-.196.221-.01.328l1.05.606-.655.378zm2.11 1.219 6.742-3.893.761.439-2.783 1.608.135.077c.205-.044.433-.064.683-.061.264.004.54.041.829.111.295.075.603.204.924.39.354.204.591.43.713.678.135.249.141.504.019.768-.115.259-.385.511-.809.756l-2.851 1.646-.761-.439 2.794-1.613c.468-.271.69-.536.664-.795-.019-.256-.228-.499-.626-.729-.456-.263-.976-.393-1.56-.389-.578.007-1.159.18-1.744.517l-2.369 1.368zm7.344 4.395c-.476-.274-.793-.572-.954-.895-.154-.326-.148-.652.019-.979.167-.326.492-.628.973-.906l.116-.067c.488-.282 1.014-.471 1.579-.567.565-.097 1.124-.1 1.676-.011.559.085 1.066.259 1.522.522.443.256.739.538.886.846.154.304.151.613-.009.928-.161.316-.479.61-.954.885l-.347.2-3.843-2.219c-.488.304-.722.628-.703.973.026.341.27.645.732.912.405.234.809.36 1.214.378.404.019.793-.013 1.165-.094l.337.561c-.295.06-.629.097-1.001.112-.366.018-.755-.013-1.166-.095-.404-.078-.819-.239-1.242-.484zm1.3-2.619 3.063 1.768c.411-.266.6-.55.568-.85-.026-.297-.25-.568-.674-.812-.43-.249-.905-.382-1.426-.401-.52-.018-1.03.08-1.531.295zm1.752 6.45 6.636-3.831.742.428-.78.45.135.078c.359-.066.767-.076 1.223-.027.462.051.938.218 1.426.5.404.234.674.504.809.812.147.308.141.623-.02.945-.154.326-.484.636-.992.929l-.125.072c-.501.289-1.034.482-1.599.579-.565.096-1.114.102-1.647.016-.526-.081-.995-.241-1.406-.478-.328-.189-.562-.376-.703-.562-.142-.178-.215-.346-.222-.506-.006-.159.023-.302.087-.428l-.135-.078-2.668 1.541zm4.874-.033c.488.282 1.037.421 1.647.417.623-.004 1.213-.167 1.772-.489l.087-.05c.558-.323.838-.662.838-1.018.013-.356-.225-.675-.713-.957-.482-.278-1.037-.417-1.666-.417-.617 0-1.204.162-1.763.484l-.087.05c-.558.323-.841.664-.847 1.023.006.36.25.679.732.957zm2.665 2.161 4.71-2.719.761.439-4.71 2.72zm5.827-2.919c-.167-.096-.253-.209-.26-.339 0-.126.084-.238.251-.334.173-.1.369-.15.587-.15.225.004.421.054.588.15s.25.208.25.334-.087.239-.26.339c-.167.096-.36.145-.578.145s-.411-.049-.578-.145zm-4.052 3.944 6.742-3.893.761.44-6.742 3.892zm3.797 2.348c-.475-.274-.793-.573-.953-.895-.155-.326-.148-.653.019-.979s.491-.628.973-.906l.115-.067c.488-.282 1.015-.471 1.58-.567.565-.097 1.124-.1 1.676-.011.558.085 1.066.259 1.522.522.443.256.738.538.886.846.154.304.151.613-.01.928-.16.316-.478.61-.953.885l-.347.2-3.843-2.219c-.488.304-.723.628-.703.973.025.341.269.645.732.912.404.234.809.36 1.213.378.405.019.793-.013 1.166-.094l.337.561c-.296.06-.63.097-1.002.112-.366.018-.754-.013-1.165-.095-.405-.078-.819-.239-1.243-.484zm1.3-2.619 3.063 1.768c.411-.266.601-.55.569-.85-.026-.297-.251-.568-.675-.812-.43-.249-.905-.382-1.425-.401-.52-.018-1.031.08-1.532.295z" fill="#fff"/><path d="m93.2202 204.082v11.653l43.9108 25.678 28.35-17.051v-11.323" stroke="#fff" stroke-linejoin="round" stroke-width=".630094"/><path d="m137.033 229.131v11.998" stroke="#fff" stroke-width=".630094"/><path d="m144.101 235.176v11.652l43.911 25.679 28.35-17.051v-11.324z" fill="#131313"/><path d="m0 .315047h50.443v32.5884h-50.443z" fill="#131313" stroke="#fff" stroke-width=".630094" transform="matrix(.866025 .5 -.866025 .5 172.779 218.732)"/><path d="m164.624 233.14c-.27-.156-.405-.319-.405-.489.006-.167.138-.325.395-.473l3.217-1.857-1.416-.818.665-.383 1.416.817 1.676-.968.76.44-1.675.967 1.541.89-.665.384-1.541-.89-3.102 1.791c-.192.111-.195.22-.009.328l1.05.606-.655.378zm2.11 1.219 6.742-3.893.761.439-2.783 1.607.134.078c.206-.044.434-.065.684-.061.264.004.54.041.829.111.295.074.603.204.924.389.353.204.591.431.713.679.135.248.141.504.019.767-.115.26-.385.512-.809.757l-2.851 1.646-.761-.44 2.794-1.612c.468-.271.69-.536.664-.796-.019-.255-.228-.498-.626-.728-.456-.263-.976-.393-1.56-.389-.578.007-1.159.18-1.744.517l-2.369 1.368zm7.343 4.395c-.475-.274-.793-.573-.953-.895-.154-.326-.148-.653.019-.979s.491-.628.973-.906l.116-.067c.488-.282 1.014-.471 1.579-.567.565-.097 1.124-.1 1.676-.011.559.085 1.066.259 1.522.522.443.256.738.538.886.846.154.304.151.613-.009.928-.161.315-.479.61-.954.884l-.347.201-3.843-2.219c-.488.304-.722.628-.703.973.026.341.27.645.732.912.405.233.809.36 1.214.378.404.019.793-.013 1.165-.094l.337.561c-.295.059-.629.097-1.002.111-.366.019-.754-.013-1.165-.094-.405-.078-.819-.239-1.243-.484zm1.301-2.619 3.063 1.768c.411-.267.6-.55.568-.851-.026-.296-.25-.567-.674-.811-.43-.249-.906-.382-1.426-.401-.52-.018-1.03.08-1.531.295zm1.752 6.45 6.636-3.831.742.428-.78.45.135.078c.359-.067.767-.076 1.223-.028.462.052.937.219 1.425.501.405.233.675.504.809.812.148.307.142.622-.019.945-.154.326-.485.636-.992.929l-.125.072c-.501.289-1.034.482-1.599.578-.565.097-1.114.102-1.647.017-.527-.082-.995-.241-1.406-.478-.328-.189-.562-.377-.703-.562-.142-.178-.216-.347-.222-.506s.023-.302.087-.428l-.135-.078-2.668 1.54zm4.874-.033c.488.281 1.037.42 1.647.417.623-.004 1.213-.167 1.772-.49l.087-.05c.558-.322.838-.661.838-1.017.012-.356-.225-.675-.713-.957-.482-.278-1.037-.417-1.666-.417-.617 0-1.204.161-1.763.484l-.087.05c-.558.323-.841.664-.847 1.023.006.36.25.679.732.957zm2.665 2.161 4.71-2.719.761.439-4.71 2.72zm5.827-2.919c-.167-.097-.254-.21-.26-.339 0-.127.083-.238.25-.334.174-.1.37-.15.588-.15.225.003.421.053.587.15.167.096.251.207.251.334 0 .126-.087.239-.26.339-.167.096-.36.144-.578.144s-.411-.048-.578-.144zm-4.053 3.944 6.743-3.893.761.44-6.743 3.892zm3.798 2.348c-.475-.274-.793-.573-.954-.895-.154-.327-.147-.653.02-.979s.491-.628.972-.906l.116-.067c.488-.282 1.015-.471 1.58-.567.565-.097 1.123-.101 1.676-.012.558.086 1.066.26 1.521.523.444.256.739.538.887.845.154.304.15.614-.01.929-.161.315-.478.61-.954.884l-.346.201-3.843-2.219c-.488.304-.723.628-.704.973.026.341.27.645.732.912.405.233.809.359 1.214.378s.793-.013 1.165-.095l.338.562c-.296.059-.63.097-1.002.111-.366.019-.755-.013-1.166-.094-.404-.078-.818-.239-1.242-.484zm1.3-2.619 3.063 1.768c.411-.267.601-.55.568-.851-.025-.296-.25-.567-.674-.812-.43-.248-.905-.381-1.425-.4-.52-.018-1.031.08-1.532.295z" fill="#fff"/><path d="m144.101 235.176v11.652l43.911 25.679 28.35-17.051v-11.324" stroke="#fff" stroke-linejoin="round" stroke-width=".630094"/><path d="m187.914 260.225v11.998" stroke="#fff" stroke-width=".630094"/><path d="m166.7 86.9686c0-6.3283 3.446-12.1535 8.99-15.1977l41.45-22.7594c5.191-2.8502 11.477-2.8501 16.668 0l41.45 22.7594c5.544 3.0442 8.99 8.8694 8.99 15.1977v49.8934c0 6.328-3.446 12.153-8.99 15.198l-41.45 22.759c-5.191 2.85-11.477 2.85-16.668 0l-41.45-22.759c-5.544-3.045-8.99-8.87-8.99-15.198z" fill="#131313" stroke="#fff" stroke-width=".76342"/><path clip-rule="evenodd" d="m198.448 59.0049-1.731.948c6.225-2.3783 15.036-3.3961 19.776-.1401 2.723 1.8707 4.879 1.5225 7.57 1.088 2.255-.3642 4.886-.7891 8.541-.0194 6.764 1.4242 8.189 4.6288 9.668 7.9548.708 1.5907 1.428 3.2091 2.75 4.6738 2.233 2.4741 5.536 3.6399 8.821 4.7991 3.726 1.3148 7.427 2.6211 9.515 5.8183 3.513 5.3793-1.617 8.3951-5.458 10.6528-.664.3907-1.29.7587-1.826 1.1123l1.136-.478-19.751 10.4335c-5.681 3.001-9.292 8.844-9.436 15.27l-.764 34.064c-.118 5.252-5.796 8.477-10.362 5.885-3.478-1.973-5.627-5.664-5.627-9.665v-34.44c0-1.353-.737-2.597-1.921-3.247-2.466-1.353-5.48.433-5.48 3.247v17.599c0 4.513-4.72 7.467-8.775 5.494-3.362-1.637-5.495-5.049-5.495-8.789v-26.072c0-1.373-.745-2.637-1.944-3.301-2.513-1.391-5.596.427-5.596 3.301v18.82c0 3.107-1.732 5.633-4.136 6.932-1.408.761-2.629 1.899-3.102 3.429-.531 1.715-1.468 2.992-4.097 2.733-3.532-.348-4.4-3.318-4.4-4.829v-45.5664c0-6.5575 3.62-12.5785 9.409-15.6514z" fill="#fff" fill-rule="evenodd"/><path d="m198.448 59.0049 1.977 3.6101-3.907-7.2458zm-1.731.948-1.977-3.6102 3.446 7.4552zm19.776-.1401-2.331 3.3927zm7.57 1.088.656 4.0634zm8.541-.0194-.848 4.0278zm9.668 7.9548 3.761-1.6729zm2.75 4.6738 3.056-2.7578-.001-.0001zm8.821 4.7991 1.37-3.8815zm9.515 5.8183-3.446 2.2506zm-5.458 10.6528 2.086 3.5483zm-1.826 1.1123-2.267-3.4355 3.862 7.2297zm1.136-.478 1.923 3.6395-3.518-7.4337zm-19.751 10.4335-1.923-3.64zm-9.436 15.27-4.115-.092zm-.764 34.064 4.115.093zm-10.362 5.885 2.031-3.579zm-7.548-47.352-1.98 3.609zm-14.255 26.34-1.802 3.7zm-7.439-38.162 1.994-3.6008h-.001zm-9.732 29.053 1.956 3.622zm-3.102 3.429 3.932 1.217zm-4.097 2.733.404-4.096zm5.009-66.0468-1.929-3.6357zm20.738-15.6664-1.731.9479 3.954 7.2203 1.731-.948zm1.715 8.4031c2.736-1.0454 6.056-1.7902 9.142-1.9152 3.195-.1294 5.528.4257 6.834 1.3228l4.661-6.7853c-3.434-2.3589-7.876-2.923-11.828-2.7629-4.06.1644-8.258 1.1176-11.747 2.4506zm15.976-.5924c1.943 1.3346 3.856 1.9709 5.816 2.12 1.788.136 3.494-.16 4.741-.3613l-1.313-8.1269c-1.444.2333-2.161.3286-2.804.2797-.472-.0358-.998-.1608-1.779-.6969zm10.557 1.7587c2.165-.3496 4.164-.6601 7.037-.055l1.696-8.0555c-4.437-.9345-7.7-.3952-10.046-.0164zm7.037-.055c2.805.5907 4.058 1.4471 4.745 2.1384.776.7805 1.236 1.7197 2.011 3.4614l7.521-3.3457c-.704-1.5842-1.697-3.9103-3.694-5.9196-2.086-2.0986-4.929-3.5565-8.887-4.39zm6.756 5.5998c.683 1.5358 1.633 3.7413 3.455 5.759l6.11-5.5159c-.822-.9118-1.312-1.9432-2.044-3.5888zm3.454 5.7589c3.06 3.3898 7.451 4.8441 10.507 5.9226l2.74-7.7629c-3.513-1.2398-5.729-2.1171-7.135-3.6754zm10.507 5.9226c4.042 1.4263 6.248 2.3647 7.439 4.1875l6.892-4.5011c-2.985-4.5716-8.181-6.2458-11.591-7.4493zm7.439 4.1875c.527.8079.504 1.1673.503 1.186s0 .1749-.282.5398c-.311.4009-.838.8857-1.645 1.457-.8.5666-1.689 1.0922-2.674 1.671l4.172 7.0967c1.726-1.0146 4.749-2.7239 6.655-5.1835 1.041-1.3437 1.905-3.0911 1.999-5.2214.093-2.1302-.607-4.1651-1.836-6.0467zm-4.098 4.8538c-.639.376-1.364.8011-2.007 1.2252l4.534 6.871c.429-.2831.956-.594 1.645-.9995zm1.855 8.4549 1.137-.478-3.191-7.5884-1.137.478zm-2.381-7.9117-19.752 10.433 3.845 7.279 19.752-10.433zm-19.752 10.433c-7.001 3.699-11.45 10.901-11.628 18.818l8.23.185c.111-4.935 2.883-9.421 7.243-11.724zm-11.628 18.818-.764 34.064 8.23.185.764-34.065zm-.764 34.064c-.048 2.143-2.361 3.45-4.216 2.398l-4.063 7.159c7.279 4.131 16.321-1.011 16.509-9.372zm-4.216 2.398c-2.188-1.242-3.542-3.566-3.542-6.086h-8.232c0 5.481 2.944 10.54 7.711 13.245zm-3.542-6.086v-34.44h-8.232v34.44zm0-34.44c0-2.854-1.555-5.483-4.058-6.856l-3.959 7.218c-.133-.074-.215-.213-.215-.362zm-4.058-6.856c-5.213-2.86-11.575.917-11.575 6.856h8.232c0 .047-.016.131-.065.213-.042.071-.093.115-.137.142-.045.026-.109.05-.193.052-.096.004-.178-.022-.221-.045zm-11.575 6.856v17.599h8.232v-17.599zm0 17.599c0 1.476-1.541 2.434-2.858 1.793l-3.603 7.401c6.793 3.307 14.693-1.645 14.693-9.194zm-2.857 1.793c-1.945-.947-3.181-2.922-3.181-5.088h-8.232c0 5.313 3.031 10.163 7.809 12.489zm-3.181-5.088v-26.072h-8.232v26.072zm0-26.072c0-2.869-1.556-5.512-4.066-6.9018l-3.988 7.2018c-.111-.061-.178-.176-.178-.3zm-4.067-6.9018c-5.259-2.9125-11.705.8962-11.705 6.9018h8.232c0 .034-.013.106-.056.177-.036.062-.078.098-.113.118-.035.021-.087.041-.16.043-.084.002-.154-.021-.185-.038zm-11.705 6.9018v18.82h8.232v-18.82zm0 18.82c0 1.484-.802 2.676-1.977 3.311l3.913 7.243c3.635-1.965 6.296-5.824 6.296-10.554zm-1.977 3.311c-1.959 1.058-4.173 2.911-5.077 5.833l7.864 2.434c.042-.138.269-.561 1.126-1.024zm-5.077 5.833c-.038.122-.07.21-.096.273-.013.031-.023.054-.031.069-.003.008-.006.013-.008.017s-.003.005-.003.005c.002-.002.072-.123.243-.26.084-.066.173-.122.262-.164.088-.043.158-.063.196-.072.071-.017-.011.016-.324-.014l-.808 8.192c2.034.201 4.099-.145 5.804-1.503 1.59-1.267 2.274-2.963 2.629-4.109zm.239-.146c-.315-.031-.432-.103-.445-.111-.018-.011-.039-.027-.072-.075-.041-.06-.09-.16-.127-.296-.018-.064-.03-.125-.036-.176-.007-.052-.007-.079-.007-.075h-8.233c0 1.405.375 3.369 1.581 5.154 1.316 1.949 3.497 3.472 6.531 3.771zm-.687-.733v-45.5664h-8.233v45.5664zm0-45.5664c0-5.0353 2.779-9.6573 7.222-12.0158l-3.859-7.2713c-7.136 3.7874-11.596 11.2074-11.596 19.2871zm7.222-12.0157 22.715-12.0563-3.86-7.2714-22.714 12.0563z" fill="#fff" mask="url(#a)"/></svg>