<svg width="462" height="310" viewBox="0 0 462 310" fill="none" xmlns="http://www.w3.org/2000/svg">
<g filter="url(#filter0_d_11012_2086)">
<path d="M302.566 72.9092L252.834 43.827V31.1489L334.551 41.2776V53.6725L302.566 72.9092Z" fill="url(#paint0_linear_11012_2086)" stroke="black" stroke-width="0.722268" stroke-linejoin="round"/>
<rect x="-2.14232e-08" y="0.359422" width="57.548" height="37.1786" transform="matrix(0.866025 0.5 -0.866025 0.5 285.186 11.9805)" fill="white" stroke="#131313" stroke-width="0.718844"/>
<path d="M280.316 23.2051C279.479 22.7217 279.05 22.1957 279.03 21.6272C279.023 21.0586 279.486 20.5056 280.417 19.968L282.025 19.0398C282.956 18.5022 283.91 18.2373 284.888 18.245C285.88 18.2528 286.794 18.4983 287.631 18.9818C288.475 19.4691 288.901 19.997 288.907 20.5655C288.928 21.134 288.472 21.6871 287.541 22.2247L285.933 23.1529C285.002 23.6905 284.041 23.9554 283.049 23.9477C282.071 23.9399 281.16 23.6924 280.316 23.2051ZM281.07 22.77C281.68 23.1219 282.333 23.2902 283.029 23.2747C283.733 23.2554 284.409 23.0581 285.059 22.683L286.727 21.72C287.377 21.3448 287.715 20.9561 287.742 20.5539C287.775 20.1478 287.487 19.7688 286.878 19.4169C286.275 19.0688 285.622 18.9044 284.918 18.9238C284.222 18.9392 283.548 19.1346 282.899 19.5097L281.231 20.4727C280.581 20.8479 280.239 21.2385 280.206 21.6446C280.179 22.0468 280.467 22.4219 281.07 22.77ZM283.988 25.1624L288.901 22.3256L289.675 22.7723L288.841 23.2538L288.982 23.335C289.323 23.2615 289.715 23.2441 290.157 23.2828C290.613 23.3214 291.092 23.4858 291.594 23.7759C291.963 23.9886 292.214 24.2226 292.348 24.4778C292.488 24.7369 292.495 25.0038 292.368 25.2784C292.241 25.553 291.956 25.8179 291.514 26.0732L288.54 27.7903L287.746 27.332L290.66 25.6497C291.149 25.3673 291.38 25.0908 291.353 24.8201C291.333 24.5532 291.115 24.2999 290.7 24.0601C290.224 23.7855 289.682 23.6502 289.072 23.654C288.469 23.6618 287.863 23.8416 287.253 24.1936L284.782 25.6207L283.988 25.1624ZM291.662 27.0288L292.395 26.6053L295.369 28.3224L294.636 28.7459L291.662 27.0288ZM295.505 31.9745C295.03 31.6999 294.701 31.3943 294.521 31.0579C294.353 30.7214 294.35 30.3791 294.511 30.031C294.678 29.6868 295.023 29.3639 295.546 29.0622L295.656 28.9984C296.185 28.6929 296.745 28.4937 297.334 28.4009C297.937 28.3081 298.526 28.3119 299.103 28.4125C299.692 28.513 300.225 28.7006 300.7 28.9752C301.169 29.2459 301.481 29.5263 301.635 29.8164C301.795 30.1103 301.826 30.3946 301.725 30.6692C301.631 30.9476 301.447 31.1971 301.172 31.4175L300.238 31.0637C300.446 30.9051 300.586 30.7311 300.66 30.5415C300.74 30.3559 300.73 30.1645 300.63 29.9672C300.529 29.77 300.318 29.5785 299.997 29.3929C299.669 29.2034 299.3 29.0758 298.892 29.01C298.49 28.9481 298.074 28.952 297.646 29.0216C297.224 29.0951 296.822 29.2421 296.44 29.4625L296.349 29.5147C295.968 29.7352 295.713 29.9672 295.586 30.2109C295.465 30.4584 295.458 30.6982 295.566 30.9302C295.679 31.1662 295.901 31.3789 296.229 31.5684C296.718 31.8507 297.217 31.9919 297.726 31.9919C298.242 31.9957 298.717 31.9068 299.153 31.725L299.766 32.2761C299.37 32.4192 298.932 32.5178 298.449 32.572C297.967 32.6261 297.471 32.6068 296.962 32.514C296.46 32.425 295.974 32.2452 295.505 31.9745ZM298.722 33.669L305.755 29.6081L306.549 30.0664L303.645 31.743L303.786 31.8242C304 31.7778 304.238 31.7565 304.499 31.7604C304.774 31.7643 305.062 31.8029 305.363 31.8764C305.672 31.9538 305.993 32.0891 306.328 32.2825C306.697 32.4952 306.944 32.7311 307.072 32.9903C307.212 33.2494 307.219 33.5162 307.092 33.7908C306.971 34.0615 306.69 34.3245 306.248 34.5798L303.273 36.297L302.48 35.8387L305.394 34.1563C305.883 33.874 306.114 33.5974 306.087 33.3267C306.067 33.0599 305.849 32.8065 305.434 32.5668C304.958 32.2922 304.416 32.1568 303.806 32.1607C303.203 32.1684 302.597 32.3482 301.987 32.7002L299.515 34.1273L298.722 33.669ZM305.582 37.7921C305.24 37.5948 304.989 37.3802 304.828 37.1481C304.667 36.9161 304.62 36.6879 304.687 36.4636C304.754 36.2393 304.952 36.0324 305.28 35.8429C305.615 35.6495 305.97 35.5373 306.345 35.5064C306.727 35.4716 307.112 35.5045 307.501 35.605C307.896 35.7017 308.268 35.8506 308.616 36.0517L310.274 37.0089L310.636 36.8001C310.984 36.599 311.155 36.3804 311.148 36.1445C311.148 35.9125 310.947 35.6804 310.545 35.4484C310.15 35.2202 309.745 35.0984 309.33 35.0829C308.921 35.0636 308.516 35.1235 308.114 35.2627L307.611 34.6942C307.966 34.5821 308.342 34.5124 308.737 34.4854C309.139 34.4544 309.551 34.4834 309.973 34.5724C310.408 34.6613 310.83 34.8238 311.239 35.0597C311.868 35.4232 312.193 35.8003 312.213 36.1909C312.24 36.5777 311.959 36.9412 311.369 37.2816L309.149 38.5637C308.948 38.6797 308.941 38.7918 309.129 38.9001L309.581 39.1612L308.908 39.5499L308.214 39.1496C307.993 39.022 307.876 38.8847 307.863 38.7377C307.856 38.5869 307.956 38.4515 308.164 38.3316L308.214 38.3026L308.094 38.233C307.893 38.2639 307.658 38.2833 307.39 38.291C307.136 38.2987 306.858 38.2659 306.556 38.1924C306.248 38.1228 305.923 37.9893 305.582 37.7921ZM306.355 37.4498C306.824 37.7205 307.34 37.8598 307.903 37.8675C308.479 37.8752 309.018 37.7341 309.521 37.444L309.631 37.3802L308.003 36.4404C307.688 36.2586 307.357 36.1484 307.009 36.1097C306.674 36.071 306.369 36.131 306.094 36.2896C305.82 36.4481 305.709 36.6318 305.763 36.8407C305.823 37.0534 306.021 37.2564 306.355 37.4498ZM309.326 39.7914L314.24 36.9546L315.033 37.4129L310.12 40.2497L309.326 39.7914ZM315.405 36.7458C315.231 36.6452 315.141 36.5273 315.134 36.3919C315.134 36.2604 315.221 36.1444 315.395 36.0438C315.576 35.9394 315.78 35.8872 316.008 35.8872C316.242 35.891 316.447 35.9433 316.621 36.0438C316.795 36.1444 316.882 36.2604 316.882 36.3919C316.882 36.5234 316.792 36.6413 316.611 36.7458C316.437 36.8463 316.236 36.8966 316.008 36.8966C315.78 36.8966 315.579 36.8463 315.405 36.7458ZM311.12 40.8273L316.034 37.9905L316.807 38.4372L315.973 38.9187L316.114 38.9999C316.456 38.9264 316.848 38.909 317.29 38.9477C317.745 38.9864 318.224 39.1507 318.727 39.4408C319.095 39.6535 319.346 39.8875 319.48 40.1427C319.621 40.4019 319.628 40.6687 319.5 40.9433C319.373 41.2179 319.088 41.4828 318.646 41.7381L315.672 43.4553L314.878 42.997L317.792 41.3146C318.281 41.0323 318.512 40.7557 318.485 40.485C318.465 40.2182 318.248 39.9648 317.832 39.7251C317.357 39.4505 316.814 39.3151 316.205 39.319C315.602 39.3267 314.995 39.5065 314.386 39.8585L311.914 41.2856L311.12 40.8273ZM274.881 33.9043L275.634 33.4692L276.619 34.0378L282.145 30.8471L281.161 30.2786L281.914 29.8435L284.657 31.4272C285.582 31.9609 286.061 32.5082 286.094 33.069C286.134 33.6336 285.669 34.1963 284.698 34.7571L283.391 35.5113C282.413 36.0759 281.435 36.3467 280.457 36.3235C279.493 36.3003 278.548 36.0218 277.624 35.4881L274.881 33.9043ZM277.473 34.5193L278.387 35.0472C279.071 35.4417 279.754 35.6428 280.437 35.6505C281.12 35.6583 281.814 35.4591 282.517 35.053L283.894 34.2582C284.61 33.8444 284.959 33.4422 284.939 33.0516C284.919 32.6609 284.567 32.2684 283.884 31.8739L282.969 31.346L277.473 34.5193ZM282.603 38.5252C282.261 38.328 282.01 38.1133 281.849 37.8813C281.688 37.6492 281.642 37.421 281.709 37.1967C281.776 36.9724 281.973 36.7655 282.301 36.576C282.636 36.3826 282.991 36.2705 283.366 36.2395C283.748 36.2047 284.133 36.2376 284.522 36.3381C284.917 36.4348 285.289 36.5837 285.637 36.7848L287.295 37.742L287.657 37.5332C288.005 37.3321 288.176 37.1136 288.169 36.8776C288.169 36.6456 287.968 36.4135 287.567 36.1815C287.171 35.9533 286.766 35.8315 286.351 35.816C285.942 35.7967 285.537 35.8566 285.135 35.9959L284.633 35.4273C284.988 35.3152 285.363 35.2456 285.758 35.2185C286.16 35.1876 286.572 35.2166 286.994 35.3055C287.429 35.3945 287.851 35.5569 288.26 35.7928C288.89 36.1564 289.214 36.5334 289.235 36.9241C289.261 37.3108 288.98 37.6744 288.391 38.0147L286.17 39.2968C285.969 39.4128 285.962 39.525 286.15 39.6332L286.602 39.8943L285.929 40.283L285.235 39.8827C285.014 39.7551 284.897 39.6178 284.884 39.4708C284.877 39.32 284.978 39.1846 285.185 39.0647L285.235 39.0357L285.115 38.9661C284.914 38.997 284.679 39.0164 284.411 39.0241C284.157 39.0318 283.879 38.999 283.577 38.9255C283.269 38.8559 282.944 38.7224 282.603 38.5252ZM283.377 38.1829C283.845 38.4537 284.361 38.5929 284.924 38.6006C285.5 38.6084 286.039 38.4672 286.542 38.1771L286.652 38.1133L285.024 37.1735C284.71 36.9917 284.378 36.8815 284.03 36.8428C283.695 36.8042 283.39 36.8641 283.115 37.0227C282.841 37.1812 282.73 37.365 282.784 37.5738C282.844 37.7865 283.042 37.9896 283.377 38.1829ZM287.832 41.3818C287.551 41.2194 287.41 41.0492 287.41 40.8713C287.417 40.6973 287.554 40.5329 287.822 40.3782L291.178 38.4406L289.701 37.5878L290.394 37.1875L291.871 38.0403L293.62 37.0309L294.413 37.4892L292.665 38.4986L294.273 39.4268L293.579 39.8271L291.972 38.8989L288.736 40.7669C288.535 40.8829 288.532 40.997 288.726 41.1091L289.821 41.7415L289.138 42.136L287.832 41.3818ZM291.313 43.5542C290.972 43.357 290.721 43.1423 290.56 42.9103C290.399 42.6782 290.352 42.4501 290.419 42.2257C290.486 42.0014 290.684 41.7945 291.012 41.605C291.347 41.4116 291.702 41.2995 292.077 41.2685C292.459 41.2337 292.844 41.2666 293.233 41.3672C293.628 41.4638 294 41.6127 294.348 41.8139L296.006 42.7711L296.368 42.5622C296.716 42.3611 296.887 42.1426 296.88 41.9067C296.88 41.6746 296.679 41.4426 296.277 41.2105C295.882 40.9823 295.477 40.8605 295.061 40.845C294.653 40.8257 294.247 40.8857 293.845 41.0249L293.343 40.4564C293.698 40.3442 294.073 40.2746 294.468 40.2475C294.87 40.2166 295.282 40.2456 295.704 40.3345C296.14 40.4235 296.562 40.5859 296.97 40.8218C297.6 41.1854 297.925 41.5625 297.945 41.9531C297.972 42.3398 297.691 42.7034 297.101 43.0437L294.88 44.3258C294.679 44.4418 294.673 44.554 294.86 44.6623L295.312 44.9233L294.639 45.312L293.946 44.9117C293.725 44.7841 293.608 44.6468 293.594 44.4998C293.588 44.349 293.688 44.2136 293.896 44.0937L293.946 44.0647L293.825 43.9951C293.624 44.0261 293.39 44.0454 293.122 44.0531C292.867 44.0609 292.589 44.028 292.288 43.9545C291.98 43.8849 291.655 43.7515 291.313 43.5542ZM292.087 43.212C292.556 43.4827 293.072 43.6219 293.634 43.6296C294.211 43.6374 294.75 43.4962 295.252 43.2061L295.363 43.1423L293.735 42.2025C293.42 42.0208 293.089 41.9105 292.74 41.8719C292.405 41.8332 292.1 41.8931 291.826 42.0517C291.551 42.2103 291.441 42.394 291.494 42.6028C291.555 42.8155 291.752 43.0186 292.087 43.212Z" fill="#131313"/>
<path d="M302.453 59.3184V73.6349" stroke="#131313" stroke-width="0.718844"/>
</g>
<g filter="url(#filter1_d_11012_2086)">
<path d="M359.884 108.786L310.152 79.704V67.0258L391.869 77.1546V89.5495L359.884 108.786Z" fill="url(#paint1_linear_11012_2086)" stroke="black" stroke-width="0.722268" stroke-linejoin="round"/>
<rect x="-2.14232e-08" y="0.359422" width="57.548" height="37.1786" transform="matrix(0.866025 0.5 -0.866025 0.5 342.505 47.8574)" fill="white" stroke="#131313" stroke-width="0.718844"/>
<path d="M334.503 57.2443C333.818 56.8487 333.467 56.4184 333.451 55.9532C333.445 55.4881 333.824 55.0356 334.585 54.5957L335.901 53.8363C336.663 53.3965 337.444 53.1797 338.244 53.186C339.055 53.1924 339.803 53.3933 340.488 53.7888C341.179 54.1875 341.527 54.6195 341.532 55.0846C341.549 55.5498 341.176 56.0023 340.414 56.4421L339.099 57.2015C338.337 57.6414 337.55 57.8581 336.739 57.8518C335.939 57.8455 335.194 57.643 334.503 57.2443ZM335.12 56.8883C335.618 57.1762 336.153 57.3139 336.723 57.3012C337.298 57.2854 337.852 57.124 338.384 56.8171L339.748 56.0292C340.28 55.7222 340.557 55.4042 340.579 55.0751C340.606 54.7429 340.37 54.4328 339.872 54.1448C339.378 53.86 338.844 53.7255 338.268 53.7414C337.698 53.754 337.148 53.9138 336.616 54.2208L335.251 55.0087C334.72 55.3156 334.44 55.6352 334.413 55.9675C334.391 56.2965 334.626 56.6035 335.12 56.8883ZM335.862 59.7944L341.526 56.5241L342.159 56.8896L341.493 57.2741L341.608 57.3405C341.915 57.2836 342.263 57.2756 342.653 57.3168C343.047 57.3611 343.453 57.5035 343.869 57.744C344.215 57.9433 344.445 58.1743 344.56 58.4369C344.686 58.6996 344.68 58.9686 344.543 59.2438C344.412 59.5223 344.13 59.7865 343.697 60.0365L343.59 60.0982C343.162 60.345 342.707 60.5096 342.225 60.5918C341.743 60.6741 341.274 60.6789 340.819 60.6061C340.37 60.5365 339.97 60.4004 339.619 60.1979C339.339 60.0365 339.139 59.8767 339.019 59.7185C338.898 59.5666 338.835 59.4226 338.83 59.2866C338.824 59.1505 338.849 59.0287 338.904 58.9211L338.789 58.8546L336.511 60.1694L335.862 59.7944ZM340.022 59.766C340.438 60.0064 340.907 60.1251 341.428 60.1219C341.959 60.1188 342.463 59.9796 342.94 59.7043L343.014 59.6615C343.491 59.3862 343.73 59.0967 343.73 58.7929C343.741 58.4892 343.538 58.217 343.121 57.9765C342.71 57.7392 342.236 57.6206 341.699 57.6206C341.173 57.6206 340.671 57.7582 340.194 58.0335L340.12 58.0762C339.644 58.3515 339.402 58.6426 339.397 58.9496C339.402 59.2565 339.611 59.5286 340.022 59.766ZM343.975 62.713C343.57 62.4788 343.298 62.2241 343.161 61.9488C343.03 61.6703 343.035 61.3919 343.178 61.1134C343.32 60.835 343.597 60.5771 344.008 60.3398L344.107 60.2828C344.523 60.0423 344.973 59.8809 345.455 59.7987C345.937 59.7164 346.414 59.7132 346.886 59.7892C347.362 59.8619 347.795 60.0107 348.184 60.2353C348.563 60.4537 348.815 60.6942 348.941 60.9568C349.072 61.2163 349.07 61.4805 348.933 61.7495C348.796 62.0184 348.524 62.27 348.119 62.5041L347.823 62.675L344.543 60.7812C344.126 61.0406 343.926 61.3175 343.942 61.6118C343.964 61.9029 344.173 62.1624 344.567 62.3902C344.912 62.5896 345.258 62.6972 345.603 62.713C345.948 62.7288 346.28 62.7019 346.598 62.6323L346.886 63.1117C346.633 63.1623 346.348 63.194 346.031 63.2066C345.718 63.2224 345.387 63.1955 345.036 63.1259C344.69 63.0595 344.337 62.9218 343.975 62.713ZM345.085 60.4774L347.699 61.9868C348.05 61.7589 348.212 61.5169 348.184 61.2606C348.163 61.0074 347.971 60.7764 347.609 60.5676C347.242 60.3556 346.836 60.2417 346.392 60.2258C345.948 60.21 345.513 60.2939 345.085 60.4774ZM346.566 64.0758L350.586 61.7548L351.219 62.1203L350.537 62.5143L350.652 62.5807C350.931 62.5206 351.252 62.5063 351.614 62.538C351.986 62.5696 352.378 62.7041 352.789 62.9414C353.091 63.1155 353.296 63.3069 353.406 63.5158C353.521 63.7278 353.527 63.9461 353.422 64.1708C353.318 64.3954 353.085 64.6122 352.724 64.821L350.29 66.226L349.641 65.851L352.025 64.4746C352.425 64.2436 352.614 64.0173 352.592 63.7958C352.576 63.5775 352.398 63.3702 352.058 63.174C351.669 62.9494 351.225 62.8386 350.726 62.8418C350.233 62.8481 349.737 62.9952 349.238 63.2832L347.215 64.4508L346.566 64.0758ZM352.844 65.6024L353.444 65.2559L355.877 66.6608L355.277 67.0073L352.844 65.6024ZM356.029 69.6721C355.612 69.4316 355.313 69.1737 355.133 68.8984C354.952 68.6231 354.913 68.3446 355.018 68.063C355.133 67.7814 355.415 67.5108 355.864 67.2514L356.037 67.1517L356.719 67.5456L356.547 67.6453C356.07 67.9206 355.853 68.207 355.897 68.5044C355.947 68.7987 356.19 69.0724 356.629 69.3256C357.078 69.585 357.522 69.7243 357.961 69.7433C358.399 69.7622 358.772 69.6831 359.079 69.5059C359.293 69.3825 359.408 69.2528 359.424 69.1167C359.446 68.9838 359.399 68.8398 359.284 68.6848C359.175 68.5266 359.021 68.3557 358.824 68.1722L358.503 67.8637C358.257 67.62 358.068 67.3874 357.936 67.1659C357.804 66.9444 357.766 66.7324 357.821 66.5299C357.887 66.3274 358.081 66.1328 358.405 65.9461C358.728 65.7594 359.087 65.6439 359.482 65.5996C359.882 65.5585 360.29 65.5853 360.707 65.6803C361.129 65.7784 361.531 65.9382 361.915 66.1597C362.304 66.3843 362.584 66.6248 362.754 66.8811C362.934 67.1374 362.981 67.3922 362.893 67.6453C362.817 67.8985 362.581 68.139 362.186 68.3668L361.841 68.5661L361.159 68.1722L361.504 67.9728C361.784 67.8114 361.948 67.6469 361.997 67.4792C362.052 67.3146 362.016 67.1485 361.89 66.9808C361.77 66.8163 361.578 66.6581 361.315 66.5062C360.937 66.2878 360.548 66.1613 360.148 66.1264C359.753 66.0885 359.402 66.1581 359.095 66.3353C358.892 66.4524 358.777 66.5758 358.75 66.7055C358.723 66.8353 358.758 66.9761 358.857 67.128C358.961 67.2767 359.109 67.4412 359.301 67.6216L359.621 67.9301C359.884 68.1643 360.084 68.3937 360.222 68.6183C360.369 68.843 360.416 69.0629 360.361 69.2781C360.312 69.4901 360.117 69.6942 359.778 69.8904C359.438 70.0866 359.057 70.2084 358.635 70.2559C358.213 70.3033 357.774 70.278 357.319 70.1799C356.876 70.0818 356.445 69.9126 356.029 69.6721ZM360.49 72.2476C360.084 72.0134 359.81 71.7571 359.668 71.4786C359.53 71.2033 359.528 70.9265 359.659 70.648C359.802 70.3695 360.084 70.1085 360.506 69.8648L360.613 69.8031C361.029 69.5626 361.479 69.4013 361.961 69.319C362.449 69.2399 362.931 69.2399 363.408 69.319C363.89 69.4013 364.334 69.5595 364.74 69.7936C365.146 70.0278 365.417 70.2825 365.554 70.5578C365.696 70.8363 365.696 71.1147 365.554 71.3932C365.417 71.6748 365.14 71.9359 364.724 72.1764L364.617 72.2381C364.195 72.4817 363.74 72.6431 363.252 72.7222C362.775 72.8013 362.296 72.7997 361.813 72.7175C361.336 72.6384 360.895 72.4817 360.49 72.2476ZM361.073 71.9106C361.501 72.1574 361.975 72.2761 362.496 72.2666C363.027 72.2571 363.523 72.1194 363.984 71.8536L364.058 71.8109C364.518 71.5451 364.754 71.2603 364.765 70.9565C364.787 70.6528 364.584 70.3775 364.156 70.1306C363.734 69.887 363.257 69.7699 362.726 69.7794C362.2 69.7857 361.706 69.9218 361.246 70.1876L361.172 70.2303C360.712 70.4961 360.473 70.7825 360.457 71.0894C360.446 71.3932 360.651 71.6669 361.073 71.9106ZM364.744 74.6564C364.454 74.4887 364.248 74.2972 364.127 74.0821C364.012 73.8701 364.007 73.6517 364.111 73.4271C364.226 73.2024 364.462 72.9872 364.818 72.7815L367.251 71.3766L367.901 71.7516L365.517 73.128C365.117 73.359 364.925 73.5837 364.941 73.802C364.963 74.0235 365.144 74.2324 365.484 74.4286C365.868 74.6501 366.309 74.7592 366.808 74.7561C367.306 74.7529 367.805 74.6073 368.304 74.3194L370.326 73.1518L370.976 73.5267L366.956 75.8478L366.323 75.4823L367.005 75.0883L366.89 75.0219C366.61 75.082 366.284 75.0962 365.911 75.0646C365.544 75.0298 365.155 74.8937 364.744 74.6564ZM369.501 77.4504C369.112 77.2257 368.843 76.9757 368.695 76.7004C368.558 76.4251 368.556 76.1451 368.687 75.8603C368.824 75.5787 369.106 75.3144 369.534 75.0676L369.624 75.0154C370.057 74.7654 370.515 74.6025 370.997 74.5265C371.491 74.4506 371.973 74.4537 372.444 74.536C372.927 74.6183 373.362 74.7718 373.751 74.9964C374.135 75.2179 374.39 75.4473 374.516 75.6847C374.648 75.9252 374.672 76.1577 374.59 76.3824C374.513 76.6102 374.363 76.8143 374.138 76.9947L373.373 76.7052C373.543 76.5754 373.658 76.433 373.719 76.278C373.784 76.1261 373.776 75.9695 373.694 75.8081C373.612 75.6467 373.439 75.4901 373.176 75.3382C372.907 75.1831 372.606 75.0787 372.272 75.0249C371.943 74.9743 371.603 74.9774 371.252 75.0344C370.907 75.0945 370.578 75.2148 370.266 75.3951L370.192 75.4378C369.879 75.6182 369.671 75.8081 369.567 76.0074C369.468 76.2099 369.463 76.4061 369.55 76.596C369.644 76.789 369.824 76.963 370.093 77.1181C370.493 77.3491 370.901 77.4646 371.318 77.4646C371.74 77.4678 372.129 77.395 372.485 77.2463L372.987 77.6972C372.664 77.8142 372.305 77.8949 371.91 77.9392C371.515 77.9835 371.11 77.9677 370.693 77.8918C370.282 77.819 369.885 77.6719 369.501 77.4504ZM373.858 79.9659C373.453 79.7318 373.181 79.477 373.044 79.2018C372.913 78.9233 372.918 78.6448 373.061 78.3664C373.203 78.0879 373.48 77.83 373.891 77.5927L373.99 77.5357C374.406 77.2952 374.856 77.1339 375.338 77.0516C375.82 76.9693 376.297 76.9662 376.769 77.0421C377.245 77.1149 377.678 77.2636 378.067 77.4883C378.446 77.7066 378.698 77.9471 378.824 78.2097C378.955 78.4692 378.953 78.7334 378.816 79.0024C378.679 79.2714 378.407 79.5229 378.002 79.7571L377.706 79.928L374.425 78.0341C374.009 78.2936 373.809 78.5705 373.825 78.8648C373.847 79.1559 374.056 79.4153 374.45 79.6432C374.795 79.8425 375.141 79.9501 375.486 79.9659C375.831 79.9818 376.163 79.9549 376.481 79.8852L376.769 80.3646C376.516 80.4153 376.231 80.4469 375.914 80.4596C375.601 80.4754 375.27 80.4485 374.919 80.3789C374.573 80.3124 374.22 80.1748 373.858 79.9659ZM374.968 77.7303L377.582 79.2397C377.933 79.0119 378.095 78.7698 378.067 78.5135C378.046 78.2604 377.854 78.0294 377.492 77.8205C377.125 77.6085 376.719 77.4946 376.275 77.4788C375.831 77.463 375.396 77.5468 374.968 77.7303ZM334.843 70.3076L335.46 69.9516L336.265 70.4168L340.787 67.8062L339.981 67.3411L340.598 66.9851L342.842 68.2809C343.599 68.7176 343.99 69.1653 344.018 69.6241C344.051 70.0861 343.67 70.5465 342.875 71.0054L341.806 71.6224C341.006 72.0844 340.206 72.3059 339.406 72.2869C338.617 72.2679 337.844 72.0401 337.087 71.6034L334.843 70.3076ZM336.964 70.8108L337.712 71.2427C338.271 71.5655 338.83 71.73 339.389 71.7363C339.948 71.7427 340.516 71.5797 341.091 71.2474L342.217 70.5972C342.804 70.2586 343.089 69.9295 343.072 69.6099C343.056 69.2903 342.768 68.9691 342.209 68.6464L341.461 68.2144L336.964 70.8108ZM341.16 74.0878C340.881 73.9264 340.675 73.7508 340.544 73.561C340.412 73.3711 340.374 73.1844 340.429 73.0009C340.484 72.8173 340.645 72.6481 340.914 72.493C341.188 72.3348 341.478 72.243 341.785 72.2177C342.098 72.1892 342.413 72.2161 342.731 72.2984C343.054 72.3775 343.358 72.4993 343.643 72.6639L345 73.447L345.296 73.2762C345.581 73.1116 345.72 72.9328 345.715 72.7398C345.715 72.55 345.55 72.3601 345.222 72.1702C344.898 71.9835 344.567 71.8839 344.227 71.8712C343.893 71.8554 343.561 71.9044 343.232 72.0184L342.821 71.5532C343.112 71.4614 343.418 71.4045 343.742 71.3823C344.071 71.357 344.408 71.3807 344.753 71.4535C345.109 71.5263 345.455 71.6592 345.789 71.8522C346.304 72.1497 346.57 72.4582 346.586 72.7778C346.608 73.0942 346.378 73.3917 345.896 73.6701L344.079 74.7191C343.914 74.814 343.909 74.9058 344.062 74.9944L344.432 75.208L343.882 75.526L343.314 75.1985C343.133 75.0941 343.038 74.9817 343.027 74.8615C343.021 74.7381 343.103 74.6273 343.273 74.5292L343.314 74.5055L343.216 74.4486C343.051 74.4739 342.859 74.4897 342.64 74.496C342.432 74.5023 342.204 74.4754 341.958 74.4153C341.706 74.3584 341.44 74.2492 341.16 74.0878ZM341.793 73.8078C342.177 74.0293 342.599 74.1432 343.059 74.1495C343.531 74.1559 343.972 74.0404 344.383 73.803L344.473 73.7508L343.142 72.9819C342.884 72.8332 342.613 72.743 342.328 72.7113C342.054 72.6797 341.804 72.7287 341.58 72.8585C341.355 72.9882 341.265 73.1385 341.308 73.3094C341.358 73.4834 341.519 73.6496 341.793 73.8078ZM345.438 76.4245C345.208 76.2916 345.093 76.1524 345.093 76.0068C345.098 75.8644 345.21 75.73 345.43 75.6034L348.175 74.0181L346.967 73.3203L347.534 72.9928L348.743 73.6905L350.173 72.8647L350.823 73.2396L349.392 74.0655L350.708 74.825L350.14 75.1525L348.825 74.393L346.178 75.9214C346.013 76.0163 346.011 76.1097 346.17 76.2014L347.066 76.7188L346.507 77.0416L345.438 76.4245ZM348.285 78.2014C348.006 78.0401 347.8 77.8644 347.669 77.6746C347.537 77.4847 347.499 77.298 347.554 77.1145C347.608 76.931 347.77 76.7617 348.039 76.6066C348.313 76.4484 348.603 76.3566 348.91 76.3313C349.223 76.3028 349.538 76.3297 349.856 76.412C350.179 76.4911 350.483 76.6129 350.768 76.7775L352.125 77.5607L352.421 77.3898C352.706 77.2252 352.845 77.0465 352.84 76.8534C352.84 76.6636 352.675 76.4737 352.347 76.2839C352.023 76.0972 351.692 75.9975 351.352 75.9848C351.018 75.969 350.686 76.0181 350.357 76.132L349.946 75.6668C350.237 75.575 350.543 75.5181 350.867 75.4959C351.196 75.4706 351.533 75.4944 351.878 75.5671C352.234 75.6399 352.58 75.7728 352.914 75.9658C353.429 76.2633 353.695 76.5718 353.711 76.8914C353.733 77.2078 353.503 77.5053 353.021 77.7837L351.204 78.8327C351.039 78.9276 351.034 79.0194 351.187 79.108L351.557 79.3216L351.007 79.6396L350.439 79.3121C350.258 79.2077 350.163 79.0954 350.152 78.9751C350.146 78.8517 350.228 78.7409 350.398 78.6429L350.439 78.6191L350.341 78.5622C350.176 78.5875 349.984 78.6033 349.765 78.6096C349.557 78.616 349.329 78.5891 349.083 78.5289C348.831 78.472 348.565 78.3628 348.285 78.2014ZM348.918 77.9214C349.302 78.1429 349.724 78.2568 350.184 78.2631C350.656 78.2695 351.097 78.154 351.508 77.9166L351.598 77.8644L350.267 77.0955C350.009 76.9468 349.738 76.8566 349.453 76.825C349.179 76.7933 348.929 76.8424 348.705 76.9721C348.48 77.1018 348.389 77.2521 348.433 77.423C348.483 77.597 348.644 77.7632 348.918 77.9214Z" fill="#131313"/>
<path d="M359.771 95.1934V109.51" stroke="#131313" stroke-width="0.718844"/>
</g>
<g filter="url(#filter2_d_11012_2086)">
<path d="M417.703 144.497L367.971 115.415V102.737L449.687 112.866V125.26L417.703 144.497Z" fill="url(#paint2_linear_11012_2086)" stroke="black" stroke-width="0.722268" stroke-linejoin="round"/>
<rect x="-2.14232e-08" y="0.359422" width="57.548" height="37.1786" transform="matrix(0.866025 0.5 -0.866025 0.5 400.323 83.5684)" fill="white" stroke="#131313" stroke-width="0.718844"/>
<path d="M395.95 95.0646C395.487 94.7974 395.156 94.5108 394.955 94.205C394.754 93.8991 394.711 93.5897 394.827 93.2768C394.955 92.9638 395.268 92.6632 395.768 92.3749L395.959 92.2642L396.718 92.7019L396.526 92.8127C395.996 93.1185 395.755 93.4367 395.804 93.7672C395.859 94.0942 396.13 94.3983 396.617 94.6796C397.116 94.9679 397.61 95.1226 398.097 95.1437C398.584 95.1648 398.998 95.0769 399.339 94.88C399.577 94.7429 399.705 94.5987 399.723 94.4476C399.747 94.2999 399.695 94.1399 399.568 93.9676C399.446 93.7918 399.275 93.602 399.056 93.3981L398.7 93.0553C398.426 92.7845 398.216 92.5261 398.069 92.28C397.923 92.0339 397.881 91.7983 397.942 91.5733C398.015 91.3483 398.231 91.1321 398.59 90.9246C398.949 90.7172 399.348 90.5888 399.787 90.5396C400.231 90.4939 400.685 90.5238 401.148 90.6293C401.617 90.7383 402.064 90.9158 402.491 91.1619C402.923 91.4116 403.234 91.6788 403.422 91.9636C403.623 92.2484 403.675 92.5314 403.578 92.8127C403.492 93.0939 403.231 93.3611 402.792 93.6143L402.408 93.8358L401.65 93.3981L402.034 93.1766C402.344 92.9972 402.527 92.8144 402.582 92.6281C402.643 92.4452 402.603 92.2607 402.463 92.0743C402.329 91.8915 402.116 91.7157 401.824 91.5469C401.404 91.3043 400.971 91.1637 400.527 91.125C400.088 91.0828 399.698 91.1602 399.357 91.3571C399.132 91.4872 399.004 91.6243 398.974 91.7684C398.943 91.9126 398.983 92.069 399.093 92.2378C399.208 92.4031 399.373 92.5859 399.586 92.7863L399.942 93.1291C400.234 93.3893 400.457 93.6442 400.609 93.8938C400.773 94.1434 400.825 94.3878 400.764 94.6269C400.709 94.8624 400.493 95.0892 400.116 95.3072C399.738 95.5252 399.315 95.6605 398.846 95.7133C398.377 95.766 397.89 95.7379 397.384 95.6289C396.891 95.5199 396.413 95.3318 395.95 95.0646ZM397.622 97.9919L398.262 97.6228L400.82 99.0995C400.996 99.2014 401.176 99.1997 401.359 99.0942L402.985 98.1554L402.857 98.0816C402.668 98.1203 402.446 98.1396 402.19 98.1396C401.946 98.1396 401.684 98.1045 401.404 98.0341C401.13 97.9603 400.841 97.8355 400.536 97.6597C400.214 97.4734 399.985 97.2606 399.851 97.0216C399.723 96.786 399.717 96.5434 399.833 96.2938C399.955 96.0477 400.214 95.8103 400.61 95.5818L403.322 94.0155L404.044 94.4321L401.386 95.9668C400.947 96.2199 400.737 96.4678 400.756 96.7104C400.78 96.9565 400.981 97.1886 401.359 97.4066C401.785 97.6527 402.275 97.774 402.829 97.7704C403.383 97.7669 403.938 97.6052 404.492 97.2853L406.739 95.9879L407.46 96.4045L401.952 99.5847C401.709 99.7253 401.447 99.7956 401.167 99.7956C400.893 99.7991 400.625 99.7253 400.363 99.5741L397.622 97.9919ZM403.835 99.4691L408.302 96.8902L409.005 97.2963L408.247 97.734L408.375 97.8078C408.685 97.741 409.042 97.7252 409.444 97.7604C409.858 97.7955 410.293 97.945 410.75 98.2087C411.085 98.402 411.313 98.6148 411.435 98.8468C411.563 99.0824 411.569 99.325 411.453 99.5746C411.337 99.8242 411.079 100.065 410.677 100.297L407.973 101.858L407.251 101.442L409.9 99.9121C410.345 99.6555 410.555 99.4041 410.531 99.158C410.512 98.9154 410.314 98.6851 409.937 98.4671C409.504 98.2175 409.011 98.0944 408.457 98.0979C407.909 98.1049 407.358 98.2684 406.804 98.5884L404.556 99.8858L403.835 99.4691ZM410.288 103.195C410.032 103.047 409.904 102.892 409.904 102.73C409.91 102.572 410.035 102.423 410.278 102.282L413.329 100.521L411.987 99.7454L412.617 99.3816L413.96 100.157L415.549 99.2392L416.271 99.6558L414.681 100.573L416.143 101.417L415.513 101.781L414.051 100.937L411.11 102.636C410.927 102.741 410.924 102.845 411.1 102.947L412.096 103.522L411.475 103.88L410.288 103.195ZM412.176 104.285L418.57 100.593L419.292 101.01L416.652 102.534L416.78 102.608C416.975 102.566 417.191 102.546 417.428 102.55C417.678 102.553 417.94 102.588 418.214 102.655C418.494 102.726 418.786 102.849 419.091 103.024C419.426 103.218 419.651 103.432 419.767 103.668C419.895 103.903 419.901 104.146 419.785 104.396C419.676 104.642 419.42 104.881 419.018 105.113L416.314 106.674L415.592 106.257L418.241 104.728C418.686 104.471 418.896 104.22 418.872 103.974C418.853 103.731 418.656 103.501 418.278 103.283C417.846 103.033 417.352 102.91 416.798 102.914C416.25 102.921 415.699 103.084 415.145 103.404L412.898 104.702L412.176 104.285ZM419.028 108.388C418.577 108.128 418.276 107.845 418.123 107.539C417.977 107.23 417.983 106.92 418.142 106.611C418.3 106.302 418.607 106.015 419.064 105.751L419.174 105.688C419.637 105.421 420.136 105.242 420.672 105.15C421.208 105.059 421.738 105.055 422.261 105.14C422.791 105.221 423.272 105.386 423.705 105.635C424.125 105.878 424.405 106.145 424.545 106.437C424.691 106.725 424.688 107.019 424.536 107.318C424.384 107.617 424.082 107.896 423.631 108.156L423.303 108.346L419.658 106.242C419.195 106.53 418.973 106.838 418.991 107.165C419.015 107.488 419.247 107.777 419.685 108.03C420.069 108.251 420.453 108.371 420.836 108.388C421.22 108.406 421.588 108.376 421.942 108.299L422.261 108.831C421.981 108.888 421.665 108.923 421.311 108.937C420.964 108.954 420.596 108.925 420.206 108.847C419.822 108.773 419.43 108.62 419.028 108.388ZM420.261 105.904L423.166 107.581C423.555 107.328 423.735 107.059 423.705 106.775C423.68 106.493 423.467 106.237 423.065 106.005C422.657 105.769 422.206 105.642 421.713 105.625C421.22 105.607 420.736 105.7 420.261 105.904ZM423.312 110.714C423.056 110.567 422.929 110.412 422.929 110.25C422.935 110.092 423.06 109.943 423.303 109.802L426.354 108.041L425.011 107.265L425.642 106.901L426.984 107.677L428.574 106.759L429.295 107.176L427.706 108.093L429.168 108.937L428.537 109.301L427.076 108.457L424.134 110.155C423.952 110.261 423.949 110.365 424.125 110.467L425.121 111.041L424.5 111.4L423.312 110.714ZM425.201 111.805L429.668 109.226L430.389 109.642L425.922 112.221L425.201 111.805ZM430.727 109.036C430.569 108.945 430.487 108.837 430.481 108.714C430.481 108.595 430.56 108.489 430.718 108.398C430.883 108.303 431.068 108.255 431.275 108.255C431.488 108.259 431.674 108.306 431.833 108.398C431.991 108.489 432.07 108.595 432.07 108.714C432.07 108.834 431.988 108.941 431.823 109.036C431.665 109.127 431.482 109.173 431.275 109.173C431.068 109.173 430.886 109.127 430.727 109.036ZM428.699 113.972C428.266 113.722 427.968 113.444 427.803 113.139C427.651 112.833 427.648 112.522 427.794 112.205C427.946 111.892 428.26 111.599 428.735 111.324L428.836 111.266C429.317 110.989 429.825 110.807 430.361 110.723C430.909 110.639 431.445 110.642 431.969 110.734C432.505 110.825 432.989 110.996 433.421 111.245C433.847 111.491 434.131 111.746 434.271 112.01C434.417 112.277 434.444 112.536 434.353 112.785C434.268 113.038 434.1 113.265 433.85 113.466L433.001 113.144C433.19 113 433.318 112.841 433.385 112.669C433.458 112.5 433.448 112.326 433.357 112.147C433.266 111.968 433.074 111.794 432.782 111.625C432.483 111.453 432.148 111.337 431.777 111.277C431.411 111.221 431.034 111.224 430.644 111.287C430.261 111.354 429.895 111.488 429.548 111.688L429.466 111.736C429.119 111.936 428.887 112.147 428.772 112.369C428.662 112.594 428.656 112.812 428.753 113.023C428.857 113.237 429.058 113.43 429.356 113.603C429.801 113.859 430.254 113.988 430.717 113.988C431.186 113.991 431.619 113.91 432.014 113.745L432.572 114.246C432.212 114.376 431.813 114.466 431.375 114.515C430.936 114.564 430.486 114.547 430.023 114.462C429.566 114.381 429.125 114.218 428.699 113.972ZM390.544 104.796L391.229 104.4L392.124 104.917L397.148 102.016L396.253 101.499L396.938 101.104L399.432 102.544C400.272 103.029 400.708 103.526 400.738 104.036C400.775 104.549 400.351 105.061 399.468 105.571L398.281 106.256C397.392 106.77 396.503 107.016 395.614 106.995C394.737 106.974 393.878 106.721 393.038 106.235L390.544 104.796ZM392.901 105.355L393.732 105.835C394.353 106.193 394.974 106.376 395.595 106.383C396.216 106.39 396.847 106.209 397.486 105.84L398.738 105.117C399.389 104.741 399.706 104.375 399.688 104.02C399.669 103.665 399.35 103.308 398.728 102.95L397.897 102.47L392.901 105.355ZM397.905 109.046C397.649 108.898 397.522 108.743 397.522 108.582C397.528 108.423 397.652 108.274 397.896 108.133L400.947 106.372L399.604 105.597L400.235 105.233L401.577 106.008L403.167 105.09L403.888 105.507L402.299 106.425L403.76 107.268L403.13 107.632L401.669 106.788L398.727 108.487C398.545 108.592 398.542 108.696 398.718 108.798L399.714 109.373L399.093 109.731L397.905 109.046ZM401.009 110.985C400.699 110.806 400.47 110.611 400.324 110.4C400.178 110.189 400.135 109.982 400.196 109.778C400.257 109.574 400.437 109.386 400.735 109.213C401.04 109.038 401.363 108.936 401.704 108.908C402.051 108.876 402.401 108.906 402.754 108.997C403.113 109.085 403.451 109.22 403.768 109.403L405.275 110.273L405.604 110.084C405.921 109.901 406.076 109.702 406.07 109.488C406.07 109.277 405.887 109.066 405.522 108.855C405.163 108.647 404.794 108.537 404.417 108.523C404.045 108.505 403.677 108.559 403.311 108.686L402.854 108.169C403.177 108.067 403.518 108.004 403.878 107.979C404.243 107.951 404.617 107.978 405.001 108.058C405.397 108.139 405.781 108.287 406.152 108.501C406.725 108.832 407.02 109.175 407.038 109.53C407.062 109.881 406.807 110.212 406.271 110.521L404.252 111.687C404.069 111.792 404.063 111.894 404.234 111.993L404.645 112.23L404.033 112.583L403.403 112.22C403.202 112.104 403.095 111.979 403.083 111.845C403.077 111.708 403.168 111.585 403.357 111.476L403.403 111.45L403.293 111.386C403.11 111.414 402.897 111.432 402.654 111.439C402.422 111.446 402.169 111.416 401.895 111.349C401.615 111.286 401.32 111.165 401.009 110.985ZM401.713 110.674C402.139 110.92 402.608 111.047 403.119 111.054C403.643 111.061 404.133 110.933 404.59 110.669L404.691 110.611L403.211 109.757C402.925 109.591 402.623 109.491 402.306 109.456C402.002 109.421 401.725 109.475 401.475 109.62C401.225 109.764 401.125 109.931 401.174 110.121C401.229 110.314 401.408 110.498 401.713 110.674ZM405.702 113.547C405.446 113.4 405.319 113.245 405.319 113.083C405.325 112.925 405.45 112.776 405.693 112.635L408.744 110.873L407.401 110.098L408.032 109.734L409.374 110.51L410.964 109.592L411.685 110.008L410.096 110.926L411.558 111.77L410.927 112.134L409.466 111.29L406.524 112.988C406.342 113.094 406.339 113.197 406.515 113.299L407.511 113.874L406.89 114.233L405.702 113.547ZM408.806 115.487C408.496 115.308 408.267 115.113 408.121 114.902C407.975 114.691 407.932 114.483 407.993 114.279C408.054 114.075 408.234 113.887 408.532 113.715C408.837 113.539 409.16 113.437 409.501 113.409C409.848 113.378 410.198 113.407 410.551 113.499C410.91 113.587 411.248 113.722 411.565 113.905L413.072 114.775L413.401 114.585C413.718 114.402 413.873 114.204 413.867 113.989C413.867 113.778 413.684 113.567 413.319 113.356C412.96 113.149 412.591 113.038 412.214 113.024C411.842 113.007 411.474 113.061 411.108 113.188L410.652 112.671C410.974 112.569 411.315 112.506 411.675 112.481C412.04 112.453 412.415 112.479 412.798 112.56C413.194 112.641 413.578 112.789 413.949 113.003C414.522 113.334 414.817 113.676 414.835 114.031C414.86 114.383 414.604 114.714 414.068 115.023L412.049 116.189C411.866 116.294 411.86 116.396 412.031 116.494L412.442 116.732L411.83 117.085L411.2 116.721C410.999 116.605 410.892 116.48 410.88 116.347C410.874 116.21 410.965 116.087 411.154 115.978L411.2 115.951L411.09 115.888C410.907 115.916 410.694 115.934 410.451 115.941C410.219 115.948 409.966 115.918 409.692 115.851C409.412 115.788 409.117 115.666 408.806 115.487ZM409.51 115.176C409.936 115.422 410.405 115.549 410.916 115.556C411.44 115.563 411.93 115.434 412.387 115.171L412.488 115.113L411.008 114.258C410.722 114.093 410.42 113.993 410.103 113.958C409.799 113.923 409.522 113.977 409.272 114.121C409.023 114.265 408.922 114.432 408.971 114.622C409.026 114.816 409.205 115 409.51 115.176Z" fill="#131313"/>
<path d="M417.59 130.904V145.221" stroke="#131313" stroke-width="0.718844"/>
</g>
<path fill-rule="evenodd" clip-rule="evenodd" d="M332.682 84.2018C334.65 87.5931 333.496 91.9372 330.104 93.9046L296.696 113.026C293.304 114.994 288.96 113.839 286.993 110.448C285.025 107.057 286.18 102.713 289.571 100.745L322.98 81.6238C326.371 79.6563 330.715 80.8106 332.682 84.2018Z" fill="url(#paint3_linear_11012_2086)" stroke="#131313" stroke-width="0.73834" stroke-linecap="round"/>
<g filter="url(#filter3_d_11012_2086)">
<path d="M226.469 237.752L96.6797 162.504V140.175L220.027 119.736L356.365 140.18V162.503L226.469 237.752Z" fill="#131313"/>
<path d="M226.469 237.752L96.6797 162.504V140.175L220.027 119.736L356.365 140.18V162.503L226.469 237.752Z" fill="url(#paint4_linear_11012_2086)"/>
<path d="M226.469 237.752L96.6797 162.504V140.175L220.027 119.736L356.365 140.18V162.503L226.469 237.752Z" fill="url(#paint5_linear_11012_2086)"/>
<path d="M226.469 237.752L96.6797 162.504V140.175L220.027 119.736L356.365 140.18V162.503L226.469 237.752Z" stroke="white" stroke-width="0.843818"/>
<rect x="-3.41125e-08" y="0.572312" width="149.46" height="149.309" transform="matrix(0.866025 0.5 -0.866025 0.5 227.05 64.9072)" fill="#131313"/>
<rect x="-3.41125e-08" y="0.572312" width="149.46" height="149.309" transform="matrix(0.866025 0.5 -0.866025 0.5 227.05 64.9072)" fill="url(#paint6_linear_11012_2086)"/>
<rect x="-3.41125e-08" y="0.572312" width="149.46" height="149.309" transform="matrix(0.866025 0.5 -0.866025 0.5 227.05 64.9072)" fill="url(#paint7_linear_11012_2086)"/>
<rect x="-3.41125e-08" y="0.572312" width="149.46" height="149.309" transform="matrix(0.866025 0.5 -0.866025 0.5 227.05 64.9072)" stroke="white" stroke-width="1.14462"/>
<path d="M227.1 238.27V214.613" stroke="white" stroke-width="0.881098" stroke-linecap="round" stroke-linejoin="round"/>
</g>
<circle cx="3.88385" cy="3.88385" r="3.4433" transform="matrix(-0.866025 0.5 2.20305e-08 1 303.811 178.066)" fill="url(#paint8_linear_11012_2086)" fill-opacity="0.47" stroke="white" stroke-width="0.881098"/>
<circle cx="3.88385" cy="3.88385" r="3.4433" transform="matrix(-0.866025 0.5 2.20305e-08 1 291.615 185.105)" fill="url(#paint9_linear_11012_2086)" fill-opacity="0.47" stroke="white" stroke-width="0.881098"/>
<path fill-rule="evenodd" clip-rule="evenodd" d="M166.434 187.395C168.401 190.786 167.247 195.131 163.856 197.098L129.088 217.268C125.697 219.236 121.353 218.081 119.385 214.69C117.418 211.299 118.572 206.955 121.964 204.987L156.731 184.817C160.122 182.85 164.466 184.004 166.434 187.395Z" fill="url(#paint10_linear_11012_2086)" stroke="white" stroke-width="0.881098" stroke-linecap="round"/>
<g filter="url(#filter4_d_11012_2086)">
<path d="M17.127 180.219V193.668L67.8064 223.304L100.527 203.625V190.556L17.127 180.219Z" fill="url(#paint11_linear_11012_2086)"/>
<rect x="-2.16729e-08" y="0.36361" width="58.2186" height="37.6118" transform="matrix(0.866025 0.5 -0.866025 0.5 50.2251 161.24)" fill="#131313" stroke="white" stroke-width="0.72722"/>
<path d="M45.5542 179.911L53.3359 175.418L55.1145 176.445L49.9898 181.792L50.1343 181.875L59.3944 178.916L61.1731 179.943L53.3914 184.436L52.491 183.916L59.6612 179.776L59.5056 179.687L50.2788 182.639L48.6669 181.708L53.7805 176.381L53.6249 176.291L46.4547 180.431L45.5542 179.911ZM54.4961 185.074L62.2778 180.581L63.2116 181.12L55.4299 185.613L54.4961 185.074ZM56.2001 186.058L57.434 185.345L67.35 184.626L67.4834 184.549L63.2814 182.123L64.1151 181.642L69.2399 184.601L68.0059 185.313L58.0899 186.032L57.9565 186.109L62.3809 188.663L61.5472 189.145L56.2001 186.058ZM64.9298 191.277C64.3518 190.944 63.9516 190.593 63.7292 190.225C63.5069 189.857 63.481 189.487 63.6514 189.114C63.8293 188.738 64.2184 188.376 64.8187 188.03L69.999 185.039L70.9217 185.572L65.7302 188.569C65.0929 188.937 64.7853 189.311 64.8075 189.692C64.8298 190.073 65.1485 190.441 65.7636 190.796C66.3787 191.151 67.016 191.335 67.6756 191.348C68.3352 191.361 68.9837 191.183 69.621 190.815L74.8125 187.818L75.7463 188.357L70.5659 191.348C69.9656 191.695 69.3394 191.919 68.6872 192.022C68.0425 192.12 67.3977 192.103 66.753 191.971C66.1156 191.842 65.5079 191.611 64.9298 191.277Z" fill="white"/>
<path d="M17.127 180.219L17.127 193.668L67.8064 223.304L100.527 203.625V190.556" stroke="white" stroke-width="0.72722" stroke-linejoin="round"/>
<path d="M67.6934 209.129V222.976" stroke="white" stroke-width="0.72722"/>
</g>
<g filter="url(#filter5_d_11012_2086)">
<path d="M75.4551 214.127V227.576L126.135 257.212L158.855 237.533V224.464L75.4551 214.127Z" fill="url(#paint12_linear_11012_2086)"/>
<rect x="-2.16729e-08" y="0.36361" width="58.2186" height="37.6118" transform="matrix(0.866025 0.5 -0.866025 0.5 108.553 195.149)" fill="#131313" stroke="white" stroke-width="0.72722"/>
<path d="M100.074 211.62C99.7626 211.44 99.607 211.252 99.607 211.055C99.6144 210.862 99.7663 210.68 100.063 210.509L103.776 208.366L102.142 207.422L102.909 206.979L104.543 207.923L106.477 206.806L107.355 207.313L105.421 208.43L107.2 209.457L106.433 209.9L104.654 208.873L101.074 210.939C100.852 211.068 100.848 211.194 101.063 211.318L102.275 212.018L101.519 212.454L100.074 211.62ZM102.51 213.026L110.291 208.533L111.169 209.04L107.957 210.895L108.112 210.985C108.349 210.934 108.613 210.91 108.902 210.914C109.205 210.919 109.524 210.961 109.858 211.043C110.199 211.128 110.554 211.278 110.925 211.492C111.332 211.727 111.607 211.988 111.747 212.275C111.903 212.562 111.91 212.857 111.77 213.161C111.636 213.46 111.325 213.751 110.836 214.034L107.545 215.933L106.667 215.426L109.891 213.565C110.432 213.253 110.688 212.947 110.658 212.647C110.636 212.352 110.395 212.072 109.935 211.806C109.409 211.503 108.809 211.353 108.135 211.357C107.468 211.366 106.797 211.565 106.122 211.954L103.388 213.533L102.51 213.026ZM110.985 218.099C110.437 217.782 110.07 217.438 109.885 217.066C109.707 216.689 109.714 216.313 109.907 215.936C110.099 215.559 110.474 215.211 111.03 214.89L111.163 214.813C111.726 214.488 112.334 214.269 112.986 214.158C113.638 214.047 114.283 214.043 114.92 214.145C115.565 214.244 116.151 214.445 116.677 214.749C117.188 215.044 117.529 215.369 117.699 215.724C117.877 216.075 117.874 216.432 117.688 216.796C117.503 217.16 117.136 217.5 116.588 217.817L116.188 218.048L111.752 215.487C111.189 215.838 110.918 216.212 110.941 216.61C110.97 217.004 111.252 217.354 111.785 217.662C112.252 217.932 112.719 218.078 113.186 218.099C113.653 218.12 114.101 218.084 114.531 217.99L114.92 218.638C114.579 218.707 114.194 218.749 113.764 218.766C113.342 218.788 112.893 218.751 112.419 218.657C111.952 218.567 111.474 218.381 110.985 218.099ZM112.486 215.076L116.021 217.117C116.495 216.809 116.714 216.482 116.677 216.135C116.647 215.793 116.388 215.48 115.899 215.198C115.402 214.911 114.854 214.757 114.253 214.736C113.653 214.714 113.064 214.828 112.486 215.076ZM114.508 222.52L122.167 218.098L123.023 218.593L122.123 219.112L122.279 219.202C122.694 219.125 123.164 219.115 123.69 219.17C124.224 219.23 124.772 219.423 125.336 219.748C125.803 220.017 126.114 220.33 126.269 220.685C126.44 221.04 126.432 221.404 126.247 221.776C126.069 222.153 125.688 222.51 125.102 222.848L124.958 222.931C124.38 223.265 123.764 223.487 123.112 223.599C122.46 223.71 121.826 223.716 121.211 223.618C120.604 223.524 120.063 223.34 119.588 223.066C119.21 222.848 118.94 222.632 118.777 222.418C118.614 222.212 118.529 222.018 118.521 221.834C118.514 221.65 118.547 221.485 118.621 221.34L118.466 221.25L115.386 223.028L114.508 222.52ZM120.133 222.482C120.696 222.807 121.33 222.968 122.034 222.963C122.753 222.959 123.435 222.771 124.079 222.399L124.179 222.341C124.824 221.969 125.147 221.577 125.147 221.166C125.161 220.755 124.887 220.388 124.324 220.062C123.768 219.741 123.127 219.581 122.401 219.581C121.689 219.581 121.011 219.767 120.367 220.139L120.266 220.197C119.622 220.569 119.296 220.963 119.288 221.378C119.296 221.793 119.577 222.161 120.133 222.482ZM123.209 224.977L128.645 221.838L129.523 222.345L124.087 225.484L123.209 224.977ZM129.934 221.607C129.742 221.496 129.642 221.365 129.634 221.216C129.634 221.07 129.731 220.942 129.923 220.831C130.123 220.715 130.35 220.657 130.601 220.657C130.861 220.662 131.087 220.719 131.28 220.831C131.472 220.942 131.569 221.07 131.569 221.216C131.569 221.361 131.469 221.492 131.268 221.607C131.076 221.718 130.853 221.774 130.601 221.774C130.35 221.774 130.127 221.718 129.934 221.607ZM125.257 226.159L133.039 221.667L133.917 222.174L126.135 226.666L125.257 226.159ZM129.64 228.869C129.092 228.553 128.725 228.208 128.54 227.836C128.362 227.46 128.369 227.083 128.562 226.706C128.754 226.33 129.129 225.981 129.685 225.66L129.818 225.583C130.381 225.258 130.989 225.04 131.641 224.929C132.293 224.817 132.938 224.813 133.575 224.916C134.22 225.014 134.806 225.215 135.332 225.519C135.843 225.814 136.184 226.14 136.354 226.495C136.532 226.846 136.529 227.203 136.343 227.566C136.158 227.93 135.791 228.27 135.243 228.587L134.843 228.818L130.407 226.257C129.844 226.608 129.573 226.982 129.596 227.38C129.625 227.774 129.907 228.125 130.44 228.433C130.907 228.703 131.374 228.848 131.841 228.869C132.308 228.891 132.756 228.854 133.186 228.76L133.575 229.409C133.234 229.477 132.849 229.52 132.419 229.537C131.997 229.558 131.548 229.522 131.074 229.428C130.607 229.338 130.129 229.152 129.64 228.869ZM131.141 225.846L134.676 227.887C135.15 227.579 135.369 227.252 135.332 226.905C135.302 226.563 135.043 226.251 134.554 225.968C134.057 225.682 133.509 225.528 132.908 225.506C132.308 225.485 131.719 225.598 131.141 225.846Z" fill="white"/>
<path d="M75.4551 214.127L75.4551 227.576L126.135 257.212L158.855 237.533V224.464" stroke="white" stroke-width="0.72722" stroke-linejoin="round"/>
<path d="M126.021 243.035V256.883" stroke="white" stroke-width="0.72722"/>
</g>
<g filter="url(#filter6_d_11012_2086)">
<path d="M134.178 250.014V263.463L184.857 293.099L217.577 273.42V260.351L134.178 250.014Z" fill="url(#paint13_linear_11012_2086)"/>
<rect x="-2.16729e-08" y="0.36361" width="58.2186" height="37.6118" transform="matrix(0.866025 0.5 -0.866025 0.5 167.276 231.035)" fill="#131313" stroke="white" stroke-width="0.72722"/>
<path d="M158.797 247.506C158.485 247.327 158.33 247.138 158.33 246.942C158.337 246.749 158.489 246.567 158.785 246.396L162.498 244.252L160.864 243.309L161.631 242.866L163.265 243.809L165.2 242.693L166.078 243.2L164.144 244.317L165.922 245.343L165.155 245.786L163.377 244.759L159.797 246.826C159.575 246.954 159.571 247.081 159.786 247.205L160.998 247.904L160.242 248.341L158.797 247.506ZM161.232 248.913L169.014 244.42L169.892 244.927L166.679 246.782L166.835 246.872C167.072 246.82 167.335 246.797 167.624 246.801C167.928 246.805 168.247 246.848 168.58 246.929C168.921 247.015 169.277 247.165 169.647 247.379C170.055 247.614 170.329 247.875 170.47 248.162C170.626 248.448 170.633 248.744 170.492 249.047C170.359 249.347 170.048 249.638 169.559 249.92L166.268 251.82L165.39 251.313L168.614 249.452C169.155 249.139 169.41 248.833 169.381 248.534C169.358 248.239 169.118 247.958 168.658 247.693C168.132 247.389 167.532 247.24 166.857 247.244C166.19 247.252 165.52 247.451 164.845 247.841L162.11 249.42L161.232 248.913ZM169.708 253.986C169.159 253.669 168.792 253.325 168.607 252.952C168.429 252.576 168.437 252.199 168.629 251.823C168.822 251.446 169.196 251.097 169.752 250.777L169.886 250.7C170.449 250.374 171.057 250.156 171.709 250.045C172.361 249.934 173.006 249.929 173.643 250.032C174.288 250.13 174.873 250.332 175.399 250.635C175.911 250.931 176.252 251.256 176.422 251.611C176.6 251.962 176.596 252.319 176.411 252.683C176.226 253.046 175.859 253.387 175.31 253.703L174.91 253.934L170.475 251.373C169.912 251.724 169.641 252.099 169.663 252.497C169.693 252.89 169.975 253.241 170.508 253.549C170.975 253.819 171.442 253.964 171.909 253.986C172.376 254.007 172.824 253.971 173.254 253.877L173.643 254.525C173.302 254.593 172.917 254.636 172.487 254.653C172.064 254.675 171.616 254.638 171.142 254.544C170.675 254.454 170.197 254.268 169.708 253.986ZM171.208 250.963L174.744 253.004C175.218 252.696 175.436 252.368 175.399 252.022C175.37 251.679 175.11 251.367 174.621 251.085C174.125 250.798 173.576 250.644 172.976 250.623C172.376 250.601 171.787 250.715 171.208 250.963ZM173.231 258.407L180.89 253.985L181.746 254.479L180.846 254.999L181.001 255.089C181.416 255.012 181.887 255.001 182.413 255.057C182.947 255.117 183.495 255.309 184.058 255.635C184.525 255.904 184.836 256.216 184.992 256.572C185.163 256.927 185.155 257.29 184.97 257.663C184.792 258.039 184.41 258.396 183.825 258.735L183.68 258.818C183.102 259.152 182.487 259.374 181.835 259.485C181.183 259.597 180.549 259.603 179.934 259.505C179.326 259.411 178.785 259.227 178.311 258.953C177.933 258.735 177.663 258.518 177.499 258.305C177.336 258.099 177.251 257.904 177.244 257.72C177.236 257.536 177.27 257.372 177.344 257.226L177.188 257.136L174.109 258.914L173.231 258.407ZM178.856 258.369C179.419 258.694 180.053 258.854 180.757 258.85C181.476 258.846 182.157 258.658 182.802 258.285L182.902 258.227C183.547 257.855 183.869 257.464 183.869 257.053C183.884 256.642 183.61 256.274 183.047 255.949C182.491 255.628 181.85 255.468 181.123 255.468C180.412 255.468 179.734 255.654 179.089 256.026L178.989 256.084C178.344 256.456 178.018 256.85 178.011 257.265C178.018 257.68 178.3 258.048 178.856 258.369ZM181.932 260.863L187.368 257.725L188.246 258.232L182.81 261.37L181.932 260.863ZM188.657 257.494C188.464 257.383 188.364 257.252 188.357 257.102C188.357 256.957 188.453 256.829 188.646 256.717C188.846 256.602 189.072 256.544 189.324 256.544C189.584 256.548 189.81 256.606 190.002 256.717C190.195 256.829 190.291 256.957 190.291 257.102C190.291 257.248 190.191 257.378 189.991 257.494C189.798 257.605 189.576 257.661 189.324 257.661C189.072 257.661 188.85 257.605 188.657 257.494ZM183.98 262.046L191.762 257.553L192.64 258.06L184.858 262.553L183.98 262.046ZM188.363 264.756C187.814 264.439 187.447 264.095 187.262 263.723C187.084 263.346 187.092 262.97 187.284 262.593C187.477 262.217 187.851 261.868 188.407 261.547L188.541 261.47C189.104 261.145 189.712 260.927 190.364 260.815C191.016 260.704 191.661 260.7 192.298 260.803C192.943 260.901 193.528 261.102 194.054 261.406C194.566 261.701 194.907 262.026 195.077 262.381C195.255 262.732 195.251 263.09 195.066 263.453C194.881 263.817 194.514 264.157 193.965 264.474L193.565 264.705L189.13 262.144C188.567 262.495 188.296 262.869 188.318 263.267C188.348 263.661 188.63 264.012 189.163 264.32C189.63 264.589 190.097 264.735 190.564 264.756C191.031 264.777 191.479 264.741 191.909 264.647L192.298 265.295C191.957 265.364 191.572 265.406 191.142 265.424C190.719 265.445 190.271 265.409 189.797 265.314C189.33 265.225 188.852 265.038 188.363 264.756ZM189.863 261.733L193.399 263.774C193.873 263.466 194.091 263.139 194.054 262.792C194.025 262.45 193.765 262.137 193.276 261.855C192.78 261.568 192.231 261.414 191.631 261.393C191.031 261.372 190.442 261.485 189.863 261.733Z" fill="white"/>
<path d="M134.178 250.014L134.178 263.463L184.857 293.099L217.577 273.42V260.351" stroke="url(#paint14_linear_11012_2086)" stroke-width="0.72722" stroke-linejoin="round"/>
<path d="M184.744 278.922V292.769" stroke="white" stroke-width="0.72722"/>
</g>
<g filter="url(#filter7_d_11012_2086)">
<path d="M161.316 78.9637C161.316 71.66 165.293 64.9368 171.692 61.4233L219.531 35.1558C225.522 31.8662 232.777 31.8662 238.768 35.1557L286.607 61.4233C293.006 64.9368 296.984 71.66 296.984 78.9637V136.548C296.984 143.852 293.006 150.575 286.607 154.088L238.768 180.356C232.777 183.646 225.522 183.646 219.531 180.356L171.692 154.088C165.293 150.575 161.316 143.852 161.316 136.548V78.9637Z" fill="#131313"/>
<path d="M161.316 78.9637C161.316 71.66 165.293 64.9368 171.692 61.4233L219.531 35.1558C225.522 31.8662 232.777 31.8662 238.768 35.1557L286.607 61.4233C293.006 64.9368 296.984 71.66 296.984 78.9637V136.548C296.984 143.852 293.006 150.575 286.607 154.088L238.768 180.356C232.777 183.646 225.522 183.646 219.531 180.356L171.692 154.088C165.293 150.575 161.316 143.852 161.316 136.548V78.9637Z" fill="url(#paint15_linear_11012_2086)"/>
<path d="M161.316 78.9637C161.316 71.66 165.293 64.9368 171.692 61.4233L219.531 35.1558C225.522 31.8662 232.777 31.8662 238.768 35.1557L286.607 61.4233C293.006 64.9368 296.984 71.66 296.984 78.9637V136.548C296.984 143.852 293.006 150.575 286.607 154.088L238.768 180.356C232.777 183.646 225.522 183.646 219.531 180.356L171.692 154.088C165.293 150.575 161.316 143.852 161.316 136.548V78.9637Z" stroke="white" stroke-width="0.881098"/>
<mask id="path-36-inside-1_11012_2086" fill="white">
<path fill-rule="evenodd" clip-rule="evenodd" d="M197.985 46.6743L195.961 47.783C203.146 45.038 213.314 43.8634 218.785 47.6214C221.928 49.7803 224.416 49.3785 227.521 48.877C230.124 48.4566 233.161 47.9662 237.38 48.8547C245.186 50.4984 246.831 54.197 248.538 58.0356C249.355 59.8715 250.186 61.7394 251.712 63.4299C254.289 66.2853 258.102 67.6309 261.893 68.9687C266.193 70.4863 270.465 71.9939 272.874 75.684C276.929 81.8924 271.008 85.3731 266.575 87.9788C265.808 88.4297 265.086 88.8544 264.467 89.2626L265.775 88.7126L242.982 100.752C236.426 104.216 232.258 110.96 232.092 118.376L231.21 157.692C231.074 163.753 224.521 167.475 219.251 164.484C215.237 162.206 212.757 157.946 212.757 153.329V113.579C212.757 112.019 211.906 110.582 210.539 109.832C207.693 108.271 204.215 110.331 204.215 113.579V133.892C204.215 139.1 198.767 142.51 194.087 140.232C190.207 138.343 187.745 134.405 187.745 130.088V99.9974C187.745 98.4135 186.886 96.9547 185.501 96.1879C182.601 94.582 179.043 96.6807 179.043 99.9974V121.719C179.043 125.304 177.044 128.22 174.269 129.72C172.644 130.598 171.235 131.911 170.689 133.677C170.076 135.656 168.995 137.13 165.961 136.831C161.884 136.429 160.883 133.002 160.883 131.257V78.6674C160.883 71.0991 165.06 64.1499 171.742 60.6033L197.985 46.6743Z"/>
</mask>
<path fill-rule="evenodd" clip-rule="evenodd" d="M197.985 46.6743L195.961 47.783C203.146 45.038 213.314 43.8634 218.785 47.6214C221.928 49.7803 224.416 49.3785 227.521 48.877C230.124 48.4566 233.161 47.9662 237.38 48.8547C245.186 50.4984 246.831 54.197 248.538 58.0356C249.355 59.8715 250.186 61.7394 251.712 63.4299C254.289 66.2853 258.102 67.6309 261.893 68.9687C266.193 70.4863 270.465 71.9939 272.874 75.684C276.929 81.8924 271.008 85.3731 266.575 87.9788C265.808 88.4297 265.086 88.8544 264.467 89.2626L265.775 88.7126L242.982 100.752C236.426 104.216 232.258 110.96 232.092 118.376L231.21 157.692C231.074 163.753 224.521 167.475 219.251 164.484C215.237 162.206 212.757 157.946 212.757 153.329V113.579C212.757 112.019 211.906 110.582 210.539 109.832C207.693 108.271 204.215 110.331 204.215 113.579V133.892C204.215 139.1 198.767 142.51 194.087 140.232C190.207 138.343 187.745 134.405 187.745 130.088V99.9974C187.745 98.4135 186.886 96.9547 185.501 96.1879C182.601 94.582 179.043 96.6807 179.043 99.9974V121.719C179.043 125.304 177.044 128.22 174.269 129.72C172.644 130.598 171.235 131.911 170.689 133.677C170.076 135.656 168.995 137.13 165.961 136.831C161.884 136.429 160.883 133.002 160.883 131.257V78.6674C160.883 71.0991 165.06 64.1499 171.742 60.6033L197.985 46.6743Z" fill="white"/>
<path d="M197.985 46.6743L200.267 50.8409L195.758 42.4782L197.985 46.6743ZM195.961 47.783L193.679 43.6164L197.656 52.2207L195.961 47.783ZM218.785 47.6214L216.095 51.537L216.095 51.537L218.785 47.6214ZM227.521 48.877L226.764 44.1872V44.1872L227.521 48.877ZM237.38 48.8547L236.401 53.5033L236.401 53.5033L237.38 48.8547ZM248.538 58.0356L244.198 59.9664V59.9664L248.538 58.0356ZM251.712 63.4299L255.238 60.247L255.238 60.2468L251.712 63.4299ZM261.893 68.9687L260.312 73.4485H260.312L261.893 68.9687ZM272.874 75.684L268.897 78.2814L268.897 78.2814L272.874 75.684ZM266.575 87.9788L264.168 83.8834L264.168 83.8834L266.575 87.9788ZM264.467 89.2626L261.851 85.2975L266.309 93.6416L264.467 89.2626ZM265.775 88.7126L267.994 92.9131L263.933 84.3336L265.775 88.7126ZM242.982 100.752L240.763 96.5518L240.763 96.5518L242.982 100.752ZM232.092 118.376L227.343 118.27V118.27L232.092 118.376ZM231.21 157.692L235.959 157.798V157.798L231.21 157.692ZM219.251 164.484L221.595 160.352L221.595 160.352L219.251 164.484ZM210.539 109.832L208.254 113.997L208.254 113.997L210.539 109.832ZM194.087 140.232L192.007 144.503L192.008 144.503L194.087 140.232ZM185.501 96.1879L187.802 92.0319L187.802 92.0319L185.501 96.1879ZM174.269 129.72L176.527 133.899L176.527 133.899L174.269 129.72ZM170.689 133.677L175.227 135.081L175.227 135.081L170.689 133.677ZM165.961 136.831L166.427 132.103L166.427 132.103L165.961 136.831ZM171.742 60.6033L169.515 56.4072L169.515 56.4073L171.742 60.6033ZM195.703 42.5077L193.679 43.6164L198.243 51.9496L200.267 50.8409L195.703 42.5077ZM197.656 52.2207C200.814 51.0142 204.646 50.1545 208.208 50.0102C211.895 49.8609 214.588 50.5015 216.095 51.537L221.475 43.7057C217.511 40.9832 212.385 40.3322 207.823 40.5169C203.137 40.7067 198.292 41.8068 194.265 43.3453L197.656 52.2207ZM216.095 51.537C218.337 53.0773 220.545 53.8117 222.807 53.9837C224.871 54.1408 226.84 53.7991 228.279 53.5668L226.764 44.1872C225.097 44.4564 224.269 44.5664 223.527 44.51C222.983 44.4686 222.375 44.3244 221.475 43.7057L216.095 51.537ZM228.279 53.5668C230.777 53.1632 233.085 52.805 236.401 53.5033L238.359 44.2061C233.237 43.1275 229.471 43.75 226.764 44.1872L228.279 53.5668ZM236.401 53.5033C239.639 54.185 241.084 55.1735 241.877 55.9713C242.773 56.8722 243.304 57.9561 244.198 59.9664L252.879 56.1049C252.066 54.2765 250.92 51.5918 248.615 49.2728C246.207 46.8507 242.927 45.168 238.359 44.2061L236.401 53.5033ZM244.198 59.9664C244.986 61.7388 246.083 64.2843 248.185 66.613L255.238 60.2468C254.288 59.1946 253.724 58.0042 252.879 56.1049L244.198 59.9664ZM248.185 66.6129C251.716 70.5252 256.784 72.2037 260.312 73.4485L263.474 64.489C259.419 63.058 256.862 62.0454 255.238 60.247L248.185 66.6129ZM260.312 73.4485C264.976 75.0946 267.523 76.1776 268.897 78.2814L276.852 73.0865C273.406 67.8102 267.409 65.8779 263.474 64.489L260.312 73.4485ZM268.897 78.2814C269.506 79.2139 269.479 79.6287 269.478 79.6503C269.477 79.6718 269.478 79.8521 269.152 80.2732C268.793 80.736 268.185 81.2955 267.254 81.9548C266.33 82.6088 265.304 83.2154 264.168 83.8834L268.983 92.0741C270.975 90.903 274.464 88.9303 276.663 86.0916C277.864 84.5407 278.862 82.5239 278.97 80.0653C279.077 77.6067 278.27 75.2582 276.852 73.0865L268.897 78.2814ZM264.168 83.8834C263.43 84.3174 262.592 84.808 261.851 85.2975L267.084 93.2277C267.579 92.9009 268.187 92.5421 268.983 92.0741L264.168 83.8834ZM266.309 93.6416L267.616 93.0916L263.933 84.3336L262.625 84.8835L266.309 93.6416ZM263.556 84.5121L240.763 96.5518L245.201 104.953L267.994 92.9131L263.556 84.5121ZM240.763 96.5518C232.682 100.82 227.548 109.132 227.343 118.27L236.841 118.483C236.969 112.788 240.169 107.611 245.201 104.953L240.763 96.5518ZM227.343 118.27L226.461 157.585L235.959 157.798L236.841 118.483L227.343 118.27ZM226.461 157.585C226.405 160.058 223.735 161.567 221.595 160.352L216.906 168.615C225.307 173.383 235.743 167.448 235.959 157.798L226.461 157.585ZM221.595 160.352C219.069 158.919 217.507 156.237 217.507 153.329H208.006C208.006 159.654 211.404 165.494 216.906 168.616L221.595 160.352ZM217.507 153.329V113.579H208.006V153.329H217.507ZM217.507 113.579C217.507 110.285 215.713 107.252 212.824 105.667L208.254 113.997C208.1 113.913 208.006 113.752 208.006 113.579H217.507ZM212.824 105.667C206.807 102.366 199.465 106.725 199.465 113.579H208.966C208.966 113.634 208.946 113.731 208.89 113.825C208.842 113.907 208.783 113.958 208.732 113.989C208.68 114.02 208.607 114.047 208.51 114.05C208.399 114.054 208.303 114.024 208.254 113.997L212.824 105.667ZM199.465 113.579V133.892H208.966V113.579H199.465ZM199.465 133.892C199.465 135.595 197.686 136.7 196.166 135.96L192.008 144.503C199.847 148.319 208.966 142.604 208.966 133.892H199.465ZM196.166 135.961C193.922 134.868 192.496 132.588 192.496 130.088H182.995C182.995 136.221 186.493 141.818 192.007 144.503L196.166 135.961ZM192.496 130.088V99.9974H182.995V130.088H192.496ZM192.496 99.9974C192.496 96.6867 190.699 93.636 187.802 92.0319L183.2 100.344C183.072 100.273 182.995 100.14 182.995 99.9974H192.496ZM187.802 92.0319C181.731 88.6705 174.292 93.0663 174.292 99.9974H183.793C183.793 100.037 183.778 100.12 183.729 100.202C183.687 100.273 183.638 100.315 183.598 100.338C183.558 100.362 183.498 100.385 183.414 100.388C183.317 100.391 183.235 100.364 183.2 100.344L187.802 92.0319ZM174.292 99.9974V121.719H183.793V99.9974H174.292ZM174.292 121.719C174.292 123.431 173.367 124.807 172.01 125.54L176.527 133.899C180.722 131.632 183.793 127.177 183.793 121.719H174.292ZM172.01 125.54C169.75 126.762 167.194 128.9 166.151 132.272L175.227 135.081C175.276 134.922 175.537 134.434 176.527 133.899L172.01 125.54ZM166.151 132.272C166.107 132.413 166.07 132.515 166.04 132.588C166.025 132.623 166.013 132.649 166.005 132.667C166.001 132.676 165.997 132.682 165.995 132.686C165.993 132.691 165.992 132.693 165.992 132.693C165.993 132.69 166.075 132.55 166.273 132.393C166.369 132.316 166.472 132.252 166.575 132.202C166.677 132.154 166.757 132.13 166.801 132.119C166.883 132.1 166.789 132.139 166.427 132.103L165.494 141.558C167.841 141.79 170.225 141.391 172.193 139.824C174.029 138.361 174.817 136.404 175.227 135.081L166.151 132.272ZM166.427 132.103C166.063 132.067 165.929 131.985 165.913 131.975C165.892 131.962 165.868 131.945 165.83 131.889C165.783 131.819 165.726 131.704 165.683 131.548C165.663 131.473 165.649 131.403 165.642 131.345C165.633 131.284 165.633 131.253 165.633 131.257H156.132C156.132 132.879 156.565 135.146 157.956 137.206C159.475 139.455 161.993 141.213 165.494 141.558L166.427 132.103ZM165.633 131.257V78.6674H156.132V131.257H165.633ZM165.633 78.6674C165.633 72.8559 168.841 67.5214 173.969 64.7994L169.515 56.4073C161.28 60.7785 156.132 69.3423 156.132 78.6674H165.633ZM173.969 64.7995L200.212 50.8704L195.758 42.4782L169.515 56.4072L173.969 64.7995Z" fill="white" mask="url(#path-36-inside-1_11012_2086)"/>
</g>
<defs>
<filter id="filter0_d_11012_2086" x="241.025" y="0.77156" width="105.342" height="83.8924" filterUnits="userSpaceOnUse" color-interpolation-filters="sRGB">
<feFlood flood-opacity="0" result="BackgroundImageFix"/>
<feColorMatrix in="SourceAlpha" type="matrix" values="0 0 0 0 0 0 0 0 0 0 0 0 0 0 0 0 0 0 127 0" result="hardAlpha"/>
<feOffset/>
<feGaussianBlur stdDeviation="5.51461"/>
<feComposite in2="hardAlpha" operator="out"/>
<feColorMatrix type="matrix" values="0 0 0 0 0.998226 0 0 0 0 0.998226 0 0 0 0 0.998226 0 0 0 0.27 0"/>
<feBlend mode="normal" in2="BackgroundImageFix" result="effect1_dropShadow_11012_2086"/>
<feBlend mode="normal" in="SourceGraphic" in2="effect1_dropShadow_11012_2086" result="shape"/>
</filter>
<filter id="filter1_d_11012_2086" x="298.344" y="36.6485" width="105.342" height="83.8905" filterUnits="userSpaceOnUse" color-interpolation-filters="sRGB">
<feFlood flood-opacity="0" result="BackgroundImageFix"/>
<feColorMatrix in="SourceAlpha" type="matrix" values="0 0 0 0 0 0 0 0 0 0 0 0 0 0 0 0 0 0 127 0" result="hardAlpha"/>
<feOffset/>
<feGaussianBlur stdDeviation="5.51461"/>
<feComposite in2="hardAlpha" operator="out"/>
<feColorMatrix type="matrix" values="0 0 0 0 0.998226 0 0 0 0 0.998226 0 0 0 0 0.998226 0 0 0 0.27 0"/>
<feBlend mode="normal" in2="BackgroundImageFix" result="effect1_dropShadow_11012_2086"/>
<feBlend mode="normal" in="SourceGraphic" in2="effect1_dropShadow_11012_2086" result="shape"/>
</filter>
<filter id="filter2_d_11012_2086" x="356.162" y="72.3595" width="105.342" height="83.8905" filterUnits="userSpaceOnUse" color-interpolation-filters="sRGB">
<feFlood flood-opacity="0" result="BackgroundImageFix"/>
<feColorMatrix in="SourceAlpha" type="matrix" values="0 0 0 0 0 0 0 0 0 0 0 0 0 0 0 0 0 0 127 0" result="hardAlpha"/>
<feOffset/>
<feGaussianBlur stdDeviation="5.51461"/>
<feComposite in2="hardAlpha" operator="out"/>
<feColorMatrix type="matrix" values="0 0 0 0 0.998226 0 0 0 0 0.998226 0 0 0 0 0.998226 0 0 0 0.27 0"/>
<feBlend mode="normal" in2="BackgroundImageFix" result="effect1_dropShadow_11012_2086"/>
<feBlend mode="normal" in="SourceGraphic" in2="effect1_dropShadow_11012_2086" result="shape"/>
</filter>
<filter id="filter3_d_11012_2086" x="86.6594" y="55.0227" width="279.921" height="193.287" filterUnits="userSpaceOnUse" color-interpolation-filters="sRGB">
<feFlood flood-opacity="0" result="BackgroundImageFix"/>
<feColorMatrix in="SourceAlpha" type="matrix" values="0 0 0 0 0 0 0 0 0 0 0 0 0 0 0 0 0 0 127 0" result="hardAlpha"/>
<feOffset/>
<feGaussianBlur stdDeviation="4.79921"/>
<feComposite in2="hardAlpha" operator="out"/>
<feColorMatrix type="matrix" values="0 0 0 0 0.998226 0 0 0 0 0.998226 0 0 0 0 0.998226 0 0 0 0.13 0"/>
<feBlend mode="normal" in2="BackgroundImageFix" result="effect1_dropShadow_11012_2086"/>
<feBlend mode="normal" in="SourceGraphic" in2="effect1_dropShadow_11012_2086" result="shape"/>
</filter>
<filter id="filter4_d_11012_2086" x="0.612244" y="144.964" width="116.445" height="94.799" filterUnits="userSpaceOnUse" color-interpolation-filters="sRGB">
<feFlood flood-opacity="0" result="BackgroundImageFix"/>
<feColorMatrix in="SourceAlpha" type="matrix" values="0 0 0 0 0 0 0 0 0 0 0 0 0 0 0 0 0 0 127 0" result="hardAlpha"/>
<feOffset/>
<feGaussianBlur stdDeviation="8.04739"/>
<feComposite in2="hardAlpha" operator="out"/>
<feColorMatrix type="matrix" values="0 0 0 0 0.998226 0 0 0 0 0.998226 0 0 0 0 0.998226 0 0 0 0.16 0"/>
<feBlend mode="normal" in2="BackgroundImageFix" result="effect1_dropShadow_11012_2086"/>
<feBlend mode="normal" in="SourceGraphic" in2="effect1_dropShadow_11012_2086" result="shape"/>
</filter>
<filter id="filter5_d_11012_2086" x="58.9404" y="178.872" width="116.445" height="94.799" filterUnits="userSpaceOnUse" color-interpolation-filters="sRGB">
<feFlood flood-opacity="0" result="BackgroundImageFix"/>
<feColorMatrix in="SourceAlpha" type="matrix" values="0 0 0 0 0 0 0 0 0 0 0 0 0 0 0 0 0 0 127 0" result="hardAlpha"/>
<feOffset/>
<feGaussianBlur stdDeviation="8.04739"/>
<feComposite in2="hardAlpha" operator="out"/>
<feColorMatrix type="matrix" values="0 0 0 0 0.998226 0 0 0 0 0.998226 0 0 0 0 0.998226 0 0 0 0.16 0"/>
<feBlend mode="normal" in2="BackgroundImageFix" result="effect1_dropShadow_11012_2086"/>
<feBlend mode="normal" in="SourceGraphic" in2="effect1_dropShadow_11012_2086" result="shape"/>
</filter>
<filter id="filter6_d_11012_2086" x="117.663" y="214.759" width="116.445" height="94.799" filterUnits="userSpaceOnUse" color-interpolation-filters="sRGB">
<feFlood flood-opacity="0" result="BackgroundImageFix"/>
<feColorMatrix in="SourceAlpha" type="matrix" values="0 0 0 0 0 0 0 0 0 0 0 0 0 0 0 0 0 0 127 0" result="hardAlpha"/>
<feOffset/>
<feGaussianBlur stdDeviation="8.04739"/>
<feComposite in2="hardAlpha" operator="out"/>
<feColorMatrix type="matrix" values="0 0 0 0 0.998226 0 0 0 0 0.998226 0 0 0 0 0.998226 0 0 0 0.16 0"/>
<feBlend mode="normal" in2="BackgroundImageFix" result="effect1_dropShadow_11012_2086"/>
<feBlend mode="normal" in="SourceGraphic" in2="effect1_dropShadow_11012_2086" result="shape"/>
</filter>
<filter id="filter7_d_11012_2086" x="139.684" y="15.9305" width="177.223" height="188.008" filterUnits="userSpaceOnUse" color-interpolation-filters="sRGB">
<feFlood flood-opacity="0" result="BackgroundImageFix"/>
<feColorMatrix in="SourceAlpha" type="matrix" values="0 0 0 0 0 0 0 0 0 0 0 0 0 0 0 0 0 0 127 0" result="hardAlpha"/>
<feOffset/>
<feGaussianBlur stdDeviation="7.9"/>
<feComposite in2="hardAlpha" operator="out"/>
<feColorMatrix type="matrix" values="0 0 0 0 0.998226 0 0 0 0 0.998226 0 0 0 0 0.998226 0 0 0 0.2 0"/>
<feBlend mode="normal" in2="BackgroundImageFix" result="effect1_dropShadow_11012_2086"/>
<feBlend mode="normal" in="SourceGraphic" in2="effect1_dropShadow_11012_2086" result="shape"/>
</filter>
<linearGradient id="paint0_linear_11012_2086" x1="290.925" y1="36.7794" x2="299.546" y2="85.6314" gradientUnits="userSpaceOnUse">
<stop offset="0.0743273" stop-color="white"/>
<stop offset="1" stop-color="#999999"/>
</linearGradient>
<linearGradient id="paint1_linear_11012_2086" x1="348.244" y1="72.6563" x2="356.865" y2="121.508" gradientUnits="userSpaceOnUse">
<stop offset="0.0743273" stop-color="white"/>
<stop offset="1" stop-color="#999999"/>
</linearGradient>
<linearGradient id="paint2_linear_11012_2086" x1="406.062" y1="108.367" x2="414.683" y2="157.219" gradientUnits="userSpaceOnUse">
<stop offset="0.0743273" stop-color="white"/>
<stop offset="1" stop-color="#999999"/>
</linearGradient>
<linearGradient id="paint3_linear_11012_2086" x1="331.771" y1="82.486" x2="302.857" y2="103.217" gradientUnits="userSpaceOnUse">
<stop stop-color="white"/>
<stop offset="1" stop-color="#535353"/>
</linearGradient>
<linearGradient id="paint4_linear_11012_2086" x1="226.522" y1="197.573" x2="226.522" y2="238.24" gradientUnits="userSpaceOnUse">
<stop stop-color="#131313"/>
<stop offset="1" stop-color="#232222"/>
</linearGradient>
<linearGradient id="paint5_linear_11012_2086" x1="243.149" y1="145.405" x2="326.192" y2="207.158" gradientUnits="userSpaceOnUse">
<stop stop-color="#0A0A0A"/>
<stop offset="1" stop-color="#292929"/>
</linearGradient>
<linearGradient id="paint6_linear_11012_2086" x1="75.3024" y1="99.0078" x2="75.3024" y2="150.454" gradientUnits="userSpaceOnUse">
<stop stop-color="#131313"/>
<stop offset="1" stop-color="#232222"/>
</linearGradient>
<linearGradient id="paint7_linear_11012_2086" x1="127.41" y1="52.0751" x2="90.2799" y2="170.086" gradientUnits="userSpaceOnUse">
<stop stop-color="#0A0A0A"/>
<stop offset="1" stop-color="#232222"/>
</linearGradient>
<linearGradient id="paint8_linear_11012_2086" x1="-1.70671" y1="7.91249" x2="6.78913" y2="3.29084" gradientUnits="userSpaceOnUse">
<stop stop-color="white"/>
<stop offset="1" stop-color="#484848"/>
</linearGradient>
<linearGradient id="paint9_linear_11012_2086" x1="-1.70671" y1="7.91249" x2="6.78913" y2="3.29084" gradientUnits="userSpaceOnUse">
<stop stop-color="white"/>
<stop offset="1" stop-color="#484848"/>
</linearGradient>
<linearGradient id="paint10_linear_11012_2086" x1="164.018" y1="183.857" x2="127.78" y2="218.228" gradientUnits="userSpaceOnUse">
<stop offset="0.35" stop-color="#131313"/>
<stop offset="1" stop-color="#797979"/>
</linearGradient>
<linearGradient id="paint11_linear_11012_2086" x1="51.9886" y1="183.546" x2="58.8268" y2="232.229" gradientUnits="userSpaceOnUse">
<stop stop-color="#131313"/>
<stop offset="1" stop-color="#2D2D2D"/>
</linearGradient>
<linearGradient id="paint12_linear_11012_2086" x1="110.317" y1="217.454" x2="117.155" y2="266.137" gradientUnits="userSpaceOnUse">
<stop stop-color="#131313"/>
<stop offset="1" stop-color="#2D2D2D"/>
</linearGradient>
<linearGradient id="paint13_linear_11012_2086" x1="169.039" y1="253.341" x2="175.878" y2="302.024" gradientUnits="userSpaceOnUse">
<stop stop-color="#131313"/>
<stop offset="1" stop-color="#2D2D2D"/>
</linearGradient>
<linearGradient id="paint14_linear_11012_2086" x1="184.178" y1="258.495" x2="175.878" y2="293.099" gradientUnits="userSpaceOnUse">
<stop stop-color="white"/>
<stop offset="1" stop-color="#999999"/>
</linearGradient>
<linearGradient id="paint15_linear_11012_2086" x1="269.535" y1="102.507" x2="280.072" y2="148.024" gradientUnits="userSpaceOnUse">
<stop stop-color="#0A0A0A"/>
<stop offset="1" stop-color="#232222"/>
</linearGradient>
</defs>
</svg>
