<svg width="242" height="242" viewBox="0 0 242 242" fill="none" xmlns="http://www.w3.org/2000/svg">
<path d="M124.616 223.326C110.243 214.743 21.7283 161.507 14.8533 157.284V135.733L118.343 67.9101L227.956 135.462V158.226C226.667 159.027 221.064 162.593 213.056 167.69C204.485 173.144 193.158 180.353 181.414 187.803C157.989 202.662 132.899 218.486 124.616 223.326Z" fill="#131313" stroke="white" stroke-width="0.952756"/>
<line x1="124.418" y1="182.188" x2="124.418" y2="223.442" stroke="white" stroke-width="0.952756"/>
<path d="M15.7816 135.145L118.641 70.8245L227.687 135.16L124.828 200.727L15.7816 135.145Z" fill="#131313" stroke="white" stroke-width="0.952756"/>
<path d="M124.09 179.411C111.98 172.179 38.4428 127.951 32.4315 124.263V102.936L118.84 49.6982L210.379 106.111V125.05C209.232 125.765 204.575 128.728 197.953 132.943C190.79 137.501 181.327 143.523 171.517 149.747C151.976 162.143 131.051 175.34 124.09 179.411Z" fill="#131313" stroke="white" stroke-width="0.952756"/>
<line x1="124.004" y1="145.121" x2="124.004" y2="179.6" stroke="white" stroke-width="0.952756"/>
<rect x="-2.83943e-08" y="0.505151" width="107.533" height="101.401" transform="matrix(0.847872 0.5302 -0.847872 0.5302 119.303 48.5537)" fill="#131313" stroke="white" stroke-width="0.952756"/>
<path d="M144.798 87.3395C159.043 96.247 159.008 110.713 144.716 119.651C130.424 128.588 107.29 128.61 93.0454 119.702C78.8008 110.795 78.8353 96.3284 93.1277 87.3909C107.42 78.4535 130.554 78.4319 144.798 87.3395Z" fill="#131313" stroke="white" stroke-width="0.952756"/>
<mask id="path-8-inside-1_10757_1201" fill="white">
<path fill-rule="evenodd" clip-rule="evenodd" d="M154.212 109.507C158.114 101.524 155.016 92.4901 144.918 86.1757C130.351 77.0664 106.733 77.0664 92.1654 86.1757C82.0682 92.4898 78.9698 101.523 82.8703 109.506C84.5426 105.835 87.69 102.371 92.3126 99.4806C106.798 90.4224 130.284 90.4224 144.77 99.4806C149.393 102.372 152.54 105.836 154.212 109.507Z"/>
</mask>
<path fill-rule="evenodd" clip-rule="evenodd" d="M154.212 109.507C158.114 101.524 155.016 92.4901 144.918 86.1757C130.351 77.0664 106.733 77.0664 92.1654 86.1757C82.0682 92.4898 78.9698 101.523 82.8703 109.506C84.5426 105.835 87.69 102.371 92.3126 99.4806C106.798 90.4224 130.284 90.4224 144.77 99.4806C149.393 102.372 152.54 105.836 154.212 109.507Z" fill="#131313"/>
<path d="M144.918 86.1757L145.423 85.3679L144.918 86.1757ZM154.212 109.507L153.345 109.902L154.182 111.739L155.068 109.926L154.212 109.507ZM92.1654 86.1757L92.6705 86.9835L92.1654 86.1757ZM82.8703 109.506L82.0142 109.924L82.9005 111.738L83.7373 109.901L82.8703 109.506ZM92.3126 99.4806L91.8074 98.6728L92.3126 99.4806ZM144.77 99.4806L144.264 100.288L144.77 99.4806ZM144.413 86.9835C149.33 90.0585 152.467 93.7475 153.925 97.5564C155.378 101.35 155.194 105.33 153.356 109.089L155.068 109.926C157.133 105.702 157.35 101.173 155.705 96.875C154.065 92.5925 150.603 88.6074 145.423 85.3679L144.413 86.9835ZM92.6705 86.9835C99.7697 82.5442 109.131 80.2965 118.542 80.2965C127.953 80.2965 137.314 82.5442 144.413 86.9835L145.423 85.3679C137.955 80.698 128.223 78.391 118.542 78.391C108.86 78.391 99.1282 80.698 91.6602 85.3679L92.6705 86.9835ZM83.7263 109.088C81.8896 105.329 81.7058 101.349 83.1585 97.5558C84.617 93.7471 87.7535 90.0583 92.6705 86.9835L91.6602 85.3679C86.4801 88.6072 83.0188 92.5921 81.379 96.8743C79.7333 101.172 79.9505 105.701 82.0142 109.924L83.7263 109.088ZM83.7373 109.901C85.3159 106.436 88.3168 103.103 92.8177 100.288L91.8074 98.6728C87.0633 101.639 83.7694 105.234 82.0033 109.111L83.7373 109.901ZM92.8177 100.288C99.8761 95.8746 109.184 93.6397 118.541 93.6397C127.899 93.6397 137.206 95.8746 144.264 100.288L145.275 98.6728C137.847 94.0284 128.169 91.7342 118.541 91.7342C108.913 91.7342 99.2346 94.0284 91.8074 98.6728L92.8177 100.288ZM144.264 100.288C148.766 103.103 151.767 106.437 153.345 109.902L155.079 109.112C153.313 105.235 150.019 101.64 145.275 98.6728L144.264 100.288Z" fill="white" mask="url(#path-8-inside-1_10757_1201)"/>
<path d="M130.263 104.545C136.547 107.948 136.588 113.575 130.349 117.113C124.11 120.651 113.959 120.758 107.676 117.355C101.392 113.951 101.351 108.324 107.59 104.786C113.829 101.248 123.98 101.142 130.263 104.545Z" fill="#131313" stroke="white" stroke-width="0.952756"/>
<rect x="133.77" y="35.8139" width="8.99749" height="79.056" rx="4.49875" transform="rotate(15 133.77 35.8139)" fill="#131313" stroke="white" stroke-width="0.952756"/>
<path d="M154.506 32.5542C152.402 40.4074 144.272 45.0597 136.341 42.9347C128.411 40.8097 123.696 32.7158 125.8 24.8625C127.905 17.0092 136.034 12.357 143.965 14.482C151.896 16.607 156.61 24.7009 154.506 32.5542Z" fill="#131313" stroke="white" stroke-width="0.952756"/>
</svg>
