<svg width="296" height="259" viewBox="0 0 296 259" fill="none" xmlns="http://www.w3.org/2000/svg">
<g clip-path="url(#clip0_11255_243)">
<rect width="296" height="258" transform="translate(0 0.5)" fill="#101010"/>
<path opacity="0.78" fill-rule="evenodd" clip-rule="evenodd" d="M6.25892 191.865L40.6236 172.025L6.6074 151.586L-27.7573 171.426L6.25892 191.865ZM75.83 152.192L41.4652 172.032L75.4777 192.469L109.843 172.628L75.83 152.192ZM75.4114 151.94L41.0466 171.781L7.03032 151.342L41.3951 131.501L75.4114 151.94ZM76.2529 151.947L110.621 132.105L144.633 152.542L110.265 172.384L76.2529 151.947ZM75.8343 151.696L110.202 131.854L76.1858 111.415L41.8181 131.257L75.8343 151.696ZM145.406 112.022L111.044 131.861L145.056 152.298L179.419 132.458L145.406 112.022ZM144.988 111.77L110.625 131.61L76.6087 111.171L110.972 91.3312L144.988 111.77ZM145.829 111.778L180.197 91.9354L214.209 112.372L179.842 132.214L145.829 111.778ZM145.411 111.526L179.778 91.6839L145.762 71.2449L111.395 91.087L145.411 111.526ZM214.986 71.8501L180.62 91.6912L214.632 112.128L248.998 92.2869L214.986 71.8501ZM214.567 71.5986L180.201 91.4397L146.185 71.0007L180.551 51.1596L214.567 71.5986ZM215.409 71.6059L217.682 70.2933L217.263 70.0418L214.99 71.3544L180.974 50.9154L183.245 49.6042L182.826 49.3527L180.555 50.6639L146.542 30.2267L148.813 28.9152L148.395 28.6637L146.123 29.9752L124.473 16.9665L124.05 17.2106L145.7 30.2193L111.335 50.0604L89.6839 37.0514L89.261 37.2956L110.912 50.3046L76.5441 70.1467L54.8915 57.1365L54.4685 57.3807L76.1212 70.3909L41.7583 90.2304L20.1079 77.2215L19.685 77.4657L41.3353 90.4745L6.96763 110.317L-14.685 97.3065L-15.1079 97.5507L6.54472 110.561L-27.8201 130.401L-49.4721 117.392L-49.895 117.636L-28.243 130.646L-62.6077 150.486L-84.2592 137.477L-84.6822 137.721L-63.0307 150.73L-65.3047 152.043L-64.8861 152.295L-62.6121 150.982L-28.5988 171.419L-30.8734 172.732L-30.4548 172.984L-28.1802 171.671L5.83599 192.11L3.56392 193.421L3.98252 193.673L6.2546 192.361L40.2671 212.798L37.9935 214.111L38.412 214.362L40.6857 213.049L74.6998 233.487L72.4265 234.8L72.8451 235.051L75.1184 233.739L109.67 254.499L106.78 256.167L107.199 256.419L110.088 254.751L143.565 274.865L141.291 276.178L141.709 276.429L143.983 275.117L165.636 288.127L166.059 287.883L144.406 274.872L178.771 255.032L200.423 268.042L200.846 267.798L179.194 254.788L213.558 234.947L235.21 247.957L235.633 247.713L213.981 234.703L248.349 214.861L270.003 227.872L270.426 227.628L248.772 214.617L283.135 194.777L304.786 207.787L305.209 207.543L283.558 194.533L317.925 174.691L339.579 187.702L340.002 187.457L318.348 174.447L352.714 154.606L374.368 167.617L374.791 167.373L353.137 154.362L355.409 153.05L354.99 152.798L352.718 154.11L319.242 133.995L320.898 133.039L320.48 132.788L318.824 133.744L284.272 112.984L286.545 111.672L286.126 111.42L283.854 112.732L249.84 92.2943L252.112 90.9826L251.693 90.7311L249.421 92.0427L215.409 71.6059ZM249.417 92.5384L215.051 112.38L249.065 132.817L283.431 112.976L249.417 92.5384ZM283.849 113.228L249.484 133.069L284.035 153.829L318.401 133.988L283.849 113.228ZM318.819 134.24L284.453 154.081L317.93 174.195L352.296 154.354L318.819 134.24ZM146.119 30.4709L111.753 50.3119L145.766 70.7491L180.132 50.9081L146.119 30.4709ZM180.26 132.466L214.628 112.624L248.642 133.061L214.275 152.904L180.26 132.466ZM214.693 153.155L249.061 133.313L283.612 154.073L249.244 173.915L214.693 153.155ZM249.663 174.167L284.03 154.325L317.507 174.439L283.139 194.282L249.663 174.167ZM76.9627 70.3983L111.33 50.5561L145.343 70.9933L110.976 90.8355L76.9627 70.3983ZM179.838 132.71L145.475 152.549L179.489 172.987L213.852 153.148L179.838 132.71ZM214.27 153.399L179.907 173.239L214.458 193.999L248.821 174.16L214.27 153.399ZM249.24 174.411L214.877 194.251L248.353 214.365L282.716 194.526L249.24 174.411ZM76.5398 70.6424L42.1769 90.4819L76.1901 110.919L110.553 91.0796L76.5398 70.6424ZM110.684 172.636L145.052 152.794L179.066 173.231L144.698 193.074L110.684 172.636ZM145.117 193.325L179.484 173.483L214.036 194.243L179.668 214.085L145.117 193.325ZM180.086 214.337L214.454 194.495L247.931 214.609L213.563 234.452L180.086 214.337ZM7.38624 110.568L41.7539 90.7261L75.7671 111.163L41.3995 131.005L7.38624 110.568ZM110.261 172.88L75.8963 192.721L109.91 213.158L144.275 193.318L110.261 172.88ZM144.694 193.569L110.329 213.41L144.88 234.17L179.245 214.33L144.694 193.569ZM179.664 214.581L145.299 234.422L178.775 254.536L213.14 234.696L179.664 214.581ZM6.96332 110.812L-27.4015 130.653L6.61172 151.09L40.9765 131.25L6.96332 110.812ZM6.67753 192.117L41.0422 172.276L75.0548 192.713L40.6901 212.554L6.67753 192.117ZM41.1086 212.805L75.4734 192.965L109.487 213.402L75.1228 233.243L41.1086 212.805ZM75.5413 233.494L109.906 213.654L144.457 234.414L110.092 254.255L75.5413 233.494ZM110.511 254.506L144.876 234.666L178.352 254.78L143.987 274.621L110.511 254.506ZM-62.1891 150.738L-27.8244 130.897L6.1888 151.334L-28.1759 171.175L-62.1891 150.738Z" fill="url(#paint0_radial_11255_243)"/>
<g filter="url(#filter0_d_11255_243)">
<mask id="path-2-inside-1_11255_243" fill="white">
<path fill-rule="evenodd" clip-rule="evenodd" d="M235.737 133.44L209.204 117.729V109.583V109.496V97.0641C206.848 95.7201 202.138 96.8407 197.218 98.0116C193.687 98.8518 190.047 99.7179 187.09 99.7179C183.826 99.7179 180.173 98.8982 176.731 98.1258C176.39 98.0492 176.051 97.9731 175.714 97.8983L167.694 93.1493L167.694 38.9815L141.901 24.1094L116.747 38.5979L116.747 93.7994L112.752 96.1721C109.285 91.9626 105.3 88.4055 101.061 85.9576L101.062 85.9551C94.6308 82.2419 88.784 81.7575 84.4437 83.9699L79.4353 86.5218C79.0967 86.6561 78.766 86.8056 78.4437 86.9699L71.9814 90.2626C72.2783 90.1114 72.5838 90.0134 72.8976 89.9633C67.8302 92.1696 64.6309 97.8544 64.6309 106.249C64.6309 111.532 65.8981 117.206 68.1008 122.694L49.5996 133.683V158.879C53.8021 161.487 142.006 216.366 142.006 216.366C142.006 216.366 233.695 160.912 235.737 159.699V133.44Z"/>
</mask>
<path fill-rule="evenodd" clip-rule="evenodd" d="M235.737 133.44L209.204 117.729V109.583V109.496V97.0641C206.848 95.7201 202.138 96.8407 197.218 98.0116C193.687 98.8518 190.047 99.7179 187.09 99.7179C183.826 99.7179 180.173 98.8982 176.731 98.1258C176.39 98.0492 176.051 97.9731 175.714 97.8983L167.694 93.1493L167.694 38.9815L141.901 24.1094L116.747 38.5979L116.747 93.7994L112.752 96.1721C109.285 91.9626 105.3 88.4055 101.061 85.9576L101.062 85.9551C94.6308 82.2419 88.784 81.7575 84.4437 83.9699L79.4353 86.5218C79.0967 86.6561 78.766 86.8056 78.4437 86.9699L71.9814 90.2626C72.2783 90.1114 72.5838 90.0134 72.8976 89.9633C67.8302 92.1696 64.6309 97.8544 64.6309 106.249C64.6309 111.532 65.8981 117.206 68.1008 122.694L49.5996 133.683V158.879C53.8021 161.487 142.006 216.366 142.006 216.366C142.006 216.366 233.695 160.912 235.737 159.699V133.44Z" fill="url(#paint1_linear_11255_243)"/>
<path fill-rule="evenodd" clip-rule="evenodd" d="M235.737 133.44L209.204 117.729V109.583V109.496V97.0641C206.848 95.7201 202.138 96.8407 197.218 98.0116C193.687 98.8518 190.047 99.7179 187.09 99.7179C183.826 99.7179 180.173 98.8982 176.731 98.1258C176.39 98.0492 176.051 97.9731 175.714 97.8983L167.694 93.1493L167.694 38.9815L141.901 24.1094L116.747 38.5979L116.747 93.7994L112.752 96.1721C109.285 91.9626 105.3 88.4055 101.061 85.9576L101.062 85.9551C94.6308 82.2419 88.784 81.7575 84.4437 83.9699L79.4353 86.5218C79.0967 86.6561 78.766 86.8056 78.4437 86.9699L71.9814 90.2626C72.2783 90.1114 72.5838 90.0134 72.8976 89.9633C67.8302 92.1696 64.6309 97.8544 64.6309 106.249C64.6309 111.532 65.8981 117.206 68.1008 122.694L49.5996 133.683V158.879C53.8021 161.487 142.006 216.366 142.006 216.366C142.006 216.366 233.695 160.912 235.737 159.699V133.44Z" fill="url(#paint2_linear_11255_243)"/>
<path d="M72.2283 90.7509L72.2292 90.7504L71.7336 89.7747L71.7327 89.7752L72.2283 90.7509ZM209.204 117.729H208.11V118.353L208.647 118.671L209.204 117.729ZM235.737 133.44H236.832V132.816L236.295 132.498L235.737 133.44ZM209.204 97.0641H210.299V96.4285L209.746 96.1136L209.204 97.0641ZM197.218 98.0116L197.471 99.0762H197.471L197.218 98.0116ZM176.731 98.1258L176.971 97.058H176.971L176.731 98.1258ZM175.714 97.8983L175.157 98.8399L175.307 98.9287L175.477 98.9665L175.714 97.8983ZM167.694 93.1493H166.6L166.6 93.773L167.137 94.0909L167.694 93.1493ZM167.694 38.9815L168.789 38.9815L168.789 38.3493L168.241 38.0335L167.694 38.9815ZM141.901 24.1094L142.448 23.1614L141.901 22.8464L141.355 23.1611L141.901 24.1094ZM116.747 38.5979L116.201 37.6496L115.653 37.9653V38.5979L116.747 38.5979ZM116.747 93.7994L117.306 94.7402L117.841 94.4222V93.7994L116.747 93.7994ZM112.752 96.1721L111.908 96.8678L112.504 97.5922L113.311 97.1129L112.752 96.1721ZM101.061 85.9576L100.086 85.4611L99.6149 86.3861L100.514 86.9053L101.061 85.9576ZM101.062 85.9551L102.037 86.4517L102.509 85.5266L101.61 85.0075L101.062 85.9551ZM84.4437 83.9699L84.9405 84.9449L84.9406 84.9448L84.4437 83.9699ZM79.4353 86.5218L79.8388 87.539L79.8864 87.5201L79.9321 87.4968L79.4353 86.5218ZM78.4437 86.9699L78.9405 87.9449L78.9406 87.9448L78.4437 86.9699ZM71.9814 90.2626L71.4846 89.2875L72.4781 91.2377L71.9814 90.2626ZM72.8976 89.9633L73.3345 90.9666L72.7249 88.8827L72.8976 89.9633ZM68.1008 122.694L68.6596 123.635L69.4654 123.156L69.1163 122.287L68.1008 122.694ZM49.5996 133.683L49.0408 132.743L48.5053 133.061V133.683H49.5996ZM49.5996 158.879H48.5053V159.488L49.0227 159.809L49.5996 158.879ZM142.006 216.366L141.428 217.295L141.998 217.649L142.573 217.302L142.006 216.366ZM235.737 159.699L236.296 160.64L236.832 160.322V159.699H235.737ZM208.647 118.671L235.18 134.382L236.295 132.498L209.762 116.787L208.647 118.671ZM208.11 109.583V117.729H210.299V109.583H208.11ZM208.11 109.496V109.583H210.299V109.496H208.11ZM208.11 97.0641V109.496H210.299V97.0641H208.11ZM197.471 99.0762C199.948 98.4867 202.292 97.9304 204.307 97.6808C206.376 97.4245 207.82 97.5345 208.662 98.0147L209.746 96.1136C208.232 95.2497 206.143 95.2481 204.038 95.5088C201.879 95.7763 199.407 96.3657 196.964 96.9471L197.471 99.0762ZM187.09 100.812C190.203 100.812 193.982 99.9064 197.471 99.0762L196.964 96.9471C193.391 97.7973 189.891 98.6236 187.09 98.6236V100.812ZM176.492 99.1935C179.903 99.9591 183.681 100.812 187.09 100.812V98.6236C183.971 98.6236 180.444 97.8374 176.971 97.058L176.492 99.1935ZM175.477 98.9665C175.812 99.041 176.15 99.1169 176.492 99.1935L176.971 97.058C176.63 96.9815 176.289 96.9052 175.952 96.8301L175.477 98.9665ZM167.137 94.0909L175.157 98.8399L176.272 96.9567L168.252 92.2076L167.137 94.0909ZM166.6 38.9815L166.6 93.1493H168.788L168.789 38.9815L166.6 38.9815ZM141.354 25.0574L167.148 39.9295L168.241 38.0335L142.448 23.1614L141.354 25.0574ZM117.293 39.5461L142.447 25.0576L141.355 23.1611L116.201 37.6496L117.293 39.5461ZM117.841 93.7994L117.841 38.5979L115.653 38.5979L115.653 93.7994L117.841 93.7994ZM113.311 97.1129L117.306 94.7402L116.188 92.8585L112.193 95.2312L113.311 97.1129ZM100.514 86.9053C104.618 89.2749 108.506 92.7377 111.908 96.8678L113.597 95.4764C110.065 91.1876 105.983 87.536 101.608 85.01L100.514 86.9053ZM100.087 85.4586L100.086 85.4611L102.036 86.4542L102.037 86.4517L100.087 85.4586ZM84.9406 84.9448C88.837 82.9587 94.2756 83.3004 100.515 86.9028L101.61 85.0075C94.9859 81.1833 88.731 80.5562 83.9467 82.995L84.9406 84.9448ZM79.9321 87.4968L84.9405 84.9449L83.9469 82.9949L78.9385 85.5468L79.9321 87.4968ZM78.9406 87.9448C79.2324 87.7961 79.5319 87.6608 79.8388 87.539L79.0317 85.5046C78.6615 85.6515 78.2997 85.815 77.9467 85.995L78.9406 87.9448ZM72.4782 91.2376L78.9405 87.9449L77.9469 85.9949L71.4846 89.2875L72.4782 91.2376ZM72.7249 88.8827C72.2989 88.9508 71.884 89.0842 71.4848 89.2875L72.4781 91.2377C72.6726 91.1386 72.8688 91.076 73.0703 91.0438L72.7249 88.8827ZM65.7252 106.249C65.7252 98.1042 68.8125 92.9354 73.3345 90.9666L72.4608 88.9599C66.8478 91.4038 63.5366 97.6045 63.5366 106.249H65.7252ZM69.1163 122.287C66.9539 116.898 65.7252 111.364 65.7252 106.249H63.5366C63.5366 111.7 64.8423 117.513 67.0852 123.102L69.1163 122.287ZM50.1584 134.624L68.6596 123.635L67.542 121.753L49.0408 132.743L50.1584 134.624ZM50.6939 158.879V133.683H48.5053V158.879H50.6939ZM142.006 216.366C142.584 215.437 142.584 215.436 142.583 215.436C142.583 215.436 142.582 215.435 142.58 215.434C142.578 215.432 142.574 215.43 142.568 215.427C142.558 215.42 142.542 215.41 142.521 215.397C142.478 215.37 142.415 215.331 142.331 215.279C142.164 215.175 141.916 215.021 141.593 214.82C140.946 214.417 139.996 213.826 138.786 213.073C136.366 211.568 132.904 209.414 128.737 206.821C120.402 201.635 109.245 194.694 97.957 187.671C75.3812 173.626 52.2785 159.254 50.1766 157.949L49.0227 159.809C51.1231 161.112 74.2239 175.483 96.8008 189.529C108.089 196.552 119.246 203.494 127.581 208.679C131.748 211.272 135.21 213.426 137.63 214.932C138.84 215.685 139.79 216.275 140.437 216.678C140.76 216.879 141.008 217.033 141.175 217.137C141.259 217.189 141.322 217.229 141.364 217.255C141.386 217.268 141.402 217.278 141.412 217.285C141.418 217.288 141.422 217.291 141.424 217.292C141.426 217.293 141.427 217.294 141.427 217.294C141.428 217.295 141.428 217.295 142.006 216.366ZM235.178 158.758C234.152 159.368 210.713 173.539 187.54 187.551C175.951 194.558 164.426 201.528 155.798 206.746C151.485 209.355 147.895 211.526 145.384 213.044C144.128 213.804 143.142 214.4 142.47 214.806C142.134 215.009 141.877 215.165 141.703 215.27C141.616 215.323 141.551 215.362 141.507 215.389C141.484 215.402 141.468 215.413 141.457 215.419C141.451 215.423 141.447 215.425 141.444 215.427C141.443 215.428 141.442 215.428 141.441 215.429C141.44 215.429 141.44 215.429 142.006 216.366C142.573 217.302 142.573 217.302 142.574 217.301C142.574 217.301 142.575 217.3 142.577 217.3C142.58 217.298 142.584 217.295 142.589 217.292C142.6 217.285 142.617 217.275 142.639 217.262C142.683 217.235 142.749 217.195 142.836 217.143C143.009 217.038 143.267 216.882 143.603 216.679C144.275 216.273 145.261 215.676 146.516 214.917C149.028 213.398 152.617 211.227 156.931 208.619C165.559 203.401 177.084 196.431 188.672 189.424C211.854 175.406 235.28 161.244 236.296 160.64L235.178 158.758ZM234.643 133.44V159.699H236.832V133.44H234.643Z" fill="white" mask="url(#path-2-inside-1_11255_243)"/>
</g>
<rect opacity="0.06" width="121.26" height="120.498" transform="matrix(0.857167 0.515038 -0.866025 0.5 145.358 111.715)" fill="white"/>
<path d="M141.794 215.933L141.791 215.935L141.058 215.479L138.251 213.733L128.202 207.48C119.867 202.294 108.71 195.353 97.4221 188.33C75.4987 174.691 53.0793 160.744 49.8767 158.754V134.117L142.511 79.0941L235.023 133.874V159.569C232.292 161.211 209.842 174.784 187.631 188.214C176.042 195.222 164.517 202.191 155.889 207.409L145.475 213.707L142.561 215.469L141.794 215.933Z" fill="url(#paint3_linear_11255_243)" stroke="white" stroke-width="0.99175"/>
<g filter="url(#filter1_i_11255_243)">
<circle cx="3.76384" cy="3.76384" r="3.34959" transform="matrix(-0.866025 0.5 2.20305e-08 1 180.785 175.992)" fill="#131313" stroke="white" stroke-width="0.828495"/>
<circle cx="3.76384" cy="3.76384" r="3.34959" transform="matrix(-0.866025 0.5 2.20305e-08 1 168.969 183.814)" fill="#131313" stroke="white" stroke-width="0.828495"/>
<circle cx="3.76384" cy="3.76384" r="3.34959" transform="matrix(-0.866025 0.5 2.20305e-08 1 157.152 191.637)" fill="#131313" stroke="white" stroke-width="0.828495"/>
</g>
<path d="M142.766 76.134L234.139 133.272L141.68 189.11L50.3069 133.951L142.766 76.134Z" fill="url(#paint4_linear_11255_243)" stroke="white" stroke-width="1.08534"/>
<path d="M224.236 152.623L228.929 149.768V151.095L224.236 153.951V152.623Z" fill="white"/>
<line x1="141.848" y1="189.014" x2="141.848" y2="215.463" stroke="white" stroke-width="0.899456"/>
<path d="M142.32 125.512L117.14 110.974L117.141 38.8969L141.682 24.7613L166.863 39.2805L166.863 111.285L142.32 125.512Z" fill="url(#paint5_linear_11255_243)"/>
<path d="M142.32 125.512L117.14 110.974L117.141 38.8969L141.682 24.7613L166.863 39.2805L166.863 111.285L142.32 125.512Z" fill="url(#paint6_linear_11255_243)"/>
<path d="M142.32 125.512L117.14 110.974L117.141 38.8969L141.682 24.7613L166.863 39.2805L166.863 111.285L142.32 125.512Z" fill="url(#paint7_linear_11255_243)"/>
<path d="M142.32 125.512L117.14 110.974L117.141 38.8969L141.682 24.7613L166.863 39.2805L166.863 111.285L142.32 125.512Z" stroke="white"/>
<path d="M117.012 87.8635L135.879 74.0095C136.594 73.4845 137.821 74.0687 138.666 75.3366L149.842 92.1001C150.718 93.4146 151.996 93.9858 152.694 93.3745L193.94 57.2467" stroke="white" stroke-width="1.02872" stroke-linecap="round"/>
<circle cx="8.15149" cy="8.15149" r="7.59323" transform="matrix(0.866025 0.5 -2.20305e-08 1 185.881 46.0625)" fill="#131313" stroke="white" stroke-width="1.11651"/>
<circle cx="7.60743" cy="7.60743" r="7.04918" transform="matrix(0.866025 0.5 -2.20305e-08 1 108.711 79.2402)" fill="#131313" stroke="white" stroke-width="1.11651"/>
<rect x="0.947687" width="27.8756" height="28.9907" transform="matrix(0.866025 -0.5 0.866025 0.5 116.704 39.1926)" fill="url(#paint8_linear_11255_243)" stroke="white" stroke-width="1.09429"/>
<mask id="path-17-inside-2_11255_243" fill="white">
<path fill-rule="evenodd" clip-rule="evenodd" d="M87.8087 92.6002L87.8087 92.6002C83.9911 89.1601 80.5041 86.0179 77.7627 87.4142L84.2249 84.1215C88.5652 81.9091 94.412 82.3935 100.844 86.1068L100.842 86.1093C114.234 93.842 125.09 112.645 125.09 128.109L125.087 128.111C125.063 136.095 122.14 141.709 117.462 144.094L110.998 147.387C113.652 146.034 112.383 143.024 110.776 139.211C109.538 136.274 108.099 132.861 108.099 129.363L110.477 129.173C108.451 117.563 103.173 104.464 95.4813 96.6328L94.7431 98.0819C92.374 96.7141 90.0351 94.6065 87.8087 92.6002Z"/>
</mask>
<path fill-rule="evenodd" clip-rule="evenodd" d="M87.8087 92.6002L87.8087 92.6002C83.9911 89.1601 80.5041 86.0179 77.7627 87.4142L84.2249 84.1215C88.5652 81.9091 94.412 82.3935 100.844 86.1068L100.842 86.1093C114.234 93.842 125.09 112.645 125.09 128.109L125.087 128.111C125.063 136.095 122.14 141.709 117.462 144.094L110.998 147.387C113.652 146.034 112.383 143.024 110.776 139.211C109.538 136.274 108.099 132.861 108.099 129.363L110.477 129.173C108.451 117.563 103.173 104.464 95.4813 96.6328L94.7431 98.0819C92.374 96.7141 90.0351 94.6065 87.8087 92.6002Z" fill="url(#paint9_linear_11255_243)"/>
<path d="M77.9888 87.8602L77.9898 87.8597L77.5356 86.9687L77.5346 86.9692L77.9888 87.8602ZM87.8087 92.6002L88.5158 91.8931L88.4974 91.8747L88.4781 91.8573L87.8087 92.6002ZM87.8087 92.6002L87.1016 93.3073L87.12 93.3257L87.1393 93.3431L87.8087 92.6002ZM77.7627 87.4142L77.3087 86.5232L78.2165 88.3053L77.7627 87.4142ZM84.2249 84.1215L84.6789 85.0125L84.679 85.0125L84.2249 84.1215ZM100.844 86.1068L101.735 86.5607L102.165 85.7152L101.344 85.2408L100.844 86.1068ZM100.842 86.1093L99.9513 85.6554L99.5206 86.5008L100.342 86.9753L100.842 86.1093ZM125.09 128.109L125.713 128.89L126.09 128.59V128.109H125.09ZM125.087 128.111L124.463 127.329L124.089 127.628L124.087 128.108L125.087 128.111ZM117.462 144.094L117.916 144.985L117.916 144.984L117.462 144.094ZM110.998 147.387L110.544 146.496L111.452 148.278L110.998 147.387ZM110.776 139.211L111.698 138.823H111.698L110.776 139.211ZM108.099 129.363L108.02 128.366L107.099 128.439V129.363H108.099ZM110.477 129.173L110.556 130.17L111.651 130.083L111.462 129.002L110.477 129.173ZM95.4813 96.6328L96.1947 95.932L95.221 94.9407L94.5902 96.1788L95.4813 96.6328ZM94.7431 98.0819L94.2431 98.9479L95.1557 99.4748L95.6341 98.5358L94.7431 98.0819ZM87.1016 93.3073L87.1016 93.3073L88.5158 91.8931L88.5158 91.8931L87.1016 93.3073ZM78.2165 88.3053C79.0964 87.8572 80.2359 88.047 81.858 89.0452C83.4552 90.0281 85.2077 91.6025 87.1393 93.3431L88.4781 91.8573C86.5921 90.1578 84.6923 88.441 82.9062 87.3419C81.1451 86.2581 79.1705 85.575 77.3088 86.5231L78.2165 88.3053ZM83.7709 83.2305L77.3087 86.5232L78.2167 88.3052L84.6789 85.0125L83.7709 83.2305ZM101.344 85.2408C94.7366 81.4262 88.5168 80.8114 83.7708 83.2306L84.679 85.0125C88.6137 83.0068 94.0875 83.3608 100.344 86.9728L101.344 85.2408ZM101.733 86.5631L101.735 86.5607L99.9525 85.6529L99.9513 85.6554L101.733 86.5631ZM100.342 86.9753C106.85 90.7332 112.798 97.2214 117.122 104.71C121.445 112.199 124.09 120.594 124.09 128.109H126.09C126.09 120.16 123.306 111.422 118.854 103.71C114.401 95.998 108.226 89.2181 101.342 85.2433L100.342 86.9753ZM124.466 127.327L124.463 127.329L125.711 128.892L125.713 128.89L124.466 127.327ZM117.916 144.984C123.052 142.367 126.062 136.31 126.087 128.114L124.087 128.108C124.064 135.88 121.228 141.051 117.008 143.203L117.916 144.984ZM111.452 148.278L117.916 144.985L117.008 143.202L110.544 146.496L111.452 148.278ZM109.855 139.6C110.679 141.555 111.329 143.119 111.494 144.354C111.573 144.948 111.523 145.371 111.391 145.679C111.267 145.965 111.033 146.247 110.544 146.496L111.453 148.278C112.291 147.85 112.893 147.248 113.227 146.47C113.553 145.714 113.583 144.893 113.476 144.089C113.268 142.528 112.48 140.68 111.698 138.823L109.855 139.6ZM107.099 129.363C107.099 133.097 108.632 136.698 109.855 139.6L111.698 138.823C110.444 135.85 109.099 132.624 109.099 129.363H107.099ZM110.398 128.177L108.02 128.366L108.179 130.36L110.556 130.17L110.398 128.177ZM111.462 129.002C109.416 117.276 104.079 103.959 96.1947 95.932L94.7679 97.3335C102.267 104.969 107.486 117.85 109.492 129.345L111.462 129.002ZM95.6341 98.5358L96.3723 97.0867L94.5902 96.1788L93.852 97.6279L95.6341 98.5358ZM87.1393 93.3431C89.3451 95.3308 91.765 97.5172 94.2431 98.9479L95.2431 97.2158C92.9831 95.911 90.7252 93.8822 88.4781 91.8573L87.1393 93.3431Z" fill="white" mask="url(#path-17-inside-2_11255_243)"/>
<mask id="path-19-inside-3_11255_243" fill="white">
<path fill-rule="evenodd" clip-rule="evenodd" d="M81.8077 95.6002L81.8077 95.6002C77.9901 92.1601 74.5032 89.0179 71.7617 90.4142L78.2239 87.1215C82.5643 84.9091 88.411 85.3935 94.8426 89.1068L94.8414 89.1093C108.233 96.842 119.089 115.645 119.089 131.109L119.086 131.111C119.062 139.095 116.139 144.709 111.461 147.094L104.997 150.387C107.651 149.034 106.382 146.024 104.775 142.211C103.537 139.274 102.098 135.861 102.098 132.363L104.476 132.173C102.45 120.563 97.1721 107.464 89.4803 99.6328L88.7421 101.082C86.373 99.7141 84.0342 97.6065 81.8077 95.6002Z"/>
</mask>
<path fill-rule="evenodd" clip-rule="evenodd" d="M81.8077 95.6002L81.8077 95.6002C77.9901 92.1601 74.5032 89.0179 71.7617 90.4142L78.2239 87.1215C82.5643 84.9091 88.411 85.3935 94.8426 89.1068L94.8414 89.1093C108.233 96.842 119.089 115.645 119.089 131.109L119.086 131.111C119.062 139.095 116.139 144.709 111.461 147.094L104.997 150.387C107.651 149.034 106.382 146.024 104.775 142.211C103.537 139.274 102.098 135.861 102.098 132.363L104.476 132.173C102.45 120.563 97.1721 107.464 89.4803 99.6328L88.7421 101.082C86.373 99.7141 84.0342 97.6065 81.8077 95.6002Z" fill="url(#paint10_linear_11255_243)"/>
<path d="M71.9878 90.8602L71.9888 90.8597L71.5346 89.9687L71.5337 89.9692L71.9878 90.8602ZM81.8077 95.6002L82.5148 94.8931L82.4964 94.8747L82.4771 94.8573L81.8077 95.6002ZM81.8077 95.6002L81.1006 96.3073L81.119 96.3257L81.1383 96.3431L81.8077 95.6002ZM71.7617 90.4142L71.3077 89.5232L72.2155 91.3053L71.7617 90.4142ZM78.2239 87.1215L78.6779 88.0125L78.6781 88.0125L78.2239 87.1215ZM94.8426 89.1068L95.7337 89.5607L96.1644 88.7152L95.3426 88.2408L94.8426 89.1068ZM94.8414 89.1093L93.9503 88.6554L93.5197 89.5008L94.3413 89.9753L94.8414 89.1093ZM119.089 131.109L119.712 131.89L120.089 131.59V131.109H119.089ZM119.086 131.111L118.462 130.329L118.088 130.628L118.086 131.108L119.086 131.111ZM111.461 147.094L111.915 147.985L111.915 147.984L111.461 147.094ZM104.997 150.387L104.543 149.496L105.451 151.278L104.997 150.387ZM104.775 142.211L105.697 141.823H105.697L104.775 142.211ZM102.098 132.363L102.019 131.366L101.098 131.439V132.363H102.098ZM104.476 132.173L104.555 133.17L105.65 133.083L105.461 132.002L104.476 132.173ZM89.4803 99.6328L90.1937 98.932L89.22 97.9407L88.5893 99.1788L89.4803 99.6328ZM88.7421 101.082L88.2421 101.948L89.1548 102.475L89.6331 101.536L88.7421 101.082ZM81.1006 96.3073L81.1006 96.3073L82.5148 94.8931L82.5148 94.8931L81.1006 96.3073ZM72.2155 91.3053C73.0954 90.8572 74.235 91.047 75.8571 92.0452C77.4543 93.0281 79.2067 94.6025 81.1383 96.3431L82.4771 94.8573C80.5911 93.1578 78.6913 91.441 76.9053 90.3419C75.1441 89.2581 73.1695 88.575 71.3079 89.5231L72.2155 91.3053ZM77.7699 86.2305L71.3077 89.5232L72.2157 91.3052L78.6779 88.0125L77.7699 86.2305ZM95.3426 88.2408C88.7356 84.4262 82.5158 83.8114 77.7698 86.2306L78.6781 88.0125C82.6127 86.0068 88.0865 86.3608 94.3426 89.9728L95.3426 88.2408ZM95.7324 89.5631L95.7337 89.5607L93.9516 88.6529L93.9503 88.6554L95.7324 89.5631ZM94.3413 89.9753C100.849 93.7332 106.797 100.221 111.121 107.71C115.444 115.199 118.089 123.594 118.089 131.109H120.089C120.089 123.16 117.305 114.422 112.853 106.71C108.4 98.998 102.225 92.2181 95.3414 88.2433L94.3413 89.9753ZM118.465 130.327L118.462 130.329L119.71 131.892L119.712 131.89L118.465 130.327ZM111.915 147.984C117.051 145.367 120.061 139.31 120.086 131.114L118.086 131.108C118.063 138.88 115.227 144.051 111.007 146.203L111.915 147.984ZM105.451 151.278L111.915 147.985L111.007 146.202L104.544 149.496L105.451 151.278ZM103.854 142.6C104.678 144.555 105.328 146.119 105.493 147.354C105.572 147.948 105.522 148.371 105.39 148.679C105.266 148.965 105.032 149.247 104.543 149.496L105.452 151.278C106.29 150.85 106.892 150.248 107.227 149.47C107.552 148.714 107.582 147.893 107.475 147.089C107.267 145.528 106.479 143.68 105.697 141.823L103.854 142.6ZM101.098 132.363C101.098 136.097 102.631 139.698 103.854 142.6L105.697 141.823C104.443 138.85 103.098 135.624 103.098 132.363H101.098ZM104.397 131.177L102.019 131.366L102.178 133.36L104.555 133.17L104.397 131.177ZM105.461 132.002C103.415 120.276 98.0779 106.959 90.1937 98.932L88.7669 100.333C96.2663 107.969 101.485 120.85 103.491 132.345L105.461 132.002ZM89.6331 101.536L90.3713 100.087L88.5893 99.1788L87.851 100.628L89.6331 101.536ZM81.1383 96.3431C83.3441 98.3308 85.764 100.517 88.2421 101.948L89.2421 100.216C86.9821 98.911 84.7242 96.8822 82.4771 94.8573L81.1383 96.3431Z" fill="white" mask="url(#path-19-inside-3_11255_243)"/>
<circle cx="28.0004" cy="28.0004" r="27.4578" transform="matrix(0.866025 0.5 -2.20305e-08 1 64.4121 78.4004)" fill="#131313" stroke="white" stroke-width="1.08534"/>
<path d="M88.0029 127.487C87.0413 126.931 86.1809 126.237 85.4218 125.405C84.6626 124.572 84.0616 123.633 83.6188 122.589C83.1886 121.537 82.9735 120.412 82.9735 119.214L82.9735 118.753L84.5487 119.663L84.5487 120.123C84.5487 121.394 84.8714 122.53 85.5167 123.531C86.162 124.517 86.9907 125.302 88.0029 125.887C89.0404 126.486 89.8312 126.672 90.3753 126.446C90.9194 126.219 91.1914 125.697 91.1914 124.879C91.1914 124.309 91.0712 123.787 90.8308 123.312C90.5904 122.837 90.2488 122.369 89.8059 121.909C89.3631 121.434 88.8443 120.945 88.2497 120.441L87.2438 119.575C86.472 118.896 85.7887 118.216 85.194 117.537C84.5994 116.858 84.1312 116.149 83.7896 115.411C83.4606 114.666 83.2961 113.863 83.2961 113.001C83.2961 112.139 83.4859 111.503 83.8655 111.094C84.2451 110.685 84.7702 110.506 85.4408 110.557C86.1114 110.608 86.8958 110.893 87.7942 111.412C88.6925 111.93 89.4959 112.577 90.2045 113.351C90.913 114.111 91.4761 114.962 91.8936 115.904C92.3112 116.832 92.5199 117.822 92.5199 118.874L92.5199 119.794L90.9447 118.885L90.9447 117.964C90.9447 117.219 90.8055 116.54 90.5271 115.926C90.2614 115.32 89.8882 114.768 89.4074 114.272C88.9392 113.782 88.4015 113.362 87.7942 113.012C86.9211 112.508 86.2189 112.329 85.6875 112.475C85.1561 112.606 84.8904 113.081 84.8904 113.899C84.8904 114.44 84.9979 114.94 85.213 115.4C85.4408 115.868 85.7634 116.332 86.1809 116.792C86.5985 117.238 87.0983 117.709 87.6803 118.205L88.6862 119.071C89.4453 119.699 90.1349 120.36 90.7549 121.054C91.3749 121.734 91.862 122.461 92.2163 123.235C92.5832 124.002 92.7666 124.838 92.7666 125.744C92.7666 126.65 92.5705 127.326 92.1783 127.771C91.7861 128.217 91.2294 128.422 90.5082 128.385C89.7996 128.341 88.9645 128.042 88.0029 127.487ZM87.2817 129.305L87.2817 108.881L88.7431 109.724L88.7431 130.149L87.2817 129.305Z" fill="white"/>
<ellipse cx="194.871" cy="132.725" rx="22.1148" ry="9.86513" fill="#118AFA"/>
<path d="M216.486 132.594C216.486 133.794 215.942 134.975 214.885 136.09C213.825 137.208 212.267 138.238 210.305 139.113C206.38 140.864 200.924 141.959 194.871 141.959C188.817 141.959 183.361 140.864 179.437 139.113C177.474 138.238 175.917 137.208 174.857 136.09C173.799 134.975 173.256 133.794 173.256 132.594C173.256 132.009 173.256 130.965 173.256 129.705C173.256 126.98 173.256 123.243 173.256 120.94C174.085 120.439 175.248 120.252 176.718 120.307C178.306 120.366 180.166 120.703 182.188 121.135C182.901 121.288 183.635 121.453 184.381 121.62C187.824 122.393 191.546 123.229 194.871 123.229C197.893 123.229 201.605 122.345 205.134 121.505C205.824 121.341 206.507 121.178 207.177 121.024C209.244 120.548 211.188 120.152 212.859 120.014C214.391 119.888 215.618 119.988 216.486 120.381V120.393V120.416V120.439V120.463V120.486V120.509V120.533V120.556V120.58V120.603V120.627V120.651V120.674V120.698V120.722V120.746V120.77V120.794V120.818V120.842V120.866V120.89V120.914V120.939V120.963V120.987V121.012V121.036V121.061V121.085V121.11V121.135V121.159V121.184V121.209V121.234V121.259V121.284V121.308V121.334V121.359V121.384V121.409V121.434V121.459V121.485V121.51V121.535V121.561V121.586V121.612V121.637V121.663V121.688V121.714V121.74V121.765V121.791V121.817V121.843V121.869V121.895V121.921V121.947V121.973V121.999V122.025V122.051V122.077V122.103V122.13V122.156V122.182V122.209V122.235V122.261V122.288V122.314V122.341V122.367V122.394V122.421V122.447V122.474V122.501V122.527V122.554V122.581V122.608V122.635V122.661V122.688V122.715V122.742V122.769V122.796V122.823V122.85V122.877V122.905V122.932V122.959V122.986V123.013V123.041V123.068V123.095V123.122V123.15V123.177V123.205V123.232V123.259V123.287V123.314V123.342V123.369V123.397V123.425V123.452V123.48V123.507V123.535V123.563V123.59V123.618V123.646V123.674V123.701V123.729V123.757V123.785V123.812V123.84V123.868V123.896V123.924V123.952V123.98V124.008V124.036V124.064V124.091V124.119V124.147V124.175V124.203V124.231V124.26V124.288V124.316V124.344V124.372V124.4V124.428V124.456V124.484V124.512V124.54V124.569V124.597V124.625V124.653V124.681V124.709V124.738V124.766V124.794V124.822V124.85V124.879V124.907V124.935V124.963V124.991V125.02V125.048V125.076V125.104V125.133V125.161V125.189V125.217V125.246V125.274V125.302V125.33V125.359V125.387V125.415V125.443V125.472V125.5V125.528V125.556V125.585V125.613V125.641V125.669V125.697V125.726V125.754V125.782V125.81V125.838V125.867V125.895V125.923V125.951V125.979V126.007V126.036V126.064V126.092V126.12V126.148V126.176V126.204V126.232V126.26V126.288V126.317V126.345V126.373V126.401V126.429V126.457V126.485V126.513V126.541V126.568V126.596V126.624V126.652V126.68V126.708V126.736V126.764V126.791V126.819V126.847V126.875V126.903V126.93V126.958V126.986V127.013V127.041V127.069V127.096V127.124V127.152V127.179V127.207V127.234V127.262V127.289V127.317V127.344V127.372V127.399V127.426V127.454V127.481V127.508V127.536V127.563V127.59V127.617V127.644V127.672V127.699V127.726V127.753V127.78V127.807V127.834V127.861V127.888V127.915V127.942V127.969V127.995V128.022V128.049V128.076V128.102V128.129V128.156V128.182V128.209V128.236V128.262V128.289V128.315V128.341V128.368V128.394V128.42V128.447V128.473V128.499V128.525V128.552V128.578V128.604V128.63V128.656V128.682V128.708V128.734V128.759V128.785V128.811V128.837V128.862V128.888V128.914V128.939V128.965V128.99V129.016V129.041V129.067V129.092V129.117V129.142V129.168V129.193V129.218V129.243V129.268V129.293V129.318V129.343V129.368V129.393V129.417V129.442V129.467V129.491V129.516V129.54V129.565V129.589V129.614V129.638V129.662V129.687V129.711V129.735V129.759V129.783V129.807V129.831V129.855V129.879V129.902V129.926V129.95V129.974V129.997V130.021V130.044V130.067V130.091V130.114V130.137V130.161V130.184V130.207V130.23V130.253V130.276V130.299V130.321V130.344V130.367V130.389V130.412V130.435V130.457V130.479V130.502V130.524V130.546V130.568V130.59V130.612V130.634V130.656V130.678V130.7V130.722V130.743V130.765V130.786V130.808V130.829V130.851V130.872V130.893V130.914V130.935V130.956V130.977V130.998V131.019V131.04V131.06V131.081V131.102V131.122V131.143V131.163V131.183V131.203V131.223V131.244V131.263V131.283V131.303V131.323V131.343V131.362V131.382V131.401V131.421V131.44V131.459V131.479V131.498V131.517V131.536V131.555V131.573V131.592V131.611V131.629V131.648V131.666V131.685V131.703V131.721V131.739V131.757V131.775V131.793V131.811V131.829V131.847V131.864V131.882V131.899V131.916V131.934V131.951V131.968V131.985V132.002V132.019V132.035V132.052V132.069V132.085V132.102V132.118V132.134V132.15V132.166V132.182V132.198V132.214V132.23V132.245V132.261V132.277V132.292V132.307V132.322V132.338V132.353V132.367V132.382V132.397V132.412V132.426V132.441V132.455V132.47V132.484V132.498V132.512V132.526V132.54V132.553V132.567V132.581V132.594Z" fill="url(#paint11_linear_11255_243)" stroke="white"/>
<ellipse cx="194.871" cy="120.166" rx="22.1148" ry="9.86513" fill="#118AFA"/>
<path d="M216.486 120.168C216.486 121.368 215.942 122.549 214.885 123.664C213.825 124.782 212.267 125.812 210.305 126.687C206.38 128.438 200.924 129.533 194.871 129.533C188.817 129.533 183.361 128.438 179.437 126.687C177.474 125.812 175.917 124.782 174.857 123.664C173.799 122.549 173.256 121.368 173.256 120.168C173.256 119.583 173.256 118.539 173.256 117.279C173.256 114.554 173.256 110.817 173.256 108.514C174.085 108.013 175.248 107.826 176.719 107.881C178.306 107.941 180.166 108.277 182.188 108.709C182.901 108.862 183.635 109.027 184.381 109.194C187.824 109.968 191.546 110.803 194.871 110.803C197.893 110.803 201.605 109.919 205.134 109.079C205.824 108.915 206.507 108.752 207.177 108.598C209.244 108.122 211.188 107.726 212.859 107.589C214.391 107.463 215.618 107.562 216.486 107.955V107.967V107.99V108.014V108.037V108.06V108.083V108.107V108.13V108.154V108.177V108.201V108.225V108.248V108.272V108.296V108.32V108.344V108.368V108.392V108.416V108.44V108.464V108.489V108.513V108.537V108.562V108.586V108.61V108.635V108.66V108.684V108.709V108.733V108.758V108.783V108.808V108.833V108.858V108.883V108.908V108.933V108.958V108.983V109.008V109.034V109.059V109.084V109.109V109.135V109.16V109.186V109.211V109.237V109.263V109.288V109.314V109.34V109.365V109.391V109.417V109.443V109.469V109.495V109.521V109.547V109.573V109.599V109.625V109.651V109.678V109.704V109.73V109.756V109.783V109.809V109.836V109.862V109.888V109.915V109.942V109.968V109.995V110.021V110.048V110.075V110.101V110.128V110.155V110.182V110.209V110.236V110.263V110.289V110.316V110.343V110.37V110.397V110.425V110.452V110.479V110.506V110.533V110.56V110.588V110.615V110.642V110.669V110.697V110.724V110.751V110.779V110.806V110.834V110.861V110.889V110.916V110.944V110.971V110.999V111.026V111.054V111.082V111.109V111.137V111.165V111.192V111.22V111.248V111.275V111.303V111.331V111.359V111.387V111.415V111.442V111.47V111.498V111.526V111.554V111.582V111.61V111.638V111.666V111.694V111.722V111.75V111.778V111.806V111.834V111.862V111.89V111.918V111.946V111.974V112.002V112.03V112.058V112.087V112.115V112.143V112.171V112.199V112.227V112.255V112.284V112.312V112.34V112.368V112.396V112.425V112.453V112.481V112.509V112.537V112.566V112.594V112.622V112.65V112.679V112.707V112.735V112.763V112.792V112.82V112.848V112.876V112.905V112.933V112.961V112.989V113.018V113.046V113.074V113.102V113.131V113.159V113.187V113.215V113.243V113.272V113.3V113.328V113.356V113.384V113.413V113.441V113.469V113.497V113.525V113.554V113.582V113.61V113.638V113.666V113.694V113.722V113.75V113.778V113.807V113.835V113.863V113.891V113.919V113.947V113.975V114.003V114.031V114.059V114.087V114.115V114.143V114.171V114.199V114.226V114.254V114.282V114.31V114.338V114.366V114.393V114.421V114.449V114.477V114.505V114.532V114.56V114.588V114.615V114.643V114.671V114.698V114.726V114.753V114.781V114.808V114.836V114.863V114.891V114.918V114.946V114.973V115.001V115.028V115.055V115.083V115.11V115.137V115.164V115.192V115.219V115.246V115.273V115.3V115.327V115.354V115.381V115.408V115.435V115.462V115.489V115.516V115.543V115.57V115.596V115.623V115.65V115.677V115.703V115.73V115.757V115.783V115.81V115.836V115.863V115.889V115.916V115.942V115.968V115.995V116.021V116.047V116.073V116.1V116.126V116.152V116.178V116.204V116.23V116.256V116.282V116.308V116.334V116.359V116.385V116.411V116.437V116.462V116.488V116.513V116.539V116.565V116.59V116.615V116.641V116.666V116.691V116.717V116.742V116.767V116.792V116.817V116.842V116.867V116.892V116.917V116.942V116.967V116.991V117.016V117.041V117.066V117.09V117.115V117.139V117.164V117.188V117.212V117.237V117.261V117.285V117.309V117.333V117.357V117.381V117.405V117.429V117.453V117.477V117.5V117.524V117.548V117.571V117.595V117.618V117.642V117.665V117.688V117.712V117.735V117.758V117.781V117.804V117.827V117.85V117.873V117.896V117.918V117.941V117.964V117.986V118.009V118.031V118.054V118.076V118.098V118.12V118.143V118.165V118.187V118.209V118.231V118.252V118.274V118.296V118.318V118.339V118.361V118.382V118.404V118.425V118.446V118.467V118.489V118.51V118.531V118.552V118.572V118.593V118.614V118.635V118.655V118.676V118.696V118.717V118.737V118.757V118.778V118.798V118.818V118.838V118.858V118.877V118.897V118.917V118.937V118.956V118.976V118.995V119.014V119.034V119.053V119.072V119.091V119.11V119.129V119.148V119.166V119.185V119.204V119.222V119.241V119.259V119.277V119.295V119.314V119.332V119.35V119.368V119.385V119.403V119.421V119.438V119.456V119.473V119.491V119.508V119.525V119.542V119.559V119.576V119.593V119.61V119.626V119.643V119.659V119.676V119.692V119.708V119.725V119.741V119.757V119.772V119.788V119.804V119.82V119.835V119.851V119.866V119.881V119.897V119.912V119.927V119.942V119.957V119.971V119.986V120.001V120.015V120.029V120.044V120.058V120.072V120.086V120.1V120.114V120.128V120.141V120.155V120.168Z" fill="url(#paint12_linear_11255_243)" stroke="white"/>
<ellipse cx="194.871" cy="107.736" rx="22.1148" ry="9.86513" fill="#118AFA"/>
<path d="M216.486 107.735C216.486 108.935 215.942 110.115 214.885 111.231C213.825 112.349 212.267 113.378 210.305 114.254C206.38 116.004 200.924 117.1 194.871 117.1C188.817 117.1 183.361 116.004 179.437 114.254C177.474 113.378 175.917 112.349 174.857 111.231C173.799 110.115 173.256 108.935 173.256 107.735C173.256 107.15 173.256 106.106 173.256 104.846C173.256 102.121 173.256 98.3838 173.256 96.0807C174.085 95.5795 175.248 95.3927 176.719 95.4476C178.306 95.507 180.166 95.8435 182.188 96.2759C182.901 96.4285 183.635 96.5932 184.381 96.7608C187.824 97.5339 191.546 98.3696 194.871 98.3696C197.893 98.3696 201.605 97.4857 205.134 96.6455C205.824 96.4811 206.507 96.3184 207.177 96.1643C209.244 95.6887 211.188 95.2923 212.859 95.1549C214.391 95.0289 215.618 95.1288 216.486 95.5218V95.5337V95.5568V95.58V95.6032V95.6265V95.6499V95.6733V95.6968V95.7203V95.7438V95.7675V95.7911V95.8149V95.8386V95.8625V95.8863V95.9103V95.9343V95.9583V95.9824V96.0065V96.0307V96.0549V96.0792V96.1035V96.1279V96.1523V96.1768V96.2013V96.2259V96.2505V96.2752V96.2999V96.3247V96.3495V96.3743V96.3992V96.4241V96.4491V96.4741V96.4992V96.5243V96.5495V96.5747V96.5999V96.6252V96.6505V96.6759V96.7013V96.7268V96.7522V96.7778V96.8034V96.829V96.8546V96.8803V96.906V96.9318V96.9576V96.9835V97.0093V97.0353V97.0612V97.0872V97.1133V97.1393V97.1654V97.1916V97.2178V97.244V97.2702V97.2965V97.3228V97.3492V97.3755V97.402V97.4284V97.4549V97.4814V97.508V97.5345V97.5611V97.5878V97.6145V97.6412V97.6679V97.6947V97.7215V97.7483V97.7751V97.802V97.8289V97.8559V97.8828V97.9098V97.9368V97.9639V97.991V98.0181V98.0452V98.0723V98.0995V98.1267V98.154V98.1812V98.2085V98.2358V98.2631V98.2905V98.3178V98.3452V98.3726V98.4001V98.4275V98.455V98.4825V98.5101V98.5376V98.5652V98.5928V98.6204V98.648V98.6756V98.7033V98.731V98.7587V98.7864V98.8141V98.8419V98.8697V98.8974V98.9253V98.9531V98.9809V99.0088V99.0366V99.0645V99.0924V99.1203V99.1482V99.1762V99.2041V99.2321V99.2601V99.2881V99.3161V99.3441V99.3721V99.4001V99.4282V99.4563V99.4843V99.5124V99.5405V99.5686V99.5967V99.6248V99.6529V99.6811V99.7092V99.7374V99.7655V99.7937V99.8219V99.8501V99.8782V99.9064V99.9346V99.9628V99.991V100.019V100.047V100.076V100.104V100.132V100.16V100.189V100.217V100.245V100.273V100.302V100.33V100.358V100.386V100.415V100.443V100.471V100.499V100.527V100.556V100.584V100.612V100.64V100.669V100.697V100.725V100.753V100.782V100.81V100.838V100.866V100.894V100.923V100.951V100.979V101.007V101.035V101.064V101.092V101.12V101.148V101.176V101.204V101.232V101.261V101.289V101.317V101.345V101.373V101.401V101.429V101.457V101.485V101.513V101.541V101.569V101.597V101.625V101.653V101.681V101.709V101.737V101.765V101.793V101.821V101.849V101.876V101.904V101.932V101.96V101.988V102.015V102.043V102.071V102.099V102.126V102.154V102.182V102.209V102.237V102.265V102.292V102.32V102.347V102.375V102.402V102.43V102.457V102.485V102.512V102.54V102.567V102.594V102.622V102.649V102.676V102.703V102.731V102.758V102.785V102.812V102.839V102.866V102.894V102.921V102.948V102.975V103.002V103.029V103.055V103.082V103.109V103.136V103.163V103.19V103.216V103.243V103.27V103.296V103.323V103.35V103.376V103.403V103.429V103.456V103.482V103.508V103.535V103.561V103.587V103.614V103.64V103.666V103.692V103.718V103.744V103.77V103.796V103.822V103.848V103.874V103.9V103.926V103.952V103.977V104.003V104.029V104.054V104.08V104.105V104.131V104.156V104.182V104.207V104.233V104.258V104.283V104.308V104.333V104.359V104.384V104.409V104.434V104.459V104.483V104.508V104.533V104.558V104.583V104.607V104.632V104.656V104.681V104.706V104.73V104.754V104.779V104.803V104.827V104.851V104.876V104.9V104.924V104.948V104.972V104.995V105.019V105.043V105.067V105.09V105.114V105.138V105.161V105.185V105.208V105.231V105.255V105.278V105.301V105.324V105.347V105.37V105.393V105.416V105.439V105.462V105.485V105.507V105.53V105.553V105.575V105.598V105.62V105.642V105.665V105.687V105.709V105.731V105.753V105.775V105.797V105.819V105.841V105.862V105.884V105.906V105.927V105.949V105.97V105.991V106.013V106.034V106.055V106.076V106.097V106.118V106.139V106.16V106.18V106.201V106.222V106.242V106.263V106.283V106.303V106.324V106.344V106.364V106.384V106.404V106.424V106.444V106.464V106.483V106.503V106.523V106.542V106.561V106.581V106.6V106.619V106.638V106.657V106.676V106.695V106.714V106.733V106.751V106.77V106.789V106.807V106.825V106.844V106.862V106.88V106.898V106.916V106.934V106.952V106.969V106.987V107.005V107.022V107.04V107.057V107.074V107.091V107.108V107.125V107.142V107.159V107.176V107.193V107.209V107.226V107.242V107.258V107.275V107.291V107.307V107.323V107.339V107.355V107.37V107.386V107.402V107.417V107.433V107.448V107.463V107.478V107.493V107.508V107.523V107.538V107.552V107.567V107.581V107.596V107.61V107.624V107.639V107.653V107.666V107.68V107.694V107.708V107.721V107.735Z" fill="url(#paint13_linear_11255_243)" stroke="white"/>
<path d="M216.485 95.3065C216.485 96.5066 215.942 97.687 214.885 98.8025C213.825 99.9205 212.267 100.95 210.304 101.826C206.38 103.576 200.924 104.672 194.871 104.672C188.817 104.672 183.361 103.576 179.437 101.826C177.474 100.95 175.917 99.9205 174.857 98.8025C173.799 97.687 173.256 96.5066 173.256 95.3065C173.256 94.1065 173.799 92.926 174.857 91.8106C175.917 90.6926 177.474 89.663 179.437 88.7875C183.361 87.0369 188.817 85.9414 194.871 85.9414C200.924 85.9414 206.38 87.0369 210.304 88.7875C212.267 89.663 213.825 90.6926 214.885 91.8106C215.942 92.926 216.485 94.1065 216.485 95.3065Z" fill="#131313"/>
<path d="M216.485 95.3065C216.485 96.5066 215.942 97.687 214.885 98.8025C213.825 99.9205 212.267 100.95 210.304 101.826C206.38 103.576 200.924 104.672 194.871 104.672C188.817 104.672 183.361 103.576 179.437 101.826C177.474 100.95 175.917 99.9205 174.857 98.8025C173.799 97.687 173.256 96.5066 173.256 95.3065C173.256 94.1065 173.799 92.926 174.857 91.8106C175.917 90.6926 177.474 89.663 179.437 88.7875C183.361 87.0369 188.817 85.9414 194.871 85.9414C200.924 85.9414 206.38 87.0369 210.304 88.7875C212.267 89.663 213.825 90.6926 214.885 91.8106C215.942 92.926 216.485 94.1065 216.485 95.3065Z" fill="url(#paint14_linear_11255_243)"/>
<path d="M216.485 95.3065C216.485 96.5066 215.942 97.687 214.885 98.8025C213.825 99.9205 212.267 100.95 210.304 101.826C206.38 103.576 200.924 104.672 194.871 104.672C188.817 104.672 183.361 103.576 179.437 101.826C177.474 100.95 175.917 99.9205 174.857 98.8025C173.799 97.687 173.256 96.5066 173.256 95.3065C173.256 94.1065 173.799 92.926 174.857 91.8106C175.917 90.6926 177.474 89.663 179.437 88.7875C183.361 87.0369 188.817 85.9414 194.871 85.9414C200.924 85.9414 206.38 87.0369 210.304 88.7875C212.267 89.663 213.825 90.6926 214.885 91.8106C215.942 92.926 216.485 94.1065 216.485 95.3065Z" fill="url(#paint15_linear_11255_243)"/>
<path d="M216.485 95.3065C216.485 96.5066 215.942 97.687 214.885 98.8025C213.825 99.9205 212.267 100.95 210.304 101.826C206.38 103.576 200.924 104.672 194.871 104.672C188.817 104.672 183.361 103.576 179.437 101.826C177.474 100.95 175.917 99.9205 174.857 98.8025C173.799 97.687 173.256 96.5066 173.256 95.3065C173.256 94.1065 173.799 92.926 174.857 91.8106C175.917 90.6926 177.474 89.663 179.437 88.7875C183.361 87.0369 188.817 85.9414 194.871 85.9414C200.924 85.9414 206.38 87.0369 210.304 88.7875C212.267 89.663 213.825 90.6926 214.885 91.8106C215.942 92.926 216.485 94.1065 216.485 95.3065Z" stroke="white"/>
<path d="M154.553 171.619L133.374 159.391L133.376 111.319L154.015 99.4309L175.196 111.643L175.193 159.655L154.553 171.619Z" fill="url(#paint16_linear_11255_243)"/>
<path d="M154.553 171.619L133.374 159.391L133.376 111.319L154.015 99.4309L175.196 111.643L175.193 159.655L154.553 171.619Z" fill="url(#paint17_linear_11255_243)"/>
<path d="M154.553 171.619L133.374 159.391L133.376 111.319L154.015 99.4309L175.196 111.643L175.193 159.655L154.553 171.619Z" stroke="white" stroke-width="1.09429"/>
<rect x="0.791685" width="23.6933" height="24.305" transform="matrix(0.866025 -0.5 0.866025 0.5 132.7 111.458)" fill="#131313" stroke="white" stroke-width="0.914159"/>
<path d="M225.939 75.7915L232.598 83.5739" stroke="white" stroke-width="0.5"/>
<circle cx="2.587" cy="2.587" r="2.337" transform="matrix(0.866025 0.5 -2.20305e-08 1 231.752 81.7383)" fill="#131313" stroke="white" stroke-width="0.5"/>
<circle cx="3.638" cy="3.638" r="3.388" transform="matrix(0.866025 0.5 -2.20305e-08 1 220.564 66.5)" fill="#131313" stroke="white" stroke-width="0.5"/>
</g>
<defs>
<filter id="filter0_d_11255_243" x="29.2618" y="3.7716" width="226.813" height="232.931" filterUnits="userSpaceOnUse" color-interpolation-filters="sRGB">
<feFlood flood-opacity="0" result="BackgroundImageFix"/>
<feColorMatrix in="SourceAlpha" type="matrix" values="0 0 0 0 0 0 0 0 0 0 0 0 0 0 0 0 0 0 127 0" result="hardAlpha"/>
<feOffset/>
<feGaussianBlur stdDeviation="10.1689"/>
<feComposite in2="hardAlpha" operator="out"/>
<feColorMatrix type="matrix" values="0 0 0 0 1 0 0 0 0 1 0 0 0 0 1 0 0 0 0.13 0"/>
<feBlend mode="normal" in2="BackgroundImageFix" result="effect1_dropShadow_11255_243"/>
<feBlend mode="normal" in="SourceGraphic" in2="effect1_dropShadow_11255_243" result="shape"/>
</filter>
<filter id="filter1_i_11255_243" x="150.633" y="177.43" width="30.1523" height="24.0625" filterUnits="userSpaceOnUse" color-interpolation-filters="sRGB">
<feFlood flood-opacity="0" result="BackgroundImageFix"/>
<feBlend mode="normal" in="SourceGraphic" in2="BackgroundImageFix" result="shape"/>
<feColorMatrix in="SourceAlpha" type="matrix" values="0 0 0 0 0 0 0 0 0 0 0 0 0 0 0 0 0 0 127 0" result="hardAlpha"/>
<feOffset/>
<feGaussianBlur stdDeviation="0.828495"/>
<feComposite in2="hardAlpha" operator="arithmetic" k2="-1" k3="1"/>
<feColorMatrix type="matrix" values="0 0 0 0 1 0 0 0 0 1 0 0 0 0 1 0 0 0 0.75 0"/>
<feBlend mode="normal" in2="shape" result="effect1_innerShadow_11255_243"/>
</filter>
<radialGradient id="paint0_radial_11255_243" cx="0" cy="0" r="1" gradientUnits="userSpaceOnUse" gradientTransform="translate(145.053 152.547) rotate(150) scale(123.381 127.708)">
<stop stop-color="white"/>
<stop offset="1" stop-color="white" stop-opacity="0"/>
</radialGradient>
<linearGradient id="paint1_linear_11255_243" x1="86.7289" y1="133.895" x2="93.7158" y2="200.256" gradientUnits="userSpaceOnUse">
<stop stop-color="#0A0A0A"/>
<stop offset="1" stop-color="#232222"/>
</linearGradient>
<linearGradient id="paint2_linear_11255_243" x1="112.047" y1="136.315" x2="142.807" y2="180.767" gradientUnits="userSpaceOnUse">
<stop stop-color="#131313"/>
<stop offset="1" stop-color="#323232"/>
</linearGradient>
<linearGradient id="paint3_linear_11255_243" x1="141.792" y1="145.606" x2="105.466" y2="222.369" gradientUnits="userSpaceOnUse">
<stop stop-color="#0A0A0A"/>
<stop offset="1" stop-color="#232222"/>
</linearGradient>
<linearGradient id="paint4_linear_11255_243" x1="158.842" y1="126.037" x2="156.34" y2="187.29" gradientUnits="userSpaceOnUse">
<stop stop-color="#131313"/>
<stop offset="1" stop-color="#313131"/>
</linearGradient>
<linearGradient id="paint5_linear_11255_243" x1="132.059" y1="67.7513" x2="132.328" y2="105.953" gradientUnits="userSpaceOnUse">
<stop stop-color="#0A0A0A"/>
<stop offset="1" stop-color="#232222"/>
</linearGradient>
<linearGradient id="paint6_linear_11255_243" x1="142" y1="49.5007" x2="164.485" y2="78.6673" gradientUnits="userSpaceOnUse">
<stop offset="0.335" stop-color="#131313"/>
<stop offset="1" stop-color="#323232"/>
</linearGradient>
<linearGradient id="paint7_linear_11255_243" x1="142" y1="52.0007" x2="175.848" y2="95.9073" gradientUnits="userSpaceOnUse">
<stop offset="0.15" stop-color="#131313"/>
<stop offset="0.85" stop-color="#323232"/>
</linearGradient>
<linearGradient id="paint8_linear_11255_243" x1="15.8599" y1="6.60041" x2="8.20308" y2="26.7599" gradientUnits="userSpaceOnUse">
<stop stop-color="#0A0A0A"/>
<stop offset="1" stop-color="#232222"/>
</linearGradient>
<linearGradient id="paint9_linear_11255_243" x1="93.4812" y1="86.7433" x2="133.075" y2="103.111" gradientUnits="userSpaceOnUse">
<stop offset="0.335" stop-color="#131313"/>
<stop offset="1" stop-color="#323232"/>
</linearGradient>
<linearGradient id="paint10_linear_11255_243" x1="87.4802" y1="89.7433" x2="127.074" y2="106.111" gradientUnits="userSpaceOnUse">
<stop offset="0.335" stop-color="#131313"/>
<stop offset="1" stop-color="#323232"/>
</linearGradient>
<linearGradient id="paint11_linear_11255_243" x1="187.446" y1="120.869" x2="207.343" y2="142.459" gradientUnits="userSpaceOnUse">
<stop offset="0.335" stop-color="#131313"/>
<stop offset="1" stop-color="#323232"/>
</linearGradient>
<linearGradient id="paint12_linear_11255_243" x1="187.446" y1="108.443" x2="207.343" y2="130.033" gradientUnits="userSpaceOnUse">
<stop offset="0.335" stop-color="#131313"/>
<stop offset="1" stop-color="#323232"/>
</linearGradient>
<linearGradient id="paint13_linear_11255_243" x1="187.446" y1="96.0092" x2="207.343" y2="117.6" gradientUnits="userSpaceOnUse">
<stop offset="0.335" stop-color="#131313"/>
<stop offset="1" stop-color="#323232"/>
</linearGradient>
<linearGradient id="paint14_linear_11255_243" x1="194.871" y1="98.4251" x2="194.871" y2="105.172" gradientUnits="userSpaceOnUse">
<stop stop-color="#131313"/>
<stop offset="1" stop-color="#232222"/>
</linearGradient>
<linearGradient id="paint15_linear_11255_243" x1="205.884" y1="97.4469" x2="205.889" y2="101.84" gradientUnits="userSpaceOnUse">
<stop stop-color="#0A0A0A"/>
<stop offset="1" stop-color="#232222"/>
</linearGradient>
<linearGradient id="paint16_linear_11255_243" x1="150.731" y1="127.558" x2="154.93" y2="163.358" gradientUnits="userSpaceOnUse">
<stop stop-color="#0A0A0A"/>
<stop offset="1" stop-color="#232222"/>
</linearGradient>
<linearGradient id="paint17_linear_11255_243" x1="163.022" y1="128.866" x2="180.216" y2="151.168" gradientUnits="userSpaceOnUse">
<stop stop-color="#131313"/>
<stop offset="1" stop-color="#323232"/>
</linearGradient>
<clipPath id="clip0_11255_243">
<rect width="296" height="258" fill="white" transform="translate(0 0.5)"/>
</clipPath>
</defs>
</svg>
