<svg width="296" height="259" viewBox="0 0 296 259" fill="none" xmlns="http://www.w3.org/2000/svg">
<g clip-path="url(#clip0_11255_1381)">
<rect width="296" height="258" transform="translate(0 0.5)" fill="#101010"/>
<rect opacity="0.08" width="33.9571" height="18.5424" transform="matrix(0.866025 0.5 -0.866025 0.5 212.473 77.1699)" fill="white"/>
<path opacity="0.06" fill-rule="evenodd" clip-rule="evenodd" d="M262.465 163.247L149.714 95.5L26.999 166.35L139.749 234.097L179.55 211.118C179.378 214.517 181.539 217.948 186.032 220.543C194.688 225.54 208.722 225.54 217.378 220.543L237.813 208.745C246.468 203.747 246.468 195.645 237.813 190.647C233.319 188.053 227.376 186.805 221.489 186.905L262.465 163.247Z" fill="white"/>
<path opacity="0.78" fill-rule="evenodd" clip-rule="evenodd" d="M2.25892 191.865L36.6236 172.025L2.6074 151.586L-31.7573 171.426L2.25892 191.865ZM71.83 152.192L37.4652 172.032L71.4777 192.469L105.843 172.628L71.83 152.192ZM71.4114 151.94L37.0466 171.781L3.03032 151.342L37.3951 131.501L71.4114 151.94ZM72.2529 151.947L106.621 132.105L140.633 152.542L106.265 172.384L72.2529 151.947ZM71.8343 151.696L106.202 131.854L72.1858 111.415L37.8181 131.257L71.8343 151.696ZM141.406 112.022L107.044 131.861L141.056 152.298L175.419 132.458L141.406 112.022ZM140.988 111.77L106.625 131.61L72.6087 111.171L106.972 91.3312L140.988 111.77ZM141.829 111.778L176.197 91.9354L210.209 112.372L175.842 132.214L141.829 111.778ZM141.411 111.526L175.778 91.6839L141.762 71.2449L107.395 91.087L141.411 111.526ZM210.986 71.8501L176.62 91.6912L210.632 112.128L244.998 92.2869L210.986 71.8501ZM210.567 71.5986L176.201 91.4397L142.185 71.0007L176.551 51.1596L210.567 71.5986ZM211.409 71.6059L213.682 70.2933L213.263 70.0418L210.99 71.3544L176.974 50.9154L179.245 49.6042L178.826 49.3527L176.555 50.6639L142.542 30.2267L144.813 28.9152L144.395 28.6637L142.123 29.9752L120.473 16.9665L120.05 17.2106L141.7 30.2193L107.335 50.0604L85.6839 37.0514L85.261 37.2956L106.912 50.3046L72.5441 70.1467L50.8915 57.1365L50.4685 57.3807L72.1212 70.3909L37.7583 90.2304L16.1079 77.2215L15.685 77.4657L37.3353 90.4745L2.96763 110.317L-18.685 97.3065L-19.1079 97.5507L2.54472 110.561L-31.8201 130.401L-53.4721 117.392L-53.895 117.636L-32.243 130.646L-66.6077 150.486L-88.2592 137.477L-88.6822 137.721L-67.0307 150.73L-69.3047 152.043L-68.8861 152.295L-66.6121 150.982L-32.5988 171.419L-34.8734 172.732L-34.4548 172.984L-32.1802 171.671L1.83599 192.11L-0.436082 193.421L-0.017478 193.673L2.2546 192.361L36.2671 212.798L33.9935 214.111L34.412 214.362L36.6857 213.049L70.6998 233.487L68.4265 234.8L68.8451 235.051L71.1184 233.739L105.134 254.177L102.861 255.489L103.28 255.74L105.552 254.428L139.565 274.865L137.291 276.178L137.709 276.429L139.983 275.117L161.636 288.127L162.059 287.883L140.406 274.872L174.771 255.032L196.423 268.042L196.846 267.798L175.194 254.788L209.558 234.947L231.21 247.957L231.633 247.713L209.981 234.703L244.349 214.861L266.003 227.872L266.426 227.628L244.772 214.617L279.135 194.777L300.786 207.787L301.209 207.543L279.558 194.533L313.925 174.691L335.579 187.702L336.002 187.457L314.348 174.447L348.714 154.606L370.368 167.617L370.791 167.373L349.137 154.362L351.409 153.05L350.99 152.798L348.718 154.11L314.706 133.673L316.979 132.361L316.561 132.109L314.287 133.422L280.272 112.984L282.545 111.672L282.126 111.42L279.854 112.732L245.84 92.2943L248.112 90.9826L247.693 90.7311L245.421 92.0427L211.409 71.6059ZM245.417 92.5384L211.051 112.38L245.065 132.817L279.431 112.976L245.417 92.5384ZM279.849 113.228L245.484 133.069L279.499 153.507L313.865 133.666L279.849 113.228ZM314.283 133.918L279.917 153.759L313.93 174.195L348.296 154.354L314.283 133.918ZM142.119 30.4709L107.753 50.3119L141.766 70.7491L176.132 50.9081L142.119 30.4709ZM176.26 132.466L210.628 112.624L244.642 133.061L210.275 152.904L176.26 132.466ZM210.693 153.155L245.061 133.313L279.076 153.751L244.708 173.593L210.693 153.155ZM245.127 173.845L279.494 154.003L313.507 174.439L279.139 194.282L245.127 173.845ZM72.9627 70.3983L107.33 50.5561L141.343 70.9933L106.976 90.8355L72.9627 70.3983ZM175.838 132.71L141.475 152.549L175.489 172.987L209.852 153.148L175.838 132.71ZM210.27 153.399L175.907 173.239L209.922 193.677L244.285 173.838L210.27 153.399ZM244.704 174.089L210.341 193.929L244.353 214.365L278.716 194.526L244.704 174.089ZM72.5398 70.6424L38.1769 90.4819L72.1901 110.919L106.553 91.0796L72.5398 70.6424ZM106.684 172.636L141.052 152.794L175.066 173.231L140.698 193.074L106.684 172.636ZM141.117 193.325L175.484 173.483L209.499 193.921L175.132 213.763L141.117 193.325ZM175.55 214.015L209.918 194.173L243.931 214.609L209.563 234.452L175.55 214.015ZM3.38624 110.568L37.7539 90.7261L71.7671 111.163L37.3995 131.005L3.38624 110.568ZM106.261 172.88L71.8963 192.721L105.91 213.158L140.275 193.318L106.261 172.88ZM140.694 193.569L106.329 213.41L140.344 233.848L174.709 214.008L140.694 193.569ZM175.127 214.259L140.763 234.1L174.775 254.536L209.14 234.696L175.127 214.259ZM2.96332 110.812L-31.4015 130.653L2.61172 151.09L36.9765 131.25L2.96332 110.812ZM2.67753 192.117L37.0422 172.276L71.0548 192.713L36.6901 212.554L2.67753 192.117ZM37.1086 212.805L71.4734 192.965L105.487 213.402L71.1228 233.243L37.1086 212.805ZM71.5413 233.494L105.906 213.654L139.921 234.092L105.556 253.933L71.5413 233.494ZM105.975 254.184L140.34 234.344L174.352 254.78L139.987 274.621L105.975 254.184ZM-66.1891 150.738L-31.8244 130.897L2.1888 151.334L-32.1759 171.175L-66.1891 150.738Z" fill="url(#paint0_radial_11255_1381)"/>
<g filter="url(#filter0_d_11255_1381)">
<mask id="path-4-inside-1_11255_1381" fill="white">
<path fill-rule="evenodd" clip-rule="evenodd" d="M152.276 58.7536C157.854 58.3193 162.794 54.4714 164.313 48.8015C166.244 41.5954 161.918 34.1748 154.649 32.2273C147.381 30.2798 139.924 34.5428 137.993 41.749C136.444 47.5278 138.92 53.4445 143.71 56.566L140.658 67.9555L132.247 62.6955L55.1466 110.909L55.1484 110.91L55.026 110.985V121.211L38.7754 131.861V151.473C43.069 154.137 124.484 203.104 136.713 210.402C147.405 204.185 192.641 175.396 215.562 160.808L215.562 160.808C223.248 155.917 228.425 152.622 228.949 152.311V131.613L229.012 131.573L225.99 129.789L213.966 122.38V113.806L213.96 113.802L213.967 113.797L148.497 72.8571L152.276 58.7536Z"/>
</mask>
<path fill-rule="evenodd" clip-rule="evenodd" d="M152.276 58.7536C157.854 58.3193 162.794 54.4714 164.313 48.8015C166.244 41.5954 161.918 34.1748 154.649 32.2273C147.381 30.2798 139.924 34.5428 137.993 41.749C136.444 47.5278 138.92 53.4445 143.71 56.566L140.658 67.9555L132.247 62.6955L55.1466 110.909L55.1484 110.91L55.026 110.985V121.211L38.7754 131.861V151.473C43.069 154.137 124.484 203.104 136.713 210.402C147.405 204.185 192.641 175.396 215.562 160.808L215.562 160.808C223.248 155.917 228.425 152.622 228.949 152.311V131.613L229.012 131.573L225.99 129.789L213.966 122.38V113.806L213.96 113.802L213.967 113.797L148.497 72.8571L152.276 58.7536Z" fill="#131313"/>
<path d="M164.313 48.8015L165.131 49.0206V49.0206L164.313 48.8015ZM152.276 58.7536L152.21 57.9097L151.613 57.9562L151.458 58.5345L152.276 58.7536ZM154.649 32.2273L154.43 33.0449L154.649 32.2273ZM137.993 41.749L138.81 41.9681V41.9681L137.993 41.749ZM143.71 56.566L144.528 56.7851L144.687 56.1921L144.172 55.8569L143.71 56.566ZM140.658 67.9555L140.21 68.6731L141.18 69.2799L141.476 68.1745L140.658 67.9555ZM132.247 62.6955L132.696 61.9778L132.247 61.6972L131.798 61.9778L132.247 62.6955ZM55.1466 110.909L54.6978 110.191L53.5489 110.909L54.6985 111.627L55.1466 110.909ZM55.1484 110.91L55.5924 111.63L56.7546 110.914L55.5965 110.192L55.1484 110.91ZM55.026 110.985L54.582 110.265L54.1795 110.512V110.985H55.026ZM55.026 121.211L55.49 121.919L55.8724 121.669V121.211H55.026ZM38.7754 131.861L38.3114 131.153L37.9289 131.404V131.861H38.7754ZM38.7754 151.473H37.9289V151.944L38.3291 152.193L38.7754 151.473ZM136.713 210.402L136.279 211.129L136.707 211.385L137.138 211.134L136.713 210.402ZM215.562 160.808L215.127 160.082L215.117 160.088L215.108 160.094L215.562 160.808ZM215.562 160.808L215.998 161.534L216.007 161.528L216.017 161.522L215.562 160.808ZM228.949 152.311L229.381 153.039L229.795 152.793V152.311H228.949ZM228.949 131.613L228.494 130.899L228.102 131.149V131.613H228.949ZM229.012 131.573L229.467 132.286L230.631 131.545L229.442 130.844L229.012 131.573ZM225.99 129.789L225.546 130.51L225.553 130.514L225.56 130.518L225.99 129.789ZM213.966 122.38H213.12V122.852L213.522 123.1L213.966 122.38ZM213.966 113.806H214.813V113.333L214.41 113.085L213.966 113.806ZM213.96 113.802L213.511 113.084L212.354 113.807L213.516 114.523L213.96 113.802ZM213.967 113.797L214.415 114.515L215.563 113.798L214.415 113.08L213.967 113.797ZM148.497 72.8571L147.679 72.638L147.517 73.2428L148.048 73.5748L148.497 72.8571ZM163.496 48.5825C162.073 53.8914 157.445 57.502 152.21 57.9097L152.342 59.5975C158.262 59.1365 163.515 55.0515 165.131 49.0206L163.496 48.5825ZM154.43 33.0449C161.253 34.8732 165.304 41.8344 163.496 48.5825L165.131 49.0206C167.185 41.3563 162.582 33.4764 154.868 31.4097L154.43 33.0449ZM138.81 41.9681C140.619 35.22 147.607 31.2167 154.43 33.0449L154.868 31.4097C147.155 29.343 139.229 33.8656 137.175 41.5299L138.81 41.9681ZM144.172 55.8569C139.677 52.9272 137.361 47.379 138.81 41.9681L137.175 41.5299C135.528 47.6767 138.164 53.9619 143.248 57.2752L144.172 55.8569ZM142.892 56.3469L139.841 67.7364L141.476 68.1745L144.528 56.7851L142.892 56.3469ZM141.107 67.2378L132.696 61.9778L131.798 63.4132L140.21 68.6731L141.107 67.2378ZM131.798 61.9778L54.6978 110.191L55.5954 111.626L132.696 63.4132L131.798 61.9778ZM54.6985 111.627L54.7002 111.628L55.5965 110.192L55.5947 110.191L54.6985 111.627ZM54.7043 110.189L54.582 110.265L55.47 111.706L55.5924 111.63L54.7043 110.189ZM54.1795 110.985V121.211H55.8724V110.985H54.1795ZM54.562 120.503L38.3114 131.153L39.2394 132.569L55.49 121.919L54.562 120.503ZM37.9289 131.861V151.473H39.6218V131.861H37.9289ZM38.3291 152.193C42.6303 154.861 124.053 203.832 136.279 211.129L137.147 209.675C124.916 202.376 43.5076 153.413 39.2217 150.754L38.3291 152.193ZM137.138 211.134C147.85 204.905 193.109 176.102 216.017 161.522L215.108 160.094C192.174 174.69 146.96 203.464 136.287 209.67L137.138 211.134ZM215.998 161.534L215.998 161.534L215.127 160.082L215.127 160.082L215.998 161.534ZM216.017 161.522C223.716 156.623 228.872 153.341 229.381 153.039L228.516 151.583C227.977 151.903 222.781 155.211 215.108 160.094L216.017 161.522ZM229.795 152.311V131.613H228.102V152.311H229.795ZM229.404 132.327L229.467 132.286L228.557 130.859L228.494 130.899L229.404 132.327ZM229.442 130.844L226.42 129.06L225.56 130.518L228.582 132.302L229.442 130.844ZM226.434 129.069L214.41 121.659L213.522 123.1L225.546 130.51L226.434 129.069ZM214.813 122.38V113.806H213.12V122.38H214.813ZM214.41 113.085L214.403 113.081L213.516 114.523L213.523 114.527L214.41 113.085ZM214.408 114.52L214.415 114.515L213.518 113.08L213.511 113.084L214.408 114.52ZM214.415 113.08L148.946 72.1394L148.048 73.5748L213.518 114.515L214.415 113.08ZM149.314 73.0762L153.093 58.9727L151.458 58.5345L147.679 72.638L149.314 73.0762Z" fill="white" mask="url(#path-4-inside-1_11255_1381)"/>
</g>
<path d="M136.713 209.821C123.848 202.138 45.6415 155.101 39.2725 151.193V132.131L131.14 71.9244L228.446 131.891V152.031C227.231 152.786 222.278 155.939 215.232 160.423C207.618 165.269 197.56 171.67 187.132 178.285C166.357 191.464 144.109 205.495 136.713 209.821Z" fill="#131313"/>
<path d="M136.713 209.821C123.848 202.138 45.6415 155.101 39.2725 151.193V132.131L131.14 71.9244L228.446 131.891V152.031C227.231 152.786 222.278 155.939 215.232 160.423C207.618 165.269 197.56 171.67 187.132 178.285C166.357 191.464 144.109 205.495 136.713 209.821Z" fill="url(#paint1_linear_11255_1381)"/>
<path d="M136.713 209.821C123.848 202.138 45.6415 155.101 39.2725 151.193V132.131L131.14 71.9244L228.446 131.891V152.031C227.231 152.786 222.278 155.939 215.232 160.423C207.618 165.269 197.56 171.67 187.132 178.285C166.357 191.464 144.109 205.495 136.713 209.821Z" stroke="white"/>
<circle cx="3.09676" cy="3.09676" r="2.84676" transform="matrix(0.866025 0.5 -2.20305e-08 1 113.037 183.449)" fill="#131313"/>
<circle cx="3.09676" cy="3.09676" r="2.84676" transform="matrix(0.866025 0.5 -2.20305e-08 1 113.037 183.449)" fill="url(#paint2_linear_11255_1381)"/>
<circle cx="3.09676" cy="3.09676" r="2.84676" transform="matrix(0.866025 0.5 -2.20305e-08 1 113.037 183.449)" stroke="white" stroke-width="0.5"/>
<circle cx="3.09676" cy="3.09676" r="2.84676" transform="matrix(0.866025 0.5 -2.20305e-08 1 122.766 189.062)" fill="#131313"/>
<circle cx="3.09676" cy="3.09676" r="2.84676" transform="matrix(0.866025 0.5 -2.20305e-08 1 122.766 189.062)" fill="url(#paint3_linear_11255_1381)"/>
<circle cx="3.09676" cy="3.09676" r="2.84676" transform="matrix(0.866025 0.5 -2.20305e-08 1 122.766 189.062)" fill="url(#paint4_linear_11255_1381)"/>
<circle cx="3.09676" cy="3.09676" r="2.84676" transform="matrix(0.866025 0.5 -2.20305e-08 1 122.766 189.062)" stroke="white" stroke-width="0.5"/>
<line x1="136.609" y1="173.361" x2="136.609" y2="210.013" stroke="white"/>
<path d="M40.1542 131.567L131.408 74.5037L228.155 131.583L136.901 189.752L40.1542 131.567Z" fill="#131313"/>
<path d="M40.1542 131.567L131.408 74.5037L228.155 131.583L136.901 189.752L40.1542 131.567Z" fill="url(#paint5_linear_11255_1381)"/>
<path d="M40.1542 131.567L131.408 74.5037L228.155 131.583L136.901 189.752L40.1542 131.567Z" stroke="white"/>
<path d="M136.88 179.075C126.028 172.593 61.1102 133.549 55.5244 130.125V111.264L132.215 64.0131L213.465 114.085V130.825C212.384 131.5 208.271 134.117 202.452 137.82C196.089 141.87 187.685 147.218 178.974 152.744C161.649 163.734 143.102 175.432 136.88 179.075Z" fill="#131313"/>
<path d="M136.88 179.075C126.028 172.593 61.1102 133.549 55.5244 130.125V111.264L132.215 64.0131L213.465 114.085V130.825C212.384 131.5 208.271 134.117 202.452 137.82C196.089 141.87 187.685 147.218 178.974 152.744C161.649 163.734 143.102 175.432 136.88 179.075Z" fill="url(#paint6_linear_11255_1381)"/>
<path d="M136.88 179.075C126.028 172.593 61.1102 133.549 55.5244 130.125V111.264L132.215 64.0131L213.465 114.085V130.825C212.384 131.5 208.271 134.117 202.452 137.82C196.089 141.87 187.685 147.218 178.974 152.744C161.649 163.734 143.102 175.432 136.88 179.075Z" stroke="white"/>
<line x1="136.879" y1="148.699" x2="136.879" y2="179.331" stroke="white"/>
<g filter="url(#filter1_d_11255_1381)">
<rect width="96.3822" height="90.9338" transform="matrix(0.847872 0.5302 -0.847872 0.5302 132.244 62.6953)" fill="url(#paint7_linear_11255_1381)"/>
<rect x="-2.98023e-08" y="0.5302" width="95.3822" height="89.9338" transform="matrix(0.847872 0.5302 -0.847872 0.5302 132.694 62.9444)" stroke="white"/>
</g>
<path d="M155.215 97.4061C167.834 105.297 167.804 118.113 155.142 126.031C142.48 133.949 121.985 133.968 109.366 126.077C96.747 118.186 96.7772 105.37 109.439 97.4518C122.101 89.5339 142.596 89.515 155.215 97.4061Z" fill="#131313" stroke="white"/>
<mask id="path-16-inside-2_11255_1381" fill="white">
<path fill-rule="evenodd" clip-rule="evenodd" d="M163.642 117.06C167.108 109.967 164.356 101.941 155.385 96.3315C142.443 88.2385 121.46 88.2385 108.518 96.3315C99.547 101.941 96.7945 109.967 100.26 117.059C101.746 113.798 104.542 110.721 108.649 108.152C121.519 100.105 142.384 100.105 155.253 108.152C159.36 110.721 162.157 113.798 163.642 117.06Z"/>
</mask>
<path fill-rule="evenodd" clip-rule="evenodd" d="M163.642 117.06C167.108 109.967 164.356 101.941 155.385 96.3315C142.443 88.2385 121.46 88.2385 108.518 96.3315C99.547 101.941 96.7945 109.967 100.26 117.059C101.746 113.798 104.542 110.721 108.649 108.152C121.519 100.105 142.384 100.105 155.253 108.152C159.36 110.721 162.157 113.798 163.642 117.06Z" fill="#131313"/>
<path fill-rule="evenodd" clip-rule="evenodd" d="M163.642 117.06C167.108 109.967 164.356 101.941 155.385 96.3315C142.443 88.2385 121.46 88.2385 108.518 96.3315C99.547 101.941 96.7945 109.967 100.26 117.059C101.746 113.798 104.542 110.721 108.649 108.152C121.519 100.105 142.384 100.105 155.253 108.152C159.36 110.721 162.157 113.798 163.642 117.06Z" fill="url(#paint8_linear_11255_1381)"/>
<path fill-rule="evenodd" clip-rule="evenodd" d="M163.642 117.06C167.108 109.967 164.356 101.941 155.385 96.3315C142.443 88.2385 121.46 88.2385 108.518 96.3315C99.547 101.941 96.7945 109.967 100.26 117.059C101.746 113.798 104.542 110.721 108.649 108.152C121.519 100.105 142.384 100.105 155.253 108.152C159.36 110.721 162.157 113.798 163.642 117.06Z" fill="url(#paint9_linear_11255_1381)"/>
<path d="M155.385 96.3315L155.915 95.4836V95.4836L155.385 96.3315ZM163.642 117.06L162.732 117.474L163.611 119.402L164.541 117.499L163.642 117.06ZM108.518 96.3315L109.048 97.1793H109.048L108.518 96.3315ZM100.26 117.059L99.3618 117.499L100.292 119.402L101.17 117.474L100.26 117.059ZM108.649 108.152L108.119 107.305L108.649 108.152ZM155.253 108.152L154.723 109L155.253 108.152ZM154.855 97.1793C159.202 99.8979 161.963 103.151 163.244 106.497C164.519 109.827 164.358 113.318 162.744 116.621L164.541 117.499C166.393 113.709 166.589 109.641 165.111 105.782C163.64 101.939 160.539 98.3748 155.915 95.4836L154.855 97.1793ZM109.048 97.1793C115.326 93.2539 123.612 91.2617 131.951 91.2617C140.291 91.2617 148.577 93.2539 154.855 97.1793L155.915 95.4836C149.251 91.3161 140.575 89.2617 131.951 89.2617C123.328 89.2617 114.652 91.3161 107.988 95.4836L109.048 97.1793ZM101.159 116.62C99.545 113.318 99.3842 109.827 100.659 106.497C101.94 103.151 104.701 99.8979 109.048 97.1793L107.988 95.4836C103.364 98.3748 100.263 101.939 98.7915 105.782C97.3139 109.641 97.5098 113.708 99.3618 117.499L101.159 116.62ZM101.17 117.474C102.558 114.429 105.2 111.489 109.179 109L108.119 107.305C103.884 109.952 100.934 113.167 99.3502 116.645L101.17 117.474ZM109.179 109C115.421 105.097 123.66 103.117 131.951 103.117C140.243 103.117 148.482 105.097 154.723 109L155.784 107.305C149.155 103.16 140.527 101.117 131.951 101.117C123.376 101.117 114.747 103.16 108.119 107.305L109.179 109ZM154.723 109C158.703 111.489 161.345 114.429 162.732 117.474L164.552 116.645C162.968 113.167 160.018 109.953 155.784 107.305L154.723 109Z" fill="white" mask="url(#path-16-inside-2_11255_1381)"/>
<path d="M141.773 113.101C147.318 116.104 147.354 121.07 141.848 124.192C136.342 127.315 127.384 127.409 121.839 124.405C116.294 121.402 116.258 116.436 121.763 113.314C127.269 110.191 136.228 110.097 141.773 113.101Z" fill="#131313"/>
<path d="M141.773 113.101C147.318 116.104 147.354 121.07 141.848 124.192C136.342 127.315 127.384 127.409 121.839 124.405C116.294 121.402 116.258 116.436 121.763 113.314C127.269 110.191 136.228 110.097 141.773 113.101Z" fill="url(#paint10_linear_11255_1381)"/>
<path d="M141.773 113.101C147.318 116.104 147.354 121.07 141.848 124.192C136.342 127.315 127.384 127.409 121.839 124.405C116.294 121.402 116.258 116.436 121.763 113.314C127.269 110.191 136.228 110.097 141.773 113.101Z" stroke="white"/>
<rect x="145.537" y="51.6807" width="7.8401" height="70.0822" rx="3.92005" transform="rotate(15 145.537 51.6807)" fill="#131313"/>
<rect x="145.537" y="51.6807" width="7.8401" height="70.0822" rx="3.92005" transform="rotate(15 145.537 51.6807)" fill="url(#paint11_linear_11255_1381)"/>
<rect x="145.537" y="51.6807" width="7.8401" height="70.0822" rx="3.92005" transform="rotate(15 145.537 51.6807)" stroke="white"/>
<path d="M163.832 48.6703C161.973 55.6058 154.793 59.7155 147.788 57.8384C140.782 55.9613 136.619 48.8121 138.477 41.8765C140.335 34.941 147.516 30.8314 154.521 32.7085C161.526 34.5855 165.69 41.7347 163.832 48.6703Z" fill="#131313"/>
<path d="M163.832 48.6703C161.973 55.6058 154.793 59.7155 147.788 57.8384C140.782 55.9613 136.619 48.8121 138.477 41.8765C140.335 34.941 147.516 30.8314 154.521 32.7085C161.526 34.5855 165.69 41.7347 163.832 48.6703Z" fill="url(#paint12_linear_11255_1381)"/>
<path d="M163.832 48.6703C161.973 55.6058 154.793 59.7155 147.788 57.8384C140.782 55.9613 136.619 48.8121 138.477 41.8765C140.335 34.941 147.516 30.8314 154.521 32.7085C161.526 34.5855 165.69 41.7347 163.832 48.6703Z" stroke="white"/>
<circle opacity="0.44" cx="152.5" cy="41" r="7.5" fill="url(#paint13_radial_11255_1381)"/>
<mask id="path-22-inside-3_11255_1381" fill="white">
<path fill-rule="evenodd" clip-rule="evenodd" d="M238.369 143.32C235.716 141.663 232.769 146.31 229.412 151.606C226.589 156.059 223.474 160.971 220 162.977L218.788 160.331C213.024 165.741 208.519 172.478 205.822 179.851C205.439 181.096 205.024 182.39 204.593 183.711C203.554 187.531 203 191.483 203 195.477L201.081 194.529C198.955 201.462 197.645 207.343 199.657 208.601L189.481 202.242C184.848 199.348 182 193.428 182 185.096C182 167.982 194.015 147.171 208.836 138.613L208.836 138.613C216.442 134.221 223.308 133.91 228.192 136.961L238.369 143.32Z"/>
</mask>
<path fill-rule="evenodd" clip-rule="evenodd" d="M238.369 143.32C235.716 141.663 232.769 146.31 229.412 151.606C226.589 156.059 223.474 160.971 220 162.977L218.788 160.331C213.024 165.741 208.519 172.478 205.822 179.851C205.439 181.096 205.024 182.39 204.593 183.711C203.554 187.531 203 191.483 203 195.477L201.081 194.529C198.955 201.462 197.645 207.343 199.657 208.601L189.481 202.242C184.848 199.348 182 193.428 182 185.096C182 167.982 194.015 147.171 208.836 138.613L208.836 138.613C216.442 134.221 223.308 133.91 228.192 136.961L238.369 143.32Z" fill="black"/>
<path fill-rule="evenodd" clip-rule="evenodd" d="M238.369 143.32C235.716 141.663 232.769 146.31 229.412 151.606C226.589 156.059 223.474 160.971 220 162.977L218.788 160.331C213.024 165.741 208.519 172.478 205.822 179.851C205.439 181.096 205.024 182.39 204.593 183.711C203.554 187.531 203 191.483 203 195.477L201.081 194.529C198.955 201.462 197.645 207.343 199.657 208.601L189.481 202.242C184.848 199.348 182 193.428 182 185.096C182 167.982 194.015 147.171 208.836 138.613L208.836 138.613C216.442 134.221 223.308 133.91 228.192 136.961L238.369 143.32Z" fill="url(#paint14_linear_11255_1381)"/>
<path d="M199.922 208.177L199.922 208.177L199.393 209.025L199.393 209.026L199.922 208.177ZM229.412 151.606L230.257 152.141L229.412 151.606ZM238.369 143.32L237.839 144.168C238.307 144.46 238.924 144.318 239.217 143.85C239.509 143.381 239.367 142.764 238.898 142.472L238.369 143.32ZM220 162.977L219.091 163.394C219.208 163.65 219.428 163.844 219.696 163.93C219.964 164.015 220.256 163.984 220.5 163.843L220 162.977ZM218.788 160.331L219.697 159.915C219.563 159.622 219.296 159.412 218.98 159.35C218.664 159.288 218.338 159.382 218.103 159.602L218.788 160.331ZM205.822 179.851L204.883 179.507C204.877 179.523 204.872 179.54 204.866 179.556L205.822 179.851ZM204.593 183.711L203.642 183.4C203.637 183.416 203.632 183.432 203.628 183.448L204.593 183.711ZM203 195.477L202.557 196.374C202.867 196.527 203.234 196.509 203.528 196.327C203.821 196.144 204 195.823 204 195.477H203ZM201.081 194.529L201.525 193.632C201.262 193.502 200.955 193.494 200.685 193.61C200.416 193.727 200.211 193.955 200.125 194.236L201.081 194.529ZM199.657 208.601L199.127 209.449C199.596 209.742 200.213 209.599 200.505 209.131C200.798 208.663 200.656 208.046 200.187 207.753L199.657 208.601ZM189.481 202.242L190.011 201.394L190.011 201.394L189.481 202.242ZM208.836 138.613L209.336 139.479C209.783 139.221 209.96 138.665 209.745 138.196L208.836 138.613ZM208.836 138.613L208.336 137.747C207.889 138.005 207.712 138.561 207.927 139.03L208.836 138.613ZM228.192 136.961L228.722 136.113L228.722 136.113L228.192 136.961ZM230.257 152.141C231.954 149.463 233.477 147.068 234.89 145.533C235.598 144.764 236.2 144.3 236.699 144.097C237.138 143.919 237.478 143.942 237.839 144.168L238.898 142.472C237.933 141.869 236.91 141.852 235.945 142.244C235.041 142.612 234.199 143.331 233.419 144.178C231.856 145.876 230.227 148.452 228.568 151.07L230.257 152.141ZM220.5 163.843C222.409 162.741 224.153 160.886 225.743 158.819C227.341 156.741 228.85 154.36 230.257 152.141L228.568 151.07C227.151 153.305 225.691 155.607 224.158 157.6C222.616 159.603 221.065 161.207 219.5 162.111L220.5 163.843ZM217.879 160.748L219.091 163.394L220.909 162.561L219.697 159.915L217.879 160.748ZM218.103 159.602C212.229 165.115 207.635 171.983 204.883 179.507L206.761 180.194C209.403 172.972 213.819 166.366 219.472 161.061L218.103 159.602ZM205.544 184.021C205.975 182.698 206.392 181.398 206.778 180.145L204.866 179.556C204.485 180.794 204.072 182.083 203.642 183.4L205.544 184.021ZM203.628 183.448C202.567 187.35 202 191.39 202 195.477H204C204 191.575 204.542 187.712 205.558 183.973L203.628 183.448ZM203.443 194.581L201.525 193.632L200.638 195.425L202.557 196.374L203.443 194.581ZM200.187 207.753C200.046 207.665 199.829 207.412 199.721 206.697C199.615 205.998 199.643 205.037 199.808 203.829C200.138 201.421 200.976 198.283 202.037 194.822L200.125 194.236C199.061 197.707 198.18 200.977 197.827 203.558C197.651 204.843 197.595 206.022 197.743 206.997C197.889 207.955 198.263 208.909 199.127 209.449L200.187 207.753ZM188.951 203.09L199.127 209.449L200.187 207.753L190.011 201.394L188.951 203.09ZM181 185.096C181 193.633 183.924 199.95 188.951 203.09L190.011 201.394C185.772 198.746 183 193.223 183 185.096H181ZM183 185.096C183 176.756 185.934 167.446 190.726 159.146C195.518 150.846 202.113 143.65 209.336 139.479L208.336 137.747C200.738 142.134 193.915 149.622 188.994 158.146C184.073 166.669 181 176.322 181 185.096H183ZM207.927 139.03L207.927 139.031L209.745 138.196L209.745 138.195L207.927 139.03ZM228.722 136.113C223.413 132.796 216.128 133.248 208.336 137.747L209.336 139.479C216.755 135.195 223.204 135.024 227.662 137.809L228.722 136.113ZM238.898 142.472L228.722 136.113L227.662 137.809L237.839 144.168L238.898 142.472Z" fill="white" mask="url(#path-22-inside-3_11255_1381)"/>
<circle cx="30.9889" cy="30.9889" r="30.4889" transform="matrix(0.866025 -0.5 2.20305e-08 1 192.176 160.465)" fill="#131313"/>
<circle cx="30.9889" cy="30.9889" r="30.4889" transform="matrix(0.866025 -0.5 2.20305e-08 1 192.176 160.465)" fill="url(#paint15_linear_11255_1381)"/>
<circle cx="30.9889" cy="30.9889" r="30.4889" transform="matrix(0.866025 -0.5 2.20305e-08 1 192.176 160.465)" stroke="white"/>
<path d="M208.012 189.814L214.663 169.174L216.181 168.298L222.832 181.258L221.21 182.194L215.1 169.954L215.723 169.594L209.613 188.89L208.012 189.814ZM210.631 183.814L211.088 182.11L219.548 177.226L220.005 178.402L210.631 183.814ZM225.238 179.868L225.238 163.068L226.777 162.18L226.777 178.98L225.238 179.868Z" fill="white"/>
<mask id="path-26-inside-4_11255_1381" fill="white">
<path fill-rule="evenodd" clip-rule="evenodd" d="M233.999 61.2659L234.002 61.2654V89.9885L227.877 94.4384L211.113 66.3712L211.525 66.2793L203 51.3538L210.154 47.5L234 61.2654L233.999 61.2659Z"/>
</mask>
<path fill-rule="evenodd" clip-rule="evenodd" d="M233.999 61.2659L234.002 61.2654V89.9885L227.877 94.4384L211.113 66.3712L211.525 66.2793L203 51.3538L210.154 47.5L234 61.2654L233.999 61.2659Z" fill="black"/>
<path fill-rule="evenodd" clip-rule="evenodd" d="M233.999 61.2659L234.002 61.2654V89.9885L227.877 94.4384L211.113 66.3712L211.525 66.2793L203 51.3538L210.154 47.5L234 61.2654L233.999 61.2659Z" fill="url(#paint16_linear_11255_1381)"/>
<path d="M233.999 61.2659L233.547 60.8712C233.377 61.0666 233.351 61.3494 233.483 61.5724C233.616 61.7954 233.877 61.908 234.13 61.8515L233.999 61.2659ZM234.002 61.2654H234.602C234.602 61.0833 234.519 60.9111 234.377 60.7973C234.235 60.6834 234.049 60.6402 233.871 60.6798L234.002 61.2654ZM234.002 89.9885L234.354 90.4739C234.51 90.361 234.602 90.1806 234.602 89.9885H234.002ZM227.877 94.4384L227.362 94.7461C227.448 94.8907 227.591 94.9924 227.756 95.0262C227.921 95.06 228.093 95.0229 228.229 94.9238L227.877 94.4384ZM211.113 66.3712L210.983 65.7856C210.795 65.8275 210.638 65.9571 210.562 66.134C210.486 66.3109 210.499 66.5135 210.598 66.6789L211.113 66.3712ZM211.525 66.2793L211.656 66.8649C211.842 66.8234 211.997 66.6961 212.074 66.5218C212.151 66.3476 212.141 66.1471 212.046 65.9817L211.525 66.2793ZM203 51.3538L202.715 50.8255C202.573 50.9022 202.468 51.0331 202.423 51.1886C202.379 51.3441 202.399 51.5109 202.479 51.6513L203 51.3538ZM210.154 47.5L210.454 46.9804C210.274 46.8764 210.052 46.8731 209.869 46.9718L210.154 47.5ZM234 61.2654L234.452 61.6601C234.57 61.5249 234.621 61.344 234.592 61.167C234.562 60.99 234.455 60.8355 234.3 60.7458L234 61.2654ZM234.13 61.8515L234.132 61.851L233.871 60.6798L233.869 60.6803L234.13 61.8515ZM233.402 61.2654V89.9885H234.602V61.2654H233.402ZM233.649 89.5031L227.524 93.953L228.229 94.9238L234.354 90.4739L233.649 89.5031ZM228.392 94.1308L211.628 66.0635L210.598 66.6789L227.362 94.7461L228.392 94.1308ZM211.244 66.9568L211.656 66.8649L211.395 65.6937L210.983 65.7856L211.244 66.9568ZM212.046 65.9817L203.521 51.0562L202.479 51.6513L211.004 66.5769L212.046 65.9817ZM203.285 51.882L210.438 48.0282L209.869 46.9718L202.715 50.8255L203.285 51.882ZM209.854 48.0196L233.7 61.785L234.3 60.7458L210.454 46.9804L209.854 48.0196ZM233.548 60.8707L233.547 60.8712L234.451 61.6606L234.452 61.6601L233.548 60.8707Z" fill="white" mask="url(#path-26-inside-4_11255_1381)"/>
<rect x="0.259808" y="0.45" width="28.1231" height="28.1231" transform="matrix(0.866025 0.5 -2.20305e-08 1 203.035 51.2236)" fill="#131313"/>
<rect x="0.259808" y="0.45" width="28.1231" height="28.1231" transform="matrix(0.866025 0.5 -2.20305e-08 1 203.035 51.2236)" fill="url(#paint17_linear_11255_1381)"/>
<rect x="0.259808" y="0.45" width="28.1231" height="28.1231" transform="matrix(0.866025 0.5 -2.20305e-08 1 203.035 51.2236)" stroke="white" stroke-width="0.6"/>
<path d="M227.5 66L233.5 61.5" stroke="white" stroke-width="0.6"/>
<path d="M49.4579 90.0516L48.7091 88.3051L47.9603 90.9163C47.091 93.9475 45.4569 96.9704 43.361 99.4245L41.8918 101.145L43.361 101.168C45.4569 101.202 47.091 102.338 47.9603 104.366L48.7091 106.112L49.4579 103.501C50.3272 100.47 51.9613 97.4471 54.0572 94.993L55.5264 93.2728L54.0572 93.249C51.9613 93.2151 50.3272 92.0791 49.4579 90.0516Z" fill="#131313"/>
<path d="M49.4579 90.0516L48.7091 88.3051L47.9603 90.9163C47.091 93.9475 45.4569 96.9704 43.361 99.4245L41.8918 101.145L43.361 101.168C45.4569 101.202 47.091 102.338 47.9603 104.366L48.7091 106.112L49.4579 103.501C50.3272 100.47 51.9613 97.4471 54.0572 94.993L55.5264 93.2728L54.0572 93.249C51.9613 93.2151 50.3272 92.0791 49.4579 90.0516Z" fill="url(#paint18_linear_11255_1381)"/>
<path d="M49.4579 90.0516L48.7091 88.3051L47.9603 90.9163C47.091 93.9475 45.4569 96.9704 43.361 99.4245L41.8918 101.145L43.361 101.168C45.4569 101.202 47.091 102.338 47.9603 104.366L48.7091 106.112L49.4579 103.501C50.3272 100.47 51.9613 97.4471 54.0572 94.993L55.5264 93.2728L54.0572 93.249C51.9613 93.2151 50.3272 92.0791 49.4579 90.0516Z" stroke="white" stroke-width="0.5"/>
<mask id="path-31-inside-5_11255_1381" fill="white">
<path fill-rule="evenodd" clip-rule="evenodd" d="M222.075 76.659L216.086 66.0852L210.096 69.743L213.926 71.9542C214.233 75.2691 213.448 79.8352 208.154 76.9024C211.405 78.8876 217.736 81.005 218.021 74.318L222.075 76.659Z"/>
</mask>
<path fill-rule="evenodd" clip-rule="evenodd" d="M222.075 76.659L216.086 66.0852L210.096 69.743L213.926 71.9542C214.233 75.2691 213.448 79.8352 208.154 76.9024C211.405 78.8876 217.736 81.005 218.021 74.318L222.075 76.659Z" fill="url(#paint19_linear_11255_1381)"/>
<path d="M216.086 66.0852L216.396 65.916L216.086 65.3678L215.775 65.5574L216.086 66.0852ZM222.075 76.659L222.075 77.159L223.1 77.7506L222.386 76.4898L222.075 76.659ZM210.096 69.743L209.786 69.2152L209.072 69.6514L210.096 70.243L210.096 69.743ZM213.926 71.9542L214.357 72.1466L214.313 71.6776L213.926 71.4542L213.926 71.9542ZM208.154 76.9024L208.146 76.3975L208.142 77.395L208.154 76.9024ZM218.021 74.318L218.021 73.818L217.608 73.5797L217.588 74.0443L218.021 74.318ZM215.775 66.2544L221.765 76.8282L222.386 76.4898L216.396 65.916L215.775 66.2544ZM210.407 70.2707L216.396 66.6129L215.775 65.5574L209.786 69.2152L210.407 70.2707ZM213.926 71.4542L210.096 69.243L210.096 70.243L213.926 72.4542L213.926 71.4542ZM208.163 77.4074C210.951 78.9518 212.616 78.5427 213.517 77.2358C214.398 75.9568 214.516 73.8665 214.357 72.1466L213.496 71.7618C213.643 73.3568 213.522 75.207 212.764 76.3066C212.025 77.3783 210.651 77.7859 208.146 76.3975L208.163 77.4074ZM217.588 74.0443C217.455 77.1774 215.92 78.248 213.998 78.3034C212.057 78.3593 209.741 77.371 208.167 76.4098L208.142 77.395C209.819 78.419 212.293 79.482 214.401 79.4212C216.529 79.3598 218.302 78.1456 218.453 74.5917L217.588 74.0443ZM222.075 76.159L218.021 73.818L218.021 74.818L222.075 77.159L222.075 76.159Z" fill="url(#paint20_linear_11255_1381)" mask="url(#path-31-inside-5_11255_1381)"/>
</g>
<defs>
<filter id="filter0_d_11255_1381" x="18.4376" y="11.4181" width="230.912" height="219.322" filterUnits="userSpaceOnUse" color-interpolation-filters="sRGB">
<feFlood flood-opacity="0" result="BackgroundImageFix"/>
<feColorMatrix in="SourceAlpha" type="matrix" values="0 0 0 0 0 0 0 0 0 0 0 0 0 0 0 0 0 0 127 0" result="hardAlpha"/>
<feOffset/>
<feGaussianBlur stdDeviation="10.1689"/>
<feComposite in2="hardAlpha" operator="out"/>
<feColorMatrix type="matrix" values="0 0 0 0 1 0 0 0 0 1 0 0 0 0 1 0 0 0 0.13 0"/>
<feBlend mode="normal" in2="BackgroundImageFix" result="effect1_dropShadow_11255_1381"/>
<feBlend mode="normal" in="SourceGraphic" in2="effect1_dropShadow_11255_1381" result="shape"/>
</filter>
<filter id="filter1_d_11255_1381" x="34.9736" y="42.5253" width="199.161" height="139.654" filterUnits="userSpaceOnUse" color-interpolation-filters="sRGB">
<feFlood flood-opacity="0" result="BackgroundImageFix"/>
<feColorMatrix in="SourceAlpha" type="matrix" values="0 0 0 0 0 0 0 0 0 0 0 0 0 0 0 0 0 0 127 0" result="hardAlpha"/>
<feOffset/>
<feGaussianBlur stdDeviation="10.085"/>
<feComposite in2="hardAlpha" operator="out"/>
<feColorMatrix type="matrix" values="0 0 0 0 1 0 0 0 0 1 0 0 0 0 1 0 0 0 0.13 0"/>
<feBlend mode="normal" in2="BackgroundImageFix" result="effect1_dropShadow_11255_1381"/>
<feBlend mode="normal" in="SourceGraphic" in2="effect1_dropShadow_11255_1381" result="shape"/>
</filter>
<radialGradient id="paint0_radial_11255_1381" cx="0" cy="0" r="1" gradientUnits="userSpaceOnUse" gradientTransform="translate(141.053 152.547) rotate(150) scale(123.381 127.708)">
<stop stop-color="white"/>
<stop offset="1" stop-color="white" stop-opacity="0"/>
</radialGradient>
<linearGradient id="paint1_linear_11255_1381" x1="181.206" y1="169.341" x2="181.254" y2="188.874" gradientUnits="userSpaceOnUse">
<stop stop-color="#0A0A0A"/>
<stop offset="1" stop-color="#232222"/>
</linearGradient>
<linearGradient id="paint2_linear_11255_1381" x1="2.84616" y1="2.62856" x2="4.89372" y2="5.01616" gradientUnits="userSpaceOnUse">
<stop stop-color="#0A0A0A"/>
<stop offset="1" stop-color="#232222"/>
</linearGradient>
<linearGradient id="paint3_linear_11255_1381" x1="2.76693" y1="3.20686" x2="4.66254" y2="5.21234" gradientUnits="userSpaceOnUse">
<stop stop-color="#0A0A0A"/>
<stop offset="1" stop-color="#232222"/>
</linearGradient>
<linearGradient id="paint4_linear_11255_1381" x1="2.84616" y1="2.62856" x2="4.89372" y2="5.01616" gradientUnits="userSpaceOnUse">
<stop stop-color="#0A0A0A"/>
<stop offset="1" stop-color="#232222"/>
</linearGradient>
<linearGradient id="paint5_linear_11255_1381" x1="134.085" y1="131.758" x2="161.385" y2="175.079" gradientUnits="userSpaceOnUse">
<stop stop-color="#0A0A0A"/>
<stop offset="1" stop-color="#232222"/>
</linearGradient>
<linearGradient id="paint6_linear_11255_1381" x1="174.066" y1="145.338" x2="174.106" y2="161.664" gradientUnits="userSpaceOnUse">
<stop stop-color="#0A0A0A"/>
<stop offset="1" stop-color="#232222"/>
</linearGradient>
<linearGradient id="paint7_linear_11255_1381" x1="47.8563" y1="45.6424" x2="96.3821" y2="45.4453" gradientUnits="userSpaceOnUse">
<stop stop-color="#0A0A0A"/>
<stop offset="1" stop-color="#232222"/>
</linearGradient>
<linearGradient id="paint8_linear_11255_1381" x1="128.422" y1="104.137" x2="133.9" y2="118.473" gradientUnits="userSpaceOnUse">
<stop stop-color="#0A0A0A"/>
<stop offset="1" stop-color="#232222"/>
</linearGradient>
<linearGradient id="paint9_linear_11255_1381" x1="131.721" y1="103.712" x2="163.111" y2="103.494" gradientUnits="userSpaceOnUse">
<stop stop-color="#0A0A0A"/>
<stop offset="1" stop-color="#2B2A2A"/>
</linearGradient>
<linearGradient id="paint10_linear_11255_1381" x1="141.278" y1="118.141" x2="142.688" y2="120.611" gradientUnits="userSpaceOnUse">
<stop stop-color="#0A0A0A"/>
<stop offset="1" stop-color="#232222"/>
</linearGradient>
<linearGradient id="paint11_linear_11255_1381" x1="151.805" y1="101.163" x2="152.072" y2="111.14" gradientUnits="userSpaceOnUse">
<stop stop-color="#0A0A0A"/>
<stop offset="1" stop-color="#232222"/>
</linearGradient>
<linearGradient id="paint12_linear_11255_1381" x1="149.628" y1="45.3617" x2="155.329" y2="56.0189" gradientUnits="userSpaceOnUse">
<stop stop-color="#0A0A0A"/>
<stop offset="1" stop-color="#232222"/>
</linearGradient>
<radialGradient id="paint13_radial_11255_1381" cx="0" cy="0" r="1" gradientUnits="userSpaceOnUse" gradientTransform="translate(153.438 41.9375) rotate(90) scale(5.625)">
<stop stop-color="white"/>
<stop offset="1" stop-color="#999999" stop-opacity="0"/>
</radialGradient>
<linearGradient id="paint14_linear_11255_1381" x1="207.182" y1="173.084" x2="200.497" y2="197.865" gradientUnits="userSpaceOnUse">
<stop stop-color="#0A0A0A"/>
<stop offset="1" stop-color="#232222"/>
</linearGradient>
<linearGradient id="paint15_linear_11255_1381" x1="27.6883" y1="32.0906" x2="43.8393" y2="51.0148" gradientUnits="userSpaceOnUse">
<stop stop-color="#0A0A0A"/>
<stop offset="1" stop-color="#232222"/>
</linearGradient>
<linearGradient id="paint16_linear_11255_1381" x1="216.85" y1="71.8036" x2="228.839" y2="81.0821" gradientUnits="userSpaceOnUse">
<stop stop-color="#0A0A0A"/>
<stop offset="1" stop-color="#232222"/>
</linearGradient>
<linearGradient id="paint17_linear_11255_1381" x1="12.8319" y1="14.8721" x2="20.317" y2="23.6424" gradientUnits="userSpaceOnUse">
<stop stop-color="#0A0A0A"/>
<stop offset="1" stop-color="#232222"/>
</linearGradient>
<linearGradient id="paint18_linear_11255_1381" x1="48.7866" y1="94.7464" x2="45.0116" y2="101.298" gradientUnits="userSpaceOnUse">
<stop stop-color="#0A0A0A"/>
<stop offset="1" stop-color="#313131"/>
</linearGradient>
<linearGradient id="paint19_linear_11255_1381" x1="213.987" y1="71.4812" x2="215.923" y2="77.8793" gradientUnits="userSpaceOnUse">
<stop stop-color="#1A1A1A"/>
<stop offset="1" stop-color="#444444"/>
</linearGradient>
<linearGradient id="paint20_linear_11255_1381" x1="214.979" y1="72.3675" x2="210.248" y2="79.4647" gradientUnits="userSpaceOnUse">
<stop stop-color="white"/>
<stop offset="1" stop-color="#999999" stop-opacity="0"/>
</linearGradient>
<clipPath id="clip0_11255_1381">
<rect width="296" height="258" fill="white" transform="translate(0 0.5)"/>
</clipPath>
</defs>
</svg>
