<svg width="259" height="242" viewBox="0 0 259 242" fill="none" xmlns="http://www.w3.org/2000/svg">
<path d="M119.656 225.799L119.61 225.827L119.573 225.804L118.724 225.256L115.496 223.175C112.713 221.381 108.732 218.814 103.94 215.724C94.3549 209.545 81.5246 201.275 68.5433 192.912C43.2305 176.603 17.334 159.932 13.8162 157.719L13.8162 136.18L120.438 72.8488L226.919 135.9V158.659C223.992 160.457 198.037 176.703 172.367 192.778C159.04 201.125 145.787 209.427 135.865 215.643C130.904 218.751 126.776 221.337 123.888 223.146L120.538 225.246L119.656 225.799Z" fill="#131313" stroke="white" stroke-width="0.952756"/>
<line x1="119.635" y1="184.668" x2="119.635" y2="225.922" stroke="white" stroke-width="0.952756"/>
<g filter="url(#filter0_i_10757_1223)">
<circle cx="4.32836" cy="4.32836" r="3.85198" transform="matrix(-0.866025 0.5 2.20305e-08 1 164.453 183.238)" fill="#131313" stroke="white" stroke-width="0.952756"/>
<circle cx="4.32836" cy="4.32836" r="3.85198" transform="matrix(-0.866025 0.5 2.20305e-08 1 150.865 191.084)" fill="#131313" stroke="white" stroke-width="0.952756"/>
<circle cx="4.32836" cy="4.32836" r="3.85198" transform="matrix(-0.866025 0.5 2.20305e-08 1 137.275 198.93)" fill="#131313" stroke="white" stroke-width="0.952756"/>
</g>
<rect x="-2.83943e-08" y="0.505151" width="124.237" height="125.71" transform="matrix(0.847872 0.5302 -0.847872 0.5302 121.159 69.1279)" fill="#131313" stroke="white" stroke-width="0.952756"/>
<path d="M214.422 154.064L219.818 150.781V152.307L214.422 155.591V154.064Z" fill="white"/>
<path d="M111.938 126.82L88.5055 113.291L88.5057 29.4237L111.344 16.2692L134.777 29.7808L134.777 113.581L111.938 126.82Z" fill="#131313" stroke="white" stroke-width="0.952756"/>
<rect x="0.825111" width="25.8587" height="26.8907" transform="matrix(0.866025 -0.5 0.866025 0.5 88.2199 29.5864)" fill="#131313" stroke="white" stroke-width="0.952756"/>
<ellipse cx="68.9399" cy="136.919" rx="21.811" ry="9.72961" fill="#118AFA"/>
<path d="M90.2746 136.791C90.2746 137.98 89.7364 139.148 88.6913 140.25C87.6438 141.355 86.1056 142.371 84.1686 143.236C80.2957 144.963 74.912 146.044 68.94 146.044C62.9679 146.044 57.5842 144.963 53.7113 143.236C51.7743 142.371 50.2361 141.355 49.1886 140.25C48.1435 139.148 47.6053 137.98 47.6053 136.791C47.6053 136.214 47.6053 135.184 47.6054 133.941C47.6056 131.25 47.6058 127.558 47.6056 125.287C48.4279 124.787 49.5813 124.601 51.0377 124.656C52.6051 124.714 54.4409 125.046 56.4348 125.473C57.1388 125.623 57.8625 125.786 58.5989 125.951C61.9947 126.714 65.6629 127.537 68.94 127.537C71.9186 127.537 75.5772 126.666 79.0574 125.838C79.7383 125.675 80.4125 125.515 81.0734 125.363C83.1125 124.894 85.0304 124.503 86.6797 124.367C88.1975 124.242 89.4143 124.342 90.2746 124.735V124.757V124.78V124.803V124.826V124.849V124.872V124.895V124.918V124.941V124.965V124.988V125.011V125.035V125.058V125.082V125.105V125.129V125.152V125.176V125.2V125.224V125.247V125.271V125.295V125.319V125.343V125.367V125.392V125.416V125.44V125.464V125.489V125.513V125.537V125.562V125.586V125.611V125.635V125.66V125.685V125.709V125.734V125.759V125.784V125.809V125.834V125.859V125.884V125.909V125.934V125.959V125.984V126.009V126.035V126.06V126.085V126.111V126.136V126.162V126.187V126.213V126.238V126.264V126.289V126.315V126.341V126.367V126.392V126.418V126.444V126.47V126.496V126.522V126.548V126.574V126.6V126.626V126.652V126.678V126.704V126.731V126.757V126.783V126.809V126.836V126.862V126.889V126.915V126.941V126.968V126.994V127.021V127.048V127.074V127.101V127.127V127.154V127.181V127.207V127.234V127.261V127.288V127.315V127.342V127.368V127.395V127.422V127.449V127.476V127.503V127.53V127.557V127.584V127.611V127.638V127.666V127.693V127.72V127.747V127.774V127.802V127.829V127.856V127.883V127.911V127.938V127.965V127.993V128.02V128.047V128.075V128.102V128.13V128.157V128.185V128.212V128.24V128.267V128.295V128.322V128.35V128.377V128.405V128.432V128.46V128.488V128.515V128.543V128.571V128.598V128.626V128.654V128.681V128.709V128.737V128.764V128.792V128.82V128.848V128.875V128.903V128.931V128.959V128.987V129.014V129.042V129.07V129.098V129.126V129.153V129.181V129.209V129.237V129.265V129.293V129.32V129.348V129.376V129.404V129.432V129.46V129.487V129.515V129.543V129.571V129.599V129.627V129.655V129.682V129.71V129.738V129.766V129.794V129.822V129.85V129.877V129.905V129.933V129.961V129.989V130.017V130.044V130.072V130.1V130.128V130.156V130.183V130.211V130.239V130.267V130.294V130.322V130.35V130.378V130.405V130.433V130.461V130.489V130.516V130.544V130.572V130.599V130.627V130.655V130.682V130.71V130.737V130.765V130.793V130.82V130.848V130.875V130.903V130.93V130.958V130.985V131.013V131.04V131.068V131.095V131.123V131.15V131.177V131.205V131.232V131.259V131.287V131.314V131.341V131.368V131.396V131.423V131.45V131.477V131.504V131.532V131.559V131.586V131.613V131.64V131.667V131.694V131.721V131.748V131.775V131.802V131.829V131.855V131.882V131.909V131.936V131.963V131.989V132.016V132.043V132.069V132.096V132.123V132.149V132.176V132.202V132.229V132.255V132.282V132.308V132.334V132.361V132.387V132.413V132.44V132.466V132.492V132.518V132.544V132.57V132.596V132.622V132.648V132.674V132.7V132.726V132.752V132.778V132.804V132.829V132.855V132.881V132.906V132.932V132.958V132.983V133.009V133.034V133.06V133.085V133.11V133.136V133.161V133.186V133.211V133.236V133.261V133.287V133.312V133.337V133.362V133.386V133.411V133.436V133.461V133.486V133.51V133.535V133.56V133.584V133.609V133.633V133.657V133.682V133.706V133.73V133.755V133.779V133.803V133.827V133.851V133.875V133.899V133.923V133.947V133.971V133.994V134.018V134.042V134.065V134.089V134.113V134.136V134.159V134.183V134.206V134.229V134.253V134.276V134.299V134.322V134.345V134.368V134.391V134.413V134.436V134.459V134.482V134.504V134.527V134.549V134.572V134.594V134.616V134.639V134.661V134.683V134.705V134.727V134.749V134.771V134.793V134.815V134.836V134.858V134.88V134.901V134.923V134.944V134.965V134.987V135.008V135.029V135.05V135.071V135.092V135.113V135.134V135.155V135.175V135.196V135.217V135.237V135.258V135.278V135.298V135.319V135.339V135.359V135.379V135.399V135.419V135.439V135.459V135.478V135.498V135.518V135.537V135.556V135.576V135.595V135.614V135.634V135.653V135.672V135.691V135.709V135.728V135.747V135.765V135.784V135.803V135.821V135.839V135.858V135.876V135.894V135.912V135.93V135.948V135.966V135.983V136.001V136.018V136.036V136.053V136.071V136.088V136.105V136.122V136.139V136.156V136.173V136.19V136.206V136.223V136.24V136.256V136.272V136.289V136.305V136.321V136.337V136.353V136.369V136.385V136.4V136.416V136.431V136.447V136.462V136.477V136.493V136.508V136.523V136.538V136.552V136.567V136.582V136.596V136.611V136.625V136.64V136.654V136.668V136.682V136.696V136.71V136.723V136.737V136.751V136.764V136.777V136.791Z" fill="#131313" stroke="white" stroke-width="0.952756"/>
<ellipse cx="68.9399" cy="124.532" rx="21.811" ry="9.72961" fill="#118AFA"/>
<path d="M90.2746 124.533C90.2746 125.722 89.7364 126.89 88.6913 127.992C87.6438 129.097 86.1056 130.114 84.1686 130.978C80.2958 132.705 74.912 133.786 68.94 133.786C62.968 133.786 57.5842 132.705 53.7114 130.978C51.7744 130.114 50.2362 129.097 49.1887 127.992C48.1436 126.89 47.6054 125.722 47.6054 124.533C47.6054 123.956 47.6054 122.926 47.6055 121.683C47.6057 118.992 47.6059 115.3 47.6057 113.03C48.428 112.529 49.5814 112.343 51.0378 112.398C52.6051 112.456 54.441 112.789 56.4349 113.215C57.1389 113.366 57.8625 113.528 58.599 113.693C61.9947 114.456 65.663 115.28 68.94 115.28C71.9186 115.28 75.5772 114.408 79.0574 113.58C79.7384 113.418 80.4125 113.257 81.0734 113.105C83.1125 112.636 85.0304 112.245 86.6797 112.109C88.1975 111.984 89.4143 112.084 90.2746 112.477V112.499V112.522V112.545V112.568V112.591V112.614V112.637V112.66V112.683V112.707V112.73V112.753V112.777V112.8V112.824V112.847V112.871V112.894V112.918V112.942V112.966V112.99V113.014V113.037V113.061V113.085V113.11V113.134V113.158V113.182V113.206V113.231V113.255V113.28V113.304V113.328V113.353V113.378V113.402V113.427V113.452V113.476V113.501V113.526V113.551V113.576V113.601V113.626V113.651V113.676V113.701V113.726V113.752V113.777V113.802V113.828V113.853V113.878V113.904V113.929V113.955V113.98V114.006V114.032V114.057V114.083V114.109V114.135V114.16V114.186V114.212V114.238V114.264V114.29V114.316V114.342V114.368V114.394V114.42V114.447V114.473V114.499V114.525V114.552V114.578V114.604V114.631V114.657V114.684V114.71V114.737V114.763V114.79V114.816V114.843V114.87V114.896V114.923V114.95V114.976V115.003V115.03V115.057V115.084V115.111V115.137V115.164V115.191V115.218V115.245V115.272V115.299V115.326V115.354V115.381V115.408V115.435V115.462V115.489V115.516V115.544V115.571V115.598V115.625V115.653V115.68V115.707V115.735V115.762V115.79V115.817V115.844V115.872V115.899V115.927V115.954V115.982V116.009V116.037V116.064V116.092V116.119V116.147V116.175V116.202V116.23V116.257V116.285V116.313V116.34V116.368V116.396V116.423V116.451V116.479V116.507V116.534V116.562V116.59V116.618V116.645V116.673V116.701V116.729V116.756V116.784V116.812V116.84V116.868V116.896V116.923V116.951V116.979V117.007V117.035V117.063V117.09V117.118V117.146V117.174V117.202V117.23V117.257V117.285V117.313V117.341V117.369V117.397V117.425V117.452V117.48V117.508V117.536V117.564V117.592V117.62V117.647V117.675V117.703V117.731V117.759V117.787V117.814V117.842V117.87V117.898V117.926V117.953V117.981V118.009V118.037V118.064V118.092V118.12V118.148V118.175V118.203V118.231V118.259V118.286V118.314V118.342V118.369V118.397V118.424V118.452V118.48V118.507V118.535V118.562V118.59V118.618V118.645V118.673V118.7V118.728V118.755V118.782V118.81V118.837V118.865V118.892V118.92V118.947V118.974V119.002V119.029V119.056V119.083V119.111V119.138V119.165V119.192V119.219V119.247V119.274V119.301V119.328V119.355V119.382V119.409V119.436V119.463V119.49V119.517V119.544V119.571V119.598V119.624V119.651V119.678V119.705V119.731V119.758V119.785V119.812V119.838V119.865V119.891V119.918V119.944V119.971V119.997V120.024V120.05V120.077V120.103V120.129V120.155V120.182V120.208V120.234V120.26V120.286V120.313V120.339V120.365V120.391V120.417V120.442V120.468V120.494V120.52V120.546V120.572V120.597V120.623V120.649V120.674V120.7V120.725V120.751V120.776V120.802V120.827V120.852V120.878V120.903V120.928V120.953V120.979V121.004V121.029V121.054V121.079V121.104V121.129V121.153V121.178V121.203V121.228V121.252V121.277V121.302V121.326V121.351V121.375V121.4V121.424V121.448V121.473V121.497V121.521V121.545V121.569V121.593V121.617V121.641V121.665V121.689V121.713V121.737V121.76V121.784V121.808V121.831V121.855V121.878V121.902V121.925V121.948V121.972V121.995V122.018V122.041V122.064V122.087V122.11V122.133V122.156V122.178V122.201V122.224V122.246V122.269V122.291V122.314V122.336V122.358V122.381V122.403V122.425V122.447V122.469V122.491V122.513V122.535V122.557V122.578V122.6V122.622V122.643V122.665V122.686V122.708V122.729V122.75V122.771V122.792V122.813V122.834V122.855V122.876V122.897V122.918V122.938V122.959V122.979V123V123.02V123.041V123.061V123.081V123.101V123.121V123.141V123.161V123.181V123.201V123.221V123.24V123.26V123.279V123.299V123.318V123.337V123.357V123.376V123.395V123.414V123.433V123.452V123.47V123.489V123.508V123.526V123.545V123.563V123.581V123.6V123.618V123.636V123.654V123.672V123.69V123.708V123.725V123.743V123.761V123.778V123.796V123.813V123.83V123.847V123.864V123.881V123.898V123.915V123.932V123.949V123.965V123.982V123.998V124.015V124.031V124.047V124.063V124.079V124.095V124.111V124.127V124.142V124.158V124.174V124.189V124.204V124.22V124.235V124.25V124.265V124.28V124.295V124.309V124.324V124.339V124.353V124.367V124.382V124.396V124.41V124.424V124.438V124.452V124.466V124.479V124.493V124.506V124.52V124.533Z" fill="#131313" stroke="white" stroke-width="0.952756"/>
<ellipse cx="68.9399" cy="112.273" rx="21.811" ry="9.72961" fill="#118AFA"/>
<path d="M90.2746 112.271C90.2746 113.46 89.7364 114.628 88.6913 115.731C87.6438 116.835 86.1056 117.852 84.1686 118.716C80.2958 120.444 74.912 121.524 68.94 121.524C62.968 121.524 57.5842 120.444 53.7114 118.716C51.7744 117.852 50.2362 116.835 49.1887 115.731C48.1436 114.628 47.6054 113.46 47.6054 112.271C47.6054 111.694 47.6054 110.665 47.6055 109.422C47.6057 106.731 47.6059 103.038 47.6057 100.768C48.428 100.267 49.5814 100.082 51.0378 100.136C52.6051 100.195 54.441 100.527 56.4349 100.953C57.1389 101.104 57.8625 101.266 58.599 101.432C61.9947 102.194 65.663 103.018 68.94 103.018C71.9186 103.018 75.5772 102.147 79.0574 101.318C79.7384 101.156 80.4125 100.995 81.0734 100.843C83.1125 100.374 85.0304 99.9831 86.6797 99.8475C88.1975 99.7227 89.4143 99.822 90.2746 100.215V100.238V100.261V100.283V100.306V100.329V100.352V100.375V100.399V100.422V100.445V100.468V100.492V100.515V100.538V100.562V100.586V100.609V100.633V100.656V100.68V100.704V100.728V100.752V100.776V100.8V100.824V100.848V100.872V100.896V100.92V100.945V100.969V100.993V101.018V101.042V101.067V101.091V101.116V101.141V101.165V101.19V101.215V101.24V101.264V101.289V101.314V101.339V101.364V101.389V101.414V101.44V101.465V101.49V101.515V101.54V101.566V101.591V101.617V101.642V101.668V101.693V101.719V101.744V101.77V101.796V101.821V101.847V101.873V101.899V101.924V101.95V101.976V102.002V102.028V102.054V102.08V102.106V102.133V102.159V102.185V102.211V102.237V102.264V102.29V102.316V102.343V102.369V102.395V102.422V102.448V102.475V102.501V102.528V102.555V102.581V102.608V102.635V102.661V102.688V102.715V102.741V102.768V102.795V102.822V102.849V102.876V102.903V102.93V102.957V102.984V103.011V103.038V103.065V103.092V103.119V103.146V103.173V103.2V103.228V103.255V103.282V103.309V103.336V103.364V103.391V103.418V103.446V103.473V103.5V103.528V103.555V103.583V103.61V103.638V103.665V103.693V103.72V103.748V103.775V103.803V103.83V103.858V103.885V103.913V103.941V103.968V103.996V104.023V104.051V104.079V104.106V104.134V104.162V104.189V104.217V104.245V104.273V104.3V104.328V104.356V104.384V104.411V104.439V104.467V104.495V104.523V104.55V104.578V104.606V104.634V104.662V104.689V104.717V104.745V104.773V104.801V104.829V104.857V104.884V104.912V104.94V104.968V104.996V105.024V105.051V105.079V105.107V105.135V105.163V105.191V105.219V105.246V105.274V105.302V105.33V105.358V105.386V105.414V105.441V105.469V105.497V105.525V105.553V105.58V105.608V105.636V105.664V105.692V105.719V105.747V105.775V105.803V105.83V105.858V105.886V105.914V105.941V105.969V105.997V106.024V106.052V106.08V106.107V106.135V106.163V106.19V106.218V106.246V106.273V106.301V106.328V106.356V106.383V106.411V106.438V106.466V106.493V106.521V106.548V106.576V106.603V106.63V106.658V106.685V106.713V106.74V106.767V106.794V106.822V106.849V106.876V106.903V106.931V106.958V106.985V107.012V107.039V107.066V107.093V107.12V107.147V107.174V107.201V107.228V107.255V107.282V107.309V107.336V107.363V107.39V107.416V107.443V107.47V107.496V107.523V107.55V107.576V107.603V107.63V107.656V107.683V107.709V107.736V107.762V107.788V107.815V107.841V107.867V107.894V107.92V107.946V107.972V107.999V108.025V108.051V108.077V108.103V108.129V108.155V108.181V108.207V108.232V108.258V108.284V108.31V108.336V108.361V108.387V108.413V108.438V108.464V108.489V108.515V108.54V108.565V108.591V108.616V108.641V108.667V108.692V108.717V108.742V108.767V108.792V108.817V108.842V108.867V108.892V108.917V108.941V108.966V108.991V109.015V109.04V109.065V109.089V109.114V109.138V109.162V109.187V109.211V109.235V109.259V109.284V109.308V109.332V109.356V109.38V109.404V109.427V109.451V109.475V109.499V109.522V109.546V109.57V109.593V109.616V109.64V109.663V109.687V109.71V109.733V109.756V109.779V109.802V109.825V109.848V109.871V109.894V109.917V109.939V109.962V109.985V110.007V110.03V110.052V110.074V110.097V110.119V110.141V110.163V110.185V110.207V110.229V110.251V110.273V110.295V110.317V110.338V110.36V110.382V110.403V110.424V110.446V110.467V110.488V110.51V110.531V110.552V110.573V110.594V110.614V110.635V110.656V110.677V110.697V110.718V110.738V110.759V110.779V110.799V110.819V110.839V110.86V110.88V110.899V110.919V110.939V110.959V110.978V110.998V111.018V111.037V111.056V111.076V111.095V111.114V111.133V111.152V111.171V111.19V111.209V111.227V111.246V111.265V111.283V111.301V111.32V111.338V111.356V111.374V111.392V111.41V111.428V111.446V111.464V111.481V111.499V111.516V111.534V111.551V111.568V111.586V111.603V111.62V111.637V111.653V111.67V111.687V111.704V111.72V111.737V111.753V111.769V111.785V111.801V111.817V111.833V111.849V111.865V111.881V111.896V111.912V111.927V111.943V111.958V111.973V111.988V112.003V112.018V112.033V112.048V112.062V112.077V112.091V112.106V112.12V112.134V112.148V112.162V112.176V112.19V112.204V112.217V112.231V112.244V112.258V112.271Z" fill="#131313" stroke="white" stroke-width="0.952756"/>
<path d="M90.2745 100.013C90.2745 101.202 89.7363 102.37 88.6912 103.472C87.6437 104.577 86.1055 105.594 84.1685 106.458C80.2957 108.185 74.9119 109.266 68.9399 109.266C62.9679 109.266 57.5841 108.185 53.7113 106.458C51.7743 105.594 50.2361 104.577 49.1886 103.472C48.1435 102.37 47.6053 101.202 47.6053 100.013C47.6053 98.8238 48.1435 97.6557 49.1886 96.5534C50.2361 95.4486 51.7743 94.4321 53.7113 93.568C57.5841 91.8404 62.9679 90.7596 68.9399 90.7596C74.9119 90.7596 80.2957 91.8404 84.1685 93.568C86.1055 94.4321 87.6437 95.4486 88.6912 96.5534C89.7363 97.6557 90.2745 98.8238 90.2745 100.013Z" fill="#131313" stroke="white" stroke-width="0.952756"/>
<path d="M166.535 147.074L143.103 133.545L143.104 66.9821L165.942 53.8276L189.375 67.3393L189.374 133.835L166.535 147.074Z" fill="#131313" stroke="white" stroke-width="0.952756"/>
<rect x="0.825111" width="26.2121" height="26.8875" transform="matrix(0.866025 -0.5 0.866025 0.5 142.405 67.3227)" fill="#131313" stroke="white" stroke-width="0.952756"/>
<path d="M121.809 182.285L98.3765 168.756L98.3773 102.193L121.215 89.0386L144.649 102.55L144.648 169.046L121.809 182.285Z" fill="#131313" stroke="white" stroke-width="0.952756"/>
<rect x="0.825111" width="26.0943" height="26.7667" transform="matrix(0.866025 -0.5 0.866025 0.5 97.7829 102.475)" fill="#131313" stroke="white" stroke-width="0.952756"/>
<defs>
<filter id="filter0_i_10757_1223" x="129.778" y="184.891" width="34.6748" height="25.3711" filterUnits="userSpaceOnUse" color-interpolation-filters="sRGB">
<feFlood flood-opacity="0" result="BackgroundImageFix"/>
<feBlend mode="normal" in="SourceGraphic" in2="BackgroundImageFix" result="shape"/>
<feColorMatrix in="SourceAlpha" type="matrix" values="0 0 0 0 0 0 0 0 0 0 0 0 0 0 0 0 0 0 127 0" result="hardAlpha"/>
<feOffset/>
<feGaussianBlur stdDeviation="0.952756"/>
<feComposite in2="hardAlpha" operator="arithmetic" k2="-1" k3="1"/>
<feColorMatrix type="matrix" values="0 0 0 0 1 0 0 0 0 1 0 0 0 0 1 0 0 0 0.75 0"/>
<feBlend mode="normal" in2="shape" result="effect1_innerShadow_10757_1223"/>
</filter>
</defs>
</svg>
