<svg width="110" height="144" viewBox="0 0 110 144" fill="none" xmlns="http://www.w3.org/2000/svg">
<path d="M55.9373 142.841C48.7915 138.585 5.70923 112.913 2.0564 110.685V92.3333L53.7357 63.834L106.206 94.5593V111.145C105.501 111.585 102.779 113.32 98.9261 115.775C94.7587 118.43 89.2688 121.928 83.5779 125.542C72.2086 132.763 60.0318 140.449 55.9373 142.841Z" fill="#131313" stroke="white" stroke-width="0.952756"/>
<path d="M105.972 93.8991L52.6072 63.1484L2.29043 92.1429L55.6549 122.894L105.972 93.8991Z" fill="#131313" stroke="white" stroke-width="0.952756"/>
<path d="M66.9737 85.7977C73.9832 90.1724 74.0079 97.2471 67.0352 101.599C60.0624 105.951 48.7272 105.935 41.7177 101.56C34.7082 97.1857 34.6835 90.1111 41.6563 85.7591C48.6291 81.4071 59.9642 81.4231 66.9737 85.7977Z" fill="#131313" stroke="white" stroke-width="0.952756"/>
<mask id="mask0_10840_2720" style="mask-type:luminance" maskUnits="userSpaceOnUse" x="36" y="82" width="37" height="19">
<path fill-rule="evenodd" clip-rule="evenodd" d="M68.0143 100.812C74.1789 96.3646 73.877 89.6333 67.1093 85.4093C60.0263 80.9886 48.5422 80.9886 41.4592 85.4093C34.6915 89.6333 34.3896 96.3646 40.5541 100.812C40.842 100.605 41.1432 100.402 41.4592 100.205C48.5422 95.7839 60.0263 95.7839 67.1093 100.205C67.4252 100.402 67.7265 100.605 68.0143 100.812Z" fill="white"/>
</mask>
<g mask="url(#mask0_10840_2720)">
<path d="M68.0144 100.812L67.6417 101.327L68.0144 101.596L68.3871 101.327L68.0144 100.812ZM40.5542 100.812L40.1815 101.327L40.5542 101.596L40.9269 101.327L40.5542 100.812ZM66.772 85.9483C70.0363 87.9857 71.6394 90.5597 71.7757 93.0617C71.9119 95.5583 70.5974 98.165 67.6417 100.298L68.3871 101.327C71.5953 99.0123 73.2124 96.0297 73.0468 92.993C72.8818 89.9617 70.9508 87.0577 67.4467 84.8717L66.772 85.9483ZM41.7966 85.9483C45.2145 83.815 49.7325 82.7297 54.284 82.7297C58.8354 82.7297 63.3534 83.815 66.772 85.9483L67.4467 84.8717C63.7823 82.5843 59.0164 81.459 54.284 81.459C49.5522 81.459 44.7863 82.5843 41.1213 84.8717L41.7966 85.9483ZM40.9269 100.298C37.9705 98.165 36.6567 95.5583 36.7923 93.0617C36.9292 90.5597 38.5323 87.9857 41.7966 85.9483L41.1213 84.8717C37.6179 87.0577 35.6868 89.9617 35.5218 92.993C35.3562 96.0297 36.9733 99.0123 40.1815 101.327L40.9269 100.298ZM40.9269 101.327C41.2028 101.128 41.4927 100.934 41.7966 100.744L41.1213 99.667C40.794 99.871 40.4807 100.082 40.1815 100.298L40.9269 101.327ZM41.7966 100.744C45.2145 98.6103 49.7325 97.525 54.284 97.525C58.8354 97.525 63.3534 98.6103 66.772 100.744L67.4467 99.667C63.7823 97.3797 59.0164 96.255 54.284 96.255C49.5522 96.255 44.7863 97.3797 41.1213 99.667L41.7966 100.744ZM66.772 100.744C67.0759 100.934 67.3658 101.128 67.6417 101.327L68.3871 100.298C68.0879 100.082 67.774 99.871 67.4467 99.667L66.772 100.744Z" fill="white"/>
</g>
<g filter="url(#filter0_i_10840_2720)">
<path d="M17.8618 113.358C19.3468 114.214 20.5505 113.52 20.5505 111.809C20.5505 110.097 19.3468 108.016 17.8618 107.161C16.3769 106.305 15.1731 106.999 15.1731 108.71C15.1731 110.421 16.3769 112.502 17.8618 113.358Z" fill="#131313" stroke="white" stroke-width="0.952756"/>
<path d="M28.6064 119.549C30.0914 120.405 31.2952 119.711 31.2952 118C31.2952 116.289 30.0914 114.208 28.6064 113.352C27.1215 112.496 25.9177 113.19 25.9177 114.901C25.9177 116.613 27.1215 118.694 28.6064 119.549Z" fill="#131313" stroke="white" stroke-width="0.952756"/>
<path d="M39.3538 125.745C40.8387 126.6 42.0425 125.907 42.0425 124.195C42.0425 122.484 40.8387 120.403 39.3538 119.547C37.8688 118.692 36.665 119.385 36.665 121.097C36.665 122.808 37.8688 124.889 39.3538 125.745Z" fill="#131313" stroke="white" stroke-width="0.952756"/>
</g>
<path d="M14.1172 40.3925C14.1172 62.1483 31.7589 79.8184 53.5211 79.8599C75.2833 79.9013 92.925 62.2984 92.925 40.5427C92.925 18.7869 75.2833 1.11677 53.5211 1.0753C31.7589 1.03383 14.1172 18.6367 14.1172 40.3925Z" fill="#131313" stroke="white" stroke-width="0.952756"/>
<g style="mix-blend-mode:color-dodge">
<path d="M92.738 36.6237C92.2738 26.289 74.2905 18.6985 52.5713 19.6697C30.8514 20.6409 13.6207 29.8061 14.0846 40.141" stroke="white" stroke-width="0.952756"/>
</g>
<g style="mix-blend-mode:color-dodge">
<path d="M27.3386 70.1204C40.5236 78.0778 60.2255 69.6511 71.3443 51.2991C82.463 32.9478 80.7878 11.6195 67.6031 3.66211" stroke="white" stroke-width="0.952756"/>
</g>
<g style="mix-blend-mode:color-dodge">
<path d="M75.3037 73.2678C66.3699 78.4932 50.2147 67.5512 39.2202 48.8272C28.226 30.1033 26.5555 10.6885 35.489 5.46289" stroke="white" stroke-width="0.952756"/>
</g>
<path d="M14.7264 33.9298C5.02479 39.4511 -0.463322 45.4785 0.646617 50.6098C2.79609 60.5458 28.8753 63.3558 58.8962 56.8865C88.9174 50.4171 111.512 37.1178 109.362 27.1815C108.122 21.4499 98.9193 18.0895 85.591 17.5137" stroke="white" stroke-width="0.952756"/>
<path d="M8.06025 52.2063C6.70806 50.7964 4.46673 50.7476 3.05411 52.0971C1.64148 53.4467 1.5925 55.6837 2.9447 57.0936C4.2969 58.5035 6.53822 58.5524 7.95084 57.2028C9.36346 55.8532 9.41245 53.6162 8.06025 52.2063Z" fill="#131313" stroke="white" stroke-width="0.952756"/>
<path d="M97.4761 39.3792C94.7802 37.4086 90.9941 37.9923 89.0197 40.6831C87.0452 43.3738 87.6301 47.1526 90.3261 49.1233C93.022 51.0939 96.8081 50.5101 98.7825 47.8194C100.757 45.1286 100.172 41.3498 97.4761 39.3792Z" fill="#131313" stroke="white" stroke-width="0.952756"/>
<path d="M55.9326 122.898V143.054" stroke="white" stroke-width="0.952756"/>
<defs>
<filter id="filter0_i_10840_2720" x="14.7603" y="106.262" width="27.6951" height="20.3828" filterUnits="userSpaceOnUse" color-interpolation-filters="sRGB">
<feFlood flood-opacity="0" result="BackgroundImageFix"/>
<feBlend mode="normal" in="SourceGraphic" in2="BackgroundImageFix" result="shape"/>
<feColorMatrix in="SourceAlpha" type="matrix" values="0 0 0 0 0 0 0 0 0 0 0 0 0 0 0 0 0 0 127 0" result="hardAlpha"/>
<feOffset/>
<feGaussianBlur stdDeviation="0.952756"/>
<feComposite in2="hardAlpha" operator="arithmetic" k2="-1" k3="1"/>
<feColorMatrix type="matrix" values="0 0 0 0 1 0 0 0 0 1 0 0 0 0 1 0 0 0 0.75 0"/>
<feBlend mode="normal" in2="shape" result="effect1_innerShadow_10840_2720"/>
</filter>
</defs>
</svg>
