<svg width="296" height="259" viewBox="0 0 296 259" fill="none" xmlns="http://www.w3.org/2000/svg">
<g clip-path="url(#clip0_11012_2265)">
<rect width="296" height="258" transform="translate(0 0.5)" fill="#101010"/>
<path opacity="0.78" fill-rule="evenodd" clip-rule="evenodd" d="M2.25892 191.865L36.6236 172.025L2.6074 151.586L-31.7573 171.426L2.25892 191.865ZM71.83 152.192L37.4652 172.032L71.4777 192.469L105.843 172.628L71.83 152.192ZM71.4114 151.94L37.0466 171.781L3.03032 151.342L37.3951 131.501L71.4114 151.94ZM72.2529 151.947L106.621 132.105L140.633 152.542L106.265 172.384L72.2529 151.947ZM71.8343 151.696L106.202 131.854L72.1858 111.415L37.8181 131.257L71.8343 151.696ZM141.406 112.022L107.044 131.861L141.056 152.298L175.419 132.458L141.406 112.022ZM140.988 111.77L106.625 131.61L72.6087 111.171L106.972 91.3312L140.988 111.77ZM141.829 111.778L176.197 91.9354L210.209 112.372L175.842 132.214L141.829 111.778ZM141.411 111.526L175.778 91.6839L141.762 71.2449L107.395 91.087L141.411 111.526ZM210.986 71.8501L176.62 91.6912L210.632 112.128L244.998 92.2869L210.986 71.8501ZM210.567 71.5986L176.201 91.4397L142.185 71.0007L176.551 51.1596L210.567 71.5986ZM211.409 71.6059L213.682 70.2933L213.263 70.0418L210.99 71.3544L176.974 50.9154L179.245 49.6042L178.826 49.3527L176.555 50.6639L142.542 30.2267L144.813 28.9152L144.395 28.6637L142.123 29.9752L120.473 16.9665L120.05 17.2106L141.7 30.2193L107.335 50.0604L85.6839 37.0514L85.261 37.2956L106.912 50.3046L72.5441 70.1467L50.8915 57.1365L50.4685 57.3807L72.1212 70.3909L37.7583 90.2304L16.1079 77.2215L15.685 77.4657L37.3353 90.4745L2.96763 110.317L-18.685 97.3065L-19.1079 97.5507L2.54472 110.561L-31.8201 130.401L-53.4721 117.392L-53.895 117.636L-32.243 130.646L-66.6077 150.486L-88.2592 137.477L-88.6822 137.721L-67.0307 150.73L-69.3047 152.043L-68.8861 152.295L-66.6121 150.982L-32.5988 171.419L-34.8734 172.732L-34.4548 172.984L-32.1802 171.671L1.83599 192.11L-0.436082 193.421L-0.017478 193.673L2.2546 192.361L36.2671 212.798L33.9935 214.111L34.412 214.362L36.6857 213.049L70.6998 233.487L68.4265 234.8L68.8451 235.051L71.1184 233.739L105.134 254.177L102.861 255.489L103.28 255.74L105.552 254.428L139.565 274.865L137.291 276.178L137.709 276.429L139.983 275.117L161.636 288.127L162.059 287.883L140.406 274.872L174.771 255.032L196.423 268.042L196.846 267.798L175.194 254.788L209.558 234.947L231.21 247.957L231.633 247.713L209.981 234.703L244.349 214.861L266.003 227.872L266.426 227.628L244.772 214.617L279.135 194.777L300.786 207.787L301.209 207.543L279.558 194.533L313.925 174.691L335.579 187.702L336.002 187.457L314.348 174.447L348.714 154.606L370.368 167.617L370.791 167.373L349.137 154.362L351.409 153.05L350.99 152.798L348.718 154.11L314.706 133.673L316.979 132.361L316.561 132.109L314.287 133.422L280.272 112.984L282.545 111.672L282.126 111.42L279.854 112.732L245.84 92.2943L248.112 90.9826L247.693 90.7311L245.421 92.0427L211.409 71.6059ZM245.417 92.5384L211.051 112.38L245.065 132.817L279.431 112.976L245.417 92.5384ZM279.849 113.228L245.484 133.069L279.499 153.507L313.865 133.666L279.849 113.228ZM314.283 133.918L279.917 153.759L313.93 174.195L348.296 154.354L314.283 133.918ZM142.119 30.4709L107.753 50.3119L141.766 70.7491L176.132 50.9081L142.119 30.4709ZM176.26 132.466L210.628 112.624L244.642 133.061L210.275 152.904L176.26 132.466ZM210.693 153.155L245.061 133.313L279.076 153.751L244.708 173.593L210.693 153.155ZM245.127 173.845L279.494 154.003L313.507 174.439L279.139 194.282L245.127 173.845ZM72.9627 70.3983L107.33 50.5561L141.343 70.9933L106.976 90.8355L72.9627 70.3983ZM175.838 132.71L141.475 152.549L175.489 172.987L209.852 153.148L175.838 132.71ZM210.27 153.399L175.907 173.239L209.922 193.677L244.285 173.838L210.27 153.399ZM244.704 174.089L210.341 193.929L244.353 214.365L278.716 194.526L244.704 174.089ZM72.5398 70.6424L38.1769 90.4819L72.1901 110.919L106.553 91.0796L72.5398 70.6424ZM106.684 172.636L141.052 152.794L175.066 173.231L140.698 193.074L106.684 172.636ZM141.117 193.325L175.484 173.483L209.499 193.921L175.132 213.763L141.117 193.325ZM175.55 214.015L209.918 194.173L243.931 214.609L209.563 234.452L175.55 214.015ZM3.38624 110.568L37.7539 90.7261L71.7671 111.163L37.3995 131.005L3.38624 110.568ZM106.261 172.88L71.8963 192.721L105.91 213.158L140.275 193.318L106.261 172.88ZM140.694 193.569L106.329 213.41L140.344 233.848L174.709 214.008L140.694 193.569ZM175.127 214.259L140.763 234.1L174.775 254.536L209.14 234.696L175.127 214.259ZM2.96332 110.812L-31.4015 130.653L2.61172 151.09L36.9765 131.25L2.96332 110.812ZM2.67753 192.117L37.0422 172.276L71.0548 192.713L36.6901 212.554L2.67753 192.117ZM37.1086 212.805L71.4734 192.965L105.487 213.402L71.1228 233.243L37.1086 212.805ZM71.5413 233.494L105.906 213.654L139.921 234.092L105.556 253.933L71.5413 233.494ZM105.975 254.184L140.34 234.344L174.352 254.78L139.987 274.621L105.975 254.184ZM-66.1891 150.738L-31.8244 130.897L2.1888 151.334L-32.1759 171.175L-66.1891 150.738Z" fill="url(#paint0_radial_11012_2265)"/>
<path opacity="0.06" fill-rule="evenodd" clip-rule="evenodd" d="M229.102 183.522L148.104 134.854L59.9482 185.751L140.946 234.419L197.164 201.961C201.696 204.152 208.458 204.018 212.718 201.559C216.978 199.1 217.21 195.195 213.414 192.579L229.102 183.522Z" fill="white"/>
<rect opacity="0.06" width="73.4424" height="23.522" rx="11.761" transform="matrix(0.866025 0.5 -0.866025 0.5 204.059 122.068)" fill="white"/>
<path d="M133.603 212.527C123.693 206.612 64.6759 171.378 59.4685 168.198V142.947L130.57 103.66L202.762 146.017V168.834C201.748 169.469 198.017 171.851 192.757 175.209C187.02 178.872 179.464 183.696 171.632 188.679C156.003 198.624 139.268 209.208 133.603 212.527Z" fill="#131313"/>
<path d="M133.603 212.527C123.693 206.612 64.6759 171.378 59.4685 168.198V142.947L130.57 103.66L202.762 146.017V168.834C201.748 169.469 198.017 171.851 192.757 175.209C187.02 178.872 179.464 183.696 171.632 188.679C156.003 198.624 139.268 209.208 133.603 212.527Z" fill="url(#paint1_linear_11012_2265)"/>
<path d="M133.603 212.527C123.693 206.612 64.6759 171.378 59.4685 168.198V142.947L130.57 103.66L202.762 146.017V168.834C201.748 169.469 198.017 171.851 192.757 175.209C187.02 178.872 179.464 183.696 171.632 188.679C156.003 198.624 139.268 209.208 133.603 212.527Z" fill="url(#paint2_linear_11012_2265)"/>
<path d="M133.603 212.527C123.693 206.612 64.6759 171.378 59.4685 168.198V142.947L130.57 103.66L202.762 146.017V168.834C201.748 169.469 198.017 171.851 192.757 175.209C187.02 178.872 179.464 183.696 171.632 188.679C156.003 198.624 139.268 209.208 133.603 212.527Z" stroke="white" stroke-width="0.99175"/>
<rect x="-2.95565e-08" y="0.495875" width="85.5075" height="79.3126" transform="matrix(0.866025 0.5 -0.866025 0.5 128.949 102.744)" fill="#131313"/>
<rect x="-2.95565e-08" y="0.495875" width="85.5075" height="79.3126" transform="matrix(0.866025 0.5 -0.866025 0.5 128.949 102.744)" fill="url(#paint3_linear_11012_2265)"/>
<rect x="-2.95565e-08" y="0.495875" width="85.5075" height="79.3126" transform="matrix(0.866025 0.5 -0.866025 0.5 128.949 102.744)" fill="url(#paint4_linear_11012_2265)"/>
<rect x="-2.95565e-08" y="0.495875" width="85.5075" height="79.3126" transform="matrix(0.866025 0.5 -0.866025 0.5 128.949 102.744)" stroke="white" stroke-width="0.99175"/>
<path d="M148.798 133.895C158.449 139.93 158.484 149.69 148.883 155.694C139.281 161.698 123.673 161.677 114.022 155.641C104.37 149.606 104.335 139.846 113.937 133.842C123.538 127.838 139.146 127.859 148.798 133.895Z" fill="#131313" stroke="white" stroke-width="0.876292"/>
<mask id="path-7-inside-1_11012_2265" fill="white">
<path fill-rule="evenodd" clip-rule="evenodd" d="M150.23 154.611C158.718 148.475 158.303 139.189 148.984 133.361C139.231 127.262 123.418 127.262 113.665 133.361C104.346 139.189 103.931 148.475 112.419 154.611C112.815 154.325 113.23 154.045 113.665 153.774C123.418 147.675 139.231 147.675 148.984 153.774C149.419 154.045 149.834 154.325 150.23 154.611Z"/>
</mask>
<path fill-rule="evenodd" clip-rule="evenodd" d="M150.23 154.611C158.718 148.475 158.303 139.189 148.984 133.361C139.231 127.262 123.418 127.262 113.665 133.361C104.346 139.189 103.931 148.475 112.419 154.611C112.815 154.325 113.23 154.045 113.665 153.774C123.418 147.675 139.231 147.675 148.984 153.774C149.419 154.045 149.834 154.325 150.23 154.611Z" fill="#131313"/>
<path fill-rule="evenodd" clip-rule="evenodd" d="M150.23 154.611C158.718 148.475 158.303 139.189 148.984 133.361C139.231 127.262 123.418 127.262 113.665 133.361C104.346 139.189 103.931 148.475 112.419 154.611C112.815 154.325 113.23 154.045 113.665 153.774C123.418 147.675 139.231 147.675 148.984 153.774C149.419 154.045 149.834 154.325 150.23 154.611Z" fill="url(#paint5_linear_11012_2265)"/>
<path d="M148.984 133.361L149.3 132.857L148.984 133.361ZM150.23 154.611L149.882 155.093L150.23 155.345L150.579 155.093L150.23 154.611ZM113.665 133.361L113.98 133.866L113.665 133.361ZM112.419 154.611L112.07 155.093L112.419 155.345L112.767 155.093L112.419 154.611ZM113.665 153.774L113.98 154.278H113.98L113.665 153.774ZM148.984 153.774L148.669 154.278L148.984 153.774ZM148.669 133.866C153.216 136.71 155.497 140.333 155.691 143.903C155.885 147.467 154.008 151.146 149.882 154.128L150.579 155.093C154.941 151.94 157.1 147.908 156.879 143.838C156.658 139.774 154.071 135.841 149.3 132.857L148.669 133.866ZM113.98 133.866C118.742 130.888 125.017 129.382 131.325 129.382C137.632 129.382 143.907 130.888 148.669 133.866L149.3 132.857C144.308 129.735 137.801 128.192 131.325 128.192C124.848 128.192 118.341 129.735 113.349 132.857L113.98 133.866ZM112.767 154.128C108.641 151.146 106.764 147.467 106.958 143.903C107.152 140.333 109.433 136.71 113.98 133.866L113.349 132.857C108.578 135.841 105.991 139.774 105.77 143.838C105.549 147.908 107.708 151.94 112.07 155.093L112.767 154.128ZM112.767 155.093C113.152 154.815 113.556 154.543 113.98 154.278L113.349 153.269C112.904 153.548 112.477 153.834 112.07 154.128L112.767 155.093ZM113.98 154.278C118.742 151.301 125.017 149.794 131.325 149.794C137.632 149.794 143.907 151.301 148.669 154.278L149.3 153.269C144.308 150.147 137.801 148.604 131.325 148.604C124.848 148.604 118.341 150.147 113.349 153.269L113.98 154.278ZM148.669 154.278C149.093 154.543 149.497 154.815 149.882 155.093L150.579 154.128C150.172 153.834 149.745 153.548 149.3 153.269L148.669 154.278Z" fill="white" mask="url(#path-7-inside-1_11012_2265)"/>
<g filter="url(#filter0_i_11012_2265)">
<circle cx="4.71314" cy="4.71314" r="4.41562" transform="matrix(0.866025 0.5 -2.20305e-08 1 77.0967 160.574)" fill="#131313" stroke="white" stroke-width="0.59505"/>
<circle cx="4.71314" cy="4.71314" r="4.41562" transform="matrix(0.866025 0.5 -2.20305e-08 1 91.8916 169.117)" fill="#131313" stroke="white" stroke-width="0.59505"/>
<circle cx="4.71314" cy="4.71314" r="4.41562" transform="matrix(0.866025 0.5 -2.20305e-08 1 106.691 177.66)" fill="#131313" stroke="white" stroke-width="0.59505"/>
</g>
<line x1="133.654" y1="185.082" x2="133.654" y2="212.89" stroke="white" stroke-width="0.99175"/>
<g filter="url(#filter1_d_11012_2265)">
<circle cx="128.438" cy="76.9578" r="54.74" transform="rotate(49.4336 128.438 76.9578)" fill="url(#paint6_linear_11012_2265)"/>
<circle cx="128.438" cy="76.9578" r="54.2441" transform="rotate(49.4336 128.438 76.9578)" stroke="white" stroke-width="0.99175"/>
</g>
<g style="mix-blend-mode:color-dodge">
<path d="M182.437 71.5733C181.798 57.3154 157.036 46.8433 127.13 48.1832C97.2228 49.5232 73.4964 62.1677 74.1352 76.4256" stroke="white" stroke-width="0.59505"/>
</g>
<g style="mix-blend-mode:color-dodge">
<path d="M92.3835 117.786C110.539 128.764 137.667 117.139 152.977 91.82C168.287 66.5014 165.981 37.077 147.826 26.0988" stroke="white" stroke-width="0.59505"/>
</g>
<g style="mix-blend-mode:color-dodge">
<path d="M158.431 122.127C146.13 129.336 123.885 114.24 108.746 88.4079C93.6072 62.5763 91.307 35.7913 103.608 28.582" stroke="white" stroke-width="0.59505"/>
</g>
<path d="M75.0158 67.8582C61.657 75.4749 54.1001 83.7908 55.6285 90.8694C58.5882 104.577 94.4983 108.454 135.836 99.5289C177.173 90.6035 208.285 72.2556 205.325 58.5477C203.618 50.6403 190.946 46.0042 172.593 45.2098" stroke="white" stroke-width="0.99175"/>
<circle cx="60.2197" cy="96.4143" r="4.15731" transform="rotate(-133.748 60.2197 96.4143)" fill="#131313" stroke="white" stroke-width="0.59505"/>
<circle cx="184.04" cy="82.095" r="8.47198" transform="rotate(-143.782 184.04 82.095)" fill="#131313" stroke="white" stroke-width="0.59505"/>
<path d="M221.414 48.5883L222.334 46.4425L223.254 49.6506C224.236 53.0721 226.08 56.4844 228.446 59.2546L230.244 61.3599L228.446 61.389C226.08 61.4273 224.236 62.7096 223.254 64.9982L222.334 67.144L221.414 63.9358C220.433 60.5143 218.589 57.102 216.223 54.3319L214.425 52.2265L216.223 52.1974C218.589 52.1591 220.433 50.8768 221.414 48.5883Z" fill="#131313"/>
<path d="M221.414 48.5883L222.334 46.4425L223.254 49.6506C224.236 53.0721 226.08 56.4844 228.446 59.2546L230.244 61.3599L228.446 61.389C226.08 61.4273 224.236 62.7096 223.254 64.9982L222.334 67.144L221.414 63.9358C220.433 60.5143 218.589 57.102 216.223 54.3319L214.425 52.2265L216.223 52.1974C218.589 52.1591 220.433 50.8768 221.414 48.5883Z" fill="url(#paint7_linear_11012_2265)"/>
<path d="M221.414 48.5883L222.334 46.4425L223.254 49.6506C224.236 53.0721 226.08 56.4844 228.446 59.2546L230.244 61.3599L228.446 61.389C226.08 61.4273 224.236 62.7096 223.254 64.9982L222.334 67.144L221.414 63.9358C220.433 60.5143 218.589 57.102 216.223 54.3319L214.425 52.2265L216.223 52.1974C218.589 52.1591 220.433 50.8768 221.414 48.5883Z" stroke="white" stroke-width="0.3967"/>
<path d="M49.5419 119.207L48.7877 117.448L48.0335 120.078C47.2007 122.982 45.6349 125.879 43.6267 128.23L42.1504 129.959L43.6267 129.983C45.6349 130.015 47.2007 131.103 48.0335 133.046L48.7877 134.805L49.5419 132.175C50.3748 129.271 51.9405 126.374 53.9487 124.023L55.425 122.295L53.9487 122.271C51.9405 122.238 50.3748 121.15 49.5419 119.207Z" fill="#131313"/>
<path d="M49.5419 119.207L48.7877 117.448L48.0335 120.078C47.2007 122.982 45.6349 125.879 43.6267 128.23L42.1504 129.959L43.6267 129.983C45.6349 130.015 47.2007 131.103 48.0335 133.046L48.7877 134.805L49.5419 132.175C50.3748 129.271 51.9405 126.374 53.9487 124.023L55.425 122.295L53.9487 122.271C51.9405 122.238 50.3748 121.15 49.5419 119.207Z" fill="url(#paint8_linear_11012_2265)"/>
<path d="M49.5419 119.207L48.7877 117.448L48.0335 120.078C47.2007 122.982 45.6349 125.879 43.6267 128.23L42.1504 129.959L43.6267 129.983C45.6349 130.015 47.2007 131.103 48.0335 133.046L48.7877 134.805L49.5419 132.175C50.3748 129.271 51.9405 126.374 53.9487 124.023L55.425 122.295L53.9487 122.271C51.9405 122.238 50.3748 121.15 49.5419 119.207Z" stroke="white" stroke-width="0.3967"/>
<mask id="path-23-inside-2_11012_2265" fill="white">
<path fill-rule="evenodd" clip-rule="evenodd" d="M170.725 157.839C169.572 153.775 168.572 150.251 167.137 150.95L175.472 146.885C178.397 145.459 182.304 145.812 186.596 148.29L186.595 148.291L186.597 148.29L201.775 157.053L201.543 157.341C210.41 162.739 218.186 175.199 218.186 185.481L218.186 185.481C218.186 190.991 216.15 194.776 212.899 196.362L204.564 200.427C206.562 199.452 204.718 192.394 203 185.82L203 185.82C201.923 181.7 200.897 177.77 200.897 175.647L205.003 177.983C201.934 173.967 197.788 170.157 193.711 167.025L190.492 171.005L181.525 157.332L175.472 168.123C173.286 166.861 171.923 162.059 170.725 157.839Z"/>
</mask>
<path fill-rule="evenodd" clip-rule="evenodd" d="M170.725 157.839C169.572 153.775 168.572 150.251 167.137 150.95L175.472 146.885C178.397 145.459 182.304 145.812 186.596 148.29L186.595 148.291L186.597 148.29L201.775 157.053L201.543 157.341C210.41 162.739 218.186 175.199 218.186 185.481L218.186 185.481C218.186 190.991 216.15 194.776 212.899 196.362L204.564 200.427C206.562 199.452 204.718 192.394 203 185.82L203 185.82C201.923 181.7 200.897 177.77 200.897 175.647L205.003 177.983C201.934 173.967 197.788 170.157 193.711 167.025L190.492 171.005L181.525 157.332L175.472 168.123C173.286 166.861 171.923 162.059 170.725 157.839Z" fill="#131313"/>
<path fill-rule="evenodd" clip-rule="evenodd" d="M170.725 157.839C169.572 153.775 168.572 150.251 167.137 150.95L175.472 146.885C178.397 145.459 182.304 145.812 186.596 148.29L186.595 148.291L186.597 148.29L201.775 157.053L201.543 157.341C210.41 162.739 218.186 175.199 218.186 185.481L218.186 185.481C218.186 190.991 216.15 194.776 212.899 196.362L204.564 200.427C206.562 199.452 204.718 192.394 203 185.82L203 185.82C201.923 181.7 200.897 177.77 200.897 175.647L205.003 177.983C201.934 173.967 197.788 170.157 193.711 167.025L190.492 171.005L181.525 157.332L175.472 168.123C173.286 166.861 171.923 162.059 170.725 157.839Z" fill="url(#paint9_linear_11012_2265)"/>
<path fill-rule="evenodd" clip-rule="evenodd" d="M170.725 157.839C169.572 153.775 168.572 150.251 167.137 150.95L175.472 146.885C178.397 145.459 182.304 145.812 186.596 148.29L186.595 148.291L186.597 148.29L201.775 157.053L201.543 157.341C210.41 162.739 218.186 175.199 218.186 185.481L218.186 185.481C218.186 190.991 216.15 194.776 212.899 196.362L204.564 200.427C206.562 199.452 204.718 192.394 203 185.82L203 185.82C201.923 181.7 200.897 177.77 200.897 175.647L205.003 177.983C201.934 173.967 197.788 170.157 193.711 167.025L190.492 171.005L181.525 157.332L175.472 168.123C173.286 166.861 171.923 162.059 170.725 157.839Z" fill="url(#paint10_linear_11012_2265)"/>
<path d="M167.137 150.95L166.786 150.231C166.389 150.425 166.224 150.904 166.418 151.301C166.611 151.698 167.09 151.863 167.487 151.669L167.137 150.95ZM170.725 157.839L171.495 157.621H171.495L170.725 157.839ZM175.472 146.885L175.122 146.166L175.121 146.166L175.472 146.885ZM186.596 148.29L187.294 148.682C187.508 148.3 187.375 147.817 186.996 147.598L186.596 148.29ZM186.595 148.291L185.898 147.9C185.727 148.205 185.774 148.586 186.014 148.841C186.254 149.095 186.632 149.164 186.946 149.01L186.595 148.291ZM186.597 148.29L186.997 147.598C186.767 147.465 186.485 147.455 186.246 147.571L186.597 148.29ZM201.775 157.053L202.397 157.556C202.544 157.375 202.604 157.137 202.562 156.907C202.519 156.677 202.378 156.478 202.175 156.361L201.775 157.053ZM201.543 157.341L200.921 156.838C200.776 157.017 200.715 157.25 200.755 157.478C200.794 157.705 200.93 157.904 201.127 158.024L201.543 157.341ZM218.186 185.481L217.386 185.481C217.386 185.769 217.54 186.034 217.79 186.177L218.186 185.481ZM218.186 185.481H218.986C218.986 185.193 218.831 184.928 218.581 184.786L218.186 185.481ZM212.899 196.362L213.25 197.081L213.25 197.081L212.899 196.362ZM204.564 200.427L204.213 199.708C203.816 199.902 203.651 200.381 203.845 200.778C204.039 201.175 204.518 201.34 204.915 201.146L204.564 200.427ZM203 185.82L202.216 185.977C202.219 185.992 202.222 186.007 202.226 186.022L203 185.82ZM203 185.82L203.785 185.663C203.781 185.648 203.778 185.633 203.774 185.618L203 185.82ZM200.897 175.647L201.292 174.952C201.044 174.811 200.741 174.812 200.494 174.956C200.248 175.099 200.097 175.362 200.097 175.647H200.897ZM205.003 177.983L204.608 178.678C204.938 178.867 205.356 178.796 205.606 178.509C205.856 178.223 205.87 177.8 205.639 177.497L205.003 177.983ZM193.711 167.025L194.199 166.39C193.854 166.126 193.362 166.184 193.089 166.522L193.711 167.025ZM190.492 171.005L189.824 171.444C189.964 171.657 190.197 171.791 190.453 171.804C190.708 171.817 190.954 171.707 191.115 171.508L190.492 171.005ZM181.525 157.332L182.194 156.893C182.041 156.659 181.777 156.522 181.497 156.532C181.218 156.542 180.964 156.696 180.827 156.94L181.525 157.332ZM175.472 168.123L175.072 168.816C175.257 168.923 175.478 168.951 175.684 168.895C175.89 168.838 176.065 168.701 176.17 168.515L175.472 168.123ZM167.487 151.669C167.521 151.653 167.509 151.666 167.481 151.659C167.467 151.656 167.505 151.66 167.592 151.742C167.784 151.923 168.027 152.301 168.304 152.931C168.85 154.17 169.373 156.003 169.956 158.058L171.495 157.621C170.924 155.611 170.37 153.65 169.769 152.286C169.473 151.614 169.125 150.988 168.689 150.578C168.463 150.364 168.178 150.176 167.83 150.098C167.468 150.017 167.111 150.073 166.786 150.231L167.487 151.669ZM175.121 146.166L166.786 150.231L167.487 151.669L175.823 147.604L175.121 146.166ZM186.996 147.598C182.565 145.04 178.367 144.584 175.122 146.166L175.823 147.604C178.427 146.334 182.042 146.585 186.196 148.983L186.996 147.598ZM187.293 148.682L187.294 148.682L185.898 147.899L185.898 147.9L187.293 148.682ZM186.246 147.571L186.245 147.572L186.946 149.01L186.948 149.009L186.246 147.571ZM202.175 156.361L186.997 147.598L186.197 148.983L201.375 157.746L202.175 156.361ZM202.165 157.844L202.397 157.556L201.153 156.55L200.921 156.838L202.165 157.844ZM201.127 158.024C205.428 160.642 209.503 165.003 212.504 169.992C215.506 174.984 217.386 180.527 217.386 185.481L218.986 185.481C218.986 180.154 216.977 174.326 213.875 169.167C210.771 164.006 206.525 159.437 201.959 156.657L201.127 158.024ZM218.581 184.786L218.581 184.785L217.79 186.177L217.791 186.177L218.581 184.786ZM213.25 197.081C216.875 195.312 218.986 191.168 218.986 185.481H217.386C217.386 190.814 215.425 194.239 212.549 195.643L213.25 197.081ZM204.915 201.146L213.25 197.081L212.549 195.643L204.213 199.708L204.915 201.146ZM202.226 186.022C203.088 189.322 203.967 192.687 204.385 195.347C204.595 196.682 204.68 197.784 204.607 198.586C204.53 199.45 204.301 199.665 204.213 199.708L204.915 201.146C205.826 200.702 206.116 199.668 206.201 198.73C206.291 197.729 206.182 196.472 205.966 195.099C205.532 192.343 204.63 188.891 203.774 185.618L202.226 186.022ZM202.216 185.977L202.216 185.977L203.785 185.663L203.785 185.663L202.216 185.977ZM200.097 175.647C200.097 176.805 200.372 178.394 200.764 180.158C201.159 181.938 201.689 183.966 202.226 186.022L203.774 185.618C203.235 183.554 202.713 181.557 202.326 179.811C201.935 178.05 201.697 176.612 201.697 175.647H200.097ZM205.399 177.288L201.292 174.952L200.501 176.343L204.608 178.678L205.399 177.288ZM205.639 177.497C202.513 173.407 198.309 169.549 194.199 166.39L193.224 167.659C197.266 170.766 201.355 174.527 204.368 178.469L205.639 177.497ZM191.115 171.508L194.333 167.528L193.089 166.522L189.87 170.502L191.115 171.508ZM180.856 157.77L189.824 171.444L191.161 170.566L182.194 156.893L180.856 157.77ZM176.17 168.515L182.223 157.723L180.827 156.94L174.774 167.732L176.17 168.515ZM169.956 158.058C170.551 160.157 171.203 162.457 171.986 164.391C172.379 165.359 172.814 166.262 173.307 167.015C173.796 167.763 174.374 168.413 175.072 168.816L175.872 167.431C175.477 167.202 175.065 166.779 174.646 166.139C174.231 165.505 173.841 164.707 173.469 163.79C172.725 161.952 172.097 159.741 171.495 157.621L169.956 158.058Z" fill="white" mask="url(#path-23-inside-2_11012_2265)"/>
<path d="M162.194 162.033C162.194 151.787 169.387 147.634 178.26 152.757L193.438 161.52C202.312 166.643 209.505 179.102 209.505 189.348C209.505 199.594 202.312 203.747 193.438 198.624L178.26 189.861C169.387 184.738 162.194 172.279 162.194 162.033Z" fill="#131313"/>
<path d="M162.194 162.033C162.194 151.787 169.387 147.634 178.26 152.757L193.438 161.52C202.312 166.643 209.505 179.102 209.505 189.348C209.505 199.594 202.312 203.747 193.438 198.624L178.26 189.861C169.387 184.738 162.194 172.279 162.194 162.033Z" fill="url(#paint11_linear_11012_2265)"/>
<path d="M162.194 162.033C162.194 151.787 169.387 147.634 178.26 152.757L193.438 161.52C202.312 166.643 209.505 179.102 209.505 189.348C209.505 199.594 202.312 203.747 193.438 198.624L178.26 189.861C169.387 184.738 162.194 172.279 162.194 162.033Z" fill="url(#paint12_linear_11012_2265)"/>
<path d="M162.194 162.033C162.194 151.787 169.387 147.634 178.26 152.757L193.438 161.52C202.312 166.643 209.505 179.102 209.505 189.348C209.505 199.594 202.312 203.747 193.438 198.624L178.26 189.861C169.387 184.738 162.194 172.279 162.194 162.033Z" stroke="white" stroke-width="0.8"/>
<path d="M172.852 171.115C172.357 170.829 171.93 170.475 171.57 170.052C171.21 169.622 170.931 169.156 170.732 168.655C170.532 168.147 170.433 167.637 170.433 167.125L170.433 166.992L171.213 167.442L171.213 167.542C171.213 168.129 171.361 168.663 171.657 169.145C171.952 169.627 172.344 170.009 172.833 170.291C173.347 170.588 173.748 170.653 174.037 170.486C174.326 170.319 174.471 169.946 174.471 169.368L174.471 169.267C174.471 168.711 174.33 168.188 174.047 167.698C173.771 167.205 173.411 166.83 172.968 166.574C172.711 166.426 172.499 166.352 172.331 166.352C172.164 166.344 172.033 166.383 171.936 166.468C171.84 166.546 171.76 166.63 171.695 166.719L170.635 166.107L170.635 161.889L175.069 164.449L175.069 165.261L171.416 163.152L171.416 165.845L171.551 165.923C171.621 165.816 171.718 165.727 171.84 165.656C171.968 165.589 172.139 165.569 172.351 165.595C172.563 165.621 172.826 165.725 173.141 165.906C173.533 166.133 173.886 166.441 174.201 166.83C174.522 167.223 174.776 167.667 174.963 168.16C175.155 168.657 175.252 169.173 175.252 169.707L175.252 169.829C175.252 170.356 175.155 170.764 174.963 171.054C174.77 171.343 174.494 171.499 174.134 171.521C173.774 171.536 173.347 171.4 172.852 171.115ZM178.751 174.521C177.987 174.079 177.376 173.467 176.92 172.685C176.47 171.898 176.246 170.982 176.246 169.936L176.246 168.111C176.246 167.072 176.47 166.419 176.92 166.152C177.376 165.889 177.987 165.978 178.751 166.419C179.522 166.864 180.133 167.48 180.583 168.266C181.039 169.057 181.267 169.971 181.267 171.01L181.267 172.835C181.267 173.881 181.039 174.536 180.583 174.799C180.133 175.059 179.522 174.966 178.751 174.521ZM178.751 173.708C179.33 174.042 179.763 174.092 180.052 173.859C180.342 173.625 180.486 173.148 180.486 172.429L180.486 170.503C180.486 169.784 180.338 169.142 180.043 168.578C179.747 168.007 179.317 167.558 178.751 167.231C178.186 166.905 177.755 166.857 177.46 167.087C177.171 167.32 177.026 167.793 177.026 168.506L177.026 170.431C177.026 171.158 177.171 171.805 177.46 172.373C177.749 172.933 178.18 173.378 178.751 173.708ZM184.728 177.971C183.963 177.53 183.353 176.918 182.897 176.135C182.447 175.349 182.222 174.432 182.222 173.386L182.222 171.561C182.222 170.522 182.447 169.87 182.897 169.603C183.353 169.339 183.963 169.428 184.728 169.87C185.499 170.315 186.109 170.931 186.559 171.717C187.015 172.507 187.243 173.422 187.243 174.46L187.243 176.285C187.243 177.331 187.015 177.986 186.559 178.25C186.109 178.509 185.499 178.416 184.728 177.971ZM184.728 177.159C185.306 177.493 185.74 177.543 186.029 177.309C186.318 177.075 186.463 176.599 186.463 175.879L186.463 173.954C186.463 173.234 186.315 172.592 186.019 172.029C185.724 171.457 185.293 171.008 184.728 170.682C184.162 170.356 183.732 170.307 183.436 170.537C183.147 170.771 183.003 171.244 183.003 171.956L183.003 173.882C183.003 174.609 183.147 175.256 183.436 175.823C183.726 176.384 184.156 176.829 184.728 177.159ZM188.517 180.003L188.517 174.561L189.259 174.989L189.259 175.668L189.394 175.746C189.484 175.605 189.631 175.513 189.837 175.468C190.043 175.424 190.332 175.509 190.704 175.724C191.071 175.935 191.366 176.199 191.591 176.514C191.822 176.833 191.989 177.156 192.092 177.482L192.227 177.56C192.336 177.356 192.5 177.225 192.719 177.165C192.944 177.11 193.255 177.197 193.654 177.427C193.968 177.608 194.245 177.842 194.482 178.128C194.72 178.413 194.907 178.736 195.041 179.096C195.183 179.452 195.253 179.823 195.253 180.209L195.253 183.892L194.492 183.453L194.492 179.847C194.492 179.484 194.399 179.144 194.213 178.829C194.033 178.51 193.779 178.256 193.451 178.067C193.104 177.866 192.818 177.831 192.593 177.961C192.375 178.094 192.266 178.406 192.266 178.896L192.266 182.168L191.504 181.728L191.504 178.122C191.504 177.759 191.411 177.419 191.225 177.104C191.045 176.785 190.791 176.531 190.464 176.342C190.117 176.141 189.831 176.106 189.606 176.236C189.387 176.369 189.278 176.681 189.278 177.171L189.278 180.443L188.517 180.003ZM198.707 186.042C198.123 185.705 197.628 185.263 197.223 184.718C196.825 184.176 196.584 183.544 196.5 182.821L197.223 183.049C197.274 183.434 197.371 183.772 197.512 184.061C197.653 184.343 197.827 184.588 198.033 184.796C198.245 185 198.469 185.171 198.707 185.308C199.061 185.512 199.34 185.592 199.546 185.547C199.751 185.503 199.854 185.343 199.854 185.069C199.854 184.787 199.755 184.532 199.555 184.306C199.363 184.076 199.096 183.826 198.755 183.555L198.36 183.249C198.058 183.015 197.782 182.763 197.531 182.492C197.281 182.221 197.082 181.936 196.934 181.635C196.786 181.335 196.712 181.021 196.712 180.695C196.712 180.205 196.876 179.918 197.204 179.832C197.531 179.747 197.965 179.86 198.505 180.172C199.038 180.48 199.469 180.869 199.796 181.34C200.13 181.808 200.346 182.322 200.442 182.882L199.729 182.681C199.671 182.255 199.533 181.901 199.314 181.619C199.096 181.329 198.826 181.092 198.505 180.906C198.184 180.721 197.93 180.645 197.743 180.678C197.557 180.704 197.464 180.851 197.464 181.118C197.464 181.377 197.551 181.62 197.724 181.847C197.904 182.069 198.142 182.296 198.437 182.526L198.832 182.832C199.167 183.091 199.465 183.357 199.729 183.627C199.999 183.894 200.211 184.18 200.365 184.484C200.526 184.792 200.606 185.12 200.606 185.469C200.606 186.003 200.432 186.315 200.085 186.404C199.745 186.497 199.285 186.376 198.707 186.042Z" fill="white"/>
<mask id="path-27-inside-3_11012_2265" fill="white">
<path fill-rule="evenodd" clip-rule="evenodd" d="M193.17 104.095C192.03 99.558 191.035 95.5989 189.613 96.292L197.949 92.2265C200.873 90.8007 204.78 91.1542 209.073 93.6322L209.072 93.6329L209.074 93.6322L250.715 117.674L250.715 117.674C259.779 122.908 267.126 135.635 267.126 146.102L267.126 146.102C267.126 151.611 265.09 155.396 261.839 156.982L253.504 161.048C255.253 160.194 252.448 155.116 249.483 149.747L249.483 149.747C246.937 145.138 244.274 140.314 244.274 137.769L254.934 141.656C252.447 138.569 248.991 135.444 245.267 132.526L241.735 142.155L204.79 102.092L197.949 115.607C195.743 114.334 194.375 108.891 193.17 104.095Z"/>
</mask>
<path fill-rule="evenodd" clip-rule="evenodd" d="M193.17 104.095C192.03 99.558 191.035 95.5989 189.613 96.292L197.949 92.2265C200.873 90.8007 204.78 91.1542 209.073 93.6322L209.072 93.6329L209.074 93.6322L250.715 117.674L250.715 117.674C259.779 122.908 267.126 135.635 267.126 146.102L267.126 146.102C267.126 151.611 265.09 155.396 261.839 156.982L253.504 161.048C255.253 160.194 252.448 155.116 249.483 149.747L249.483 149.747C246.937 145.138 244.274 140.314 244.274 137.769L254.934 141.656C252.447 138.569 248.991 135.444 245.267 132.526L241.735 142.155L204.79 102.092L197.949 115.607C195.743 114.334 194.375 108.891 193.17 104.095Z" fill="#131313"/>
<path fill-rule="evenodd" clip-rule="evenodd" d="M193.17 104.095C192.03 99.558 191.035 95.5989 189.613 96.292L197.949 92.2265C200.873 90.8007 204.78 91.1542 209.073 93.6322L209.072 93.6329L209.074 93.6322L250.715 117.674L250.715 117.674C259.779 122.908 267.126 135.635 267.126 146.102L267.126 146.102C267.126 151.611 265.09 155.396 261.839 156.982L253.504 161.048C255.253 160.194 252.448 155.116 249.483 149.747L249.483 149.747C246.937 145.138 244.274 140.314 244.274 137.769L254.934 141.656C252.447 138.569 248.991 135.444 245.267 132.526L241.735 142.155L204.79 102.092L197.949 115.607C195.743 114.334 194.375 108.891 193.17 104.095Z" fill="url(#paint13_linear_11012_2265)"/>
<path fill-rule="evenodd" clip-rule="evenodd" d="M193.17 104.095C192.03 99.558 191.035 95.5989 189.613 96.292L197.949 92.2265C200.873 90.8007 204.78 91.1542 209.073 93.6322L209.072 93.6329L209.074 93.6322L250.715 117.674L250.715 117.674C259.779 122.908 267.126 135.635 267.126 146.102L267.126 146.102C267.126 151.611 265.09 155.396 261.839 156.982L253.504 161.048C255.253 160.194 252.448 155.116 249.483 149.747L249.483 149.747C246.937 145.138 244.274 140.314 244.274 137.769L254.934 141.656C252.447 138.569 248.991 135.444 245.267 132.526L241.735 142.155L204.79 102.092L197.949 115.607C195.743 114.334 194.375 108.891 193.17 104.095Z" fill="url(#paint14_linear_11012_2265)"/>
<path d="M189.613 96.292L189.263 95.5729C188.865 95.7666 188.701 96.2455 188.894 96.6426C189.088 97.0397 189.567 97.2047 189.964 97.0111L189.613 96.292ZM193.17 104.095L193.946 103.9L193.17 104.095ZM197.949 92.2265L197.598 91.5074L197.598 91.5075L197.949 92.2265ZM209.073 93.6322L209.786 93.9932C209.978 93.6143 209.84 93.1517 209.473 92.9394L209.073 93.6322ZM209.072 93.6329L208.358 93.2719C208.203 93.5785 208.261 93.9498 208.503 94.1945C208.744 94.4392 209.114 94.5025 209.423 94.3519L209.072 93.6329ZM209.074 93.6322L209.474 92.9394C209.243 92.8064 208.962 92.7966 208.723 92.9132L209.074 93.6322ZM250.715 117.674L251.467 117.948C251.599 117.583 251.451 117.175 251.115 116.981L250.715 117.674ZM250.715 117.674L249.963 117.401C249.83 117.765 249.978 118.173 250.315 118.367L250.715 117.674ZM267.126 146.102L267.478 146.82C267.752 146.686 267.926 146.407 267.926 146.102H267.126ZM267.126 146.102L266.774 145.383C266.5 145.518 266.326 145.796 266.326 146.102L267.126 146.102ZM261.839 156.982L262.19 157.701L262.19 157.701L261.839 156.982ZM253.504 161.048L253.153 160.329C252.756 160.522 252.591 161.001 252.785 161.398C252.978 161.796 253.457 161.96 253.854 161.767L253.504 161.048ZM249.483 149.747L250.184 149.361C250.173 149.341 250.161 149.322 250.149 149.304L249.483 149.747ZM249.483 149.747L248.783 150.134C248.794 150.154 248.805 150.173 248.818 150.191L249.483 149.747ZM244.274 137.769L244.548 137.017C244.302 136.928 244.029 136.964 243.815 137.114C243.601 137.263 243.474 137.508 243.474 137.769H244.274ZM254.934 141.656L254.66 142.408C254.997 142.531 255.375 142.414 255.584 142.122C255.793 141.83 255.782 141.434 255.557 141.154L254.934 141.656ZM245.267 132.526L245.761 131.896C245.559 131.738 245.294 131.686 245.048 131.756C244.802 131.826 244.604 132.01 244.516 132.25L245.267 132.526ZM241.735 142.155L241.147 142.697C241.336 142.902 241.618 142.994 241.892 142.94C242.165 142.885 242.39 142.692 242.486 142.431L241.735 142.155ZM204.79 102.092L205.378 101.549C205.201 101.357 204.94 101.263 204.68 101.299C204.42 101.335 204.195 101.496 204.076 101.73L204.79 102.092ZM197.949 115.607L197.549 116.3C197.739 116.41 197.966 116.436 198.177 116.374C198.388 116.311 198.563 116.164 198.662 115.968L197.949 115.607ZM189.964 97.0111C189.975 97.0057 189.937 97.0206 189.893 97.007C189.873 97.0008 189.916 97.0077 190.015 97.1168C190.222 97.3468 190.473 97.8022 190.751 98.5209C191.298 99.9343 191.819 102.001 192.394 104.29L193.946 103.9C193.381 101.651 192.834 99.4705 192.243 97.9435C191.952 97.1919 191.617 96.5039 191.202 96.0448C190.99 95.8093 190.713 95.5851 190.362 95.4774C189.987 95.3622 189.607 95.405 189.263 95.5729L189.964 97.0111ZM197.598 91.5075L189.263 95.5729L189.964 97.011L198.299 92.9456L197.598 91.5075ZM209.473 92.9394C205.042 90.3814 200.843 89.9253 197.598 91.5074L198.299 92.9456C200.903 91.6761 204.519 91.927 208.673 94.3251L209.473 92.9394ZM209.786 93.9938L209.786 93.9932L208.359 93.2713L208.358 93.2719L209.786 93.9938ZM208.723 92.9132L208.721 92.9138L209.423 94.3519L209.424 94.3512L208.723 92.9132ZM251.115 116.981L209.474 92.9394L208.674 94.325L250.315 118.367L251.115 116.981ZM251.466 117.948L251.467 117.948L249.963 117.4L249.963 117.401L251.466 117.948ZM250.315 118.367C254.696 120.897 258.708 125.271 261.627 130.326C264.545 135.381 266.326 141.042 266.326 146.102H267.926C267.926 140.695 266.034 134.759 263.012 129.526C259.991 124.292 255.797 119.685 251.115 116.982L250.315 118.367ZM266.775 145.383L266.774 145.383L267.477 146.821L267.478 146.82L266.775 145.383ZM262.19 157.701C265.815 155.933 267.926 151.788 267.926 146.102L266.326 146.102C266.326 151.434 264.365 154.86 261.488 156.263L262.19 157.701ZM253.854 161.767L262.19 157.701L261.488 156.263L253.153 160.329L253.854 161.767ZM248.783 150.134C250.273 152.833 251.69 155.401 252.523 157.398C252.942 158.405 253.182 159.196 253.234 159.751C253.259 160.026 253.232 160.184 253.204 160.261C253.184 160.315 253.171 160.32 253.153 160.329L253.855 161.767C254.755 161.327 254.9 160.385 254.827 159.603C254.752 158.798 254.433 157.824 254 156.783C253.126 154.686 251.658 152.03 250.184 149.361L248.783 150.134ZM248.818 150.191L248.818 150.191L250.149 149.304L250.149 149.304L248.818 150.191ZM243.474 137.769C243.474 138.529 243.669 139.401 243.97 140.316C244.273 141.24 244.7 142.258 245.199 143.324C246.197 145.453 247.513 147.836 248.783 150.134L250.183 149.361C248.907 147.049 247.619 144.716 246.648 142.645C246.163 141.61 245.765 140.657 245.49 139.817C245.211 138.968 245.074 138.282 245.074 137.769H243.474ZM255.208 140.905L244.548 137.017L244 138.521L254.66 142.408L255.208 140.905ZM255.557 141.154C253.016 137.999 249.506 134.832 245.761 131.896L244.774 133.156C248.475 136.057 251.879 139.138 254.311 142.158L255.557 141.154ZM242.486 142.431L246.018 132.801L244.516 132.25L240.984 141.88L242.486 142.431ZM204.202 102.634L241.147 142.697L242.323 141.613L205.378 101.549L204.202 102.634ZM198.662 115.968L205.504 102.453L204.076 101.73L197.235 115.246L198.662 115.968ZM192.394 104.29C192.994 106.677 193.647 109.28 194.432 111.445C194.825 112.528 195.261 113.531 195.754 114.356C196.242 115.171 196.827 115.883 197.549 116.3L198.349 114.914C197.968 114.694 197.555 114.249 197.127 113.535C196.707 112.832 196.312 111.935 195.936 110.899C195.185 108.826 194.551 106.309 193.946 103.9L192.394 104.29Z" fill="white" mask="url(#path-27-inside-3_11012_2265)"/>
<path d="M184.671 107.373C184.671 97.1267 191.864 92.9737 200.737 98.0967L242.378 122.138C251.252 127.261 258.445 139.72 258.445 149.966C258.445 160.212 251.252 164.365 242.378 159.242L200.737 135.2C191.864 130.077 184.671 117.619 184.671 107.373Z" fill="#131313"/>
<path d="M184.671 107.373C184.671 97.1267 191.864 92.9737 200.737 98.0967L242.378 122.138C251.252 127.261 258.445 139.72 258.445 149.966C258.445 160.212 251.252 164.365 242.378 159.242L200.737 135.2C191.864 130.077 184.671 117.619 184.671 107.373Z" fill="url(#paint15_linear_11012_2265)"/>
<path d="M184.671 107.373C184.671 97.1267 191.864 92.9737 200.737 98.0967L242.378 122.138C251.252 127.261 258.445 139.72 258.445 149.966C258.445 160.212 251.252 164.365 242.378 159.242L200.737 135.2C191.864 130.077 184.671 117.619 184.671 107.373Z" fill="url(#paint16_linear_11012_2265)"/>
<path d="M184.671 107.373C184.671 97.1267 191.864 92.9737 200.737 98.0967L242.378 122.138C251.252 127.261 258.445 139.72 258.445 149.966C258.445 160.212 251.252 164.365 242.378 159.242L200.737 135.2C191.864 130.077 184.671 117.619 184.671 107.373Z" stroke="white" stroke-width="0.8"/>
<path d="M198.462 118.265L198.462 111.087L198.327 111.009L197.19 113.113L196.371 112.64L197.749 110.063L199.252 110.932L199.252 118.722L198.462 118.265ZM196.072 116.885L196.072 116.051L201.055 118.928L201.055 119.762L196.072 116.885ZM204.419 121.861C203.655 121.419 203.044 120.807 202.588 120.024C202.138 119.238 201.914 118.322 201.914 117.276L201.914 115.45C201.914 114.412 202.138 113.759 202.588 113.492C203.044 113.228 203.655 113.317 204.419 113.759C205.19 114.204 205.801 114.82 206.251 115.606C206.707 116.396 206.935 117.311 206.935 118.349L206.935 120.175C206.935 121.221 206.707 121.875 206.251 122.139C205.801 122.399 205.19 122.306 204.419 121.861ZM204.419 121.048C204.998 121.382 205.431 121.432 205.72 121.198C206.01 120.965 206.154 120.488 206.154 119.768L206.154 117.843C206.154 117.123 206.006 116.482 205.711 115.918C205.415 115.347 204.985 114.898 204.419 114.571C203.854 114.245 203.423 114.197 203.128 114.427C202.839 114.66 202.694 115.133 202.694 115.846L202.694 117.771C202.694 118.498 202.839 119.145 203.128 119.713C203.417 120.273 203.847 120.718 204.419 121.048ZM210.683 125.321L210.683 119.879L211.426 120.308L211.426 120.987L211.56 121.065C211.65 120.924 211.798 120.831 212.004 120.786C212.209 120.742 212.499 120.827 212.871 121.042C213.237 121.254 213.533 121.517 213.758 121.833C213.989 122.152 214.156 122.474 214.259 122.801L214.394 122.879C214.503 122.675 214.667 122.543 214.886 122.484C215.11 122.428 215.422 122.515 215.82 122.745C216.135 122.927 216.411 123.161 216.649 123.446C216.887 123.732 217.073 124.055 217.208 124.414C217.35 124.771 217.42 125.141 217.42 125.527L217.42 129.211L216.659 128.771L216.659 125.166C216.659 124.802 216.566 124.463 216.379 124.147C216.199 123.828 215.946 123.574 215.618 123.385C215.271 123.185 214.985 123.149 214.76 123.279C214.542 123.413 214.433 123.724 214.433 124.214L214.433 127.486L213.671 127.046L213.671 123.441C213.671 123.077 213.578 122.738 213.392 122.422C213.212 122.103 212.958 121.849 212.63 121.66C212.283 121.46 211.997 121.424 211.773 121.554C211.554 121.688 211.445 121.999 211.445 122.489L211.445 125.761L210.683 125.321ZM218.975 130.109L218.975 124.667L219.737 125.106L219.737 130.548L218.975 130.109ZM219.361 124.044C219.194 123.947 219.052 123.802 218.937 123.61C218.828 123.42 218.773 123.229 218.773 123.036C218.773 122.836 218.828 122.704 218.937 122.641C219.052 122.582 219.194 122.601 219.361 122.697C219.528 122.793 219.666 122.936 219.775 123.125C219.884 123.315 219.939 123.509 219.939 123.71C219.939 123.903 219.884 124.031 219.775 124.094C219.666 124.157 219.528 124.14 219.361 124.044ZM221.338 131.473L221.338 126.031L222.08 126.459L222.08 127.383L222.215 127.461C222.318 127.26 222.491 127.127 222.735 127.06C222.986 126.99 223.352 127.093 223.834 127.372C224.187 127.576 224.502 127.843 224.778 128.173C225.061 128.507 225.286 128.889 225.453 129.319C225.62 129.75 225.704 130.21 225.704 130.699L225.704 133.993L224.942 133.554L224.942 130.326C224.942 129.785 224.823 129.323 224.586 128.941C224.354 128.562 224.039 128.258 223.641 128.028C223.185 127.765 222.812 127.72 222.523 127.895C222.24 128.073 222.099 128.499 222.099 129.175L222.099 131.912L221.338 131.473ZM228.975 135.982C228.635 135.786 228.32 135.519 228.031 135.181C227.748 134.847 227.523 134.465 227.356 134.035C227.196 133.601 227.115 133.143 227.115 132.66L227.115 129.366L227.877 129.806L227.877 133.033C227.877 133.575 227.992 134.035 228.224 134.413C228.461 134.795 228.779 135.101 229.178 135.331C229.627 135.591 229.997 135.634 230.286 135.459C230.575 135.285 230.72 134.86 230.72 134.185L230.72 131.447L231.481 131.887L231.481 137.329L230.739 136.9L230.739 135.977L230.604 135.899C230.501 136.099 230.325 136.235 230.074 136.305C229.823 136.368 229.457 136.261 228.975 135.982ZM234.809 139.25C234.539 139.095 234.33 138.889 234.183 138.633C234.041 138.38 233.971 138.106 233.971 137.809L233.971 134.092L232.554 133.274L232.554 132.506L233.971 133.324L233.971 131.388L234.732 131.827L234.732 133.764L236.274 134.654L236.274 135.422L234.732 134.532L234.732 138.115C234.732 138.338 234.825 138.503 235.012 138.61L236.062 139.217L236.062 139.974L234.809 139.25ZM239.497 142.113C239.021 141.838 238.604 141.482 238.244 141.044C237.884 140.599 237.605 140.108 237.405 139.57C237.206 139.032 237.107 138.485 237.107 137.928L237.107 137.795C237.107 137.231 237.206 136.795 237.405 136.487C237.605 136.179 237.881 136.012 238.234 135.986C238.588 135.953 238.992 136.068 239.449 136.331C239.892 136.587 240.284 136.925 240.624 137.344C240.965 137.756 241.232 138.221 241.424 138.741C241.617 139.26 241.713 139.794 241.713 140.343L241.713 140.744L237.868 138.524C237.887 139.121 238.051 139.675 238.359 140.187C238.668 140.692 239.053 141.078 239.516 141.345C239.921 141.578 240.232 141.651 240.451 141.562C240.669 141.473 240.836 141.313 240.952 141.083L241.607 141.829C241.511 142.003 241.376 142.155 241.203 142.285C241.036 142.419 240.814 142.484 240.538 142.48C240.268 142.48 239.921 142.357 239.497 142.113ZM237.878 137.806L240.942 139.575C240.917 139.056 240.766 138.575 240.489 138.134C240.22 137.696 239.873 137.355 239.449 137.11C239.018 136.862 238.665 136.799 238.388 136.921C238.112 137.043 237.942 137.338 237.878 137.806ZM244.94 145.255C244.355 144.918 243.861 144.476 243.456 143.931C243.058 143.389 242.817 142.757 242.733 142.034L243.456 142.262C243.507 142.647 243.604 142.985 243.745 143.274C243.886 143.556 244.06 143.801 244.265 144.009C244.478 144.213 244.702 144.384 244.94 144.521C245.294 144.725 245.573 144.805 245.779 144.76C245.984 144.716 246.087 144.556 246.087 144.282C246.087 144 245.987 143.746 245.788 143.519C245.596 143.289 245.329 143.039 244.988 142.768L244.593 142.462C244.291 142.228 244.015 141.976 243.764 141.705C243.514 141.434 243.315 141.149 243.167 140.848C243.019 140.548 242.945 140.234 242.945 139.908C242.945 139.418 243.109 139.131 243.437 139.045C243.764 138.96 244.198 139.073 244.738 139.385C245.271 139.693 245.702 140.082 246.029 140.553C246.363 141.021 246.579 141.535 246.675 142.095L245.962 141.894C245.904 141.468 245.766 141.114 245.547 140.832C245.329 140.542 245.059 140.305 244.738 140.119C244.416 139.934 244.163 139.858 243.976 139.891C243.79 139.917 243.697 140.064 243.697 140.331C243.697 140.591 243.784 140.833 243.957 141.06C244.137 141.282 244.375 141.509 244.67 141.739L245.065 142.045C245.4 142.304 245.698 142.57 245.962 142.84C246.232 143.107 246.444 143.393 246.598 143.697C246.758 144.005 246.839 144.333 246.839 144.682C246.839 145.216 246.665 145.528 246.318 145.617C245.978 145.71 245.518 145.589 244.94 145.255Z" fill="white"/>
</g>
<defs>
<filter id="filter0_i_11012_2265" x="77.0967" y="162.373" width="37.7578" height="27.627" filterUnits="userSpaceOnUse" color-interpolation-filters="sRGB">
<feFlood flood-opacity="0" result="BackgroundImageFix"/>
<feBlend mode="normal" in="SourceGraphic" in2="BackgroundImageFix" result="shape"/>
<feColorMatrix in="SourceAlpha" type="matrix" values="0 0 0 0 0 0 0 0 0 0 0 0 0 0 0 0 0 0 127 0" result="hardAlpha"/>
<feOffset/>
<feGaussianBlur stdDeviation="0.876292"/>
<feComposite in2="hardAlpha" operator="arithmetic" k2="-1" k3="1"/>
<feColorMatrix type="matrix" values="0 0 0 0 1 0 0 0 0 1 0 0 0 0 1 0 0 0 0.75 0"/>
<feBlend mode="normal" in2="shape" result="effect1_innerShadow_11012_2265"/>
</filter>
<filter id="filter1_d_11012_2265" x="54.9335" y="3.45402" width="147.008" height="147.008" filterUnits="userSpaceOnUse" color-interpolation-filters="sRGB">
<feFlood flood-opacity="0" result="BackgroundImageFix"/>
<feColorMatrix in="SourceAlpha" type="matrix" values="0 0 0 0 0 0 0 0 0 0 0 0 0 0 0 0 0 0 127 0" result="hardAlpha"/>
<feOffset/>
<feGaussianBlur stdDeviation="9.38139"/>
<feComposite in2="hardAlpha" operator="out"/>
<feColorMatrix type="matrix" values="0 0 0 0 1 0 0 0 0 1 0 0 0 0 1 0 0 0 0.13 0"/>
<feBlend mode="normal" in2="BackgroundImageFix" result="effect1_dropShadow_11012_2265"/>
<feBlend mode="normal" in="SourceGraphic" in2="effect1_dropShadow_11012_2265" result="shape"/>
</filter>
<radialGradient id="paint0_radial_11012_2265" cx="0" cy="0" r="1" gradientUnits="userSpaceOnUse" gradientTransform="translate(141.053 152.547) rotate(150) scale(123.381 127.708)">
<stop stop-color="white"/>
<stop offset="1" stop-color="white" stop-opacity="0"/>
</radialGradient>
<linearGradient id="paint1_linear_11012_2265" x1="131.115" y1="175.485" x2="131.115" y2="213.103" gradientUnits="userSpaceOnUse">
<stop stop-color="#131313"/>
<stop offset="1" stop-color="#232222"/>
</linearGradient>
<linearGradient id="paint2_linear_11012_2265" x1="167.042" y1="170.031" x2="167.094" y2="194.525" gradientUnits="userSpaceOnUse">
<stop stop-color="#0A0A0A"/>
<stop offset="1" stop-color="#232222"/>
</linearGradient>
<linearGradient id="paint3_linear_11012_2265" x1="0" y1="40.1522" x2="86.4992" y2="40.1522" gradientUnits="userSpaceOnUse">
<stop stop-color="#131313"/>
<stop offset="1" stop-color="#232222"/>
</linearGradient>
<linearGradient id="paint4_linear_11012_2265" x1="49.1548" y1="42.277" x2="86.5043" y2="40.2455" gradientUnits="userSpaceOnUse">
<stop stop-color="#0A0A0A"/>
<stop offset="1" stop-color="#232222"/>
</linearGradient>
<linearGradient id="paint5_linear_11012_2265" x1="131.151" y1="141.749" x2="154.807" y2="141.62" gradientUnits="userSpaceOnUse">
<stop stop-color="#0A0A0A"/>
<stop offset="1" stop-color="#2B2A2A"/>
</linearGradient>
<linearGradient id="paint6_linear_11012_2265" x1="128.057" y1="77.1691" x2="183.178" y2="76.9578" gradientUnits="userSpaceOnUse">
<stop stop-color="#0A0A0A"/>
<stop offset="1" stop-color="#232222"/>
</linearGradient>
<linearGradient id="paint7_linear_11012_2265" x1="222.246" y1="53.995" x2="226.536" y2="61.4406" gradientUnits="userSpaceOnUse">
<stop stop-color="#0A0A0A"/>
<stop offset="1" stop-color="#313131"/>
</linearGradient>
<linearGradient id="paint8_linear_11012_2265" x1="48.8623" y1="123.758" x2="45.2311" y2="130.06" gradientUnits="userSpaceOnUse">
<stop stop-color="#0A0A0A"/>
<stop offset="1" stop-color="#313131"/>
</linearGradient>
<linearGradient id="paint9_linear_11012_2265" x1="167.137" y1="173.238" x2="218.186" y2="173.238" gradientUnits="userSpaceOnUse">
<stop stop-color="#131313"/>
<stop offset="1" stop-color="#232222"/>
</linearGradient>
<linearGradient id="paint10_linear_11012_2265" x1="192.484" y1="173.343" x2="218.186" y2="173.25" gradientUnits="userSpaceOnUse">
<stop stop-color="#0A0A0A"/>
<stop offset="1" stop-color="#232222"/>
</linearGradient>
<linearGradient id="paint11_linear_11012_2265" x1="161.848" y1="161.833" x2="209.851" y2="161.833" gradientUnits="userSpaceOnUse">
<stop stop-color="#131313"/>
<stop offset="1" stop-color="#232222"/>
</linearGradient>
<linearGradient id="paint12_linear_11012_2265" x1="185.683" y1="175.667" x2="209.783" y2="175.55" gradientUnits="userSpaceOnUse">
<stop stop-color="#0A0A0A"/>
<stop offset="1" stop-color="#232222"/>
</linearGradient>
<linearGradient id="paint13_linear_11012_2265" x1="189.613" y1="126.219" x2="267.126" y2="126.219" gradientUnits="userSpaceOnUse">
<stop stop-color="#131313"/>
<stop offset="1" stop-color="#232222"/>
</linearGradient>
<linearGradient id="paint14_linear_11012_2265" x1="228.101" y1="126.354" x2="267.126" y2="126.187" gradientUnits="userSpaceOnUse">
<stop stop-color="#0A0A0A"/>
<stop offset="1" stop-color="#232222"/>
</linearGradient>
<linearGradient id="paint15_linear_11012_2265" x1="184.324" y1="107.173" x2="258.791" y2="107.173" gradientUnits="userSpaceOnUse">
<stop stop-color="#131313"/>
<stop offset="1" stop-color="#232222"/>
</linearGradient>
<linearGradient id="paint16_linear_11012_2265" x1="221.299" y1="128.593" x2="258.627" y2="128.313" gradientUnits="userSpaceOnUse">
<stop stop-color="#0A0A0A"/>
<stop offset="1" stop-color="#232222"/>
</linearGradient>
<clipPath id="clip0_11012_2265">
<rect width="296" height="258" fill="white" transform="translate(0 0.5)"/>
</clipPath>
</defs>
</svg>
