<svg width="405" height="79" viewBox="0 0 405 79" fill="none" xmlns="http://www.w3.org/2000/svg">
<path d="M1.06868 62.3751L16.3655 16.4848L388.802 0.508959L404.5 16.2071V78.5H16.2163L1.06868 62.3751Z" stroke="white"/>
<rect x="0.5" y="0.5" width="388" height="62" fill="#131313"/>
<rect x="0.5" y="0.5" width="388" height="62" stroke="white"/>
<path d="M20.548 38V25.4H21.7V36.956H28.324V38H20.548ZM34.3359 38.252C33.4479 38.252 32.6679 38.066 31.9959 37.694C31.3359 37.31 30.8199 36.782 30.4479 36.11C30.0879 35.426 29.9079 34.634 29.9079 33.734V33.518C29.9079 32.618 30.0879 31.832 30.4479 31.16C30.8199 30.476 31.3359 29.948 31.9959 29.576C32.6679 29.192 33.4479 29 34.3359 29C35.2239 29 35.9979 29.192 36.6579 29.576C37.3299 29.948 37.8459 30.476 38.2059 31.16C38.5779 31.832 38.7639 32.618 38.7639 33.518V33.734C38.7639 34.634 38.5779 35.426 38.2059 36.11C37.8459 36.782 37.3299 37.31 36.6579 37.694C35.9979 38.066 35.2239 38.252 34.3359 38.252ZM34.3359 37.28C35.3679 37.28 36.1839 36.956 36.7839 36.308C37.3839 35.648 37.6839 34.778 37.6839 33.698V33.554C37.6839 32.474 37.3839 31.61 36.7839 30.962C36.1839 30.302 35.3679 29.972 34.3359 29.972C33.3159 29.972 32.4999 30.302 31.8879 30.962C31.2879 31.61 30.9879 32.474 30.9879 33.554V33.698C30.9879 34.778 31.2879 35.648 31.8879 36.308C32.4999 36.956 33.3159 37.28 34.3359 37.28ZM41.502 38V29.252H42.546V30.35H42.762C42.93 29.954 43.176 29.666 43.5 29.486C43.836 29.306 44.298 29.216 44.886 29.216H45.912V30.224H44.76C44.1 30.224 43.572 30.41 43.176 30.782C42.78 31.154 42.582 31.736 42.582 32.528V38H41.502ZM51.8621 38.252C50.9621 38.252 50.1761 38.066 49.5041 37.694C48.8441 37.31 48.3281 36.776 47.9561 36.092C47.5841 35.408 47.3981 34.622 47.3981 33.734V33.518C47.3981 32.618 47.5841 31.832 47.9561 31.16C48.3281 30.476 48.8381 29.948 49.4861 29.576C50.1461 29.192 50.8961 29 51.7361 29C52.5521 29 53.2721 29.174 53.8961 29.522C54.5321 29.858 55.0301 30.35 55.3901 30.998C55.7501 31.634 55.9301 32.396 55.9301 33.284V33.86H48.4781C48.5141 34.952 48.8441 35.798 49.4681 36.398C50.1041 36.986 50.9021 37.28 51.8621 37.28C52.6781 37.28 53.3081 37.094 53.7521 36.722C54.2081 36.35 54.5561 35.894 54.7961 35.354L55.7681 35.786C55.5881 36.182 55.3361 36.572 55.0121 36.956C54.7001 37.328 54.2921 37.64 53.7881 37.892C53.2841 38.132 52.6421 38.252 51.8621 38.252ZM48.4961 32.924H54.8321C54.7841 31.976 54.4781 31.25 53.9141 30.746C53.3501 30.23 52.6241 29.972 51.7361 29.972C50.8601 29.972 50.1341 30.23 49.5581 30.746C48.9821 31.25 48.6281 31.976 48.4961 32.924ZM58.5879 38V29.252H59.6319V30.404H59.8479C60.0279 30.08 60.3159 29.78 60.7119 29.504C61.1079 29.216 61.6719 29.072 62.4039 29.072C63.1119 29.072 63.6819 29.234 64.1139 29.558C64.5579 29.882 64.8759 30.272 65.0679 30.728H65.2839C65.4879 30.272 65.8059 29.882 66.2379 29.558C66.6699 29.234 67.2759 29.072 68.0559 29.072C68.6559 29.072 69.1779 29.198 69.6219 29.45C70.0659 29.69 70.4139 30.032 70.6659 30.476C70.9179 30.908 71.0439 31.418 71.0439 32.006V38H69.9639V32.114C69.9639 31.49 69.7719 30.992 69.3879 30.62C69.0159 30.236 68.4879 30.044 67.8039 30.044C67.1079 30.044 66.5259 30.272 66.0579 30.728C65.5899 31.172 65.3559 31.826 65.3559 32.69V38H64.2759V32.114C64.2759 31.49 64.0839 30.992 63.6999 30.62C63.3279 30.236 62.7999 30.044 62.1159 30.044C61.4199 30.044 60.8379 30.272 60.3699 30.728C59.9019 31.172 59.6679 31.826 59.6679 32.69V38H58.5879ZM78.75 38V29.252H79.83V38H78.75ZM79.29 27.74C79.026 27.74 78.804 27.65 78.624 27.47C78.444 27.29 78.354 27.068 78.354 26.804C78.354 26.528 78.444 26.306 78.624 26.138C78.804 25.958 79.026 25.868 79.29 25.868C79.566 25.868 79.788 25.958 79.956 26.138C80.136 26.306 80.226 26.528 80.226 26.804C80.226 27.068 80.136 27.29 79.956 27.47C79.788 27.65 79.566 27.74 79.29 27.74ZM83.0039 41.6V29.252H84.0479V30.854H84.2639C84.5159 30.374 84.9059 29.948 85.4339 29.576C85.9739 29.192 86.7239 29 87.6839 29C88.4639 29 89.1719 29.186 89.8079 29.558C90.4439 29.918 90.9479 30.434 91.3199 31.106C91.7039 31.778 91.8959 32.582 91.8959 33.518V33.734C91.8959 34.658 91.7099 35.462 91.3379 36.146C90.9659 36.818 90.4619 37.34 89.8259 37.712C89.1899 38.072 88.4759 38.252 87.6839 38.252C87.0479 38.252 86.5019 38.168 86.0459 38C85.6019 37.82 85.2359 37.592 84.9479 37.316C84.6719 37.04 84.4559 36.758 84.2999 36.47H84.0839V41.6H83.0039ZM87.4319 37.28C88.4279 37.28 89.2319 36.962 89.8439 36.326C90.4679 35.69 90.7799 34.814 90.7799 33.698V33.554C90.7799 32.438 90.4679 31.562 89.8439 30.926C89.2319 30.29 88.4279 29.972 87.4319 29.972C86.4479 29.972 85.6439 30.29 85.0199 30.926C84.3959 31.562 84.0839 32.438 84.0839 33.554V33.698C84.0839 34.814 84.3959 35.69 85.0199 36.326C85.6439 36.962 86.4479 37.28 87.4319 37.28ZM98.1146 38.252C97.0586 38.252 96.1526 38 95.3966 37.496C94.6526 36.992 94.1966 36.158 94.0286 34.994L95.0906 34.796C95.1866 35.432 95.3786 35.936 95.6666 36.308C95.9666 36.668 96.3266 36.926 96.7466 37.082C97.1786 37.238 97.6346 37.316 98.1146 37.316C98.8346 37.316 99.4106 37.172 99.8426 36.884C100.287 36.584 100.509 36.176 100.509 35.66C100.509 35.132 100.299 34.766 99.8786 34.562C99.4706 34.358 98.9246 34.196 98.2406 34.076L97.4126 33.932C96.8606 33.836 96.3626 33.692 95.9186 33.5C95.4746 33.296 95.1206 33.026 94.8566 32.69C94.6046 32.354 94.4786 31.934 94.4786 31.43C94.4786 30.674 94.7726 30.08 95.3606 29.648C95.9606 29.216 96.7526 29 97.7366 29C98.7326 29 99.5306 29.228 100.131 29.684C100.743 30.128 101.127 30.776 101.283 31.628L100.275 31.844C100.155 31.148 99.8666 30.656 99.4106 30.368C98.9666 30.08 98.4086 29.936 97.7366 29.936C97.0766 29.936 96.5486 30.062 96.1526 30.314C95.7566 30.566 95.5586 30.938 95.5586 31.43C95.5586 31.91 95.7386 32.264 96.0986 32.492C96.4586 32.708 96.9506 32.87 97.5746 32.978L98.4026 33.122C99.0026 33.218 99.5426 33.362 100.023 33.554C100.503 33.734 100.881 33.992 101.157 34.328C101.445 34.664 101.589 35.108 101.589 35.66C101.589 36.488 101.277 37.13 100.653 37.586C100.029 38.03 99.1826 38.252 98.1146 38.252ZM107.516 38.18C106.892 38.18 106.31 38.048 105.77 37.784C105.242 37.52 104.816 37.124 104.492 36.596C104.18 36.056 104.024 35.384 104.024 34.58V29.252H105.104V34.508C105.104 35.456 105.344 36.146 105.824 36.578C106.304 36.998 106.946 37.208 107.75 37.208C108.65 37.208 109.4 36.914 110 36.326C110.6 35.726 110.9 34.826 110.9 33.626V29.252H111.98V38H110.936V36.38H110.72C110.504 36.848 110.15 37.268 109.658 37.64C109.166 38 108.452 38.18 107.516 38.18ZM115.154 38V29.252H116.198V30.404H116.414C116.594 30.08 116.882 29.78 117.278 29.504C117.674 29.216 118.238 29.072 118.97 29.072C119.678 29.072 120.248 29.234 120.68 29.558C121.124 29.882 121.442 30.272 121.634 30.728H121.85C122.054 30.272 122.372 29.882 122.804 29.558C123.236 29.234 123.842 29.072 124.622 29.072C125.222 29.072 125.744 29.198 126.188 29.45C126.632 29.69 126.98 30.032 127.232 30.476C127.484 30.908 127.61 31.418 127.61 32.006V38H126.53V32.114C126.53 31.49 126.338 30.992 125.954 30.62C125.582 30.236 125.054 30.044 124.37 30.044C123.674 30.044 123.092 30.272 122.624 30.728C122.156 31.172 121.922 31.826 121.922 32.69V38H120.842V32.114C120.842 31.49 120.65 30.992 120.266 30.62C119.894 30.236 119.366 30.044 118.682 30.044C117.986 30.044 117.404 30.272 116.936 30.728C116.468 31.172 116.234 31.826 116.234 32.69V38H115.154ZM139.096 38.252C138.316 38.252 137.608 38.072 136.972 37.712C136.336 37.34 135.826 36.818 135.442 36.146C135.07 35.462 134.884 34.658 134.884 33.734V33.518C134.884 32.594 135.07 31.796 135.442 31.124C135.814 30.44 136.318 29.918 136.954 29.558C137.602 29.186 138.316 29 139.096 29C139.744 29 140.29 29.09 140.734 29.27C141.178 29.438 141.538 29.66 141.814 29.936C142.102 30.2 142.324 30.482 142.48 30.782H142.696V25.4H143.776V38H142.732V36.398H142.516C142.264 36.878 141.868 37.31 141.328 37.694C140.8 38.066 140.056 38.252 139.096 38.252ZM139.348 37.28C140.344 37.28 141.148 36.962 141.76 36.326C142.384 35.69 142.696 34.814 142.696 33.698V33.554C142.696 32.438 142.384 31.562 141.76 30.926C141.148 30.29 140.344 29.972 139.348 29.972C138.364 29.972 137.56 30.29 136.936 30.926C136.312 31.562 136 32.438 136 33.554V33.698C136 34.814 136.312 35.69 136.936 36.326C137.56 36.962 138.364 37.28 139.348 37.28ZM150.949 38.252C150.061 38.252 149.281 38.066 148.609 37.694C147.949 37.31 147.433 36.782 147.061 36.11C146.701 35.426 146.521 34.634 146.521 33.734V33.518C146.521 32.618 146.701 31.832 147.061 31.16C147.433 30.476 147.949 29.948 148.609 29.576C149.281 29.192 150.061 29 150.949 29C151.837 29 152.611 29.192 153.271 29.576C153.943 29.948 154.459 30.476 154.819 31.16C155.191 31.832 155.377 32.618 155.377 33.518V33.734C155.377 34.634 155.191 35.426 154.819 36.11C154.459 36.782 153.943 37.31 153.271 37.694C152.611 38.066 151.837 38.252 150.949 38.252ZM150.949 37.28C151.981 37.28 152.797 36.956 153.397 36.308C153.997 35.648 154.297 34.778 154.297 33.698V33.554C154.297 32.474 153.997 31.61 153.397 30.962C152.797 30.302 151.981 29.972 150.949 29.972C149.929 29.972 149.113 30.302 148.501 30.962C147.901 31.61 147.601 32.474 147.601 33.554V33.698C147.601 34.778 147.901 35.648 148.501 36.308C149.113 36.956 149.929 37.28 150.949 37.28ZM158.115 38V25.4H159.195V38H158.115ZM166.365 38.252C165.477 38.252 164.697 38.066 164.025 37.694C163.365 37.31 162.849 36.782 162.477 36.11C162.117 35.426 161.937 34.634 161.937 33.734V33.518C161.937 32.618 162.117 31.832 162.477 31.16C162.849 30.476 163.365 29.948 164.025 29.576C164.697 29.192 165.477 29 166.365 29C167.253 29 168.027 29.192 168.687 29.576C169.359 29.948 169.875 30.476 170.235 31.16C170.607 31.832 170.793 32.618 170.793 33.518V33.734C170.793 34.634 170.607 35.426 170.235 36.11C169.875 36.782 169.359 37.31 168.687 37.694C168.027 38.066 167.253 38.252 166.365 38.252ZM166.365 37.28C167.397 37.28 168.213 36.956 168.813 36.308C169.413 35.648 169.713 34.778 169.713 33.698V33.554C169.713 32.474 169.413 31.61 168.813 30.962C168.213 30.302 167.397 29.972 166.365 29.972C165.345 29.972 164.529 30.302 163.917 30.962C163.317 31.61 163.017 32.474 163.017 33.554V33.698C163.017 34.778 163.317 35.648 163.917 36.308C164.529 36.956 165.345 37.28 166.365 37.28ZM173.531 38V29.252H174.575V30.35H174.791C174.959 29.954 175.205 29.666 175.529 29.486C175.865 29.306 176.327 29.216 176.915 29.216H177.941V30.224H176.789C176.129 30.224 175.601 30.41 175.205 30.782C174.809 31.154 174.611 31.736 174.611 32.528V38H173.531ZM188.29 38.252C187.234 38.252 186.328 38 185.572 37.496C184.828 36.992 184.372 36.158 184.204 34.994L185.266 34.796C185.362 35.432 185.554 35.936 185.842 36.308C186.142 36.668 186.502 36.926 186.922 37.082C187.354 37.238 187.81 37.316 188.29 37.316C189.01 37.316 189.586 37.172 190.018 36.884C190.462 36.584 190.684 36.176 190.684 35.66C190.684 35.132 190.474 34.766 190.054 34.562C189.646 34.358 189.1 34.196 188.416 34.076L187.588 33.932C187.036 33.836 186.538 33.692 186.094 33.5C185.65 33.296 185.296 33.026 185.032 32.69C184.78 32.354 184.654 31.934 184.654 31.43C184.654 30.674 184.948 30.08 185.536 29.648C186.136 29.216 186.928 29 187.912 29C188.908 29 189.706 29.228 190.306 29.684C190.918 30.128 191.302 30.776 191.458 31.628L190.45 31.844C190.33 31.148 190.042 30.656 189.586 30.368C189.142 30.08 188.584 29.936 187.912 29.936C187.252 29.936 186.724 30.062 186.328 30.314C185.932 30.566 185.734 30.938 185.734 31.43C185.734 31.91 185.914 32.264 186.274 32.492C186.634 32.708 187.126 32.87 187.75 32.978L188.578 33.122C189.178 33.218 189.718 33.362 190.198 33.554C190.678 33.734 191.056 33.992 191.332 34.328C191.62 34.664 191.764 35.108 191.764 35.66C191.764 36.488 191.452 37.13 190.828 37.586C190.204 38.03 189.358 38.252 188.29 38.252ZM194.326 38V29.252H195.406V38H194.326ZM194.866 27.74C194.602 27.74 194.38 27.65 194.2 27.47C194.02 27.29 193.93 27.068 193.93 26.804C193.93 26.528 194.02 26.306 194.2 26.138C194.38 25.958 194.602 25.868 194.866 25.868C195.142 25.868 195.364 25.958 195.532 26.138C195.712 26.306 195.802 26.528 195.802 26.804C195.802 27.068 195.712 27.29 195.532 27.47C195.364 27.65 195.142 27.74 194.866 27.74ZM201.748 38C201.28 38 200.926 37.88 200.686 37.64C200.458 37.4 200.344 37.064 200.344 36.632V30.224H197.536V29.252H200.344V25.976H201.424V29.252H204.484V30.224H201.424V36.488C201.424 36.848 201.604 37.028 201.964 37.028H204.016V38H201.748ZM214.217 38.252C213.605 38.252 213.047 38.15 212.543 37.946C212.051 37.73 211.661 37.418 211.373 37.01C211.085 36.602 210.941 36.11 210.941 35.534C210.941 34.946 211.085 34.46 211.373 34.076C211.661 33.692 212.051 33.404 212.543 33.212C213.035 33.02 213.581 32.924 214.181 32.924H217.385V32.222C217.385 31.514 217.181 30.962 216.773 30.566C216.365 30.17 215.771 29.972 214.991 29.972C214.223 29.972 213.611 30.164 213.155 30.548C212.711 30.92 212.411 31.424 212.255 32.06L211.211 31.754C211.355 31.238 211.583 30.776 211.895 30.368C212.207 29.948 212.621 29.618 213.137 29.378C213.653 29.126 214.271 29 214.991 29C216.095 29 216.947 29.288 217.547 29.864C218.159 30.44 218.465 31.244 218.465 32.276V36.524C218.465 36.884 218.633 37.064 218.969 37.064H219.815V38H218.663C218.291 38 217.997 37.892 217.781 37.676C217.565 37.448 217.457 37.142 217.457 36.758V36.632H217.277C217.121 36.896 216.917 37.154 216.665 37.406C216.425 37.658 216.107 37.862 215.711 38.018C215.315 38.174 214.817 38.252 214.217 38.252ZM214.289 37.28C215.213 37.28 215.957 37.004 216.521 36.452C217.097 35.888 217.385 35.096 217.385 34.076V33.86H214.199C213.575 33.86 213.053 33.998 212.633 34.274C212.225 34.538 212.021 34.952 212.021 35.516C212.021 36.08 212.231 36.518 212.651 36.83C213.083 37.13 213.629 37.28 214.289 37.28ZM221.871 38V29.252H222.915V30.404H223.131C223.311 30.08 223.599 29.78 223.995 29.504C224.391 29.216 224.955 29.072 225.687 29.072C226.395 29.072 226.965 29.234 227.397 29.558C227.841 29.882 228.159 30.272 228.351 30.728H228.567C228.771 30.272 229.089 29.882 229.521 29.558C229.953 29.234 230.559 29.072 231.339 29.072C231.939 29.072 232.461 29.198 232.905 29.45C233.349 29.69 233.697 30.032 233.949 30.476C234.201 30.908 234.327 31.418 234.327 32.006V38H233.247V32.114C233.247 31.49 233.055 30.992 232.671 30.62C232.299 30.236 231.771 30.044 231.087 30.044C230.391 30.044 229.809 30.272 229.341 30.728C228.873 31.172 228.639 31.826 228.639 32.69V38H227.559V32.114C227.559 31.49 227.367 30.992 226.983 30.62C226.611 30.236 226.083 30.044 225.399 30.044C224.703 30.044 224.121 30.272 223.653 30.728C223.185 31.172 222.951 31.826 222.951 32.69V38H221.871ZM241.425 38.252C240.525 38.252 239.739 38.066 239.067 37.694C238.407 37.31 237.891 36.776 237.519 36.092C237.147 35.408 236.961 34.622 236.961 33.734V33.518C236.961 32.618 237.147 31.832 237.519 31.16C237.891 30.476 238.401 29.948 239.049 29.576C239.709 29.192 240.459 29 241.299 29C242.115 29 242.835 29.174 243.459 29.522C244.095 29.858 244.593 30.35 244.953 30.998C245.313 31.634 245.493 32.396 245.493 33.284V33.86H238.041C238.077 34.952 238.407 35.798 239.031 36.398C239.667 36.986 240.465 37.28 241.425 37.28C242.241 37.28 242.871 37.094 243.315 36.722C243.771 36.35 244.119 35.894 244.359 35.354L245.331 35.786C245.151 36.182 244.899 36.572 244.575 36.956C244.263 37.328 243.855 37.64 243.351 37.892C242.847 38.132 242.205 38.252 241.425 38.252ZM238.059 32.924H244.395C244.347 31.976 244.041 31.25 243.477 30.746C242.913 30.23 242.187 29.972 241.299 29.972C240.423 29.972 239.697 30.23 239.121 30.746C238.545 31.25 238.191 31.976 238.059 32.924ZM250.932 38C250.464 38 250.11 37.88 249.87 37.64C249.642 37.4 249.528 37.064 249.528 36.632V30.224H246.72V29.252H249.528V25.976H250.608V29.252H253.668V30.224H250.608V36.488C250.608 36.848 250.788 37.028 251.148 37.028H253.2V38H250.932ZM264.715 38.252C263.863 38.252 263.101 38.072 262.429 37.712C261.769 37.34 261.247 36.812 260.863 36.128C260.479 35.444 260.287 34.64 260.287 33.716V33.536C260.287 32.6 260.479 31.796 260.863 31.124C261.247 30.44 261.769 29.918 262.429 29.558C263.101 29.186 263.863 29 264.715 29C265.555 29 266.263 29.162 266.839 29.486C267.427 29.798 267.883 30.212 268.207 30.728C268.543 31.232 268.753 31.766 268.837 32.33L267.775 32.546C267.715 32.078 267.565 31.652 267.325 31.268C267.085 30.872 266.749 30.56 266.317 30.332C265.885 30.092 265.351 29.972 264.715 29.972C264.079 29.972 263.509 30.122 263.005 30.422C262.501 30.71 262.099 31.124 261.799 31.664C261.511 32.192 261.367 32.822 261.367 33.554V33.698C261.367 34.43 261.511 35.066 261.799 35.606C262.099 36.134 262.501 36.548 263.005 36.848C263.509 37.136 264.079 37.28 264.715 37.28C265.675 37.28 266.407 37.034 266.911 36.542C267.415 36.038 267.727 35.426 267.847 34.706L268.909 34.922C268.801 35.486 268.573 36.026 268.225 36.542C267.889 37.046 267.427 37.46 266.839 37.784C266.263 38.096 265.555 38.252 264.715 38.252ZM275.56 38.252C274.672 38.252 273.892 38.066 273.22 37.694C272.56 37.31 272.044 36.782 271.672 36.11C271.312 35.426 271.132 34.634 271.132 33.734V33.518C271.132 32.618 271.312 31.832 271.672 31.16C272.044 30.476 272.56 29.948 273.22 29.576C273.892 29.192 274.672 29 275.56 29C276.448 29 277.222 29.192 277.882 29.576C278.554 29.948 279.07 30.476 279.43 31.16C279.802 31.832 279.988 32.618 279.988 33.518V33.734C279.988 34.634 279.802 35.426 279.43 36.11C279.07 36.782 278.554 37.31 277.882 37.694C277.222 38.066 276.448 38.252 275.56 38.252ZM275.56 37.28C276.592 37.28 277.408 36.956 278.008 36.308C278.608 35.648 278.908 34.778 278.908 33.698V33.554C278.908 32.474 278.608 31.61 278.008 30.962C277.408 30.302 276.592 29.972 275.56 29.972C274.54 29.972 273.724 30.302 273.112 30.962C272.512 31.61 272.212 32.474 272.212 33.554V33.698C272.212 34.778 272.512 35.648 273.112 36.308C273.724 36.956 274.54 37.28 275.56 37.28ZM282.727 38V29.252H283.771V30.872H283.987C284.203 30.404 284.557 29.99 285.049 29.63C285.541 29.258 286.255 29.072 287.191 29.072C287.827 29.072 288.409 29.204 288.937 29.468C289.465 29.732 289.885 30.134 290.197 30.674C290.521 31.202 290.683 31.868 290.683 32.672V38H289.603V32.744C289.603 31.784 289.363 31.094 288.883 30.674C288.403 30.254 287.761 30.044 286.957 30.044C286.057 30.044 285.307 30.344 284.707 30.944C284.107 31.532 283.807 32.426 283.807 33.626V38H282.727ZM297.222 38.252C296.166 38.252 295.26 38 294.504 37.496C293.76 36.992 293.304 36.158 293.136 34.994L294.198 34.796C294.294 35.432 294.486 35.936 294.774 36.308C295.074 36.668 295.434 36.926 295.854 37.082C296.286 37.238 296.742 37.316 297.222 37.316C297.942 37.316 298.518 37.172 298.95 36.884C299.394 36.584 299.616 36.176 299.616 35.66C299.616 35.132 299.406 34.766 298.986 34.562C298.578 34.358 298.032 34.196 297.348 34.076L296.52 33.932C295.968 33.836 295.47 33.692 295.026 33.5C294.582 33.296 294.228 33.026 293.964 32.69C293.712 32.354 293.586 31.934 293.586 31.43C293.586 30.674 293.88 30.08 294.468 29.648C295.068 29.216 295.86 29 296.844 29C297.84 29 298.638 29.228 299.238 29.684C299.85 30.128 300.234 30.776 300.39 31.628L299.382 31.844C299.262 31.148 298.974 30.656 298.518 30.368C298.074 30.08 297.516 29.936 296.844 29.936C296.184 29.936 295.656 30.062 295.26 30.314C294.864 30.566 294.666 30.938 294.666 31.43C294.666 31.91 294.846 32.264 295.206 32.492C295.566 32.708 296.058 32.87 296.682 32.978L297.51 33.122C298.11 33.218 298.65 33.362 299.13 33.554C299.61 33.734 299.988 33.992 300.264 34.328C300.552 34.664 300.696 35.108 300.696 35.66C300.696 36.488 300.384 37.13 299.76 37.586C299.136 38.03 298.29 38.252 297.222 38.252ZM307.29 38.252C306.39 38.252 305.604 38.066 304.932 37.694C304.272 37.31 303.756 36.776 303.384 36.092C303.012 35.408 302.826 34.622 302.826 33.734V33.518C302.826 32.618 303.012 31.832 303.384 31.16C303.756 30.476 304.266 29.948 304.914 29.576C305.574 29.192 306.324 29 307.164 29C307.98 29 308.7 29.174 309.324 29.522C309.96 29.858 310.458 30.35 310.818 30.998C311.178 31.634 311.358 32.396 311.358 33.284V33.86H303.906C303.942 34.952 304.272 35.798 304.896 36.398C305.532 36.986 306.33 37.28 307.29 37.28C308.106 37.28 308.736 37.094 309.18 36.722C309.636 36.35 309.984 35.894 310.224 35.354L311.196 35.786C311.016 36.182 310.764 36.572 310.44 36.956C310.128 37.328 309.72 37.64 309.216 37.892C308.712 38.132 308.07 38.252 307.29 38.252ZM303.924 32.924H310.26C310.212 31.976 309.906 31.25 309.342 30.746C308.778 30.23 308.052 29.972 307.164 29.972C306.288 29.972 305.562 30.23 304.986 30.746C304.41 31.25 304.056 31.976 303.924 32.924ZM318.012 38.252C317.16 38.252 316.398 38.072 315.726 37.712C315.066 37.34 314.544 36.812 314.16 36.128C313.776 35.444 313.584 34.64 313.584 33.716V33.536C313.584 32.6 313.776 31.796 314.16 31.124C314.544 30.44 315.066 29.918 315.726 29.558C316.398 29.186 317.16 29 318.012 29C318.852 29 319.56 29.162 320.136 29.486C320.724 29.798 321.18 30.212 321.504 30.728C321.84 31.232 322.05 31.766 322.134 32.33L321.072 32.546C321.012 32.078 320.862 31.652 320.622 31.268C320.382 30.872 320.046 30.56 319.614 30.332C319.182 30.092 318.648 29.972 318.012 29.972C317.376 29.972 316.806 30.122 316.302 30.422C315.798 30.71 315.396 31.124 315.096 31.664C314.808 32.192 314.664 32.822 314.664 33.554V33.698C314.664 34.43 314.808 35.066 315.096 35.606C315.396 36.134 315.798 36.548 316.302 36.848C316.806 37.136 317.376 37.28 318.012 37.28C318.972 37.28 319.704 37.034 320.208 36.542C320.712 36.038 321.024 35.426 321.144 34.706L322.206 34.922C322.098 35.486 321.87 36.026 321.522 36.542C321.186 37.046 320.724 37.46 320.136 37.784C319.56 38.096 318.852 38.252 318.012 38.252ZM327.643 38C327.175 38 326.821 37.88 326.581 37.64C326.353 37.4 326.239 37.064 326.239 36.632V30.224H323.431V29.252H326.239V25.976H327.319V29.252H330.379V30.224H327.319V36.488C327.319 36.848 327.499 37.028 327.859 37.028H329.911V38H327.643ZM336.505 38.252C335.605 38.252 334.819 38.066 334.147 37.694C333.487 37.31 332.971 36.776 332.599 36.092C332.227 35.408 332.041 34.622 332.041 33.734V33.518C332.041 32.618 332.227 31.832 332.599 31.16C332.971 30.476 333.481 29.948 334.129 29.576C334.789 29.192 335.539 29 336.379 29C337.195 29 337.915 29.174 338.539 29.522C339.175 29.858 339.673 30.35 340.033 30.998C340.393 31.634 340.573 32.396 340.573 33.284V33.86H333.121C333.157 34.952 333.487 35.798 334.111 36.398C334.747 36.986 335.545 37.28 336.505 37.28C337.321 37.28 337.951 37.094 338.395 36.722C338.851 36.35 339.199 35.894 339.439 35.354L340.411 35.786C340.231 36.182 339.979 36.572 339.655 36.956C339.343 37.328 338.935 37.64 338.431 37.892C337.927 38.132 337.285 38.252 336.505 38.252ZM333.139 32.924H339.475C339.427 31.976 339.121 31.25 338.557 30.746C337.993 30.23 337.267 29.972 336.379 29.972C335.503 29.972 334.777 30.23 334.201 30.746C333.625 31.25 333.271 31.976 333.139 32.924ZM346.012 38C345.544 38 345.19 37.88 344.95 37.64C344.722 37.4 344.608 37.064 344.608 36.632V30.224H341.8V29.252H344.608V25.976H345.688V29.252H348.748V30.224H345.688V36.488C345.688 36.848 345.868 37.028 346.228 37.028H348.28V38H346.012ZM354.524 38.18C353.9 38.18 353.318 38.048 352.778 37.784C352.25 37.52 351.824 37.124 351.5 36.596C351.188 36.056 351.032 35.384 351.032 34.58V29.252H352.112V34.508C352.112 35.456 352.352 36.146 352.832 36.578C353.312 36.998 353.954 37.208 354.758 37.208C355.658 37.208 356.408 36.914 357.008 36.326C357.608 35.726 357.908 34.826 357.908 33.626V29.252H358.988V38H357.944V36.38H357.728C357.512 36.848 357.158 37.268 356.666 37.64C356.174 38 355.46 38.18 354.524 38.18ZM362.162 38V29.252H363.206V30.35H363.422C363.59 29.954 363.836 29.666 364.16 29.486C364.496 29.306 364.958 29.216 365.546 29.216H366.572V30.224H365.42C364.76 30.224 364.232 30.41 363.836 30.782C363.44 31.154 363.242 31.736 363.242 32.528V38H362.162ZM368.309 38.252C368.009 38.252 367.763 38.156 367.571 37.964C367.379 37.772 367.283 37.526 367.283 37.226C367.283 36.926 367.379 36.68 367.571 36.488C367.763 36.296 368.009 36.2 368.309 36.2C368.609 36.2 368.855 36.296 369.047 36.488C369.239 36.68 369.335 36.926 369.335 37.226C369.335 37.526 369.239 37.772 369.047 37.964C368.855 38.156 368.609 38.252 368.309 38.252Z" fill="white"/>
</svg>
