<svg fill="none" height="514" viewBox="0 0 1035 514" width="1035" xmlns="http://www.w3.org/2000/svg"><g fill="#131313"><path d="m0 .835938h1035v513h-1035z"/><path d="m203.974 347.98 163.526-71.061 163.526 71.061-.001 23.167-163.525 94.412-163.526-94.412z" stroke="#fff" stroke-width=".777975"/><path d="m367.5 253.506 163.328 94.298-163.328 94.297-163.328-94.297z" stroke="#fff" stroke-width=".777975"/><path d="m203.974 280.519 163.526-71.061 163.526 71.061-.001 23.167-163.525 94.412-163.526-94.412z" stroke="#fff" stroke-width=".777975"/><path d="m367.5 186.045 163.328 94.298-163.328 94.297-163.328-94.297z" stroke="#fff" stroke-width=".777975"/><path d="m203.974 210.777 163.526-71.061 163.526 71.061-.001 23.167-163.525 94.412-163.526-94.412z" stroke="#fff" stroke-width=".777975"/><path d="m367.5 116.303 163.328 94.298-163.328 94.297-163.328-94.297z" stroke="#fff" stroke-width=".777975"/><path d="m203.974 144.699 163.526-71.0612 163.526 71.0612-.001 23.167-163.525 94.412-163.526-94.412z" stroke="#fff" stroke-width=".777975"/><path d="m367.5 50.2249 163.328 94.2971-163.328 94.298-163.328-94.298z" stroke="#fff" stroke-width=".777975"/><rect height="34.2" rx="16.6" width="33.2" x="699.4" y="124.236"/></g><rect height="34.2" rx="16.6" stroke="#fff" stroke-width=".8" width="33.2" x="699.4" y="124.236"/><path d="m715.992 146.836v-10.32h-.224l-1.888 3.968h-1.36l2.288-4.848h2.496v11.2zm-3.968 0v-1.2h8.272v1.2z" fill="#fff"/><path d="m745.864 147.836v-1.044h1.8v-10.512h-1.8v-1.044h4.788c1.644 0 2.922.42 3.834 1.26.924.828 1.386 2.124 1.386 3.888v2.322c0 1.764-.462 3.06-1.386 3.888-.912.828-2.19 1.242-3.834 1.242zm2.952-1.044h1.836c1.32 0 2.328-.318 3.024-.954s1.044-1.662 1.044-3.078v-2.43c0-1.428-.348-2.454-1.044-3.078-.696-.636-1.704-.954-3.024-.954h-1.836zm12.368 1.296c-.612 0-1.17-.102-1.674-.306-.492-.216-.882-.528-1.17-.936s-.432-.9-.432-1.476c0-.588.144-1.074.432-1.458s.678-.672 1.17-.864 1.038-.288 1.638-.288h3.204v-.702c0-.708-.204-1.26-.612-1.656s-1.002-.594-1.782-.594c-.768 0-1.38.192-1.836.576-.444.372-.744.876-.9 1.512l-1.044-.306c.144-.516.372-.978.684-1.386.312-.42.726-.75 1.242-.99.516-.252 1.134-.378 1.854-.378 1.104 0 1.956.288 2.556.864.612.576.918 1.38.918 2.412v4.248c0 .36.168.54.504.54h.846v.936h-1.152c-.372 0-.666-.108-.882-.324-.216-.228-.324-.534-.324-.918v-.126h-.18c-.156.264-.36.522-.612.774-.24.252-.558.456-.954.612s-.894.234-1.494.234zm.072-.972c.924 0 1.668-.276 2.232-.828.576-.564.864-1.356.864-2.376v-.216h-3.186c-.624 0-1.146.138-1.566.414-.408.264-.612.678-.612 1.242s.21 1.002.63 1.314c.432.3.978.45 1.638.45zm10.205.72c-.468 0-.822-.12-1.062-.36-.228-.24-.342-.576-.342-1.008v-6.408h-2.808v-.972h2.808v-3.276h1.08v3.276h3.06v.972h-3.06v6.264c0 .36.18.54.54.54h2.052v.972zm7.758.252c-.612 0-1.17-.102-1.674-.306-.492-.216-.882-.528-1.17-.936s-.432-.9-.432-1.476c0-.588.144-1.074.432-1.458s.678-.672 1.17-.864 1.038-.288 1.638-.288h3.204v-.702c0-.708-.204-1.26-.612-1.656s-1.002-.594-1.782-.594c-.768 0-1.38.192-1.836.576-.444.372-.744.876-.9 1.512l-1.044-.306c.144-.516.372-.978.684-1.386.312-.42.726-.75 1.242-.99.516-.252 1.134-.378 1.854-.378 1.104 0 1.956.288 2.556.864.612.576.918 1.38.918 2.412v4.248c0 .36.168.54.504.54h.846v.936h-1.152c-.372 0-.666-.108-.882-.324-.216-.228-.324-.534-.324-.918v-.126h-.18c-.156.264-.36.522-.612.774-.24.252-.558.456-.954.612s-.894.234-1.494.234zm.072-.972c.924 0 1.668-.276 2.232-.828.576-.564.864-1.356.864-2.376v-.216h-3.186c-.624 0-1.146.138-1.566.414-.408.264-.612.678-.612 1.242s.21 1.002.63 1.314c.432.3.978.45 1.638.45zm16.219.972c-.852 0-1.614-.18-2.286-.54-.66-.372-1.182-.9-1.566-1.584s-.576-1.488-.576-2.412v-.18c0-.936.192-1.74.576-2.412.384-.684.906-1.206 1.566-1.566.672-.372 1.434-.558 2.286-.558.84 0 1.548.162 2.124.486.588.312 1.044.726 1.368 1.242.336.504.546 1.038.63 1.602l-1.062.216c-.06-.468-.21-.894-.45-1.278-.24-.396-.576-.708-1.008-.936-.432-.24-.966-.36-1.602-.36s-1.206.15-1.71.45c-.504.288-.906.702-1.206 1.242-.288.528-.432 1.158-.432 1.89v.144c0 .732.144 1.368.432 1.908.3.528.702.942 1.206 1.242.504.288 1.074.432 1.71.432.96 0 1.692-.246 2.196-.738.504-.504.816-1.116.936-1.836l1.062.216c-.108.564-.336 1.104-.684 1.62-.336.504-.798.918-1.386 1.242-.576.312-1.284.468-2.124.468zm10.845 0c-.888 0-1.668-.186-2.34-.558-.66-.384-1.176-.912-1.548-1.584-.36-.684-.54-1.476-.54-2.376v-.216c0-.9.18-1.686.54-2.358.372-.684.888-1.212 1.548-1.584.672-.384 1.452-.576 2.34-.576s1.662.192 2.322.576c.672.372 1.188.9 1.548 1.584.372.672.558 1.458.558 2.358v.216c0 .9-.186 1.692-.558 2.376-.36.672-.876 1.2-1.548 1.584-.66.372-1.434.558-2.322.558zm0-.972c1.032 0 1.848-.324 2.448-.972.6-.66.9-1.53.9-2.61v-.144c0-1.08-.3-1.944-.9-2.592-.6-.66-1.416-.99-2.448-.99-1.02 0-1.836.33-2.448.99-.6.648-.9 1.512-.9 2.592v.144c0 1.08.3 1.95.9 2.61.612.648 1.428.972 2.448.972zm7.167.72v-12.6h1.08v12.6zm4.253 0v-12.6h1.08v12.6zm8.286.252c-.9 0-1.686-.186-2.358-.558-.66-.384-1.176-.918-1.548-1.602s-.558-1.47-.558-2.358v-.216c0-.9.186-1.686.558-2.358.372-.684.882-1.212 1.53-1.584.66-.384 1.41-.576 2.25-.576.816 0 1.536.174 2.16.522.636.336 1.134.828 1.494 1.476.36.636.54 1.398.54 2.286v.576h-7.452c.036 1.092.366 1.938.99 2.538.636.588 1.434.882 2.394.882.816 0 1.446-.186 1.89-.558.456-.372.804-.828 1.044-1.368l.972.432c-.18.396-.432.786-.756 1.17-.312.372-.72.684-1.224.936-.504.24-1.146.36-1.926.36zm-3.366-5.328h6.336c-.048-.948-.354-1.674-.918-2.178-.564-.516-1.29-.774-2.178-.774-.876 0-1.602.258-2.178.774-.576.504-.93 1.23-1.062 2.178zm14.088 5.328c-.852 0-1.614-.18-2.286-.54-.66-.372-1.182-.9-1.566-1.584s-.576-1.488-.576-2.412v-.18c0-.936.192-1.74.576-2.412.384-.684.906-1.206 1.566-1.566.672-.372 1.434-.558 2.286-.558.84 0 1.548.162 2.124.486.588.312 1.044.726 1.368 1.242.336.504.546 1.038.63 1.602l-1.062.216c-.06-.468-.21-.894-.45-1.278-.24-.396-.576-.708-1.008-.936-.432-.24-.966-.36-1.602-.36s-1.206.15-1.71.45c-.504.288-.906.702-1.206 1.242-.288.528-.432 1.158-.432 1.89v.144c0 .732.144 1.368.432 1.908.3.528.702.942 1.206 1.242.504.288 1.074.432 1.71.432.96 0 1.692-.246 2.196-.738.504-.504.816-1.116.936-1.836l1.062.216c-.108.564-.336 1.104-.684 1.62-.336.504-.798.918-1.386 1.242-.576.312-1.284.468-2.124.468zm9.631-.252c-.468 0-.822-.12-1.062-.36-.228-.24-.342-.576-.342-1.008v-6.408h-2.808v-.972h2.808v-3.276h1.08v3.276h3.06v.972h-3.06v6.264c0 .36.18.54.54.54h2.052v.972zm8.826.252c-.888 0-1.668-.186-2.34-.558-.66-.384-1.176-.912-1.548-1.584-.36-.684-.54-1.476-.54-2.376v-.216c0-.9.18-1.686.54-2.358.372-.684.888-1.212 1.548-1.584.672-.384 1.452-.576 2.34-.576s1.662.192 2.322.576c.672.372 1.188.9 1.548 1.584.372.672.558 1.458.558 2.358v.216c0 .9-.186 1.692-.558 2.376-.36.672-.876 1.2-1.548 1.584-.66.372-1.434.558-2.322.558zm0-.972c1.032 0 1.848-.324 2.448-.972.6-.66.9-1.53.9-2.61v-.144c0-1.08-.3-1.944-.9-2.592-.6-.66-1.416-.99-2.448-.99-1.02 0-1.836.33-2.448.99-.6.648-.9 1.512-.9 2.592v.144c0 1.08.3 1.95.9 2.61.612.648 1.428.972 2.448.972zm7.166.72v-8.748h1.044v1.098h.216c.168-.396.414-.684.738-.864.336-.18.798-.27 1.386-.27h1.026v1.008h-1.152c-.66 0-1.188.186-1.584.558s-.594.954-.594 1.746v5.472zm4.554 3.6 5.292-16.2h1.098l-5.292 16.2zm12.371-3.348c-.96 0-1.8-.192-2.52-.576-.72-.396-1.278-.972-1.674-1.728-.396-.768-.594-1.71-.594-2.826v-2.844c0-1.68.438-2.952 1.314-3.816.888-.876 2.07-1.314 3.546-1.314 1.464 0 2.568.408 3.312 1.224.756.816 1.134 1.902 1.134 3.258v.09h-1.152v-.126c0-.66-.114-1.242-.342-1.746-.228-.516-.588-.918-1.08-1.206-.48-.3-1.104-.45-1.872-.45-1.164 0-2.076.354-2.736 1.062-.648.708-.972 1.704-.972 2.988v2.916c0 1.284.324 2.28.972 2.988.66.708 1.572 1.062 2.736 1.062 1.14 0 1.98-.33 2.52-.99s.81-1.548.81-2.664v-.36h-4.158v-1.008h5.274v5.814h-1.044v-1.422h-.216c-.144.288-.348.564-.612.828-.264.252-.612.456-1.044.612-.42.156-.954.234-1.602.234zm11.541 0c-.9 0-1.686-.186-2.358-.558-.66-.384-1.176-.918-1.548-1.602s-.558-1.47-.558-2.358v-.216c0-.9.186-1.686.558-2.358.372-.684.882-1.212 1.53-1.584.66-.384 1.41-.576 2.25-.576.816 0 1.536.174 2.16.522.636.336 1.134.828 1.494 1.476.36.636.54 1.398.54 2.286v.576h-7.452c.036 1.092.366 1.938.99 2.538.636.588 1.434.882 2.394.882.816 0 1.446-.186 1.89-.558.456-.372.804-.828 1.044-1.368l.972.432c-.18.396-.432.786-.756 1.17-.312.372-.72.684-1.224.936-.504.24-1.146.36-1.926.36zm-3.366-5.328h6.336c-.048-.948-.354-1.674-.918-2.178-.564-.516-1.29-.774-2.178-.774-.876 0-1.602.258-2.178.774-.576.504-.93 1.23-1.062 2.178zm10.092 5.076v-8.748h1.044v1.62h.216c.216-.468.57-.882 1.062-1.242.492-.372 1.206-.558 2.142-.558.636 0 1.218.132 1.746.396s.948.666 1.26 1.206c.324.528.486 1.194.486 1.998v5.328h-1.08v-5.256c0-.96-.24-1.65-.72-2.07s-1.122-.63-1.926-.63c-.9 0-1.65.3-2.25.9-.6.588-.9 1.482-.9 2.682v4.374zm15.053.252c-.9 0-1.686-.186-2.358-.558-.66-.384-1.176-.918-1.548-1.602s-.558-1.47-.558-2.358v-.216c0-.9.186-1.686.558-2.358.372-.684.882-1.212 1.53-1.584.66-.384 1.41-.576 2.25-.576.816 0 1.536.174 2.16.522.636.336 1.134.828 1.494 1.476.36.636.54 1.398.54 2.286v.576h-7.452c.036 1.092.366 1.938.99 2.538.636.588 1.434.882 2.394.882.816 0 1.446-.186 1.89-.558.456-.372.804-.828 1.044-1.368l.972.432c-.18.396-.432.786-.756 1.17-.312.372-.72.684-1.224.936-.504.24-1.146.36-1.926.36zm-3.366-5.328h6.336c-.048-.948-.354-1.674-.918-2.178-.564-.516-1.29-.774-2.178-.774-.876 0-1.602.258-2.178.774-.576.504-.93 1.23-1.062 2.178zm10.092 5.076v-8.748h1.044v1.098h.216c.168-.396.414-.684.738-.864.336-.18.798-.27 1.386-.27h1.026v1.008h-1.152c-.66 0-1.188.186-1.584.558s-.594.954-.594 1.746v5.472zm8.993.252c-.612 0-1.17-.102-1.674-.306-.492-.216-.882-.528-1.17-.936s-.432-.9-.432-1.476c0-.588.144-1.074.432-1.458s.678-.672 1.17-.864 1.038-.288 1.638-.288h3.204v-.702c0-.708-.204-1.26-.612-1.656s-1.002-.594-1.782-.594c-.768 0-1.38.192-1.836.576-.444.372-.744.876-.9 1.512l-1.044-.306c.144-.516.372-.978.684-1.386.312-.42.726-.75 1.242-.99.516-.252 1.134-.378 1.854-.378 1.104 0 1.956.288 2.556.864.612.576.918 1.38.918 2.412v4.248c0 .36.168.54.504.54h.846v.936h-1.152c-.372 0-.666-.108-.882-.324-.216-.228-.324-.534-.324-.918v-.126h-.18c-.156.264-.36.522-.612.774-.24.252-.558.456-.954.612s-.894.234-1.494.234zm.072-.972c.924 0 1.668-.276 2.232-.828.576-.564.864-1.356.864-2.376v-.216h-3.186c-.624 0-1.146.138-1.566.414-.408.264-.612.678-.612 1.242s.21 1.002.63 1.314c.432.3.978.45 1.638.45zm10.205.72c-.468 0-.822-.12-1.062-.36-.228-.24-.342-.576-.342-1.008v-6.408h-2.808v-.972h2.808v-3.276h1.08v3.276h3.06v.972h-3.06v6.264c0 .36.18.54.54.54h2.052v.972zm8.826.252c-.888 0-1.668-.186-2.34-.558-.66-.384-1.176-.912-1.548-1.584-.36-.684-.54-1.476-.54-2.376v-.216c0-.9.18-1.686.54-2.358.372-.684.888-1.212 1.548-1.584.672-.384 1.452-.576 2.34-.576s1.662.192 2.322.576c.672.372 1.188.9 1.548 1.584.372.672.558 1.458.558 2.358v.216c0 .9-.186 1.692-.558 2.376-.36.672-.876 1.2-1.548 1.584-.66.372-1.434.558-2.322.558zm0-.972c1.032 0 1.848-.324 2.448-.972.6-.66.9-1.53.9-2.61v-.144c0-1.08-.3-1.944-.9-2.592-.6-.66-1.416-.99-2.448-.99-1.02 0-1.836.33-2.448.99-.6.648-.9 1.512-.9 2.592v.144c0 1.08.3 1.95.9 2.61.612.648 1.428.972 2.448.972zm7.166.72v-8.748h1.044v1.098h.216c.168-.396.414-.684.738-.864.336-.18.798-.27 1.386-.27h1.026v1.008h-1.152c-.66 0-1.188.186-1.584.558s-.594.954-.594 1.746v5.472z" fill="#d9d9d9"/><path d="m699.4 210.836c0-9.168 7.432-16.6 16.6-16.6s16.6 7.432 16.6 16.6v1c0 9.168-7.432 16.6-16.6 16.6s-16.6-7.432-16.6-16.6z" fill="#131313"/><path d="m699.4 210.836c0-9.168 7.432-16.6 16.6-16.6s16.6 7.432 16.6 16.6v1c0 9.168-7.432 16.6-16.6 16.6s-16.6-7.432-16.6-16.6z" stroke="#fff" stroke-width=".8"/><path d="m712.008 216.836v-1.168c0-.8.139-1.44.416-1.92.288-.48.683-.864 1.184-1.152.512-.299 1.12-.555 1.824-.768l.88-.272c.48-.149.901-.331 1.264-.544.363-.224.645-.501.848-.832.203-.341.304-.757.304-1.248v-.064c0-.704-.245-1.259-.736-1.664-.491-.416-1.12-.624-1.888-.624-.811 0-1.472.219-1.984.656-.512.427-.768 1.077-.768 1.952v.224h-1.28v-.208c0-.811.176-1.499.528-2.064s.832-.992 1.44-1.28c.608-.299 1.296-.448 2.064-.448s1.445.144 2.032.432c.597.288 1.061.688 1.392 1.2s.496 1.109.496 1.792v.144c0 .725-.144 1.328-.432 1.808-.288.469-.688.853-1.2 1.152-.501.299-1.093.555-1.776.768l-.864.272c-.544.171-.997.352-1.36.544-.352.181-.619.416-.8.704s-.272.677-.272 1.168v.272h6.608v1.168z" fill="#fff"/><path d="m745.864 217.836v-1.044h1.8v-10.512h-1.8v-1.044h4.788c1.644 0 2.922.42 3.834 1.26.924.828 1.386 2.124 1.386 3.888v2.322c0 1.764-.462 3.06-1.386 3.888-.912.828-2.19 1.242-3.834 1.242zm2.952-1.044h1.836c1.32 0 2.328-.318 3.024-.954s1.044-1.662 1.044-3.078v-2.43c0-1.428-.348-2.454-1.044-3.078-.696-.636-1.704-.954-3.024-.954h-1.836zm12.368 1.296c-.612 0-1.17-.102-1.674-.306-.492-.216-.882-.528-1.17-.936s-.432-.9-.432-1.476c0-.588.144-1.074.432-1.458s.678-.672 1.17-.864 1.038-.288 1.638-.288h3.204v-.702c0-.708-.204-1.26-.612-1.656s-1.002-.594-1.782-.594c-.768 0-1.38.192-1.836.576-.444.372-.744.876-.9 1.512l-1.044-.306c.144-.516.372-.978.684-1.386.312-.42.726-.75 1.242-.99.516-.252 1.134-.378 1.854-.378 1.104 0 1.956.288 2.556.864.612.576.918 1.38.918 2.412v4.248c0 .36.168.54.504.54h.846v.936h-1.152c-.372 0-.666-.108-.882-.324-.216-.228-.324-.534-.324-.918v-.126h-.18c-.156.264-.36.522-.612.774-.24.252-.558.456-.954.612s-.894.234-1.494.234zm.072-.972c.924 0 1.668-.276 2.232-.828.576-.564.864-1.356.864-2.376v-.216h-3.186c-.624 0-1.146.138-1.566.414-.408.264-.612.678-.612 1.242s.21 1.002.63 1.314c.432.3.978.45 1.638.45zm10.205.72c-.468 0-.822-.12-1.062-.36-.228-.24-.342-.576-.342-1.008v-6.408h-2.808v-.972h2.808v-3.276h1.08v3.276h3.06v.972h-3.06v6.264c0 .36.18.54.54.54h2.052v.972zm7.758.252c-.612 0-1.17-.102-1.674-.306-.492-.216-.882-.528-1.17-.936s-.432-.9-.432-1.476c0-.588.144-1.074.432-1.458s.678-.672 1.17-.864 1.038-.288 1.638-.288h3.204v-.702c0-.708-.204-1.26-.612-1.656s-1.002-.594-1.782-.594c-.768 0-1.38.192-1.836.576-.444.372-.744.876-.9 1.512l-1.044-.306c.144-.516.372-.978.684-1.386.312-.42.726-.75 1.242-.99.516-.252 1.134-.378 1.854-.378 1.104 0 1.956.288 2.556.864.612.576.918 1.38.918 2.412v4.248c0 .36.168.54.504.54h.846v.936h-1.152c-.372 0-.666-.108-.882-.324-.216-.228-.324-.534-.324-.918v-.126h-.18c-.156.264-.36.522-.612.774-.24.252-.558.456-.954.612s-.894.234-1.494.234zm.072-.972c.924 0 1.668-.276 2.232-.828.576-.564.864-1.356.864-2.376v-.216h-3.186c-.624 0-1.146.138-1.566.414-.408.264-.612.678-.612 1.242s.21 1.002.63 1.314c.432.3.978.45 1.638.45zm14.947.72-4.05-12.6h1.206l3.762 11.934h.216l3.762-11.934h1.206l-4.05 12.6zm10.188.252c-.612 0-1.17-.102-1.674-.306-.492-.216-.882-.528-1.17-.936s-.432-.9-.432-1.476c0-.588.144-1.074.432-1.458s.678-.672 1.17-.864 1.038-.288 1.638-.288h3.204v-.702c0-.708-.204-1.26-.612-1.656s-1.002-.594-1.782-.594c-.768 0-1.38.192-1.836.576-.444.372-.744.876-.9 1.512l-1.044-.306c.144-.516.372-.978.684-1.386.312-.42.726-.75 1.242-.99.516-.252 1.134-.378 1.854-.378 1.104 0 1.956.288 2.556.864.612.576.918 1.38.918 2.412v4.248c0 .36.168.54.504.54h.846v.936h-1.152c-.372 0-.666-.108-.882-.324-.216-.228-.324-.534-.324-.918v-.126h-.18c-.156.264-.36.522-.612.774-.24.252-.558.456-.954.612s-.894.234-1.494.234zm.072-.972c.924 0 1.668-.276 2.232-.828.576-.564.864-1.356.864-2.376v-.216h-3.186c-.624 0-1.146.138-1.566.414-.408.264-.612.678-.612 1.242s.21 1.002.63 1.314c.432.3.978.45 1.638.45zm7.582.72v-12.6h1.08v12.6zm4.254 0v-8.748h1.08v8.748zm.54-10.26c-.264 0-.486-.09-.666-.27s-.27-.402-.27-.666c0-.276.09-.498.27-.666.18-.18.402-.27.666-.27.276 0 .498.09.666.27.18.168.27.39.27.666 0 .264-.09.486-.27.666-.168.18-.39.27-.666.27zm7.494 10.512c-.78 0-1.488-.18-2.124-.54-.636-.372-1.146-.894-1.53-1.566-.372-.684-.558-1.488-.558-2.412v-.216c0-.924.186-1.722.558-2.394.372-.684.876-1.206 1.512-1.566.648-.372 1.362-.558 2.142-.558.648 0 1.194.09 1.638.27.444.168.804.39 1.08.666.288.264.51.546.666.846h.216v-5.382h1.08v12.6h-1.044v-1.602h-.216c-.252.48-.648.912-1.188 1.296-.528.372-1.272.558-2.232.558zm.252-.972c.996 0 1.8-.318 2.412-.954.624-.636.936-1.512.936-2.628v-.144c0-1.116-.312-1.992-.936-2.628-.612-.636-1.416-.954-2.412-.954-.984 0-1.788.318-2.412.954s-.936 1.512-.936 2.628v.144c0 1.116.312 1.992.936 2.628s1.428.954 2.412.954zm10.287.972c-.612 0-1.17-.102-1.674-.306-.492-.216-.882-.528-1.17-.936s-.432-.9-.432-1.476c0-.588.144-1.074.432-1.458s.678-.672 1.17-.864 1.038-.288 1.638-.288h3.204v-.702c0-.708-.204-1.26-.612-1.656s-1.002-.594-1.782-.594c-.768 0-1.38.192-1.836.576-.444.372-.744.876-.9 1.512l-1.044-.306c.144-.516.372-.978.684-1.386.312-.42.726-.75 1.242-.99.516-.252 1.134-.378 1.854-.378 1.104 0 1.956.288 2.556.864.612.576.918 1.38.918 2.412v4.248c0 .36.168.54.504.54h.846v.936h-1.152c-.372 0-.666-.108-.882-.324-.216-.228-.324-.534-.324-.918v-.126h-.18c-.156.264-.36.522-.612.774-.24.252-.558.456-.954.612s-.894.234-1.494.234zm.072-.972c.924 0 1.668-.276 2.232-.828.576-.564.864-1.356.864-2.376v-.216h-3.186c-.624 0-1.146.138-1.566.414-.408.264-.612.678-.612 1.242s.21 1.002.63 1.314c.432.3.978.45 1.638.45zm10.205.72c-.468 0-.822-.12-1.062-.36-.228-.24-.342-.576-.342-1.008v-6.408h-2.808v-.972h2.808v-3.276h1.08v3.276h3.06v.972h-3.06v6.264c0 .36.18.54.54.54h2.052v.972zm8.826.252c-.888 0-1.668-.186-2.34-.558-.66-.384-1.176-.912-1.548-1.584-.36-.684-.54-1.476-.54-2.376v-.216c0-.9.18-1.686.54-2.358.372-.684.888-1.212 1.548-1.584.672-.384 1.452-.576 2.34-.576s1.662.192 2.322.576c.672.372 1.188.9 1.548 1.584.372.672.558 1.458.558 2.358v.216c0 .9-.186 1.692-.558 2.376-.36.672-.876 1.2-1.548 1.584-.66.372-1.434.558-2.322.558zm0-.972c1.032 0 1.848-.324 2.448-.972.6-.66.9-1.53.9-2.61v-.144c0-1.08-.3-1.944-.9-2.592-.6-.66-1.416-.99-2.448-.99-1.02 0-1.836.33-2.448.99-.6.648-.9 1.512-.9 2.592v.144c0 1.08.3 1.95.9 2.61.612.648 1.428.972 2.448.972zm7.166.72v-8.748h1.044v1.098h.216c.168-.396.414-.684.738-.864.336-.18.798-.27 1.386-.27h1.026v1.008h-1.152c-.66 0-1.188.186-1.584.558s-.594.954-.594 1.746v5.472z" fill="#d9d9d9"/><path d="m699.4 281.836c0-9.168 7.432-16.6 16.6-16.6s16.6 7.432 16.6 16.6v1c0 9.168-7.432 16.6-16.6 16.6s-16.6-7.432-16.6-16.6z" fill="#131313"/><path d="m699.4 281.836c0-9.168 7.432-16.6 16.6-16.6s16.6 7.432 16.6 16.6v1c0 9.168-7.432 16.6-16.6 16.6s-16.6-7.432-16.6-16.6z" stroke="#fff" stroke-width=".8"/><path d="m715.992 288.06c-.789 0-1.499-.149-2.128-.448-.619-.299-1.109-.731-1.472-1.296-.352-.565-.528-1.248-.528-2.048v-.304h1.296v.288c0 .821.261 1.467.784 1.936s1.205.704 2.048.704c.853 0 1.515-.219 1.984-.656.48-.448.72-1.008.72-1.68v-.128c0-.491-.117-.885-.352-1.184-.235-.309-.555-.533-.96-.672-.395-.149-.832-.224-1.312-.224h-1.824v-1.616l4.272-2.736v-.192h-6.384v-1.168h7.76v1.808l-4.176 2.688v.192h.8c.629 0 1.205.117 1.728.352.533.224.955.565 1.264 1.024.32.448.48 1.013.48 1.696v.176c0 .704-.165 1.317-.496 1.84s-.795.928-1.392 1.216-1.301.432-2.112.432z" fill="#fff"/><path d="m750.364 289.088c-.78 0-1.488-.18-2.124-.54-.636-.372-1.146-.894-1.53-1.566-.372-.684-.558-1.488-.558-2.412v-.216c0-.924.186-1.722.558-2.394.372-.684.876-1.206 1.512-1.566.648-.372 1.362-.558 2.142-.558.648 0 1.194.09 1.638.27.444.168.804.39 1.08.666.288.264.51.546.666.846h.216v-5.382h1.08v12.6h-1.044v-1.602h-.216c-.252.48-.648.912-1.188 1.296-.528.372-1.272.558-2.232.558zm.252-.972c.996 0 1.8-.318 2.412-.954.624-.636.936-1.512.936-2.628v-.144c0-1.116-.312-1.992-.936-2.628-.612-.636-1.416-.954-2.412-.954-.984 0-1.788.318-2.412.954s-.936 1.512-.936 2.628v.144c0 1.116.312 1.992.936 2.628s1.428.954 2.412.954zm10.287.972c-.612 0-1.17-.102-1.674-.306-.492-.216-.882-.528-1.17-.936s-.432-.9-.432-1.476c0-.588.144-1.074.432-1.458s.678-.672 1.17-.864 1.038-.288 1.638-.288h3.204v-.702c0-.708-.204-1.26-.612-1.656s-1.002-.594-1.782-.594c-.768 0-1.38.192-1.836.576-.444.372-.744.876-.9 1.512l-1.044-.306c.144-.516.372-.978.684-1.386.312-.42.726-.75 1.242-.99.516-.252 1.134-.378 1.854-.378 1.104 0 1.956.288 2.556.864.612.576.918 1.38.918 2.412v4.248c0 .36.168.54.504.54h.846v.936h-1.152c-.372 0-.666-.108-.882-.324-.216-.228-.324-.534-.324-.918v-.126h-.18c-.156.264-.36.522-.612.774-.24.252-.558.456-.954.612s-.894.234-1.494.234zm.072-.972c.924 0 1.668-.276 2.232-.828.576-.564.864-1.356.864-2.376v-.216h-3.186c-.624 0-1.146.138-1.566.414-.408.264-.612.678-.612 1.242s.21 1.002.63 1.314c.432.3.978.45 1.638.45zm10.205.72c-.468 0-.822-.12-1.062-.36-.228-.24-.342-.576-.342-1.008v-6.408h-2.808v-.972h2.808v-3.276h1.08v3.276h3.06v.972h-3.06v6.264c0 .36.18.54.54.54h2.052v.972zm7.758.252c-.612 0-1.17-.102-1.674-.306-.492-.216-.882-.528-1.17-.936s-.432-.9-.432-1.476c0-.588.144-1.074.432-1.458s.678-.672 1.17-.864 1.038-.288 1.638-.288h3.204v-.702c0-.708-.204-1.26-.612-1.656s-1.002-.594-1.782-.594c-.768 0-1.38.192-1.836.576-.444.372-.744.876-.9 1.512l-1.044-.306c.144-.516.372-.978.684-1.386.312-.42.726-.75 1.242-.99.516-.252 1.134-.378 1.854-.378 1.104 0 1.956.288 2.556.864.612.576.918 1.38.918 2.412v4.248c0 .36.168.54.504.54h.846v.936h-1.152c-.372 0-.666-.108-.882-.324-.216-.228-.324-.534-.324-.918v-.126h-.18c-.156.264-.36.522-.612.774-.24.252-.558.456-.954.612s-.894.234-1.494.234zm.072-.972c.924 0 1.668-.276 2.232-.828.576-.564.864-1.356.864-2.376v-.216h-3.186c-.624 0-1.146.138-1.566.414-.408.264-.612.678-.612 1.242s.21 1.002.63 1.314c.432.3.978.45 1.638.45zm12.186.72v-12.6h4.932c.78 0 1.464.132 2.052.396.6.264 1.068.648 1.404 1.152.348.492.522 1.092.522 1.8v.18c0 .852-.204 1.524-.612 2.016-.408.48-.888.798-1.44.954v.216c.42.012.774.144 1.062.396s.432.654.432 1.206v4.284h-1.152v-4.158c0-.384-.108-.678-.324-.882-.204-.204-.516-.306-.936-.306h-4.788v5.346zm1.152-6.39h3.672c.936 0 1.656-.216 2.16-.648.516-.444.774-1.074.774-1.89v-.09c0-.816-.252-1.44-.756-1.872-.492-.444-1.218-.666-2.178-.666h-3.672zm14.272 6.642c-.9 0-1.686-.186-2.358-.558-.66-.384-1.176-.918-1.548-1.602s-.558-1.47-.558-2.358v-.216c0-.9.186-1.686.558-2.358.372-.684.882-1.212 1.53-1.584.66-.384 1.41-.576 2.25-.576.816 0 1.536.174 2.16.522.636.336 1.134.828 1.494 1.476.36.636.54 1.398.54 2.286v.576h-7.452c.036 1.092.366 1.938.99 2.538.636.588 1.434.882 2.394.882.816 0 1.446-.186 1.89-.558.456-.372.804-.828 1.044-1.368l.972.432c-.18.396-.432.786-.756 1.17-.312.372-.72.684-1.224.936-.504.24-1.146.36-1.926.36zm-3.366-5.328h6.336c-.048-.948-.354-1.674-.918-2.178-.564-.516-1.29-.774-2.178-.774-.876 0-1.602.258-2.178.774-.576.504-.93 1.23-1.062 2.178zm10.092 8.676v-12.348h1.044v1.602h.216c.252-.48.642-.906 1.17-1.278.54-.384 1.29-.576 2.25-.576.78 0 1.488.186 2.124.558.636.36 1.14.876 1.512 1.548.384.672.576 1.476.576 2.412v.216c0 .924-.186 1.728-.558 2.412-.372.672-.876 1.194-1.512 1.566-.636.36-1.35.54-2.142.54-.636 0-1.182-.084-1.638-.252-.444-.18-.81-.408-1.098-.684-.276-.276-.492-.558-.648-.846h-.216v5.13zm4.428-4.32c.996 0 1.8-.318 2.412-.954.624-.636.936-1.512.936-2.628v-.144c0-1.116-.312-1.992-.936-2.628-.612-.636-1.416-.954-2.412-.954-.984 0-1.788.318-2.412.954s-.936 1.512-.936 2.628v.144c0 1.116.312 1.992.936 2.628s1.428.954 2.412.954zm11.204.972c-.888 0-1.668-.186-2.34-.558-.66-.384-1.176-.912-1.548-1.584-.36-.684-.54-1.476-.54-2.376v-.216c0-.9.18-1.686.54-2.358.372-.684.888-1.212 1.548-1.584.672-.384 1.452-.576 2.34-.576s1.662.192 2.322.576c.672.372 1.188.9 1.548 1.584.372.672.558 1.458.558 2.358v.216c0 .9-.186 1.692-.558 2.376-.36.672-.876 1.2-1.548 1.584-.66.372-1.434.558-2.322.558zm0-.972c1.032 0 1.848-.324 2.448-.972.6-.66.9-1.53.9-2.61v-.144c0-1.08-.3-1.944-.9-2.592-.6-.66-1.416-.99-2.448-.99-1.02 0-1.836.33-2.448.99-.6.648-.9 1.512-.9 2.592v.144c0 1.08.3 1.95.9 2.61.612.648 1.428.972 2.448.972zm10.641.972c-1.056 0-1.962-.252-2.718-.756-.744-.504-1.2-1.338-1.368-2.502l1.062-.198c.096.636.288 1.14.576 1.512.3.36.66.618 1.08.774.432.156.888.234 1.368.234.72 0 1.296-.144 1.728-.432.444-.3.666-.708.666-1.224 0-.528-.21-.894-.63-1.098-.408-.204-.954-.366-1.638-.486l-.828-.144c-.552-.096-1.05-.24-1.494-.432-.444-.204-.798-.474-1.062-.81-.252-.336-.378-.756-.378-1.26 0-.756.294-1.35.882-1.782.6-.432 1.392-.648 2.376-.648.996 0 1.794.228 2.394.684.612.444.996 1.092 1.152 1.944l-1.008.216c-.12-.696-.408-1.188-.864-1.476-.444-.288-1.002-.432-1.674-.432-.66 0-1.188.126-1.584.378s-.594.624-.594 1.116c0 .48.18.834.54 1.062.36.216.852.378 1.476.486l.828.144c.6.096 1.14.24 1.62.432.48.18.858.438 1.134.774.288.336.432.78.432 1.332 0 .828-.312 1.47-.936 1.926-.624.444-1.47.666-2.538.666zm6.035-.252v-8.748h1.08v8.748zm.54-10.26c-.264 0-.486-.09-.666-.27s-.27-.402-.27-.666c0-.276.09-.498.27-.666.18-.18.402-.27.666-.27.276 0 .498.09.666.27.18.168.27.39.27.666 0 .264-.09.486-.27.666-.168.18-.39.27-.666.27zm6.882 10.26c-.468 0-.822-.12-1.062-.36-.228-.24-.342-.576-.342-1.008v-6.408h-2.808v-.972h2.808v-3.276h1.08v3.276h3.06v.972h-3.06v6.264c0 .36.18.54.54.54h2.052v.972zm8.826.252c-.888 0-1.668-.186-2.34-.558-.66-.384-1.176-.912-1.548-1.584-.36-.684-.54-1.476-.54-2.376v-.216c0-.9.18-1.686.54-2.358.372-.684.888-1.212 1.548-1.584.672-.384 1.452-.576 2.34-.576s1.662.192 2.322.576c.672.372 1.188.9 1.548 1.584.372.672.558 1.458.558 2.358v.216c0 .9-.186 1.692-.558 2.376-.36.672-.876 1.2-1.548 1.584-.66.372-1.434.558-2.322.558zm0-.972c1.032 0 1.848-.324 2.448-.972.6-.66.9-1.53.9-2.61v-.144c0-1.08-.3-1.944-.9-2.592-.6-.66-1.416-.99-2.448-.99-1.02 0-1.836.33-2.448.99-.6.648-.9 1.512-.9 2.592v.144c0 1.08.3 1.95.9 2.61.612.648 1.428.972 2.448.972zm7.166.72v-8.748h1.044v1.098h.216c.168-.396.414-.684.738-.864.336-.18.798-.27 1.386-.27h1.026v1.008h-1.152c-.66 0-1.188.186-1.584.558s-.594.954-.594 1.746v5.472zm7.743 3.6v-.972h5.112c.36 0 .54-.18.54-.54v-3.6h-.216c-.144.288-.348.564-.612.828-.252.252-.588.462-1.008.63-.408.156-.924.234-1.548.234s-1.206-.132-1.746-.396c-.528-.264-.954-.66-1.278-1.188-.312-.528-.468-1.194-.468-1.998v-5.346h1.08v5.274c0 .948.24 1.632.72 2.052s1.122.63 1.926.63c.9 0 1.65-.294 2.25-.882s.9-1.482.9-2.682v-4.392h1.08v10.98c0 .432-.12.768-.36 1.008-.228.24-.576.36-1.044.36z" fill="#d9d9d9"/><path d="m699.4 349.836c0-9.168 7.432-16.6 16.6-16.6s16.6 7.432 16.6 16.6v1c0 9.168-7.432 16.6-16.6 16.6s-16.6-7.432-16.6-16.6z" fill="#131313"/><path d="m699.4 349.836c0-9.168 7.432-16.6 16.6-16.6s16.6 7.432 16.6 16.6v1c0 9.168-7.432 16.6-16.6 16.6s-16.6-7.432-16.6-16.6z" stroke="#fff" stroke-width=".8"/><path d="m717.32 355.836v-2.288h-5.744v-1.536l4.608-7.376h2.432v7.744h1.904v1.168h-1.904v2.288zm-4.464-3.456h4.464v-6.96h-.224l-4.24 6.768z" fill="#fff"/><path d="m745.504 356.836 4.122-12.6h2.052l4.122 12.6h-1.206l-1.08-3.348h-5.724l-1.08 3.348zm2.61-4.392h5.076l-2.43-7.524h-.216zm9.737 4.392v-12.6h1.152v12.6zm11.612.252c-.612 0-1.17-.102-1.674-.306-.492-.216-.882-.528-1.17-.936s-.432-.9-.432-1.476c0-.588.144-1.074.432-1.458s.678-.672 1.17-.864 1.038-.288 1.638-.288h3.204v-.702c0-.708-.204-1.26-.612-1.656s-1.002-.594-1.782-.594c-.768 0-1.38.192-1.836.576-.444.372-.744.876-.9 1.512l-1.044-.306c.144-.516.372-.978.684-1.386.312-.42.726-.75 1.242-.99.516-.252 1.134-.378 1.854-.378 1.104 0 1.956.288 2.556.864.612.576.918 1.38.918 2.412v4.248c0 .36.168.54.504.54h.846v.936h-1.152c-.372 0-.666-.108-.882-.324-.216-.228-.324-.534-.324-.918v-.126h-.18c-.156.264-.36.522-.612.774-.24.252-.558.456-.954.612s-.894.234-1.494.234zm.072-.972c.924 0 1.668-.276 2.232-.828.576-.564.864-1.356.864-2.376v-.216h-3.186c-.624 0-1.146.138-1.566.414-.408.264-.612.678-.612 1.242s.21 1.002.63 1.314c.432.3.978.45 1.638.45zm7.582 4.32v-12.348h1.044v1.602h.216c.252-.48.642-.906 1.17-1.278.54-.384 1.29-.576 2.25-.576.78 0 1.488.186 2.124.558.636.36 1.14.876 1.512 1.548.384.672.576 1.476.576 2.412v.216c0 .924-.186 1.728-.558 2.412-.372.672-.876 1.194-1.512 1.566-.636.36-1.35.54-2.142.54-.636 0-1.182-.084-1.638-.252-.444-.18-.81-.408-1.098-.684-.276-.276-.492-.558-.648-.846h-.216v5.13zm4.428-4.32c.996 0 1.8-.318 2.412-.954.624-.636.936-1.512.936-2.628v-.144c0-1.116-.312-1.992-.936-2.628-.612-.636-1.416-.954-2.412-.954-.984 0-1.788.318-2.412.954s-.936 1.512-.936 2.628v.144c0 1.116.312 1.992.936 2.628s1.428.954 2.412.954zm7.209 4.32v-12.348h1.044v1.602h.216c.252-.48.642-.906 1.17-1.278.54-.384 1.29-.576 2.25-.576.78 0 1.488.186 2.124.558.636.36 1.14.876 1.512 1.548.384.672.576 1.476.576 2.412v.216c0 .924-.186 1.728-.558 2.412-.372.672-.876 1.194-1.512 1.566-.636.36-1.35.54-2.142.54-.636 0-1.182-.084-1.638-.252-.444-.18-.81-.408-1.098-.684-.276-.276-.492-.558-.648-.846h-.216v5.13zm4.428-4.32c.996 0 1.8-.318 2.412-.954.624-.636.936-1.512.936-2.628v-.144c0-1.116-.312-1.992-.936-2.628-.612-.636-1.416-.954-2.412-.954-.984 0-1.788.318-2.412.954s-.936 1.512-.936 2.628v.144c0 1.116.312 1.992.936 2.628s1.428.954 2.412.954zm7.209.72v-12.6h1.08v12.6zm4.254 0v-8.748h1.08v8.748zm.54-10.26c-.264 0-.486-.09-.666-.27s-.27-.402-.27-.666c0-.276.09-.498.27-.666.18-.18.402-.27.666-.27.276 0 .498.09.666.27.18.168.27.39.27.666 0 .264-.09.486-.27.666-.168.18-.39.27-.666.27zm7.709 10.512c-.852 0-1.614-.18-2.286-.54-.66-.372-1.182-.9-1.566-1.584s-.576-1.488-.576-2.412v-.18c0-.936.192-1.74.576-2.412.384-.684.906-1.206 1.566-1.566.672-.372 1.434-.558 2.286-.558.84 0 1.548.162 2.124.486.588.312 1.044.726 1.368 1.242.336.504.546 1.038.63 1.602l-1.062.216c-.06-.468-.21-.894-.45-1.278-.24-.396-.576-.708-1.008-.936-.432-.24-.966-.36-1.602-.36s-1.206.15-1.71.45c-.504.288-.906.702-1.206 1.242-.288.528-.432 1.158-.432 1.89v.144c0 .732.144 1.368.432 1.908.3.528.702.942 1.206 1.242.504.288 1.074.432 1.71.432.96 0 1.692-.246 2.196-.738.504-.504.816-1.116.936-1.836l1.062.216c-.108.564-.336 1.104-.684 1.62-.336.504-.798.918-1.386 1.242-.576.312-1.284.468-2.124.468zm9.532 0c-.612 0-1.17-.102-1.674-.306-.492-.216-.882-.528-1.17-.936s-.432-.9-.432-1.476c0-.588.144-1.074.432-1.458s.678-.672 1.17-.864 1.038-.288 1.638-.288h3.204v-.702c0-.708-.204-1.26-.612-1.656s-1.002-.594-1.782-.594c-.768 0-1.38.192-1.836.576-.444.372-.744.876-.9 1.512l-1.044-.306c.144-.516.372-.978.684-1.386.312-.42.726-.75 1.242-.99.516-.252 1.134-.378 1.854-.378 1.104 0 1.956.288 2.556.864.612.576.918 1.38.918 2.412v4.248c0 .36.168.54.504.54h.846v.936h-1.152c-.372 0-.666-.108-.882-.324-.216-.228-.324-.534-.324-.918v-.126h-.18c-.156.264-.36.522-.612.774-.24.252-.558.456-.954.612s-.894.234-1.494.234zm.072-.972c.924 0 1.668-.276 2.232-.828.576-.564.864-1.356.864-2.376v-.216h-3.186c-.624 0-1.146.138-1.566.414-.408.264-.612.678-.612 1.242s.21 1.002.63 1.314c.432.3.978.45 1.638.45zm10.205.72c-.468 0-.822-.12-1.062-.36-.228-.24-.342-.576-.342-1.008v-6.408h-2.808v-.972h2.808v-3.276h1.08v3.276h3.06v.972h-3.06v6.264c0 .36.18.54.54.54h2.052v.972zm5.147 0v-8.748h1.08v8.748zm.54-10.26c-.264 0-.486-.09-.666-.27s-.27-.402-.27-.666c0-.276.09-.498.27-.666.18-.18.402-.27.666-.27.276 0 .498.09.666.27.18.168.27.39.27.666 0 .264-.09.486-.27.666-.168.18-.39.27-.666.27zm7.71 10.512c-.888 0-1.668-.186-2.34-.558-.66-.384-1.176-.912-1.548-1.584-.36-.684-.54-1.476-.54-2.376v-.216c0-.9.18-1.686.54-2.358.372-.684.888-1.212 1.548-1.584.672-.384 1.452-.576 2.34-.576s1.662.192 2.322.576c.672.372 1.188.9 1.548 1.584.372.672.558 1.458.558 2.358v.216c0 .9-.186 1.692-.558 2.376-.36.672-.876 1.2-1.548 1.584-.66.372-1.434.558-2.322.558zm0-.972c1.032 0 1.848-.324 2.448-.972.6-.66.9-1.53.9-2.61v-.144c0-1.08-.3-1.944-.9-2.592-.6-.66-1.416-.99-2.448-.99-1.02 0-1.836.33-2.448.99-.6.648-.9 1.512-.9 2.592v.144c0 1.08.3 1.95.9 2.61.612.648 1.428.972 2.448.972zm7.166.72v-8.748h1.044v1.62h.216c.216-.468.57-.882 1.062-1.242.492-.372 1.206-.558 2.142-.558.636 0 1.218.132 1.746.396s.948.666 1.26 1.206c.324.528.486 1.194.486 1.998v5.328h-1.08v-5.256c0-.96-.24-1.65-.72-2.07s-1.122-.63-1.926-.63c-.9 0-1.65.3-2.25.9-.6.588-.9 1.482-.9 2.682v4.374zm14.495.252c-1.056 0-1.962-.252-2.718-.756-.744-.504-1.2-1.338-1.368-2.502l1.062-.198c.096.636.288 1.14.576 1.512.3.36.66.618 1.08.774.432.156.888.234 1.368.234.72 0 1.296-.144 1.728-.432.444-.3.666-.708.666-1.224 0-.528-.21-.894-.63-1.098-.408-.204-.954-.366-1.638-.486l-.828-.144c-.552-.096-1.05-.24-1.494-.432-.444-.204-.798-.474-1.062-.81-.252-.336-.378-.756-.378-1.26 0-.756.294-1.35.882-1.782.6-.432 1.392-.648 2.376-.648.996 0 1.794.228 2.394.684.612.444.996 1.092 1.152 1.944l-1.008.216c-.12-.696-.408-1.188-.864-1.476-.444-.288-1.002-.432-1.674-.432-.66 0-1.188.126-1.584.378s-.594.624-.594 1.116c0 .48.18.834.54 1.062.36.216.852.378 1.476.486l.828.144c.6.096 1.14.24 1.62.432.48.18.858.438 1.134.774.288.336.432.78.432 1.332 0 .828-.312 1.47-.936 1.926-.624.444-1.47.666-2.538.666z" fill="#d9d9d9"/><path d="m498 143.503c1.473 0 2.667-1.194 2.667-2.667s-1.194-2.667-2.667-2.667-2.667 1.194-2.667 2.667 1.194 2.667 2.667 2.667zm0-2.167h3.05v-1h-3.05zm9.15 0h6.1v-1h-6.1zm12.2 0h6.1v-1h-6.1zm12.2 0h6.1v-1h-6.1zm12.2 0h6.1v-1h-6.1zm12.2 0h6.1v-1h-6.1zm12.2 0h6.1v-1h-6.1zm12.2 0h6.1v-1h-6.1zm12.2 0h6.1v-1h-6.1zm12.2 0h6.1v-1h-6.1zm12.2 0h6.1v-1h-6.1zm12.2 0h6.1v-1h-6.1zm12.2 0h6.1v-1h-6.1zm12.2 0h6.1v-1h-6.1zm12.2 0h6.1v-1h-6.1zm12.2 0h3.05v-1h-3.05z" fill="#fff"/><path d="m498 213.503c1.473 0 2.667-1.194 2.667-2.667s-1.194-2.667-2.667-2.667-2.667 1.194-2.667 2.667 1.194 2.667 2.667 2.667zm0-2.167h3.05v-1h-3.05zm9.15 0h6.1v-1h-6.1zm12.2 0h6.1v-1h-6.1zm12.2 0h6.1v-1h-6.1zm12.2 0h6.1v-1h-6.1zm12.2 0h6.1v-1h-6.1zm12.2 0h6.1v-1h-6.1zm12.2 0h6.1v-1h-6.1zm12.2 0h6.1v-1h-6.1zm12.2 0h6.1v-1h-6.1zm12.2 0h6.1v-1h-6.1zm12.2 0h6.1v-1h-6.1zm12.2 0h6.1v-1h-6.1zm12.2 0h6.1v-1h-6.1zm12.2 0h6.1v-1h-6.1zm12.2 0h3.05v-1h-3.05z" fill="#fff"/><path d="m141 413.836v-315.0001" stroke="#fff" stroke-dasharray="6 6"/><path d="m498 284.503c1.473 0 2.667-1.194 2.667-2.667s-1.194-2.667-2.667-2.667-2.667 1.194-2.667 2.667 1.194 2.667 2.667 2.667zm0-2.167h3.05v-1h-3.05zm9.15 0h6.1v-1h-6.1zm12.2 0h6.1v-1h-6.1zm12.2 0h6.1v-1h-6.1zm12.2 0h6.1v-1h-6.1zm12.2 0h6.1v-1h-6.1zm12.2 0h6.1v-1h-6.1zm12.2 0h6.1v-1h-6.1zm12.2 0h6.1v-1h-6.1zm12.2 0h6.1v-1h-6.1zm12.2 0h6.1v-1h-6.1zm12.2 0h6.1v-1h-6.1zm12.2 0h6.1v-1h-6.1zm12.2 0h6.1v-1h-6.1zm12.2 0h6.1v-1h-6.1zm12.2 0h3.05v-1h-3.05z" fill="#fff"/><path d="m498 352.503c1.473 0 2.667-1.194 2.667-2.667s-1.194-2.667-2.667-2.667-2.667 1.194-2.667 2.667 1.194 2.667 2.667 2.667zm0-2.167h3.05v-1h-3.05zm9.15 0h6.1v-1h-6.1zm12.2 0h6.1v-1h-6.1zm12.2 0h6.1v-1h-6.1zm12.2 0h6.1v-1h-6.1zm12.2 0h6.1v-1h-6.1zm12.2 0h6.1v-1h-6.1zm12.2 0h6.1v-1h-6.1zm12.2 0h6.1v-1h-6.1zm12.2 0h6.1v-1h-6.1zm12.2 0h6.1v-1h-6.1zm12.2 0h6.1v-1h-6.1zm12.2 0h6.1v-1h-6.1zm12.2 0h6.1v-1h-6.1zm12.2 0h6.1v-1h-6.1zm12.2 0h3.05v-1h-3.05z" fill="#fff"/><path d="m127.5 405.336 13.5 13.5 13.5-13.5" stroke="#fff"/></svg>