<svg width="100" height="99" viewBox="0 0 100 99" fill="none" xmlns="http://www.w3.org/2000/svg">
<g clip-path="url(#clip0_213_1423)">
<g clip-path="url(#clip1_213_1423)">
<path d="M50 0C50.8346 3.52082e-05 51.6409 0.302265 52.2698 0.850797C52.8988 1.39933 53.3078 2.15705 53.4213 2.98384L53.4536 3.45352V8.5187C63.1328 9.33662 72.2104 13.5532 79.0791 20.4218C85.9477 27.2903 90.1643 36.3678 90.9823 46.047H96.0475C96.9225 46.0473 97.7648 46.3797 98.4042 46.977C99.0435 47.5744 99.4323 48.3922 99.492 49.2651C99.5516 50.1381 99.2776 51.0012 98.7255 51.6799C98.1733 52.3587 97.384 52.8025 96.5172 52.9218L96.0475 52.954H90.9823C90.1643 62.6332 85.9477 71.7107 79.0791 78.5793C72.2104 85.4479 63.1328 89.6644 53.4536 90.4824V95.5475C53.4533 96.4225 53.1209 97.2648 52.5235 97.9042C51.9262 98.5435 51.1084 98.9323 50.2354 98.992C49.3624 99.0516 48.4993 98.7776 47.8206 98.2255C47.1418 97.6733 46.6979 96.884 46.5787 96.0172L46.5464 95.5475V90.4824C36.8672 89.6644 27.7896 85.4479 20.9209 78.5793C14.0523 71.7107 9.83566 62.6332 9.01773 52.954H3.95251C3.0775 52.9538 2.23521 52.6214 1.59584 52.024C0.956463 51.4267 0.567678 50.6089 0.508037 49.7359C0.448396 48.863 0.722348 47.9999 1.27454 47.3211C1.82672 46.6424 2.61598 46.1985 3.48282 46.0792L3.95251 46.047H9.01773C9.83566 36.3678 14.0523 27.2903 20.9209 20.4218C27.7896 13.5532 36.8672 9.33662 46.5464 8.5187V3.45352C46.5464 2.53759 46.9103 1.65918 47.558 1.01151C48.2056 0.363852 49.0841 0 50 0ZM53.4582 15.4534L53.4536 20.1962C53.4533 21.0712 53.1209 21.9135 52.5235 22.5529C51.9262 23.1922 51.1084 23.581 50.2354 23.6406C49.3624 23.7003 48.4993 23.4263 47.8206 22.8742C47.1418 22.322 46.6979 21.5327 46.5787 20.6659L46.5464 20.1962V15.4534C38.7048 16.2505 31.3784 19.7292 25.8045 25.3022C20.2306 30.8752 16.7508 38.2009 15.9525 46.0424L20.6954 46.047C21.5704 46.0473 22.4127 46.3797 23.052 46.977C23.6914 47.5744 24.0802 48.3922 24.1398 49.2651C24.1995 50.1381 23.9255 51.0012 23.3733 51.6799C22.8212 52.3587 22.0319 52.8025 21.1651 52.9218L20.6954 52.954H15.9525C16.7498 60.7963 20.2292 68.1232 25.8032 73.6971C31.3772 79.271 38.7041 82.7504 46.5464 83.5477V78.8048C46.5467 77.9298 46.8791 77.0876 47.4765 76.4482C48.0738 75.8088 48.8916 75.42 49.7646 75.3604C50.6376 75.3008 51.5007 75.5747 52.1794 76.1269C52.8582 76.6791 53.3021 77.4683 53.4213 78.3352L53.4536 78.8048L53.4582 83.5477C61.2997 82.7494 68.6255 79.2696 74.1986 73.6957C79.7716 68.1219 83.2504 60.7956 84.0475 52.954H79.3046C78.4296 52.9538 77.5873 52.6214 76.948 52.024C76.3086 51.4267 75.9198 50.6089 75.8602 49.7359C75.8005 48.863 76.0745 47.9999 76.6267 47.3211C77.1788 46.6424 77.9681 46.1985 78.8349 46.0792L79.3046 46.047L84.0475 46.0424C83.2494 38.2016 79.7702 30.8764 74.1972 25.3035C68.6243 19.7306 61.299 16.2515 53.4582 15.4534ZM50 31.0817C52.4188 31.0817 54.8139 31.5581 57.0486 32.4838C59.2833 33.4094 61.3138 34.7661 63.0242 36.4765C64.7346 38.1868 66.0913 40.2173 67.0169 42.452C67.9426 44.6866 68.419 47.0817 68.419 49.5005C68.419 51.9193 67.9426 54.3144 67.0169 56.5491C66.0913 58.7838 64.7346 60.8142 63.0242 62.5246C61.3138 64.2349 59.2833 65.5916 57.0486 66.5173C54.8139 67.4429 52.4188 67.9193 50 67.9193C45.115 67.9193 40.43 65.9788 36.9758 62.5246C33.5216 59.0704 31.581 54.3855 31.581 49.5005C31.581 44.6156 33.5216 39.9307 36.9758 36.4765C40.43 33.0223 45.115 31.0817 50 31.0817Z" fill="white"/>
<ellipse cx="49.5871" cy="45.6627" rx="9.4875" ry="8.82558" fill="#884EEA" fill-opacity="0.8"/>
</g>
</g>
<defs>
<clipPath id="clip0_213_1423">
<rect width="99" height="99" fill="white" transform="translate(0.5)"/>
</clipPath>
<clipPath id="clip1_213_1423">
<rect width="99" height="99" fill="white" transform="translate(0.5)"/>
</clipPath>
</defs>
</svg>
