<svg width="208" height="32" viewBox="0 0 208 32" fill="none" xmlns="http://www.w3.org/2000/svg">
<g clip-path="url(#clip0_203_116)">
<rect x="0.151367" y="0.304199" width="207.565" height="5.3913" rx="2.69565" fill="#1CBD3F"/>
<path d="M28.7425 29.2878H10.1256C8.94132 29.2878 7.97754 28.324 7.97754 27.1397V14.2511C7.97754 13.0668 8.94132 12.103 10.1256 12.103H28.7425C29.9268 12.103 30.8906 13.0668 30.8906 14.2511V27.1397C30.8906 28.324 29.9268 29.2878 28.7425 29.2878ZM10.1256 13.5351C9.93573 13.5351 9.75361 13.6105 9.61933 13.7448C9.48504 13.8791 9.4096 14.0612 9.4096 14.2511V27.1397C9.4096 27.3296 9.48504 27.5117 9.61933 27.646C9.75361 27.7803 9.93573 27.8557 10.1256 27.8557H28.7425C29.1363 27.8557 29.4585 27.5335 29.4585 27.1397V14.2511C29.4585 14.0612 29.3831 13.8791 29.2488 13.7448C29.1145 13.6105 28.9324 13.5351 28.7425 13.5351H10.1256Z" fill="white"/>
<path d="M19.4339 21.709C19.2927 21.709 19.1546 21.6672 19.0372 21.5887L11.8769 16.8156C11.7956 16.7649 11.7254 16.6983 11.6703 16.62C11.6152 16.5416 11.5764 16.453 11.5562 16.3593C11.5359 16.2657 11.5347 16.1689 11.5526 16.0748C11.5704 15.9807 11.607 15.8911 11.6601 15.8114C11.7132 15.7316 11.7817 15.6634 11.8617 15.6106C11.9416 15.5578 12.0314 15.5216 12.1256 15.5042C12.2198 15.4867 12.3165 15.4883 12.4101 15.5089C12.5036 15.5295 12.5921 15.5687 12.6702 15.6241L19.4339 20.1323L26.1975 15.6241C26.3555 15.5255 26.5457 15.4923 26.7278 15.5316C26.9099 15.5709 27.0695 15.6796 27.1727 15.8346C27.276 15.9897 27.3147 16.1789 27.2808 16.362C27.2468 16.5451 27.1428 16.7079 26.9909 16.8156L19.8306 21.5887C19.7135 21.6678 19.5752 21.7097 19.4339 21.709Z" fill="white"/>
<path d="M54.4711 24.7746L56.1111 24.5166C56.2033 25.1738 56.4582 25.6775 56.8758 26.0276C57.2997 26.3778 57.8894 26.5528 58.6449 26.5528C59.4065 26.5528 59.9716 26.3993 60.3402 26.0921C60.7087 25.7789 60.893 25.4134 60.893 24.9957C60.893 24.621 60.7302 24.3262 60.4047 24.1112C60.1774 23.9638 59.6123 23.7764 58.7094 23.5492C57.4932 23.242 56.6486 22.9779 56.1756 22.7568C55.7088 22.5295 55.3525 22.2193 55.1068 21.8262C54.8673 21.427 54.7475 20.9878 54.7475 20.5087C54.7475 20.0725 54.8458 19.6702 55.0423 19.3017C55.245 18.927 55.5184 18.6168 55.8623 18.3711C56.1203 18.1807 56.4704 18.021 56.9127 17.892C57.3611 17.7568 57.8402 17.6893 58.35 17.6893C59.1178 17.6893 59.7904 17.7998 60.3678 18.021C60.9514 18.2421 61.3813 18.5431 61.6577 18.9239C61.9341 19.2986 62.1246 19.8023 62.229 20.435L60.6074 20.6561C60.5337 20.1524 60.3187 19.7593 59.9624 19.4767C59.6123 19.1942 59.1148 19.0529 58.4698 19.0529C57.7081 19.0529 57.1645 19.1788 56.839 19.4307C56.5134 19.6825 56.3507 19.9773 56.3507 20.3152C56.3507 20.5302 56.4182 20.7236 56.5534 20.8956C56.6885 21.0738 56.9004 21.2212 57.1891 21.3379C57.355 21.3993 57.8433 21.5406 58.6541 21.7617C59.8273 22.075 60.6442 22.333 61.1049 22.5357C61.5717 22.7322 61.9372 23.0209 62.2013 23.4017C62.4655 23.7826 62.5975 24.2555 62.5975 24.8207C62.5975 25.3735 62.4348 25.8956 62.1092 26.387C61.7898 26.8722 61.326 27.25 60.7179 27.5203C60.1098 27.7844 59.4219 27.9164 58.6541 27.9164C57.3826 27.9164 56.4121 27.6523 55.7426 27.1241C55.0792 26.5958 54.6554 25.8127 54.4711 24.7746ZM64.5693 27.6953V14.1881H66.2277V19.0345C67.0017 18.1377 67.9783 17.6893 69.1577 17.6893C69.8825 17.6893 70.5121 17.8336 71.0465 18.1223C71.5808 18.4049 71.9617 18.798 72.1889 19.3017C72.4224 19.8054 72.5391 20.5363 72.5391 21.4945V27.6953H70.8806V21.4945C70.8806 20.6653 70.6994 20.0633 70.337 19.6886C69.9807 19.3078 69.474 19.1174 68.8167 19.1174C68.3254 19.1174 67.8616 19.2464 67.4255 19.5044C66.9955 19.7562 66.6884 20.1002 66.5041 20.5363C66.3198 20.9724 66.2277 21.5744 66.2277 22.3422V27.6953H64.5693ZM81.4855 27.6953V26.258C80.7239 27.3636 79.6889 27.9164 78.3805 27.9164C77.8031 27.9164 77.2626 27.8059 76.7589 27.5847C76.2614 27.3636 75.8898 27.0872 75.6441 26.7555C75.4045 26.4177 75.2356 26.0061 75.1373 25.5209C75.0697 25.1953 75.036 24.6794 75.036 23.973V17.9104H76.6944V23.3373C76.6944 24.2033 76.7282 24.7869 76.7958 25.0878C76.9002 25.524 77.1213 25.8679 77.4592 26.1198C77.797 26.3655 78.2147 26.4883 78.7122 26.4883C79.2098 26.4883 79.6766 26.3624 80.1127 26.1106C80.5488 25.8526 80.8559 25.5055 81.0341 25.0694C81.2183 24.6272 81.3105 23.9884 81.3105 23.153V17.9104H82.9689V27.6953H81.4855ZM95.0296 26.1935C94.6303 26.6542 94.1819 27.0258 93.6844 27.3083C93.193 27.5847 92.6985 27.723 92.201 27.723C91.6543 27.723 91.123 27.5633 90.607 27.2438C90.0911 26.9244 89.6703 26.433 89.3448 25.7697C89.0254 25.1063 88.8657 24.3784 88.8657 23.586C88.8657 22.6094 89.1144 21.6327 89.612 20.6561C90.1156 19.6733 90.7391 18.9362 91.4823 18.4448C92.2256 17.9534 92.9473 17.7077 93.6475 17.7077C94.1819 17.7077 94.6918 17.849 95.177 18.1315C95.6623 18.4079 96.08 18.8318 96.4301 19.403L96.7433 17.9749H98.3926L97.0658 24.1573C96.8815 25.0172 96.7894 25.4932 96.7894 25.5854C96.7894 25.7512 96.8508 25.8956 96.9737 26.0184C97.1027 26.1351 97.2562 26.1935 97.4344 26.1935C97.7599 26.1935 98.1868 26.0061 98.7151 25.6315C99.4153 25.1401 99.9681 24.4828 100.374 23.6597C100.785 22.8305 100.991 21.9767 100.991 21.0983C100.991 20.0725 100.727 19.1143 100.198 18.2237C99.6763 17.333 98.8932 16.6205 97.849 16.0861C96.8109 15.5517 95.6623 15.2845 94.4031 15.2845C92.9657 15.2845 91.6513 15.6224 90.4596 16.298C89.2741 16.9675 88.3528 17.9319 87.6955 19.1911C87.0444 20.4442 86.7189 21.7894 86.7189 23.2267C86.7189 24.7316 87.0444 26.0276 87.6955 27.1149C88.3528 28.2021 89.2987 29.0037 90.5333 29.5196C91.7741 30.0417 93.1469 30.3028 94.6518 30.3028C96.2612 30.3028 97.6094 30.0325 98.6966 29.492C99.7838 28.9514 100.598 28.2942 101.138 27.5203H102.806C102.493 28.1652 101.955 28.8224 101.194 29.492C100.432 30.1615 99.5259 30.6898 98.4755 31.0767C97.4251 31.4698 96.1598 31.6664 94.6795 31.6664C93.3159 31.6664 92.0567 31.4913 90.9019 31.1412C89.7532 30.7911 88.7735 30.2629 87.9627 29.5565C87.1519 28.8562 86.5407 28.0485 86.1292 27.1333C85.6132 25.9724 85.3553 24.7193 85.3553 23.3741C85.3553 21.8754 85.6624 20.4472 86.2766 19.0898C87.026 17.4252 88.0886 16.1506 89.4645 15.2661C90.8466 14.3816 92.5204 13.9393 94.486 13.9393C96.0093 13.9393 97.376 14.2526 98.5861 14.8791C99.8023 15.4995 100.76 16.427 101.461 17.6616C102.057 18.7243 102.354 19.8791 102.354 21.126C102.354 22.9073 101.728 24.489 100.475 25.871C99.3569 27.1118 98.1346 27.7322 96.8078 27.7322C96.384 27.7322 96.04 27.6677 95.7759 27.5387C95.5179 27.4097 95.3275 27.2254 95.2047 26.9859C95.1248 26.8323 95.0665 26.5682 95.0296 26.1935ZM90.5702 23.6966C90.5702 24.5381 90.7698 25.1923 91.1691 25.6591C91.5683 26.1259 92.0259 26.3593 92.5419 26.3593C92.8859 26.3593 93.2483 26.258 93.6291 26.0553C94.01 25.8464 94.3724 25.5393 94.7163 25.1339C95.0665 24.7285 95.3521 24.2156 95.5732 23.5952C95.7943 22.9687 95.9049 22.3422 95.9049 21.7157C95.9049 20.8803 95.6961 20.2323 95.2784 19.7716C94.8668 19.3109 94.3631 19.0805 93.7673 19.0805C93.3742 19.0805 93.0026 19.1819 92.6525 19.3846C92.3085 19.5812 91.9737 19.9006 91.6482 20.3428C91.3226 20.7851 91.0616 21.3225 90.865 21.9552C90.6685 22.5879 90.5702 23.1683 90.5702 23.6966ZM104.741 27.6953V17.9104H106.224V19.2832C106.531 18.8041 106.94 18.4202 107.45 18.1315C107.959 17.8367 108.54 17.6893 109.191 17.6893C109.916 17.6893 110.509 17.8398 110.969 18.1408C111.436 18.4417 111.765 18.8625 111.955 19.403C112.729 18.2605 113.736 17.6893 114.977 17.6893C115.948 17.6893 116.694 17.9596 117.216 18.5001C117.738 19.0345 117.999 19.8606 117.999 20.9786V27.6953H116.35V21.5314C116.35 20.868 116.295 20.392 116.184 20.1033C116.08 19.8084 115.886 19.5719 115.604 19.3938C115.321 19.2157 114.989 19.1266 114.609 19.1266C113.921 19.1266 113.349 19.357 112.895 19.8176C112.44 20.2722 112.213 21.0031 112.213 22.0105V27.6953H110.555V21.3379C110.555 20.6008 110.419 20.048 110.149 19.6794C109.879 19.3109 109.437 19.1266 108.822 19.1266C108.356 19.1266 107.923 19.2495 107.523 19.4952C107.13 19.7409 106.845 20.1002 106.666 20.5732C106.488 21.0461 106.399 21.7279 106.399 22.6186V27.6953H104.741ZM120.468 16.0953V14.1881H122.127V16.0953H120.468ZM120.468 27.6953V17.9104H122.127V27.6953H120.468ZM123.785 27.6953V26.3501L130.014 19.2003C129.307 19.2372 128.684 19.2556 128.143 19.2556H124.154V17.9104H132.151V19.0068L126.854 25.2168L125.831 26.3501C126.574 26.2948 127.271 26.2672 127.922 26.2672H132.446V27.6953H123.785ZM140.508 27.6953V26.258C139.747 27.3636 138.712 27.9164 137.403 27.9164C136.826 27.9164 136.285 27.8059 135.782 27.5847C135.284 27.3636 134.912 27.0872 134.667 26.7555C134.427 26.4177 134.258 26.0061 134.16 25.5209C134.092 25.1953 134.059 24.6794 134.059 23.973V17.9104H135.717V23.3373C135.717 24.2033 135.751 24.7869 135.818 25.0878C135.923 25.524 136.144 25.8679 136.482 26.1198C136.82 26.3655 137.237 26.4883 137.735 26.4883C138.232 26.4883 138.699 26.3624 139.135 26.1106C139.571 25.8526 139.879 25.5055 140.057 25.0694C140.241 24.6272 140.333 23.9884 140.333 23.153V17.9104H141.992V27.6953H140.508ZM145.069 27.6953V25.8065H146.958V27.6953H145.069ZM149.547 28.5061L151.159 28.7457C151.227 29.2432 151.414 29.6056 151.721 29.8329C152.133 30.14 152.695 30.2936 153.407 30.2936C154.175 30.2936 154.768 30.14 155.186 29.8329C155.603 29.5258 155.886 29.0958 156.033 28.543C156.119 28.2051 156.159 27.4957 156.153 26.4146C155.428 27.2684 154.525 27.6953 153.444 27.6953C152.099 27.6953 151.058 27.2101 150.321 26.2396C149.584 25.269 149.215 24.1051 149.215 22.7476C149.215 21.8139 149.384 20.954 149.722 20.1678C150.06 19.3754 150.548 18.7642 151.187 18.3342C151.832 17.9043 152.587 17.6893 153.453 17.6893C154.608 17.6893 155.56 18.1561 156.31 19.0898V17.9104H157.839V26.3685C157.839 27.8919 157.682 28.9699 157.369 29.6025C157.062 30.2414 156.571 30.745 155.895 31.1136C155.225 31.4821 154.399 31.6664 153.417 31.6664C152.249 31.6664 151.307 31.4023 150.588 30.874C149.869 30.3519 149.522 29.5626 149.547 28.5061ZM150.92 22.6278C150.92 23.9116 151.175 24.8483 151.684 25.438C152.194 26.0276 152.833 26.3225 153.601 26.3225C154.362 26.3225 155.001 26.0307 155.517 25.4472C156.033 24.8575 156.291 23.9361 156.291 22.6831C156.291 21.4853 156.024 20.5824 155.49 19.9743C154.961 19.3662 154.323 19.0621 153.573 19.0621C152.836 19.0621 152.21 19.3631 151.694 19.9651C151.178 20.5609 150.92 21.4485 150.92 22.6278ZM160.318 27.6953V14.1881H161.976V27.6953H160.318ZM163.939 22.8029C163.939 20.9908 164.442 19.6487 165.45 18.7765C166.291 18.0517 167.317 17.6893 168.527 17.6893C169.872 17.6893 170.972 18.1315 171.825 19.016C172.679 19.8944 173.106 21.1106 173.106 22.6647C173.106 23.9239 172.916 24.9159 172.535 25.6407C172.16 26.3593 171.61 26.9183 170.886 27.3176C170.167 27.7168 169.381 27.9164 168.527 27.9164C167.157 27.9164 166.048 27.4773 165.201 26.5989C164.359 25.7205 163.939 24.4552 163.939 22.8029ZM165.643 22.8029C165.643 24.0559 165.916 24.9957 166.463 25.6222C167.01 26.2426 167.698 26.5528 168.527 26.5528C169.35 26.5528 170.035 26.2396 170.582 25.613C171.128 24.9865 171.402 24.0313 171.402 22.7476C171.402 21.5375 171.125 20.6223 170.572 20.0019C170.026 19.3754 169.344 19.0621 168.527 19.0621C167.698 19.0621 167.01 19.3723 166.463 19.9927C165.916 20.6131 165.643 21.5498 165.643 22.8029ZM176.589 27.6953H175.05V14.1881H176.709V19.0068C177.409 18.1285 178.303 17.6893 179.39 17.6893C179.992 17.6893 180.56 17.8121 181.094 18.0578C181.635 18.2974 182.077 18.6383 182.421 19.0805C182.771 19.5167 183.045 20.0449 183.241 20.6653C183.438 21.2857 183.536 21.9491 183.536 22.6554C183.536 24.3323 183.121 25.6284 182.292 26.5436C181.463 27.4588 180.468 27.9164 179.307 27.9164C178.152 27.9164 177.246 27.4343 176.589 26.4699V27.6953ZM176.57 22.7292C176.57 23.9024 176.73 24.75 177.05 25.2721C177.572 26.1259 178.278 26.5528 179.169 26.5528C179.894 26.5528 180.52 26.2396 181.048 25.613C181.577 24.9804 181.841 24.0406 181.841 22.7936C181.841 21.516 181.586 20.5732 181.076 19.9651C180.572 19.357 179.961 19.0529 179.242 19.0529C178.518 19.0529 177.891 19.3692 177.363 20.0019C176.835 20.6284 176.57 21.5375 176.57 22.7292ZM191.948 26.4883C191.334 27.0104 190.741 27.379 190.17 27.594C189.605 27.8089 188.997 27.9164 188.345 27.9164C187.271 27.9164 186.444 27.6554 185.867 27.1333C185.29 26.605 185.001 25.9324 185.001 25.1155C185.001 24.6364 185.108 24.2003 185.323 23.8071C185.545 23.4079 185.83 23.0885 186.18 22.8489C186.537 22.6094 186.936 22.4282 187.378 22.3053C187.704 22.2193 188.195 22.1364 188.852 22.0566C190.191 21.8969 191.177 21.7064 191.81 21.4853C191.816 21.258 191.819 21.1137 191.819 21.0523C191.819 20.3766 191.662 19.9006 191.349 19.6242C190.925 19.2495 190.296 19.0621 189.46 19.0621C188.68 19.0621 188.103 19.2003 187.728 19.4767C187.36 19.747 187.086 20.2292 186.908 20.9233L185.287 20.7021C185.434 20.0081 185.677 19.4491 186.014 19.0253C186.352 18.5953 186.841 18.2667 187.479 18.0394C188.118 17.806 188.858 17.6893 189.7 17.6893C190.535 17.6893 191.214 17.7876 191.736 17.9841C192.258 18.1807 192.642 18.4294 192.888 18.7304C193.134 19.0253 193.306 19.4 193.404 19.8545C193.459 20.137 193.487 20.6469 193.487 21.384V23.5952C193.487 25.137 193.52 26.1136 193.588 26.5252C193.662 26.9306 193.803 27.3206 194.012 27.6953H192.28C192.108 27.3513 191.997 26.949 191.948 26.4883ZM191.81 22.7844C191.208 23.0301 190.305 23.239 189.101 23.411C188.419 23.5092 187.937 23.6198 187.654 23.7427C187.372 23.8655 187.154 24.0467 187 24.2863C186.847 24.5197 186.77 24.7807 186.77 25.0694C186.77 25.5117 186.936 25.8802 187.267 26.1751C187.605 26.4699 188.097 26.6173 188.742 26.6173C189.38 26.6173 189.949 26.4791 190.446 26.2027C190.944 25.9201 191.309 25.5362 191.543 25.051C191.721 24.6763 191.81 24.1235 191.81 23.3925V22.7844ZM196.03 27.6953V14.1881H197.688V27.6953H196.03Z" fill="white"/>
</g>
<defs>
<clipPath id="clip0_203_116">
<rect width="207.565" height="31.3913" fill="white" transform="translate(0.151367 0.304199)"/>
</clipPath>
</defs>
</svg>
