<svg width="902" height="288" viewBox="0 0 902 288" fill="none" xmlns="http://www.w3.org/2000/svg">
<g clip-path="url(#clip0_207_1330)">
<path d="M266.737 63.1666C266.987 63.4166 267.325 63.5416 267.75 63.5416H271.312C271.737 63.5416 272.05 63.4291 272.25 63.2041C272.443 63.0256 272.596 62.8084 272.7 62.5666L276.491 51.8416L280.275 62.5666C280.378 62.8084 280.532 63.0256 280.725 63.2041C280.95 63.4291 281.275 63.5375 281.7 63.5375H285.262C285.687 63.5375 286.025 63.4125 286.275 63.1625C286.514 62.9327 286.672 62.6315 286.725 62.3041L290.812 38.3416V38.1916C290.834 38.1574 290.848 38.1191 290.854 38.0791C290.852 37.9772 290.827 37.877 290.781 37.786C290.735 37.6951 290.668 37.6158 290.587 37.5541C290.519 37.4706 290.434 37.4035 290.336 37.358C290.239 37.3125 290.132 37.2898 290.025 37.2916H285.375C284.675 37.2916 284.291 37.5666 284.212 38.1166L281.775 52.7416L279.075 44.1166C279.009 43.8835 278.895 43.6665 278.741 43.4791C278.562 43.2291 278.262 43.1041 277.837 43.1041H275.137C274.737 43.1041 274.45 43.2291 274.275 43.4791C274.118 43.6717 273.992 43.8866 273.9 44.1166L271.2 52.7416L268.762 38.1166C268.687 37.5666 268.304 37.2916 267.6 37.2916H262.95C262.843 37.2952 262.738 37.3204 262.642 37.3655C262.545 37.4106 262.458 37.4748 262.387 37.5541C262.316 37.6217 262.259 37.7031 262.22 37.7934C262.182 37.8837 262.162 37.9809 262.162 38.0791V38.1916C262.162 38.2166 262.175 38.2666 262.204 38.3416L266.287 62.3C266.338 62.6303 266.496 62.9347 266.737 63.1666ZM299.291 63.2416C300.909 63.7223 302.591 63.95 304.279 63.9166C306.404 63.9166 308.291 63.5791 309.941 62.9041C311.591 62.2291 312.891 61.2791 313.841 60.0541C314.816 58.8041 315.3 57.3291 315.3 55.6291C315.3 54.0041 314.979 52.6666 314.329 51.6166C313.693 50.5552 312.768 49.6968 311.662 49.1416C310.467 48.5384 309.172 48.1572 307.841 48.0166L307.579 47.9416L313.279 42.65C313.469 42.5056 313.623 42.3182 313.727 42.1031C313.831 41.8881 313.883 41.6514 313.879 41.4125V38.2291C313.882 38.1014 313.857 37.9744 313.806 37.8575C313.754 37.7407 313.676 37.637 313.579 37.5541C313.49 37.4668 313.384 37.3985 313.268 37.3534C313.152 37.3083 313.028 37.2873 312.904 37.2916H295.654C295.404 37.2917 295.163 37.3854 294.979 37.5541C294.891 37.6429 294.823 37.7486 294.778 37.8646C294.733 37.9807 294.712 38.1047 294.716 38.2291V41.7541C294.716 42.0291 294.8 42.2541 294.979 42.4291C295.163 42.5979 295.404 42.6916 295.654 42.6916H306.079L299.929 47.9C299.738 48.0524 299.584 48.2466 299.48 48.4677C299.376 48.6887 299.325 48.9307 299.329 49.175V51.2791C299.329 51.5541 299.412 51.7791 299.591 51.9541C299.68 52.0415 299.786 52.1098 299.902 52.1549C300.018 52.2 300.142 52.221 300.266 52.2166H304.429C305.679 52.2166 306.637 52.4541 307.316 52.925C307.991 53.3791 308.329 54.1416 308.329 55.2166C308.348 55.6793 308.26 56.1401 308.071 56.563C307.882 56.9859 307.598 57.3593 307.241 57.6541C306.541 58.2291 305.554 58.5166 304.279 58.5166C303.629 58.5166 303.029 58.4666 302.479 58.3666C301.964 58.2575 301.478 58.0402 301.054 57.7291C300.672 57.4197 300.375 57.0183 300.191 56.5625C300.075 56.3505 299.908 56.1713 299.704 56.0416C299.504 55.9094 299.268 55.8438 299.029 55.8541H294.112C293.893 55.8536 293.681 55.9337 293.516 56.0791C293.442 56.1526 293.384 56.2403 293.346 56.3371C293.307 56.4338 293.288 56.5375 293.291 56.6416C293.316 57.4166 293.541 58.225 293.966 59.0791C294.391 59.9041 295.041 60.6916 295.916 61.4416C296.791 62.1666 297.916 62.7666 299.291 63.2416Z" fill="white" fill-opacity="0.9"/>
<path d="M244.709 32.2167C244.709 30.0225 245.286 27.867 246.383 25.9669C247.48 24.0667 249.058 22.4887 250.959 21.3917L281.754 3.60834C283.655 2.51123 285.81 1.93365 288.004 1.93365C290.199 1.93365 292.354 2.51123 294.254 3.60834L325.054 21.3917C326.955 22.4887 328.533 24.0667 329.63 25.9669C330.727 27.867 331.304 30.0225 331.304 32.2167V67.7833C331.304 69.9775 330.727 72.133 329.63 74.0332C328.533 75.9333 326.955 77.5113 325.054 78.6083L294.254 96.3917C292.354 97.4888 290.199 98.0664 288.004 98.0664C285.81 98.0664 283.655 97.4888 281.754 96.3917L250.95 78.6083C249.05 77.5113 247.472 75.9333 246.375 74.0332C245.278 72.133 244.7 69.9775 244.7 67.7833V32.2167H244.709ZM290.092 10.825C289.458 10.4593 288.74 10.2668 288.009 10.2668C287.277 10.2668 286.559 10.4593 285.925 10.825L255.121 28.6083C254.488 28.974 253.962 29.5 253.596 30.1334C253.23 30.7668 253.038 31.4853 253.038 32.2167V67.7833C253.038 68.5147 253.23 69.2332 253.596 69.8666C253.962 70.5 254.488 71.026 255.121 71.3917L285.925 89.175C286.559 89.5407 287.277 89.7332 288.009 89.7332C288.74 89.7332 289.458 89.5407 290.092 89.175L320.892 71.3917C321.525 71.026 322.051 70.5 322.417 69.8666C322.783 69.2332 322.975 68.5147 322.975 67.7833V32.2167C322.975 31.4853 322.783 30.7668 322.417 30.1334C322.051 29.5 321.525 28.974 320.892 28.6083L290.092 10.825Z" fill="white" fill-opacity="0.9"/>
<path d="M580.438 36.5469L584.938 36.1094C585.208 37.6198 585.755 38.7292 586.578 39.4375C587.411 40.1458 588.531 40.5 589.938 40.5C591.427 40.5 592.547 40.1875 593.297 39.5625C594.057 38.9271 594.438 38.1875 594.438 37.3438C594.438 36.8021 594.276 36.3438 593.953 35.9688C593.641 35.5833 593.089 35.25 592.297 34.9688C591.755 34.7812 590.521 34.4479 588.594 33.9688C586.115 33.3542 584.375 32.599 583.375 31.7031C581.969 30.4427 581.266 28.9062 581.266 27.0938C581.266 25.9271 581.594 24.8385 582.25 23.8281C582.917 22.8073 583.87 22.0312 585.109 21.5C586.359 20.9688 587.865 20.7031 589.625 20.7031C592.5 20.7031 594.661 21.3333 596.109 22.5938C597.568 23.8542 598.333 25.5365 598.406 27.6406L593.781 27.8438C593.583 26.6667 593.156 25.8229 592.5 25.3125C591.854 24.7917 590.88 24.5312 589.578 24.5312C588.234 24.5312 587.182 24.8073 586.422 25.3594C585.932 25.7135 585.688 26.1875 585.688 26.7812C585.688 27.3229 585.917 27.7865 586.375 28.1719C586.958 28.6615 588.375 29.1719 590.625 29.7031C592.875 30.2344 594.536 30.7865 595.609 31.3594C596.693 31.9219 597.536 32.6979 598.141 33.6875C598.755 34.6667 599.062 35.8802 599.062 37.3281C599.062 38.6406 598.698 39.8698 597.969 41.0156C597.24 42.1615 596.208 43.0156 594.875 43.5781C593.542 44.1302 591.88 44.4062 589.891 44.4062C586.995 44.4062 584.771 43.7396 583.219 42.4062C581.667 41.0625 580.74 39.1094 580.438 36.5469ZM608.969 44V34.3594L600.578 21.0938H606L611.391 30.1562L616.672 21.0938H622L613.578 34.3906V44H608.969ZM624.344 44V21.0938H628.844L638.219 36.3906V21.0938H642.516V44H637.875L628.641 29.0625V44H624.344ZM652.578 44V24.9688H645.781V21.0938H663.984V24.9688H657.203V44H652.578ZM667 44V21.0938H671.625V30.1094H680.688V21.0938H685.312V44H680.688V33.9844H671.625V44H667ZM690.109 44V21.0938H707.094V24.9688H694.734V30.0469H706.234V33.9062H694.734V40.1406H707.531V44H690.109ZM716.609 44V24.9688H709.812V21.0938H728.016V24.9688H721.234V44H716.609ZM730.875 44V21.0938H735.5V44H730.875ZM754.578 35.5781L759.062 37C758.375 39.5 757.229 41.3594 755.625 42.5781C754.031 43.7865 752.005 44.3906 749.547 44.3906C746.505 44.3906 744.005 43.3542 742.047 41.2812C740.089 39.1979 739.109 36.3542 739.109 32.75C739.109 28.9375 740.094 25.9792 742.062 23.875C744.031 21.7604 746.62 20.7031 749.828 20.7031C752.63 20.7031 754.906 21.5312 756.656 23.1875C757.698 24.1667 758.479 25.5729 759 27.4062L754.422 28.5C754.151 27.3125 753.583 26.375 752.719 25.6875C751.865 25 750.823 24.6562 749.594 24.6562C747.896 24.6562 746.516 25.2656 745.453 26.4844C744.401 27.7031 743.875 29.6771 743.875 32.4062C743.875 35.3021 744.396 37.3646 745.438 38.5938C746.479 39.8229 747.833 40.4375 749.5 40.4375C750.729 40.4375 751.786 40.0469 752.672 39.2656C753.557 38.4844 754.193 37.2552 754.578 35.5781ZM634.672 58.0938H643.125C645.031 58.0938 646.484 58.2396 647.484 58.5312C648.828 58.9271 649.979 59.6302 650.938 60.6406C651.896 61.651 652.625 62.8906 653.125 64.3594C653.625 65.8177 653.875 67.6198 653.875 69.7656C653.875 71.651 653.641 73.276 653.172 74.6406C652.599 76.3073 651.781 77.6562 650.719 78.6875C649.917 79.4688 648.833 80.0781 647.469 80.5156C646.448 80.8385 645.083 81 643.375 81H634.672V58.0938ZM639.297 61.9688V77.1406H642.75C644.042 77.1406 644.974 77.0677 645.547 76.9219C646.297 76.7344 646.917 76.4167 647.406 75.9688C647.906 75.5208 648.312 74.7865 648.625 73.7656C648.938 72.7344 649.094 71.3333 649.094 69.5625C649.094 67.7917 648.938 66.4323 648.625 65.4844C648.312 64.5365 647.875 63.7969 647.312 63.2656C646.75 62.7344 646.036 62.375 645.172 62.1875C644.526 62.0417 643.26 61.9688 641.375 61.9688H639.297ZM678.469 81H673.438L671.438 75.7969H662.281L660.391 81H655.484L664.406 58.0938H669.297L678.469 81ZM669.953 71.9375L666.797 63.4375L663.703 71.9375H669.953ZM683.719 81V61.9688H676.922V58.0938H695.125V61.9688H688.344V81H683.719ZM716.406 81H711.375L709.375 75.7969H700.219L698.328 81H693.422L702.344 58.0938H707.234L716.406 81ZM707.891 71.9375L704.734 63.4375L701.641 71.9375H707.891Z" fill="white"/>
<path d="M597.5 100V258.583H352.417V100H597.5ZM366.833 114.417V244.167H583.083V114.417H366.833ZM611.917 273V287.417H338V273H611.917Z" fill="white"/>
<path d="M433.685 194V168.946H441.256L445.802 186.036L450.296 168.946H457.884V194H453.185V174.278L448.211 194H443.341L438.385 174.278V194H433.685ZM462.755 194V168.946H467.813V194H462.755ZM470.479 194V189.437L483.639 173.185H471.966V168.946H490.304V172.877L476.581 189.779H490.833V194H470.479ZM494.012 168.946H499.071V182.516C499.071 184.669 499.133 186.065 499.259 186.703C499.475 187.728 499.988 188.554 500.797 189.181C501.617 189.796 502.734 190.104 504.146 190.104C505.582 190.104 506.664 189.813 507.394 189.232C508.123 188.639 508.561 187.916 508.709 187.062C508.858 186.207 508.932 184.789 508.932 182.806V168.946H513.99V182.105C513.99 185.113 513.854 187.238 513.58 188.48C513.307 189.722 512.8 190.77 512.059 191.625C511.33 192.479 510.35 193.163 509.12 193.675C507.889 194.177 506.283 194.427 504.3 194.427C501.908 194.427 500.09 194.154 498.849 193.607C497.618 193.049 496.644 192.331 495.926 191.454C495.208 190.565 494.736 189.636 494.508 188.668C494.177 187.232 494.012 185.113 494.012 182.311V168.946Z" fill="white"/>
<path d="M446.129 135V124.979H452.999V126.674H448.152V129.046H452.336V130.741H448.152V135H446.129ZM454.66 124.979H456.684V130.406C456.684 131.268 456.709 131.826 456.759 132.081C456.845 132.491 457.05 132.822 457.374 133.072C457.702 133.318 458.149 133.441 458.714 133.441C459.288 133.441 459.721 133.325 460.013 133.093C460.304 132.856 460.48 132.566 460.539 132.225C460.598 131.883 460.628 131.315 460.628 130.522V124.979H462.651V130.242C462.651 131.445 462.597 132.295 462.487 132.792C462.378 133.289 462.175 133.708 461.879 134.05C461.587 134.392 461.195 134.665 460.703 134.87C460.211 135.071 459.568 135.171 458.775 135.171C457.818 135.171 457.091 135.062 456.595 134.843C456.103 134.619 455.713 134.332 455.426 133.981C455.139 133.626 454.95 133.255 454.858 132.867C454.726 132.293 454.66 131.445 454.66 130.324V124.979ZM467.047 135V126.674H464.073V124.979H472.037V126.674H469.07V135H467.047ZM473.336 124.979H475.359V130.406C475.359 131.268 475.384 131.826 475.435 132.081C475.521 132.491 475.726 132.822 476.05 133.072C476.378 133.318 476.825 133.441 477.39 133.441C477.964 133.441 478.397 133.325 478.688 133.093C478.98 132.856 479.156 132.566 479.215 132.225C479.274 131.883 479.304 131.315 479.304 130.522V124.979H481.327V130.242C481.327 131.445 481.272 132.295 481.163 132.792C481.054 133.289 480.851 133.708 480.555 134.05C480.263 134.392 479.871 134.665 479.379 134.87C478.887 135.071 478.244 135.171 477.451 135.171C476.494 135.171 475.767 135.062 475.271 134.843C474.778 134.619 474.389 134.332 474.102 133.981C473.814 133.626 473.625 133.255 473.534 132.867C473.402 132.293 473.336 131.445 473.336 130.324V124.979ZM483.474 135V124.979H487.732C488.803 124.979 489.58 125.07 490.063 125.252C490.551 125.43 490.941 125.749 491.232 126.209C491.524 126.669 491.67 127.196 491.67 127.788C491.67 128.54 491.449 129.162 491.007 129.654C490.565 130.142 489.904 130.45 489.024 130.577C489.462 130.832 489.822 131.113 490.104 131.418C490.392 131.723 490.777 132.266 491.26 133.045L492.483 135H490.063L488.601 132.819C488.081 132.04 487.726 131.55 487.534 131.35C487.343 131.145 487.14 131.006 486.926 130.933C486.712 130.855 486.372 130.816 485.907 130.816H485.497V135H483.474ZM485.497 129.217H486.994C487.965 129.217 488.571 129.176 488.812 129.094C489.054 129.012 489.243 128.87 489.38 128.67C489.517 128.469 489.585 128.219 489.585 127.918C489.585 127.581 489.494 127.31 489.312 127.104C489.134 126.895 488.881 126.763 488.553 126.708C488.389 126.685 487.896 126.674 487.076 126.674H485.497V129.217ZM493.584 135V124.979H501.015V126.674H495.607V128.896H500.639V130.584H495.607V133.312H501.206V135H493.584Z" fill="white"/>
<path d="M64.4998 154.746L44.6536 136.885H9.92285V148.792H39.6921L59.5382 166.654H119.077V154.746H64.4998Z" fill="#E5E5E5"/>
<path d="M34.7305 156.731H9.92285V231.154H119.077V174.592H54.5767L34.7305 156.731ZM107.169 219.246H21.8305V168.638H29.769L49.6152 186.5H107.169V219.246Z" fill="#E5E5E5"/>
<path d="M46.5892 191.858L35.9219 203.171L46.5892 214.483L51.65 209.72L45.448 203.171L51.65 196.621L46.5892 191.858ZM83.0069 214.483L93.7734 203.171L83.0069 191.858L77.9461 196.621L84.148 203.171L77.9461 209.72L83.0069 214.483ZM53.96 209.965L70.3411 191.535L75.5323 196.149L59.1518 214.579L53.96 209.965Z" fill="#E5E5E5"/>
<path d="M170.021 129.842C169.609 129.842 169.2 129.648 168.886 129.262L162.469 121.332C161.844 120.558 161.844 119.302 162.469 118.528C163.096 117.754 164.112 117.754 164.738 118.528L170.021 125.056L180.115 112.582C180.741 111.806 181.756 111.806 182.384 112.582C183.009 113.356 183.009 114.61 182.384 115.384L171.155 129.262C170.841 129.648 170.43 129.842 170.021 129.842Z" fill="white"/>
<g clip-path="url(#clip1_207_1330)">
<path d="M837.723 111.594L847.492 94.1585C847.711 93.7719 848.066 93.4808 848.488 93.3423C848.91 93.2038 849.369 93.2278 849.774 93.4098L859.116 97.724L869.028 83.4621C869.273 83.1149 869.634 82.8666 870.046 82.762C870.457 82.6574 870.893 82.7034 871.274 82.8916L880.509 87.5267L893.915 66.526C894.088 66.2685 894.339 66.0729 894.631 65.9675C894.923 65.8621 895.241 65.8523 895.539 65.9397C895.837 66.0271 896.099 66.207 896.288 66.4535C896.477 66.6999 896.582 67.0001 896.589 67.3104V110.631C896.58 111.479 896.239 112.29 895.639 112.89C895.039 113.49 894.228 113.831 893.38 113.84H839.327C839.056 113.845 838.787 113.783 838.544 113.661C838.302 113.539 838.093 113.36 837.935 113.139C837.777 112.917 837.675 112.661 837.638 112.392C837.601 112.123 837.63 111.849 837.723 111.594ZM898.907 124.893H830.021C829.239 124.893 828.488 124.588 827.928 124.041C827.369 123.495 827.045 122.751 827.026 121.969V53.0128C827.026 52.2138 827.344 51.4475 827.909 50.8824C828.474 50.3174 829.24 50 830.039 50C830.838 50 831.605 50.3174 832.17 50.8824C832.735 51.4475 833.052 52.2138 833.052 53.0128V118.974H898.907C899.706 118.974 900.472 119.292 901.037 119.857C901.602 120.422 901.919 121.188 901.919 121.987C901.919 122.786 901.602 123.553 901.037 124.118C900.472 124.683 899.706 125 898.907 125V124.893Z" fill="white"/>
</g>
<g clip-path="url(#clip2_207_1330)">
<path d="M756.118 213.642C757.099 215.357 758.334 216.913 759.782 218.258C761.541 219.979 763.482 221.503 765.571 222.802C768.41 224.645 771.431 226.192 774.585 227.419C783.046 230.462 791.975 231.999 800.967 231.962C809.959 231.999 818.888 230.462 827.349 227.419C830.504 226.192 833.524 224.645 836.363 222.802C838.452 221.503 840.394 219.979 842.152 218.258C843.6 216.913 844.835 215.357 845.816 213.642C846.781 212.27 847.478 210.729 847.868 209.098C848.358 207.608 848.605 206.049 848.601 204.481C848.601 189.238 827.276 177 800.967 177C774.658 177 753.333 189.238 753.333 204.481C753.329 206.049 753.576 207.608 754.066 209.098C754.457 210.729 755.153 212.27 756.118 213.642Z" fill="white"/>
<path d="M845.816 222.802C844.835 224.517 843.6 226.074 842.152 227.419C840.394 229.14 838.452 230.663 836.363 231.962C833.524 233.806 830.504 235.353 827.349 236.579C818.888 239.622 809.959 241.16 800.967 241.123C791.975 241.16 783.047 239.622 774.585 236.579C771.431 235.353 768.41 233.806 765.571 231.962C763.482 230.663 761.541 229.14 759.782 227.419C758.334 226.074 757.099 224.517 756.118 222.802C755.153 221.431 754.457 219.889 754.066 218.258C753.562 219.719 753.314 221.257 753.333 222.802C753.329 224.37 753.576 225.929 754.066 227.419C754.457 229.049 755.153 230.591 756.118 231.962C757.099 233.677 758.334 235.234 759.782 236.579C761.541 238.3 763.482 239.824 765.571 241.123C768.41 242.966 771.431 244.513 774.585 245.74C783.047 248.782 791.975 250.32 800.967 250.283C809.959 250.32 818.888 248.782 827.349 245.74C830.504 244.513 833.524 242.966 836.363 241.123C838.452 239.824 840.394 238.3 842.152 236.579C843.6 235.234 844.835 233.677 845.816 231.962C846.781 230.591 847.478 229.049 847.868 227.419C848.358 225.929 848.605 224.37 848.601 222.802C848.62 221.257 848.373 219.719 847.868 218.258C847.478 219.889 846.781 221.431 845.816 222.802Z" fill="white"/>
<path d="M845.816 241.123C844.835 242.838 843.6 244.394 842.152 245.739C840.394 247.46 838.452 248.984 836.363 250.283C833.524 252.126 830.504 253.673 827.349 254.9C818.888 257.943 809.959 259.481 800.967 259.443C791.975 259.481 783.047 257.943 774.585 254.9C771.431 253.673 768.41 252.126 765.571 250.283C763.482 248.984 761.541 247.46 759.782 245.739C758.334 244.394 757.099 242.838 756.118 241.123C755.153 239.751 754.457 238.21 754.066 236.579C753.562 238.04 753.314 239.577 753.333 241.123C753.329 242.691 753.576 244.25 754.066 245.739C754.457 247.37 755.153 248.912 756.118 250.283C757.099 251.998 758.334 253.555 759.782 254.9C761.541 256.621 763.482 258.144 765.571 259.443C768.41 261.287 771.431 262.834 774.585 264.06C783.047 267.103 791.975 268.641 800.967 268.604C809.959 268.641 818.888 267.103 827.349 264.06C830.504 262.834 833.524 261.287 836.363 259.443C838.452 258.144 840.394 256.621 842.152 254.9C843.6 253.555 844.835 251.998 845.816 250.283C846.781 248.912 847.478 247.37 847.868 245.739C848.358 244.25 848.605 242.691 848.601 241.123C848.62 239.577 848.373 238.04 847.868 236.579C847.478 238.21 846.781 239.751 845.816 241.123Z" fill="white"/>
<path d="M845.816 259.443C844.835 261.159 843.6 262.715 842.152 264.06C840.394 265.781 838.452 267.305 836.363 268.604C825.654 274.91 813.39 278.084 800.967 277.764C788.544 278.084 776.28 274.91 765.571 268.604C763.482 267.305 761.541 265.781 759.782 264.06C758.334 262.715 757.099 261.159 756.118 259.443C755.153 258.072 754.457 256.53 754.066 254.9C753.562 256.361 753.314 257.898 753.333 259.443C753.329 261.012 753.576 262.57 754.066 264.06C754.457 265.691 755.153 267.233 756.118 268.604C757.099 270.319 758.334 271.876 759.782 273.221C771.309 282.786 786.007 287.676 800.967 286.925C815.927 287.676 830.625 282.786 842.152 273.221C843.6 271.876 844.835 270.319 845.816 268.604C846.781 267.233 847.478 265.691 847.868 264.06C848.358 262.57 848.605 261.012 848.601 259.443C848.62 257.898 848.373 256.361 847.868 254.9C847.478 256.53 846.781 258.072 845.816 259.443Z" fill="white"/>
</g>
<path d="M246.5 205.125C229.669 205.125 216.031 200.928 216.031 195.75V214.5C216.031 219.678 229.669 223.875 246.5 223.875C263.331 223.875 276.969 219.678 276.969 214.5V195.75C276.969 200.928 263.331 205.125 246.5 205.125Z" fill="white"/>
<path d="M246.5 228.562C229.669 228.562 216.031 224.366 216.031 219.188V237.938C216.031 243.116 229.669 247.312 246.5 247.312C263.331 247.312 276.969 243.116 276.969 237.938V219.188C276.969 224.366 263.331 228.562 246.5 228.562ZM246.5 200.438C263.331 200.438 276.969 196.241 276.969 191.062C276.969 185.884 263.331 181.688 246.5 181.688C229.669 181.688 216.031 185.884 216.031 191.062C216.031 196.241 229.669 200.438 246.5 200.438Z" fill="white"/>
<path d="M646.922 127.188C647.593 127.188 648.237 127.454 648.712 127.929C649.186 128.404 649.453 129.047 649.453 129.719V162.625H697.547V129.719C697.547 129.047 697.814 128.404 698.288 127.929C698.763 127.454 699.407 127.188 700.078 127.188H702.609C703.281 127.188 703.925 127.454 704.399 127.929C704.874 128.404 705.141 129.047 705.141 129.719V163.977C705.141 167.455 702.28 170.219 698.812 170.219H677.297V175.281H693.75C694.421 175.281 695.065 175.548 695.54 176.023C696.015 176.497 696.281 177.141 696.281 177.812V180.344C696.281 181.015 696.015 181.659 695.54 182.134C695.065 182.608 694.421 182.875 693.75 182.875H653.25C652.579 182.875 651.935 182.608 651.46 182.134C650.985 181.659 650.719 181.015 650.719 180.344V177.812C650.719 177.141 650.985 176.497 651.46 176.023C651.935 175.548 652.579 175.281 653.25 175.281H669.703V170.219H648.188C644.72 170.219 641.859 167.455 641.859 163.977V129.719C641.859 129.047 642.126 128.404 642.601 127.929C643.075 127.454 643.719 127.188 644.391 127.188H646.922ZM675.019 122.125C675.69 122.125 676.334 122.392 676.809 122.866C677.283 123.341 677.55 123.985 677.55 124.656V146.093L683.314 140.975C683.562 140.754 683.852 140.584 684.166 140.475C684.48 140.366 684.812 140.32 685.144 140.34C685.476 140.359 685.801 140.444 686.1 140.589C686.399 140.734 686.667 140.937 686.888 141.185L688.569 143.076C688.789 143.325 688.959 143.614 689.068 143.928C689.177 144.242 689.223 144.575 689.204 144.907C689.184 145.239 689.1 145.563 688.955 145.863C688.81 146.162 688.607 146.429 688.358 146.65L677.702 156.122C676.544 157.151 675.049 157.719 673.5 157.719C671.951 157.719 670.456 157.151 669.298 156.122L658.642 146.65C658.393 146.429 658.19 146.162 658.045 145.863C657.9 145.563 657.816 145.239 657.796 144.907C657.777 144.575 657.823 144.242 657.932 143.928C658.041 143.614 658.211 143.325 658.431 143.076L660.112 141.185C660.333 140.937 660.601 140.734 660.9 140.589C661.199 140.444 661.524 140.359 661.856 140.34C662.188 140.32 662.52 140.366 662.834 140.475C663.148 140.584 663.438 140.754 663.686 140.975L669.956 146.549V124.656C669.956 123.985 670.223 123.341 670.698 122.866C671.172 122.392 671.816 122.125 672.488 122.125H675.019Z" fill="white"/>
</g>
<defs>
<clipPath id="clip0_207_1330">
<rect width="902" height="287.417" fill="white"/>
</clipPath>
<clipPath id="clip1_207_1330">
<rect width="75" height="75" fill="white" transform="translate(827 50)"/>
</clipPath>
<clipPath id="clip2_207_1330">
<rect width="110" height="110" fill="white" transform="translate(746 177)"/>
</clipPath>
</defs>
</svg>
