<svg width="102" height="25" viewBox="0 0 102 25" fill="none" xmlns="http://www.w3.org/2000/svg">
<g clip-path="url(#clip0_207_355)">
<path d="M11.74 20L10.56 16.76H4.8L3.62 20H0.7L6.14 5.82H9.34L14.74 20H11.74ZM7.68 8.88L5.72 14.24H9.64L7.68 8.88ZM19.3136 17.44H21.5136C23.8336 17.44 25.7736 16 25.7736 12.92C25.7736 9.84 23.8536 8.38 21.5336 8.38H19.3136V17.44ZM21.6136 20H16.5536V5.82H21.6336C25.6736 5.82 28.6336 8.44 28.6336 12.92C28.6336 17.4 25.6536 20 21.6136 20ZM35.8184 16.36L39.5184 5.82H42.4384L37.1784 20H34.3384L29.0984 5.82H32.1184L35.8184 16.36ZM47.0489 20H44.2489V5.82H47.0489V20ZM59.8241 9.2L57.3441 9.96C57.2041 9.18 56.5641 7.96 54.7641 7.96C53.4241 7.96 52.5441 8.82 52.5441 9.76C52.5441 10.54 53.0441 11.16 54.0841 11.36L56.0641 11.74C58.6441 12.24 60.0241 13.92 60.0241 15.92C60.0241 18.1 58.2041 20.3 54.9041 20.3C51.1441 20.3 49.4841 17.88 49.2641 15.86L51.8241 15.18C51.9441 16.58 52.9241 17.84 54.9241 17.84C56.4041 17.84 57.2241 17.1 57.2241 16.1C57.2241 15.28 56.6041 14.64 55.5041 14.42L53.5241 14.02C51.2641 13.56 49.8041 12.1 49.8041 9.96C49.8041 7.44 52.0641 5.52 54.7441 5.52C58.1841 5.52 59.5041 7.6 59.8241 9.2ZM64.3353 12.9C64.3353 16.1 66.5753 17.62 68.7553 17.62C70.9553 17.62 73.1953 16.1 73.1953 12.9C73.1953 9.7 70.9553 8.18 68.7553 8.18C66.5753 8.18 64.3353 9.7 64.3353 12.9ZM61.4753 12.92C61.4753 8.34 64.9153 5.52 68.7553 5.52C72.6153 5.52 76.0553 8.34 76.0553 12.92C76.0553 17.48 72.6153 20.3 68.7553 20.3C64.9153 20.3 61.4753 17.48 61.4753 12.92ZM85.4481 20L82.6681 14.54H81.2281V20H78.4481V5.82H83.9881C86.7481 5.82 88.5081 7.72 88.5081 10.18C88.5081 12.16 87.3481 13.66 85.4881 14.2L88.5281 20H85.4481ZM81.2281 12.16H83.4681C84.8681 12.16 85.6881 11.36 85.6881 10.2C85.6881 9 84.8681 8.22 83.4681 8.22H81.2281V12.16ZM100.488 9.2L98.0081 9.96C97.8681 9.18 97.2281 7.96 95.4281 7.96C94.0881 7.96 93.2081 8.82 93.2081 9.76C93.2081 10.54 93.7081 11.16 94.7481 11.36L96.7281 11.74C99.3081 12.24 100.688 13.92 100.688 15.92C100.688 18.1 98.8681 20.3 95.5681 20.3C91.8081 20.3 90.1481 17.88 89.9281 15.86L92.4881 15.18C92.6081 16.58 93.5881 17.84 95.5881 17.84C97.0681 17.84 97.8881 17.1 97.8881 16.1C97.8881 15.28 97.2681 14.64 96.1681 14.42L94.1881 14.02C91.9281 13.56 90.4681 12.1 90.4681 9.96C90.4681 7.44 92.7281 5.52 95.4081 5.52C98.8481 5.52 100.168 7.6 100.488 9.2Z" fill="white"/>
</g>
<defs>
<clipPath id="clip0_207_355">
<rect width="101" height="25" fill="white" transform="translate(0.5)"/>
</clipPath>
</defs>
</svg>
