<svg width="102" height="95" viewBox="0 0 102 95" fill="none" xmlns="http://www.w3.org/2000/svg">
<g clip-path="url(#clip0_213_1412)">
<path d="M87.0907 53.9216V40.6943C87.1182 38.7378 86.6411 36.8074 85.7057 35.0903C84.7703 33.3733 83.4083 31.9279 81.7519 30.8943L70.3801 24.3075C71.5554 19.1732 70.6491 13.7809 67.8606 9.31681C65.0722 4.85275 60.6301 1.68261 55.5114 0.503776C50.3927 -0.675055 45.0169 0.233991 40.5664 3.03093C36.1159 5.82788 32.9554 10.2836 31.7802 15.4179C31.4419 16.8757 31.2629 18.3661 31.2463 19.8627C31.2985 21.3985 31.5133 22.9243 31.887 24.4146L20.7288 31.1085C19.0687 32.1382 17.7039 33.5827 16.768 35.3007C15.8321 37.0187 15.3572 38.9511 15.3899 40.9085V54.4035C12.8429 55.0479 10.4506 56.198 8.35441 57.7859C6.25824 59.3738 4.50081 61.3672 3.18603 63.6482C1.87126 65.9292 1.02585 68.4515 0.699795 71.0659C0.373742 73.6804 0.573668 76.3338 1.28775 78.8694C2.00183 81.405 3.21557 83.7712 4.85719 85.8281C6.4988 87.885 8.53496 89.5908 10.8452 90.8446C13.1555 92.0985 15.693 92.8749 18.3076 93.128C20.9223 93.3811 23.5609 93.1057 26.0676 92.3181C29.3934 91.3453 32.3985 89.4961 34.77 86.9629L45.4477 93.3356C47.0864 94.2461 48.9147 94.7596 50.7865 94.835C52.658 94.7577 54.4859 94.2443 56.1254 93.3356L67.6039 86.6416C71.2571 90.3983 76.2484 92.5454 81.4798 92.6107C86.7112 92.6759 91.7542 90.654 95.4994 86.9897C99.2446 83.3254 101.385 78.3188 101.45 73.0714C101.515 67.824 99.4996 62.7656 95.8464 59.009C93.3624 56.4027 90.1995 54.5474 86.717 53.6538L87.0907 53.9216ZM50.9467 9.95564C52.9001 9.94508 54.8128 10.5158 56.4429 11.5956C58.0729 12.6754 59.3472 14.2157 60.1044 16.0219C60.8617 17.8281 61.068 19.819 60.6973 21.7428C60.3265 23.6666 59.3954 25.4369 58.0216 26.8299C56.6478 28.2229 54.893 29.176 52.9792 29.5687C51.0654 29.9613 49.0784 29.7759 47.2697 29.0359C45.4609 28.2958 43.9115 27.0344 42.8174 25.4112C41.7234 23.7879 41.1338 21.8756 41.1232 19.9163C41.123 17.293 42.1546 14.7756 43.9938 12.9106C45.8331 11.0457 48.3316 9.98385 50.9467 9.95564ZM20.8355 82.8395C18.8798 82.8394 16.9681 82.257 15.3427 81.166C13.7174 80.075 12.4515 78.5246 11.7055 76.7112C10.9595 74.8978 10.7671 72.9031 11.1525 70.9798C11.538 69.0566 12.484 67.2915 13.8706 65.9081C15.2573 64.5247 17.0222 63.5854 18.9416 63.2092C20.861 62.833 22.8486 63.0369 24.6524 63.7949C26.4562 64.553 27.995 65.8311 29.0739 67.4674C30.1527 69.1036 30.723 71.0243 30.7124 72.9859C30.7124 74.2844 30.4566 75.5701 29.9596 76.7691C29.4626 77.9681 28.7342 79.0567 27.8163 79.9724C26.8985 80.8881 25.8092 81.6128 24.6112 82.1048C23.4132 82.5969 22.1301 82.8465 20.8355 82.8395ZM51.8009 84.928C51.5837 85.0604 51.3343 85.1304 51.0802 85.1304C50.826 85.1304 50.5767 85.0604 50.3594 84.928L39.6817 78.6624C40.2585 76.9334 40.5823 75.1295 40.6427 73.3073C40.6317 68.7766 39.0731 64.3866 36.2267 60.8688C33.3802 57.351 29.4178 54.918 24.9999 53.9751V40.6943C24.9966 40.4322 25.0644 40.1742 25.1961 39.9478C25.3278 39.7215 25.5183 39.5352 25.7473 39.4091L36.425 33.09C38.2635 35.127 40.5033 36.7594 43.0029 37.884C45.5024 39.0085 48.2073 39.6008 50.9467 39.6233C53.7108 39.6256 56.4439 39.0397 58.9655 37.9043C61.4872 36.7688 63.74 35.1097 65.5751 33.0364L76.2528 39.4091C76.4815 39.5406 76.6742 39.7268 76.8139 39.951C76.9536 40.1752 77.0359 40.4305 77.0537 40.6943V53.9216C72.8247 54.9946 69.0736 57.4525 66.3947 60.9058C63.7159 64.3591 62.2626 68.6104 62.2651 72.9859C62.2706 74.8006 62.5404 76.6047 63.0659 78.3411L51.8009 84.928ZM82.2324 82.8395C80.2744 82.85 78.3575 82.2767 76.7251 81.1921C75.0927 80.1076 73.8185 78.5609 73.0643 76.7485C72.3101 74.936 72.11 72.9396 72.4894 71.0129C72.8688 69.0861 73.8106 67.3159 75.1951 65.9272C76.5796 64.5384 78.3444 63.5938 80.2653 63.2132C82.1862 62.8327 84.1765 63.0334 85.9834 63.7899C87.7904 64.5463 89.3324 65.8244 90.4136 67.4618C91.4948 69.0992 92.0664 71.022 92.0559 72.9859C92.0418 75.5949 91.0024 78.093 89.1631 79.9379C87.3239 81.7827 84.8334 82.8254 82.2324 82.8395Z" fill="white"/>
</g>
<defs>
<clipPath id="clip0_213_1412">
<rect width="100.904" height="94.835" fill="white" transform="translate(0.547852)"/>
</clipPath>
</defs>
</svg>
