<svg width="100" height="99" viewBox="0 0 100 99" fill="none" xmlns="http://www.w3.org/2000/svg">
<g clip-path="url(#clip0_213_1411)">
<path d="M54.5169 0.00022247C55.0605 -0.0065522 55.5949 0.141527 56.0576 0.427158L63.8291 5.21627C64.2993 5.52564 64.85 5.67414 65.4007 5.67414H96.5857C98.1944 5.67414 99.5 6.94876 99.5 8.50801V96.166C99.487 96.9264 99.174 97.6509 98.6294 98.1817C98.0847 98.7124 97.3524 99.0065 96.5919 98.9999H3.40812C2.64763 99.0065 1.91531 98.7124 1.37063 98.1817C0.825951 97.6509 0.513027 96.9264 0.5 96.166V2.83409C0.5 1.27484 1.81175 0.00022247 3.40812 0.00022247H54.5169ZM53.6692 5.67414H6.31625V93.326H93.6837V11.3419H65.4069C63.7486 11.3419 62.1461 10.8902 60.7229 10.0116L53.663 5.67414H53.6692ZM37.4517 48.7947C39.0543 48.7947 40.3599 50.0693 40.3599 51.6285C40.3485 52.39 40.0362 53.1161 39.4914 53.6482C38.9465 54.1803 38.2133 54.4752 37.4517 54.4686H26.7041V59.202H34.4818C36.0843 59.202 37.3899 60.4766 37.3899 62.0359C37.3785 62.7974 37.0662 63.5234 36.5214 64.0555C35.9765 64.5876 35.2433 64.8826 34.4818 64.8759H26.7041V69.6094H38.0272C39.6359 69.6094 40.9415 70.884 40.9415 72.4432C40.9301 73.2047 40.6179 73.9308 40.073 74.4629C39.5282 74.995 38.7949 75.2899 38.0334 75.2833H23.7959C23.0344 75.2899 22.3011 74.995 21.7563 74.4629C21.2114 73.9308 20.8992 73.2047 20.8878 72.4432V51.6285C20.8878 50.0693 22.1872 48.7947 23.7959 48.7947H37.4517ZM67.7891 48.8194C69.3978 48.8194 70.6972 50.1002 70.6972 51.6595V69.6094H82.0265C83.6352 69.6094 84.9408 70.884 84.9408 72.4432C84.9294 73.2047 84.6172 73.9308 84.0723 74.4629C83.5275 74.995 82.7942 75.2899 82.0327 75.2833H67.7891C67.0275 75.2899 66.2943 74.995 65.7494 74.4629C65.2046 73.9308 64.8923 73.2047 64.8809 72.4432V51.6533C64.8809 50.1002 66.1865 48.8194 67.7891 48.8194ZM60.0176 48.8194C61.6449 48.8194 62.9257 50.1002 62.9257 51.6595C62.9127 52.4199 62.5997 53.1444 62.0551 53.6751C61.5104 54.2059 60.778 54.5 60.0176 54.4933H55.8162V72.4432C55.8048 73.2047 55.4926 73.9308 54.9478 74.4629C54.4029 74.995 53.6697 75.2899 52.9081 75.2833C52.1455 75.2915 51.4107 74.9973 50.8645 74.4651C50.3183 73.9328 50.0052 73.2058 49.9938 72.4432V54.4995H45.7739C45.0113 54.5061 44.2772 54.2104 43.7321 53.6769C43.1871 53.1435 42.8756 52.4159 42.8658 51.6533C42.8658 50.1002 44.1652 48.8194 45.7739 48.8194H60.0176ZM64.5592 38.4121C66.1618 38.4121 67.4673 39.6929 67.4673 41.2521C67.4543 42.0126 67.1414 42.737 66.5967 43.2678C66.052 43.7986 65.3197 44.0926 64.5592 44.086H61.6511C60.8895 44.0943 60.1556 43.8009 59.6096 43.27C59.0636 42.739 58.7498 42.0136 58.7368 41.2521C58.7368 39.6929 60.0485 38.4121 61.6449 38.4121H64.553H64.5592ZM84.9408 38.4121C86.5434 38.4121 87.8489 39.6929 87.8489 41.2521C87.8359 42.0126 87.523 42.737 86.9783 43.2678C86.4336 43.7986 85.7013 44.0926 84.9408 44.086H76.2041C75.4436 44.0926 74.7112 43.7986 74.1666 43.2678C73.6219 42.737 73.309 42.0126 73.2959 41.2521C73.2959 39.6929 74.6015 38.4121 76.2041 38.4121H84.9408ZM20.8816 32.2246C22.4842 32.2246 23.7897 33.5054 23.7897 35.0647C23.7767 35.8251 23.4638 36.5495 22.9191 37.0803C22.3744 37.6111 21.6421 37.9052 20.8816 37.8985H15.0592C14.2987 37.9052 13.5664 37.6111 13.0217 37.0803C12.477 36.5495 12.1641 35.8251 12.1511 35.0647C12.1511 33.5054 13.4566 32.2246 15.0592 32.2246H20.8816ZM41.2633 23.7168C42.872 23.7168 44.1714 24.9976 44.1714 26.5569C44.1583 27.3173 43.8454 28.0418 43.3007 28.5725C42.7561 29.1033 42.0237 29.3974 41.2633 29.3907H15.0592C14.2987 29.3974 13.5664 29.1033 13.0217 28.5725C12.477 28.0418 12.1641 27.3173 12.1511 26.5569C12.1511 24.9976 13.4566 23.7168 15.0592 23.7168H41.2633Z" fill="white"/>
</g>
<defs>
<clipPath id="clip0_213_1411">
<rect width="99" height="99" fill="white" transform="translate(0.5)"/>
</clipPath>
</defs>
</svg>
