<svg width="158" height="40" viewBox="0 0 158 40" fill="none" xmlns="http://www.w3.org/2000/svg">
<g clip-path="url(#clip0_203_117)">
<path d="M52.7559 13.5V3.47852H54.752L57.124 10.5742C57.3428 11.235 57.5023 11.7295 57.6025 12.0576C57.7165 11.693 57.8942 11.1576 58.1357 10.4512L60.5352 3.47852H62.3193V13.5H61.041V5.1123L58.1289 13.5H56.9326L54.0342 4.96875V13.5H52.7559ZM64.6846 13.5V3.47852H66.0107V13.5H64.6846ZM67.5557 13.5V12.2695L72.6895 5.85059C73.054 5.39486 73.4004 4.99837 73.7285 4.66113H68.1367V3.47852H75.3145V4.66113L69.6885 11.6133L69.0801 12.3174H75.4785V13.5H67.5557ZM83.4902 3.47852H84.8164V9.26855C84.8164 10.2757 84.7025 11.0755 84.4746 11.668C84.2467 12.2604 83.8343 12.7435 83.2373 13.1172C82.6449 13.4863 81.8656 13.6709 80.8994 13.6709C79.9606 13.6709 79.1927 13.5091 78.5957 13.1855C77.9987 12.862 77.5726 12.3949 77.3174 11.7842C77.0622 11.1689 76.9346 10.3304 76.9346 9.26855V3.47852H78.2607V9.26172C78.2607 10.1322 78.3405 10.7747 78.5 11.1895C78.6641 11.5996 78.9421 11.9163 79.334 12.1396C79.7305 12.363 80.2135 12.4746 80.7832 12.4746C81.7585 12.4746 82.4535 12.2536 82.8682 11.8115C83.2829 11.3695 83.4902 10.5195 83.4902 9.26172V3.47852ZM95.6172 9.56934V8.39355L99.8623 8.38672V12.1055C99.2106 12.625 98.5384 13.0169 97.8457 13.2812C97.153 13.541 96.4421 13.6709 95.7129 13.6709C94.7285 13.6709 93.833 13.4613 93.0264 13.042C92.2243 12.6182 91.6182 12.0075 91.208 11.21C90.7979 10.4124 90.5928 9.52148 90.5928 8.53711C90.5928 7.56185 90.7956 6.65267 91.2012 5.80957C91.6113 4.96191 92.1992 4.33301 92.9648 3.92285C93.7305 3.5127 94.6123 3.30762 95.6104 3.30762C96.335 3.30762 96.9889 3.42611 97.5723 3.66309C98.1602 3.89551 98.6204 4.22135 98.9531 4.64062C99.2858 5.0599 99.5387 5.60677 99.7119 6.28125L98.5156 6.60938C98.3652 6.09896 98.1784 5.69792 97.9551 5.40625C97.7318 5.11458 97.4128 4.88216 96.998 4.70898C96.5833 4.53125 96.123 4.44238 95.6172 4.44238C95.0111 4.44238 94.487 4.53581 94.0449 4.72266C93.6029 4.90495 93.2451 5.14648 92.9717 5.44727C92.7028 5.74805 92.4932 6.07845 92.3428 6.43848C92.0876 7.05827 91.96 7.73047 91.96 8.45508C91.96 9.34831 92.1126 10.0957 92.418 10.6973C92.7279 11.2988 93.1768 11.7454 93.7646 12.0371C94.3525 12.3288 94.9769 12.4746 95.6377 12.4746C96.2119 12.4746 96.7725 12.3652 97.3193 12.1465C97.8662 11.9232 98.2809 11.6862 98.5635 11.4355V9.56934H95.6172ZM101.64 13.5V3.47852H102.87V13.5H101.64ZM104.326 9.87012C104.326 8.52572 104.7 7.52995 105.447 6.88281C106.072 6.34505 106.833 6.07617 107.73 6.07617C108.729 6.07617 109.544 6.4043 110.178 7.06055C110.811 7.71224 111.128 8.61458 111.128 9.76758C111.128 10.7018 110.987 11.4378 110.704 11.9756C110.426 12.5088 110.018 12.9235 109.48 13.2197C108.947 13.516 108.364 13.6641 107.73 13.6641C106.714 13.6641 105.892 13.3382 105.263 12.6865C104.638 12.0348 104.326 11.096 104.326 9.87012ZM105.591 9.87012C105.591 10.7998 105.794 11.4971 106.199 11.9619C106.605 12.4222 107.115 12.6523 107.73 12.6523C108.341 12.6523 108.849 12.4199 109.255 11.9551C109.66 11.4902 109.863 10.7816 109.863 9.8291C109.863 8.93132 109.658 8.25228 109.248 7.79199C108.842 7.32715 108.337 7.09473 107.73 7.09473C107.115 7.09473 106.605 7.32487 106.199 7.78516C105.794 8.24544 105.591 8.94043 105.591 9.87012ZM113.712 13.5H112.57V3.47852H113.801V7.05371C114.32 6.40202 114.983 6.07617 115.79 6.07617C116.237 6.07617 116.658 6.16732 117.055 6.34961C117.456 6.52734 117.784 6.78027 118.039 7.1084C118.299 7.43197 118.502 7.82389 118.647 8.28418C118.793 8.74447 118.866 9.23665 118.866 9.76074C118.866 11.0049 118.559 11.9665 117.943 12.6455C117.328 13.3245 116.59 13.6641 115.729 13.6641C114.872 13.6641 114.2 13.3063 113.712 12.5908V13.5ZM113.698 9.81543C113.698 10.6859 113.817 11.3148 114.054 11.7021C114.441 12.3356 114.965 12.6523 115.626 12.6523C116.164 12.6523 116.629 12.4199 117.021 11.9551C117.412 11.4857 117.608 10.7884 117.608 9.86328C117.608 8.91536 117.419 8.21582 117.041 7.76465C116.667 7.31348 116.214 7.08789 115.681 7.08789C115.143 7.08789 114.678 7.32259 114.286 7.79199C113.894 8.25684 113.698 8.93132 113.698 9.81543ZM125.107 12.6045C124.652 12.9919 124.212 13.2653 123.788 13.4248C123.369 13.5843 122.918 13.6641 122.435 13.6641C121.637 13.6641 121.024 13.4704 120.596 13.083C120.167 12.6911 119.953 12.1921 119.953 11.5859C119.953 11.2305 120.033 10.9069 120.192 10.6152C120.356 10.319 120.568 10.082 120.828 9.9043C121.092 9.72656 121.389 9.59212 121.717 9.50098C121.958 9.43717 122.323 9.37565 122.811 9.31641C123.804 9.19792 124.535 9.05664 125.005 8.89258C125.009 8.72396 125.012 8.61686 125.012 8.57129C125.012 8.06999 124.896 7.7168 124.663 7.51172C124.349 7.23372 123.882 7.09473 123.262 7.09473C122.683 7.09473 122.255 7.19727 121.977 7.40234C121.703 7.60286 121.5 7.96061 121.368 8.47559L120.165 8.31152C120.274 7.79655 120.454 7.38184 120.705 7.06738C120.956 6.74837 121.318 6.50456 121.792 6.33594C122.266 6.16276 122.815 6.07617 123.439 6.07617C124.059 6.07617 124.563 6.14909 124.95 6.29492C125.338 6.44076 125.622 6.62533 125.805 6.84863C125.987 7.06738 126.115 7.34538 126.188 7.68262C126.229 7.89225 126.249 8.27051 126.249 8.81738V10.458C126.249 11.6019 126.274 12.3265 126.324 12.6318C126.379 12.9326 126.484 13.222 126.639 13.5H125.354C125.226 13.2448 125.144 12.9463 125.107 12.6045ZM125.005 9.85645C124.558 10.0387 123.888 10.1937 122.995 10.3213C122.489 10.3942 122.132 10.4762 121.922 10.5674C121.712 10.6585 121.55 10.793 121.437 10.9707C121.323 11.1439 121.266 11.3376 121.266 11.5518C121.266 11.8799 121.389 12.1533 121.635 12.3721C121.885 12.5908 122.25 12.7002 122.729 12.7002C123.202 12.7002 123.624 12.5977 123.993 12.3926C124.362 12.1829 124.633 11.8981 124.807 11.5381C124.939 11.2601 125.005 10.8499 125.005 10.3076V9.85645ZM128.136 13.5V3.47852H129.366V13.5H128.136ZM135.56 13.5V3.47852H136.886V13.5H135.56ZM139.073 13.5V6.24023H140.181V7.27246C140.714 6.47493 141.484 6.07617 142.491 6.07617C142.929 6.07617 143.33 6.15592 143.694 6.31543C144.063 6.47038 144.339 6.67546 144.521 6.93066C144.704 7.18587 144.831 7.48893 144.904 7.83984C144.95 8.06771 144.973 8.46647 144.973 9.03613V13.5H143.742V9.08398C143.742 8.58268 143.694 8.20898 143.599 7.96289C143.503 7.71224 143.332 7.514 143.086 7.36816C142.844 7.21777 142.56 7.14258 142.231 7.14258C141.707 7.14258 141.254 7.30892 140.871 7.6416C140.493 7.97428 140.304 8.60547 140.304 9.53516V13.5H139.073ZM151.604 10.8408L152.813 10.998C152.681 11.832 152.342 12.486 151.795 12.96C151.253 13.4294 150.585 13.6641 149.792 13.6641C148.799 13.6641 147.999 13.3405 147.393 12.6934C146.791 12.0417 146.49 11.1097 146.49 9.89746C146.49 9.11361 146.62 8.42773 146.88 7.83984C147.14 7.25195 147.534 6.81217 148.062 6.52051C148.596 6.22428 149.174 6.07617 149.799 6.07617C150.587 6.07617 151.232 6.27669 151.733 6.67773C152.235 7.07422 152.556 7.63932 152.697 8.37305L151.501 8.55762C151.387 8.06999 151.184 7.70312 150.893 7.45703C150.605 7.21094 150.257 7.08789 149.847 7.08789C149.227 7.08789 148.723 7.3112 148.336 7.75781C147.949 8.19987 147.755 8.90169 147.755 9.86328C147.755 10.8385 147.942 11.5472 148.315 11.9893C148.689 12.4313 149.177 12.6523 149.778 12.6523C150.261 12.6523 150.665 12.5042 150.988 12.208C151.312 11.9118 151.517 11.4561 151.604 10.8408ZM154.215 13.5V12.0986H155.616V13.5H154.215Z" fill="#827777"/>
<path d="M8.94727 32.9863L10.2734 33.3213C9.99544 34.4105 9.49414 35.2422 8.76953 35.8164C8.04948 36.3861 7.16764 36.6709 6.12402 36.6709C5.04395 36.6709 4.16439 36.4521 3.48535 36.0146C2.81087 35.5726 2.2959 34.9346 1.94043 34.1006C1.58952 33.2666 1.41406 32.3711 1.41406 31.4141C1.41406 30.3704 1.6123 29.4613 2.00879 28.6865C2.40983 27.9072 2.97721 27.3171 3.71094 26.916C4.44922 26.5104 5.26042 26.3076 6.14453 26.3076C7.14714 26.3076 7.99023 26.5628 8.67383 27.0732C9.35742 27.5837 9.83366 28.3014 10.1025 29.2266L8.79688 29.5342C8.56445 28.805 8.22721 28.2741 7.78516 27.9414C7.3431 27.6087 6.78711 27.4424 6.11719 27.4424C5.34701 27.4424 4.70215 27.627 4.18262 27.9961C3.66764 28.3652 3.30534 28.862 3.0957 29.4863C2.88607 30.1061 2.78125 30.7464 2.78125 31.4072C2.78125 32.2594 2.9043 33.0046 3.15039 33.6426C3.40104 34.276 3.78841 34.75 4.3125 35.0645C4.83659 35.3789 5.40397 35.5361 6.01465 35.5361C6.75749 35.5361 7.38639 35.3219 7.90137 34.8936C8.41634 34.4652 8.76497 33.8294 8.94727 32.9863ZM11.2988 32.8701C11.2988 31.5257 11.6725 30.5299 12.4199 29.8828C13.0443 29.3451 13.8053 29.0762 14.7031 29.0762C15.7012 29.0762 16.5169 29.4043 17.1504 30.0605C17.7839 30.7122 18.1006 31.6146 18.1006 32.7676C18.1006 33.7018 17.9593 34.4378 17.6768 34.9756C17.3988 35.5088 16.9909 35.9235 16.4531 36.2197C15.9199 36.516 15.3366 36.6641 14.7031 36.6641C13.6868 36.6641 12.8643 36.3382 12.2354 35.6865C11.611 35.0348 11.2988 34.096 11.2988 32.8701ZM12.5635 32.8701C12.5635 33.7998 12.7663 34.4971 13.1719 34.9619C13.5775 35.4222 14.0879 35.6523 14.7031 35.6523C15.3138 35.6523 15.8219 35.4199 16.2275 34.9551C16.6331 34.4902 16.8359 33.7816 16.8359 32.8291C16.8359 31.9313 16.6309 31.2523 16.2207 30.792C15.8151 30.3271 15.3092 30.0947 14.7031 30.0947C14.0879 30.0947 13.5775 30.3249 13.1719 30.7852C12.7663 31.2454 12.5635 31.9404 12.5635 32.8701ZM19.5498 39.2822V29.2402H20.6709V30.1836C20.9352 29.8145 21.2337 29.5387 21.5664 29.3564C21.8991 29.1696 22.3024 29.0762 22.7764 29.0762C23.3962 29.0762 23.943 29.2357 24.417 29.5547C24.891 29.8737 25.2487 30.3249 25.4902 30.9082C25.7318 31.487 25.8525 32.1227 25.8525 32.8154C25.8525 33.5583 25.7181 34.2282 25.4492 34.8252C25.1849 35.4176 24.7975 35.8734 24.2871 36.1924C23.7812 36.5068 23.248 36.6641 22.6875 36.6641C22.2773 36.6641 21.9082 36.5775 21.5801 36.4043C21.2565 36.2311 20.9899 36.0124 20.7803 35.748V39.2822H19.5498ZM20.6641 32.9111C20.6641 33.8454 20.8532 34.5358 21.2314 34.9824C21.6097 35.429 22.0677 35.6523 22.6055 35.6523C23.1523 35.6523 23.6195 35.4222 24.0068 34.9619C24.3988 34.4971 24.5947 33.7793 24.5947 32.8086C24.5947 31.8835 24.4033 31.1908 24.0205 30.7305C23.6423 30.2702 23.1888 30.04 22.6602 30.04C22.1361 30.04 21.6712 30.2861 21.2656 30.7783C20.8646 31.266 20.6641 31.9769 20.6641 32.9111ZM27.2881 39.2959L27.1514 38.1406C27.4202 38.2135 27.6549 38.25 27.8555 38.25C28.1289 38.25 28.3477 38.2044 28.5117 38.1133C28.6758 38.0221 28.8102 37.8945 28.915 37.7305C28.9925 37.6074 29.1178 37.3021 29.291 36.8145C29.3138 36.7461 29.3503 36.6458 29.4004 36.5137L26.6455 29.2402H27.9717L29.4824 33.4443C29.6784 33.9775 29.8538 34.5381 30.0088 35.126C30.1501 34.5609 30.3187 34.0094 30.5146 33.4717L32.0664 29.2402H33.2969L30.5352 36.623C30.2389 37.4206 30.0088 37.9697 29.8447 38.2705C29.626 38.6761 29.3753 38.9723 29.0928 39.1592C28.8102 39.3506 28.473 39.4463 28.0811 39.4463C27.8441 39.4463 27.5798 39.3962 27.2881 39.2959ZM34.3291 36.5V29.2402H35.4365V30.3408C35.7191 29.8258 35.9788 29.4863 36.2158 29.3223C36.4574 29.1582 36.7217 29.0762 37.0088 29.0762C37.4235 29.0762 37.8451 29.2083 38.2734 29.4727L37.8496 30.6143C37.5488 30.4365 37.248 30.3477 36.9473 30.3477C36.6784 30.3477 36.4368 30.4297 36.2227 30.5938C36.0085 30.7533 35.8558 30.9766 35.7646 31.2637C35.6279 31.7012 35.5596 32.1797 35.5596 32.6992V36.5H34.3291ZM39.0117 27.8936V26.4785H40.2422V27.8936H39.0117ZM39.0117 36.5V29.2402H40.2422V36.5H39.0117ZM41.8965 37.1016L43.0928 37.2793C43.1429 37.6484 43.2819 37.9173 43.5098 38.0859C43.8151 38.3138 44.2321 38.4277 44.7607 38.4277C45.3304 38.4277 45.7702 38.3138 46.0801 38.0859C46.39 37.8581 46.5996 37.5391 46.709 37.1289C46.7728 36.8783 46.8024 36.3519 46.7979 35.5498C46.2601 36.1833 45.5902 36.5 44.7881 36.5C43.79 36.5 43.0176 36.14 42.4707 35.4199C41.9238 34.6999 41.6504 33.8363 41.6504 32.8291C41.6504 32.1364 41.7757 31.4984 42.0264 30.915C42.277 30.3271 42.6393 29.8737 43.1133 29.5547C43.5918 29.2357 44.1523 29.0762 44.7949 29.0762C45.6517 29.0762 46.3581 29.4225 46.9141 30.1152V29.2402H48.0488V35.5156C48.0488 36.6458 47.9326 37.4456 47.7002 37.915C47.4723 38.389 47.1077 38.7627 46.6064 39.0361C46.1097 39.3096 45.4967 39.4463 44.7676 39.4463C43.9017 39.4463 43.2021 39.2503 42.6689 38.8584C42.1357 38.471 41.8783 37.8854 41.8965 37.1016ZM42.915 32.7402C42.915 33.6927 43.1042 34.3877 43.4824 34.8252C43.8607 35.2627 44.3346 35.4814 44.9043 35.4814C45.4694 35.4814 45.9434 35.265 46.3262 34.832C46.709 34.3945 46.9004 33.7109 46.9004 32.7812C46.9004 31.8926 46.7021 31.2227 46.3057 30.7715C45.9137 30.3203 45.4398 30.0947 44.8838 30.0947C44.3369 30.0947 43.8721 30.318 43.4893 30.7646C43.1064 31.2067 42.915 31.8652 42.915 32.7402ZM49.915 36.5V26.4785H51.1455V30.0742C51.7197 29.4089 52.4443 29.0762 53.3193 29.0762C53.8571 29.0762 54.3242 29.1833 54.7207 29.3975C55.1172 29.6071 55.3997 29.8988 55.5684 30.2725C55.7415 30.6462 55.8281 31.1885 55.8281 31.8994V36.5H54.5977V31.8994C54.5977 31.2842 54.4632 30.8376 54.1943 30.5596C53.93 30.277 53.554 30.1357 53.0664 30.1357C52.7018 30.1357 52.3577 30.2314 52.0342 30.4229C51.7152 30.6097 51.4873 30.8649 51.3506 31.1885C51.2139 31.512 51.1455 31.9587 51.1455 32.5283V36.5H49.915ZM60.3945 35.3994L60.5723 36.4863C60.2259 36.5592 59.916 36.5957 59.6426 36.5957C59.196 36.5957 58.8496 36.5251 58.6035 36.3838C58.3574 36.2425 58.1842 36.0579 58.084 35.8301C57.9837 35.5977 57.9336 35.1123 57.9336 34.374V30.1973H57.0312V29.2402H57.9336V27.4424L59.1572 26.7041V29.2402H60.3945V30.1973H59.1572V34.4424C59.1572 34.7933 59.1777 35.0189 59.2188 35.1191C59.2643 35.2194 59.335 35.2992 59.4307 35.3584C59.5309 35.4176 59.6722 35.4473 59.8545 35.4473C59.9912 35.4473 60.1712 35.4313 60.3945 35.3994ZM69.7598 26.3076C70.6257 26.3076 71.471 26.5309 72.2959 26.9775C73.1208 27.4196 73.7633 28.0553 74.2236 28.8848C74.6839 29.7096 74.9141 30.571 74.9141 31.4688C74.9141 32.3574 74.6862 33.2119 74.2305 34.0322C73.7793 34.8525 73.1436 35.4906 72.3232 35.9463C71.5075 36.3975 70.653 36.623 69.7598 36.623C68.8665 36.623 68.0098 36.3975 67.1895 35.9463C66.3737 35.4906 65.738 34.8525 65.2822 34.0322C64.8265 33.2119 64.5986 32.3574 64.5986 31.4688C64.5986 30.571 64.8288 29.7096 65.2891 28.8848C65.7539 28.0553 66.3988 27.4196 67.2236 26.9775C68.0485 26.5309 68.8939 26.3076 69.7598 26.3076ZM69.7598 27.1621C69.0352 27.1621 68.3288 27.349 67.6406 27.7227C66.957 28.0918 66.4215 28.6227 66.0342 29.3154C65.6468 30.0036 65.4531 30.7214 65.4531 31.4688C65.4531 32.2116 65.6423 32.9248 66.0205 33.6084C66.4033 34.2874 66.9365 34.8184 67.6201 35.2012C68.3037 35.5794 69.0169 35.7686 69.7598 35.7686C70.5026 35.7686 71.2158 35.5794 71.8994 35.2012C72.583 34.8184 73.1139 34.2874 73.4922 33.6084C73.8704 32.9248 74.0596 32.2116 74.0596 31.4688C74.0596 30.7214 73.8659 30.0036 73.4785 29.3154C73.0957 28.6227 72.5602 28.0918 71.8721 27.7227C71.1839 27.349 70.4798 27.1621 69.7598 27.1621ZM71.4141 32.3027L72.2549 32.5488C72.1182 33.1185 71.8265 33.5742 71.3799 33.916C70.9378 34.2533 70.4001 34.4219 69.7666 34.4219C68.9645 34.4219 68.3128 34.1621 67.8115 33.6426C67.3102 33.123 67.0596 32.403 67.0596 31.4824C67.0596 30.8809 67.1735 30.359 67.4014 29.917C67.6292 29.4704 67.9528 29.1354 68.3721 28.9121C68.7959 28.6842 69.279 28.5703 69.8213 28.5703C70.4274 28.5703 70.931 28.7161 71.332 29.0078C71.7331 29.2949 72.0065 29.6868 72.1523 30.1836L71.3389 30.3818C71.2021 30.0446 70.9993 29.7871 70.7305 29.6094C70.4661 29.4271 70.154 29.3359 69.7939 29.3359C69.2699 29.3359 68.8369 29.5228 68.4951 29.8965C68.1579 30.2702 67.9893 30.8057 67.9893 31.5029C67.9893 32.2002 68.1488 32.7288 68.4678 33.0889C68.7913 33.4443 69.2083 33.6221 69.7188 33.6221C70.1289 33.6221 70.4889 33.5036 70.7988 33.2666C71.1087 33.0296 71.3138 32.7083 71.4141 32.3027ZM79.8359 36.5V26.4785H81.832L84.2041 33.5742C84.4229 34.235 84.5824 34.7295 84.6826 35.0576C84.7965 34.693 84.9743 34.1576 85.2158 33.4512L87.6152 26.4785H89.3994V36.5H88.1211V28.1123L85.209 36.5H84.0127L81.1143 27.9688V36.5H79.8359ZM91.7646 36.5V26.4785H93.0908V36.5H91.7646ZM94.6357 36.5V35.2695L99.7695 28.8506C100.134 28.3949 100.48 27.9984 100.809 27.6611H95.2168V26.4785H102.395V27.6611L96.7686 34.6133L96.1602 35.3174H102.559V36.5H94.6357ZM110.57 26.4785H111.896V32.2686C111.896 33.2757 111.783 34.0755 111.555 34.668C111.327 35.2604 110.914 35.7435 110.317 36.1172C109.725 36.4863 108.946 36.6709 107.979 36.6709C107.041 36.6709 106.273 36.5091 105.676 36.1855C105.079 35.862 104.653 35.3949 104.397 34.7842C104.142 34.1689 104.015 33.3304 104.015 32.2686V26.4785H105.341V32.2617C105.341 33.1322 105.421 33.7747 105.58 34.1895C105.744 34.5996 106.022 34.9163 106.414 35.1396C106.811 35.363 107.294 35.4746 107.863 35.4746C108.839 35.4746 109.534 35.2536 109.948 34.8115C110.363 34.3695 110.57 33.5195 110.57 32.2617V26.4785ZM122.697 32.5693V31.3936L126.942 31.3867V35.1055C126.291 35.625 125.618 36.0169 124.926 36.2812C124.233 36.541 123.522 36.6709 122.793 36.6709C121.809 36.6709 120.913 36.4613 120.106 36.042C119.304 35.6182 118.698 35.0075 118.288 34.21C117.878 33.4124 117.673 32.5215 117.673 31.5371C117.673 30.5618 117.876 29.6527 118.281 28.8096C118.691 27.9619 119.279 27.333 120.045 26.9229C120.811 26.5127 121.692 26.3076 122.69 26.3076C123.415 26.3076 124.069 26.4261 124.652 26.6631C125.24 26.8955 125.701 27.2214 126.033 27.6406C126.366 28.0599 126.619 28.6068 126.792 29.2812L125.596 29.6094C125.445 29.099 125.258 28.6979 125.035 28.4062C124.812 28.1146 124.493 27.8822 124.078 27.709C123.663 27.5312 123.203 27.4424 122.697 27.4424C122.091 27.4424 121.567 27.5358 121.125 27.7227C120.683 27.9049 120.325 28.1465 120.052 28.4473C119.783 28.748 119.573 29.0785 119.423 29.4385C119.168 30.0583 119.04 30.7305 119.04 31.4551C119.04 32.3483 119.193 33.0957 119.498 33.6973C119.808 34.2988 120.257 34.7454 120.845 35.0371C121.433 35.3288 122.057 35.4746 122.718 35.4746C123.292 35.4746 123.853 35.3652 124.399 35.1465C124.946 34.9232 125.361 34.6862 125.644 34.4355V32.5693H122.697ZM128.72 36.5V26.4785H129.95V36.5H128.72ZM131.406 32.8701C131.406 31.5257 131.78 30.5299 132.527 29.8828C133.152 29.3451 133.913 29.0762 134.811 29.0762C135.809 29.0762 136.624 29.4043 137.258 30.0605C137.891 30.7122 138.208 31.6146 138.208 32.7676C138.208 33.7018 138.067 34.4378 137.784 34.9756C137.506 35.5088 137.098 35.9235 136.561 36.2197C136.027 36.516 135.444 36.6641 134.811 36.6641C133.794 36.6641 132.972 36.3382 132.343 35.6865C131.718 35.0348 131.406 34.096 131.406 32.8701ZM132.671 32.8701C132.671 33.7998 132.874 34.4971 133.279 34.9619C133.685 35.4222 134.195 35.6523 134.811 35.6523C135.421 35.6523 135.929 35.4199 136.335 34.9551C136.741 34.4902 136.943 33.7816 136.943 32.8291C136.943 31.9313 136.738 31.2523 136.328 30.792C135.923 30.3271 135.417 30.0947 134.811 30.0947C134.195 30.0947 133.685 30.3249 133.279 30.7852C132.874 31.2454 132.671 31.9404 132.671 32.8701ZM140.792 36.5H139.65V26.4785H140.881V30.0537C141.4 29.402 142.063 29.0762 142.87 29.0762C143.317 29.0762 143.738 29.1673 144.135 29.3496C144.536 29.5273 144.864 29.7803 145.119 30.1084C145.379 30.432 145.582 30.8239 145.728 31.2842C145.873 31.7445 145.946 32.2367 145.946 32.7607C145.946 34.0049 145.639 34.9665 145.023 35.6455C144.408 36.3245 143.67 36.6641 142.809 36.6641C141.952 36.6641 141.28 36.3063 140.792 35.5908V36.5ZM140.778 32.8154C140.778 33.6859 140.897 34.3148 141.134 34.7021C141.521 35.3356 142.045 35.6523 142.706 35.6523C143.244 35.6523 143.709 35.4199 144.101 34.9551C144.493 34.4857 144.688 33.7884 144.688 32.8633C144.688 31.9154 144.499 31.2158 144.121 30.7646C143.747 30.3135 143.294 30.0879 142.761 30.0879C142.223 30.0879 141.758 30.3226 141.366 30.792C140.974 31.2568 140.778 31.9313 140.778 32.8154ZM152.188 35.6045C151.732 35.9919 151.292 36.2653 150.868 36.4248C150.449 36.5843 149.998 36.6641 149.515 36.6641C148.717 36.6641 148.104 36.4704 147.676 36.083C147.247 35.6911 147.033 35.1921 147.033 34.5859C147.033 34.2305 147.113 33.9069 147.272 33.6152C147.437 33.319 147.648 33.082 147.908 32.9043C148.173 32.7266 148.469 32.5921 148.797 32.501C149.038 32.4372 149.403 32.3757 149.891 32.3164C150.884 32.1979 151.616 32.0566 152.085 31.8926C152.09 31.724 152.092 31.6169 152.092 31.5713C152.092 31.07 151.976 30.7168 151.743 30.5117C151.429 30.2337 150.962 30.0947 150.342 30.0947C149.763 30.0947 149.335 30.1973 149.057 30.4023C148.783 30.6029 148.58 30.9606 148.448 31.4756L147.245 31.3115C147.354 30.7965 147.535 30.3818 147.785 30.0674C148.036 29.7484 148.398 29.5046 148.872 29.3359C149.346 29.1628 149.895 29.0762 150.52 29.0762C151.139 29.0762 151.643 29.1491 152.03 29.2949C152.418 29.4408 152.702 29.6253 152.885 29.8486C153.067 30.0674 153.195 30.3454 153.268 30.6826C153.309 30.8923 153.329 31.2705 153.329 31.8174V33.458C153.329 34.6019 153.354 35.3265 153.404 35.6318C153.459 35.9326 153.564 36.222 153.719 36.5H152.434C152.306 36.2448 152.224 35.9463 152.188 35.6045ZM152.085 32.8564C151.638 33.0387 150.968 33.1937 150.075 33.3213C149.569 33.3942 149.212 33.4762 149.002 33.5674C148.792 33.6585 148.631 33.793 148.517 33.9707C148.403 34.1439 148.346 34.3376 148.346 34.5518C148.346 34.8799 148.469 35.1533 148.715 35.3721C148.965 35.5908 149.33 35.7002 149.809 35.7002C150.283 35.7002 150.704 35.5977 151.073 35.3926C151.442 35.1829 151.714 34.8981 151.887 34.5381C152.019 34.2601 152.085 33.8499 152.085 33.3076V32.8564ZM155.216 36.5V26.4785H156.446V36.5H155.216Z" fill="#827777"/>
</g>
<defs>
<clipPath id="clip0_203_117">
<rect width="157" height="39" fill="white" transform="translate(0.716797 0.5)"/>
</clipPath>
</defs>
</svg>
